<svg id="Layer_1" data-name="Layer 1" xmlns="http://www.w3.org/2000/svg" viewBox="0 0 720 576"><defs><style>.cls-1,.cls-2,.cls-4,.cls-6{fill:#231f20;}.cls-1,.cls-3{stroke:#231f20;}.cls-1,.cls-6{stroke-miterlimit:10;}.cls-2{stroke:#000;}.cls-2,.cls-3{stroke-linecap:round;stroke-linejoin:round;stroke-width:2px;}.cls-3,.cls-5{fill:#fff;}.cls-6{stroke:#fff;}</style></defs><title>Hanoi_Tower_Set_Elixir_2</title><path class="cls-1" d="M656,522.57c0-.14,0-0.29,0-0.43s0-.29,0-0.43V469.92H64.18s-0.23,51.74-.23,52.22c0,2.67,2.12,5.24,6.08,7.71,13.87,8.61,50.58,16.11,101.74,21.48S288.5,559.92,360,559.92c81.71,0,155.68-4.21,209.24-11,26.78-3.41,48.45-7.46,63.44-12,7.5-2.25,13.32-4.62,17.29-7.08,3.38-2.1,5.41-4.29,5.94-6.55H656v-0.73Z"/><ellipse class="cls-2" cx="360" cy="471" rx="295.87" ry="37.63"/><path class="cls-3" d="M656,471.09c0-.14,0-0.29,0-0.43s0-.29,0-0.43V418.44H64.18s-0.23,51.74-.23,52.22c0,2.67,2.12,5.24,6.08,7.71,13.87,8.61,50.58,16.11,101.74,21.48S288.5,508.44,360,508.44c81.71,0,155.68-4.21,209.24-11,26.78-3.41,48.45-7.46,63.44-12,7.5-2.25,13.32-4.62,17.29-7.08,3.38-2.1,5.41-4.29,5.94-6.55H656v-0.73Z"/><ellipse class="cls-3" cx="360" cy="419.52" rx="295.87" ry="37.63"/><path class="cls-3" d="M656,419.61c0-.14,0-0.29,0-0.43s0-.29,0-0.43V367H64.18s-0.23,51.74-.23,52.22c0,2.67,2.12,5.24,6.08,7.71C83.9,435.5,120.62,443,171.78,448.37S288.5,457,360,457c81.71,0,155.68-4.21,209.24-11,26.78-3.41,48.45-7.46,63.44-12,7.5-2.25,13.32-4.62,17.29-7.08,3.38-2.1,5.41-4.29,5.94-6.55H656v-0.73Z"/><ellipse class="cls-3" cx="360" cy="368.05" rx="295.87" ry="37.63"/><path class="cls-4" d="M360,376.3c-16,0-29-3.75-30.2-8.61h-0.08l0-.5V24.35h60.63V367.69H390.2C389,372.55,376,376.3,360,376.3Z"/><path class="cls-5" d="M389.82,24.85V367.19h0c-0.49,4.78-13.63,8.61-29.79,8.61s-29.3-3.83-29.79-8.61h0V367s0,0,0-.06,0,0,0-.06v-342h59.63m1-1H329.19v343s0,0.07,0,.11v1.27h0.23c2,5.6,16.84,8.61,30.58,8.61s28.6-3,30.58-8.61h0.21l0-1V23.85h0Z"/><ellipse class="cls-6" cx="359.99" cy="24.97" rx="29.81" ry="8.89"/><path class="cls-4" d="M87.37,459.42l0.11-2.49-0.14,0-2.56,3.81-0.55-.08L81.56,456l-0.11,0,0.14,2.28c0,3.53,0,5.3,0,8.83l-3-.47c0-6.44,0-9.66,0-16.1l3.18,0.5,2.74,4.89h0.09l2.72-4,3.16,0.48c0,6.44,0,9.66,0,16.1L87.37,468C87.37,464.57,87.37,462.86,87.37,459.42Z"/><path class="cls-4" d="M93.48,458.21a11.18,11.18,0,0,1,2.12-.4,11.83,11.83,0,0,1,2.85.12,6.89,6.89,0,0,1,2,.58,4.14,4.14,0,0,1,1.35,1,3.73,3.73,0,0,1,.74,1.37,5.91,5.91,0,0,1,.23,1.69q0,1.17-.08,2T102.63,466a10.13,10.13,0,0,0,0,1.09c0,0.21.05,0.43,0.07,0.63l1.49,0.21v2.53l-3.84-.56-0.3-1.61-0.11,0a3.2,3.2,0,0,1-1.3,1,4,4,0,0,1-2.27.18,4.46,4.46,0,0,1-2.71-1.32,3.65,3.65,0,0,1-1-2.59A3.35,3.35,0,0,1,93,464a2.38,2.38,0,0,1,1-1,4.24,4.24,0,0,1,1.61-.43,9.27,9.27,0,0,1,2.1.09q0.41,0.06.86,0.17l1.11,0.26a2.28,2.28,0,0,0,0-.45v-0.44a1.7,1.7,0,0,0-.5-1.33,2.76,2.76,0,0,0-1.48-.6,6.64,6.64,0,0,0-2.09,0,11.77,11.77,0,0,0-1.57.36Zm3.9,9a2.52,2.52,0,0,0,1.63-.16,2.16,2.16,0,0,0,.79-0.75v-1.38l-0.68-.2a8.28,8.28,0,0,0-1-.2,4.65,4.65,0,0,0-.86,0,2.57,2.57,0,0,0-.77.14A1.23,1.23,0,0,0,96,465a1,1,0,0,0-.2.64,1.51,1.51,0,0,0,.37,1.06A2,2,0,0,0,97.37,467.23Z"/><path class="cls-4" d="M107.8,462l-2.27-.32V459.2l2.27,0.32c0-1,0-1.57,0-2.62l3-.43c0,1.39,0,2.08,0,3.47l6,0.83v2.53l-6-.83c0,1.32,0,2,0,3.29a4.4,4.4,0,0,0,.66,2.66,2.67,2.67,0,0,0,1.86,1.05,3.83,3.83,0,0,0,1.12,0,3.72,3.72,0,0,0,.9-0.25,4.26,4.26,0,0,0,.73-0.41l0.61-.42,1.37,2.26a3.63,3.63,0,0,1-1,.71,7,7,0,0,1-1.26.49,7.19,7.19,0,0,1-1.41.25,6.56,6.56,0,0,1-1.44,0,5.71,5.71,0,0,1-3.86-2,7.48,7.48,0,0,1-1.29-4.75C107.8,464,107.8,463.36,107.8,462Z"/><path class="cls-4" d="M118.89,456.45l4.63,0.62c0,2.36,0,3.53,0,5.89h0.09a3.22,3.22,0,0,1,1.47-1,4.72,4.72,0,0,1,2.15-.15,5.79,5.79,0,0,1,1.61.44,3.62,3.62,0,0,1,1.26.92,4.21,4.21,0,0,1,.83,1.54,7.65,7.65,0,0,1,.3,2.28c0,2.86,0,4.29,0,7.15l-3-.38c0-2.61,0-3.92,0-6.53a3.17,3.17,0,0,0-.6-2.1,2.5,2.5,0,0,0-3.12-.51,2.33,2.33,0,0,0-1,1.19c0,2.93,0,4.4,0,7.34l-3-.4c0-5.43,0-8.14,0-13.57l-1.65-.22v-2.53Z"/><path class="cls-4" d="M137.67,473.47a1.47,1.47,0,0,1,.5-1.21,1.7,1.7,0,0,1,1.33-.31,2.2,2.2,0,0,1,1.38.64,1.87,1.87,0,0,1,.51,1.34,1.51,1.51,0,0,1-.51,1.23,1.73,1.73,0,0,1-1.38.31,2.09,2.09,0,0,1-1.33-.65A1.91,1.91,0,0,1,137.67,473.47Z"/><path class="cls-4" d="M148,476.25v-2.53l2.71,0.32c0-2.58,0-3.86,0-6.44l-2.73-.32c0-1,0-1.52,0-2.53l2.73,0.32v-0.64a4,4,0,0,1,.38-1.82,3.16,3.16,0,0,1,1-1.17,3.58,3.58,0,0,1,1.43-.58,5.78,5.78,0,0,1,1.69,0,11.33,11.33,0,0,1,2.61.56,7.58,7.58,0,0,1,1.69.85l-0.87,2.18a11.66,11.66,0,0,0-1.14-.59,5.33,5.33,0,0,0-1.57-.39,2,2,0,0,0-1.73.36,2.28,2.28,0,0,0-.49,1.63l4.82,0.55v2.53l-4.82-.55c0,2.58,0,3.86,0,6.44l4.84,0.55v2.53C154.36,477,152.25,476.75,148,476.25Z"/><path class="cls-4" d="M162.25,467.16a11.51,11.51,0,0,1,2.12-.48,11.88,11.88,0,0,1,2.86,0,6.73,6.73,0,0,1,2,.51,3.93,3.93,0,0,1,1.36,1,3.56,3.56,0,0,1,.75,1.34,5.8,5.8,0,0,1,.23,1.68q0,1.17-.08,2t-0.08,1.46a10,10,0,0,0,0,1.09c0,0.21.05,0.43,0.07,0.63l1.49,0.16V479l-3.86-.41-0.3-1.6h-0.11a3.39,3.39,0,0,1-1.3,1.09,4.09,4.09,0,0,1-2.28.27,4.3,4.3,0,0,1-2.72-1.22,3.51,3.51,0,0,1-1-2.55,3.42,3.42,0,0,1,.35-1.63,2.52,2.52,0,0,1,1-1,4.4,4.4,0,0,1,1.62-.49,9.32,9.32,0,0,1,2.11,0q0.41,0,.87.14l1.12,0.21a2.3,2.3,0,0,0,0-.46v-0.44a1.63,1.63,0,0,0-.5-1.31,2.67,2.67,0,0,0-1.48-.54,6.71,6.71,0,0,0-2.1.07,12.19,12.19,0,0,0-1.57.43Zm3.91,8.87a2.58,2.58,0,0,0,1.63-.23,2.29,2.29,0,0,0,.79-0.78v-1.38l-0.68-.18a8.15,8.15,0,0,0-1-.16,4.67,4.67,0,0,0-.86,0,2.65,2.65,0,0,0-.77.17,1.3,1.3,0,0,0-.55.39,1,1,0,0,0-.2.64,1.45,1.45,0,0,0,.37,1A1.94,1.94,0,0,0,166.16,476Z"/><path class="cls-4" d="M186.51,479.3a5.92,5.92,0,0,1-2.21.85,9.41,9.41,0,0,1-2.64.09,8,8,0,0,1-2.65-.7,6.21,6.21,0,0,1-2-1.43,6,6,0,0,1-1.21-2,7.52,7.52,0,0,1-.41-2.53,6.13,6.13,0,0,1,.48-2.53,4.7,4.7,0,0,1,1.34-1.77,5.13,5.13,0,0,1,2-1,7.6,7.6,0,0,1,2.55-.15,9.92,9.92,0,0,1,2.41.54,12.43,12.43,0,0,1,1.72.74c0,1.62,0,2.43,0,4l-2.53-.25v-2.12a6.78,6.78,0,0,0-1.42-.3,4.19,4.19,0,0,0-1.28.07,2.77,2.77,0,0,0-1.13.51,2.81,2.81,0,0,0-.81,1,3.33,3.33,0,0,0-.31,1.51,3.76,3.76,0,0,0,.25,1.38,3.68,3.68,0,0,0,.71,1.15,3.74,3.74,0,0,0,1.14.84,4.38,4.38,0,0,0,1.5.41,5.16,5.16,0,0,0,2.15-.16,7.75,7.75,0,0,0,1.25-.52Z"/><path class="cls-4" d="M190.42,471.8l-2.28-.22c0-1,0-1.52,0-2.53l2.28,0.22c0-1,0-1.57,0-2.62l3-.57c0,1.39,0,2.08,0,3.47l6,0.55v2.53l-6-.55c0,1.32,0,2,0,3.29a4.25,4.25,0,0,0,.67,2.63,2.54,2.54,0,0,0,1.86,1,3.81,3.81,0,0,0,2-.34,4.55,4.55,0,0,0,.74-0.44l0.61-.45,1.38,2.19a3.89,3.89,0,0,1-1,.75,7.46,7.46,0,0,1-2.68.87,6.62,6.62,0,0,1-1.45,0,5.44,5.44,0,0,1-3.87-1.8,7.2,7.2,0,0,1-1.3-4.69C190.42,473.78,190.42,473.12,190.42,471.8Z"/><path class="cls-4" d="M202.36,476.11a6.79,6.79,0,0,1,.44-2.54,4.69,4.69,0,0,1,1.24-1.8,4.76,4.76,0,0,1,1.92-1,7.14,7.14,0,0,1,2.5-.19,7.59,7.59,0,0,1,2.59.65,6,6,0,0,1,1.92,1.39,5.74,5.74,0,0,1,1.19,2,7.64,7.64,0,0,1,.4,2.52,6.81,6.81,0,0,1-.44,2.54,4.62,4.62,0,0,1-3.16,2.83,7.09,7.09,0,0,1-2.5.19,7.55,7.55,0,0,1-2.59-.66,6,6,0,0,1-1.92-1.4,5.79,5.79,0,0,1-1.18-2A7.65,7.65,0,0,1,202.36,476.11Zm3.08,0.27a4.72,4.72,0,0,0,.21,1.42,3.83,3.83,0,0,0,.6,1.18,3,3,0,0,0,2.21,1.2,2.71,2.71,0,0,0,2.17-.67,3.46,3.46,0,0,0,.84-2.62,4.26,4.26,0,0,0-.78-2.63,3,3,0,0,0-2.23-1.16,3.47,3.47,0,0,0-1.2.09,2.1,2.1,0,0,0-1,.55,2.76,2.76,0,0,0-.63,1A4.79,4.79,0,0,0,205.44,476.38Z"/><path class="cls-4" d="M216.26,480.5l2.85,0.23c0-2.58,0-3.86,0-6.44l-2.85-.23c0-1,0-1.52,0-2.53l5.18,0.41,0.35,1.54h0.09a5.47,5.47,0,0,1,1.47-1.15,3.47,3.47,0,0,1,1.93-.36,2.85,2.85,0,0,1,2.18,1.17,5.84,5.84,0,0,1,.79,3.44l-2.69-.2a2.42,2.42,0,0,0-.24-1.23,0.92,0.92,0,0,0-.77-0.44,2.15,2.15,0,0,0-1.48.35,4.16,4.16,0,0,0-1,1c0,2,0,2.94,0,4.9l5,0.38c0,1,0,1.52,0,2.53-4.34-.32-6.51-0.49-10.84-0.84C216.26,482,216.26,481.51,216.26,480.5Z"/><path class="cls-4" d="M230.53,481.59l4.05,0.29c0-2.58,0-3.86,0-6.44l-4.05-.29c0-1,0-1.52,0-2.53l7,0.49c0,3.59,0,5.38,0,9l4.26,0.29c0,1,0,1.52,0,2.53-4.52-.3-6.79-0.45-11.31-0.78C230.53,483.11,230.53,482.6,230.53,481.59Zm3.5-11.85a1.51,1.51,0,0,1,.53-1.18,1.93,1.93,0,0,1,1.47-.4,2.4,2.4,0,0,1,1.54.61,1.69,1.69,0,0,1,.58,1.26,1.38,1.38,0,0,1-.58,1.17,2.24,2.24,0,0,1-1.54.37,2.28,2.28,0,0,1-1.47-.57A1.66,1.66,0,0,1,234,469.74Z"/><path class="cls-4" d="M245.06,474.39a11.44,11.44,0,0,1,5-.7,6.57,6.57,0,0,1,2,.41,3.7,3.7,0,0,1,1.36.9,3.35,3.35,0,0,1,.75,1.31,5.67,5.67,0,0,1,.23,1.67q0,1.17-.08,2t-0.08,1.47a9.94,9.94,0,0,0,0,1.08c0,0.21.05,0.43,0.07,0.63l1.5,0.09v2.53l-3.87-.23-0.3-1.58h-0.11a3.63,3.63,0,0,1-1.3,1.15,4.2,4.2,0,0,1-2.29.38,4.11,4.11,0,0,1-2.73-1.09,3.35,3.35,0,0,1-1-2.5,3.51,3.51,0,0,1,.36-1.65,2.7,2.7,0,0,1,1-1.08,4.61,4.61,0,0,1,1.62-.56,9.4,9.4,0,0,1,2.12-.09q0.41,0,.87.1l1.12,0.16a2.32,2.32,0,0,0,0-.46v-0.44a1.56,1.56,0,0,0-.5-1.28,2.57,2.57,0,0,0-1.49-.47,6.8,6.8,0,0,0-2.11.17,12.74,12.74,0,0,0-1.58.5Zm3.92,8.69a2.65,2.65,0,0,0,1.64-.3,2.46,2.46,0,0,0,.8-0.81v-1.38l-0.68-.15a8,8,0,0,0-1-.12,4.7,4.7,0,0,0-.87,0,2.75,2.75,0,0,0-.77.21,1.39,1.39,0,0,0-.55.41,1,1,0,0,0-.21.65,1.39,1.39,0,0,0,.38,1A1.86,1.86,0,0,0,249,483.08Z"/><path class="cls-4" d="M258.82,469.84l4.91,0.27c0,4.25,0,6.38,0,10.63a5.07,5.07,0,0,0,.44,2.48,1.63,1.63,0,0,0,1.41.76,3.81,3.81,0,0,0,1.18-.09,4.21,4.21,0,0,0,.92-0.38l1.13,2.13q-0.39.23-.78,0.43a4.8,4.8,0,0,1-.83.33,5.45,5.45,0,0,1-1,.18,7.54,7.54,0,0,1-1.16,0,4.58,4.58,0,0,1-3.25-1.28,4.49,4.49,0,0,1-1.08-3.19c0-3.86,0-5.8,0-9.66l-1.91-.11v-2.53Z"/><path class="cls-4" d="M281.13,491.93a11.11,11.11,0,0,1-3.14-1.15,9.77,9.77,0,0,1-2.7-2.17,10.36,10.36,0,0,1-1.88-3.22,12.23,12.23,0,0,1-.7-4.31,11.69,11.69,0,0,1,.7-4.23,9.39,9.39,0,0,1,1.88-3.07,8.75,8.75,0,0,1,2.7-2,11,11,0,0,1,3.14-.94l0.55,2.49a9.27,9.27,0,0,0-1.83.58,6.28,6.28,0,0,0-1.95,1.31,7.24,7.24,0,0,0-1.56,2.33,9.11,9.11,0,0,0-.63,3.65,8.71,8.71,0,0,0,.67,3.6,8.4,8.4,0,0,0,1.63,2.46,7.64,7.64,0,0,0,2,1.49,8.24,8.24,0,0,0,1.71.68Z"/><path class="cls-4" d="M290.19,485.22a4.66,4.66,0,0,0,1.4-.14,3.15,3.15,0,0,0,1.08-.51,2.51,2.51,0,0,0,.7-0.8,2.05,2.05,0,0,0,.25-1,2.23,2.23,0,0,0-.29-1.17,2.2,2.2,0,0,0-.8-0.77,4,4,0,0,0-1.22-.43,10,10,0,0,0-1.54-.17l-1.29-.05v-1.65l3.87-4.57-5.83-.23v-2.53l9.41,0.36c0,0.84,0,1.26,0,2.09l-4.06,4.47,0.53,0a4.68,4.68,0,0,1,1.57.33,4.08,4.08,0,0,1,1.35.88,4.28,4.28,0,0,1,.95,1.41,4.87,4.87,0,0,1,.36,1.92,4.6,4.6,0,0,1-.54,2.28,5,5,0,0,1-1.43,1.62,5.84,5.84,0,0,1-2,.94,8.35,8.35,0,0,1-2.38.24,11.9,11.9,0,0,1-2.08-.27,10.35,10.35,0,0,1-2-.66l0.81-2.45a3.35,3.35,0,0,0,.56.25l0.81,0.26a8.9,8.9,0,0,0,.92.22A6.52,6.52,0,0,0,290.19,485.22Z"/><path class="cls-4" d="M301.07,490.19a7.7,7.7,0,0,0,1.71-.55,6.9,6.9,0,0,0,2-1.34,7.56,7.56,0,0,0,1.63-2.33,8.35,8.35,0,0,0,.67-3.54,9.47,9.47,0,0,0-.63-3.7,8,8,0,0,0-1.56-2.45,7,7,0,0,0-1.95-1.46,10,10,0,0,0-1.83-.72l0.55-2.44a11.83,11.83,0,0,1,3.14,1.18,9.77,9.77,0,0,1,2.7,2.17,10.38,10.38,0,0,1,1.88,3.22,12.13,12.13,0,0,1,.7,4.29,11.79,11.79,0,0,1-.7,4.26,9.37,9.37,0,0,1-1.88,3.07,8.78,8.78,0,0,1-2.7,2,10.41,10.41,0,0,1-3.14.91Z"/><path class="cls-4" d="M359.39,486.58a4.73,4.73,0,0,0,1.4-.19,3.3,3.3,0,0,0,1.08-.55,2.66,2.66,0,0,0,.7-0.83,2.11,2.11,0,0,0,.25-1,2.17,2.17,0,0,0-.29-1.16,2.08,2.08,0,0,0-.8-0.74,3.82,3.82,0,0,0-1.22-.39,9.86,9.86,0,0,0-1.55-.12h-1.29v-1.65l3.88-4.72h-5.84c0-1,0-1.52,0-2.53h9.41v2.09l-4.06,4.63h0.53a4.58,4.58,0,0,1,1.57.27,3.88,3.88,0,0,1,1.35.83,4.06,4.06,0,0,1,.95,1.38,4.77,4.77,0,0,1,.36,1.91,4.71,4.71,0,0,1-.54,2.3,5.26,5.26,0,0,1-1.43,1.67,6.12,6.12,0,0,1-2,1,8.46,8.46,0,0,1-2.38.33,11.78,11.78,0,0,1-2.08-.19,10,10,0,0,1-2-.58l0.81-2.48a3.2,3.2,0,0,0,.57.23l0.81,0.23a8.73,8.73,0,0,0,.92.18A6.45,6.45,0,0,0,359.39,486.58Z"/><path class="cls-4" d="M386.22,482.66l-4-5.51,3.58,0,2.61,3.8,2.72-3.89,3.25-.06-3.94,5.59,4.18,5.91-3.48.06-2.93-4.18-3,4.28-3.28,0Z"/><path class="cls-4" d="M418.79,479.24l0.12-2.51h-0.14L416.18,481l-0.55,0-2.7-4.13h-0.11l0.14,2.25c0,3.53,0,5.3,0,8.83l-3,.09c0-6.44,0-9.66,0-16.1l3.21-.09,2.77,4.38H416l2.74-4.55,3.18-.11c0,6.44,0,9.66,0,16.1l-3.16.11C418.79,484.39,418.79,482.68,418.79,479.24Z"/><path class="cls-4" d="M424.95,476.89a13.06,13.06,0,0,1,2.13-.79,12.35,12.35,0,0,1,2.87-.41,6.3,6.3,0,0,1,2,.21,3.24,3.24,0,0,1,1.36.76,2.94,2.94,0,0,1,.75,1.23,5.44,5.44,0,0,1,.23,1.65q0,1.17-.08,2T434.17,483a9.8,9.8,0,0,0,0,1.08c0,0.21.05,0.42,0.07,0.62l1.5-.06c0,1,0,1.52,0,2.53l-3.87.16-0.3-1.55h-0.11a4.21,4.21,0,0,1-1.31,1.28,4.48,4.48,0,0,1-2.29.61,3.77,3.77,0,0,1-2.73-.82,3,3,0,0,1-1-2.4,3.74,3.74,0,0,1,.35-1.68,3.13,3.13,0,0,1,1-1.19,5.11,5.11,0,0,1,1.63-.73,9.68,9.68,0,0,1,2.12-.3c0.27,0,.56,0,0.87,0l1.12,0a2.39,2.39,0,0,0,0-.46v-0.44a1.41,1.41,0,0,0-.5-1.23,2.39,2.39,0,0,0-1.49-.32,7.07,7.07,0,0,0-2.11.38,14,14,0,0,0-1.58.66Zm3.92,8.29a2.84,2.84,0,0,0,1.64-.47,2.87,2.87,0,0,0,.8-0.89c0-.55,0-0.83,0-1.38l-0.68-.08a7.89,7.89,0,0,0-1,0,4.82,4.82,0,0,0-.87.11,3,3,0,0,0-.78.28,1.59,1.59,0,0,0-.55.47,1.12,1.12,0,0,0-.2.67,1.26,1.26,0,0,0,.38,1A1.72,1.72,0,0,0,428.87,485.19Z"/><path class="cls-4" d="M439.38,478.06l-2.28.1c0-1,0-1.52,0-2.53l2.28-.1v-2.62l3-1c0,1.39,0,2.08,0,3.47l6-.29c0,1,0,1.52,0,2.53l-6,.29c0,1.32,0,2,0,3.29a3.82,3.82,0,0,0,.67,2.53,2.2,2.2,0,0,0,1.87.71,4.07,4.07,0,0,0,1.13-.2,4.5,4.5,0,0,0,.91-0.42,5.58,5.58,0,0,0,.74-0.54l0.61-.54,1.38,2a4.78,4.78,0,0,1-1,.89,8.9,8.9,0,0,1-1.27.73,8.38,8.38,0,0,1-1.42.52,6.9,6.9,0,0,1-1.45.23,4.77,4.77,0,0,1-3.88-1.26q-1.3-1.38-1.3-4.51v-3.29Z"/><path class="cls-4" d="M450.54,470.41l4.66-.24c0,2.35,0,3.53,0,5.89h0.09a4.2,4.2,0,0,1,1.47-1.25,5.21,5.21,0,0,1,2.17-.56,5.32,5.32,0,0,1,1.61.14,2.85,2.85,0,0,1,1.27.69,3.32,3.32,0,0,1,.83,1.39,7.08,7.08,0,0,1,.3,2.22c0,2.86,0,4.29,0,7.15l-3,.17c0-2.61,0-3.92,0-6.53a2.72,2.72,0,0,0-.6-2,2,2,0,0,0-1.57-.54,2.74,2.74,0,0,0-1.57.6,3,3,0,0,0-1,1.38c0,2.93,0,4.4,0,7.34l-3,.16c0-5.43,0-8.14,0-13.57l-1.66.08C450.54,471.92,450.54,471.42,450.54,470.41Z"/><path class="cls-4" d="M469.41,483.94a1.76,1.76,0,0,1,.51-1.31,2,2,0,0,1,1.34-.55,1.85,1.85,0,0,1,1.38.38,1.56,1.56,0,0,1,.51,1.25,1.8,1.8,0,0,1-.51,1.32,2,2,0,0,1-1.38.57,1.76,1.76,0,0,1-1.34-.4A1.6,1.6,0,0,1,469.41,483.94Z"/><path class="cls-4" d="M479.82,484.79v-2.53l2.72-.18c0-2.58,0-3.86,0-6.44l-2.74.18c0-1,0-1.52,0-2.53l2.74-.18v-0.64a4.4,4.4,0,0,1,.38-1.89,4.13,4.13,0,0,1,1-1.36,4.48,4.48,0,0,1,1.44-.85,6.22,6.22,0,0,1,1.69-.36,10.63,10.63,0,0,1,2.61.08,6.25,6.25,0,0,1,1.69.53L490.48,471a9.67,9.67,0,0,0-1.14-.38,4.92,4.92,0,0,0-1.58-.09,2.39,2.39,0,0,0-1.74.69,2.65,2.65,0,0,0-.49,1.73l4.84-.34c0,1,0,1.52,0,2.53l-4.84.34c0,2.58,0,3.86,0,6.44l4.86-.35v2.53C486.16,484.36,484.05,484.51,479.82,484.79Z"/><path class="cls-4" d="M494.08,473.06a13.55,13.55,0,0,1,2.13-.87,12.54,12.54,0,0,1,2.87-.52,6.21,6.21,0,0,1,2,.13,3.08,3.08,0,0,1,1.36.71,2.79,2.79,0,0,1,.75,1.21,5.36,5.36,0,0,1,.23,1.64q0,1.17-.08,2t-0.08,1.48a9.77,9.77,0,0,0,0,1.08c0,0.21.05,0.42,0.07,0.62l1.5-.12c0,1,0,1.52,0,2.53l-3.86.31-0.3-1.54h-0.11a4.45,4.45,0,0,1-1.3,1.33,4.61,4.61,0,0,1-2.29.69,3.65,3.65,0,0,1-2.72-.71,2.92,2.92,0,0,1-1-2.36,3.83,3.83,0,0,1,.35-1.69,3.31,3.31,0,0,1,1-1.23,5.32,5.32,0,0,1,1.62-.79,9.81,9.81,0,0,1,2.12-.38c0.27,0,.56,0,0.87,0h1.12a2.42,2.42,0,0,0,0-.46v-0.44a1.36,1.36,0,0,0-.5-1.21,2.33,2.33,0,0,0-1.49-.26,7.21,7.21,0,0,0-2.1.46,14.62,14.62,0,0,0-1.58.72Zm3.92,8.14a2.93,2.93,0,0,0,1.64-.53,3,3,0,0,0,.8-0.92v-1.38l-0.68-.05a7.85,7.85,0,0,0-1,0,4.88,4.88,0,0,0-.86.15,3.1,3.1,0,0,0-.77.31,1.68,1.68,0,0,0-.55.49,1.15,1.15,0,0,0-.2.68,1.22,1.22,0,0,0,.38,1A1.67,1.67,0,0,0,498,481.21Z"/><path class="cls-4" d="M518.38,480.7a7.34,7.34,0,0,1-2.21,1.26,10.11,10.11,0,0,1-2.65.58,7.26,7.26,0,0,1-2.66-.21,4.86,4.86,0,0,1-2-1.07,4.67,4.67,0,0,1-1.21-1.82,6.87,6.87,0,0,1-.41-2.45,6.78,6.78,0,0,1,.48-2.62,6.09,6.09,0,0,1,1.35-2,6.5,6.5,0,0,1,2-1.36,8.27,8.27,0,0,1,2.55-.62,9.26,9.26,0,0,1,2.42.09,10.56,10.56,0,0,1,1.73.42v4l-2.53.22v-2.12a6.37,6.37,0,0,0-1.43,0,4.53,4.53,0,0,0-1.28.3,3.49,3.49,0,0,0-1.13.72,3.58,3.58,0,0,0-1.12,2.7,3.4,3.4,0,0,0,.25,1.34,2.8,2.8,0,0,0,1.85,1.65,4,4,0,0,0,1.51.14,5.66,5.66,0,0,0,2.15-.55,9.68,9.68,0,0,0,1.25-.75Z"/><path class="cls-4" d="M522.29,472.48l-2.28.2v-2.53l2.28-.2c0-1,0-1.57,0-2.62l3-1.12c0,1.39,0,2.08,0,3.47l6-.57c0,1,0,1.52,0,2.53l-6,.57v3.29a3.7,3.7,0,0,0,.67,2.5,2.11,2.11,0,0,0,1.86.62,4.17,4.17,0,0,0,1.13-.26,4.74,4.74,0,0,0,.91-0.46,6,6,0,0,0,.74-0.58l0.61-.56,1.38,1.94a5.1,5.1,0,0,1-1,.93,9.43,9.43,0,0,1-1.27.79,8.76,8.76,0,0,1-1.41.58,7,7,0,0,1-1.45.3,4.58,4.58,0,0,1-3.87-1.08q-1.3-1.32-1.3-4.45v-3.29Z"/><path class="cls-4" d="M534.22,474.58a7.43,7.43,0,0,1,.44-2.62,6,6,0,0,1,3.16-3.4,7.82,7.82,0,0,1,2.49-.65,7,7,0,0,1,2.58.18,4.68,4.68,0,0,1,1.92,1,4.51,4.51,0,0,1,1.18,1.8,7,7,0,0,1,.4,2.44A7.47,7.47,0,0,1,546,476a6,6,0,0,1-3.16,3.42,7.75,7.75,0,0,1-2.49.66,6.9,6.9,0,0,1-2.59-.18,4.69,4.69,0,0,1-1.92-1,4.53,4.53,0,0,1-1.18-1.8A7,7,0,0,1,534.22,474.58Zm3.08-.3a4.37,4.37,0,0,0,.21,1.38,3,3,0,0,0,.6,1.07,2.34,2.34,0,0,0,.94.65,2.75,2.75,0,0,0,1.26.14,3.24,3.24,0,0,0,2.17-1.07,4,4,0,0,0,.84-2.78,3.66,3.66,0,0,0-.78-2.48,2.45,2.45,0,0,0-2.23-.75,3.8,3.8,0,0,0-1.2.32,2.71,2.71,0,0,0-1,.73,3.52,3.52,0,0,0-.63,1.17A5.18,5.18,0,0,0,537.3,474.28Z"/><path class="cls-4" d="M548.1,476.39l2.85-.3c0-2.58,0-3.86,0-6.44l-2.85.3v-2.53l5.17-.55,0.34,1.48h0.09a7.16,7.16,0,0,1,1.47-1.42,4,4,0,0,1,1.93-.72,2.34,2.34,0,0,1,2.17.77,5.16,5.16,0,0,1,.79,3.29l-2.69.3a2.17,2.17,0,0,0-.24-1.18,0.76,0.76,0,0,0-.77-0.3,2.52,2.52,0,0,0-1.48.62,5.46,5.46,0,0,0-1,1.16c0,2,0,2.94,0,4.9l5-.55v2.53c-4.33.48-6.49,0.72-10.82,1.17C548.1,477.91,548.1,477.4,548.1,476.39Z"/><path class="cls-4" d="M562.34,474.84l4-.46v-6.44l-4,.46v-2.53l7-.81v9l4.25-.5c0,1,0,1.52,0,2.53-4.51.54-6.76,0.8-11.27,1.31C562.34,476.36,562.34,475.85,562.34,474.84Zm3.49-12.5a1.83,1.83,0,0,1,.53-1.28,2.29,2.29,0,0,1,1.47-.68,2.06,2.06,0,0,1,1.54.33,1.38,1.38,0,0,1,.57,1.15,1.69,1.69,0,0,1-.57,1.27,2.62,2.62,0,0,1-1.54.65,2,2,0,0,1-1.47-.3A1.37,1.37,0,0,1,565.83,462.34Z"/><path class="cls-4" d="M576.83,465a14.17,14.17,0,0,1,2.12-1,12.8,12.8,0,0,1,2.86-.65,6.13,6.13,0,0,1,2,0,2.9,2.9,0,0,1,1.35.65,2.63,2.63,0,0,1,.75,1.17,5.28,5.28,0,0,1,.23,1.63q0,1.17-.08,2T586,470.3a9.73,9.73,0,0,0,0,1.08c0,0.21.05,0.42,0.07,0.61l1.49-.19v2.53l-3.85.49-0.3-1.53h-0.11a4.52,4.52,0,0,1-3.58,2.19,3.51,3.51,0,0,1-2.71-.59,2.79,2.79,0,0,1-1-2.32,4,4,0,0,1,.35-1.71,3.54,3.54,0,0,1,1-1.27,5.6,5.6,0,0,1,1.62-.86,10,10,0,0,1,2.11-.48,8.67,8.67,0,0,1,.87-0.06l1.12,0a2.47,2.47,0,0,0,0-.47v-0.44a1.3,1.3,0,0,0-.5-1.19,2.26,2.26,0,0,0-1.48-.19,7.4,7.4,0,0,0-2.1.56,15.36,15.36,0,0,0-1.57.79Zm3.9,8a3,3,0,0,0,1.63-.61,3.25,3.25,0,0,0,.79-1V470l-0.68,0a7.83,7.83,0,0,0-1,.06,5,5,0,0,0-.86.19,3.24,3.24,0,0,0-.77.35,1.8,1.8,0,0,0-.54.52,1.2,1.2,0,0,0-.2.69,1.17,1.17,0,0,0,.37,1A1.62,1.62,0,0,0,580.73,472.91Z"/><path class="cls-4" d="M590.52,457.85l4.88-.64c0,4.25,0,6.38,0,10.63a4.6,4.6,0,0,0,.43,2.4,1.34,1.34,0,0,0,1.4.5,4.13,4.13,0,0,0,1.17-.31,5.22,5.22,0,0,0,.92-0.55l1.12,1.92q-0.39.31-.78,0.58a5.91,5.91,0,0,1-.83.48,6.23,6.23,0,0,1-1,.36,7.91,7.91,0,0,1-1.16.24,3.91,3.91,0,0,1-3.23-.68,3.81,3.81,0,0,1-1.08-3c0-3.86,0-5.8,0-9.66l-1.9.25C590.52,459.37,590.52,458.86,590.52,457.85Z"/><path class="cls-4" d="M612.7,475.82a9.55,9.55,0,0,1-3.11-.57,7.5,7.5,0,0,1-2.68-1.67,8.11,8.11,0,0,1-1.87-2.87,11.24,11.24,0,0,1-.7-4.18,12.85,12.85,0,0,1,.7-4.36,11.94,11.94,0,0,1,1.87-3.42,11.4,11.4,0,0,1,2.68-2.47,13.17,13.17,0,0,1,3.11-1.52l0.55,2.38a11.13,11.13,0,0,0-1.82.91,8.15,8.15,0,0,0-1.94,1.67,9.3,9.3,0,0,0-1.55,2.62,10.06,10.06,0,0,0-.63,3.77,7.9,7.9,0,0,0,.66,3.47,6.48,6.48,0,0,0,1.62,2.16,5.89,5.89,0,0,0,2,1.13,7,7,0,0,0,1.69.37Z"/><path class="cls-4" d="M628,468.71c-4.08.61-6.12,0.92-10.21,1.51,0-.89,0-1.34,0-2.23l0.69-.71,0.93-1q0.51-.56,1.09-1.22t1.12-1.36q0.78-1,1.36-1.79a13.9,13.9,0,0,0,1-1.49,6.53,6.53,0,0,0,.56-1.33,4.59,4.59,0,0,0,.18-1.28,1.89,1.89,0,0,0-.21-0.87,2,2,0,0,0-.57-0.69,2.29,2.29,0,0,0-.88-0.4,3,3,0,0,0-1.13,0,4.71,4.71,0,0,0-1.5.47,6.27,6.27,0,0,0-1.41,1.06l-1.19-1.94a12.24,12.24,0,0,1,2.14-1.47,8.07,8.07,0,0,1,2.71-.87,6.26,6.26,0,0,1,1.89,0,4.22,4.22,0,0,1,1.6.58,3.18,3.18,0,0,1,1.11,1.18,3.66,3.66,0,0,1,.41,1.8,7.32,7.32,0,0,1-.13,1.39,7.59,7.59,0,0,1-.39,1.32,10.26,10.26,0,0,1-.69,1.4q-0.42.73-1,1.6-0.46.67-1,1.36T623.37,465q-0.53.63-1,1.19t-0.93.94l6.59-1v2.53Z"/><path class="cls-4" d="M632.5,470.39a9.22,9.22,0,0,0,1.69-.87,8.93,8.93,0,0,0,2-1.71,9.74,9.74,0,0,0,1.61-2.63,9.3,9.3,0,0,0,.66-3.67,8.68,8.68,0,0,0-.63-3.58,6.23,6.23,0,0,0-1.54-2.16,5.4,5.4,0,0,0-1.93-1.1,8.45,8.45,0,0,0-1.82-.38l0.55-2.55a10.09,10.09,0,0,1,3.11.6,7.47,7.47,0,0,1,2.67,1.68,8.12,8.12,0,0,1,1.86,2.87,11.17,11.17,0,0,1,.7,4.16,13,13,0,0,1-.7,4.39,11.93,11.93,0,0,1-1.86,3.42,11.41,11.41,0,0,1-2.67,2.46,12.33,12.33,0,0,1-3.11,1.49Z"/><path class="cls-4" d="M89.23,409.72l0.11-2.49-0.14,0L86.65,411l-0.55-.08-2.68-4.62-0.11,0,0.14,2.28c0,3.53,0,5.3,0,8.83l-3-.47c0-6.44,0-9.66,0-16.1l3.18,0.5,2.74,4.89h0.09l2.72-4,3.16,0.48c0,6.44,0,9.66,0,16.1l-3.13-.48C89.23,414.87,89.23,413.15,89.23,409.72Z"/><path class="cls-4" d="M95.34,408.5a11.2,11.2,0,0,1,2.12-.4,11.83,11.83,0,0,1,2.85.12,6.89,6.89,0,0,1,2,.58,4.13,4.13,0,0,1,1.35,1,3.73,3.73,0,0,1,.74,1.37,5.9,5.9,0,0,1,.23,1.69q0,1.17-.08,2t-0.08,1.46a10.08,10.08,0,0,0,0,1.09c0,0.21.05,0.43,0.07,0.63l1.49,0.21v2.53l-3.84-.55-0.3-1.61-0.11,0a3.2,3.2,0,0,1-1.3,1,4,4,0,0,1-2.27.19,4.46,4.46,0,0,1-2.71-1.32,3.65,3.65,0,0,1-1-2.59,3.35,3.35,0,0,1,.35-1.62,2.39,2.39,0,0,1,1-1,4.25,4.25,0,0,1,1.61-.43,9.27,9.27,0,0,1,2.1.09q0.41,0.06.86,0.17l1.11,0.25a2.28,2.28,0,0,0,0-.45v-0.44a1.7,1.7,0,0,0-.5-1.33,2.76,2.76,0,0,0-1.48-.59,6.65,6.65,0,0,0-2.09,0A11.81,11.81,0,0,0,96,411Zm3.9,9a2.52,2.52,0,0,0,1.63-.17,2.18,2.18,0,0,0,.79-0.75v-1.38L101,415a8.29,8.29,0,0,0-1-.2,4.64,4.64,0,0,0-.86,0,2.58,2.58,0,0,0-.77.14,1.22,1.22,0,0,0-.54.37,1,1,0,0,0-.2.64A1.51,1.51,0,0,0,98,417,2,2,0,0,0,99.24,417.51Z"/><path class="cls-4" d="M109.67,412.31L107.4,412v-2.53l2.27,0.32v-2.62l3-.44c0,1.39,0,2.08,0,3.47l6,0.81v2.53l-6-.81V416a4.39,4.39,0,0,0,.66,2.66,2.67,2.67,0,0,0,1.86,1,3.83,3.83,0,0,0,1.12,0,3.73,3.73,0,0,0,.91-0.26,4.3,4.3,0,0,0,.73-0.41l0.61-.42,1.38,2.25a3.65,3.65,0,0,1-1,.71,7,7,0,0,1-1.26.5,7.2,7.2,0,0,1-1.41.26,6.57,6.57,0,0,1-1.44,0,5.69,5.69,0,0,1-3.86-2,7.46,7.46,0,0,1-1.29-4.74v-3.29Z"/><path class="cls-4" d="M120.76,406.69l4.63,0.6v5.89h0.09a3.24,3.24,0,0,1,1.47-1,4.73,4.73,0,0,1,2.16-.16,5.78,5.78,0,0,1,1.61.43,3.6,3.6,0,0,1,1.26.92,4.19,4.19,0,0,1,.83,1.54,7.66,7.66,0,0,1,.3,2.28c0,2.86,0,4.29,0,7.15l-3-.37v-6.53a3.16,3.16,0,0,0-.6-2.1,2.5,2.5,0,0,0-3.12-.5,2.34,2.34,0,0,0-1,1.19c0,2.93,0,4.4,0,7.34l-3-.39V409.43l-1.65-.22v-2.53Z"/><path class="cls-4" d="M139.55,423.63a1.48,1.48,0,0,1,.5-1.22,1.71,1.71,0,0,1,1.33-.31,2.19,2.19,0,0,1,1.38.63,1.86,1.86,0,0,1,.51,1.34,1.51,1.51,0,0,1-.51,1.23,1.74,1.74,0,0,1-1.38.32,2.08,2.08,0,0,1-1.33-.64A1.9,1.9,0,0,1,139.55,423.63Z"/><path class="cls-4" d="M149.92,426.36v-2.53l2.71,0.3V417.7l-2.73-.31c0-1,0-1.52,0-2.53l2.73,0.31v-0.64a4,4,0,0,1,.38-1.82,3.18,3.18,0,0,1,1-1.18,3.61,3.61,0,0,1,1.44-.59,5.8,5.8,0,0,1,1.69-.06,11.31,11.31,0,0,1,2.61.55,7.52,7.52,0,0,1,1.69.83l-0.87,2.18a11.65,11.65,0,0,0-1.14-.58,5.32,5.32,0,0,0-1.57-.38,2,2,0,0,0-1.73.38,2.29,2.29,0,0,0-.49,1.64l4.82,0.52v2.53l-4.82-.52v6.44l4.85,0.52v2.53C156.25,427.07,154.14,426.84,149.92,426.36Z"/><path class="cls-4" d="M164.14,417.19a11.6,11.6,0,0,1,2.13-.49,11.91,11.91,0,0,1,2.86,0,6.71,6.71,0,0,1,2,.49,3.89,3.89,0,0,1,1.36,1,3.52,3.52,0,0,1,.75,1.34,5.78,5.78,0,0,1,.23,1.68q0,1.17-.08,2t-0.08,1.46a10,10,0,0,0,0,1.09c0,0.21.05,0.43,0.07,0.63l1.49,0.15V429l-3.86-.38-0.3-1.59h-0.11a3.42,3.42,0,0,1-1.3,1.1,4.11,4.11,0,0,1-2.28.29,4.27,4.27,0,0,1-2.72-1.2,3.49,3.49,0,0,1-1-2.54,3.43,3.43,0,0,1,.35-1.63,2.55,2.55,0,0,1,1-1,4.43,4.43,0,0,1,1.62-.5,9.33,9.33,0,0,1,2.11,0q0.41,0,.87.13l1.12,0.2a2.3,2.3,0,0,0,0-.46v-0.44a1.62,1.62,0,0,0-.5-1.3,2.65,2.65,0,0,0-1.48-.53,6.72,6.72,0,0,0-2.1.08,12.28,12.28,0,0,0-1.57.44Zm3.91,8.84a2.59,2.59,0,0,0,1.64-.24,2.32,2.32,0,0,0,.8-0.78v-1.38l-0.68-.17a8.14,8.14,0,0,0-1-.16,4.67,4.67,0,0,0-.86,0,2.64,2.64,0,0,0-.77.18,1.3,1.3,0,0,0-.55.39,1,1,0,0,0-.2.65,1.44,1.44,0,0,0,.37,1A1.93,1.93,0,0,0,168.05,426Z"/><path class="cls-4" d="M188.42,429.14a6,6,0,0,1-2.21.87,9.41,9.41,0,0,1-2.65.12,7.91,7.91,0,0,1-2.66-.68,6.15,6.15,0,0,1-2-1.41,5.9,5.9,0,0,1-1.21-2,7.49,7.49,0,0,1-.41-2.52,6.16,6.16,0,0,1,.48-2.53,4.75,4.75,0,0,1,1.34-1.78,5.18,5.18,0,0,1,2-1,7.62,7.62,0,0,1,2.55-.17,9.88,9.88,0,0,1,2.42.52,12.33,12.33,0,0,1,1.72.73v4l-2.53-.23V421a6.76,6.76,0,0,0-1.43-.29,4.2,4.2,0,0,0-1.28.08,2.8,2.8,0,0,0-1.13.52,2.85,2.85,0,0,0-.81,1,3.34,3.34,0,0,0-.31,1.51,3.74,3.74,0,0,0,.25,1.38,3.66,3.66,0,0,0,.71,1.15,3.7,3.7,0,0,0,1.14.83,4.35,4.35,0,0,0,1.51.4,5.18,5.18,0,0,0,2.15-.17,7.78,7.78,0,0,0,1.25-.53Z"/><path class="cls-4" d="M192.33,421.61l-2.28-.2v-2.53l2.28,0.2v-2.62l3-.6v3.47l6,0.49v2.53l-6-.49v3.29a4.22,4.22,0,0,0,.67,2.62,2.52,2.52,0,0,0,1.86.95,3.88,3.88,0,0,0,1.13-.06,3.93,3.93,0,0,0,.91-0.3,4.63,4.63,0,0,0,.74-0.45l0.61-.46,1.38,2.18a4,4,0,0,1-1,.76,7.54,7.54,0,0,1-2.68.9,6.62,6.62,0,0,1-1.45,0,5.39,5.39,0,0,1-3.88-1.76,7.14,7.14,0,0,1-1.3-4.68v-3.29Z"/><path class="cls-4" d="M204.27,425.81a6.81,6.81,0,0,1,.44-2.54,4.76,4.76,0,0,1,1.24-1.81,4.83,4.83,0,0,1,1.92-1,7.18,7.18,0,0,1,2.5-.21,7.55,7.55,0,0,1,2.59.63,5.91,5.91,0,0,1,1.92,1.37,5.67,5.67,0,0,1,1.19,2,7.59,7.59,0,0,1,.4,2.51,6.84,6.84,0,0,1-.44,2.55,4.68,4.68,0,0,1-3.17,2.87,7.11,7.11,0,0,1-2.5.22,7.5,7.5,0,0,1-2.59-.63,5.92,5.92,0,0,1-1.92-1.38,5.71,5.71,0,0,1-1.19-2A7.61,7.61,0,0,1,204.27,425.81Zm3.08,0.24a4.71,4.71,0,0,0,.21,1.42,3.78,3.78,0,0,0,.6,1.17,3,3,0,0,0,2.21,1.18,2.73,2.73,0,0,0,2.18-.69,3.49,3.49,0,0,0,.84-2.63,4.23,4.23,0,0,0-.78-2.62,2.93,2.93,0,0,0-2.23-1.14,3.49,3.49,0,0,0-1.2.11,2.13,2.13,0,0,0-1,.56,2.79,2.79,0,0,0-.63,1.06A4.79,4.79,0,0,0,207.36,426.05Z"/><path class="cls-4" d="M218.18,430.06l2.86,0.2v-6.44l-2.86-.2v-2.53l5.18,0.35,0.35,1.54h0.09a5.55,5.55,0,0,1,1.47-1.17,3.5,3.5,0,0,1,1.94-.38,2.81,2.81,0,0,1,2.18,1.15,5.8,5.8,0,0,1,.79,3.43l-2.7-.17a2.4,2.4,0,0,0-.24-1.22,0.91,0.91,0,0,0-.77-0.43,2.17,2.17,0,0,0-1.49.36,4.23,4.23,0,0,0-1,1v4.9l5,0.32c0,1,0,1.52,0,2.53-4.34-.27-6.51-0.41-10.85-0.72v-2.53Z"/><path class="cls-4" d="M232.46,431l4.06,0.24v-6.44l-4.06-.24V422l7.05,0.41v9l4.26,0.23v2.53c-4.53-.24-6.79-0.37-11.31-0.64V431Zm3.5-11.89a1.53,1.53,0,0,1,.53-1.19,2,2,0,0,1,1.47-.42,2.38,2.38,0,0,1,1.54.59,1.66,1.66,0,0,1,.58,1.25,1.4,1.4,0,0,1-.58,1.18,2.66,2.66,0,0,1-3-.17A1.64,1.64,0,0,1,236,419.09Z"/><path class="cls-4" d="M247,423.61a11.54,11.54,0,0,1,5-.77,6.53,6.53,0,0,1,2,.38,3.63,3.63,0,0,1,1.36.88,3.29,3.29,0,0,1,.75,1.3,5.64,5.64,0,0,1,.23,1.67q0,1.17-.08,2t-0.08,1.47a9.89,9.89,0,0,0,0,1.08c0,0.21.05,0.42,0.07,0.62l1.5,0.07v2.53l-3.87-.18-0.3-1.58h-0.11a3.7,3.7,0,0,1-1.31,1.17,4.23,4.23,0,0,1-2.29.41,4.06,4.06,0,0,1-2.73-1.06,3.3,3.3,0,0,1-1-2.49,3.54,3.54,0,0,1,.35-1.65,2.76,2.76,0,0,1,1-1.1,4.67,4.67,0,0,1,1.63-.59,9.43,9.43,0,0,1,2.12-.11c0.28,0,.57,0,0.87.09l1.12,0.15a2.33,2.33,0,0,0,0-.46V427a1.54,1.54,0,0,0-.5-1.28,2.55,2.55,0,0,0-1.49-.45,6.83,6.83,0,0,0-2.11.2,12.88,12.88,0,0,0-1.58.52Zm3.92,8.64a2.67,2.67,0,0,0,1.64-.32,2.52,2.52,0,0,0,.8-0.82v-1.38l-0.68-.14a8,8,0,0,0-1-.1,4.71,4.71,0,0,0-.87,0,2.76,2.76,0,0,0-.77.22,1.4,1.4,0,0,0-.55.42,1,1,0,0,0-.21.66,1.37,1.37,0,0,0,.38,1A1.84,1.84,0,0,0,250.92,432.24Z"/><path class="cls-4" d="M260.76,418.87l4.91,0.2v10.63a5,5,0,0,0,.44,2.48,1.61,1.61,0,0,0,1.41.74,3.83,3.83,0,0,0,1.18-.11,4.29,4.29,0,0,0,.92-0.39l1.13,2.11q-0.39.24-.78,0.44a4.86,4.86,0,0,1-.83.34,5.5,5.5,0,0,1-1,.19,7.56,7.56,0,0,1-1.16,0,4.52,4.52,0,0,1-3.25-1.23,4.43,4.43,0,0,1-1.08-3.17v-9.66l-1.91-.08v-2.53Z"/><path class="cls-4" d="M283.08,440.63a11,11,0,0,1-3.14-1.1,9.56,9.56,0,0,1-2.7-2.13,10.15,10.15,0,0,1-1.88-3.19,12.14,12.14,0,0,1-.7-4.3,11.77,11.77,0,0,1,.7-4.24,9.58,9.58,0,0,1,1.88-3.1,9,9,0,0,1,2.7-2,11.2,11.2,0,0,1,3.14-1l0.55,2.48a9.42,9.42,0,0,0-1.83.6,6.43,6.43,0,0,0-1.95,1.34,7.4,7.4,0,0,0-1.56,2.36,9.18,9.18,0,0,0-.63,3.66,8.63,8.63,0,0,0,.67,3.59A8.22,8.22,0,0,0,280,436a7.47,7.47,0,0,0,2,1.46,8.11,8.11,0,0,0,1.71.66Z"/><path class="cls-4" d="M298.49,436.11c-4.12-.08-6.17-0.12-10.29-0.22v-2.23c0.18-.15.41-0.35,0.69-0.59l0.93-.84q0.52-.47,1.1-1t1.13-1.17q0.78-.86,1.37-1.56a11,11,0,0,0,1-1.33,5.4,5.4,0,0,0,.57-1.23,4.24,4.24,0,0,0,.19-1.25,2.1,2.1,0,0,0-.21-0.9,2.53,2.53,0,0,0-.58-0.78,2.84,2.84,0,0,0-.89-0.55,3.25,3.25,0,0,0-1.14-.22,4.28,4.28,0,0,0-1.51.22,5,5,0,0,0-1.42.82l-1.2-2.15a9.89,9.89,0,0,1,2.16-1.11,7.32,7.32,0,0,1,2.73-.41,6.62,6.62,0,0,1,1.9.32,5.14,5.14,0,0,1,1.61.85,4,4,0,0,1,1.53,3.24,6.94,6.94,0,0,1-.13,1.37,6.57,6.57,0,0,1-.39,1.26,8.33,8.33,0,0,1-.69,1.29q-0.43.66-1,1.43-0.46.59-1,1.19t-1.07,1.14q-0.53.54-1,1t-0.93.78l6.64,0.14v2.53Z"/><path class="cls-4" d="M303,438.56a7.81,7.81,0,0,0,1.71-.58,7.06,7.06,0,0,0,2-1.38,7.74,7.74,0,0,0,1.63-2.36,8.43,8.43,0,0,0,.67-3.56,9.39,9.39,0,0,0-.63-3.69,7.85,7.85,0,0,0-1.56-2.42,6.84,6.84,0,0,0-1.95-1.43,9.81,9.81,0,0,0-1.83-.68l0.55-2.45a11.65,11.65,0,0,1,3.14,1.13,9.53,9.53,0,0,1,2.7,2.13,10.14,10.14,0,0,1,1.88,3.18,12,12,0,0,1,.7,4.27,11.89,11.89,0,0,1-.7,4.27,9.6,9.6,0,0,1-1.88,3.11,9,9,0,0,1-2.7,2,10.55,10.55,0,0,1-3.14,1Z"/><path class="cls-4" d="M607.05,420.94c-4.08.65-6.12,1-10.2,1.58v-2.23l0.69-.71,0.93-1q0.51-.56,1.09-1.22t1.12-1.37q0.78-1,1.36-1.8a14,14,0,0,0,1-1.49,6.58,6.58,0,0,0,.56-1.33,4.61,4.61,0,0,0,.18-1.28,1.88,1.88,0,0,0-.21-0.87,2,2,0,0,0-.57-0.68,2.27,2.27,0,0,0-.88-0.39,3,3,0,0,0-1.13,0,4.74,4.74,0,0,0-1.5.48,6.33,6.33,0,0,0-1.41,1.07l-1.19-1.94a12.36,12.36,0,0,1,2.14-1.49,8.11,8.11,0,0,1,2.71-.89,6.25,6.25,0,0,1,1.89,0,4.18,4.18,0,0,1,1.6.57,3.14,3.14,0,0,1,1.11,1.17,3.65,3.65,0,0,1,.41,1.8,7.34,7.34,0,0,1-.13,1.39,7.65,7.65,0,0,1-.39,1.33,10.35,10.35,0,0,1-.69,1.41q-0.42.73-1,1.61-0.46.67-1,1.36t-1.06,1.33q-0.53.63-1,1.2t-0.93.95l6.58-1v2.53Z"/></svg>