<svg id="Layer_1" data-name="Layer 1" xmlns="http://www.w3.org/2000/svg" viewBox="0 0 720 576"><defs><style>.cls-1,.cls-2,.cls-4,.cls-6{fill:#231f20;}.cls-1,.cls-3{stroke:#231f20;}.cls-1,.cls-6{stroke-miterlimit:10;}.cls-2{stroke:#000;}.cls-2,.cls-3{stroke-linecap:round;stroke-linejoin:round;stroke-width:2px;}.cls-3,.cls-5{fill:#fff;}.cls-6{stroke:#fff;}</style></defs><title>Hanoi_Tower_Set_Elixir_2</title><path class="cls-1" d="M656,522.57c0-.14,0-0.29,0-0.43s0-.29,0-0.43V469.92H64.18s-0.23,51.74-.23,52.22c0,2.67,2.12,5.24,6.08,7.71,13.87,8.61,50.58,16.11,101.74,21.48S288.5,559.92,360,559.92c81.71,0,155.68-4.21,209.24-11,26.78-3.41,48.45-7.46,63.44-12,7.5-2.25,13.32-4.62,17.29-7.08,3.38-2.1,5.41-4.29,5.94-6.55H656v-0.73Z"/><ellipse class="cls-2" cx="360" cy="471" rx="295.87" ry="37.63"/><path class="cls-3" d="M656,471.09c0-.14,0-0.29,0-0.43s0-.29,0-0.43V418.44H64.18s-0.23,51.74-.23,52.22c0,2.67,2.12,5.24,6.08,7.71,13.87,8.61,50.58,16.11,101.74,21.48S288.5,508.44,360,508.44c81.71,0,155.68-4.21,209.24-11,26.78-3.41,48.45-7.46,63.44-12,7.5-2.25,13.32-4.62,17.29-7.08,3.38-2.1,5.41-4.29,5.94-6.55H656v-0.73Z"/><ellipse class="cls-3" cx="360" cy="419.52" rx="295.87" ry="37.63"/><path class="cls-4" d="M360,428.3c-16,0-29-3.75-30.2-8.61h-0.08l0-.5V24.35h60.63V419.69H390.2C389,424.55,376,428.3,360,428.3Z"/><path class="cls-5" d="M389.82,24.85V419.19h0c-0.49,4.78-13.63,8.61-29.79,8.61s-29.3-3.83-29.79-8.61h0V419s0,0,0-.06,0,0,0-.06v-394h59.63m1-1H329.19v395s0,0.07,0,.11v1.27h0.23c2,5.6,16.84,8.61,30.58,8.61s28.6-3,30.58-8.61h0.21l0-1V23.85h0Z"/><ellipse class="cls-6" cx="359.99" cy="24.97" rx="29.81" ry="8.89"/><path class="cls-4" d="M87.37,459.26l0.11-2.49-0.14,0-2.56,3.81-0.55-.09-2.68-4.63-0.11,0,0.14,2.28v8.83l-3-.47v-16.1l3.18,0.5,2.74,4.89h0.09l2.72-4,3.16,0.48v16.1l-3.13-.48v-8.58Z"/><path class="cls-4" d="M93.47,458.05a11.18,11.18,0,0,1,2.12-.4,11.82,11.82,0,0,1,2.85.12,6.89,6.89,0,0,1,2,.58,4.13,4.13,0,0,1,1.35,1,3.73,3.73,0,0,1,.74,1.37,5.91,5.91,0,0,1,.23,1.69q0,1.17-.08,2t-0.08,1.46a10.09,10.09,0,0,0,0,1.09c0,0.21.05,0.43,0.07,0.63l1.49,0.21v2.53l-3.84-.56-0.3-1.61-0.11,0a3.19,3.19,0,0,1-1.3,1,4,4,0,0,1-2.27.18,4.46,4.46,0,0,1-2.71-1.32,3.65,3.65,0,0,1-1-2.59,3.35,3.35,0,0,1,.35-1.62,2.39,2.39,0,0,1,1-1,4.24,4.24,0,0,1,1.61-.43,9.27,9.27,0,0,1,2.1.09q0.41,0.06.86,0.17L99.77,463a2.28,2.28,0,0,0,0-.45v-0.44a1.7,1.7,0,0,0-.5-1.33,2.76,2.76,0,0,0-1.48-.6,6.64,6.64,0,0,0-2.09,0,11.79,11.79,0,0,0-1.57.36Zm3.9,9a2.52,2.52,0,0,0,1.63-.16,2.17,2.17,0,0,0,.79-0.75v-1.38l-0.68-.2a8.27,8.27,0,0,0-1-.2,4.64,4.64,0,0,0-.86,0,2.57,2.57,0,0,0-.77.14,1.22,1.22,0,0,0-.54.37,1,1,0,0,0-.2.64,1.51,1.51,0,0,0,.37,1.06A2,2,0,0,0,97.37,467.07Z"/><path class="cls-4" d="M107.8,461.89l-2.27-.32V459l2.27,0.32v-2.62l3-.43v3.47l6,0.83v2.53l-6-.83v3.29a4.4,4.4,0,0,0,.66,2.66,2.67,2.67,0,0,0,1.86,1.05,3.83,3.83,0,0,0,1.12,0,3.73,3.73,0,0,0,.91-0.25,4.28,4.28,0,0,0,.73-0.41l0.61-.42,1.38,2.26a3.64,3.64,0,0,1-1,.71,7,7,0,0,1-1.26.49,7.18,7.18,0,0,1-1.41.25,6.57,6.57,0,0,1-1.44,0,5.71,5.71,0,0,1-3.86-2,7.48,7.48,0,0,1-1.29-4.75v-3.29Z"/><path class="cls-4" d="M118.89,456.29l4.63,0.62v5.89h0.09a3.22,3.22,0,0,1,1.47-1,4.72,4.72,0,0,1,2.15-.15,5.79,5.79,0,0,1,1.6.44,3.62,3.62,0,0,1,1.26.92,4.21,4.21,0,0,1,.83,1.54,7.67,7.67,0,0,1,.3,2.28V474l-3-.38V467.1a3.17,3.17,0,0,0-.6-2.1,2.5,2.5,0,0,0-3.12-.51,2.34,2.34,0,0,0-1,1.19V473l-3-.4V459l-1.65-.22v-2.53Z"/><path class="cls-4" d="M137.67,473.31a1.47,1.47,0,0,1,.5-1.21,1.7,1.7,0,0,1,1.33-.31,2.2,2.2,0,0,1,1.38.64,1.87,1.87,0,0,1,.51,1.34,1.5,1.5,0,0,1-.51,1.23,1.73,1.73,0,0,1-1.38.31,2.09,2.09,0,0,1-1.33-.65A1.91,1.91,0,0,1,137.67,473.31Z"/><path class="cls-4" d="M148,476.09v-2.53l2.71,0.32v-6.44l-2.73-.32v-2.53l2.73,0.32v-0.64a4,4,0,0,1,.38-1.82,3.15,3.15,0,0,1,1-1.17,3.58,3.58,0,0,1,1.43-.58,5.78,5.78,0,0,1,1.69,0,11.33,11.33,0,0,1,2.61.56,7.56,7.56,0,0,1,1.69.85l-0.87,2.18a11.71,11.71,0,0,0-1.14-.59,5.33,5.33,0,0,0-1.57-.39,2,2,0,0,0-1.73.36,2.28,2.28,0,0,0-.49,1.63l4.82,0.55v2.53l-4.82-.55v6.44l4.84,0.55v2.53C154.36,476.84,152.25,476.59,148,476.09Z"/><path class="cls-4" d="M162.25,467a11.53,11.53,0,0,1,2.12-.48,11.88,11.88,0,0,1,2.86,0,6.74,6.74,0,0,1,2,.51,3.93,3.93,0,0,1,1.36,1,3.56,3.56,0,0,1,.75,1.34,5.8,5.8,0,0,1,.23,1.68q0,1.17-.08,2t-0.08,1.46a10,10,0,0,0,0,1.09c0,0.21.05,0.43,0.07,0.63l1.49,0.16v2.53l-3.86-.41-0.3-1.6h-0.11a3.39,3.39,0,0,1-1.3,1.09,4.1,4.1,0,0,1-2.28.27,4.3,4.3,0,0,1-2.72-1.22,3.51,3.51,0,0,1-1-2.55,3.42,3.42,0,0,1,.35-1.63,2.53,2.53,0,0,1,1-1,4.4,4.4,0,0,1,1.62-.49,9.31,9.31,0,0,1,2.11,0q0.41,0,.87.14l1.12,0.21a2.3,2.3,0,0,0,0-.46v-0.44a1.63,1.63,0,0,0-.5-1.31,2.67,2.67,0,0,0-1.48-.54,6.7,6.7,0,0,0-2.1.07,12.19,12.19,0,0,0-1.57.42Zm3.91,8.87a2.58,2.58,0,0,0,1.64-.23,2.3,2.3,0,0,0,.79-0.78v-1.38l-0.68-.18a8.16,8.16,0,0,0-1-.16,4.66,4.66,0,0,0-.86,0,2.65,2.65,0,0,0-.77.17,1.29,1.29,0,0,0-.55.39,1,1,0,0,0-.2.64,1.45,1.45,0,0,0,.37,1A1.94,1.94,0,0,0,166.16,475.87Z"/><path class="cls-4" d="M186.51,479.13a5.92,5.92,0,0,1-2.21.85,9.4,9.4,0,0,1-2.64.1,8,8,0,0,1-2.65-.7,6.21,6.21,0,0,1-2-1.43,6,6,0,0,1-1.21-2,7.52,7.52,0,0,1-.41-2.53,6.13,6.13,0,0,1,.48-2.53,4.7,4.7,0,0,1,1.34-1.77,5.13,5.13,0,0,1,2-1,7.6,7.6,0,0,1,2.55-.15,9.92,9.92,0,0,1,2.41.54,12.42,12.42,0,0,1,1.72.74v4l-2.53-.25v-2.12a6.78,6.78,0,0,0-1.42-.3,4.19,4.19,0,0,0-1.28.07,2.77,2.77,0,0,0-1.13.51,2.82,2.82,0,0,0-.8,1,3.33,3.33,0,0,0-.31,1.51,3.76,3.76,0,0,0,.25,1.38,3.7,3.7,0,0,0,.71,1.15,3.74,3.74,0,0,0,1.14.84,4.38,4.38,0,0,0,1.51.41,5.16,5.16,0,0,0,2.15-.16,7.71,7.71,0,0,0,1.25-.52Z"/><path class="cls-4" d="M190.42,471.64l-2.28-.22V468.9l2.28,0.22v-2.62l3-.57v3.47l6,0.55v2.53l-6-.55v3.29a4.25,4.25,0,0,0,.67,2.63,2.54,2.54,0,0,0,1.86,1,3.81,3.81,0,0,0,2-.34,4.57,4.57,0,0,0,.74-0.44l0.61-.45,1.38,2.19a3.9,3.9,0,0,1-1,.75,7.47,7.47,0,0,1-2.68.87,6.62,6.62,0,0,1-1.45,0,5.44,5.44,0,0,1-3.87-1.8,7.2,7.2,0,0,1-1.3-4.69v-3.29Z"/><path class="cls-4" d="M202.36,476a6.78,6.78,0,0,1,.44-2.54,4.69,4.69,0,0,1,1.24-1.8,4.77,4.77,0,0,1,1.92-1,7.15,7.15,0,0,1,2.5-.19,7.59,7.59,0,0,1,2.59.65,6,6,0,0,1,1.92,1.39,5.75,5.75,0,0,1,1.18,2,7.64,7.64,0,0,1,.4,2.52,6.81,6.81,0,0,1-.44,2.54,4.62,4.62,0,0,1-3.16,2.83,7.09,7.09,0,0,1-2.5.19,7.55,7.55,0,0,1-2.59-.66,6,6,0,0,1-1.92-1.4,5.78,5.78,0,0,1-1.18-2A7.65,7.65,0,0,1,202.36,476Zm3.08,0.27a4.73,4.73,0,0,0,.21,1.42,3.83,3.83,0,0,0,.6,1.18,3,3,0,0,0,2.21,1.2,2.71,2.71,0,0,0,2.17-.67,3.46,3.46,0,0,0,.84-2.62,4.26,4.26,0,0,0-.78-2.63,3,3,0,0,0-2.23-1.16,3.47,3.47,0,0,0-1.2.09,2.1,2.1,0,0,0-1,.55,2.76,2.76,0,0,0-.63,1A4.77,4.77,0,0,0,205.44,476.22Z"/><path class="cls-4" d="M216.26,480.34l2.85,0.23v-6.44l-2.85-.23v-2.53l5.18,0.41,0.35,1.54h0.09a5.45,5.45,0,0,1,1.47-1.15,3.47,3.47,0,0,1,1.93-.36,2.84,2.84,0,0,1,2.18,1.17,5.84,5.84,0,0,1,.79,3.44l-2.69-.2a2.42,2.42,0,0,0-.24-1.23,0.92,0.92,0,0,0-.77-0.44,2.15,2.15,0,0,0-1.48.35,4.16,4.16,0,0,0-1,1v4.9l5,0.38v2.53c-4.34-.32-6.51-0.49-10.84-0.84v-2.53Z"/><path class="cls-4" d="M230.53,481.43l4.05,0.29v-6.44l-4.05-.29v-2.53l7,0.49v9l4.26,0.29v2.53c-4.52-.3-6.79-0.45-11.31-0.78v-2.53Zm3.5-11.85a1.51,1.51,0,0,1,.53-1.18A1.93,1.93,0,0,1,236,468a2.4,2.4,0,0,1,1.54.61,1.68,1.68,0,0,1,.58,1.26,1.38,1.38,0,0,1-.58,1.17,2.24,2.24,0,0,1-1.54.37,2.28,2.28,0,0,1-1.47-.57A1.66,1.66,0,0,1,234,469.58Z"/><path class="cls-4" d="M245.06,474.23a11.45,11.45,0,0,1,5-.7,6.58,6.58,0,0,1,2,.41,3.7,3.7,0,0,1,1.36.9,3.35,3.35,0,0,1,.75,1.31,5.67,5.67,0,0,1,.23,1.67q0,1.17-.08,2t-0.08,1.47a9.9,9.9,0,0,0,0,1.08c0,0.21.05,0.43,0.07,0.63l1.5,0.09v2.53l-3.87-.23-0.3-1.58h-0.11a3.63,3.63,0,0,1-1.3,1.15,4.2,4.2,0,0,1-2.29.38,4.11,4.11,0,0,1-2.73-1.09,3.35,3.35,0,0,1-1-2.5,3.51,3.51,0,0,1,.35-1.65,2.71,2.71,0,0,1,1-1.08,4.61,4.61,0,0,1,1.63-.56,9.39,9.39,0,0,1,2.12-.09q0.41,0,.87.1l1.12,0.16a2.32,2.32,0,0,0,0-.46v-0.44a1.56,1.56,0,0,0-.5-1.28,2.57,2.57,0,0,0-1.49-.47,6.8,6.8,0,0,0-2.1.17,12.73,12.73,0,0,0-1.58.5Zm3.92,8.69a2.65,2.65,0,0,0,1.64-.3,2.47,2.47,0,0,0,.8-0.81v-1.38l-0.68-.14a8,8,0,0,0-1-.12,4.69,4.69,0,0,0-.87,0,2.75,2.75,0,0,0-.77.21,1.38,1.38,0,0,0-.55.41,1,1,0,0,0-.2.65,1.39,1.39,0,0,0,.38,1A1.86,1.86,0,0,0,249,482.92Z"/><path class="cls-4" d="M258.82,469.68l4.91,0.27v10.63a5.07,5.07,0,0,0,.44,2.48,1.63,1.63,0,0,0,1.41.76,3.81,3.81,0,0,0,1.18-.09,4.22,4.22,0,0,0,.92-0.38l1.13,2.13q-0.39.23-.78,0.43a4.79,4.79,0,0,1-.83.33,5.44,5.44,0,0,1-1,.18,7.54,7.54,0,0,1-1.16,0,4.58,4.58,0,0,1-3.25-1.28,4.49,4.49,0,0,1-1.08-3.19v-9.66l-1.91-.11v-2.53Z"/><path class="cls-4" d="M281.13,491.77a11.11,11.11,0,0,1-3.14-1.15,9.77,9.77,0,0,1-2.7-2.17,10.36,10.36,0,0,1-1.88-3.22,12.23,12.23,0,0,1-.7-4.31,11.69,11.69,0,0,1,.7-4.23,9.39,9.39,0,0,1,1.88-3.07,8.75,8.75,0,0,1,2.7-2,11,11,0,0,1,3.14-.94l0.55,2.49a9.27,9.27,0,0,0-1.83.58,6.28,6.28,0,0,0-1.95,1.31,7.24,7.24,0,0,0-1.56,2.33,9.11,9.11,0,0,0-.63,3.65,8.71,8.71,0,0,0,.67,3.6,8.4,8.4,0,0,0,1.63,2.46,7.64,7.64,0,0,0,2,1.49,8.24,8.24,0,0,0,1.71.68Z"/><path class="cls-4" d="M290.19,485.06a4.66,4.66,0,0,0,1.4-.14,3.15,3.15,0,0,0,1.08-.51,2.51,2.51,0,0,0,.7-0.8,2.05,2.05,0,0,0,.25-1,2.23,2.23,0,0,0-.29-1.17,2.2,2.2,0,0,0-.8-0.77,4,4,0,0,0-1.22-.43,10,10,0,0,0-1.54-.17l-1.29-.05v-1.65l3.87-4.57-5.83-.23V471l9.41,0.36v2.09l-4.06,4.47,0.53,0a4.68,4.68,0,0,1,1.57.33,4.08,4.08,0,0,1,1.35.88,4.28,4.28,0,0,1,.95,1.41,4.87,4.87,0,0,1,.36,1.92,4.6,4.6,0,0,1-.54,2.28,5,5,0,0,1-1.43,1.62,5.85,5.85,0,0,1-2,.94,8.34,8.34,0,0,1-2.38.24,11.9,11.9,0,0,1-2.08-.27,10.35,10.35,0,0,1-2-.66l0.81-2.45a3.35,3.35,0,0,0,.56.25l0.81,0.26a8.92,8.92,0,0,0,.92.22A6.52,6.52,0,0,0,290.19,485.06Z"/><path class="cls-4" d="M301.07,490a7.69,7.69,0,0,0,1.71-.55,6.89,6.89,0,0,0,2-1.34,7.56,7.56,0,0,0,1.63-2.33,8.35,8.35,0,0,0,.67-3.54,9.47,9.47,0,0,0-.63-3.7,8,8,0,0,0-1.56-2.45,7,7,0,0,0-1.95-1.46,10,10,0,0,0-1.83-.72l0.55-2.44a11.83,11.83,0,0,1,3.14,1.18,9.77,9.77,0,0,1,2.7,2.17,10.38,10.38,0,0,1,1.88,3.22,12.13,12.13,0,0,1,.7,4.29,11.79,11.79,0,0,1-.7,4.26,9.37,9.37,0,0,1-1.88,3.07,8.78,8.78,0,0,1-2.7,2,10.41,10.41,0,0,1-3.14.91Z"/><path class="cls-4" d="M359.39,486.42a4.73,4.73,0,0,0,1.4-.19,3.3,3.3,0,0,0,1.08-.55,2.65,2.65,0,0,0,.7-0.83,2.11,2.11,0,0,0,.25-1,2.17,2.17,0,0,0-.29-1.16,2.08,2.08,0,0,0-.8-0.74,3.82,3.82,0,0,0-1.22-.39,9.87,9.87,0,0,0-1.55-.12h-1.29v-1.65l3.88-4.72h-5.84c0-1,0-1.52,0-2.53h9.41c0,0.84,0,1.26,0,2.09l-4.06,4.63h0.53a4.58,4.58,0,0,1,1.57.27,3.88,3.88,0,0,1,1.35.83,4.06,4.06,0,0,1,.95,1.38,4.77,4.77,0,0,1,.36,1.91,4.71,4.71,0,0,1-.54,2.3,5.26,5.26,0,0,1-1.43,1.67,6.12,6.12,0,0,1-2,1,8.47,8.47,0,0,1-2.38.33,11.77,11.77,0,0,1-2.08-.19,10,10,0,0,1-2-.58l0.81-2.48a3.21,3.21,0,0,0,.57.23l0.81,0.23a8.72,8.72,0,0,0,.92.18A6.46,6.46,0,0,0,359.39,486.42Z"/><path class="cls-4" d="M386.22,482.5l-4-5.51,3.58,0,2.61,3.8,2.72-3.89,3.25-.06-3.94,5.59,4.18,5.9-3.48.06-2.93-4.18-3,4.28-3.28,0Z"/><path class="cls-4" d="M418.79,479.08l0.12-2.51h-0.14l-2.58,4.29-0.55,0-2.7-4.13h-0.11L413,479c0,3.53,0,5.3,0,8.83l-3,.09c0-6.44,0-9.66,0-16.1l3.21-.09,2.77,4.38H416l2.74-4.55,3.18-.11c0,6.44,0,9.66,0,16.1l-3.16.11C418.79,484.23,418.79,482.52,418.79,479.08Z"/><path class="cls-4" d="M424.95,476.73a13.05,13.05,0,0,1,2.13-.79,12.35,12.35,0,0,1,2.87-.41,6.29,6.29,0,0,1,2,.21,3.24,3.24,0,0,1,1.36.76,2.94,2.94,0,0,1,.75,1.23,5.44,5.44,0,0,1,.23,1.65q0,1.17-.08,2t-0.08,1.48a9.8,9.8,0,0,0,0,1.08c0,0.21.05,0.42,0.07,0.62l1.5-.06V487l-3.87.16-0.3-1.55h-0.11a4.21,4.21,0,0,1-1.31,1.28,4.48,4.48,0,0,1-2.29.61,3.77,3.77,0,0,1-2.73-.82,3,3,0,0,1-1-2.4,3.74,3.74,0,0,1,.35-1.68,3.14,3.14,0,0,1,1-1.19,5.1,5.1,0,0,1,1.63-.73,9.67,9.67,0,0,1,2.12-.3c0.27,0,.56,0,0.87,0l1.12,0a2.39,2.39,0,0,0,0-.46v-0.44a1.41,1.41,0,0,0-.5-1.23,2.39,2.39,0,0,0-1.49-.32,7.08,7.08,0,0,0-2.11.38,14,14,0,0,0-1.58.66Zm3.92,8.29a2.84,2.84,0,0,0,1.64-.47,2.87,2.87,0,0,0,.8-0.89v-1.38l-0.68-.08a7.88,7.88,0,0,0-1,0,4.81,4.81,0,0,0-.87.11,3,3,0,0,0-.78.28,1.59,1.59,0,0,0-.55.47,1.12,1.12,0,0,0-.2.67,1.26,1.26,0,0,0,.38,1A1.72,1.72,0,0,0,428.87,485Z"/><path class="cls-4" d="M439.38,477.9l-2.28.1v-2.53l2.28-.1c0-1,0-1.57,0-2.62l3-1v3.47l6-.29v2.53l-6,.29c0,1.32,0,2,0,3.29a3.82,3.82,0,0,0,.67,2.53,2.2,2.2,0,0,0,1.87.71,4.08,4.08,0,0,0,1.13-.2,4.5,4.5,0,0,0,.91-0.42,5.58,5.58,0,0,0,.74-0.54l0.61-.54,1.38,2a4.77,4.77,0,0,1-1,.89,8.89,8.89,0,0,1-1.27.73,8.39,8.39,0,0,1-1.42.52,6.9,6.9,0,0,1-1.45.23,4.77,4.77,0,0,1-3.88-1.26q-1.3-1.38-1.3-4.51C439.38,479.88,439.38,479.22,439.38,477.9Z"/><path class="cls-4" d="M450.54,470.24l4.66-.24c0,2.36,0,3.53,0,5.89h0.09a4.2,4.2,0,0,1,1.47-1.25,5.21,5.21,0,0,1,2.17-.56,5.32,5.32,0,0,1,1.61.14,2.84,2.84,0,0,1,1.27.69,3.32,3.32,0,0,1,.83,1.39,7.08,7.08,0,0,1,.3,2.23c0,2.86,0,4.29,0,7.15l-3,.17c0-2.61,0-3.92,0-6.53a2.72,2.72,0,0,0-.6-2,2,2,0,0,0-1.57-.54,2.75,2.75,0,0,0-1.57.6,3,3,0,0,0-1,1.38c0,2.93,0,4.4,0,7.34l-3,.16c0-5.43,0-8.14,0-13.57l-1.66.08C450.54,471.76,450.54,471.26,450.54,470.24Z"/><path class="cls-4" d="M469.41,483.78a1.76,1.76,0,0,1,.51-1.31,2,2,0,0,1,1.34-.55,1.86,1.86,0,0,1,1.38.38,1.56,1.56,0,0,1,.51,1.25,1.8,1.8,0,0,1-.51,1.32,2,2,0,0,1-1.38.57,1.76,1.76,0,0,1-1.34-.4A1.6,1.6,0,0,1,469.41,483.78Z"/><path class="cls-4" d="M479.82,484.63c0-1,0-1.52,0-2.53l2.72-.18c0-2.58,0-3.86,0-6.44l-2.74.18c0-1,0-1.52,0-2.53l2.74-.18V472.3a4.4,4.4,0,0,1,.38-1.89,4.13,4.13,0,0,1,1-1.36,4.47,4.47,0,0,1,1.44-.85,6.2,6.2,0,0,1,1.69-.36,10.62,10.62,0,0,1,2.61.08,6.25,6.25,0,0,1,1.69.53l-0.87,2.34a9.68,9.68,0,0,0-1.14-.38,4.92,4.92,0,0,0-1.58-.09A2.39,2.39,0,0,0,486,471a2.65,2.65,0,0,0-.49,1.73l4.84-.34v2.53l-4.84.34c0,2.58,0,3.86,0,6.44l4.86-.35v2.53C486.16,484.2,484,484.35,479.82,484.63Z"/><path class="cls-4" d="M494.08,472.9a13.54,13.54,0,0,1,2.13-.87,12.54,12.54,0,0,1,2.87-.52,6.21,6.21,0,0,1,2,.13,3.08,3.08,0,0,1,1.36.71,2.79,2.79,0,0,1,.75,1.21,5.36,5.36,0,0,1,.23,1.64q0,1.17-.08,2t-0.08,1.48a9.76,9.76,0,0,0,0,1.08c0,0.21.05,0.42,0.07,0.62l1.5-.12c0,1,0,1.52,0,2.53l-3.86.31-0.3-1.54h-0.11a4.45,4.45,0,0,1-1.3,1.33,4.61,4.61,0,0,1-2.29.69,3.65,3.65,0,0,1-2.72-.71,2.92,2.92,0,0,1-1-2.36,3.83,3.83,0,0,1,.35-1.69,3.31,3.31,0,0,1,1-1.23,5.32,5.32,0,0,1,1.62-.79,9.82,9.82,0,0,1,2.12-.38c0.27,0,.56,0,0.87,0h1.12a2.42,2.42,0,0,0,0-.46V475.5a1.36,1.36,0,0,0-.5-1.21,2.33,2.33,0,0,0-1.49-.26,7.21,7.21,0,0,0-2.1.46,14.61,14.61,0,0,0-1.58.72ZM498,481a2.93,2.93,0,0,0,1.64-.53,3,3,0,0,0,.8-0.92v-1.38l-0.68-.05a7.86,7.86,0,0,0-1,0,4.88,4.88,0,0,0-.87.15,3.1,3.1,0,0,0-.77.31,1.68,1.68,0,0,0-.55.49,1.15,1.15,0,0,0-.2.68,1.22,1.22,0,0,0,.38,1A1.67,1.67,0,0,0,498,481Z"/><path class="cls-4" d="M518.38,480.53a7.33,7.33,0,0,1-2.21,1.26,10.11,10.11,0,0,1-2.65.58,7.26,7.26,0,0,1-2.66-.21,4.86,4.86,0,0,1-2-1.07,4.67,4.67,0,0,1-1.21-1.82,6.87,6.87,0,0,1-.41-2.45,6.78,6.78,0,0,1,.48-2.62,6.09,6.09,0,0,1,1.35-2,6.5,6.5,0,0,1,2-1.36,8.27,8.27,0,0,1,2.55-.62,9.25,9.25,0,0,1,2.42.09,10.54,10.54,0,0,1,1.73.42v4l-2.53.22v-2.12a6.37,6.37,0,0,0-1.43,0,4.53,4.53,0,0,0-1.28.3,3.48,3.48,0,0,0-1.13.72,3.58,3.58,0,0,0-1.12,2.7,3.4,3.4,0,0,0,.25,1.34,2.8,2.8,0,0,0,1.85,1.65,4,4,0,0,0,1.51.14,5.66,5.66,0,0,0,2.15-.55,9.69,9.69,0,0,0,1.25-.75Z"/><path class="cls-4" d="M522.29,472.32l-2.28.2V470l2.28-.2v-2.62l3-1.12v3.47l6-.57v2.53l-6,.57v3.29a3.7,3.7,0,0,0,.67,2.5,2.11,2.11,0,0,0,1.86.62,4.17,4.17,0,0,0,1.13-.26,4.74,4.74,0,0,0,.91-0.46,6,6,0,0,0,.74-0.58l0.61-.56,1.38,1.94a5.1,5.1,0,0,1-1,.93,9.41,9.41,0,0,1-1.27.79,8.75,8.75,0,0,1-1.41.58,7,7,0,0,1-1.45.3,4.58,4.58,0,0,1-3.87-1.08q-1.3-1.32-1.3-4.45v-3.29Z"/><path class="cls-4" d="M534.22,474.42a7.43,7.43,0,0,1,.44-2.62,6,6,0,0,1,3.16-3.4,7.82,7.82,0,0,1,2.49-.65,7,7,0,0,1,2.58.18,4.68,4.68,0,0,1,1.92,1,4.51,4.51,0,0,1,1.18,1.8,7,7,0,0,1,.4,2.44,7.47,7.47,0,0,1-.44,2.62,6,6,0,0,1-3.16,3.42,7.74,7.74,0,0,1-2.49.66,6.9,6.9,0,0,1-2.59-.18,4.69,4.69,0,0,1-1.92-1,4.53,4.53,0,0,1-1.18-1.8A7,7,0,0,1,534.22,474.42Zm3.08-.3a4.37,4.37,0,0,0,.21,1.38,3,3,0,0,0,.6,1.07,2.34,2.34,0,0,0,.94.65,2.75,2.75,0,0,0,1.26.14,3.24,3.24,0,0,0,2.17-1.07,4,4,0,0,0,.84-2.78,3.66,3.66,0,0,0-.78-2.48,2.44,2.44,0,0,0-2.23-.75,3.8,3.8,0,0,0-1.2.32,2.71,2.71,0,0,0-1,.73,3.52,3.52,0,0,0-.63,1.17A5.19,5.19,0,0,0,537.3,474.11Z"/><path class="cls-4" d="M548.1,476.23l2.85-.3v-6.44l-2.85.3v-2.53l5.17-.55,0.34,1.48h0.09a7.16,7.16,0,0,1,1.47-1.42,4,4,0,0,1,1.93-.72,2.34,2.34,0,0,1,2.17.77,5.16,5.16,0,0,1,.79,3.29l-2.69.3a2.17,2.17,0,0,0-.24-1.18,0.76,0.76,0,0,0-.77-0.3,2.52,2.52,0,0,0-1.48.62,5.46,5.46,0,0,0-1,1.16c0,2,0,2.94,0,4.9l5-.55c0,1,0,1.52,0,2.53-4.33.48-6.49,0.72-10.82,1.17v-2.53Z"/><path class="cls-4" d="M562.34,474.68l4-.46v-6.44l-4,.46v-2.53l7-.81v9l4.25-.5v2.53c-4.51.54-6.76,0.8-11.27,1.31v-2.53Zm3.49-12.5a1.83,1.83,0,0,1,.53-1.28,2.29,2.29,0,0,1,1.47-.68,2.06,2.06,0,0,1,1.54.33,1.38,1.38,0,0,1,.57,1.15,1.69,1.69,0,0,1-.57,1.27,2.62,2.62,0,0,1-1.54.65,2,2,0,0,1-1.47-.3A1.37,1.37,0,0,1,565.83,462.18Z"/><path class="cls-4" d="M576.83,464.79a14.18,14.18,0,0,1,2.12-1,12.81,12.81,0,0,1,2.86-.65,6.13,6.13,0,0,1,2,0,2.9,2.9,0,0,1,1.35.65,2.63,2.63,0,0,1,.75,1.17,5.28,5.28,0,0,1,.23,1.63q0,1.17-.08,2T586,470.14a9.73,9.73,0,0,0,0,1.08c0,0.21.05,0.42,0.07,0.61l1.49-.19v2.53l-3.85.49-0.3-1.53h-0.11a4.52,4.52,0,0,1-3.58,2.19,3.51,3.51,0,0,1-2.71-.59,2.79,2.79,0,0,1-1-2.32,4,4,0,0,1,.35-1.71,3.54,3.54,0,0,1,1-1.27,5.6,5.6,0,0,1,1.62-.86,10,10,0,0,1,2.11-.48c0.27,0,.56-0.05.87-0.06l1.12,0a2.47,2.47,0,0,0,0-.47v-0.44a1.3,1.3,0,0,0-.5-1.19,2.26,2.26,0,0,0-1.48-.19,7.4,7.4,0,0,0-2.1.56,15.35,15.35,0,0,0-1.57.79Zm3.9,8a3,3,0,0,0,1.63-.61,3.25,3.25,0,0,0,.79-1c0-.55,0-0.83,0-1.38l-0.68,0a7.85,7.85,0,0,0-1,.06,5,5,0,0,0-.86.19,3.24,3.24,0,0,0-.77.35,1.8,1.8,0,0,0-.54.52,1.2,1.2,0,0,0-.2.69,1.17,1.17,0,0,0,.37,1A1.62,1.62,0,0,0,580.73,472.75Z"/><path class="cls-4" d="M590.52,457.69l4.88-.64v10.63a4.6,4.6,0,0,0,.44,2.4,1.34,1.34,0,0,0,1.4.5,4.13,4.13,0,0,0,1.17-.31,5.22,5.22,0,0,0,.92-0.55l1.12,1.92q-0.39.31-.78,0.58a5.91,5.91,0,0,1-.83.48,6.23,6.23,0,0,1-1,.36,7.92,7.92,0,0,1-1.16.24,3.91,3.91,0,0,1-3.23-.68,3.81,3.81,0,0,1-1.08-3V460l-1.9.25C590.52,459.21,590.52,458.7,590.52,457.69Z"/><path class="cls-4" d="M612.7,475.66a9.54,9.54,0,0,1-3.11-.57,7.5,7.5,0,0,1-2.68-1.67,8.11,8.11,0,0,1-1.87-2.87,11.24,11.24,0,0,1-.7-4.18A12.85,12.85,0,0,1,605,462a11.94,11.94,0,0,1,1.87-3.42,11.4,11.4,0,0,1,2.68-2.47,13.17,13.17,0,0,1,3.11-1.52l0.55,2.38a11.12,11.12,0,0,0-1.82.91,8.15,8.15,0,0,0-1.94,1.67,9.29,9.29,0,0,0-1.55,2.62,10.06,10.06,0,0,0-.63,3.77,7.9,7.9,0,0,0,.66,3.47,6.48,6.48,0,0,0,1.62,2.16,5.89,5.89,0,0,0,2,1.13,7,7,0,0,0,1.69.37Z"/><path class="cls-4" d="M628,468.55c-4.08.61-6.12,0.92-10.21,1.51v-2.23l0.69-.71,0.93-1q0.51-.56,1.09-1.22t1.12-1.36q0.78-1,1.36-1.79a13.9,13.9,0,0,0,1-1.49,6.53,6.53,0,0,0,.56-1.33,4.59,4.59,0,0,0,.18-1.28,1.89,1.89,0,0,0-.21-0.87,2,2,0,0,0-.57-0.69,2.29,2.29,0,0,0-.88-0.4,3,3,0,0,0-1.13,0,4.71,4.71,0,0,0-1.5.47,6.27,6.27,0,0,0-1.41,1.06l-1.19-1.94a12.24,12.24,0,0,1,2.14-1.47,8.07,8.07,0,0,1,2.71-.87,6.26,6.26,0,0,1,1.89,0,4.22,4.22,0,0,1,1.6.58,3.18,3.18,0,0,1,1.11,1.18,3.66,3.66,0,0,1,.41,1.8,7.32,7.32,0,0,1-.13,1.39,7.59,7.59,0,0,1-.39,1.32,10.26,10.26,0,0,1-.69,1.4q-0.42.73-1,1.6-0.46.67-1,1.36t-1.06,1.32q-0.53.63-1,1.19t-0.93.94l6.59-1v2.53Z"/><path class="cls-4" d="M632.5,470.23a9.22,9.22,0,0,0,1.69-.87,8.93,8.93,0,0,0,2-1.71,9.74,9.74,0,0,0,1.61-2.63,9.3,9.3,0,0,0,.66-3.67,8.68,8.68,0,0,0-.63-3.58,6.23,6.23,0,0,0-1.54-2.16,5.4,5.4,0,0,0-1.93-1.1,8.46,8.46,0,0,0-1.82-.38l0.55-2.55a10.09,10.09,0,0,1,3.11.6,7.47,7.47,0,0,1,2.67,1.68,8.13,8.13,0,0,1,1.86,2.87,11.17,11.17,0,0,1,.7,4.16,13,13,0,0,1-.7,4.39,11.92,11.92,0,0,1-1.86,3.42,11.41,11.41,0,0,1-2.67,2.46,12.34,12.34,0,0,1-3.11,1.49Z"/></svg>