<svg id="Layer_1" data-name="Layer 1" xmlns="http://www.w3.org/2000/svg" viewBox="0 0 720 576"><defs><style>.cls-1,.cls-2,.cls-4,.cls-6{fill:#231f20;}.cls-1,.cls-3{stroke:#231f20;}.cls-1,.cls-6{stroke-miterlimit:10;}.cls-1,.cls-2,.cls-3{stroke-width:2px;}.cls-2{stroke:#000;}.cls-2,.cls-3{stroke-linecap:round;stroke-linejoin:round;}.cls-3,.cls-5{fill:#fff;}.cls-6{stroke:#fff;}</style></defs><title>Hanoi_Tower_Set_Elixir_5</title><path class="cls-1" d="M656,522.57c0-.14,0-0.29,0-0.43s0-.29,0-0.43V469.92H64.18s-0.23,51.74-.23,52.22c0,2.67,2.12,5.24,6.08,7.71,13.87,8.61,50.58,16.11,101.74,21.48S288.5,559.92,360,559.92c81.71,0,155.68-4.21,209.24-11,26.78-3.41,48.45-7.46,63.44-12,7.5-2.25,13.32-4.62,17.29-7.08,3.38-2.1,5.41-4.29,5.94-6.55H656v-0.73Z"/><ellipse class="cls-2" cx="360" cy="471" rx="295.87" ry="37.63"/><path class="cls-3" d="M656,471.09c0-.14,0-0.29,0-0.43s0-.29,0-0.43V418.44H64.18s-0.23,51.74-.23,52.22c0,2.67,2.12,5.24,6.08,7.71,13.87,8.61,50.58,16.11,101.74,21.48S288.5,508.44,360,508.44c81.71,0,155.68-4.21,209.24-11,26.78-3.41,48.45-7.46,63.44-12,7.5-2.25,13.32-4.62,17.29-7.08,3.38-2.1,5.41-4.29,5.94-6.55H656v-0.73Z"/><ellipse class="cls-3" cx="360" cy="419.52" rx="295.87" ry="37.63"/><path class="cls-3" d="M656,419.61c0-.14,0-0.29,0-0.43s0-.29,0-0.43V367H64.18s-0.23,51.74-.23,52.22c0,2.67,2.12,5.24,6.08,7.71C83.9,435.5,120.62,443,171.78,448.37S288.5,457,360,457c81.71,0,155.68-4.21,209.24-11,26.78-3.41,48.45-7.46,63.44-12,7.5-2.25,13.32-4.62,17.29-7.08,3.38-2.1,5.41-4.29,5.94-6.55H656v-0.73Z"/><ellipse class="cls-3" cx="360" cy="368.05" rx="295.87" ry="37.63"/><path class="cls-4" d="M360,376.3c-16,0-29-3.75-30.2-8.61h-0.08l0-.5V24.35h60.63V367.69H390.2C389,372.55,376,376.3,360,376.3Z"/><path class="cls-5" d="M389.82,24.85V367.19h0c-0.49,4.78-13.63,8.61-29.79,8.61s-29.3-3.83-29.79-8.61h0V367s0,0,0-.06,0,0,0-.06v-342h59.63m1-1H329.19v343s0,0.07,0,.11v1.27h0.23c2,5.6,16.84,8.61,30.58,8.61s28.6-3,30.58-8.61h0.21l0-1V23.85h0Z"/><ellipse class="cls-6" cx="359.99" cy="24.97" rx="29.81" ry="8.89"/><path class="cls-4" d="M84.31,459.1l0.09-1.89-0.1,0-1.95,2.87L81.92,460l-2-3.55-0.09,0,0.1,1.73v6.72l-2.26-.39c0-4.9,0-7.35,0-12.25l2.41,0.42,2.09,3.75h0.07l2.07-3,2.4,0.41c0,4.9,0,7.35,0,12.25l-2.38-.4C84.31,463,84.31,461.71,84.31,459.1Z"/><path class="cls-4" d="M88.95,458.25a8.4,8.4,0,0,1,1.61-.27,9,9,0,0,1,2.16.13,5.31,5.31,0,0,1,1.54.47,3.21,3.21,0,0,1,1,.79,2.89,2.89,0,0,1,.56,1.06,4.51,4.51,0,0,1,.17,1.29c0,0.59,0,1.1-.06,1.51s-0.06.78-.06,1.11a7.68,7.68,0,0,0,0,.83c0,0.16,0,.33.05,0.48l1.13,0.18v1.92l-2.92-.48L94,466H93.89a2.37,2.37,0,0,1-1,.77,3,3,0,0,1-1.73.11,3.47,3.47,0,0,1-2.06-1,2.83,2.83,0,0,1-.76-2,2.52,2.52,0,0,1,.27-1.22,1.77,1.77,0,0,1,.78-0.74,3.18,3.18,0,0,1,1.23-.3,7,7,0,0,1,1.6.1q0.31,0.05.66,0.14l0.85,0.21a1.69,1.69,0,0,0,0-.34V461.4a1.31,1.31,0,0,0-.38-1,2.13,2.13,0,0,0-1.12-.47,5,5,0,0,0-1.59,0,9,9,0,0,0-1.19.26Zm3,6.92a1.9,1.9,0,0,0,1.24-.1,1.61,1.61,0,0,0,.6-0.56v-1l-0.52-.16a6.48,6.48,0,0,0-.74-0.16,3.6,3.6,0,0,0-.65,0,1.91,1.91,0,0,0-.58.1,0.91,0.91,0,0,0-.41.27,0.72,0.72,0,0,0-.16.48,1.17,1.17,0,0,0,.28.81A1.56,1.56,0,0,0,91.91,465.17Z"/><path class="cls-4" d="M99.83,461.37l-1.72-.28v-1.92l1.72,0.28c0-.8,0-1.2,0-2l2.26-.29c0,1.06,0,1.59,0,2.64l4.56,0.72c0,0.77,0,1.15,0,1.92l-4.56-.72v2.5a3.4,3.4,0,0,0,.5,2,2.08,2.08,0,0,0,1.41.83,2.92,2.92,0,0,0,.85,0,2.79,2.79,0,0,0,.69-0.18,3.12,3.12,0,0,0,.56-0.3l0.46-.31,1,1.74a2.68,2.68,0,0,1-.74.52,5.18,5.18,0,0,1-1,.36,5.37,5.37,0,0,1-1.07.17,5,5,0,0,1-1.1,0,4.43,4.43,0,0,1-2.93-1.56,5.78,5.78,0,0,1-1-3.63C99.83,462.87,99.83,462.37,99.83,461.37Z"/><path class="cls-4" d="M108.26,457.27l3.52,0.54c0,1.79,0,2.69,0,4.48h0.07a2.38,2.38,0,0,1,1.12-.72,3.56,3.56,0,0,1,1.64-.08,4.47,4.47,0,0,1,1.22.36,2.84,2.84,0,0,1,1,.72,3.29,3.29,0,0,1,.63,1.19,5.88,5.88,0,0,1,.23,1.74c0,2.18,0,3.27,0,5.44l-2.26-.34c0-2,0-3,0-5a2.46,2.46,0,0,0-.45-1.61,1.85,1.85,0,0,0-1.18-.65,1.77,1.77,0,0,0-1.18.21,1.72,1.72,0,0,0-.77.89c0,2.23,0,3.35,0,5.58l-2.26-.35c0-4.13,0-6.2,0-10.33l-1.25-.19C108.26,458.42,108.26,458,108.26,457.27Z"/><path class="cls-4" d="M122.52,470.51a1.09,1.09,0,0,1,.38-0.91,1.27,1.27,0,0,1,1-.21,1.7,1.7,0,0,1,1,.51,1.45,1.45,0,0,1,.38,1,1.12,1.12,0,0,1-.38.93,1.3,1.3,0,0,1-1,.22,1.63,1.63,0,0,1-1-.51A1.49,1.49,0,0,1,122.52,470.51Z"/><path class="cls-4" d="M130.4,472.8v-1.92l2.06,0.29c0-2,0-2.94,0-4.9l-2.08-.29V464l2.08,0.29c0-.2,0-0.29,0-0.49a3,3,0,0,1,.29-1.38,2.32,2.32,0,0,1,.76-0.87,2.65,2.65,0,0,1,1.09-.42,4.35,4.35,0,0,1,1.28,0,8.73,8.73,0,0,1,2,.47,5.87,5.87,0,0,1,1.28.67L138.48,464a9.2,9.2,0,0,0-.86-0.47,4.11,4.11,0,0,0-1.19-.32,1.52,1.52,0,0,0-1.32.25,1.7,1.7,0,0,0-.37,1.23l3.66,0.5v1.92l-3.66-.5c0,2,0,2.94,0,4.9l3.68,0.51v1.92Z"/><path class="cls-4" d="M141.2,466.13a8.59,8.59,0,0,1,1.61-.33,9,9,0,0,1,2.17.06,5.2,5.2,0,0,1,1.54.42,3.08,3.08,0,0,1,1,.76,2.79,2.79,0,0,1,.57,1,4.47,4.47,0,0,1,.17,1.28q0,0.89-.06,1.51T148.18,472a7.57,7.57,0,0,0,0,.83c0,0.16,0,.33.05,0.48l1.13,0.15v1.92l-2.93-.38-0.23-1.22h-0.09a2.48,2.48,0,0,1-1,.81,3.09,3.09,0,0,1-1.73.16,3.35,3.35,0,0,1-2.06-1,2.73,2.73,0,0,1-.76-2,2.57,2.57,0,0,1,.27-1.23,1.86,1.86,0,0,1,.78-0.77,3.28,3.28,0,0,1,1.23-.34,7.08,7.08,0,0,1,1.6,0q0.31,0,.66.12L146,469.8a1.77,1.77,0,0,0,0-.35v-0.33a1.28,1.28,0,0,0-.38-1,2.08,2.08,0,0,0-1.13-.44,5.08,5.08,0,0,0-1.59,0,9.25,9.25,0,0,0-1.19.3Zm3,6.82a1.93,1.93,0,0,0,1.24-.14,1.69,1.69,0,0,0,.6-0.58c0-.42,0-0.63,0-1L145.5,471a6.32,6.32,0,0,0-.74-0.14,3.56,3.56,0,0,0-.66,0,2,2,0,0,0-.59.12,1,1,0,0,0-.41.29,0.74,0.74,0,0,0-.15.49,1.13,1.13,0,0,0,.28.8A1.51,1.51,0,0,0,144.17,473Z"/><path class="cls-4" d="M159.63,475.82a4.37,4.37,0,0,1-1.68.61,7.13,7.13,0,0,1-2,0,6.17,6.17,0,0,1-2-.59,4.9,4.9,0,0,1-1.48-1.12,4.69,4.69,0,0,1-.92-1.58,5.8,5.8,0,0,1-.31-1.93,4.61,4.61,0,0,1,.37-1.91,3.44,3.44,0,0,1,1-1.32,3.77,3.77,0,0,1,1.55-.71,5.73,5.73,0,0,1,1.94-.06,7.65,7.65,0,0,1,1.83.46,9.62,9.62,0,0,1,1.31.6v3.08l-1.92-.24c0-.64,0-1,0-1.61a5.28,5.28,0,0,0-1.08-.26,3.17,3.17,0,0,0-1,0,2,2,0,0,0-1.47,1.1,2.5,2.5,0,0,0-.24,1.14,2.89,2.89,0,0,0,1.6,2.61,3.4,3.4,0,0,0,1.14.34,3.9,3.9,0,0,0,1.63-.08,5.7,5.7,0,0,0,1-.37Z"/><path class="cls-4" d="M162.6,470.2l-1.73-.21v-1.92l1.73,0.21c0-.8,0-1.2,0-2l2.27-.37c0,1.06,0,1.59,0,2.64l4.58,0.54c0,0.77,0,1.15,0,1.92l-4.58-.54c0,1,0,1.5,0,2.5a3.3,3.3,0,0,0,.51,2,2,2,0,0,0,1.42.77,2.84,2.84,0,0,0,1.55-.22,3.39,3.39,0,0,0,.56-0.32l0.46-.33,1,1.7a2.83,2.83,0,0,1-.74.55,5.54,5.54,0,0,1-2,.61,5,5,0,0,1-1.1,0,4.26,4.26,0,0,1-2.94-1.45,5.59,5.59,0,0,1-1-3.59v-2.5Z"/><path class="cls-4" d="M171.67,473.72a5.1,5.1,0,0,1,.33-1.92,3.43,3.43,0,0,1,.94-1.34,3.49,3.49,0,0,1,1.46-.73,5.37,5.37,0,0,1,1.9-.09,5.88,5.88,0,0,1,2,.55,4.73,4.73,0,0,1,1.46,1.1,4.54,4.54,0,0,1,.9,1.56,5.88,5.88,0,0,1,.31,1.92,5.11,5.11,0,0,1-.33,1.92,3.38,3.38,0,0,1-2.4,2.09,5.35,5.35,0,0,1-1.9.09,5.85,5.85,0,0,1-2-.56,4.73,4.73,0,0,1-1.46-1.1,4.57,4.57,0,0,1-.9-1.57A5.9,5.9,0,0,1,171.67,473.72ZM174,474a3.63,3.63,0,0,0,.16,1.09,3,3,0,0,0,.45.91,2.43,2.43,0,0,0,.72.65,2.39,2.39,0,0,0,1,.31,2,2,0,0,0,1.65-.46,2.57,2.57,0,0,0,.64-2,3.32,3.32,0,0,0-.6-2,2.32,2.32,0,0,0-1.7-.93,2.6,2.6,0,0,0-.91,0,1.54,1.54,0,0,0-.73.4,2,2,0,0,0-.48.79A3.6,3.6,0,0,0,174,474Z"/><path class="cls-4" d="M182.23,477.35l2.17,0.23c0-2,0-2.94,0-4.9l-2.17-.23v-1.92l3.94,0.42,0.26,1.18h0.07a4,4,0,0,1,1.12-.84,2.6,2.6,0,0,1,1.47-.23,2.24,2.24,0,0,1,1.65.94,4.55,4.55,0,0,1,.6,2.64l-2-.21a1.87,1.87,0,0,0-.18-0.94,0.73,0.73,0,0,0-.59-0.35,1.6,1.6,0,0,0-1.13.23,3,3,0,0,0-.73.73c0,1.49,0,2.24,0,3.73l3.8,0.4c0,0.77,0,1.15,0,1.92l-8.24-.88C182.23,478.51,182.23,478.12,182.23,477.35Z"/><path class="cls-4" d="M193.07,478.5l3.08,0.31c0-2,0-2.94,0-4.9l-3.08-.31c0-.77,0-1.15,0-1.92l5.35,0.54c0,2.73,0,4.1,0,6.83l3.24,0.32c0,0.77,0,1.15,0,1.92l-8.59-.86C193.07,479.65,193.07,479.27,193.07,478.5Zm2.66-8.94a1.12,1.12,0,0,1,.4-0.89,1.44,1.44,0,0,1,1.12-.27,1.88,1.88,0,0,1,1.17.5,1.33,1.33,0,0,1,.44,1,1,1,0,0,1-.44.88,1.67,1.67,0,0,1-1.17.24,1.78,1.78,0,0,1-1.12-.47A1.3,1.3,0,0,1,195.73,469.56Z"/><path class="cls-4" d="M204.12,473.36a8.87,8.87,0,0,1,1.62-.39,9.07,9.07,0,0,1,2.18,0,5.09,5.09,0,0,1,1.55.36,2.92,2.92,0,0,1,1,.72,2.64,2.64,0,0,1,.57,1,4.36,4.36,0,0,1,.18,1.28c0,0.59,0,1.1-.06,1.52s-0.06.79-.06,1.11a7.59,7.59,0,0,0,0,.83c0,0.16,0,.33.05,0.48l1.14,0.1c0,0.77,0,1.15,0,1.92l-2.94-.27-0.23-1.21h-0.09a2.64,2.64,0,0,1-1,.84,3.15,3.15,0,0,1-1.74.23,3.23,3.23,0,0,1-2.07-.9,2.88,2.88,0,0,1-.5-3.17,2,2,0,0,1,.78-0.8,3.4,3.4,0,0,1,1.23-.39,7.11,7.11,0,0,1,1.61,0q0.31,0,.66.1l0.85,0.15a1.71,1.71,0,0,0,0-.35v-0.33a1.22,1.22,0,0,0-.38-1,2,2,0,0,0-1.13-.39,5.12,5.12,0,0,0-1.6.08,9.54,9.54,0,0,0-1.2.34Zm3,6.7a2,2,0,0,0,1.25-.19,1.79,1.79,0,0,0,.61-0.6v-1l-0.52-.13a6.31,6.31,0,0,0-.74-0.11,3.62,3.62,0,0,0-.66,0,2,2,0,0,0-.59.14,1,1,0,0,0-.42.3,0.76,0.76,0,0,0-.16.49,1.09,1.09,0,0,0,.29.79A1.46,1.46,0,0,0,207.1,480.06Z"/><path class="cls-4" d="M214.57,470.23l3.73,0.33c0,3.23,0,4.85,0,8.08a3.93,3.93,0,0,0,.33,1.9,1.29,1.29,0,0,0,1.07.62,2.89,2.89,0,0,0,.89,0,3.18,3.18,0,0,0,.7-0.26l0.86,1.65-0.6.31a3.56,3.56,0,0,1-.63.23,4.1,4.1,0,0,1-.73.11,5.71,5.71,0,0,1-.88,0,3.6,3.6,0,0,1-2.47-1.05,3.52,3.52,0,0,1-.82-2.45c0-2.94,0-4.41,0-7.35l-1.45-.13C214.57,471.38,214.57,471,214.57,470.23Z"/><path class="cls-4" d="M231.53,487.61a8.75,8.75,0,0,1-2.38-1,7.82,7.82,0,0,1-2.05-1.72,8.25,8.25,0,0,1-1.43-2.5,9.48,9.48,0,0,1-.53-3.3,8.77,8.77,0,0,1,.53-3.2,6.84,6.84,0,0,1,1.43-2.29,6.33,6.33,0,0,1,2.05-1.43,8.14,8.14,0,0,1,2.38-.63l0.42,1.91a6.92,6.92,0,0,0-1.39.39,4.56,4.56,0,0,0-1.48,1,5.24,5.24,0,0,0-1.18,1.73,6.83,6.83,0,0,0-.48,2.76,6.52,6.52,0,0,0,1.74,4.66,6.13,6.13,0,0,0,1.5,1.19,6.52,6.52,0,0,0,1.3.57Z"/><path class="cls-4" d="M238.42,482.74a3.52,3.52,0,0,0,1.06-.07,2.31,2.31,0,0,0,.82-0.36,1.82,1.82,0,0,0,.53-0.59A1.52,1.52,0,0,0,241,481a1.66,1.66,0,0,0-.82-1.51,3.13,3.13,0,0,0-.93-0.37,7.71,7.71,0,0,0-1.17-.17l-1-.07c0-.5,0-0.75,0-1.26l2.95-3.37-4.44-.33c0-.77,0-1.15,0-1.92l7.15,0.53c0,0.64,0,1,0,1.59l-3.08,3.29,0.4,0a3.61,3.61,0,0,1,1.19.3,3.25,3.25,0,0,1,1,.7,3.42,3.42,0,0,1,.72,1.1,3.78,3.78,0,0,1,.27,1.47,3.43,3.43,0,0,1-.41,1.72,3.6,3.6,0,0,1-1.09,1.19,4.29,4.29,0,0,1-1.55.66,6.31,6.31,0,0,1-1.81.12,9.28,9.28,0,0,1-1.58-.26,8.12,8.12,0,0,1-1.52-.55L236,482a2.68,2.68,0,0,0,.43.21l0.61,0.22a7.17,7.17,0,0,0,.7.19A5,5,0,0,0,238.42,482.74Z"/><path class="cls-4" d="M246.69,486.82a5.66,5.66,0,0,0,1.3-.37,5,5,0,0,0,1.5-1,5.47,5.47,0,0,0,1.24-1.73,6.22,6.22,0,0,0,.51-2.68,7.35,7.35,0,0,0-.48-2.83,6.41,6.41,0,0,0-1.18-1.91,5.61,5.61,0,0,0-1.48-1.17,7.9,7.9,0,0,0-1.39-.59l0.42-1.84a9.31,9.31,0,0,1,2.38,1,7.84,7.84,0,0,1,2.05,1.73,8.31,8.31,0,0,1,1.43,2.5,9.39,9.39,0,0,1,.54,3.28,8.8,8.8,0,0,1-.54,3.22,6.8,6.8,0,0,1-1.43,2.29,6.34,6.34,0,0,1-2.05,1.42,7.7,7.7,0,0,1-2.38.61Z"/><path class="cls-4" d="M378.42,482.3l0.09-1.91H378.4l-2,3.22H376L374,480.44h-0.09l0.1,1.71c0,2.69,0,4,0,6.72l-2.28,0c0-4.9,0-7.35,0-12.25l2.44,0,2.11,3.38h0.07l2.09-3.42,2.42,0c0,4.9,0,7.35,0,12.25l-2.41,0C378.42,486.22,378.42,484.91,378.42,482.3Z"/><path class="cls-4" d="M383.11,480.61a9.73,9.73,0,0,1,1.62-.57,9.35,9.35,0,0,1,2.19-.26,4.84,4.84,0,0,1,1.55.19,2.54,2.54,0,0,1,1,.6,2.3,2.3,0,0,1,.57,1,4.19,4.19,0,0,1,.17,1.26q0,0.89-.06,1.52c0,0.42-.06.79-0.06,1.12a7.8,7.8,0,0,0,0,.82c0,0.16,0,.32.05,0.47l1.14,0v1.92l-2.95.05-0.23-1.19H388.1a3.1,3.1,0,0,1-1,1,3.37,3.37,0,0,1-1.74.42,2.93,2.93,0,0,1-2.08-.67,2.35,2.35,0,0,1-.77-1.84,2.8,2.8,0,0,1,.27-1.27,2.3,2.3,0,0,1,.79-0.89,3.8,3.8,0,0,1,1.24-.53,7.31,7.31,0,0,1,1.61-.19q0.31,0,.66,0l0.85,0.06a1.76,1.76,0,0,0,0-.35v-0.33a1.1,1.1,0,0,0-.38-0.95,1.85,1.85,0,0,0-1.13-.27,5.34,5.34,0,0,0-1.61.25,10.67,10.67,0,0,0-1.2.47Zm3,6.38a1.94,1.94,0,0,0,1.86-1v-1l-0.52-.07a6.16,6.16,0,0,0-.75,0,3.71,3.71,0,0,0-.66.07,2.25,2.25,0,0,0-.59.2,1.2,1.2,0,0,0-.42.35,0.83,0.83,0,0,0-.15.51,1,1,0,0,0,.29.76A1.34,1.34,0,0,0,386.1,487Z"/><path class="cls-4" d="M394.1,481.75l-1.74,0v-1.92l1.74,0v-2l2.28-.7v2.64l4.6-.11v1.92l-4.6.11v2.5a3,3,0,0,0,.51,1.94,1.72,1.72,0,0,0,1.42.57,3.09,3.09,0,0,0,.86-0.13,3.42,3.42,0,0,0,.69-0.31,4.1,4.1,0,0,0,.56-0.4l0.46-.4L402,487a3.53,3.53,0,0,1-.75.66,6.45,6.45,0,0,1-1,.53,6.12,6.12,0,0,1-1.08.37,5.18,5.18,0,0,1-1.11.15,3.71,3.71,0,0,1-3-1,5,5,0,0,1-1-3.45C394.1,483.25,394.1,482.75,394.1,481.75Z"/><path class="cls-4" d="M402.6,476.13l3.55-.1v4.48h0.07a3.07,3.07,0,0,1,1.12-.92,3.9,3.9,0,0,1,1.65-.38,4.09,4.09,0,0,1,1.23.14,2.25,2.25,0,0,1,1,.55,2.61,2.61,0,0,1,.63,1.07,5.44,5.44,0,0,1,.23,1.7c0,2.18,0,3.27,0,5.44l-2.28.07v-5a2.11,2.11,0,0,0-.46-1.53,1.54,1.54,0,0,0-1.19-.44,2,2,0,0,0-1.2.43,2.24,2.24,0,0,0-.77,1c0,2.23,0,3.35,0,5.58l-2.28.06c0-4.13,0-6.2,0-10.33l-1.26,0v-1.92Z"/><path class="cls-4" d="M417,486.79a1.31,1.31,0,0,1,.39-1,1.49,1.49,0,0,1,1-.4,1.44,1.44,0,0,1,1.05.32,1.22,1.22,0,0,1,.39,1,1.34,1.34,0,0,1-.39,1,1.51,1.51,0,0,1-1.05.4,1.37,1.37,0,0,1-1-.33A1.25,1.25,0,0,1,417,486.79Z"/><path class="cls-4" d="M424.92,487.65v-1.92l2.07-.08v-4.9l-2.09.08V478.9l2.09-.08v-0.49a3.27,3.27,0,0,1,.29-1.43,3,3,0,0,1,.76-1,3.29,3.29,0,0,1,1.1-.61,4.61,4.61,0,0,1,1.29-.24,8.15,8.15,0,0,1,2,.11,4.87,4.87,0,0,1,1.29.44L433,477.35a7.56,7.56,0,0,0-.87-0.31,3.79,3.79,0,0,0-1.2-.1,1.77,1.77,0,0,0-1.32.49,2,2,0,0,0-.38,1.3l3.69-.16v1.92l-3.69.16v4.9l3.7-.16v1.92Z"/><path class="cls-4" d="M435.78,479a10,10,0,0,1,1.62-.62,9.44,9.44,0,0,1,2.18-.33,4.77,4.77,0,0,1,1.55.14,2.43,2.43,0,0,1,1,.57,2.22,2.22,0,0,1,.57.93,4.1,4.1,0,0,1,.18,1.25c0,0.59,0,1.1-.06,1.53s-0.06.8-.06,1.12a7.37,7.37,0,0,0,0,.82c0,0.16,0,.32.05,0.47l1.14-.06v1.92l-2.95.15-0.23-1.18h-0.09a3.25,3.25,0,0,1-1,1,3.43,3.43,0,0,1-1.74.48,2.85,2.85,0,0,1-2.08-.6,2.28,2.28,0,0,1-.77-1.82,2.85,2.85,0,0,1,.27-1.28,2.43,2.43,0,0,1,.79-0.91,4,4,0,0,1,1.24-.57,7.41,7.41,0,0,1,1.61-.24c0.21,0,.43,0,0.66,0l0.85,0a1.79,1.79,0,0,0,0-.35v-0.33a1.06,1.06,0,0,0-.38-0.94,1.81,1.81,0,0,0-1.13-.23,5.42,5.42,0,0,0-1.6.3,11,11,0,0,0-1.2.51Zm3,6.28a2.18,2.18,0,0,0,1.25-.37,2.21,2.21,0,0,0,.61-0.69v-1l-0.52-.05a6.13,6.13,0,0,0-.75,0,3.73,3.73,0,0,0-.66.09,2.29,2.29,0,0,0-.59.22,1.24,1.24,0,0,0-.42.36,0.86,0.86,0,0,0-.16.52,1,1,0,0,0,.29.75A1.3,1.3,0,0,0,438.77,485.31Z"/><path class="cls-4" d="M454.31,485.38a5.38,5.38,0,0,1-1.68.91,7.6,7.6,0,0,1-2,.38,5.6,5.6,0,0,1-2-.22,3.84,3.84,0,0,1-1.49-.86,3.7,3.7,0,0,1-.92-1.41,5.3,5.3,0,0,1-.32-1.87,5.07,5.07,0,0,1,.37-2,4.45,4.45,0,0,1,1-1.51,4.75,4.75,0,0,1,1.55-1,6.19,6.19,0,0,1,1.95-.41,7.12,7.12,0,0,1,1.84.12,8.27,8.27,0,0,1,1.32.36V481l-1.93.11v-1.61a4.91,4.91,0,0,0-1.09-.06,3.4,3.4,0,0,0-1,.2,2.57,2.57,0,0,0-.86.52,2.68,2.68,0,0,0-.61.85,2.76,2.76,0,0,0-.24,1.19,2.64,2.64,0,0,0,.19,1,2.23,2.23,0,0,0,1.41,1.3,3.08,3.08,0,0,0,1.15.14,4.23,4.23,0,0,0,1.64-.37,7.19,7.19,0,0,0,1-.54Z"/><path class="cls-4" d="M457.3,479.22l-1.74.1V477.4l1.74-.1c0-.8,0-1.2,0-2l2.28-.78c0,1.06,0,1.59,0,2.64l4.59-.29v1.92l-4.59.29v2.5a2.88,2.88,0,0,0,.51,1.92,1.66,1.66,0,0,0,1.42.52,3.13,3.13,0,0,0,.86-0.17,3.46,3.46,0,0,0,.69-0.33,4.18,4.18,0,0,0,.56-0.42l0.47-.42,1.05,1.51a3.64,3.64,0,0,1-.75.69,6.75,6.75,0,0,1-1,.57,6.39,6.39,0,0,1-1.08.41,5.29,5.29,0,0,1-1.11.19,3.58,3.58,0,0,1-3-.91,4.84,4.84,0,0,1-1-3.41v-2.5Z"/><path class="cls-4" d="M466.4,481.1a5.58,5.58,0,0,1,.33-2,4.34,4.34,0,0,1,2.41-2.51,5.83,5.83,0,0,1,1.9-.43,5.34,5.34,0,0,1,2,.2,3.72,3.72,0,0,1,1.46.83,3.59,3.59,0,0,1,.9,1.4,5.4,5.4,0,0,1,.31,1.87,5.58,5.58,0,0,1-.33,2,4.34,4.34,0,0,1-2.41,2.52,5.78,5.78,0,0,1-1.9.44,5.33,5.33,0,0,1-2-.2,3.73,3.73,0,0,1-1.46-.84,3.61,3.61,0,0,1-.9-1.4A5.41,5.41,0,0,1,466.4,481.1Zm2.35-.15a3.35,3.35,0,0,0,.16,1.06,2.4,2.4,0,0,0,.46.83,1.88,1.88,0,0,0,.72.52,2.14,2.14,0,0,0,1,.14,2.39,2.39,0,0,0,1.66-.76,3,3,0,0,0,.64-2.09,2.86,2.86,0,0,0-.6-1.91,1.92,1.92,0,0,0-1.7-.63,2.83,2.83,0,0,0-.91.21,2,2,0,0,0-.73.53,2.57,2.57,0,0,0-.48.87A3.86,3.86,0,0,0,468.75,480.95Z"/><path class="cls-4" d="M477,482.83l2.17-.16v-4.9l-2.17.16V476l3.94-.29,0.26,1.14h0.07a5.15,5.15,0,0,1,1.12-1,3,3,0,0,1,1.47-.5,1.85,1.85,0,0,1,1.66.64,4,4,0,0,1,.6,2.53l-2.05.16a1.69,1.69,0,0,0-.19-0.9,0.6,0.6,0,0,0-.59-0.24,1.86,1.86,0,0,0-1.13.44,3.91,3.91,0,0,0-.73.86v3.73l3.8-.29c0,0.77,0,1.15,0,1.92l-8.26.61v-1.92Z"/><path class="cls-4" d="M487.86,482l3.08-.24v-4.9l-3.08.24c0-.77,0-1.15,0-1.92l5.36-.43c0,2.73,0,4.1,0,6.83l3.24-.27v1.92l-8.6.69C487.86,483.17,487.86,482.79,487.86,482Zm2.66-9.42a1.34,1.34,0,0,1,.4-1,1.68,1.68,0,0,1,1.12-.47,1.61,1.61,0,0,1,1.18.29,1.09,1.09,0,0,1,.44.89,1.24,1.24,0,0,1-.44,1,1.94,1.94,0,0,1-1.18.45,1.53,1.53,0,0,1-1.12-.27A1.08,1.08,0,0,1,490.52,472.6Z"/><path class="cls-4" d="M498.92,474.89a10.4,10.4,0,0,1,1.62-.68,9.61,9.61,0,0,1,2.18-.42,4.72,4.72,0,0,1,1.55.08,2.32,2.32,0,0,1,1,.53,2.1,2.1,0,0,1,.57.91,4.08,4.08,0,0,1,.17,1.24q0,0.89-.06,1.53c0,0.42-.06.8-0.06,1.13a7.73,7.73,0,0,0,0,.82c0,0.16,0,.32.05,0.47l1.14-.1c0,0.77,0,1.15,0,1.92l-2.94.26L504,481.42h-0.09a3.44,3.44,0,0,1-1,1,3.54,3.54,0,0,1-1.74.54,2.76,2.76,0,0,1-2.07-.52,2.19,2.19,0,0,1-.77-1.79,2.92,2.92,0,0,1,.27-1.29,2.55,2.55,0,0,1,.78-0.94,4.1,4.1,0,0,1,1.24-.61,7.51,7.51,0,0,1,1.61-.31q0.31,0,.66,0h0.85a1.81,1.81,0,0,0,0-.35v-0.33a1,1,0,0,0-.38-0.92,1.76,1.76,0,0,0-1.13-.19,5.53,5.53,0,0,0-1.6.37,11.47,11.47,0,0,0-1.2.56Zm3,6.17a2.25,2.25,0,0,0,1.25-.42,2.36,2.36,0,0,0,.61-0.71v-1l-0.52,0a6.12,6.12,0,0,0-.74,0,3.8,3.8,0,0,0-.66.12,2.4,2.4,0,0,0-.59.24,1.33,1.33,0,0,0-.42.38,0.89,0.89,0,0,0-.15.52,0.92,0.92,0,0,0,.29.74A1.27,1.27,0,0,0,501.9,481.06Z"/><path class="cls-4" d="M509.37,469.87l3.73-.34c0,3.23,0,4.85,0,8.08a3.57,3.57,0,0,0,.33,1.84,1.06,1.06,0,0,0,1.07.42,3.09,3.09,0,0,0,.89-0.2,3.82,3.82,0,0,0,.7-0.39l0.86,1.49-0.59.42a4.28,4.28,0,0,1-.63.34,4.53,4.53,0,0,1-.73.24,5.92,5.92,0,0,1-.88.15,3.07,3.07,0,0,1-2.47-.61,3,3,0,0,1-.82-2.3c0-2.94,0-4.41,0-7.35l-1.45.13v-1.92Z"/><path class="cls-4" d="M519.72,483.19l7.77-.78v1.87l-7.77.78v-1.87Z"/><path class="cls-4" d="M528.85,468l3.53-.37c0,1.79,0,2.69,0,4.48h0.07a3.43,3.43,0,0,1,1.12-1,4.11,4.11,0,0,1,1.64-.51,4,4,0,0,1,1.22,0,2,2,0,0,1,1,.47,2.35,2.35,0,0,1,.63,1,5.3,5.3,0,0,1,.23,1.68v5.44l-2.27.25v-5a2,2,0,0,0-.45-1.49,1.44,1.44,0,0,0-1.19-.35,2.19,2.19,0,0,0-1.19.52,2.47,2.47,0,0,0-.77,1.09v5.58l-2.27.24V469.77l-1.26.13C528.85,469.13,528.85,468.75,528.85,468Z"/><path class="cls-4" d="M548.68,477.13a3.57,3.57,0,0,1-.59.48,6.63,6.63,0,0,1-.84.47,7.23,7.23,0,0,1-2.28.64,5.72,5.72,0,0,1-2-.09,3.35,3.35,0,0,1-2.43-2.1,5.12,5.12,0,0,1-.32-1.9,5.46,5.46,0,0,1,.37-2.06,4.71,4.71,0,0,1,1-1.55,4.88,4.88,0,0,1,1.49-1,6.2,6.2,0,0,1,1.85-.5,5.62,5.62,0,0,1,1.37,0,3.34,3.34,0,0,1,1.3.46,2.73,2.73,0,0,1,1,1,3.65,3.65,0,0,1,.38,1.78,8.63,8.63,0,0,1-.18,1.65l-6.29.72a1.85,1.85,0,0,0,.24.92,1.59,1.59,0,0,0,.58.57,2.24,2.24,0,0,0,.82.27,4,4,0,0,0,1,0,5.42,5.42,0,0,0,1.72-.44,4.2,4.2,0,0,0,1.09-.72Zm-3.77-5.81a3.08,3.08,0,0,0-.86.22,2.79,2.79,0,0,0-.73.45,2.37,2.37,0,0,0-.53.66,2,2,0,0,0-.25.83l4.3-.49A1.53,1.53,0,0,0,544.91,471.31Z"/><path class="cls-4" d="M551.35,465.49l3.72-.44v8.08a3.52,3.52,0,0,0,.33,1.83,1,1,0,0,0,1.07.4,3.14,3.14,0,0,0,.89-0.22,4,4,0,0,0,.7-0.41l0.86,1.47-0.59.43a4.49,4.49,0,0,1-.63.36,4.74,4.74,0,0,1-.73.26,6,6,0,0,1-.88.17,3,3,0,0,1-2.46-.55,2.93,2.93,0,0,1-.82-2.28v-7.35l-1.45.17C551.35,466.65,551.35,466.26,551.35,465.49Z"/><path class="cls-4" d="M560.32,467.92l3-.37,0.26,1h0.07a3.84,3.84,0,0,1,2.93-1.66A4,4,0,0,1,568,467a2.43,2.43,0,0,1,1.15.65,3.19,3.19,0,0,1,.74,1.27,6.25,6.25,0,0,1,.26,1.94,6.82,6.82,0,0,1-.3,2.06,5.05,5.05,0,0,1-.86,1.64,4.38,4.38,0,0,1-1.36,1.14,5.19,5.19,0,0,1-1.83.57,7,7,0,0,1-1.06.05,2.67,2.67,0,0,1-.87-0.14v3.59l-2.27.28V469.68l-1.31.16v-1.92Zm5.55,1a2.58,2.58,0,0,0-1.21.49,2,2,0,0,0-.76,1.09v3.64a1.63,1.63,0,0,0,.71.22,3.81,3.81,0,0,0,.94,0,2.65,2.65,0,0,0,.91-0.28,2.23,2.23,0,0,0,.73-0.63,3,3,0,0,0,.49-1,4.77,4.77,0,0,0,.18-1.37,2.34,2.34,0,0,0-.56-1.71A1.61,1.61,0,0,0,565.87,468.9Z"/><path class="cls-4" d="M580.11,473.18a3.66,3.66,0,0,1-.58.49,6.79,6.79,0,0,1-.84.49,7.32,7.32,0,0,1-2.28.69,5.69,5.69,0,0,1-2-.05,3.26,3.26,0,0,1-2.43-2.05,5.08,5.08,0,0,1-.32-1.89,5.52,5.52,0,0,1,.37-2.07,4.84,4.84,0,0,1,1-1.57,5,5,0,0,1,1.49-1.06,6.27,6.27,0,0,1,1.85-.53,5.6,5.6,0,0,1,1.37,0,3.27,3.27,0,0,1,1.3.43,2.64,2.64,0,0,1,1,1,3.61,3.61,0,0,1,.38,1.77,8.7,8.7,0,0,1-.18,1.65l-6.28.84a1.82,1.82,0,0,0,.24.91,1.55,1.55,0,0,0,.57.55,2.19,2.19,0,0,0,.82.25,4,4,0,0,0,1,0,5.48,5.48,0,0,0,1.72-.47,4.31,4.31,0,0,0,1.09-.74Zm-3.77-5.74a3.11,3.11,0,0,0-.85.24,2.86,2.86,0,0,0-.72.46,2.43,2.43,0,0,0-.53.67,2,2,0,0,0-.25.83l4.29-.57a1.71,1.71,0,0,0-.48-1.32A1.73,1.73,0,0,0,576.35,467.44Z"/><path class="cls-4" d="M581.95,471.94l2.16-.3v-4.9l-2.16.3v-1.92l3.92-.54,0.26,1.12h0.07a5.65,5.65,0,0,1,1.12-1.12,3.11,3.11,0,0,1,1.47-.59,1.73,1.73,0,0,1,1.65.54A3.85,3.85,0,0,1,591,467l-2,.29a1.63,1.63,0,0,0-.18-0.89,0.56,0.56,0,0,0-.58-0.21,2,2,0,0,0-1.12.51,4.29,4.29,0,0,0-.72.91v3.73l3.78-.53v1.92l-8.21,1.14v-1.92Z"/><path class="cls-4" d="M599.66,475.06a7.26,7.26,0,0,1-2.37-.42,5.66,5.66,0,0,1-2-1.26,6.13,6.13,0,0,1-1.42-2.17,8.54,8.54,0,0,1-.53-3.18,9.82,9.82,0,0,1,.53-3.32,9.19,9.19,0,0,1,1.42-2.61,8.77,8.77,0,0,1,2-1.89,10.1,10.1,0,0,1,2.37-1.17l0.42,1.81a8.55,8.55,0,0,0-1.38.7,6.25,6.25,0,0,0-1.47,1.28,7.15,7.15,0,0,0-1.18,2,7.67,7.67,0,0,0-.48,2.87,6,6,0,0,0,.51,2.64A4.89,4.89,0,0,0,597.3,472a4.46,4.46,0,0,0,1.49.85,5.32,5.32,0,0,0,1.29.27Z"/><path class="cls-4" d="M606.5,468.64a3.9,3.9,0,0,0,1.05-.31,3,3,0,0,0,.82-0.54,2.51,2.51,0,0,0,.53-0.71,1.8,1.8,0,0,0,.19-0.8,1.49,1.49,0,0,0-.22-0.85,1.25,1.25,0,0,0-.6-0.47,2.62,2.62,0,0,0-.92-0.16,7.42,7.42,0,0,0-1.17.09l-1,.15v-1.26l2.93-4-4.41.67v-1.92l7.1-1.08V459l-3.06,4,0.4-.06a3.26,3.26,0,0,1,1.19,0,2.42,2.42,0,0,1,1,.47,2.51,2.51,0,0,1,.71.94,3.37,3.37,0,0,1,.27,1.41,4,4,0,0,1-.41,1.81,5,5,0,0,1-1.08,1.44,5.6,5.6,0,0,1-1.54,1,7,7,0,0,1-1.79.53,8.84,8.84,0,0,1-1.57.1,6.87,6.87,0,0,1-1.52-.21l0.61-2a2.11,2.11,0,0,0,.43.11l0.61,0.08a6.43,6.43,0,0,0,.7,0A4.83,4.83,0,0,0,606.5,468.64Z"/><path class="cls-4" d="M616.43,467.67a1.41,1.41,0,0,1,.39-1,1.68,1.68,0,0,1,1-.51,1.49,1.49,0,0,1,1.44.4,2.16,2.16,0,0,1,.49,1.48,3.66,3.66,0,0,1-.3,1.48,4.71,4.71,0,0,1-.79,1.25,5.37,5.37,0,0,1-1.09.94,5.22,5.22,0,0,1-1.19.59l-0.47-.89a5.92,5.92,0,0,0,.84-0.43,4.27,4.27,0,0,0,.77-0.6,3.4,3.4,0,0,0,.58-0.77,2.14,2.14,0,0,0,.27-0.88,2.3,2.3,0,0,1-.89.17,1.15,1.15,0,0,1-.6-0.19,0.92,0.92,0,0,1-.34-0.44A1.67,1.67,0,0,1,616.43,467.67Z"/><path class="cls-4" d="M632.17,466.22l-7.75,1.28v-1.7l0.52-.55,0.7-.77,0.82-.94q0.44-.51.85-1.05,0.59-.76,1-1.38a10.77,10.77,0,0,0,.73-1.14,5,5,0,0,0,.43-1,3.57,3.57,0,0,0,.14-1,1.43,1.43,0,0,0-.16-0.66,1.46,1.46,0,0,0-.43-0.51,1.69,1.69,0,0,0-.67-0.29,2.31,2.31,0,0,0-.86,0,3.63,3.63,0,0,0-1.14.38,4.91,4.91,0,0,0-1.07.82l-0.9-1.46A9.56,9.56,0,0,1,626,455.1a6.24,6.24,0,0,1,2.06-.7,4.76,4.76,0,0,1,1.43,0,3.17,3.17,0,0,1,1.22.42,2.37,2.37,0,0,1,.84.88,2.76,2.76,0,0,1,.31,1.36,5.66,5.66,0,0,1-.1,1.06,5.85,5.85,0,0,1-.3,1,8,8,0,0,1-.52,1.08c-0.22.37-.47,0.79-0.77,1.23s-0.49.69-.76,1-0.54.69-.81,1-0.53.63-.79,0.92-0.5.53-.7,0.73l5-.83v1.92Z"/><path class="cls-4" d="M635.59,467.44a7.15,7.15,0,0,0,1.29-.68,7,7,0,0,0,1.49-1.32,7.59,7.59,0,0,0,1.23-2,7.14,7.14,0,0,0,.5-2.8,6.56,6.56,0,0,0-.48-2.72,4.61,4.61,0,0,0-1.17-1.63,4,4,0,0,0-1.47-.82,6.42,6.42,0,0,0-1.38-.26l0.42-1.94a7.6,7.6,0,0,1,2.36.42,5.56,5.56,0,0,1,2,1.24,6,6,0,0,1,1.42,2.16,8.45,8.45,0,0,1,.53,3.15,10,10,0,0,1-.53,3.35,9.25,9.25,0,0,1-1.42,2.63,8.9,8.9,0,0,1-2,1.91,9.57,9.57,0,0,1-2.36,1.17Z"/><path class="cls-4" d="M76.65,408l0.09-1.89-0.1,0-1.93,2.87-0.41-.07-2-3.55-0.09,0,0.1,1.73v6.72l-2.24-.39V401.1l2.39,0.42,2.06,3.75h0.07l2-3L79,402.65V414.9l-2.36-.4V408Z"/><path class="cls-4" d="M81.24,407.13a8.23,8.23,0,0,1,1.59-.27A8.81,8.81,0,0,1,85,407a5.22,5.22,0,0,1,1.52.47,3.18,3.18,0,0,1,1,.79,2.9,2.9,0,0,1,.56,1.06,4.55,4.55,0,0,1,.17,1.29c0,0.59,0,1.1-.06,1.51s-0.06.78-.06,1.11a7.75,7.75,0,0,0,0,.83c0,0.16,0,.33.05,0.48l1.12,0.18v1.92l-2.89-.48-0.23-1.23H86.13a2.35,2.35,0,0,1-1,.77,3,3,0,0,1-1.71.11,3.42,3.42,0,0,1-2-1,2.85,2.85,0,0,1-.75-2,2.54,2.54,0,0,1,.27-1.22,1.76,1.76,0,0,1,.77-0.74,3.12,3.12,0,0,1,1.21-.3,6.91,6.91,0,0,1,1.58.1q0.31,0.05.65,0.14L86,410.95a1.7,1.7,0,0,0,0-.34v-0.33a1.32,1.32,0,0,0-.38-1,2.1,2.1,0,0,0-1.11-.47,4.94,4.94,0,0,0-1.57,0,8.79,8.79,0,0,0-1.18.26ZM84.17,414a1.87,1.87,0,0,0,1.23-.1,1.6,1.6,0,0,0,.6-0.56v-1l-0.51-.16a6.36,6.36,0,0,0-.73-0.17,3.49,3.49,0,0,0-.65,0,1.86,1.86,0,0,0-.58.1,0.9,0.9,0,0,0-.41.27,0.72,0.72,0,0,0-.15.48,1.18,1.18,0,0,0,.28.81A1.54,1.54,0,0,0,84.17,414Z"/><path class="cls-4" d="M92,410.24L90.31,410V408L92,408.32v-2l2.24-.28v2.64l4.51,0.72v1.92l-4.51-.72v2.5a3.43,3.43,0,0,0,.5,2,2.06,2.06,0,0,0,1.4.83,2.86,2.86,0,0,0,.84,0,2.76,2.76,0,0,0,.68-0.18,3.13,3.13,0,0,0,.55-0.3l0.46-.31,1,1.74a2.65,2.65,0,0,1-.73.52,5.1,5.1,0,0,1-.95.36A5.26,5.26,0,0,1,97,418a4.91,4.91,0,0,1-1.08-.05,4.38,4.38,0,0,1-2.9-1.56,5.82,5.82,0,0,1-1-3.63v-2.5Z"/><path class="cls-4" d="M100.36,406.15l3.48,0.54v4.48h0.07a2.35,2.35,0,0,1,1.1-.72,3.49,3.49,0,0,1,1.62-.08,4.4,4.4,0,0,1,1.21.36,2.82,2.82,0,0,1,.95.72,3.3,3.3,0,0,1,.62,1.19,5.94,5.94,0,0,1,.22,1.74v5.44l-2.24-.34v-5a2.47,2.47,0,0,0-.45-1.61,1.83,1.83,0,0,0-1.17-.65,1.73,1.73,0,0,0-1.17.21,1.71,1.71,0,0,0-.76.89v5.58l-2.24-.35V408.27l-1.24-.19v-1.92Z"/><path class="cls-4" d="M114.48,419.41a1.1,1.1,0,0,1,.38-0.91,1.25,1.25,0,0,1,1-.21,1.68,1.68,0,0,1,1,.51,1.46,1.46,0,0,1,.38,1,1.13,1.13,0,0,1-.38.92,1.27,1.27,0,0,1-1,.21,1.61,1.61,0,0,1-1-.52A1.5,1.5,0,0,1,114.48,419.41Z"/><path class="cls-4" d="M122.28,421.7v-1.92l2,0.29v-4.9l-2.05-.29V413l2.05,0.29v-0.49a3,3,0,0,1,.28-1.38,2.31,2.31,0,0,1,.75-0.87,2.61,2.61,0,0,1,1.08-.42,4.26,4.26,0,0,1,1.27,0,8.57,8.57,0,0,1,2,.48,5.8,5.8,0,0,1,1.27.67l-0.66,1.64a9.11,9.11,0,0,0-.86-0.47,4,4,0,0,0-1.18-.32,1.5,1.5,0,0,0-1.3.25,1.71,1.71,0,0,0-.37,1.23l3.63,0.51V416l-3.63-.51v4.9l3.64,0.51v1.92Z"/><path class="cls-4" d="M133,415.05a8.42,8.42,0,0,1,1.6-.32,8.84,8.84,0,0,1,2.15.06,5.12,5.12,0,0,1,1.53.42,3.06,3.06,0,0,1,1,.76,2.8,2.8,0,0,1,.56,1,4.52,4.52,0,0,1,.17,1.28q0,0.89-.06,1.51c0,0.41-.06.79-0.06,1.11a7.71,7.71,0,0,0,0,.83c0,0.16,0,.33.05,0.48l1.12,0.15v1.92l-2.9-.39L138,422.69h-0.09a2.46,2.46,0,0,1-1,.8,3,3,0,0,1-1.72.16,3.31,3.31,0,0,1-2-1,2.75,2.75,0,0,1-.76-2,2.58,2.58,0,0,1,.27-1.23,1.85,1.85,0,0,1,.77-0.77,3.21,3.21,0,0,1,1.22-.34,6.94,6.94,0,0,1,1.59,0q0.31,0,.65.12l0.84,0.18a1.78,1.78,0,0,0,0-.35V418a1.29,1.29,0,0,0-.38-1,2,2,0,0,0-1.11-.44,5,5,0,0,0-1.58,0,9.07,9.07,0,0,0-1.18.29Zm2.94,6.82a1.9,1.9,0,0,0,1.23-.14,1.68,1.68,0,0,0,.6-0.58v-1l-0.51-.15a6.31,6.31,0,0,0-.73-0.14,3.49,3.49,0,0,0-.65,0,1.94,1.94,0,0,0-.58.11,1,1,0,0,0-.41.28,0.75,0.75,0,0,0-.15.49,1.14,1.14,0,0,0,.28.8A1.49,1.49,0,0,0,135.91,421.87Z"/><path class="cls-4" d="M151.22,424.77a4.29,4.29,0,0,1-1.66.6,7,7,0,0,1-2,0,6.07,6.07,0,0,1-2-.59,4.87,4.87,0,0,1-1.47-1.13,4.71,4.71,0,0,1-.91-1.58,5.86,5.86,0,0,1-.31-1.93,4.64,4.64,0,0,1,.36-1.91,3.43,3.43,0,0,1,1-1.32,3.71,3.71,0,0,1,1.53-.7,5.62,5.62,0,0,1,1.92-.06,7.52,7.52,0,0,1,1.81.46,9.49,9.49,0,0,1,1.3.6v3.08l-1.9-.24v-1.61a5.19,5.19,0,0,0-1.07-.26,3.11,3.11,0,0,0-1,0,2,2,0,0,0-.85.36,2.05,2.05,0,0,0-.61.74,2.52,2.52,0,0,0-.23,1.14,2.89,2.89,0,0,0,1.58,2.61,3.34,3.34,0,0,0,1.13.35,3.82,3.82,0,0,0,1.62-.07,5.6,5.6,0,0,0,.94-0.37Z"/><path class="cls-4" d="M154.16,419.15l-1.71-.21V417l1.71,0.21v-2l2.25-.37v2.64l4.53,0.55V420l-4.53-.55v2.5a3.33,3.33,0,0,0,.5,2,2,2,0,0,0,1.4.77,2.79,2.79,0,0,0,1.53-.22,3.34,3.34,0,0,0,.55-0.32l0.46-.33,1,1.7a2.79,2.79,0,0,1-.73.55,5.43,5.43,0,0,1-2,.61,4.91,4.91,0,0,1-1.09,0,4.21,4.21,0,0,1-2.91-1.45,5.64,5.64,0,0,1-1-3.59v-2.5Z"/><path class="cls-4" d="M163.13,422.69a5.14,5.14,0,0,1,.33-1.92,3.33,3.33,0,0,1,2.38-2.07,5.26,5.26,0,0,1,1.88-.09,5.79,5.79,0,0,1,1.95.56,4.7,4.7,0,0,1,1.44,1.1,4.57,4.57,0,0,1,.89,1.56,5.94,5.94,0,0,1,.3,1.92,5.14,5.14,0,0,1-.33,1.92,3.34,3.34,0,0,1-2.38,2.08,5.24,5.24,0,0,1-1.88.09,5.76,5.76,0,0,1-1.95-.56,4.7,4.7,0,0,1-1.44-1.11,4.59,4.59,0,0,1-.89-1.57A6,6,0,0,1,163.13,422.69Zm2.32,0.27a3.67,3.67,0,0,0,.16,1.09,3,3,0,0,0,.45.91,2.43,2.43,0,0,0,.71.65,2.35,2.35,0,0,0,1,.31,2,2,0,0,0,1.64-.46,2.58,2.58,0,0,0,.63-2,3.35,3.35,0,0,0-.59-2,2.3,2.3,0,0,0-1.68-.94,2.55,2.55,0,0,0-.9,0,1.52,1.52,0,0,0-.72.4,2,2,0,0,0-.48.79A3.63,3.63,0,0,0,165.45,423Z"/><path class="cls-4" d="M173.59,426.35l2.15,0.24v-4.9l-2.15-.24v-1.92l3.9,0.43,0.26,1.18h0.07a3.9,3.9,0,0,1,1.11-.84,2.54,2.54,0,0,1,1.46-.23A2.22,2.22,0,0,1,182,421a4.59,4.59,0,0,1,.6,2.64l-2-.22a1.89,1.89,0,0,0-.18-0.94,0.72,0.72,0,0,0-.58-0.35,1.57,1.57,0,0,0-1.12.23,3,3,0,0,0-.72.73v3.73l3.76,0.41v1.92l-8.15-.9v-1.92Z"/><path class="cls-4" d="M184.32,427.52l3,0.32v-4.9l-3-.32v-1.92l5.3,0.55v6.83l3.21,0.33v1.92l-8.51-.88v-1.92Zm2.63-8.93a1.12,1.12,0,0,1,.4-0.89,1.41,1.41,0,0,1,1.11-.27,1.86,1.86,0,0,1,1.16.5,1.34,1.34,0,0,1,.43,1,1,1,0,0,1-.43.87,1.63,1.63,0,0,1-1.16.24,1.76,1.76,0,0,1-1.11-.47A1.31,1.31,0,0,1,187,418.59Z"/><path class="cls-4" d="M195.25,422.41a8.69,8.69,0,0,1,1.6-.38,8.89,8.89,0,0,1,2.16,0,5,5,0,0,1,1.53.37,2.9,2.9,0,0,1,1,.72,2.67,2.67,0,0,1,.56,1,4.42,4.42,0,0,1,.17,1.28c0,0.59,0,1.1-.06,1.52s-0.06.79-.06,1.11a7.67,7.67,0,0,0,0,.83c0,0.16,0,.33.05,0.48l1.13,0.11v1.92l-2.91-.28-0.23-1.21h-0.09a2.61,2.61,0,0,1-1,.84,3.08,3.08,0,0,1-1.72.23,3.2,3.2,0,0,1-2.05-.9,2.91,2.91,0,0,1-.49-3.17,2,2,0,0,1,.77-0.8,3.34,3.34,0,0,1,1.22-.39,7,7,0,0,1,1.59,0q0.31,0,.65.1L200,425.9a1.73,1.73,0,0,0,0-.35v-0.33a1.23,1.23,0,0,0-.38-1,2,2,0,0,0-1.12-.4,5,5,0,0,0-1.58.07,9.35,9.35,0,0,0-1.19.34Zm2.95,6.71a1.94,1.94,0,0,0,1.23-.19,1.78,1.78,0,0,0,.6-0.6v-1l-0.51-.13a6.2,6.2,0,0,0-.74-0.11,3.55,3.55,0,0,0-.65,0,2,2,0,0,0-.58.14,1,1,0,0,0-.41.3,0.77,0.77,0,0,0-.15.49,1.1,1.1,0,0,0,.28.79A1.44,1.44,0,0,0,198.2,429.12Z"/><path class="cls-4" d="M205.6,419.31l3.69,0.34v8.08a4,4,0,0,0,.33,1.9,1.28,1.28,0,0,0,1.06.62,2.84,2.84,0,0,0,.88,0,3.12,3.12,0,0,0,.69-0.26l0.85,1.65-0.59.31a3.49,3.49,0,0,1-.62.22,4,4,0,0,1-.72.11,5.6,5.6,0,0,1-.88,0,3.22,3.22,0,0,1-3.26-3.52v-7.35l-1.44-.13v-1.92Z"/><path class="cls-4" d="M215.85,434.53l7.7,0.65V437l-7.7-.65v-1.87Z"/><path class="cls-4" d="M224.9,421l3.5,0.28v4.48h0.07a2.62,2.62,0,0,1,1.11-.81,3.6,3.6,0,0,1,1.63-.21,4.21,4.21,0,0,1,1.21.27,2.55,2.55,0,0,1,1,.65,3,3,0,0,1,.62,1.14,5.74,5.74,0,0,1,.23,1.72V434L232,433.8v-5a2.32,2.32,0,0,0-.45-1.57,1.69,1.69,0,0,0-1.18-.56,1.84,1.84,0,0,0-1.18.3,1.91,1.91,0,0,0-.76.95v5.58l-2.26-.18V423l-1.25-.1V421Z"/><path class="cls-4" d="M244.58,433.79a2.8,2.8,0,0,1-.58.37,5.21,5.21,0,0,1-.83.32,6.1,6.1,0,0,1-1.05.21,6.67,6.67,0,0,1-1.22,0,6.07,6.07,0,0,1-2-.46,4.32,4.32,0,0,1-2.41-2.55,5.63,5.63,0,0,1-.32-2,5,5,0,0,1,.37-2,3.65,3.65,0,0,1,1-1.37,3.8,3.8,0,0,1,1.48-.76,5.56,5.56,0,0,1,1.84-.16,5.87,5.87,0,0,1,1.36.27,4,4,0,0,1,1.29.7,3.57,3.57,0,0,1,1,1.21,4.09,4.09,0,0,1,.37,1.85,8.33,8.33,0,0,1-.17,1.62l-6.25-.44a2.12,2.12,0,0,0,.23,1,2.08,2.08,0,0,0,.57.67,2.69,2.69,0,0,0,.82.42,4.18,4.18,0,0,0,1,.18,4.89,4.89,0,0,0,1.71-.12,3.3,3.3,0,0,0,1.09-.52Zm-3.75-6.51a2.78,2.78,0,0,0-.85.06,2.19,2.19,0,0,0-.72.31,1.79,1.79,0,0,0-.53.56,1.75,1.75,0,0,0-.24.78l4.27,0.31a2.07,2.07,0,0,0-.48-1.42A2,2,0,0,0,240.83,427.28Z"/><path class="cls-4" d="M247.24,422.65l3.7,0.25V431a3.92,3.92,0,0,0,.33,1.89,1.25,1.25,0,0,0,1.06.59,2.84,2.84,0,0,0,.89-0.06,3.14,3.14,0,0,0,.69-0.28l0.85,1.63-0.59.32a3.52,3.52,0,0,1-.63.24,4,4,0,0,1-.72.13,5.59,5.59,0,0,1-.88,0,3.13,3.13,0,0,1-3.27-3.43v-7.35l-1.44-.1v-1.92Z"/><path class="cls-4" d="M256.15,426.73l3,0.18,0.26,1.07h0.07a3.12,3.12,0,0,1,2.92-1.12,4.26,4.26,0,0,1,1.47.34,3.09,3.09,0,0,1,1.15.86,4,4,0,0,1,.74,1.41,6.75,6.75,0,0,1,.26,2,6.32,6.32,0,0,1-.3,2,4,4,0,0,1-.85,1.48,3.37,3.37,0,0,1-1.36.88,4.58,4.58,0,0,1-1.82.23,7.15,7.15,0,0,1-1.06-.14,3,3,0,0,1-.87-0.31v3.59l-2.26-.14V428.73l-1.3-.08v-1.92Zm5.52,2a2.19,2.19,0,0,0-1.21.26,1.59,1.59,0,0,0-.76,1v3.64a2,2,0,0,0,.7.35,3.93,3.93,0,0,0,.93.17,2.36,2.36,0,0,0,.9-0.11,1.71,1.71,0,0,0,.73-0.49,2.42,2.42,0,0,0,.48-0.9,4.51,4.51,0,0,0,.17-1.34,2.74,2.74,0,0,0-.56-1.82A1.91,1.91,0,0,0,261.67,428.74Z"/><path class="cls-4" d="M275.85,435.66a2.87,2.87,0,0,1-.58.38,5.31,5.31,0,0,1-.83.33,6.13,6.13,0,0,1-1.05.23,6.66,6.66,0,0,1-1.22,0,6,6,0,0,1-2-.42,4.29,4.29,0,0,1-1.49-1,4.34,4.34,0,0,1-.93-1.5,5.59,5.59,0,0,1-.32-2,5,5,0,0,1,.36-2,3.73,3.73,0,0,1,1-1.39,3.89,3.89,0,0,1,1.49-.79,5.59,5.59,0,0,1,1.84-.19,5.83,5.83,0,0,1,1.37.25,3.94,3.94,0,0,1,1.29.67,3.48,3.48,0,0,1,1,1.19,4,4,0,0,1,.37,1.84A8.37,8.37,0,0,1,276,433l-6.26-.33a2.1,2.1,0,0,0,.23,1,2,2,0,0,0,.57.66,2.62,2.62,0,0,0,.82.4,4.14,4.14,0,0,0,1,.17,4.93,4.93,0,0,0,1.71-.16,3.41,3.41,0,0,0,1.09-.54Zm-3.75-6.44a2.81,2.81,0,0,0-.85.08,2.24,2.24,0,0,0-.72.33,1.84,1.84,0,0,0-.53.57,1.78,1.78,0,0,0-.24.79l4.27,0.23a2,2,0,0,0-.48-1.41A2,2,0,0,0,272.09,429.22Z"/><path class="cls-4" d="M277.67,434.76l2.15,0.1c0-2,0-2.94,0-4.9l-2.15-.1v-1.92l3.91,0.19,0.26,1.17h0.07a4.28,4.28,0,0,1,1.11-.91,2.65,2.65,0,0,1,1.46-.32,2.07,2.07,0,0,1,1.64.84,4.39,4.39,0,0,1,.6,2.6l-2-.09a1.82,1.82,0,0,0-.18-0.93,0.67,0.67,0,0,0-.58-0.32,1.65,1.65,0,0,0-1.12.3,3.26,3.26,0,0,0-.72.77V435l3.77,0.17v1.92l-8.18-.38v-1.92Z"/><path class="cls-4" d="M295.33,441.17a8.29,8.29,0,0,1-2.36-.86,7.33,7.33,0,0,1-2-1.64,7.85,7.85,0,0,1-1.42-2.44,9.35,9.35,0,0,1-.53-3.28,9,9,0,0,1,.53-3.22,7.24,7.24,0,0,1,1.42-2.35,6.66,6.66,0,0,1,2-1.51,8.27,8.27,0,0,1,2.36-.73l0.42,1.89a7,7,0,0,0-1.38.44,4.78,4.78,0,0,0-1.47,1,5.55,5.55,0,0,0-1.17,1.78,7,7,0,0,0-.48,2.78,6.65,6.65,0,0,0,.5,2.73,6.38,6.38,0,0,0,1.22,1.86,5.73,5.73,0,0,0,1.49,1.13,6.09,6.09,0,0,0,1.29.51Z"/><path class="cls-4" d="M302.16,436a3.49,3.49,0,0,0,1.05-.11,2.38,2.38,0,0,0,.82-0.39,1.91,1.91,0,0,0,.53-0.61,1.59,1.59,0,0,0,.19-0.77,1.71,1.71,0,0,0-.22-0.89,1.65,1.65,0,0,0-.6-0.59,3,3,0,0,0-.92-0.33,7.46,7.46,0,0,0-1.16-.13l-1,0v-1.26l2.92-3.49-4.4-.15v-1.92l7.09,0.24v1.59l-3.06,3.42h0.4a3.47,3.47,0,0,1,1.18.25,3,3,0,0,1,1,.66,3.23,3.23,0,0,1,.71,1.07,3.74,3.74,0,0,1,.27,1.46,3.54,3.54,0,0,1-.41,1.74,3.8,3.8,0,0,1-1.08,1.23,4.42,4.42,0,0,1-1.54.72,6.27,6.27,0,0,1-1.79.19,8.93,8.93,0,0,1-1.57-.19,7.71,7.71,0,0,1-1.51-.49l0.61-1.87a2.53,2.53,0,0,0,.43.19l0.61,0.2a6.9,6.9,0,0,0,.69.16A4.82,4.82,0,0,0,302.16,436Z"/><path class="cls-4" d="M312.07,436.9a1.17,1.17,0,0,1,.39-0.93,1.39,1.39,0,0,1,1-.32,1.77,1.77,0,0,1,1.44.67,2.53,2.53,0,0,1,.49,1.57,3.28,3.28,0,0,1-.3,1.43,3.65,3.65,0,0,1-.79,1.1,4.1,4.1,0,0,1-1.09.74,4.32,4.32,0,0,1-1.19.37l-0.47-1a4.8,4.8,0,0,0,.84-0.27,3.27,3.27,0,0,0,.77-0.46,2.58,2.58,0,0,0,.58-0.66,1.83,1.83,0,0,0,.27-0.83,2.19,2.19,0,0,1-.89,0,1.37,1.37,0,0,1-.6-0.3,1.19,1.19,0,0,1-.34-0.5A1.83,1.83,0,0,1,312.07,436.9Z"/><path class="cls-4" d="M327.8,438.4l-7.75-.17v-1.7l0.52-.45,0.7-.64,0.83-.79c0.29-.29.57-0.58,0.85-0.89s0.74-.83,1-1.19a8.31,8.31,0,0,0,.73-1,4.16,4.16,0,0,0,.43-0.94,3.25,3.25,0,0,0,.14-1,1.6,1.6,0,0,0-.16-0.69,1.93,1.93,0,0,0-.43-0.6A2.15,2.15,0,0,0,324,428a2.44,2.44,0,0,0-.86-0.17A3.19,3.19,0,0,0,322,428a3.77,3.77,0,0,0-1.07.62L320,427a7.45,7.45,0,0,1,1.62-.85,5.48,5.48,0,0,1,2.06-.31,5,5,0,0,1,1.43.24,3.9,3.9,0,0,1,1.22.65,3,3,0,0,1,1.15,2.46,5.28,5.28,0,0,1-.1,1,5.06,5.06,0,0,1-.3,1,6.42,6.42,0,0,1-.52,1c-0.22.33-.47,0.7-0.77,1.09s-0.48.6-.75,0.9-0.54.59-.81,0.87-0.53.53-.79,0.77-0.49.44-.7,0.6l5,0.1v1.92Z"/><path class="cls-4" d="M331.23,440.27a5.85,5.85,0,0,0,1.29-.44,5.3,5.3,0,0,0,1.49-1,5.88,5.88,0,0,0,1.23-1.79,6.45,6.45,0,0,0,.5-2.71,7.22,7.22,0,0,0-.48-2.81,6,6,0,0,0-1.17-1.85,5.17,5.17,0,0,0-1.47-1.09,7.42,7.42,0,0,0-1.38-.52l0.42-1.87A8.74,8.74,0,0,1,334,427a7.22,7.22,0,0,1,2,1.62,7.75,7.75,0,0,1,1.42,2.43,9.25,9.25,0,0,1,.53,3.25,9.11,9.11,0,0,1-.53,3.25,7.28,7.28,0,0,1-1.42,2.36,6.78,6.78,0,0,1-2,1.53,7.91,7.91,0,0,1-2.37.73Z"/><path class="cls-4" d="M388.67,431.94l0.09-1.91h-0.1l-1.95,3.23h-0.42l-2-3.17h-0.09l0.1,1.71c0,2.69,0,4,0,6.72l-2.26,0c0-4.9,0-7.35,0-12.25l2.42,0,2.09,3.36h0.07l2.07-3.43,2.4,0c0,4.9,0,7.35,0,12.25l-2.38,0C388.67,435.85,388.67,434.55,388.67,431.94Z"/><path class="cls-4" d="M393.31,430.22a9.61,9.61,0,0,1,1.61-.57,9.18,9.18,0,0,1,2.17-.27,4.74,4.74,0,0,1,1.54.18,2.5,2.5,0,0,1,1,.6,2.3,2.3,0,0,1,.56.95,4.23,4.23,0,0,1,.17,1.26q0,0.89-.06,1.52c0,0.42-.06.79-0.06,1.12a7.83,7.83,0,0,0,0,.82c0,0.16,0,.32.05,0.47l1.13,0c0,0.77,0,1.15,0,1.92l-2.92.07-0.23-1.19h-0.09a3.11,3.11,0,0,1-1,1,3.32,3.32,0,0,1-1.73.43,2.86,2.86,0,0,1-2.06-.66,2.35,2.35,0,0,1-.76-1.84,2.83,2.83,0,0,1,.27-1.27,2.32,2.32,0,0,1,.78-0.89,3.76,3.76,0,0,1,1.23-.53,7.18,7.18,0,0,1,1.6-.2,6.54,6.54,0,0,1,.66,0l0.85,0.05a1.78,1.78,0,0,0,0-.35v-0.33a1.1,1.1,0,0,0-.38-0.95,1.81,1.81,0,0,0-1.12-.26,5.25,5.25,0,0,0-1.59.26,10.55,10.55,0,0,0-1.19.48Zm3,6.36a2.11,2.11,0,0,0,1.24-.33,2.14,2.14,0,0,0,.6-0.67c0-.42,0-0.63,0-1l-0.52-.07a6,6,0,0,0-.74,0,3.64,3.64,0,0,0-.65.07,2.22,2.22,0,0,0-.58.21,1.2,1.2,0,0,0-.41.35,0.84,0.84,0,0,0-.15.51,1,1,0,0,0,.28.75A1.31,1.31,0,0,0,396.27,436.59Z"/><path class="cls-4" d="M404.2,431.3l-1.72,0c0-.77,0-1.15,0-1.92l1.72,0c0-.8,0-1.2,0-2l2.26-.71c0,1.06,0,1.59,0,2.64l4.55-.13v1.92l-4.55.13v2.5a3,3,0,0,0,.5,1.94,1.69,1.69,0,0,0,1.41.56,3,3,0,0,0,.85-0.14,3.29,3.29,0,0,0,.69-0.31,4,4,0,0,0,.56-0.4l0.46-.4,1,1.54a3.45,3.45,0,0,1-.74.66,6.41,6.41,0,0,1-1,.54,6.1,6.1,0,0,1-1.07.37,5.12,5.12,0,0,1-1.1.15,3.64,3.64,0,0,1-2.93-1,5,5,0,0,1-1-3.45v-2.5Z"/><path class="cls-4" d="M412.61,425.63l3.51-.11c0,1.79,0,2.69,0,4.48h0.07a3.07,3.07,0,0,1,1.11-.93,3.84,3.84,0,0,1,1.63-.39,4,4,0,0,1,1.22.13,2.2,2.2,0,0,1,1,.54,2.58,2.58,0,0,1,.63,1.07,5.49,5.49,0,0,1,.23,1.7c0,2.18,0,3.27,0,5.44l-2.26.08c0-2,0-3,0-5a2.12,2.12,0,0,0-.45-1.52,1.51,1.51,0,0,0-1.18-.43,2,2,0,0,0-1.18.43,2.24,2.24,0,0,0-.76,1c0,2.23,0,3.35,0,5.58l-2.26.07c0-4.13,0-6.2,0-10.33l-1.25,0C412.61,426.79,412.61,426.4,412.61,425.63Z"/><path class="cls-4" d="M426.85,436.22a1.32,1.32,0,0,1,.38-1,1.47,1.47,0,0,1,1-.4,1.41,1.41,0,0,1,1,.32,1.21,1.21,0,0,1,.38,1,1.35,1.35,0,0,1-.38,1,1.49,1.49,0,0,1-1,.41,1.34,1.34,0,0,1-1-.33A1.25,1.25,0,0,1,426.85,436.22Z"/><path class="cls-4" d="M434.7,437c0-.77,0-1.15,0-1.92l2.05-.09v-4.9l-2.07.09c0-.77,0-1.15,0-1.92l2.07-.09v-0.49a3.31,3.31,0,0,1,.29-1.43,3.06,3.06,0,0,1,.76-1,3.27,3.27,0,0,1,1.09-.62,4.54,4.54,0,0,1,1.28-.24,8,8,0,0,1,2,.11,4.77,4.77,0,0,1,1.28.43l-0.66,1.77a7.39,7.39,0,0,0-.86-0.31,3.71,3.71,0,0,0-1.19-.1,1.75,1.75,0,0,0-1.31.49,2,2,0,0,0-.37,1.3l3.65-.18v1.92L439,430v4.9l3.67-.18v1.92Z"/><path class="cls-4" d="M445.46,428.37a9.93,9.93,0,0,1,1.61-.63,9.27,9.27,0,0,1,2.16-.34,4.67,4.67,0,0,1,1.54.14,2.39,2.39,0,0,1,1,.56,2.21,2.21,0,0,1,.56.93,4.13,4.13,0,0,1,.17,1.25c0,0.59,0,1.1-.06,1.53s-0.06.8-.06,1.12a7.44,7.44,0,0,0,0,.82c0,0.16,0,.32.05,0.47l1.13-.06c0,0.77,0,1.15,0,1.92l-2.92.16-0.23-1.18h-0.09a3.25,3.25,0,0,1-1,1,3.39,3.39,0,0,1-1.73.49,2.79,2.79,0,0,1-2.06-.59,2.28,2.28,0,0,1-.76-1.82,2.89,2.89,0,0,1,.27-1.28,2.44,2.44,0,0,1,.78-0.91,3.91,3.91,0,0,1,1.23-.57,7.28,7.28,0,0,1,1.6-.25,6.51,6.51,0,0,1,.66,0l0.85,0a1.8,1.8,0,0,0,0-.35v-0.33a1.06,1.06,0,0,0-.38-0.93,1.77,1.77,0,0,0-1.12-.23,5.33,5.33,0,0,0-1.59.31,10.9,10.9,0,0,0-1.19.52Zm3,6.27a2.15,2.15,0,0,0,1.24-.37,2.21,2.21,0,0,0,.6-0.69c0-.42,0-0.63,0-1l-0.52-.05a6,6,0,0,0-.74,0,3.66,3.66,0,0,0-.65.1,2.27,2.27,0,0,0-.59.22,1.24,1.24,0,0,0-.41.36,0.87,0.87,0,0,0-.16.52,1,1,0,0,0,.28.75A1.28,1.28,0,0,0,448.42,434.64Z"/><path class="cls-4" d="M463.8,434.64a5.32,5.32,0,0,1-1.67.92,7.46,7.46,0,0,1-2,.39,5.48,5.48,0,0,1-2-.21,3.77,3.77,0,0,1-1.48-.85,3.68,3.68,0,0,1-.91-1.41,5.34,5.34,0,0,1-.31-1.87,5.12,5.12,0,0,1,.36-2,4.47,4.47,0,0,1,1-1.51,4.72,4.72,0,0,1,1.54-1,6.08,6.08,0,0,1,1.93-.42,7,7,0,0,1,1.82.12,8,8,0,0,1,1.3.36c0,1.23,0,1.85,0,3.08l-1.91.12c0-.64,0-1,0-1.61a4.83,4.83,0,0,0-1.08-.06,3.35,3.35,0,0,0-1,.21,2.55,2.55,0,0,0-.85.52,2.67,2.67,0,0,0-.61.85,2.8,2.8,0,0,0-.23,1.19,2.63,2.63,0,0,0,.19,1,2.21,2.21,0,0,0,1.4,1.29,3,3,0,0,0,1.14.13,4.17,4.17,0,0,0,1.62-.38,7,7,0,0,0,.95-0.55Z"/><path class="cls-4" d="M466.75,428.47l-1.72.11c0-.77,0-1.15,0-1.92l1.72-.11c0-.8,0-1.2,0-2l2.26-.79c0,1.06,0,1.59,0,2.64l4.55-.3V428l-4.55.3v2.5a2.89,2.89,0,0,0,.5,1.92,1.62,1.62,0,0,0,1.41.51,3.09,3.09,0,0,0,.85-0.17,3.53,3.53,0,0,0,.69-0.34,4.31,4.31,0,0,0,.56-0.42l0.46-.42,1,1.5a3.74,3.74,0,0,1-.74.69,6.72,6.72,0,0,1-1,.57,6.26,6.26,0,0,1-1.07.41,5.17,5.17,0,0,1-1.09.2,3.51,3.51,0,0,1-2.93-.9,4.85,4.85,0,0,1-1-3.41v-2.5Z"/><path class="cls-4" d="M475.77,430.32a5.64,5.64,0,0,1,.33-2,4.34,4.34,0,0,1,2.39-2.52,5.73,5.73,0,0,1,1.88-.44,5.23,5.23,0,0,1,2,.19,3.65,3.65,0,0,1,1.45.83,3.57,3.57,0,0,1,.89,1.4,5.44,5.44,0,0,1,.3,1.87,5.64,5.64,0,0,1-.33,2,4.34,4.34,0,0,1-2.39,2.53,5.68,5.68,0,0,1-1.88.44,5.22,5.22,0,0,1-2-.19,3.66,3.66,0,0,1-1.45-.83,3.59,3.59,0,0,1-.89-1.4A5.45,5.45,0,0,1,475.77,430.32Zm2.32-.16a3.37,3.37,0,0,0,.16,1.06,2.4,2.4,0,0,0,.45.83,1.85,1.85,0,0,0,.71.52,2.09,2.09,0,0,0,1,.13,2.36,2.36,0,0,0,1.64-.77,3,3,0,0,0,.63-2.09,2.87,2.87,0,0,0-.59-1.91,1.88,1.88,0,0,0-1.68-.62,2.78,2.78,0,0,0-.9.21,2,2,0,0,0-.72.53,2.59,2.59,0,0,0-.48.87A3.9,3.9,0,0,0,478.09,430.16Z"/><path class="cls-4" d="M486.25,432l2.15-.16v-4.9l-2.15.16v-1.92l3.9-.3,0.26,1.13h0.07a5.15,5.15,0,0,1,1.11-1.05,2.91,2.91,0,0,1,1.46-.5,1.82,1.82,0,0,1,1.64.64,4,4,0,0,1,.6,2.52l-2,.16a1.7,1.7,0,0,0-.18-0.9,0.59,0.59,0,0,0-.58-0.24,1.84,1.84,0,0,0-1.12.44,3.92,3.92,0,0,0-.72.86v3.73l3.76-.3c0,0.77,0,1.15,0,1.92l-8.17.64V432Z"/><path class="cls-4" d="M497,431.16l3.05-.25V426l-3.05.25v-1.92l5.31-.45c0,2.73,0,4.1,0,6.83l3.21-.28c0,0.77,0,1.15,0,1.92l-8.52.72C497,432.31,497,431.93,497,431.16Zm2.64-9.42a1.35,1.35,0,0,1,.4-1,1.66,1.66,0,0,1,1.11-.48,1.58,1.58,0,0,1,1.16.29,1.09,1.09,0,0,1,.43.89,1.25,1.25,0,0,1-.43,1,1.91,1.91,0,0,1-1.16.46,1.5,1.5,0,0,1-1.11-.26A1.08,1.08,0,0,1,499.64,421.73Z"/><path class="cls-4" d="M507.95,424a10.29,10.29,0,0,1,1.6-.69,9.42,9.42,0,0,1,2.16-.42,4.62,4.62,0,0,1,1.53.08,2.27,2.27,0,0,1,1,.53,2.11,2.11,0,0,1,.56.91,4.07,4.07,0,0,1,.17,1.24c0,0.59,0,1.11-.06,1.53s-0.06.8-.06,1.13a7.41,7.41,0,0,0,0,.82c0,0.16,0,.32.05,0.47l1.13-.11c0,0.77,0,1.15,0,1.92l-2.91.27L513,430.5h-0.09a3.44,3.44,0,0,1-1,1,3.48,3.48,0,0,1-1.72.55,2.7,2.7,0,0,1-2.05-.52,2.2,2.2,0,0,1-.76-1.79,3,3,0,0,1,.27-1.29,2.57,2.57,0,0,1,.78-0.94,4.07,4.07,0,0,1,1.22-.62,7.39,7.39,0,0,1,1.59-.31,6.49,6.49,0,0,1,.65,0h0.84a1.83,1.83,0,0,0,0-.35V425.9a1,1,0,0,0-.38-0.92,1.73,1.73,0,0,0-1.12-.19,5.43,5.43,0,0,0-1.58.37,11.34,11.34,0,0,0-1.19.56Zm3,6.16a2.21,2.21,0,0,0,1.23-.42,2.34,2.34,0,0,0,.6-0.71v-1l-0.51,0a6,6,0,0,0-.74,0,3.72,3.72,0,0,0-.65.12,2.35,2.35,0,0,0-.58.25,1.31,1.31,0,0,0-.41.38,0.9,0.9,0,0,0-.15.52,0.92,0.92,0,0,0,.28.74A1.24,1.24,0,0,0,510.9,430.15Z"/><path class="cls-4" d="M518.3,418.94l3.69-.36c0,3.23,0,4.85,0,8.08a3.59,3.59,0,0,0,.33,1.84,1,1,0,0,0,1.06.42,3,3,0,0,0,.88-0.2,3.84,3.84,0,0,0,.69-0.39l0.85,1.49-0.59.42a4.31,4.31,0,0,1-.62.34,4.56,4.56,0,0,1-.72.25,5.81,5.81,0,0,1-.88.15,2.61,2.61,0,0,1-3.26-2.9v-7.35l-1.44.14v-1.92Z"/><path class="cls-4" d="M528.54,432.23l7.69-.8c0,0.75,0,1.12,0,1.87l-7.69.8v-1.87Z"/><path class="cls-4" d="M537.58,417l3.5-.38c0,1.79,0,2.69,0,4.48h0.07a3.42,3.42,0,0,1,1.11-1,4,4,0,0,1,1.63-.51,3.91,3.91,0,0,1,1.21,0,2,2,0,0,1,1,.47,2.35,2.35,0,0,1,.62,1,5.34,5.34,0,0,1,.22,1.68c0,2.18,0,3.27,0,5.44l-2.25.25c0-2,0-3,0-5a2,2,0,0,0-.45-1.49,1.41,1.41,0,0,0-1.18-.34,2.17,2.17,0,0,0-1.18.52,2.48,2.48,0,0,0-.76,1.09v5.58l-2.25.24c0-4.13,0-6.2,0-10.33l-1.25.13V417Z"/><path class="cls-4" d="M557.21,426.1a3.56,3.56,0,0,1-.58.48,6.55,6.55,0,0,1-.83.48,7.12,7.12,0,0,1-2.26.65,5.61,5.61,0,0,1-2-.09,3.42,3.42,0,0,1-1.48-.75,3.46,3.46,0,0,1-.93-1.35,5.16,5.16,0,0,1-.32-1.9,5.51,5.51,0,0,1,.36-2.06,4.73,4.73,0,0,1,1-1.56,4.84,4.84,0,0,1,1.48-1,6.1,6.1,0,0,1,1.83-.5,5.5,5.5,0,0,1,1.36,0,3.27,3.27,0,0,1,1.29.45,2.71,2.71,0,0,1,1,1,3.67,3.67,0,0,1,.37,1.78,8.72,8.72,0,0,1-.17,1.65l-6.23.73a1.86,1.86,0,0,0,.23.92,1.58,1.58,0,0,0,.57.56,2.2,2.2,0,0,0,.81.27,4,4,0,0,0,1,0,5.33,5.33,0,0,0,1.7-.44,4.17,4.17,0,0,0,1.08-.72Zm-3.74-5.81a3,3,0,0,0-.85.22,2.76,2.76,0,0,0-.72.45,2.37,2.37,0,0,0-.53.66,2,2,0,0,0-.24.83l4.26-.5a1.75,1.75,0,0,0-.48-1.33A1.72,1.72,0,0,0,553.48,420.29Z"/><path class="cls-4" d="M559.86,414.46l3.69-.45v8.08a3.54,3.54,0,0,0,.33,1.83,1,1,0,0,0,1.06.4,3.08,3.08,0,0,0,.88-0.22,4,4,0,0,0,.69-0.41l0.85,1.47-0.59.43a4.44,4.44,0,0,1-.62.36,4.66,4.66,0,0,1-.72.26,5.88,5.88,0,0,1-.87.17,2.54,2.54,0,0,1-3.25-2.82v-7.35l-1.44.17C559.86,415.61,559.86,415.23,559.86,414.46Z"/><path class="cls-4" d="M568.73,416.86l2.94-.37,0.26,1H572a3.8,3.8,0,0,1,2.9-1.67,3.91,3.91,0,0,1,1.46.06,2.39,2.39,0,0,1,1.14.65,3.17,3.17,0,0,1,.73,1.27,6.29,6.29,0,0,1,.26,1.94,6.88,6.88,0,0,1-.3,2.06,5.08,5.08,0,0,1-.85,1.64,4.37,4.37,0,0,1-1.35,1.14,5.11,5.11,0,0,1-1.81.57,6.92,6.92,0,0,1-1.06.06,2.63,2.63,0,0,1-.86-0.14v3.59L570,429c0-4.13,0-6.2,0-10.33l-1.3.16v-1.92Zm5.5,1a2.54,2.54,0,0,0-1.2.49,2.06,2.06,0,0,0-.75,1.09v3.64a1.63,1.63,0,0,0,.7.22,3.71,3.71,0,0,0,.92,0,2.63,2.63,0,0,0,.9-0.28,2.23,2.23,0,0,0,.73-0.63,3.05,3.05,0,0,0,.48-1,4.87,4.87,0,0,0,.17-1.37,2.35,2.35,0,0,0-.55-1.71A1.58,1.58,0,0,0,574.23,417.84Z"/><path class="cls-4" d="M588.33,422.1a3.73,3.73,0,0,1-.58.49,6.61,6.61,0,0,1-.83.49,7.21,7.21,0,0,1-2.26.69,5.58,5.58,0,0,1-2,0,3.23,3.23,0,0,1-2.4-2,5.12,5.12,0,0,1-.32-1.89,5.58,5.58,0,0,1,.36-2.07,4.82,4.82,0,0,1,1-1.58,5,5,0,0,1,1.48-1.06,6.16,6.16,0,0,1,1.83-.54,5.48,5.48,0,0,1,1.36,0,3.19,3.19,0,0,1,1.29.43,2.64,2.64,0,0,1,1,1,3.63,3.63,0,0,1,.37,1.77,8.93,8.93,0,0,1-.17,1.65l-6.22.85a1.84,1.84,0,0,0,.23.91,1.53,1.53,0,0,0,.57.55,2.14,2.14,0,0,0,.81.25,3.93,3.93,0,0,0,1,0,5.4,5.4,0,0,0,1.7-.48,4.33,4.33,0,0,0,1.08-.74Zm-3.73-5.74a3.07,3.07,0,0,0-.85.24,2.79,2.79,0,0,0-.72.46,2.41,2.41,0,0,0-.53.67,2.09,2.09,0,0,0-.24.83l4.25-.58a1.72,1.72,0,0,0-.47-1.32A1.7,1.7,0,0,0,584.6,416.36Z"/><path class="cls-4" d="M590.14,420.85l2.14-.3v-4.9l-2.14.3c0-.77,0-1.15,0-1.92l3.89-.55,0.26,1.12h0.07a5.64,5.64,0,0,1,1.1-1.12,3.07,3.07,0,0,1,1.45-.59,1.7,1.7,0,0,1,1.63.53,3.87,3.87,0,0,1,.6,2.49l-2,.29a1.64,1.64,0,0,0-.18-0.89,0.55,0.55,0,0,0-.58-0.21,2,2,0,0,0-1.11.51,4.29,4.29,0,0,0-.71.91c0,1.49,0,2.24,0,3.73l3.75-.54v1.92l-8.13,1.15v-1.92Z"/><path class="cls-4" d="M607.68,424a7.12,7.12,0,0,1-2.35-.42,5.59,5.59,0,0,1-2-1.26,6.13,6.13,0,0,1-1.41-2.17,8.61,8.61,0,0,1-.53-3.18,9.91,9.91,0,0,1,.53-3.32,9.22,9.22,0,0,1,1.41-2.61,8.73,8.73,0,0,1,2-1.89,10,10,0,0,1,2.35-1.17l0.41,1.81a8.44,8.44,0,0,0-1.37.7,6.22,6.22,0,0,0-1.46,1.29,7.16,7.16,0,0,0-1.17,2,7.73,7.73,0,0,0-.48,2.87,6,6,0,0,0,.5,2.64,4.87,4.87,0,0,0,1.22,1.63,4.4,4.4,0,0,0,1.47.85,5.21,5.21,0,0,0,1.28.27Z"/><path class="cls-4" d="M619.59,414.61a4.33,4.33,0,0,1-.32,1.64,5,5,0,0,1-.87,1.41,5,5,0,0,1-1.32,1.06,4.81,4.81,0,0,1-1.65.57,4.62,4.62,0,0,1-1.68,0,3.14,3.14,0,0,1-1.37-.66,3.36,3.36,0,0,1-.93-1.31,5.11,5.11,0,0,1-.34-2,8.76,8.76,0,0,1,.59-3.24,10.67,10.67,0,0,1,1.53-2.69,10.05,10.05,0,0,1,2.09-2,8.21,8.21,0,0,1,2.29-1.17l0.5,1.72a7.88,7.88,0,0,0-3.12,2,7.14,7.14,0,0,0-1,1.4,5.19,5.19,0,0,0-.58,1.51,3.3,3.3,0,0,1,1-.9,4.18,4.18,0,0,1,1.52-.54,3.91,3.91,0,0,1,1.45,0,2.73,2.73,0,0,1,1.16.55,2.76,2.76,0,0,1,.78,1.06A3.87,3.87,0,0,1,619.59,414.61Zm-2.17.43a1.55,1.55,0,0,0-.56-1.35,2,2,0,0,0-1.51-.26,2.82,2.82,0,0,0-1.24.51,2.77,2.77,0,0,0-.81.86,3.18,3.18,0,0,0,0,.44c0,0.16,0,.28,0,0.38a2.19,2.19,0,0,0,.14.78,1.6,1.6,0,0,0,.4.61,1.56,1.56,0,0,0,.65.35,2.06,2.06,0,0,0,.88,0,2.36,2.36,0,0,0,.78-0.27,2.74,2.74,0,0,0,.67-0.52,2.52,2.52,0,0,0,.47-0.71A2.09,2.09,0,0,0,617.42,415Z"/><path class="cls-4" d="M624.28,416.55a1.41,1.41,0,0,1,.39-1,1.66,1.66,0,0,1,1-.51,1.47,1.47,0,0,1,1.43.4,2.17,2.17,0,0,1,.48,1.48,3.69,3.69,0,0,1-.3,1.48,4.74,4.74,0,0,1-.78,1.25,5.34,5.34,0,0,1-1.08.94,5.17,5.17,0,0,1-1.18.59l-0.47-.89a5.77,5.77,0,0,0,.84-0.43,4.24,4.24,0,0,0,.77-0.6,3.4,3.4,0,0,0,.58-0.77,2.16,2.16,0,0,0,.27-0.88,2.26,2.26,0,0,1-.88.17,1.13,1.13,0,0,1-.59-0.18,0.92,0.92,0,0,1-.34-0.44A1.68,1.68,0,0,1,624.28,416.55Z"/><path class="cls-4" d="M632.68,414.37l2.63-.44v-7.65L633,408.43l-1-1.23,3.93-3.7,1.51-.25v10.33l2.58-.44v1.92l-7.35,1.23v-1.92Z"/><path class="cls-4" d="M643.25,416.32a7.06,7.06,0,0,0,1.27-.68,6.9,6.9,0,0,0,1.47-1.32,7.6,7.6,0,0,0,1.21-2,7.2,7.2,0,0,0,.5-2.8,6.62,6.62,0,0,0-.47-2.72,4.61,4.61,0,0,0-1.16-1.63,4,4,0,0,0-1.45-.82,6.3,6.3,0,0,0-1.37-.26l0.41-1.94a7.45,7.45,0,0,1,2.34.42,5.49,5.49,0,0,1,2,1.24,6,6,0,0,1,1.4,2.16,8.53,8.53,0,0,1,.52,3.15,10.06,10.06,0,0,1-.52,3.35,9.28,9.28,0,0,1-1.4,2.63,8.85,8.85,0,0,1-2,1.91,9.44,9.44,0,0,1-2.34,1.17Z"/></svg>