<svg id="Layer_1" data-name="Layer 1" xmlns="http://www.w3.org/2000/svg" viewBox="0 0 720 576"><defs><style>.cls-1,.cls-2,.cls-4,.cls-6{fill:#231f20;}.cls-1,.cls-3{stroke:#231f20;}.cls-1,.cls-6{stroke-miterlimit:10;}.cls-1,.cls-2,.cls-3{stroke-width:2px;}.cls-2{stroke:#000;}.cls-2,.cls-3{stroke-linecap:round;stroke-linejoin:round;}.cls-3,.cls-5{fill:#fff;}.cls-6{stroke:#fff;}</style></defs><title>Hanoi_Tower_Set_Elixir_1</title><path class="cls-1" d="M683,522.57c0-.14,0-0.29,0-0.43s0-.29,0-0.43V469.92H37.16s-0.25,51.74-.25,52.22c0,2.67,2.32,5.24,6.64,7.71,15.13,8.61,55.2,16.11,111,21.48S282,559.92,360,559.92c89.17,0,169.9-4.21,228.35-11,29.22-3.41,52.88-7.46,69.24-12,8.18-2.25,14.54-4.62,18.86-7.08,3.69-2.1,5.91-4.29,6.48-6.55H683v-0.73Z"/><ellipse class="cls-2" cx="360" cy="471" rx="322.89" ry="37.63"/><path class="cls-3" d="M683,471.09c0-.14,0-0.29,0-0.43s0-.29,0-0.43V418.44H37.16s-0.25,51.74-.25,52.22c0,2.67,2.32,5.24,6.64,7.71,15.13,8.61,55.2,16.11,111,21.48S282,508.44,360,508.44c89.17,0,169.9-4.21,228.35-11,29.22-3.41,52.88-7.46,69.24-12,8.18-2.25,14.54-4.62,18.86-7.08,3.69-2.1,5.91-4.29,6.48-6.55H683v-0.73Z"/><ellipse class="cls-3" cx="360" cy="419.52" rx="322.89" ry="37.63"/><path class="cls-4" d="M360,428.3c-16,0-29-3.75-30.2-8.61h-0.08l0-.5V24.35h60.63V419.69H390.2C389,424.55,376,428.3,360,428.3Z"/><path class="cls-5" d="M389.82,24.85V419.19h0c-0.49,4.78-13.63,8.61-29.79,8.61s-29.3-3.83-29.79-8.61h0V419s0,0,0-.06,0,0,0-.06v-394h59.63m1-1H329.19v395s0,0.07,0,.11v1.27h0.23c2,5.6,16.84,8.61,30.58,8.61s28.6-3,30.58-8.61h0.21l0-1V23.85h0Z"/><ellipse class="cls-6" cx="359.99" cy="24.97" rx="29.81" ry="8.89"/><path class="cls-4" d="M65.19,450.42q1,0,2.11,0t2.3,0.26a16.14,16.14,0,0,1,2.39.57,7.05,7.05,0,0,1,2.16,1.12,5.67,5.67,0,0,1,1.57,1.87,6,6,0,0,1,.61,2.82,5.06,5.06,0,0,1-.53,2.44A4,4,0,0,1,74.4,461a4.8,4.8,0,0,1-2,.68,8.23,8.23,0,0,1-2.3,0l-0.37-.06-0.53-.09-0.54-.12-0.38-.1v5.54l-3.13-.49V450.42Zm4.66,3.06q-0.46-.07-0.87-0.1c-0.27,0-.5,0-0.66,0v5.22l0.27,0.09,0.39,0.1,0.4,0.07,0.29,0a6.51,6.51,0,0,0,1.22.08,2.64,2.64,0,0,0,1.09-.26,1.77,1.77,0,0,0,.77-0.74,2.88,2.88,0,0,0,.29-1.41,2.7,2.7,0,0,0-1-2.2,3.36,3.36,0,0,0-1-.57A6.45,6.45,0,0,0,69.85,453.47Z"/><path class="cls-4" d="M89.46,468.82a3.35,3.35,0,0,1-.77.43,6.41,6.41,0,0,1-1.1.33,7.78,7.78,0,0,1-1.38.16,8.75,8.75,0,0,1-1.6-.1,8.51,8.51,0,0,1-2.62-.8,6.35,6.35,0,0,1-3.18-3.59,7.66,7.66,0,0,1-.42-2.6,6.27,6.27,0,0,1,.48-2.58,4.3,4.3,0,0,1,1.32-1.7,4.6,4.6,0,0,1,2-.85,7.28,7.28,0,0,1,2.43,0,8.14,8.14,0,0,1,1.8.5,5.88,5.88,0,0,1,1.71,1,5.24,5.24,0,0,1,1.27,1.69,5.61,5.61,0,0,1,.49,2.46,10.51,10.51,0,0,1-.23,2.11l-8.24-1.21a3,3,0,0,0,.31,1.29,3,3,0,0,0,.75.94,3.89,3.89,0,0,0,1.08.63,5.77,5.77,0,0,0,1.29.34,6.43,6.43,0,0,0,2.25,0,4,4,0,0,0,1.43-.57Zm-4.94-8.93a3.63,3.63,0,0,0-1.12,0,2.67,2.67,0,0,0-.95.34,2.11,2.11,0,0,0-.7.68,2.15,2.15,0,0,0-.32,1l5.63,0.83a2.89,2.89,0,0,0-.63-1.91A2.93,2.93,0,0,0,84.52,459.89Z"/><path class="cls-4" d="M91.86,467.86l2.84,0.41v-6.44l-2.84-.41v-2.53L97,459.62l0.34,1.57h0.09a5,5,0,0,1,1.47-1.06,3.34,3.34,0,0,1,1.92-.24,3.05,3.05,0,0,1,2.16,1.31,6.12,6.12,0,0,1,.79,3.49l-2.68-.37a2.52,2.52,0,0,0-.24-1.24,1,1,0,0,0-.77-0.49,2.06,2.06,0,0,0-1.48.25,3.78,3.78,0,0,0-1,.93v4.9l5,0.69v2.53c-4.32-.59-6.47-0.9-10.79-1.52v-2.53Z"/><path class="cls-4" d="M113.92,470.25a1,1,0,0,0-.56-0.81,9.48,9.48,0,0,0-1.39-.69l-1.81-.71a9.41,9.41,0,0,1-1.81-.91,5.5,5.5,0,0,1-1.39-1.27,2.81,2.81,0,0,1-.56-1.77,2.63,2.63,0,0,1,.38-1.44,2.8,2.8,0,0,1,1-1,4.23,4.23,0,0,1,1.56-.47,7.81,7.81,0,0,1,2,0,11.37,11.37,0,0,1,2,.42,10.81,10.81,0,0,1,1.48.59,6.43,6.43,0,0,1,1.08.66l0.77,0.62-1.26,1.88q-0.34-.25-0.79-0.53t-0.94-.53a8.34,8.34,0,0,0-1-.44,5.49,5.49,0,0,0-1.07-.26,3.88,3.88,0,0,0-1.56,0,0.7,0.7,0,0,0-.6.7,0.91,0.91,0,0,0,.56.74,10.48,10.48,0,0,0,1.39.66l1.81,0.71a11.1,11.1,0,0,1,1.81.89,5.27,5.27,0,0,1,1.39,1.23,2.72,2.72,0,0,1,.56,1.73,2.87,2.87,0,0,1-1.27,2.58,5.56,5.56,0,0,1-3.77.5,9.75,9.75,0,0,1-3.4-1,9.47,9.47,0,0,1-2.3-1.68l1.37-2a8.88,8.88,0,0,0,1.9,1.38,10.8,10.8,0,0,0,1.32.6,6.22,6.22,0,0,0,1.39.36,2.73,2.73,0,0,0,1.26-.09A0.75,0.75,0,0,0,113.92,470.25Z"/><path class="cls-4" d="M119.27,468.37a6.66,6.66,0,0,1,.44-2.52,4.44,4.44,0,0,1,1.24-1.75,4.52,4.52,0,0,1,1.91-.94,7.05,7.05,0,0,1,2.49-.09,7.79,7.79,0,0,1,2.58.76,6.33,6.33,0,0,1,1.92,1.47,6.06,6.06,0,0,1,1.18,2.06,7.8,7.8,0,0,1,.4,2.53,6.69,6.69,0,0,1-.44,2.52,4.36,4.36,0,0,1-3.15,2.7,7,7,0,0,1-2.49.09,7.74,7.74,0,0,1-2.58-.76,6.33,6.33,0,0,1-1.91-1.47,6.1,6.1,0,0,1-1.18-2.07A7.81,7.81,0,0,1,119.27,468.37Zm3.07,0.39a4.83,4.83,0,0,0,.21,1.43,4,4,0,0,0,.6,1.2,3.25,3.25,0,0,0,.94.87,3.15,3.15,0,0,0,1.26.42,2.61,2.61,0,0,0,2.17-.58,3.35,3.35,0,0,0,.84-2.59,4.41,4.41,0,0,0-.78-2.66,3.09,3.09,0,0,0-2.22-1.26,3.42,3.42,0,0,0-1.19,0,2,2,0,0,0-1,.51,2.61,2.61,0,0,0-.63,1A4.7,4.7,0,0,0,122.34,468.76Z"/><path class="cls-4" d="M132.5,464.28l4,0.48,0.34,1.56H137a3.84,3.84,0,0,1,1.51-1.11,4.5,4.5,0,0,1,2.36-.27,5.79,5.79,0,0,1,1.6.42,3.55,3.55,0,0,1,1.27.91,4.26,4.26,0,0,1,.84,1.53,7.35,7.35,0,0,1,.31,2.28v7.15l-3-.35v-6.53a3,3,0,0,0-.63-2.1,2.47,2.47,0,0,0-1.59-.81,2.42,2.42,0,0,0-1.55.31,2.09,2.09,0,0,0-1,1.12v7.45l-3-.36v-9l-1.65-.2v-2.53Z"/><path class="cls-4" d="M151,476.42a1.49,1.49,0,0,1,.51-1.22,1.72,1.72,0,0,1,1.33-.32,2.17,2.17,0,0,1,1.38.62,1.85,1.85,0,0,1,.51,1.33,1.52,1.52,0,0,1-.51,1.23,1.75,1.75,0,0,1-1.38.33,2.07,2.07,0,0,1-1.33-.63A1.89,1.89,0,0,1,151,476.42Z"/><path class="cls-4" d="M172,480.15a4.83,4.83,0,0,1-.43,2.12,3.67,3.67,0,0,1-1.17,1.41,4.31,4.31,0,0,1-1.77.72,8,8,0,0,1-2.24.06,9.28,9.28,0,0,1-1.55-.29,9.67,9.67,0,0,1-1.33-.47,8.36,8.36,0,0,1-1.07-.56,4.87,4.87,0,0,1-.74-0.55l1.15-2a9.55,9.55,0,0,0,1.32.84,5.23,5.23,0,0,0,1.94.54,3,3,0,0,0,2.21-.44,2.18,2.18,0,0,0,.76-1.83V479h-0.09a2.1,2.1,0,0,1-1.22.69,5.78,5.78,0,0,1-1.86.07,6.17,6.17,0,0,1-2-.56,5,5,0,0,1-1.62-1.22,5.42,5.42,0,0,1-1.07-1.9,8,8,0,0,1-.38-2.57,7.13,7.13,0,0,1,.45-2.64,4.48,4.48,0,0,1,3.22-2.82,7.36,7.36,0,0,1,2.54-.14q0.73,0.08,1.47.21t1.39,0.29q0.66,0.16,1.21.34a8.24,8.24,0,0,1,.92.36v11.09Zm-5.52-2.77a3,3,0,0,0,1.57-.23,1.73,1.73,0,0,0,1-1.08v-5.17a4,4,0,0,0-.91-0.31,8.56,8.56,0,0,0-1.11-.2,3.36,3.36,0,0,0-1.21.08,2.24,2.24,0,0,0-1,.55,2.74,2.74,0,0,0-.67,1.06,4.63,4.63,0,0,0-.24,1.6,5,5,0,0,0,.21,1.49,3.57,3.57,0,0,0,.57,1.14,2.88,2.88,0,0,0,.83.74A2.45,2.45,0,0,0,166.44,477.39Z"/><path class="cls-4" d="M174.46,477.87l2.85,0.28v-6.44l-2.85-.28V468.9l5.17,0.5L180,471h0.09a5.3,5.3,0,0,1,1.47-1.12,3.43,3.43,0,0,1,1.93-.32,2.91,2.91,0,0,1,2.17,1.21,5.92,5.92,0,0,1,.79,3.45l-2.69-.25a2.45,2.45,0,0,0-.24-1.23,0.94,0.94,0,0,0-.77-0.45,2.12,2.12,0,0,0-1.48.32,4,4,0,0,0-1,1v4.9l5,0.47v2.53c-4.33-.4-6.5-0.61-10.83-1v-2.53Z"/><path class="cls-4" d="M199.64,481.51a3.64,3.64,0,0,1-.77.47,6.82,6.82,0,0,1-1.1.4,8.07,8.07,0,0,1-1.39.25,8.79,8.79,0,0,1-1.61,0,8.21,8.21,0,0,1-2.63-.65,5.86,5.86,0,0,1-3.2-3.41,7.41,7.41,0,0,1-.43-2.58,6.44,6.44,0,0,1,.48-2.61,4.68,4.68,0,0,1,1.32-1.78,5,5,0,0,1,2-1,7.4,7.4,0,0,1,2.44-.16,7.89,7.89,0,0,1,1.81.39,5.49,5.49,0,0,1,1.71.94,4.82,4.82,0,0,1,1.28,1.62,5.39,5.39,0,0,1,.49,2.43,10.65,10.65,0,0,1-.23,2.12l-8.28-.73a2.82,2.82,0,0,0,.31,1.27,2.79,2.79,0,0,0,.76.89,3.63,3.63,0,0,0,1.08.57,5.6,5.6,0,0,0,1.3.26,6.53,6.53,0,0,0,2.27-.12,4.32,4.32,0,0,0,1.44-.66Zm-5-8.64a3.69,3.69,0,0,0-1.13.06,2.85,2.85,0,0,0-1,.4,2.31,2.31,0,0,0-.7.72,2.25,2.25,0,0,0-.32,1l5.66,0.5A2.51,2.51,0,0,0,194.67,472.86Z"/><path class="cls-4" d="M213.45,482.63a3.67,3.67,0,0,1-.77.48,6.88,6.88,0,0,1-1.1.41,8.1,8.1,0,0,1-1.39.26,8.8,8.8,0,0,1-1.61,0,8.17,8.17,0,0,1-2.63-.63,5.8,5.8,0,0,1-3.2-3.38,7.39,7.39,0,0,1-.43-2.58,6.46,6.46,0,0,1,.48-2.62,4.73,4.73,0,0,1,1.32-1.79,5,5,0,0,1,2-1,7.42,7.42,0,0,1,2.44-.18,7.86,7.86,0,0,1,1.81.38,5.44,5.44,0,0,1,1.71.93,4.77,4.77,0,0,1,1.28,1.61,5.37,5.37,0,0,1,.5,2.43,10.68,10.68,0,0,1-.23,2.12l-8.29-.66a2.81,2.81,0,0,0,.31,1.27,2.76,2.76,0,0,0,.76.89,3.6,3.6,0,0,0,1.08.56,5.59,5.59,0,0,0,1.3.25,6.54,6.54,0,0,0,2.27-.14,4.36,4.36,0,0,0,1.44-.67Zm-5-8.61a3.7,3.7,0,0,0-1.13.07,2.87,2.87,0,0,0-1,.4,2.33,2.33,0,0,0-.7.73,2.27,2.27,0,0,0-.32,1l5.66,0.46A2.49,2.49,0,0,0,208.48,474Z"/><path class="cls-4" d="M217.64,475.21l-2.28-.17V472.5l2.28,0.17v-2.62l3-.63v3.47l6,0.44v2.53l-6-.44v3.29a4.18,4.18,0,0,0,.67,2.61,2.49,2.49,0,0,0,1.86.93,3.89,3.89,0,0,0,1.13-.07,4,4,0,0,0,.91-0.31,4.69,4.69,0,0,0,.74-0.45l0.61-.46,1.38,2.17a4,4,0,0,1-1,.77,7.61,7.61,0,0,1-2.68.92,6.65,6.65,0,0,1-1.45.06,5.34,5.34,0,0,1-3.88-1.72,7.09,7.09,0,0,1-1.3-4.66v-3.29Z"/><path class="cls-4" d="M230.14,482.55l4.05,0.28v-6.44l-4.05-.28v-2.53l7,0.47v9l4.26,0.27v2.53c-4.52-.29-6.79-0.43-11.31-0.75v-2.53Zm3.5-11.86a1.51,1.51,0,0,1,.53-1.18,1.94,1.94,0,0,1,1.47-.41,2.4,2.4,0,0,1,1.54.61,1.68,1.68,0,0,1,.58,1.26,1.39,1.39,0,0,1-.58,1.17,2.25,2.25,0,0,1-1.54.37,2.27,2.27,0,0,1-1.47-.57A1.65,1.65,0,0,1,233.64,470.69Z"/><path class="cls-4" d="M242.88,474.42l4,0.25,0.35,1.54h0.09a4.19,4.19,0,0,1,1.52-1.2,4.65,4.65,0,0,1,2.37-.41,5.61,5.61,0,0,1,1.6.32,3.28,3.28,0,0,1,1.28.83,4,4,0,0,1,.84,1.48,7.15,7.15,0,0,1,.31,2.26v7.15l-3-.17v-6.53a2.88,2.88,0,0,0-.63-2.06,2.33,2.33,0,0,0-1.6-.71,2.53,2.53,0,0,0-1.55.4,2.28,2.28,0,0,0-1,1.17v7.45l-3-.18v-9l-1.66-.1v-2.53Z"/><path class="cls-4" d="M268.64,487.34a5,5,0,0,1-.43,2.14A4,4,0,0,1,267,491a4.58,4.58,0,0,1-1.78.81,8.15,8.15,0,0,1-2.25.17,9.12,9.12,0,0,1-1.56-.21,9.3,9.3,0,0,1-1.34-.4,7.9,7.9,0,0,1-1.07-.51,4.61,4.61,0,0,1-.74-0.51l1.15-2.05a9,9,0,0,0,1.32.77,5.06,5.06,0,0,0,1.95.44,3.13,3.13,0,0,0,2.21-.55,2.29,2.29,0,0,0,.76-1.87V486.3h-0.09a2.25,2.25,0,0,1-1.22.76,5.88,5.88,0,0,1-1.87.17,6,6,0,0,1-2-.45,4.7,4.7,0,0,1-1.62-1.13,5.06,5.06,0,0,1-1.07-1.84,7.81,7.81,0,0,1-.38-2.55,7.29,7.29,0,0,1,.45-2.67,4.82,4.82,0,0,1,3.23-3,7.49,7.49,0,0,1,2.55-.27q0.74,0,1.47.13c0.49,0.06,1,.14,1.39.22s0.84,0.18,1.21.28a7.93,7.93,0,0,1,.92.31v11.09Zm-5.53-2.48a3.08,3.08,0,0,0,1.58-.31,1.86,1.86,0,0,0,1-1.13v-5.17a3.84,3.84,0,0,0-.91-0.26,8.4,8.4,0,0,0-1.12-.14,3.42,3.42,0,0,0-1.21.14,2.4,2.4,0,0,0-1,.6,2.93,2.93,0,0,0-.67,1.09,4.73,4.73,0,0,0-.24,1.61,4.9,4.9,0,0,0,.21,1.48,3.37,3.37,0,0,0,.58,1.11,2.66,2.66,0,0,0,.83.7A2.35,2.35,0,0,0,263.11,484.86Z"/><path class="cls-4" d="M280.75,492.77a11.09,11.09,0,0,1-3.14-1.15,9.75,9.75,0,0,1-2.7-2.17,10.33,10.33,0,0,1-1.88-3.21,12.22,12.22,0,0,1-.7-4.31,11.7,11.7,0,0,1,.7-4.23,9.41,9.41,0,0,1,1.88-3.08,8.77,8.77,0,0,1,2.7-2,11.05,11.05,0,0,1,3.14-.95l0.55,2.48a9.29,9.29,0,0,0-1.83.58,6.3,6.3,0,0,0-1.95,1.32,7.26,7.26,0,0,0-1.56,2.34,9.11,9.11,0,0,0-.63,3.65,8.7,8.7,0,0,0,.67,3.59,8.38,8.38,0,0,0,1.63,2.45,7.62,7.62,0,0,0,2,1.49,8.23,8.23,0,0,0,1.71.68Z"/><path class="cls-4" d="M289.65,488.25v-7a5.56,5.56,0,0,0-.09-1.12,2.23,2.23,0,0,0-.24-0.68,0.78,0.78,0,0,0-.37-0.34,1.33,1.33,0,0,0-.45-0.1,1.14,1.14,0,0,0-.73.23,1.16,1.16,0,0,0-.45.63v8.33l-2.77-.11v-11.5l2.19,0.09,0.32,1.28h0.07a2.66,2.66,0,0,1,1-1.05,2.78,2.78,0,0,1,1.57-.37,3.14,3.14,0,0,1,1.45.42,2.05,2.05,0,0,1,.95,1.32,2.44,2.44,0,0,1,1.06-1.19,2.9,2.9,0,0,1,1.55-.37,3.46,3.46,0,0,1,1.12.21,2.06,2.06,0,0,1,.86.64,3.12,3.12,0,0,1,.56,1.2,7.86,7.86,0,0,1,.2,1.93v7.87l-2.77-.09v-7.36a2.42,2.42,0,0,0-.33-1.46,1.06,1.06,0,0,0-.82-0.44,1.25,1.25,0,0,0-.71.17,1,1,0,0,0-.42.62v8.39Z"/><path class="cls-4" d="M310.24,487.68a4,4,0,0,1-.77.52,7.25,7.25,0,0,1-1.11.47,8.42,8.42,0,0,1-1.4.33,8.93,8.93,0,0,1-1.61.09,8,8,0,0,1-2.64-.49,5.39,5.39,0,0,1-3.21-3.22,7.19,7.19,0,0,1-.43-2.55,6.62,6.62,0,0,1,.48-2.64,5.09,5.09,0,0,1,1.33-1.86,5.34,5.34,0,0,1,2-1.08,7.57,7.57,0,0,1,2.45-.31,7.68,7.68,0,0,1,1.81.28,5.13,5.13,0,0,1,1.72.84,4.43,4.43,0,0,1,1.28,1.54,5.19,5.19,0,0,1,.5,2.4,10.83,10.83,0,0,1-.23,2.13l-8.3-.24a2.72,2.72,0,0,0,.31,1.25,2.58,2.58,0,0,0,.76.85,3.41,3.41,0,0,0,1.08.5,5.47,5.47,0,0,0,1.3.19,6.67,6.67,0,0,0,2.27-.26,4.65,4.65,0,0,0,1.44-.74Zm-5-8.35a3.77,3.77,0,0,0-1.13.13,3.05,3.05,0,0,0-1,.45,2.51,2.51,0,0,0-.7.76,2.35,2.35,0,0,0-.32,1l5.67,0.17A2.35,2.35,0,0,0,305.26,479.34Z"/><path class="cls-4" d="M314.53,491.38a7.75,7.75,0,0,0,1.71-.57,7,7,0,0,0,2-1.36,7.65,7.65,0,0,0,1.63-2.35,8.38,8.38,0,0,0,.67-3.55,9.43,9.43,0,0,0-.63-3.69,8,8,0,0,0-1.56-2.44,6.93,6.93,0,0,0-1.95-1.45,9.88,9.88,0,0,0-1.83-.7l0.55-2.45a11.73,11.73,0,0,1,3.14,1.15,9.65,9.65,0,0,1,2.7,2.15,10.26,10.26,0,0,1,1.88,3.2,12.08,12.08,0,0,1,.7,4.28,11.83,11.83,0,0,1-.7,4.26,9.48,9.48,0,0,1-1.88,3.09,8.89,8.89,0,0,1-2.7,2,10.49,10.49,0,0,1-3.14.94Z"/><path class="cls-4" d="M424.17,472.53q1-.22,2.13-0.36t2.32-.19a15.16,15.16,0,0,1,2.41.11,5.85,5.85,0,0,1,2.18.7,4.3,4.3,0,0,1,1.58,1.57,5.23,5.23,0,0,1,.61,2.7,5.65,5.65,0,0,1-.53,2.54,5.28,5.28,0,0,1-1.41,1.78,6,6,0,0,1-2,1.07,8.73,8.73,0,0,1-2.32.4h-1.44l-0.38,0c0,2.22,0,3.33,0,5.54l-3.16.11C424.17,482.09,424.17,478.9,424.17,472.53Zm4.7,2.16q-0.46,0-.88.07c-0.28,0-.5.07-0.67,0.1,0,2.09,0,3.13,0,5.22l0.28,0,0.39,0h0.69a6.72,6.72,0,0,0,1.23-.16,3.17,3.17,0,0,0,1.09-.47,2.34,2.34,0,0,0,.77-0.89,3.21,3.21,0,0,0,.29-1.46,2.49,2.49,0,0,0-.28-1.24,2.14,2.14,0,0,0-.73-0.77,2.74,2.74,0,0,0-1-.38A6,6,0,0,0,428.88,474.69Z"/><path class="cls-4" d="M448.64,486.26a4.38,4.38,0,0,1-.77.58,7.88,7.88,0,0,1-1.11.55,8.9,8.9,0,0,1-1.39.43,9.11,9.11,0,0,1-1.61.21,7.7,7.7,0,0,1-2.64-.3,4.87,4.87,0,0,1-3.2-3,7.67,7.67,0,0,1,.06-5.2,5.63,5.63,0,0,1,1.33-2,5.87,5.87,0,0,1,2-1.22,7.84,7.84,0,0,1,2.44-.49,7.48,7.48,0,0,1,1.81.15,4.72,4.72,0,0,1,1.72.71,4,4,0,0,1,1.28,1.45,5,5,0,0,1,.5,2.37,11.09,11.09,0,0,1-.23,2.15l-8.3.37a2.58,2.58,0,0,0,.31,1.23,2.31,2.31,0,0,0,.76.79,3.15,3.15,0,0,0,1.08.42,5.34,5.34,0,0,0,1.3.09,6.88,6.88,0,0,0,2.27-.42,5.1,5.1,0,0,0,1.44-.85Zm-5-8a3.89,3.89,0,0,0-1.13.21,3.33,3.33,0,0,0-1,.52,2.79,2.79,0,0,0-.7.82,2.49,2.49,0,0,0-.32,1.07l5.67-.25A2.16,2.16,0,0,0,443.66,478.27Z"/><path class="cls-4" d="M451.06,484.83l2.86-.14v-6.44l-2.86.14v-2.53l5.19-.26,0.35,1.5h0.09a6.59,6.59,0,0,1,1.48-1.34,3.8,3.8,0,0,1,1.94-.61,2.48,2.48,0,0,1,2.18.89,5.35,5.35,0,0,1,.79,3.34l-2.7.15a2.24,2.24,0,0,0-.24-1.19,0.8,0.8,0,0,0-.77-0.34,2.39,2.39,0,0,0-1.49.54,5,5,0,0,0-1,1.11c0,2,0,2.94,0,4.9l5-.26c0,1,0,1.52,0,2.53-4.34.24-6.51,0.35-10.86,0.56v-2.53Z"/><path class="cls-4" d="M473.25,483a0.77,0.77,0,0,0-.56-0.7,7.79,7.79,0,0,0-1.39-.42l-1.82-.36a7.78,7.78,0,0,1-1.82-.56,4.2,4.2,0,0,1-1.39-1,2.38,2.38,0,0,1-.56-1.66,3,3,0,0,1,.38-1.52,3.74,3.74,0,0,1,1-1.15,5.19,5.19,0,0,1,1.57-.77,8.26,8.26,0,0,1,2-.35,10.73,10.73,0,0,1,2,0,9.29,9.29,0,0,1,1.49.3,5.14,5.14,0,0,1,1.08.45l0.77,0.47-1.27,2.12q-0.35-.19-0.8-0.38a9.91,9.91,0,0,0-.94-0.35,7.08,7.08,0,0,0-1-.24,5.09,5.09,0,0,0-1.07-.05,4.22,4.22,0,0,0-1.57.34,0.89,0.89,0,0,0-.6.82,0.71,0.71,0,0,0,.56.63,8.76,8.76,0,0,0,1.39.39l1.82,0.36a9.19,9.19,0,0,1,1.82.55,4,4,0,0,1,1.39,1,2.29,2.29,0,0,1,.56,1.62,3.52,3.52,0,0,1-1.28,2.83,6.36,6.36,0,0,1-3.79,1.23,8.79,8.79,0,0,1-3.42-.39,7.38,7.38,0,0,1-2.32-1.24l1.38-2.24a6.53,6.53,0,0,0,.79.52,6.79,6.79,0,0,0,1.12.5,9.08,9.08,0,0,0,1.32.35,5.76,5.76,0,0,0,1.39.09,3,3,0,0,0,1.27-.33A0.94,0.94,0,0,0,473.25,483Z"/><path class="cls-4" d="M478.62,480.07a7.29,7.29,0,0,1,.44-2.6,5.68,5.68,0,0,1,3.17-3.3,7.66,7.66,0,0,1,2.5-.57,7,7,0,0,1,2.59.26,4.9,4.9,0,0,1,1.92,1.1,4.72,4.72,0,0,1,1.19,1.84,7.1,7.1,0,0,1,.4,2.46,7.33,7.33,0,0,1-.44,2.61,5.7,5.7,0,0,1-3.17,3.31,7.59,7.59,0,0,1-2.5.57,7,7,0,0,1-2.59-.27,4.9,4.9,0,0,1-1.92-1.11,4.74,4.74,0,0,1-1.19-1.84A7.12,7.12,0,0,1,478.62,480.07Zm3.09-.2a4.43,4.43,0,0,0,.21,1.39,3.17,3.17,0,0,0,.6,1.09,2.45,2.45,0,0,0,.94.69,2.8,2.8,0,0,0,1.27.18,3.13,3.13,0,0,0,2.18-1,3.93,3.93,0,0,0,.84-2.75A3.76,3.76,0,0,0,487,477a2.53,2.53,0,0,0-2.23-.83,3.72,3.72,0,0,0-1.2.27,2.58,2.58,0,0,0-1,.7,3.37,3.37,0,0,0-.63,1.14A5.1,5.1,0,0,0,481.7,479.88Z"/><path class="cls-4" d="M491.91,473.44l4-.29,0.35,1.49h0.09a5.14,5.14,0,0,1,3.89-2.13,5.31,5.31,0,0,1,1.6.11,2.77,2.77,0,0,1,1.28.66,3.33,3.33,0,0,1,.84,1.37,6.77,6.77,0,0,1,.31,2.22c0,2.86,0,4.29,0,7.15l-3,.23c0-2.61,0-3.92,0-6.53a2.57,2.57,0,0,0-.63-2,2.05,2.05,0,0,0-1.6-.5,2.83,2.83,0,0,0-1.55.61,2.74,2.74,0,0,0-1,1.3c0,3,0,4.47,0,7.45l-3,.22c0-3.59,0-5.38,0-9l-1.66.12C491.91,475,491.91,474.45,491.91,473.44Z"/><path class="cls-4" d="M510.49,482a1.79,1.79,0,0,1,.51-1.32,2,2,0,0,1,1.33-.58,1.83,1.83,0,0,1,1.38.36,1.53,1.53,0,0,1,.51,1.24,1.84,1.84,0,0,1-.51,1.33,2.07,2.07,0,0,1-1.38.6,1.73,1.73,0,0,1-1.33-.38A1.57,1.57,0,0,1,510.49,482Z"/><path class="cls-4" d="M520.15,480.21L523,480v-6.44l-2.85.25v-2.53l5.18-.45,0.34,1.49h0.09a7,7,0,0,1,1.47-1.4,3.92,3.92,0,0,1,1.93-.68,2.39,2.39,0,0,1,2.17.81,5.23,5.23,0,0,1,.79,3.31l-2.69.24a2.19,2.19,0,0,0-.24-1.19,0.77,0.77,0,0,0-.77-0.31,2.47,2.47,0,0,0-1.48.59,5.31,5.31,0,0,0-1,1.14c0,2,0,2.94,0,4.9l5-.45c0,1,0,1.52,0,2.53-4.33.39-6.5,0.59-10.83,1v-2.53Z"/><path class="cls-4" d="M545.33,479.21a4.71,4.71,0,0,1-.77.62,8.36,8.36,0,0,1-1.1.6,9.39,9.39,0,0,1-3,.8,7.55,7.55,0,0,1-2.63-.16,4.53,4.53,0,0,1-3.2-2.82,6.78,6.78,0,0,1-.42-2.5,7.09,7.09,0,0,1,.48-2.7,6,6,0,0,1,1.32-2,6.28,6.28,0,0,1,2-1.32,8.06,8.06,0,0,1,2.44-.61,7.37,7.37,0,0,1,1.8.06,4.46,4.46,0,0,1,1.71.63,3.69,3.69,0,0,1,1.28,1.38,4.82,4.82,0,0,1,.49,2.34,11.3,11.3,0,0,1-.23,2.16l-8.28.8a2.49,2.49,0,0,0,.31,1.21,2.14,2.14,0,0,0,.76.76,3,3,0,0,0,1.08.37,5.27,5.27,0,0,0,1.3,0,7.07,7.07,0,0,0,2.26-.54,5.44,5.44,0,0,0,1.44-.92Zm-5-7.73a4,4,0,0,0-1.13.27,3.54,3.54,0,0,0-1,.57,3,3,0,0,0-.7.85,2.6,2.6,0,0,0-.32,1.08l5.66-.54A2,2,0,0,0,540.37,471.48Z"/><path class="cls-4" d="M559.4,477.88a7.49,7.49,0,0,1-2.21,1.3,10.21,10.21,0,0,1-2.64.63,7.21,7.21,0,0,1-2.65-.16,4.74,4.74,0,0,1-2-1,4.56,4.56,0,0,1-1.21-1.8,7.39,7.39,0,0,1,.07-5.07,6.24,6.24,0,0,1,1.34-2,6.66,6.66,0,0,1,2-1.39,8.36,8.36,0,0,1,2.55-.67,9.22,9.22,0,0,1,2.41,0,10.38,10.38,0,0,1,1.72.39v4l-2.53.27v-2.12a6.34,6.34,0,0,0-1.42,0,4.58,4.58,0,0,0-1.28.33,3.57,3.57,0,0,0-1.13.74,3.65,3.65,0,0,0-1.12,2.72,3.37,3.37,0,0,0,.25,1.33A2.73,2.73,0,0,0,553.5,477a3.94,3.94,0,0,0,1.51.11,5.73,5.73,0,0,0,2.15-.59,9.91,9.91,0,0,0,1.25-.78Z"/><path class="cls-4" d="M572.9,476.28a4.81,4.81,0,0,1-.77.63,8.51,8.51,0,0,1-1.1.62,9.48,9.48,0,0,1-3,.84,7.52,7.52,0,0,1-2.63-.12,4.43,4.43,0,0,1-3.19-2.77,6.74,6.74,0,0,1-.42-2.5,7.16,7.16,0,0,1,.48-2.71,6.17,6.17,0,0,1,1.32-2,6.4,6.4,0,0,1,2-1.35,8.13,8.13,0,0,1,2.43-.65,7.35,7.35,0,0,1,1.8,0,4.39,4.39,0,0,1,1.71.6,3.61,3.61,0,0,1,1.27,1.36,4.78,4.78,0,0,1,.49,2.34,11.37,11.37,0,0,1-.23,2.17l-8.27.92a2.47,2.47,0,0,0,.31,1.21,2.09,2.09,0,0,0,.76.74,2.94,2.94,0,0,0,1.08.35,5.26,5.26,0,0,0,1.3,0,7.13,7.13,0,0,0,2.26-.57,5.54,5.54,0,0,0,1.44-.94Zm-5-7.65a4,4,0,0,0-1.13.29,3.61,3.61,0,0,0-1,.59,3.07,3.07,0,0,0-.7.86,2.64,2.64,0,0,0-.32,1.09l5.65-.63a2.29,2.29,0,0,0-.63-1.74A2.31,2.31,0,0,0,567.94,468.62Z"/><path class="cls-4" d="M575.77,474.64l4-.47v-6.44l-4,.47v-2.53l7-.82v9l4.25-.51c0,1,0,1.52,0,2.53-4.51.55-6.76,0.81-11.27,1.33v-2.53Zm3.49-12.5a1.83,1.83,0,0,1,.53-1.28,2.29,2.29,0,0,1,1.47-.68,2.05,2.05,0,0,1,1.54.32,1.38,1.38,0,0,1,.57,1.15,1.69,1.69,0,0,1-.57,1.28,2.62,2.62,0,0,1-1.54.65,2,2,0,0,1-1.47-.3A1.37,1.37,0,0,1,579.26,462.13Z"/><path class="cls-4" d="M595.37,471.33l0.16,0L598.1,463l3.21-.41-4.38,12.06-3.19.4-4.93-10.89,3.46-.43Z"/><path class="cls-4" d="M614.19,471.12a5,5,0,0,1-.77.64,8.73,8.73,0,0,1-1.1.64,9.57,9.57,0,0,1-1.39.55,9.42,9.42,0,0,1-1.6.35,7.47,7.47,0,0,1-2.62-.07,4.29,4.29,0,0,1-3.19-2.7,6.67,6.67,0,0,1-.42-2.49,7.25,7.25,0,0,1,.48-2.72,6.36,6.36,0,0,1,1.32-2.07,6.59,6.59,0,0,1,2-1.4,8.24,8.24,0,0,1,2.43-.7,7.31,7.31,0,0,1,1.8,0,4.29,4.29,0,0,1,1.71.56,3.49,3.49,0,0,1,1.27,1.33,4.73,4.73,0,0,1,.49,2.32,11.47,11.47,0,0,1-.23,2.17l-8.25,1.11a2.43,2.43,0,0,0,.31,1.2,2,2,0,0,0,.76.73,2.87,2.87,0,0,0,1.08.33,5.24,5.24,0,0,0,1.3,0,7.22,7.22,0,0,0,2.26-.62,5.7,5.7,0,0,0,1.43-1Zm-4.95-7.54a4.08,4.08,0,0,0-1.12.31,3.71,3.71,0,0,0-1,.61,3.17,3.17,0,0,0-.7.88,2.69,2.69,0,0,0-.32,1.1l5.64-.75a2.24,2.24,0,0,0-.63-1.73A2.27,2.27,0,0,0,609.24,463.58Z"/><path class="cls-4" d="M616.59,469.48l2.84-.39v-6.44l-2.84.39v-2.53l5.15-.72,0.34,1.47h0.09a7.49,7.49,0,0,1,1.47-1.47,4.09,4.09,0,0,1,1.92-.78,2.27,2.27,0,0,1,2.16.7,5.06,5.06,0,0,1,.79,3.27l-2.68.38a2.13,2.13,0,0,0-.24-1.17,0.73,0.73,0,0,0-.77-0.27,2.59,2.59,0,0,0-1.48.67,5.72,5.72,0,0,0-1,1.19v4.9l5-.71v2.53c-4.31.62-6.47,0.92-10.79,1.51v-2.53Z"/><path class="cls-4" d="M639.85,473.54a9.49,9.49,0,0,1-3.11-.55,7.41,7.41,0,0,1-2.68-1.65,8,8,0,0,1-1.87-2.85,11.2,11.2,0,0,1-.7-4.18,12.91,12.91,0,0,1,.7-4.37,12.07,12.07,0,0,1,1.87-3.44,11.54,11.54,0,0,1,2.68-2.49,13.28,13.28,0,0,1,3.11-1.55l0.55,2.38a11.21,11.21,0,0,0-1.82.93,8.24,8.24,0,0,0-1.93,1.69,9.39,9.39,0,0,0-1.54,2.63,10.11,10.11,0,0,0-.63,3.77,7.87,7.87,0,0,0,.66,3.47,6.41,6.41,0,0,0,1.61,2.14,5.83,5.83,0,0,0,2,1.11,6.94,6.94,0,0,0,1.69.36Z"/><path class="cls-4" d="M645.92,470.11a9.23,9.23,0,0,0,1.69-.87,8.93,8.93,0,0,0,2-1.71,9.74,9.74,0,0,0,1.61-2.63,9.3,9.3,0,0,0,.66-3.67,8.68,8.68,0,0,0-.63-3.58,6.23,6.23,0,0,0-1.54-2.16,5.4,5.4,0,0,0-1.93-1.1,8.45,8.45,0,0,0-1.82-.38l0.55-2.55a10.08,10.08,0,0,1,3.11.6,7.47,7.47,0,0,1,2.67,1.68,8.13,8.13,0,0,1,1.86,2.87,11.17,11.17,0,0,1,.7,4.16,13,13,0,0,1-.7,4.39,11.92,11.92,0,0,1-1.86,3.42,11.42,11.42,0,0,1-2.67,2.46,12.34,12.34,0,0,1-3.11,1.49Z"/></svg>