<svg id="Layer_1" data-name="Layer 1" xmlns="http://www.w3.org/2000/svg" viewBox="0 0 720 576"><defs><style>.cls-1,.cls-2,.cls-4,.cls-6{fill:#231f20;}.cls-1,.cls-3{stroke:#231f20;}.cls-1,.cls-6{stroke-miterlimit:10;}.cls-1,.cls-2,.cls-3{stroke-width:2px;}.cls-2{stroke:#000;}.cls-2,.cls-3{stroke-linecap:round;stroke-linejoin:round;}.cls-3,.cls-5{fill:#fff;}.cls-6{stroke:#fff;}</style></defs><title>Hanoi_Tower_Set_Elixir_1_Final</title><path class="cls-1" d="M683,522.57c0-.14,0-0.29,0-0.43s0-.29,0-0.43V469.92H37.16s-0.25,51.74-.25,52.22c0,2.67,2.32,5.24,6.64,7.71,15.13,8.61,55.2,16.11,111,21.48S282,559.92,360,559.92c89.17,0,169.9-4.21,228.35-11,29.22-3.41,52.88-7.46,69.24-12,8.18-2.25,14.54-4.62,18.86-7.08,3.69-2.1,5.91-4.29,6.48-6.55H683v-0.73Z"/><ellipse class="cls-2" cx="360" cy="471" rx="322.89" ry="37.63"/><path class="cls-3" d="M683,471.09c0-.14,0-0.29,0-0.43s0-.29,0-0.43V418.44H37.16s-0.25,51.74-.25,52.22c0,2.67,2.32,5.24,6.64,7.71,15.13,8.61,55.2,16.11,111,21.48S282,508.44,360,508.44c89.17,0,169.9-4.21,228.35-11,29.22-3.41,52.88-7.46,69.24-12,8.18-2.25,14.54-4.62,18.86-7.08,3.69-2.1,5.91-4.29,6.48-6.55H683v-0.73Z"/><ellipse class="cls-3" cx="360" cy="419.52" rx="322.89" ry="37.63"/><path class="cls-4" d="M85.89,454.36q1,0,2.11,0t2.3,0.26a16.15,16.15,0,0,1,2.39.57,7,7,0,0,1,2.16,1.11,5.66,5.66,0,0,1,1.57,1.87A5.94,5.94,0,0,1,97,461a5.06,5.06,0,0,1-.53,2.44A4,4,0,0,1,95.1,465a4.79,4.79,0,0,1-2,.69,8.22,8.22,0,0,1-2.3,0l-0.37-.06-0.53-.09-0.54-.12-0.38-.1v5.54l-3.13-.49C85.89,463.92,85.89,460.74,85.89,454.36Zm4.66,3.06c-0.31,0-.6-0.08-0.87-0.1s-0.5,0-.66,0v5.22l0.27,0.09,0.39,0.1,0.4,0.07,0.29,0a6.52,6.52,0,0,0,1.22.08,2.65,2.65,0,0,0,1.09-.26,1.77,1.77,0,0,0,.77-0.74,2.89,2.89,0,0,0,.29-1.41,2.69,2.69,0,0,0-1-2.2,3.36,3.36,0,0,0-1-.57A6.41,6.41,0,0,0,90.55,457.42Z"/><path class="cls-4" d="M110.16,472.75a3.37,3.37,0,0,1-.77.43,6.4,6.4,0,0,1-1.1.34,7.77,7.77,0,0,1-1.38.17,8.74,8.74,0,0,1-1.6-.1,8.5,8.5,0,0,1-2.62-.8,6.35,6.35,0,0,1-3.18-3.59,7.66,7.66,0,0,1-.42-2.6,6.26,6.26,0,0,1,.48-2.58,4.31,4.31,0,0,1,1.32-1.7,4.6,4.6,0,0,1,2-.85,7.28,7.28,0,0,1,2.43,0,8.15,8.15,0,0,1,1.8.49,5.88,5.88,0,0,1,1.71,1,5.25,5.25,0,0,1,1.27,1.69,5.61,5.61,0,0,1,.49,2.46,10.51,10.51,0,0,1-.23,2.11L102.06,468a3,3,0,0,0,.31,1.29,3,3,0,0,0,.75.94,3.89,3.89,0,0,0,1.08.63,5.77,5.77,0,0,0,1.29.34,6.43,6.43,0,0,0,2.25,0,4,4,0,0,0,1.43-.57Zm-4.95-8.93a3.64,3.64,0,0,0-1.12,0,2.66,2.66,0,0,0-.95.34,2.11,2.11,0,0,0-.7.68,2.15,2.15,0,0,0-.32,1l5.63,0.83a2.89,2.89,0,0,0-.63-1.91A2.92,2.92,0,0,0,105.22,463.82Z"/><path class="cls-4" d="M112.56,471.78l2.84,0.4v-6.44l-2.84-.4v-2.53l5.15,0.73,0.34,1.57h0.09a5,5,0,0,1,1.47-1.06,3.35,3.35,0,0,1,1.92-.24,3,3,0,0,1,2.16,1.31,6.11,6.11,0,0,1,.79,3.49l-2.68-.37a2.52,2.52,0,0,0-.24-1.24,1,1,0,0,0-.77-0.49,2.06,2.06,0,0,0-1.48.26,3.78,3.78,0,0,0-1,.93v4.9l5,0.68v2.53c-4.32-.59-6.47-0.89-10.79-1.5v-2.53Z"/><path class="cls-4" d="M134.63,474.15a1,1,0,0,0-.56-0.81,9.47,9.47,0,0,0-1.39-.69l-1.81-.71a9.43,9.43,0,0,1-1.81-.91,5.49,5.49,0,0,1-1.39-1.27,2.81,2.81,0,0,1-.56-1.77,2.63,2.63,0,0,1,.38-1.44,2.82,2.82,0,0,1,1-1,4.24,4.24,0,0,1,1.56-.47,7.81,7.81,0,0,1,2,0,11.37,11.37,0,0,1,2,.42,10.8,10.8,0,0,1,1.48.58,6.42,6.42,0,0,1,1.08.66l0.77,0.62-1.26,1.88q-0.34-.25-0.79-0.53t-0.94-.52a8.34,8.34,0,0,0-1-.43,5.48,5.48,0,0,0-1.07-.25,3.88,3.88,0,0,0-1.56,0,0.71,0.71,0,0,0-.6.7,0.91,0.91,0,0,0,.56.74,10.47,10.47,0,0,0,1.39.65l1.81,0.71a11.08,11.08,0,0,1,1.81.89,5.25,5.25,0,0,1,1.39,1.23,2.71,2.71,0,0,1,.56,1.73,2.87,2.87,0,0,1-1.27,2.58,5.56,5.56,0,0,1-3.77.51,9.74,9.74,0,0,1-3.4-1,9.45,9.45,0,0,1-2.3-1.68l1.37-2a8.43,8.43,0,0,0,.79.67,8.6,8.6,0,0,0,1.11.71,10.78,10.78,0,0,0,1.32.6,6.21,6.21,0,0,0,1.39.35,2.73,2.73,0,0,0,1.26-.09A0.75,0.75,0,0,0,134.63,474.15Z"/><path class="cls-4" d="M140,472.25a6.66,6.66,0,0,1,.44-2.52,4.45,4.45,0,0,1,1.24-1.75,4.53,4.53,0,0,1,1.92-.95,7.05,7.05,0,0,1,2.49-.09,7.78,7.78,0,0,1,2.58.75,6.31,6.31,0,0,1,1.92,1.46,6,6,0,0,1,1.18,2.06,7.78,7.78,0,0,1,.4,2.53,6.69,6.69,0,0,1-.44,2.52,4.48,4.48,0,0,1-1.24,1.76,4.53,4.53,0,0,1-1.92,1,7,7,0,0,1-2.49.1,7.72,7.72,0,0,1-2.58-.76,6.32,6.32,0,0,1-1.92-1.47,6.09,6.09,0,0,1-1.18-2.07A7.8,7.8,0,0,1,140,472.25Zm3.07,0.39a4.84,4.84,0,0,0,.21,1.43,4,4,0,0,0,.6,1.2,3.23,3.23,0,0,0,.94.86,3.15,3.15,0,0,0,1.26.42,2.62,2.62,0,0,0,2.17-.59,3.35,3.35,0,0,0,.84-2.59,4.41,4.41,0,0,0-.78-2.66,3.08,3.08,0,0,0-2.23-1.25,3.42,3.42,0,0,0-1.19,0,2,2,0,0,0-1,.51,2.63,2.63,0,0,0-.63,1A4.72,4.72,0,0,0,143,472.64Z"/><path class="cls-4" d="M153.21,468.13l4,0.47,0.34,1.56h0.09a3.86,3.86,0,0,1,1.52-1.11,4.51,4.51,0,0,1,2.36-.28,5.78,5.78,0,0,1,1.6.41,3.54,3.54,0,0,1,1.27.9,4.25,4.25,0,0,1,.84,1.53,7.34,7.34,0,0,1,.31,2.28c0,2.86,0,4.29,0,7.15l-3-.34c0-2.61,0-3.92,0-6.53a3,3,0,0,0-.63-2.1,2.47,2.47,0,0,0-1.6-.8,2.43,2.43,0,0,0-1.55.32,2.1,2.1,0,0,0-1,1.12c0,3,0,4.47,0,7.45l-3-.35v-9l-1.65-.2v-2.53Z"/><path class="cls-4" d="M171.74,480.21a1.49,1.49,0,0,1,.51-1.22,1.72,1.72,0,0,1,1.33-.33,2.16,2.16,0,0,1,1.38.62,1.84,1.84,0,0,1,.51,1.33,1.53,1.53,0,0,1-.51,1.23,1.76,1.76,0,0,1-1.38.34,2.06,2.06,0,0,1-1.33-.63A1.88,1.88,0,0,1,171.74,480.21Z"/><path class="cls-4" d="M192.67,483.87a4.84,4.84,0,0,1-.42,2.12,3.69,3.69,0,0,1-1.17,1.42,4.33,4.33,0,0,1-1.77.73,8,8,0,0,1-2.24.07,9.31,9.31,0,0,1-1.55-.28,9.72,9.72,0,0,1-1.33-.47,8.33,8.33,0,0,1-1.07-.56,4.82,4.82,0,0,1-.74-0.55l1.15-2a9.49,9.49,0,0,0,1.32.83,5.21,5.21,0,0,0,1.94.53,3,3,0,0,0,2.21-.45,2.19,2.19,0,0,0,.76-1.83v-0.74h-0.09a2.12,2.12,0,0,1-1.22.7,5.79,5.79,0,0,1-1.86.08,6.15,6.15,0,0,1-2-.55,5,5,0,0,1-1.62-1.21,5.4,5.4,0,0,1-1.07-1.89,8,8,0,0,1-.38-2.57,7.14,7.14,0,0,1,.45-2.65,4.51,4.51,0,0,1,3.22-2.84,7.36,7.36,0,0,1,2.54-.15q0.73,0.07,1.47.2t1.39,0.29q0.65,0.16,1.21.34a8.18,8.18,0,0,1,.92.35C192.67,477.21,192.67,479.43,192.67,483.87Zm-5.52-2.75a3,3,0,0,0,1.57-.24,1.74,1.74,0,0,0,1-1.08v-5.17a4,4,0,0,0-.91-0.31,8.52,8.52,0,0,0-1.11-.19,3.36,3.36,0,0,0-1.21.09,2.25,2.25,0,0,0-1,.56,2.75,2.75,0,0,0-.67,1.06,4.64,4.64,0,0,0-.24,1.6,5,5,0,0,0,.21,1.49,3.57,3.57,0,0,0,.57,1.14,2.85,2.85,0,0,0,.83.74A2.43,2.43,0,0,0,187.16,481.12Z"/><path class="cls-4" d="M195.18,481.57l2.85,0.27V475.4l-2.85-.27c0-1,0-1.52,0-2.53l5.17,0.48,0.35,1.55h0.09a5.33,5.33,0,0,1,1.47-1.13,3.44,3.44,0,0,1,1.93-.33,2.89,2.89,0,0,1,2.17,1.2,5.9,5.9,0,0,1,.79,3.45l-2.69-.24a2.44,2.44,0,0,0-.24-1.23,0.94,0.94,0,0,0-.77-0.45,2.13,2.13,0,0,0-1.48.33,4.07,4.07,0,0,0-1,1v4.9l5,0.45v2.53c-4.33-.38-6.5-0.58-10.83-1C195.18,483.09,195.18,482.59,195.18,481.57Z"/><path class="cls-4" d="M220.37,485.08a3.69,3.69,0,0,1-.77.48,6.85,6.85,0,0,1-1.11.41,8.08,8.08,0,0,1-1.39.25,8.79,8.79,0,0,1-1.61,0,8.18,8.18,0,0,1-2.63-.63,5.81,5.81,0,0,1-3.2-3.39,7.4,7.4,0,0,1-.43-2.58,6.45,6.45,0,0,1,.48-2.61,4.72,4.72,0,0,1,1.32-1.78,5,5,0,0,1,2-1,7.42,7.42,0,0,1,2.44-.18,7.87,7.87,0,0,1,1.81.38,5.44,5.44,0,0,1,1.71.93,4.79,4.79,0,0,1,1.28,1.61,5.38,5.38,0,0,1,.49,2.43,10.67,10.67,0,0,1-.23,2.12l-8.28-.68a2.82,2.82,0,0,0,.31,1.27,2.77,2.77,0,0,0,.76.89,3.61,3.61,0,0,0,1.08.56,5.6,5.6,0,0,0,1.3.26,6.54,6.54,0,0,0,2.27-.14,4.35,4.35,0,0,0,1.44-.67Zm-5-8.62a3.7,3.7,0,0,0-1.13.07,2.86,2.86,0,0,0-1,.4,2.33,2.33,0,0,0-.7.73,2.26,2.26,0,0,0-.32,1l5.66,0.47A2.5,2.5,0,0,0,215.4,476.47Z"/><path class="cls-4" d="M234.18,486.13a3.73,3.73,0,0,1-.77.48,6.89,6.89,0,0,1-1.11.41,8.17,8.17,0,0,1-1.39.26,8.84,8.84,0,0,1-1.61,0,8.14,8.14,0,0,1-2.64-.61,5.75,5.75,0,0,1-3.2-3.36,7.36,7.36,0,0,1-.43-2.57,6.47,6.47,0,0,1,.48-2.62,4.77,4.77,0,0,1,1.32-1.79,5,5,0,0,1,2-1,7.44,7.44,0,0,1,2.44-.2,7.84,7.84,0,0,1,1.81.36,5.4,5.4,0,0,1,1.72.92,4.74,4.74,0,0,1,1.28,1.6,5.35,5.35,0,0,1,.49,2.43,10.69,10.69,0,0,1-.23,2.12L226,482a2.81,2.81,0,0,0,.31,1.27,2.74,2.74,0,0,0,.76.89,3.58,3.58,0,0,0,1.08.55,5.58,5.58,0,0,0,1.3.25,6.56,6.56,0,0,0,2.27-.15,4.39,4.39,0,0,0,1.44-.68Zm-5-8.58a3.71,3.71,0,0,0-1.13.08,2.89,2.89,0,0,0-1,.41,2.35,2.35,0,0,0-.7.73,2.27,2.27,0,0,0-.32,1l5.66,0.42A2.47,2.47,0,0,0,229.21,477.56Z"/><path class="cls-4" d="M238.37,478.68l-2.28-.16c0-1,0-1.52,0-2.53l2.28,0.16c0-1,0-1.57,0-2.62l3-.64c0,1.39,0,2.08,0,3.47l6,0.4c0,1,0,1.52,0,2.53l-6-.4v3.29a4.16,4.16,0,0,0,.67,2.61,2.48,2.48,0,0,0,1.86.92,3.9,3.9,0,0,0,1.13-.07,4,4,0,0,0,.91-0.32,4.76,4.76,0,0,0,.74-0.46l0.61-.47,1.38,2.16a4.06,4.06,0,0,1-1,.78,7.72,7.72,0,0,1-1.27.59,7.61,7.61,0,0,1-1.42.36,6.67,6.67,0,0,1-1.45.07,5.31,5.31,0,0,1-3.88-1.7,7,7,0,0,1-1.3-4.66v-3.29Z"/><path class="cls-4" d="M250.88,485.94l4.05,0.25v-6.44l-4.05-.25V477l7.05,0.43c0,3.59,0,5.38,0,9l4.26,0.24v2.53c-4.53-.25-6.79-0.39-11.31-0.67v-2.53Zm3.5-11.88a1.53,1.53,0,0,1,.53-1.19,2,2,0,0,1,1.47-.42,2.38,2.38,0,0,1,1.54.6,1.66,1.66,0,0,1,.58,1.25,1.4,1.4,0,0,1-.58,1.17,2.66,2.66,0,0,1-3-.18A1.64,1.64,0,0,1,254.38,474.06Z"/><path class="cls-4" d="M263.62,477.72l4,0.22,0.35,1.54h0.09a4.24,4.24,0,0,1,1.52-1.21,4.67,4.67,0,0,1,2.37-.43,5.58,5.58,0,0,1,1.6.31,3.25,3.25,0,0,1,1.28.82,3.91,3.91,0,0,1,.84,1.48,7.12,7.12,0,0,1,.31,2.26v7.15l-3-.15c0-2.61,0-3.92,0-6.53a2.86,2.86,0,0,0-.63-2.06,2.31,2.31,0,0,0-1.6-.7,2.54,2.54,0,0,0-1.56.41,2.3,2.3,0,0,0-1,1.18v7.45l-3-.16c0-3.59,0-5.38,0-9l-1.66-.09v-2.53Z"/><path class="cls-4" d="M289.4,490.45a5,5,0,0,1-.43,2.14,4,4,0,0,1-1.18,1.48,4.63,4.63,0,0,1-1.78.82,8.17,8.17,0,0,1-2.25.19,9.09,9.09,0,0,1-1.56-.2,9.24,9.24,0,0,1-1.34-.39,7.84,7.84,0,0,1-1.07-.5,4.56,4.56,0,0,1-.74-0.51l1.15-2.06a8.88,8.88,0,0,0,1.33.76,5,5,0,0,0,1.95.42,3.15,3.15,0,0,0,2.21-.57,2.31,2.31,0,0,0,.76-1.88v-0.74h-0.09a2.28,2.28,0,0,1-1.22.77,5.89,5.89,0,0,1-1.87.18,6,6,0,0,1-2-.44,4.65,4.65,0,0,1-1.62-1.12,5,5,0,0,1-1.07-1.83,7.78,7.78,0,0,1-.38-2.55,7.32,7.32,0,0,1,.45-2.67,4.87,4.87,0,0,1,3.23-3,7.52,7.52,0,0,1,2.55-.29q0.74,0,1.48.12c0.49,0.06,1,.13,1.4.21s0.84,0.17,1.21.27a7.9,7.9,0,0,1,.92.3C289.39,483.8,289.39,486,289.4,490.45ZM283.86,488a3.1,3.1,0,0,0,1.58-.32,1.89,1.89,0,0,0,1-1.13v-5.17a3.81,3.81,0,0,0-.91-0.26,8.37,8.37,0,0,0-1.12-.13,3.44,3.44,0,0,0-1.21.15,2.43,2.43,0,0,0-1,.61,3,3,0,0,0-.67,1.1,4.75,4.75,0,0,0-.24,1.61,4.89,4.89,0,0,0,.21,1.48,3.34,3.34,0,0,0,.58,1.11,2.63,2.63,0,0,0,.83.69A2.34,2.34,0,0,0,283.86,488Z"/><path class="cls-4" d="M301.5,495.77a11,11,0,0,1-3.14-1.12,9.63,9.63,0,0,1-2.7-2.14,10.22,10.22,0,0,1-1.88-3.2,12.17,12.17,0,0,1-.7-4.31,11.75,11.75,0,0,1,.7-4.24,9.52,9.52,0,0,1,1.88-3.09,8.88,8.88,0,0,1,2.7-2,11.14,11.14,0,0,1,3.14-1l0.55,2.48a9.36,9.36,0,0,0-1.83.59,6.38,6.38,0,0,0-1.95,1.33,7.35,7.35,0,0,0-1.56,2.35,9.15,9.15,0,0,0-.63,3.66,8.66,8.66,0,0,0,.67,3.59,8.28,8.28,0,0,0,1.63,2.44,7.53,7.53,0,0,0,2,1.47,8.15,8.15,0,0,0,1.71.67Z"/><path class="cls-4" d="M310.4,491.17c0-2.82,0-4.22,0-7a5.55,5.55,0,0,0-.09-1.12,2.21,2.21,0,0,0-.24-0.67,0.77,0.77,0,0,0-.37-0.33,1.32,1.32,0,0,0-.45-0.09,1.15,1.15,0,0,0-.73.23,1.18,1.18,0,0,0-.45.63c0,3.33,0,5,0,8.33l-2.77-.08c0-4.6,0-6.9,0-11.5l2.19,0.07,0.32,1.27h0.07a2.7,2.7,0,0,1,1-1.06,2.8,2.8,0,0,1,1.57-.38,3.12,3.12,0,0,1,1.45.41,2,2,0,0,1,.95,1.31,2.47,2.47,0,0,1,1.06-1.2,2.92,2.92,0,0,1,1.55-.39,3.44,3.44,0,0,1,1.12.2,2,2,0,0,1,.86.63,3.08,3.08,0,0,1,.57,1.2,7.84,7.84,0,0,1,.2,1.92c0,3.15,0,4.72,0,7.87l-2.77-.07c0-2.94,0-4.42,0-7.36a2.4,2.4,0,0,0-.33-1.46,1,1,0,0,0-.82-0.44,1.26,1.26,0,0,0-.71.18,1,1,0,0,0-.42.62c0,3.36,0,5,0,8.39Z"/><path class="cls-4" d="M331,490.41a4,4,0,0,1-.77.53,7.33,7.33,0,0,1-1.11.48,8.47,8.47,0,0,1-1.4.34,9,9,0,0,1-1.61.11,7.92,7.92,0,0,1-2.64-.47,5.32,5.32,0,0,1-3.21-3.19,7.16,7.16,0,0,1-.43-2.55,6.66,6.66,0,0,1,.48-2.65,5.16,5.16,0,0,1,1.33-1.87,5.41,5.41,0,0,1,2-1.1,7.71,7.71,0,0,1,4.26-.07,5.07,5.07,0,0,1,1.72.82,4.37,4.37,0,0,1,1.28,1.53,5.16,5.16,0,0,1,.5,2.4,10.87,10.87,0,0,1-.23,2.14l-8.3-.16a2.7,2.7,0,0,0,.31,1.25,2.54,2.54,0,0,0,.76.84,3.39,3.39,0,0,0,1.08.49,5.48,5.48,0,0,0,1.3.18,6.69,6.69,0,0,0,2.27-.28,4.7,4.7,0,0,0,1.44-.76Zm-5-8.3a3.79,3.79,0,0,0-1.13.14,3.09,3.09,0,0,0-1,.46,2.54,2.54,0,0,0-.7.77,2.36,2.36,0,0,0-.32,1l5.67,0.11A2.32,2.32,0,0,0,326,482.11Z"/><path class="cls-4" d="M335.29,494.07a7.83,7.83,0,0,0,1.71-.59,7.08,7.08,0,0,0,2-1.38,7.76,7.76,0,0,0,1.63-2.36,8.43,8.43,0,0,0,.67-3.56,9.38,9.38,0,0,0-.63-3.69,7.84,7.84,0,0,0-1.56-2.42,6.83,6.83,0,0,0-1.95-1.43,9.79,9.79,0,0,0-1.83-.68l0.55-2.45a11.62,11.62,0,0,1,3.14,1.12,9.51,9.51,0,0,1,2.7,2.12,10.13,10.13,0,0,1,1.88,3.18,12,12,0,0,1,.7,4.27,11.89,11.89,0,0,1-.7,4.27,9.61,9.61,0,0,1-1.88,3.11,9,9,0,0,1-2.7,2,10.57,10.57,0,0,1-3.14,1Z"/><path class="cls-4" d="M472.14,485.48l4.08-.27c0-4.2,0-6.29,0-10.49l-4.08.27c0-1.12,0-1.68,0-2.81,4.53-.29,6.8-0.44,11.33-0.76,0,1.12,0,1.68,0,2.81l-4.1.28c0,4.2,0,6.29,0,10.49l4.1-.28c0,1.12,0,1.68,0,2.81-4.53.32-6.8,0.47-11.33,0.76C472.14,487.16,472.14,486.6,472.14,485.48Z"/><path class="cls-4" d="M485.54,479.32a15.7,15.7,0,0,1,.37-3.55,8.05,8.05,0,0,1,1.13-2.71,5.73,5.73,0,0,1,1.9-1.78,6.21,6.21,0,0,1,2.68-.78,5.63,5.63,0,0,1,2.81.41,4.58,4.58,0,0,1,1.88,1.58,7.17,7.17,0,0,1,1.06,2.56,15.65,15.65,0,0,1,.33,3.35,11.45,11.45,0,0,1-1.51,6.27,5.61,5.61,0,0,1-4.57,2.57,5.67,5.67,0,0,1-2.82-.41,4.58,4.58,0,0,1-1.89-1.59,7,7,0,0,1-1-2.57A16.18,16.18,0,0,1,485.54,479.32Zm3.32-.24a21.44,21.44,0,0,0,.1,2.18,6.52,6.52,0,0,0,.39,1.73,2.48,2.48,0,0,0,.83,1.12,2.1,2.1,0,0,0,1.44.33,2.39,2.39,0,0,0,2.19-1.52,6.09,6.09,0,0,0,.45-1.77,21.25,21.25,0,0,0,.13-2.48q0-1.13-.08-2.13a6.17,6.17,0,0,0-.37-1.74,2.52,2.52,0,0,0-.84-1.14,2.15,2.15,0,0,0-1.47-.34,2.36,2.36,0,0,0-2.19,1.57A11.89,11.89,0,0,0,488.86,479.08Z"/><path class="cls-4" d="M503.56,484.46a1.8,1.8,0,0,1,.51-1.32,2,2,0,0,1,1.33-.58,1.82,1.82,0,0,1,1.38.36,1.53,1.53,0,0,1,.51,1.23,1.84,1.84,0,0,1-.51,1.33,2.08,2.08,0,0,1-1.38.6,1.73,1.73,0,0,1-1.33-.37A1.56,1.56,0,0,1,503.56,484.46Z"/><path class="cls-4" d="M512.33,473.74l3.91-.35,0.34,1.35h0.09a4.86,4.86,0,0,1,3.86-2.05,5.29,5.29,0,0,1,1.94.15,3.36,3.36,0,0,1,1.52.9,4.38,4.38,0,0,1,1,1.7,8.29,8.29,0,0,1,.34,2.57,8.8,8.8,0,0,1-.39,2.69,6.34,6.34,0,0,1-1.13,2.12,5.5,5.5,0,0,1-1.79,1.43,6.64,6.64,0,0,1-2.41.66,9.39,9.39,0,0,1-1.4,0,3.63,3.63,0,0,1-1.15-.23c0,1.89,0,2.83,0,4.71l-3,.27c0-5.43,0-8.14,0-13.57l-1.72.15C512.33,475.26,512.33,474.75,512.33,473.74Zm7.32,1.55a3.28,3.28,0,0,0-1.6.58,2.57,2.57,0,0,0-1,1.4c0,1.91,0,2.87,0,4.78a2.24,2.24,0,0,0,.93.32,5,5,0,0,0,1.23,0,3.4,3.4,0,0,0,1.2-.33,2.79,2.79,0,0,0,1-.79A3.81,3.81,0,0,0,522,480a6.21,6.21,0,0,0,.23-1.79,3.15,3.15,0,0,0-.74-2.28A2.18,2.18,0,0,0,519.65,475.29Z"/><path class="cls-4" d="M533.72,471.74l4.28-.43c0,3.2,0,4.8,0,8v1l1.75-.18v2.53l-3.63.37-0.53-1.65h-0.09A4.7,4.7,0,0,1,533.9,483a5.22,5.22,0,0,1-2.35.81,5.1,5.1,0,0,1-1.6-.07,2.55,2.55,0,0,1-1.23-.64,3.12,3.12,0,0,1-.78-1.35,7.5,7.5,0,0,1-.28-2.23c0-1.85,0-2.77,0-4.62l-1.31.13v-2.53l4.3-.42c0,2.61,0,3.92,0,6.53a3.31,3.31,0,0,0,.45,2,1.48,1.48,0,0,0,1.41.48,2.74,2.74,0,0,0,1.53-.66,3.13,3.13,0,0,0,1-1.34v-4.9l-1.29.13C533.72,473.26,533.72,472.75,533.72,471.74Z"/><path class="cls-4" d="M542.59,473.36l-2.28.24c0-1,0-1.52,0-2.53l2.28-.24c0-1,0-1.57,0-2.62l3-1.17c0,1.39,0,2.08,0,3.47l6-.65v2.53l-6,.65c0,1.32,0,2,0,3.29a3.66,3.66,0,0,0,.67,2.49,2.08,2.08,0,0,0,1.86.59,4.2,4.2,0,0,0,1.13-.27,4.81,4.81,0,0,0,.91-0.48,6.07,6.07,0,0,0,.74-0.59l0.61-.57,1.38,1.92a5.21,5.21,0,0,1-1,.95,9.6,9.6,0,0,1-1.26.81,8.86,8.86,0,0,1-1.41.6,7.07,7.07,0,0,1-1.45.32,4.52,4.52,0,0,1-3.87-1q-1.3-1.3-1.3-4.43v-3.29Z"/><path class="cls-4" d="M562.93,476.91a0.72,0.72,0,0,0-.56-0.67,7.41,7.41,0,0,0-1.39-.34l-1.81-.26a7.4,7.4,0,0,1-1.81-.46,3.87,3.87,0,0,1-1.39-.92,2.27,2.27,0,0,1-.56-1.63,3.12,3.12,0,0,1,.38-1.54,4.05,4.05,0,0,1,1-1.21,5.53,5.53,0,0,1,1.56-.86,8.47,8.47,0,0,1,2-.46,10.67,10.67,0,0,1,2-.07,9,9,0,0,1,1.48.22,4.82,4.82,0,0,1,1.08.39l0.77,0.43-1.26,2.2q-0.35-.17-0.79-0.33a9.37,9.37,0,0,0-.94-0.29,6.83,6.83,0,0,0-1-.18,5,5,0,0,0-1.07,0,4.36,4.36,0,0,0-1.56.43,1,1,0,0,0-.6.85,0.66,0.66,0,0,0,.56.6,8.38,8.38,0,0,0,1.39.31l1.81,0.26a8.74,8.74,0,0,1,1.81.44,3.7,3.7,0,0,1,1.39.88,2.18,2.18,0,0,1,.56,1.59,3.74,3.74,0,0,1-1.27,2.9,6.66,6.66,0,0,1-3.78,1.44,8.6,8.6,0,0,1-3.41-.2,6.86,6.86,0,0,1-2.31-1.11l1.38-2.32a6,6,0,0,0,.79.47,6.36,6.36,0,0,0,1.11.44,8.68,8.68,0,0,0,1.32.27,5.67,5.67,0,0,0,1.39,0,3.14,3.14,0,0,0,1.26-.4A1,1,0,0,0,562.93,476.91Z"/><path class="cls-4" d="M577.92,483.15a9.66,9.66,0,0,1-3.12-.62,7.68,7.68,0,0,1-2.68-1.72,8.29,8.29,0,0,1-1.87-2.9,11.31,11.31,0,0,1-.7-4.19,12.73,12.73,0,0,1,.7-4.35,11.7,11.7,0,0,1,1.87-3.39,11.14,11.14,0,0,1,2.68-2.42,13,13,0,0,1,3.12-1.47l0.55,2.39a10.93,10.93,0,0,0-1.82.88,8,8,0,0,0-1.94,1.64,9.1,9.1,0,0,0-1.55,2.59,10,10,0,0,0-.63,3.76,8,8,0,0,0,.67,3.48,6.64,6.64,0,0,0,1.62,2.18,6,6,0,0,0,2,1.16,7.08,7.08,0,0,0,1.7.4Z"/><path class="cls-4" d="M584.25,461.36l2.61-.34L586,468.4l-1.79.23C584.25,465.73,584.25,464.27,584.25,461.36Zm5-.65,2.61-.35L591,467.75l-1.79.24C589.2,465.08,589.2,463.63,589.2,460.72Z"/><path class="cls-4" d="M593.83,474.68a1.9,1.9,0,0,1,.5-1.35,2.15,2.15,0,0,1,1.33-.65A1.75,1.75,0,0,1,597,473a1.46,1.46,0,0,1,.5,1.21,1.94,1.94,0,0,1-.5,1.36,2.19,2.19,0,0,1-1.37.67,1.65,1.65,0,0,1-1.33-.3A1.49,1.49,0,0,1,593.83,474.68Zm6.19-.84a1.9,1.9,0,0,1,.5-1.35,2.16,2.16,0,0,1,1.33-.66,1.74,1.74,0,0,1,1.37.28,1.45,1.45,0,0,1,.5,1.21,1.94,1.94,0,0,1-.5,1.36,2.19,2.19,0,0,1-1.37.68,1.65,1.65,0,0,1-1.33-.3A1.48,1.48,0,0,1,600,473.84Zm6.23-.87a1.91,1.91,0,0,1,.5-1.35,2.17,2.17,0,0,1,1.33-.66,1.74,1.74,0,0,1,1.37.27,1.45,1.45,0,0,1,.5,1.2,2,2,0,0,1-.5,1.36,2.2,2.2,0,0,1-1.37.68,1.64,1.64,0,0,1-1.33-.29A1.48,1.48,0,0,1,606.24,473Z"/><path class="cls-4" d="M611.74,457.6l2.61-.38-0.82,7.39-1.79.26C611.74,462,611.74,460.5,611.74,457.6Zm4.94-.72,2.61-.39-0.82,7.39-1.78.27C616.68,461.23,616.68,459.78,616.68,456.87Z"/><path class="cls-4" d="M625.22,474.06a9.22,9.22,0,0,0,1.69-.87,8.92,8.92,0,0,0,2-1.71,9.73,9.73,0,0,0,1.61-2.63,9.3,9.3,0,0,0,.66-3.67,8.68,8.68,0,0,0-.63-3.58,6.23,6.23,0,0,0-1.54-2.16,5.4,5.4,0,0,0-1.93-1.1,8.45,8.45,0,0,0-1.82-.38l0.55-2.55a10.09,10.09,0,0,1,3.11.6,7.47,7.47,0,0,1,2.67,1.68,8.13,8.13,0,0,1,1.86,2.87,11.17,11.17,0,0,1,.7,4.16,13,13,0,0,1-.7,4.39,11.93,11.93,0,0,1-1.86,3.42,11.41,11.41,0,0,1-2.67,2.46,12.33,12.33,0,0,1-3.11,1.49Z"/><path class="cls-4" d="M360,428.3c-16,0-29-3.75-30.2-8.61h-0.08l0-.5V24.35h60.63V419.69H390.2C389,424.55,376,428.3,360,428.3Z"/><path class="cls-5" d="M389.82,24.85V419.19h0c-0.49,4.78-13.63,8.61-29.79,8.61s-29.3-3.83-29.79-8.61h0V419s0,0,0-.06,0,0,0-.06v-394h59.63m1-1H329.19v395s0,0.07,0,.11v1.27h0.23c2,5.6,16.84,8.61,30.58,8.61s28.6-3,30.58-8.61h0.21l0-1V23.85h0Z"/><ellipse class="cls-6" cx="360" cy="24.97" rx="29.81" ry="8.89"/></svg>