<svg id="Layer_1" data-name="Layer 1" xmlns="http://www.w3.org/2000/svg" viewBox="0 0 720 576"><defs><style>.cls-1,.cls-2,.cls-4,.cls-6{fill:#231f20;}.cls-1,.cls-3{stroke:#231f20;}.cls-1,.cls-6{stroke-miterlimit:10;}.cls-1,.cls-2,.cls-3{stroke-width:2px;}.cls-2{stroke:#000;}.cls-2,.cls-3{stroke-linecap:round;stroke-linejoin:round;}.cls-3,.cls-5{fill:#fff;}.cls-6{stroke:#fff;}</style></defs><title>Hanoi_Tower_Set_Elixir_4</title><path class="cls-1" d="M656,522.57c0-.14,0-0.29,0-0.43s0-.29,0-0.43V469.92H64.18s-0.23,51.74-.23,52.22c0,2.67,2.12,5.24,6.08,7.71,13.87,8.61,50.58,16.11,101.74,21.48S288.5,559.92,360,559.92c81.71,0,155.68-4.21,209.24-11,26.78-3.41,48.45-7.46,63.44-12,7.5-2.25,13.32-4.62,17.29-7.08,3.38-2.1,5.41-4.29,5.94-6.55H656v-0.73Z"/><ellipse class="cls-2" cx="360" cy="471" rx="295.87" ry="37.63"/><path class="cls-3" d="M656,471.09c0-.14,0-0.29,0-0.43s0-.29,0-0.43V418.44H64.18s-0.23,51.74-.23,52.22c0,2.67,2.12,5.24,6.08,7.71,13.87,8.61,50.58,16.11,101.74,21.48S288.5,508.44,360,508.44c81.71,0,155.68-4.21,209.24-11,26.78-3.41,48.45-7.46,63.44-12,7.5-2.25,13.32-4.62,17.29-7.08,3.38-2.1,5.41-4.29,5.94-6.55H656v-0.73Z"/><ellipse class="cls-3" cx="360" cy="419.52" rx="295.87" ry="37.63"/><path class="cls-3" d="M656,419.61c0-.14,0-0.29,0-0.43s0-.29,0-0.43V367H64.18s-0.23,51.74-.23,52.22c0,2.67,2.12,5.24,6.08,7.71C83.9,435.5,120.62,443,171.78,448.37S288.5,457,360,457c81.71,0,155.68-4.21,209.24-11,26.78-3.41,48.45-7.46,63.44-12,7.5-2.25,13.32-4.62,17.29-7.08,3.38-2.1,5.41-4.29,5.94-6.55H656v-0.73Z"/><ellipse class="cls-3" cx="360" cy="368.05" rx="295.87" ry="37.63"/><path class="cls-4" d="M360,376.3c-16,0-29-3.75-30.2-8.61h-0.08l0-.5V24.35h60.63V367.69H390.2C389,372.55,376,376.3,360,376.3Z"/><path class="cls-5" d="M389.82,24.85V367.19h0c-0.49,4.78-13.63,8.61-29.79,8.61s-29.3-3.83-29.79-8.61h0V367s0,0,0-.06,0,0,0-.06v-342h59.63m1-1H329.19v343s0,0.07,0,.11v1.27h0.23c2,5.6,16.84,8.61,30.58,8.61s28.6-3,30.58-8.61h0.21l0-1V23.85h0Z"/><ellipse class="cls-6" cx="359.99" cy="24.97" rx="29.81" ry="8.89"/><path class="cls-4" d="M83.55,458.31l0.09-1.89-0.1,0-1.95,2.87-0.42-.07-2-3.55-0.09,0,0.1,1.73v6.72l-2.26-.39V451.44l2.41,0.42,2.08,3.75h0.07l2.07-3,2.4,0.41v12.25l-2.38-.4v-6.53Z"/><path class="cls-4" d="M88.19,457.46a8.4,8.4,0,0,1,1.61-.27,9,9,0,0,1,2.16.13,5.31,5.31,0,0,1,1.54.47,3.22,3.22,0,0,1,1,.79,2.9,2.9,0,0,1,.56,1.06,4.53,4.53,0,0,1,.17,1.29q0,0.89-.06,1.51t-0.06,1.11a7.69,7.69,0,0,0,0,.83c0,0.16,0,.33.05,0.48L96.36,465V467l-2.92-.48-0.23-1.23H93.13a2.37,2.37,0,0,1-1,.77,3,3,0,0,1-1.73.11,3.46,3.46,0,0,1-2.06-1,2.83,2.83,0,0,1-.76-2,2.52,2.52,0,0,1,.27-1.22,1.77,1.77,0,0,1,.78-0.74,3.18,3.18,0,0,1,1.23-.3,7.07,7.07,0,0,1,1.6.1c0.21,0,.43.08,0.66,0.14L93,461.29a1.69,1.69,0,0,0,0-.34v-0.33a1.32,1.32,0,0,0-.38-1,2.13,2.13,0,0,0-1.12-.47,5,5,0,0,0-1.59,0,9,9,0,0,0-1.19.26Zm3,6.92a1.9,1.9,0,0,0,1.24-.1,1.62,1.62,0,0,0,.6-0.56v-1l-0.52-.16a6.49,6.49,0,0,0-.74-0.16,3.56,3.56,0,0,0-.65,0,1.92,1.92,0,0,0-.58.1,0.92,0.92,0,0,0-.41.27,0.73,0.73,0,0,0-.15.48,1.17,1.17,0,0,0,.28.81A1.56,1.56,0,0,0,91.15,464.38Z"/><path class="cls-4" d="M99.08,460.58l-1.72-.28v-1.92l1.72,0.28v-2l2.26-.29V459l4.56,0.72v1.92l-4.56-.72v2.5a3.4,3.4,0,0,0,.5,2,2.08,2.08,0,0,0,1.41.83,2.91,2.91,0,0,0,.85,0,2.8,2.8,0,0,0,.69-0.18,3.17,3.17,0,0,0,.56-0.3l0.46-.31,1,1.74a2.68,2.68,0,0,1-.74.52,5.23,5.23,0,0,1-1,.36,5.33,5.33,0,0,1-1.07.17,5,5,0,0,1-1.1,0,4.43,4.43,0,0,1-2.93-1.56,5.78,5.78,0,0,1-1-3.63v-2.5Z"/><path class="cls-4" d="M107.5,456.48L111,457v4.48h0.07a2.37,2.37,0,0,1,1.11-.72,3.56,3.56,0,0,1,1.64-.08,4.47,4.47,0,0,1,1.22.36,2.83,2.83,0,0,1,1,.72,3.28,3.28,0,0,1,.63,1.19,5.89,5.89,0,0,1,.23,1.74v5.44l-2.26-.34v-5a2.46,2.46,0,0,0-.45-1.61,1.85,1.85,0,0,0-1.18-.65,1.77,1.77,0,0,0-1.18.21,1.72,1.72,0,0,0-.77.89v5.58l-2.26-.35V458.6l-1.25-.19v-1.92Z"/><path class="cls-4" d="M121.77,469.73a1.09,1.09,0,0,1,.38-0.91,1.27,1.27,0,0,1,1-.21,1.71,1.71,0,0,1,1,.51,1.46,1.46,0,0,1,.38,1,1.12,1.12,0,0,1-.38.93,1.3,1.3,0,0,1-1,.22,1.63,1.63,0,0,1-1-.51A1.49,1.49,0,0,1,121.77,469.73Z"/><path class="cls-4" d="M129.64,472v-1.92l2.06,0.29v-4.9l-2.07-.29v-1.92l2.07,0.29v-0.49a3,3,0,0,1,.29-1.38,2.33,2.33,0,0,1,.76-0.87,2.65,2.65,0,0,1,1.09-.42,4.34,4.34,0,0,1,1.28,0,8.71,8.71,0,0,1,2,.47,5.86,5.86,0,0,1,1.28.67l-0.66,1.64a9.2,9.2,0,0,0-.86-0.47,4.11,4.11,0,0,0-1.19-.32,1.52,1.52,0,0,0-1.32.25,1.7,1.7,0,0,0-.37,1.23l3.66,0.5v1.92l-3.66-.5v4.9l3.68,0.51v1.92Z"/><path class="cls-4" d="M140.44,465.35a8.6,8.6,0,0,1,1.61-.33,9,9,0,0,1,2.17.06,5.21,5.21,0,0,1,1.54.42,3.08,3.08,0,0,1,1,.76,2.79,2.79,0,0,1,.57,1,4.46,4.46,0,0,1,.17,1.28q0,0.89-.06,1.51t-0.06,1.11a7.62,7.62,0,0,0,0,.83c0,0.16,0,.33.05,0.48l1.13,0.15v1.92l-2.93-.38L145.48,473H145.4a2.49,2.49,0,0,1-1,.81,3.09,3.09,0,0,1-1.73.16,3.36,3.36,0,0,1-2.06-1,2.74,2.74,0,0,1-.76-2,2.57,2.57,0,0,1,.27-1.23,1.86,1.86,0,0,1,.78-0.77,3.28,3.28,0,0,1,1.23-.34,7.09,7.09,0,0,1,1.6,0c0.21,0,.43.07,0.66,0.12l0.85,0.18a1.7,1.7,0,0,0,0-.35v-0.33a1.27,1.27,0,0,0-.38-1,2.07,2.07,0,0,0-1.13-.44,5.08,5.08,0,0,0-1.59,0,9.25,9.25,0,0,0-1.19.3Zm3,6.82a1.94,1.94,0,0,0,1.24-.14,1.7,1.7,0,0,0,.6-0.58v-1l-0.52-.15a6.4,6.4,0,0,0-.74-0.14,3.61,3.61,0,0,0-.66,0,2,2,0,0,0-.59.12,1,1,0,0,0-.41.29,0.74,0.74,0,0,0-.15.49,1.13,1.13,0,0,0,.28.8A1.51,1.51,0,0,0,143.41,472.17Z"/><path class="cls-4" d="M158.88,475a4.37,4.37,0,0,1-1.68.61,7.13,7.13,0,0,1-2,0,6.17,6.17,0,0,1-2-.59,4.9,4.9,0,0,1-1.48-1.12,4.69,4.69,0,0,1-.92-1.58,5.8,5.8,0,0,1-.31-1.93,4.62,4.62,0,0,1,.37-1.91,3.45,3.45,0,0,1,1-1.32,3.77,3.77,0,0,1,1.55-.71,5.73,5.73,0,0,1,1.94-.06,7.65,7.65,0,0,1,1.83.46,9.62,9.62,0,0,1,1.31.6v3.08l-1.92-.24v-1.61a5.27,5.27,0,0,0-1.08-.26,3.17,3.17,0,0,0-1,0,2,2,0,0,0-1.47,1.1,2.49,2.49,0,0,0-.24,1.14,2.92,2.92,0,0,0,.73,1.95,2.94,2.94,0,0,0,.86.66,3.4,3.4,0,0,0,1.14.34,3.89,3.89,0,0,0,1.63-.08,5.72,5.72,0,0,0,1-.37Z"/><path class="cls-4" d="M161.85,469.42l-1.73-.21v-1.92l1.73,0.21v-2l2.27-.37v2.64l4.58,0.54v1.92l-4.58-.54v2.5a3.3,3.3,0,0,0,.51,2A2,2,0,0,0,166,475a2.84,2.84,0,0,0,1.55-.22,3.34,3.34,0,0,0,.56-0.32l0.46-.33,1,1.7a2.84,2.84,0,0,1-.74.55,5.54,5.54,0,0,1-2,.61,5,5,0,0,1-1.1,0,4.26,4.26,0,0,1-2.94-1.45,5.59,5.59,0,0,1-1-3.59v-2.5Z"/><path class="cls-4" d="M170.91,472.94a5.09,5.09,0,0,1,.33-1.92,3.43,3.43,0,0,1,.94-1.34,3.49,3.49,0,0,1,1.46-.73,5.37,5.37,0,0,1,1.9-.09,5.88,5.88,0,0,1,2,.55,4.75,4.75,0,0,1,1.46,1.1,4.54,4.54,0,0,1,.9,1.56,5.88,5.88,0,0,1,.31,1.92,5.11,5.11,0,0,1-.33,1.92,3.38,3.38,0,0,1-2.4,2.09,5.35,5.35,0,0,1-1.9.09,5.85,5.85,0,0,1-2-.56,4.73,4.73,0,0,1-1.46-1.1,4.57,4.57,0,0,1-.9-1.57A5.9,5.9,0,0,1,170.91,472.94Zm2.34,0.27a3.63,3.63,0,0,0,.16,1.09,3,3,0,0,0,.45.91,2.43,2.43,0,0,0,.72.65,2.39,2.39,0,0,0,1,.31,2,2,0,0,0,1.65-.46,2.57,2.57,0,0,0,.64-2,3.32,3.32,0,0,0-.6-2,2.32,2.32,0,0,0-1.7-.93,2.6,2.6,0,0,0-.91,0,1.54,1.54,0,0,0-.72.4,2,2,0,0,0-.48.79A3.6,3.6,0,0,0,173.26,473.21Z"/><path class="cls-4" d="M181.47,476.58l2.17,0.24v-4.9l-2.17-.24v-1.92l3.94,0.42,0.26,1.18h0.07a4,4,0,0,1,1.12-.84,2.6,2.6,0,0,1,1.47-.23,2.24,2.24,0,0,1,1.65.94,4.55,4.55,0,0,1,.6,2.64l-2-.21a1.88,1.88,0,0,0-.18-0.94,0.73,0.73,0,0,0-.59-0.35,1.6,1.6,0,0,0-1.13.23,3,3,0,0,0-.73.73v3.73l3.8,0.4v1.92l-8.24-.88v-1.92Z"/><path class="cls-4" d="M192.32,477.72L195.4,478v-4.9l-3.08-.31V470.9l5.35,0.54v6.83l3.24,0.32v1.92l-8.59-.86v-1.92Zm2.66-8.94a1.12,1.12,0,0,1,.4-0.89,1.43,1.43,0,0,1,1.12-.27,1.88,1.88,0,0,1,1.17.5,1.33,1.33,0,0,1,.44,1,1,1,0,0,1-.44.88,1.67,1.67,0,0,1-1.17.24,1.78,1.78,0,0,1-1.12-.47A1.3,1.3,0,0,1,195,468.79Z"/><path class="cls-4" d="M203.36,472.59a8.87,8.87,0,0,1,1.62-.39,9.07,9.07,0,0,1,2.18,0,5.1,5.1,0,0,1,1.55.36,2.93,2.93,0,0,1,1,.72,2.65,2.65,0,0,1,.57,1,4.38,4.38,0,0,1,.17,1.28q0,0.89-.06,1.52t-0.06,1.11a7.56,7.56,0,0,0,0,.83c0,0.16,0,.33.05,0.48l1.14,0.1v1.92l-2.94-.27L208.42,480h-0.09a2.64,2.64,0,0,1-1,.84,3.15,3.15,0,0,1-1.74.23,3.23,3.23,0,0,1-2.07-.9A2.88,2.88,0,0,1,203,477a2,2,0,0,1,.78-0.8,3.4,3.4,0,0,1,1.23-.39,7.13,7.13,0,0,1,1.61,0c0.21,0,.43.05,0.66,0.1l0.85,0.15a1.71,1.71,0,0,0,0-.35v-0.33a1.23,1.23,0,0,0-.38-1,2,2,0,0,0-1.13-.39,5.13,5.13,0,0,0-1.6.08,9.58,9.58,0,0,0-1.2.34Zm3,6.7a2,2,0,0,0,1.25-.19,1.8,1.8,0,0,0,.61-0.6v-1l-0.52-.13a6.32,6.32,0,0,0-.74-0.11,3.62,3.62,0,0,0-.66,0,2,2,0,0,0-.59.14,1,1,0,0,0-.42.3,0.77,0.77,0,0,0-.16.49,1.09,1.09,0,0,0,.29.79A1.46,1.46,0,0,0,206.34,479.29Z"/><path class="cls-4" d="M213.82,469.46l3.73,0.33v8.09a3.93,3.93,0,0,0,.33,1.9,1.29,1.29,0,0,0,1.07.62,2.9,2.9,0,0,0,.89,0,3.18,3.18,0,0,0,.7-0.26l0.86,1.65-0.6.31a3.49,3.49,0,0,1-.63.23,4.06,4.06,0,0,1-.73.11,5.72,5.72,0,0,1-.88,0,3.6,3.6,0,0,1-2.47-1.05,3.52,3.52,0,0,1-.82-2.45v-7.35l-1.45-.13v-1.92Z"/><path class="cls-4" d="M230.77,486.84a8.75,8.75,0,0,1-2.38-1,7.82,7.82,0,0,1-2.05-1.72,8.25,8.25,0,0,1-1.43-2.5,9.46,9.46,0,0,1-.53-3.3,8.75,8.75,0,0,1,.53-3.2,6.83,6.83,0,0,1,1.43-2.29,6.33,6.33,0,0,1,2.05-1.43,8.13,8.13,0,0,1,2.38-.63l0.42,1.91a6.88,6.88,0,0,0-1.39.39,4.56,4.56,0,0,0-1.48,1,5.24,5.24,0,0,0-1.18,1.73,7.94,7.94,0,0,0,0,5.51,6.71,6.71,0,0,0,1.24,1.91,6.1,6.1,0,0,0,1.5,1.19,6.49,6.49,0,0,0,1.3.57Z"/><path class="cls-4" d="M237.66,482a3.52,3.52,0,0,0,1.06-.07,2.3,2.3,0,0,0,.82-0.36,1.8,1.8,0,0,0,.53-0.59,1.52,1.52,0,0,0,.19-0.76,1.67,1.67,0,0,0-.82-1.51,3.13,3.13,0,0,0-.93-0.37,7.7,7.7,0,0,0-1.17-.17l-1-.07v-1.26l2.95-3.37-4.43-.33V471.2l7.15,0.53v1.59l-3.08,3.29,0.4,0a3.63,3.63,0,0,1,1.19.3,3.26,3.26,0,0,1,1,.7,3.44,3.44,0,0,1,.72,1.1,3.79,3.79,0,0,1,.27,1.47,3.41,3.41,0,0,1-.41,1.72,3.6,3.6,0,0,1-1.09,1.19,4.29,4.29,0,0,1-1.55.66,6.31,6.31,0,0,1-1.81.12,9.23,9.23,0,0,1-1.58-.26,8.11,8.11,0,0,1-1.52-.55l0.61-1.84a2.62,2.62,0,0,0,.43.21l0.61,0.22q0.34,0.11.7,0.19A5,5,0,0,0,237.66,482Z"/><path class="cls-4" d="M245.94,486.06a5.67,5.67,0,0,0,1.3-.37,5,5,0,0,0,1.5-1A5.47,5.47,0,0,0,250,483a6.22,6.22,0,0,0,.51-2.68,7.34,7.34,0,0,0-.48-2.83,6.44,6.44,0,0,0-1.18-1.91,5.62,5.62,0,0,0-1.48-1.17,7.91,7.91,0,0,0-1.39-.59l0.42-1.84a9.32,9.32,0,0,1,2.38,1,7.83,7.83,0,0,1,2.05,1.73,8.28,8.28,0,0,1,1.43,2.5,9.4,9.4,0,0,1,.54,3.28,8.81,8.81,0,0,1-.54,3.22,6.79,6.79,0,0,1-1.43,2.29,6.34,6.34,0,0,1-2.05,1.42,7.69,7.69,0,0,1-2.38.61Z"/><path class="cls-4" d="M379.17,481.57l0.09-1.91h-0.11l-2,3.22h-0.42l-2.06-3.18h-0.09l0.1,1.71v6.72l-2.28,0V475.91l2.44,0,2.11,3.37h0.07l2.09-3.42,2.42,0v12.25l-2.41,0v-6.53Z"/><path class="cls-4" d="M383.86,479.88a9.74,9.74,0,0,1,1.62-.57,9.34,9.34,0,0,1,2.19-.26,4.83,4.83,0,0,1,1.55.19,2.54,2.54,0,0,1,1,.6,2.32,2.32,0,0,1,.57,1,4.18,4.18,0,0,1,.18,1.26q0,0.89-.06,1.52t-0.06,1.12a7.56,7.56,0,0,0,0,.82c0,0.16,0,.32.05,0.47l1.14,0v1.92l-2.95.05-0.23-1.19h-0.09a3.1,3.1,0,0,1-1,1,3.36,3.36,0,0,1-1.74.42,2.92,2.92,0,0,1-2.08-.67,2.35,2.35,0,0,1-.77-1.84,2.8,2.8,0,0,1,.27-1.27,2.31,2.31,0,0,1,.79-0.89,3.81,3.81,0,0,1,1.24-.53,7.32,7.32,0,0,1,1.61-.19q0.31,0,.66,0l0.85,0.05a1.76,1.76,0,0,0,0-.35v-0.33a1.1,1.1,0,0,0-.38-0.95,1.85,1.85,0,0,0-1.13-.27,5.34,5.34,0,0,0-1.6.25,10.68,10.68,0,0,0-1.2.47Zm3,6.38a1.94,1.94,0,0,0,1.86-1v-1l-0.52-.07a6.16,6.16,0,0,0-.75,0,3.7,3.7,0,0,0-.66.07,2.22,2.22,0,0,0-.59.2,1.19,1.19,0,0,0-.42.35,0.84,0.84,0,0,0-.16.51,1,1,0,0,0,.29.76A1.33,1.33,0,0,0,386.85,486.26Z"/><path class="cls-4" d="M394.86,481l-1.74,0v-1.92l1.74,0v-2l2.28-.7V479l4.6-.11v1.92l-4.6.11v2.5a3,3,0,0,0,.51,1.94,1.72,1.72,0,0,0,1.42.57,3.07,3.07,0,0,0,.86-0.13,3.36,3.36,0,0,0,.69-0.31,4.09,4.09,0,0,0,.56-0.4l0.47-.4,1.05,1.55a3.48,3.48,0,0,1-.75.66,6.45,6.45,0,0,1-1,.53,6.15,6.15,0,0,1-1.08.37,5.2,5.2,0,0,1-1.11.15,3.71,3.71,0,0,1-3-1,5,5,0,0,1-1-3.45V481Z"/><path class="cls-4" d="M403.36,475.39l3.55-.1v4.48H407a3.07,3.07,0,0,1,1.12-.93,3.9,3.9,0,0,1,1.65-.38,4.09,4.09,0,0,1,1.23.14,2.24,2.24,0,0,1,1,.55,2.6,2.6,0,0,1,.63,1.07,5.44,5.44,0,0,1,.23,1.7v5.44l-2.28.07v-5a2.11,2.11,0,0,0-.46-1.53,1.54,1.54,0,0,0-1.19-.44,2,2,0,0,0-1.19.43,2.23,2.23,0,0,0-.77,1v5.58l-2.28.06V477.28l-1.26,0v-1.92Z"/><path class="cls-4" d="M417.74,486a1.3,1.3,0,0,1,.39-1,1.48,1.48,0,0,1,1-.4,1.44,1.44,0,0,1,1.05.32,1.22,1.22,0,0,1,.39,1,1.34,1.34,0,0,1-.39,1,1.51,1.51,0,0,1-1.05.41,1.37,1.37,0,0,1-1-.33A1.25,1.25,0,0,1,417.74,486Z"/><path class="cls-4" d="M425.67,486.9V485l2.07-.08V480l-2.09.08v-1.92l2.09-.08v-0.49a3.27,3.27,0,0,1,.29-1.43,3,3,0,0,1,.76-1,3.29,3.29,0,0,1,1.1-.61,4.62,4.62,0,0,1,1.29-.24,8.15,8.15,0,0,1,2,.11,4.86,4.86,0,0,1,1.29.44l-0.67,1.76a7.56,7.56,0,0,0-.87-0.31,3.79,3.79,0,0,0-1.2-.1,1.77,1.77,0,0,0-1.33.49A2,2,0,0,0,430,478l3.69-.16v1.92l-3.69.16v4.9l3.7-.16v1.92Z"/><path class="cls-4" d="M436.54,478.27a10,10,0,0,1,1.62-.62,9.45,9.45,0,0,1,2.19-.33,4.78,4.78,0,0,1,1.55.14,2.44,2.44,0,0,1,1,.57,2.22,2.22,0,0,1,.57.93,4.13,4.13,0,0,1,.18,1.25q0,0.89-.06,1.53t-0.06,1.12a7.6,7.6,0,0,0,0,.82c0,0.16,0,.32.05,0.47l1.14-.06V486l-2.95.15L441.61,485h-0.09a3.25,3.25,0,0,1-1,1,3.44,3.44,0,0,1-1.74.48,2.84,2.84,0,0,1-2.08-.6,2.28,2.28,0,0,1-.77-1.82,2.85,2.85,0,0,1,.27-1.28,2.42,2.42,0,0,1,.79-0.91,3.94,3.94,0,0,1,1.24-.57,7.4,7.4,0,0,1,1.61-.24q0.31,0,.66,0l0.85,0a1.79,1.79,0,0,0,0-.35v-0.33a1.06,1.06,0,0,0-.38-0.94,1.81,1.81,0,0,0-1.13-.23,5.42,5.42,0,0,0-1.6.3,11,11,0,0,0-1.2.51Zm3,6.28a2.18,2.18,0,0,0,1.25-.37,2.22,2.22,0,0,0,.61-0.69v-1l-0.52-.05a6.14,6.14,0,0,0-.75,0,3.74,3.74,0,0,0-.66.09,2.29,2.29,0,0,0-.59.22,1.25,1.25,0,0,0-.42.36,0.86,0.86,0,0,0-.16.52,1,1,0,0,0,.29.75A1.3,1.3,0,0,0,439.53,484.56Z"/><path class="cls-4" d="M455.07,484.62a5.37,5.37,0,0,1-1.68.91,7.6,7.6,0,0,1-2,.38,5.6,5.6,0,0,1-2-.22,3.84,3.84,0,0,1-1.49-.86,3.69,3.69,0,0,1-.92-1.41,5.29,5.29,0,0,1-.32-1.87,5.06,5.06,0,0,1,.37-2,4.45,4.45,0,0,1,1-1.51,4.75,4.75,0,0,1,1.55-1,6.19,6.19,0,0,1,1.95-.41,7.11,7.11,0,0,1,1.84.12,8.2,8.2,0,0,1,1.32.36v3.08l-1.93.11v-1.61a4.92,4.92,0,0,0-1.09-.06,3.39,3.39,0,0,0-1,.2,2.57,2.57,0,0,0-.86.52,2.67,2.67,0,0,0-.61.85,2.76,2.76,0,0,0-.24,1.19,2.63,2.63,0,0,0,.19,1,2.23,2.23,0,0,0,1.41,1.3,3.08,3.08,0,0,0,1.15.14,4.23,4.23,0,0,0,1.64-.37,7.1,7.1,0,0,0,1-.54Z"/><path class="cls-4" d="M458.05,478.46l-1.74.1v-1.92l1.74-.1v-2l2.28-.79v2.64l4.6-.29V478l-4.6.29v2.5a2.88,2.88,0,0,0,.51,1.92,1.65,1.65,0,0,0,1.42.52,3.13,3.13,0,0,0,.86-0.17,3.5,3.5,0,0,0,.69-0.33,4.31,4.31,0,0,0,.56-0.42l0.46-.42,1.05,1.51a3.69,3.69,0,0,1-.75.69,6.76,6.76,0,0,1-1,.57,6.37,6.37,0,0,1-1.08.41,5.28,5.28,0,0,1-1.11.19,3.58,3.58,0,0,1-3-.91,4.84,4.84,0,0,1-1-3.41v-2.5Z"/><path class="cls-4" d="M467.15,480.34a5.56,5.56,0,0,1,.33-2,4.38,4.38,0,0,1,.95-1.51,4.42,4.42,0,0,1,1.46-1,5.82,5.82,0,0,1,1.9-.43,5.35,5.35,0,0,1,2,.2,3.72,3.72,0,0,1,1.46.83,3.58,3.58,0,0,1,.9,1.4,5.38,5.38,0,0,1,.31,1.87,5.57,5.57,0,0,1-.33,2,4.35,4.35,0,0,1-2.41,2.52,5.78,5.78,0,0,1-1.9.44,5.32,5.32,0,0,1-2-.2,3.72,3.72,0,0,1-1.46-.84,3.59,3.59,0,0,1-.9-1.4A5.4,5.4,0,0,1,467.15,480.34Zm2.35-.15a3.37,3.37,0,0,0,.16,1.06,2.4,2.4,0,0,0,.46.83,1.87,1.87,0,0,0,.72.52,2.13,2.13,0,0,0,1,.14,2.39,2.39,0,0,0,1.66-.76,3,3,0,0,0,.64-2.09,2.86,2.86,0,0,0-.6-1.91,1.92,1.92,0,0,0-1.7-.63,2.82,2.82,0,0,0-.91.21,2,2,0,0,0-.73.53,2.56,2.56,0,0,0-.48.87A3.88,3.88,0,0,0,469.5,480.19Z"/><path class="cls-4" d="M477.74,482.07l2.17-.16V477l-2.17.16v-1.92l3.94-.29,0.26,1.14H482a5.18,5.18,0,0,1,1.12-1,3,3,0,0,1,1.47-.5,1.85,1.85,0,0,1,1.66.64,4,4,0,0,1,.6,2.53l-2.05.16a1.68,1.68,0,0,0-.18-0.9,0.6,0.6,0,0,0-.59-0.24,1.86,1.86,0,0,0-1.13.44,3.92,3.92,0,0,0-.73.86v3.73l3.8-.29v1.92l-8.26.61v-1.92Z"/><path class="cls-4" d="M488.61,481.25l3.08-.24v-4.9l-3.08.24v-1.92L494,474v6.83l3.24-.27v1.92l-8.6.7v-1.92Zm2.66-9.42a1.34,1.34,0,0,1,.4-1,1.68,1.68,0,0,1,1.12-.48,1.61,1.61,0,0,1,1.17.29,1.09,1.09,0,0,1,.44.89,1.24,1.24,0,0,1-.44,1,1.93,1.93,0,0,1-1.17.45,1.53,1.53,0,0,1-1.12-.27A1.08,1.08,0,0,1,491.28,471.84Z"/><path class="cls-4" d="M499.67,474.12a10.41,10.41,0,0,1,1.62-.68,9.6,9.6,0,0,1,2.18-.42,4.72,4.72,0,0,1,1.55.08,2.32,2.32,0,0,1,1,.53,2.11,2.11,0,0,1,.57.91,4.07,4.07,0,0,1,.17,1.24q0,0.89-.06,1.53t-0.06,1.13a7.53,7.53,0,0,0,0,.82c0,0.16,0,.32.05,0.47l1.14-.1c0,0.77,0,1.15,0,1.92l-2.94.26-0.23-1.17h-0.09a3.44,3.44,0,0,1-1,1,3.54,3.54,0,0,1-1.74.55,2.75,2.75,0,0,1-2.07-.52,2.19,2.19,0,0,1-.77-1.79,2.93,2.93,0,0,1,.27-1.29,2.56,2.56,0,0,1,.78-0.94,4.11,4.11,0,0,1,1.24-.61,7.52,7.52,0,0,1,1.61-.31q0.31,0,.66,0h0.85a1.81,1.81,0,0,0,0-.35V476a1,1,0,0,0-.38-0.92,1.76,1.76,0,0,0-1.13-.19,5.53,5.53,0,0,0-1.6.37,11.48,11.48,0,0,0-1.2.56Zm3,6.17a2.25,2.25,0,0,0,1.25-.42,2.35,2.35,0,0,0,.61-0.71v-1l-0.52,0a6.12,6.12,0,0,0-.74,0,3.8,3.8,0,0,0-.66.12,2.37,2.37,0,0,0-.59.24,1.32,1.32,0,0,0-.42.38,0.89,0.89,0,0,0-.16.52,0.92,0.92,0,0,0,.29.74A1.26,1.26,0,0,0,502.65,480.29Z"/><path class="cls-4" d="M510.12,469.1l3.73-.35c0,3.23,0,4.85,0,8.08a3.56,3.56,0,0,0,.33,1.84,1.06,1.06,0,0,0,1.07.42,3.09,3.09,0,0,0,.89-0.2,3.84,3.84,0,0,0,.7-0.39L517.7,480l-0.59.42a4.27,4.27,0,0,1-.63.34,4.58,4.58,0,0,1-.73.24,5.93,5.93,0,0,1-.88.15,3.07,3.07,0,0,1-2.47-.61,3,3,0,0,1-.82-2.3c0-2.94,0-4.41,0-7.35l-1.45.13V469.1Z"/><path class="cls-4" d="M520.47,482.42l7.77-.78v1.87l-7.77.78C520.47,483.54,520.47,483.17,520.47,482.42Z"/><path class="cls-4" d="M529.61,467.2l3.53-.37c0,1.79,0,2.69,0,4.48h0.07a3.43,3.43,0,0,1,1.12-1,4.11,4.11,0,0,1,1.64-.51,4,4,0,0,1,1.22,0,2,2,0,0,1,1,.47,2.36,2.36,0,0,1,.63,1A5.29,5.29,0,0,1,539,473c0,2.18,0,3.27,0,5.44l-2.27.25v-5a2,2,0,0,0-.45-1.49,1.43,1.43,0,0,0-1.19-.35,2.2,2.2,0,0,0-1.19.52,2.48,2.48,0,0,0-.77,1.09c0,2.23,0,3.35,0,5.58l-2.27.24c0-4.13,0-6.2,0-10.33l-1.26.13C529.61,468.36,529.61,468,529.61,467.2Z"/><path class="cls-4" d="M549.44,476.35a3.58,3.58,0,0,1-.59.48,6.48,6.48,0,0,1-.84.47,7.24,7.24,0,0,1-2.28.65,5.72,5.72,0,0,1-2-.09,3.35,3.35,0,0,1-2.43-2.1,5.12,5.12,0,0,1-.32-1.9,5.46,5.46,0,0,1,.37-2.06,4.7,4.7,0,0,1,1-1.56,4.88,4.88,0,0,1,1.49-1,6.19,6.19,0,0,1,1.85-.5,5.62,5.62,0,0,1,1.37,0,3.33,3.33,0,0,1,1.3.46,2.73,2.73,0,0,1,1,1,3.65,3.65,0,0,1,.38,1.78,8.69,8.69,0,0,1-.17,1.65l-6.29.72a1.85,1.85,0,0,0,.24.92,1.59,1.59,0,0,0,.58.57,2.22,2.22,0,0,0,.82.27,4,4,0,0,0,1,0,5.43,5.43,0,0,0,1.72-.44,4.23,4.23,0,0,0,1.09-.72Zm-3.77-5.81a3.09,3.09,0,0,0-.86.22,2.77,2.77,0,0,0-.72.45,2.36,2.36,0,0,0-.53.66,2,2,0,0,0-.24.83l4.3-.49A1.53,1.53,0,0,0,545.66,470.53Z"/><path class="cls-4" d="M552.11,464.71l3.72-.44c0,3.23,0,4.85,0,8.08a3.51,3.51,0,0,0,.33,1.83,1,1,0,0,0,1.07.4,3.13,3.13,0,0,0,.89-0.22,4,4,0,0,0,.7-0.41l0.86,1.47-0.59.43a4.41,4.41,0,0,1-.63.36,4.68,4.68,0,0,1-.73.26,6,6,0,0,1-.88.17,3,3,0,0,1-2.46-.55,2.93,2.93,0,0,1-.82-2.28c0-2.94,0-4.41,0-7.35l-1.45.17C552.11,465.87,552.11,465.48,552.11,464.71Z"/><path class="cls-4" d="M561.07,467.14l3-.37,0.26,1h0.07a3.84,3.84,0,0,1,2.93-1.66,4,4,0,0,1,1.48.07,2.43,2.43,0,0,1,1.15.65,3.18,3.18,0,0,1,.74,1.27,6.24,6.24,0,0,1,.26,1.94,6.81,6.81,0,0,1-.3,2.06,5.05,5.05,0,0,1-.86,1.64,4.39,4.39,0,0,1-1.36,1.14,5.19,5.19,0,0,1-1.83.57,7.05,7.05,0,0,1-1.07.06,2.67,2.67,0,0,1-.87-0.14c0,1.44,0,2.15,0,3.59l-2.27.28c0-4.13,0-6.2,0-10.33l-1.31.16C561.07,468.29,561.07,467.91,561.07,467.14Zm5.55,1a2.57,2.57,0,0,0-1.21.49,2,2,0,0,0-.76,1.09v3.64a1.64,1.64,0,0,0,.71.22,3.8,3.8,0,0,0,.93,0,2.65,2.65,0,0,0,.91-0.28,2.22,2.22,0,0,0,.73-0.63,3,3,0,0,0,.49-1,4.77,4.77,0,0,0,.18-1.37,2.34,2.34,0,0,0-.56-1.71A1.61,1.61,0,0,0,566.63,468.12Z"/><path class="cls-4" d="M580.87,472.4a3.68,3.68,0,0,1-.58.49,6.64,6.64,0,0,1-.84.49,7.32,7.32,0,0,1-2.28.69,5.69,5.69,0,0,1-2-.05,3.26,3.26,0,0,1-2.43-2.05,5.08,5.08,0,0,1-.32-1.89,5.52,5.52,0,0,1,.37-2.07,4.82,4.82,0,0,1,1-1.57,5,5,0,0,1,1.49-1.06,6.27,6.27,0,0,1,1.85-.53,5.6,5.6,0,0,1,1.37,0,3.26,3.26,0,0,1,1.3.43,2.65,2.65,0,0,1,1,1,3.61,3.61,0,0,1,.37,1.77,8.76,8.76,0,0,1-.17,1.65l-6.28.84a1.83,1.83,0,0,0,.24.91,1.54,1.54,0,0,0,.58.55,2.18,2.18,0,0,0,.82.25,4,4,0,0,0,1,0,5.49,5.49,0,0,0,1.72-.47,4.34,4.34,0,0,0,1.09-.74Zm-3.77-5.74a3.12,3.12,0,0,0-.86.24,2.84,2.84,0,0,0-.72.46,2.43,2.43,0,0,0-.53.67,2.06,2.06,0,0,0-.24.83l4.29-.57a1.71,1.71,0,0,0-.48-1.32A1.73,1.73,0,0,0,577.1,466.66Z"/><path class="cls-4" d="M582.7,471.16l2.16-.3c0-2,0-2.94,0-4.9l-2.16.3c0-.77,0-1.15,0-1.92l3.92-.54,0.26,1.12H587a5.68,5.68,0,0,1,1.12-1.12,3.11,3.11,0,0,1,1.47-.59,1.73,1.73,0,0,1,1.65.54,3.85,3.85,0,0,1,.6,2.49l-2,.29a1.62,1.62,0,0,0-.18-0.89,0.56,0.56,0,0,0-.58-0.21,2,2,0,0,0-1.12.51,4.3,4.3,0,0,0-.72.91v3.73l3.78-.53v1.92l-8.21,1.14v-1.92Z"/><path class="cls-4" d="M600.41,474.27a7.25,7.25,0,0,1-2.37-.42,5.66,5.66,0,0,1-2-1.26,6.14,6.14,0,0,1-1.42-2.17,8.52,8.52,0,0,1-.53-3.18,9.81,9.81,0,0,1,.53-3.32A9.18,9.18,0,0,1,596,461.3a8.75,8.75,0,0,1,2-1.89,10.07,10.07,0,0,1,2.37-1.17l0.42,1.81a8.55,8.55,0,0,0-1.39.7A6.24,6.24,0,0,0,598,462a7.12,7.12,0,0,0-1.18,2,7.67,7.67,0,0,0-.48,2.87,6,6,0,0,0,.51,2.64,4.9,4.9,0,0,0,1.23,1.63,4.47,4.47,0,0,0,1.49.85,5.28,5.28,0,0,0,1.29.27Z"/><path class="cls-4" d="M604.79,468l2.66-.4c0-3.06,0-4.59,0-7.65l-2.3,2.12-1-1.24,4-3.65,1.53-.23c0,4.13,0,6.2,0,10.33l2.61-.4c0,0.77,0,1.15,0,1.92l-7.44,1.14C604.79,469.14,604.79,468.76,604.79,468Z"/><path class="cls-4" d="M617.18,466.88a1.41,1.41,0,0,1,.39-1,1.68,1.68,0,0,1,1-.51,1.49,1.49,0,0,1,1.44.4,2.16,2.16,0,0,1,.49,1.48,3.66,3.66,0,0,1-.3,1.48,4.7,4.7,0,0,1-.79,1.25,5.35,5.35,0,0,1-1.09.94,5.23,5.23,0,0,1-1.19.59l-0.47-.89a5.93,5.93,0,0,0,.84-0.43,4.28,4.28,0,0,0,.77-0.6,3.4,3.4,0,0,0,.58-0.77,2.14,2.14,0,0,0,.27-0.88,2.3,2.3,0,0,1-.89.17,1.14,1.14,0,0,1-.6-0.19,0.92,0.92,0,0,1-.34-0.44A1.67,1.67,0,0,1,617.18,466.88Z"/><path class="cls-4" d="M628.14,464.55a3.93,3.93,0,0,0,1.05-.32,3.07,3.07,0,0,0,.82-0.55,2.54,2.54,0,0,0,.53-0.72,1.81,1.81,0,0,0,.19-0.81,1.48,1.48,0,0,0-.22-0.84,1.23,1.23,0,0,0-.6-0.47,2.58,2.58,0,0,0-.92-0.14,7.42,7.42,0,0,0-1.16.11l-1,.16v-1.26l2.92-4.07-4.4.72c0-.77,0-1.15,0-1.92l7.09-1.17c0,0.64,0,1,0,1.59l-3.06,4,0.4-.07a3.25,3.25,0,0,1,1.18,0,2.37,2.37,0,0,1,1,.46,2.45,2.45,0,0,1,.71.93,3.35,3.35,0,0,1,.27,1.41,4,4,0,0,1-.41,1.82,5.09,5.09,0,0,1-1.08,1.45,5.71,5.71,0,0,1-1.54,1,7.05,7.05,0,0,1-1.79.55,8.8,8.8,0,0,1-1.57.12,6.8,6.8,0,0,1-1.51-.19l0.61-2a2.07,2.07,0,0,0,.43.11l0.61,0.08a6.49,6.49,0,0,0,.69,0A4.82,4.82,0,0,0,628.14,464.55Z"/><path class="cls-4" d="M636.35,466.66a7.11,7.11,0,0,0,1.29-.68,7,7,0,0,0,1.49-1.32,7.6,7.6,0,0,0,1.22-2,7.15,7.15,0,0,0,.5-2.8,6.55,6.55,0,0,0-.48-2.72,4.62,4.62,0,0,0-1.17-1.63,4,4,0,0,0-1.47-.82,6.38,6.38,0,0,0-1.38-.26l0.42-1.94a7.57,7.57,0,0,1,2.36.42,5.55,5.55,0,0,1,2,1.24,6,6,0,0,1,1.42,2.16,8.44,8.44,0,0,1,.53,3.15,10,10,0,0,1-.53,3.35,9.26,9.26,0,0,1-1.42,2.63,8.89,8.89,0,0,1-2,1.91,9.55,9.55,0,0,1-2.36,1.17Z"/><path class="cls-4" d="M78.19,405.83l0.09-1.89-0.1,0-1.92,2.87-0.41-.07-2-3.55H73.76l0.1,1.73v6.72l-2.22-.39c0-4.9,0-7.35,0-12.25L74,399.39l2.05,3.75h0.07l2-3,2.36,0.4c0,4.9,0,7.35,0,12.25l-2.34-.4C78.19,409.75,78.19,408.44,78.19,405.83Z"/><path class="cls-4" d="M82.76,405a8.15,8.15,0,0,1,1.58-.28,8.69,8.69,0,0,1,2.13.13,5.15,5.15,0,0,1,1.52.47,3.19,3.19,0,0,1,1,.79,2.92,2.92,0,0,1,.56,1.05,4.61,4.61,0,0,1,.17,1.29q0,0.89-.06,1.51c0,0.41-.06.78-0.06,1.11a7.72,7.72,0,0,0,0,.83c0,0.16,0,.33.05,0.48l1.11,0.18c0,0.77,0,1.15,0,1.92L87.93,414l-0.22-1.23H87.62a2.35,2.35,0,0,1-1,.78,3,3,0,0,1-1.7.11,3.39,3.39,0,0,1-2-1,2.85,2.85,0,0,1-.75-2,2.55,2.55,0,0,1,.26-1.22,1.75,1.75,0,0,1,.77-0.75,3.1,3.1,0,0,1,1.21-.3,6.78,6.78,0,0,1,1.57.1q0.31,0.05.65,0.14l0.83,0.21a1.78,1.78,0,0,0,0-.34v-0.33a1.32,1.32,0,0,0-.37-1,2.08,2.08,0,0,0-1.1-.47,4.9,4.9,0,0,0-1.56,0,8.56,8.56,0,0,0-1.17.26Zm2.91,6.91a1.85,1.85,0,0,0,1.22-.1,1.6,1.6,0,0,0,.59-0.56v-1L87,410a6.08,6.08,0,0,0-.73-0.16,3.48,3.48,0,0,0-.64,0,1.87,1.87,0,0,0-.57.1,0.9,0.9,0,0,0-.41.27,0.73,0.73,0,0,0-.15.48,1.18,1.18,0,0,0,.28.81A1.52,1.52,0,0,0,85.67,411.89Z"/><path class="cls-4" d="M93.48,408.08l-1.7-.28v-1.92l1.7,0.28v-2l2.23-.29c0,1.06,0,1.59,0,2.64l4.49,0.71v1.92l-4.49-.71v2.5a3.44,3.44,0,0,0,.5,2,2,2,0,0,0,1.39.83,2.82,2.82,0,0,0,.84,0,2.73,2.73,0,0,0,.68-0.18,3.13,3.13,0,0,0,.55-0.3l0.45-.31,1,1.74a2.66,2.66,0,0,1-.73.52,5.1,5.1,0,0,1-.94.36,5.21,5.21,0,0,1-1.05.17,4.87,4.87,0,0,1-1.08,0,4.34,4.34,0,0,1-2.89-1.56,5.84,5.84,0,0,1-1-3.63v-2.5Z"/><path class="cls-4" d="M101.77,404l3.46,0.54c0,1.79,0,2.69,0,4.48h0.07a2.35,2.35,0,0,1,1.1-.72,3.46,3.46,0,0,1,1.61-.09,4.35,4.35,0,0,1,1.2.36,2.79,2.79,0,0,1,.94.72,3.31,3.31,0,0,1,.62,1.19,6,6,0,0,1,.22,1.74v5.44l-2.23-.34v-5a2.48,2.48,0,0,0-.45-1.61,1.81,1.81,0,0,0-1.17-.65,1.75,1.75,0,0,0-1.92,1.1c0,2.23,0,3.35,0,5.58l-2.23-.35c0-4.13,0-6.19,0-10.32l-1.23-.19C101.77,405.13,101.77,404.75,101.77,404Z"/><path class="cls-4" d="M115.82,417.21a1.1,1.1,0,0,1,.38-0.92,1.24,1.24,0,0,1,1-.21,1.67,1.67,0,0,1,1,.51,1.47,1.47,0,0,1,.38,1,1.13,1.13,0,0,1-.38.92,1.26,1.26,0,0,1-1,.22,1.6,1.6,0,0,1-1-.51A1.5,1.5,0,0,1,115.82,417.21Z"/><path class="cls-4" d="M123.58,419.49v-1.92l2,0.29c0-2,0-2.94,0-4.9l-2-.29v-1.92l2,0.29v-0.49a3,3,0,0,1,.28-1.38,2.31,2.31,0,0,1,.75-0.87,2.59,2.59,0,0,1,1.07-.42,4.23,4.23,0,0,1,1.26,0,8.46,8.46,0,0,1,1.95.47,5.78,5.78,0,0,1,1.26.67l-0.65,1.64a9.16,9.16,0,0,0-.85-0.47,4,4,0,0,0-1.18-.32,1.48,1.48,0,0,0-1.3.25,1.72,1.72,0,0,0-.37,1.23l3.61,0.5c0,0.77,0,1.15,0,1.92l-3.61-.5c0,2,0,2.94,0,4.9l3.62,0.51v1.92Z"/><path class="cls-4" d="M134.2,412.83a8.34,8.34,0,0,1,1.59-.33,8.71,8.71,0,0,1,2.14.06,5.06,5.06,0,0,1,1.52.42,3.05,3.05,0,0,1,1,.76,2.81,2.81,0,0,1,.56,1,4.54,4.54,0,0,1,.17,1.28q0,0.89-.06,1.51c0,0.41-.06.79-0.06,1.11a7.64,7.64,0,0,0,0,.83c0,0.16,0,.33.05,0.48l1.12,0.15v1.92l-2.89-.38-0.23-1.22h-0.09a2.46,2.46,0,0,1-1,.81,3,3,0,0,1-1.71.16,3.28,3.28,0,0,1-2-1,2.76,2.76,0,0,1-.75-2,2.59,2.59,0,0,1,.26-1.23,1.84,1.84,0,0,1,.77-0.77,3.2,3.2,0,0,1,1.21-.34,6.82,6.82,0,0,1,1.58,0q0.31,0,.65.12l0.84,0.18a1.78,1.78,0,0,0,0-.34v-0.33a1.28,1.28,0,0,0-.38-1,2,2,0,0,0-1.11-.44,4.93,4.93,0,0,0-1.57,0,8.79,8.79,0,0,0-1.18.3Zm2.92,6.82a1.88,1.88,0,0,0,1.22-.14,1.68,1.68,0,0,0,.59-0.58v-1l-0.51-.15a6,6,0,0,0-.73-0.14,3.49,3.49,0,0,0-.65,0,1.92,1.92,0,0,0-.58.12,0.94,0.94,0,0,0-.41.29,0.75,0.75,0,0,0-.15.49,1.14,1.14,0,0,0,.28.8A1.48,1.48,0,0,0,137.13,419.65Z"/><path class="cls-4" d="M152.35,422.52a4.23,4.23,0,0,1-1.65.61,6.9,6.9,0,0,1-2,0,6,6,0,0,1-2-.59,4.84,4.84,0,0,1-1.46-1.13,4.72,4.72,0,0,1-.9-1.58,5.87,5.87,0,0,1-.31-1.93,4.67,4.67,0,0,1,.36-1.91,3.43,3.43,0,0,1,1-1.32A3.68,3.68,0,0,1,147,414a5.55,5.55,0,0,1,1.91-.06,7.45,7.45,0,0,1,1.81.46,9.37,9.37,0,0,1,1.29.6v3.08l-1.89-.24v-1.61A5,5,0,0,0,149,416a3.07,3.07,0,0,0-1,0,2,2,0,0,0-.84.36,2.06,2.06,0,0,0-.6.74,2.51,2.51,0,0,0-.23,1.14,3,3,0,0,0,.19,1.06,2.93,2.93,0,0,0,.53.89,2.9,2.9,0,0,0,.85.66,3.29,3.29,0,0,0,1.13.35,3.79,3.79,0,0,0,1.61-.08,5.61,5.61,0,0,0,.94-0.37Z"/><path class="cls-4" d="M155.28,416.9l-1.7-.21v-1.92l1.7,0.21v-2l2.24-.37v2.64l4.51,0.54v1.92l-4.51-.54v2.5a3.34,3.34,0,0,0,.5,2,2,2,0,0,0,1.39.77,2.77,2.77,0,0,0,1.52-.22,3.3,3.3,0,0,0,.55-0.32l0.46-.33,1,1.7a2.81,2.81,0,0,1-.73.55,5.37,5.37,0,0,1-2,.61,4.89,4.89,0,0,1-1.08,0,4.18,4.18,0,0,1-2.9-1.45,5.66,5.66,0,0,1-1-3.59v-2.5Z"/><path class="cls-4" d="M164.21,420.43a5.17,5.17,0,0,1,.33-1.92,3.32,3.32,0,0,1,2.37-2.08,5.2,5.2,0,0,1,1.87-.09,5.71,5.71,0,0,1,1.94.56,4.68,4.68,0,0,1,1.44,1.1,4.57,4.57,0,0,1,.89,1.56,6,6,0,0,1,.3,1.92,5.17,5.17,0,0,1-.33,1.92,3.33,3.33,0,0,1-2.37,2.09,5.17,5.17,0,0,1-1.87.09,5.7,5.7,0,0,1-1.94-.56,4.7,4.7,0,0,1-1.44-1.11,4.58,4.58,0,0,1-.89-1.57A6,6,0,0,1,164.21,420.43Zm2.31,0.27a3.71,3.71,0,0,0,.15,1.09,3,3,0,0,0,.45.91,2.4,2.4,0,0,0,.71.65,2.33,2.33,0,0,0,.95.31,2,2,0,0,0,1.63-.46,2.59,2.59,0,0,0,.63-2,3.36,3.36,0,0,0-.59-2,2.28,2.28,0,0,0-1.67-.94,2.54,2.54,0,0,0-.9,0,1.5,1.5,0,0,0-.71.4,2,2,0,0,0-.47.78A3.65,3.65,0,0,0,166.51,420.7Z"/><path class="cls-4" d="M174.6,424.07l2.14,0.24v-4.9l-2.14-.24v-1.92l3.87,0.43,0.26,1.18h0.07a3.9,3.9,0,0,1,1.1-.84,2.52,2.52,0,0,1,1.45-.23,2.2,2.2,0,0,1,1.63.94,4.6,4.6,0,0,1,.59,2.64l-2-.22a1.9,1.9,0,0,0-.18-0.94,0.71,0.71,0,0,0-.58-0.35,1.55,1.55,0,0,0-1.11.23,3,3,0,0,0-.71.73v3.73l3.74,0.4v1.92L174.6,426v-1.92Z"/><path class="cls-4" d="M185.28,425.23l3,0.32v-4.9l-3-.32v-1.92l5.27,0.55v6.83l3.19,0.32V428l-8.46-.87v-1.92Zm2.62-8.93a1.12,1.12,0,0,1,.4-0.89,1.4,1.4,0,0,1,1.1-.27,1.85,1.85,0,0,1,1.15.5,1.34,1.34,0,0,1,.43,1,1,1,0,0,1-.43.88,1.62,1.62,0,0,1-1.15.24,1.75,1.75,0,0,1-1.1-.47A1.31,1.31,0,0,1,187.9,416.3Z"/><path class="cls-4" d="M196.15,420.11a8.6,8.6,0,0,1,1.59-.39,8.77,8.77,0,0,1,2.15,0,5,5,0,0,1,1.53.37,2.91,2.91,0,0,1,1,.72,2.68,2.68,0,0,1,.56,1,4.46,4.46,0,0,1,.17,1.28q0,0.89-.06,1.52c0,0.42-.06.79-0.06,1.11a7.57,7.57,0,0,0,0,.83c0,0.16,0,.32.05,0.48l1.12,0.11V429l-2.89-.27-0.23-1.21H201a2.6,2.6,0,0,1-1,.84,3.06,3.06,0,0,1-1.71.23,3.16,3.16,0,0,1-2-.9,2.92,2.92,0,0,1-.49-3.17,2,2,0,0,1,.77-0.8,3.31,3.31,0,0,1,1.22-.39,6.83,6.83,0,0,1,1.58,0,6.57,6.57,0,0,1,.65.1l0.84,0.15a1.8,1.8,0,0,0,0-.35v-0.33a1.23,1.23,0,0,0-.38-1,2,2,0,0,0-1.11-.4,5,5,0,0,0-1.57.07,9.1,9.1,0,0,0-1.18.34Zm2.93,6.71a1.92,1.92,0,0,0,1.23-.19,1.78,1.78,0,0,0,.6-0.6v-1l-0.51-.13a5.92,5.92,0,0,0-.73-0.11,3.46,3.46,0,0,0-.65,0,2,2,0,0,0-.58.14,1,1,0,0,0-.41.3,0.77,0.77,0,0,0-.15.49,1.1,1.1,0,0,0,.28.79A1.43,1.43,0,0,0,199.08,426.82Z"/><path class="cls-4" d="M206.44,417l3.67,0.34c0,3.23,0,4.85,0,8.09a4,4,0,0,0,.33,1.9,1.27,1.27,0,0,0,1.05.62,2.8,2.8,0,0,0,.88,0,3.08,3.08,0,0,0,.69-0.26l0.84,1.65-0.59.31a3.41,3.41,0,0,1-.62.23,4,4,0,0,1-.72.11,5.59,5.59,0,0,1-.87,0,3.21,3.21,0,0,1-3.24-3.51v-7.35l-1.43-.13V417Z"/><path class="cls-4" d="M216.63,432.21l7.66,0.64v1.87l-7.66-.64C216.63,433.33,216.63,433,216.63,432.21Z"/><path class="cls-4" d="M225.64,418.66l3.49,0.28c0,1.79,0,2.69,0,4.48h0.07a2.62,2.62,0,0,1,1.11-.81,3.57,3.57,0,0,1,1.62-.21,4.16,4.16,0,0,1,1.21.27,2.53,2.53,0,0,1,.95.65,3,3,0,0,1,.62,1.14,5.76,5.76,0,0,1,.22,1.72c0,2.18,0,3.27,0,5.44l-2.24-.17v-5a2.33,2.33,0,0,0-.45-1.57,1.68,1.68,0,0,0-1.17-.56,1.82,1.82,0,0,0-1.17.3,1.92,1.92,0,0,0-.76.95v5.58l-2.24-.18c0-4.13,0-6.19,0-10.32l-1.24-.1C225.64,419.82,225.64,419.43,225.64,418.66Z"/><path class="cls-4" d="M245.21,431.45a2.76,2.76,0,0,1-.58.37,5.11,5.11,0,0,1-.83.32,6.09,6.09,0,0,1-1,.21,6.6,6.6,0,0,1-1.21,0,6,6,0,0,1-2-.46,4.37,4.37,0,0,1-1.48-1,4.43,4.43,0,0,1-.92-1.52,5.64,5.64,0,0,1-.32-2,5,5,0,0,1,.36-2,3.65,3.65,0,0,1,1-1.37,3.78,3.78,0,0,1,1.48-.76,5.49,5.49,0,0,1,1.83-.16,5.8,5.8,0,0,1,1.36.27,4,4,0,0,1,1.29.69,3.57,3.57,0,0,1,1,1.21,4.11,4.11,0,0,1,.37,1.85,8.26,8.26,0,0,1-.17,1.62l-6.22-.44a2.15,2.15,0,0,0,.23,1,2.07,2.07,0,0,0,.57.67,2.66,2.66,0,0,0,.81.42,4.15,4.15,0,0,0,1,.18,4.85,4.85,0,0,0,1.7-.12,3.27,3.27,0,0,0,1.08-.52Zm-3.73-6.51a2.77,2.77,0,0,0-.85.06,2.16,2.16,0,0,0-.72.31,1.79,1.79,0,0,0-.53.56,1.77,1.77,0,0,0-.24.78l4.25,0.3a2.07,2.07,0,0,0-.48-1.41A2,2,0,0,0,241.48,424.94Z"/><path class="cls-4" d="M247.85,420.31l3.68,0.24c0,3.23,0,4.85,0,8.09a3.93,3.93,0,0,0,.33,1.89,1.24,1.24,0,0,0,1.05.59,2.82,2.82,0,0,0,.88-0.06,3.17,3.17,0,0,0,.69-0.28l0.85,1.63-0.59.32a3.51,3.51,0,0,1-.62.24,4,4,0,0,1-.72.13,5.6,5.6,0,0,1-.87,0,3.44,3.44,0,0,1-2.43-1,3.48,3.48,0,0,1-.81-2.43c0-2.94,0-4.41,0-7.35l-1.43-.1C247.85,421.46,247.85,421.08,247.85,420.31Z"/><path class="cls-4" d="M256.71,424.38l2.94,0.18,0.26,1.07H260a3.09,3.09,0,0,1,2.9-1.12,4.23,4.23,0,0,1,1.46.34,3.08,3.08,0,0,1,1.14.86,4,4,0,0,1,.73,1.41,6.77,6.77,0,0,1,.26,2,6.35,6.35,0,0,1-.29,2,4,4,0,0,1-.85,1.48,3.36,3.36,0,0,1-1.35.89,4.53,4.53,0,0,1-1.81.23,7.19,7.19,0,0,1-1.05-.14,3,3,0,0,1-.86-0.31v3.59l-2.25-.14c0-4.13,0-6.2,0-10.33l-1.3-.08v-1.92Zm5.49,2a2.17,2.17,0,0,0-1.2.26,1.58,1.58,0,0,0-.75,1v3.64a2,2,0,0,0,.7.35,3.89,3.89,0,0,0,.92.17,2.31,2.31,0,0,0,.9-0.11,1.7,1.7,0,0,0,.73-0.49,2.43,2.43,0,0,0,.48-0.9,4.5,4.5,0,0,0,.17-1.34,2.75,2.75,0,0,0-.55-1.82A1.9,1.9,0,0,0,262.21,426.39Z"/><path class="cls-4" d="M276.3,433.3a2.84,2.84,0,0,1-.58.38,5.22,5.22,0,0,1-.83.33,6.17,6.17,0,0,1-1,.23,6.62,6.62,0,0,1-1.21,0,6,6,0,0,1-2-.42,4.26,4.26,0,0,1-1.48-1,4.32,4.32,0,0,1-.92-1.5,5.59,5.59,0,0,1-.32-2,5.05,5.05,0,0,1,.36-2,3.75,3.75,0,0,1,1-1.39,3.87,3.87,0,0,1,1.48-.79,5.53,5.53,0,0,1,1.83-.19,5.75,5.75,0,0,1,1.36.25,3.92,3.92,0,0,1,1.29.67,3.47,3.47,0,0,1,1,1.2,4.06,4.06,0,0,1,.37,1.84,8.29,8.29,0,0,1-.17,1.62l-6.22-.32a2.12,2.12,0,0,0,.23,1,2,2,0,0,0,.57.66,2.61,2.61,0,0,0,.81.4,4.12,4.12,0,0,0,1,.16,4.89,4.89,0,0,0,1.7-.16,3.35,3.35,0,0,0,1.08-.54Zm-3.73-6.44a2.79,2.79,0,0,0-.85.08,2.2,2.2,0,0,0-.72.33,1.84,1.84,0,0,0-.53.57,1.79,1.79,0,0,0-.24.79l4.25,0.22a2,2,0,0,0-.48-1.41A2,2,0,0,0,272.57,426.86Z"/><path class="cls-4" d="M278.12,432.39l2.14,0.1c0-2,0-2.94,0-4.9l-2.14-.1c0-.77,0-1.15,0-1.92l3.89,0.19,0.26,1.17h0.07a4.28,4.28,0,0,1,1.11-.91,2.62,2.62,0,0,1,1.45-.32,2.05,2.05,0,0,1,1.63.84,4.4,4.4,0,0,1,.6,2.6l-2-.09a1.83,1.83,0,0,0-.18-0.93,0.66,0.66,0,0,0-.58-0.31,1.63,1.63,0,0,0-1.11.3,3.25,3.25,0,0,0-.72.77c0,1.49,0,2.24,0,3.73l3.75,0.17v1.92l-8.14-.38C278.12,433.55,278.12,433.16,278.12,432.39Z"/><path class="cls-4" d="M295.68,438.8a8.22,8.22,0,0,1-2.35-.86,7.29,7.29,0,0,1-2-1.64,7.82,7.82,0,0,1-1.41-2.44,9.41,9.41,0,0,1-.53-3.28,9,9,0,0,1,.53-3.22,7.22,7.22,0,0,1,1.41-2.35,6.63,6.63,0,0,1,2-1.51,8.2,8.2,0,0,1,2.35-.73l0.42,1.89a6.93,6.93,0,0,0-1.37.45,4.75,4.75,0,0,0-1.46,1,5.56,5.56,0,0,0-1.17,1.78,7,7,0,0,0-.48,2.78,6.69,6.69,0,0,0,.5,2.73,6.35,6.35,0,0,0,1.22,1.86,5.7,5.7,0,0,0,1.48,1.13,6.13,6.13,0,0,0,1.28.51Z"/><path class="cls-4" d="M300,433.32l2.65,0.09v-7.65l-2.28,1.69-1-1.44,3.94-2.91,1.52,0.05c0,4.13,0,6.2,0,10.33l2.59,0.08v1.92l-7.38-.25v-1.92Z"/><path class="cls-4" d="M312.33,434.53a1.17,1.17,0,0,1,.39-0.93,1.37,1.37,0,0,1,1-.32,1.75,1.75,0,0,1,1.44.67,2.54,2.54,0,0,1,.48,1.57,3.28,3.28,0,0,1-.3,1.43,3.63,3.63,0,0,1-.79,1.1,4.09,4.09,0,0,1-1.08.74,4.3,4.3,0,0,1-1.18.37l-0.47-1a4.9,4.9,0,0,0,.84-0.27,3.25,3.25,0,0,0,.77-0.46,2.58,2.58,0,0,0,.58-0.66,1.82,1.82,0,0,0,.27-0.83,2.16,2.16,0,0,1-.88,0,1.37,1.37,0,0,1-.6-0.3,1.2,1.2,0,0,1-.34-0.5A1.85,1.85,0,0,1,312.33,434.53Z"/><path class="cls-4" d="M323.22,434.24a3.47,3.47,0,0,0,1-.13,2.39,2.39,0,0,0,.81-0.4,2,2,0,0,0,.53-0.62,1.61,1.61,0,0,0,.19-0.77,1.69,1.69,0,0,0-.22-0.88,1.61,1.61,0,0,0-.6-0.58,2.91,2.91,0,0,0-.92-0.32,7.29,7.29,0,0,0-1.16-.11l-1,0v-1.26l2.91-3.53-4.37-.1c0-.77,0-1.16,0-1.93l7.06,0.15c0,0.64,0,1,0,1.59l-3,3.46h0.4a3.42,3.42,0,0,1,1.18.23,3,3,0,0,1,1,.65,3.19,3.19,0,0,1,.71,1.06,3.71,3.71,0,0,1,.27,1.46,3.59,3.59,0,0,1-.41,1.74,3.86,3.86,0,0,1-1.07,1.25A4.46,4.46,0,0,1,325,436a6.21,6.21,0,0,1-1.78.22,8.81,8.81,0,0,1-1.56-.18,7.51,7.51,0,0,1-1.51-.47l0.61-1.88a2.45,2.45,0,0,0,.42.19l0.6,0.19a6.89,6.89,0,0,0,.69.16A4.89,4.89,0,0,0,323.22,434.24Z"/><path class="cls-4" d="M331.38,437.89a5.81,5.81,0,0,0,1.28-.44,5.27,5.27,0,0,0,1.48-1,5.89,5.89,0,0,0,1.22-1.79,6.48,6.48,0,0,0,.5-2.7,7.23,7.23,0,0,0-.48-2.81,6,6,0,0,0-1.17-1.85,5.15,5.15,0,0,0-1.46-1.09,7.34,7.34,0,0,0-1.37-.52l0.42-1.86a8.63,8.63,0,0,1,2.35.86,7.16,7.16,0,0,1,2,1.62,7.76,7.76,0,0,1,1.41,2.43,9.28,9.28,0,0,1,.53,3.25,9.14,9.14,0,0,1-.53,3.25,7.28,7.28,0,0,1-1.41,2.36,6.73,6.73,0,0,1-2,1.53,7.82,7.82,0,0,1-2.35.73Z"/><path class="cls-4" d="M388.51,429.56l0.09-1.91h-0.1l-1.94,3.23h-0.41l-2-3.17H384l0.1,1.71v6.72l-2.25,0V423.93l2.4,0,2.08,3.36h0.07l2.06-3.43,2.39,0c0,4.9,0,7.35,0,12.25l-2.37,0C388.51,433.47,388.51,432.17,388.51,429.56Z"/><path class="cls-4" d="M393.13,427.84a9.54,9.54,0,0,1,1.6-.57,9,9,0,0,1,2.15-.27,4.67,4.67,0,0,1,1.53.18,2.49,2.49,0,0,1,1,.6,2.3,2.3,0,0,1,.56.95,4.24,4.24,0,0,1,.17,1.26q0,0.89-.06,1.52T400,432.63a7.47,7.47,0,0,0,0,.82c0,0.16,0,.32.05,0.47l1.12,0v1.92l-2.9.07-0.23-1.18H398a3.11,3.11,0,0,1-1,1,3.29,3.29,0,0,1-1.72.43,2.84,2.84,0,0,1-2-.66,2.36,2.36,0,0,1-.76-1.84,2.84,2.84,0,0,1,.27-1.27,2.32,2.32,0,0,1,.77-0.89,3.74,3.74,0,0,1,1.22-.53,7,7,0,0,1,1.59-.2,6.42,6.42,0,0,1,.65,0l0.84,0.05a1.86,1.86,0,0,0,0-.35v-0.33a1.1,1.1,0,0,0-.38-0.95,1.79,1.79,0,0,0-1.12-.26,5.21,5.21,0,0,0-1.58.26,10.22,10.22,0,0,0-1.18.48Zm2.94,6.36a2.08,2.08,0,0,0,1.23-.33,2.12,2.12,0,0,0,.6-0.67v-1l-0.51-.07a5.76,5.76,0,0,0-.74,0,3.59,3.59,0,0,0-.65.07,2.19,2.19,0,0,0-.58.21,1.18,1.18,0,0,0-.41.35,0.85,0.85,0,0,0-.15.51,1,1,0,0,0,.28.75A1.29,1.29,0,0,0,396.07,434.21Z"/><path class="cls-4" d="M404,428.92l-1.71,0V427l1.71,0v-2l2.25-.71v2.64l4.53-.13v1.92l-4.53.13v2.5a3,3,0,0,0,.5,1.94,1.67,1.67,0,0,0,1.4.56,3,3,0,0,0,.85-0.14,3.31,3.31,0,0,0,.68-0.31,4.07,4.07,0,0,0,.55-0.4l0.46-.4,1,1.54a3.51,3.51,0,0,1-.73.66,6.4,6.4,0,0,1-1,.54,6.05,6.05,0,0,1-1.06.37,5.09,5.09,0,0,1-1.09.15,3.6,3.6,0,0,1-2.91-1,5,5,0,0,1-1-3.45v-2.5Z"/><path class="cls-4" d="M412.32,423.26l3.49-.11v4.48h0.07a3.08,3.08,0,0,1,1.11-.93,3.81,3.81,0,0,1,1.63-.39,4,4,0,0,1,1.21.13,2.18,2.18,0,0,1,1,.54,2.61,2.61,0,0,1,.62,1.07,5.51,5.51,0,0,1,.22,1.7v5.44l-2.25.08v-5a2.12,2.12,0,0,0-.45-1.52,1.5,1.5,0,0,0-1.18-.43,2,2,0,0,0-1.18.43,2.24,2.24,0,0,0-.76,1v5.58l-2.25.07V425.14l-1.25,0v-1.93Z"/><path class="cls-4" d="M426.48,433.85a1.32,1.32,0,0,1,.38-1,1.46,1.46,0,0,1,1-.4,1.4,1.4,0,0,1,1,.32,1.22,1.22,0,0,1,.38,1,1.35,1.35,0,0,1-.38,1,1.49,1.49,0,0,1-1,.41,1.33,1.33,0,0,1-1-.33A1.25,1.25,0,0,1,426.48,433.85Z"/><path class="cls-4" d="M434.29,434.67v-1.92l2-.09v-4.9l-2.06.09v-1.92l2.06-.09v-0.49a3.33,3.33,0,0,1,.29-1.43,3,3,0,0,1,.75-1,3.25,3.25,0,0,1,1.08-.62,4.52,4.52,0,0,1,1.27-.24,7.88,7.88,0,0,1,2,.11,4.75,4.75,0,0,1,1.27.44l-0.66,1.77a7.48,7.48,0,0,0-.86-0.31,3.66,3.66,0,0,0-1.18-.1,1.74,1.74,0,0,0-1.31.49,2,2,0,0,0-.37,1.3l3.63-.18v1.92l-3.63.18v4.9l3.65-.18v1.92Z"/><path class="cls-4" d="M445,426a9.82,9.82,0,0,1,1.6-.62,9.15,9.15,0,0,1,2.15-.34,4.62,4.62,0,0,1,1.53.14,2.38,2.38,0,0,1,1,.57,2.2,2.2,0,0,1,.56.93,4.19,4.19,0,0,1,.17,1.25q0,0.89-.06,1.53t-0.06,1.12a7.41,7.41,0,0,0,0,.82c0,0.16,0,.32.05,0.47l1.12-.06v1.92l-2.9.16L450,432.71H449.9a3.25,3.25,0,0,1-1,1,3.36,3.36,0,0,1-1.72.48,2.76,2.76,0,0,1-2-.59,2.29,2.29,0,0,1-.76-1.82,2.89,2.89,0,0,1,.27-1.28,2.42,2.42,0,0,1,.77-0.91,3.87,3.87,0,0,1,1.22-.57,7.13,7.13,0,0,1,1.59-.25,6.38,6.38,0,0,1,.65,0l0.84,0a1.87,1.87,0,0,0,0-.35V428.1a1.07,1.07,0,0,0-.38-0.93,1.75,1.75,0,0,0-1.11-.23,5.28,5.28,0,0,0-1.58.31,10.55,10.55,0,0,0-1.18.52Zm2.94,6.27a2.13,2.13,0,0,0,1.23-.37,2.22,2.22,0,0,0,.6-0.69v-1l-0.51-.05a5.74,5.74,0,0,0-.73,0,3.63,3.63,0,0,0-.65.1,2.25,2.25,0,0,0-.58.22,1.23,1.23,0,0,0-.41.36,0.87,0.87,0,0,0-.15.52,1,1,0,0,0,.28.75A1.26,1.26,0,0,0,447.93,432.28Z"/><path class="cls-4" d="M463.23,432.29a5.25,5.25,0,0,1-1.66.92,7.37,7.37,0,0,1-2,.39,5.43,5.43,0,0,1-2-.21,3.77,3.77,0,0,1-1.47-.85,3.68,3.68,0,0,1-.91-1.41,5.34,5.34,0,0,1-.31-1.87,5.14,5.14,0,0,1,.36-2,4.45,4.45,0,0,1,1-1.51,4.68,4.68,0,0,1,1.53-1,6,6,0,0,1,1.92-.42,6.9,6.9,0,0,1,1.81.12,7.86,7.86,0,0,1,1.29.36v3.08l-1.9.12v-1.61a4.69,4.69,0,0,0-1.07-.06,3.31,3.31,0,0,0-1,.21,2.53,2.53,0,0,0-.85.52,2.69,2.69,0,0,0-.6.85,2.79,2.79,0,0,0-.23,1.19,2.67,2.67,0,0,0,.19,1,2.28,2.28,0,0,0,.54.79,2.25,2.25,0,0,0,.86.5,3,3,0,0,0,1.13.13,4.14,4.14,0,0,0,1.62-.38,7,7,0,0,0,.94-0.55Z"/><path class="cls-4" d="M466.17,426.12l-1.71.11v-1.92l1.71-.11v-2l2.25-.79v2.64l4.52-.3v1.92l-4.52.3v2.5a2.9,2.9,0,0,0,.5,1.92,1.61,1.61,0,0,0,1.4.51,3,3,0,0,0,.85-0.17,3.45,3.45,0,0,0,.68-0.33,4.28,4.28,0,0,0,.55-0.42l0.46-.42,1,1.5a3.71,3.71,0,0,1-.73.69,6.71,6.71,0,0,1-.95.57,6.26,6.26,0,0,1-1.06.41,5.16,5.16,0,0,1-1.09.19,3.48,3.48,0,0,1-2.91-.9,4.87,4.87,0,0,1-1-3.41v-2.5Z"/><path class="cls-4" d="M475.13,428a5.65,5.65,0,0,1,.33-2,4.42,4.42,0,0,1,.93-1.52,4.36,4.36,0,0,1,1.44-1,5.66,5.66,0,0,1,1.87-.44,5.18,5.18,0,0,1,1.94.19,3.64,3.64,0,0,1,1.44.83,3.58,3.58,0,0,1,.89,1.39,5.46,5.46,0,0,1,.3,1.87,5.66,5.66,0,0,1-.33,2,4.44,4.44,0,0,1-.93,1.52,4.37,4.37,0,0,1-1.44,1,5.63,5.63,0,0,1-1.87.44,5.17,5.17,0,0,1-1.94-.19,3.65,3.65,0,0,1-1.44-.84,3.59,3.59,0,0,1-.89-1.4A5.46,5.46,0,0,1,475.13,428Zm2.31-.16a3.42,3.42,0,0,0,.16,1.06,2.41,2.41,0,0,0,.45.83,1.83,1.83,0,0,0,.71.52,2.07,2.07,0,0,0,.95.13,2.34,2.34,0,0,0,1.63-.77,3,3,0,0,0,.63-2.09,2.88,2.88,0,0,0-.59-1.91,1.87,1.87,0,0,0-1.67-.62,2.76,2.76,0,0,0-.9.21,1.93,1.93,0,0,0-.72.53,2.57,2.57,0,0,0-.47.87A4,4,0,0,0,477.45,427.82Z"/><path class="cls-4" d="M485.56,429.67l2.14-.16v-4.9l-2.14.16v-1.92l3.88-.3,0.26,1.14h0.07a5.14,5.14,0,0,1,1.1-1,2.88,2.88,0,0,1,1.45-.5,1.8,1.8,0,0,1,1.63.64,4,4,0,0,1,.59,2.52l-2,.16a1.7,1.7,0,0,0-.18-0.9,0.58,0.58,0,0,0-.58-0.24,1.81,1.81,0,0,0-1.11.44,3.91,3.91,0,0,0-.72.86v3.73l3.74-.3V431l-8.13.63v-1.92Z"/><path class="cls-4" d="M496.26,428.83l3-.25v-4.9l-3,.25V422l5.28-.44c0,2.73,0,4.1,0,6.83l3.19-.27V430l-8.47.72v-1.92Zm2.62-9.42a1.35,1.35,0,0,1,.4-1,1.65,1.65,0,0,1,1.1-.48,1.57,1.57,0,0,1,1.16.29,1.09,1.09,0,0,1,.43.89,1.25,1.25,0,0,1-.43,1,1.89,1.89,0,0,1-1.16.46,1.49,1.49,0,0,1-1.1-.27A1.08,1.08,0,0,1,498.88,419.41Z"/><path class="cls-4" d="M507.14,421.67a10.19,10.19,0,0,1,1.6-.68,9.3,9.3,0,0,1,2.15-.42,4.56,4.56,0,0,1,1.53.08,2.27,2.27,0,0,1,1,.53,2.1,2.1,0,0,1,.56.91,4.14,4.14,0,0,1,.17,1.24q0,0.89-.06,1.53T514,426a7.41,7.41,0,0,0,0,.82c0,0.16,0,.32.05,0.47l1.12-.1v1.92l-2.89.27-0.23-1.17H512a3.25,3.25,0,0,1-2.69,1.57,2.68,2.68,0,0,1-2-.52,2.2,2.2,0,0,1-.75-1.79,3,3,0,0,1,.27-1.29,2.56,2.56,0,0,1,.77-0.94,4,4,0,0,1,1.22-.62,7.24,7.24,0,0,1,1.58-.31,6.37,6.37,0,0,1,.65,0h0.84a1.89,1.89,0,0,0,0-.35v-0.33a1,1,0,0,0-.38-0.92,1.71,1.71,0,0,0-1.11-.19,5.39,5.39,0,0,0-1.58.37,11,11,0,0,0-1.18.56Zm2.94,6.16a2.2,2.2,0,0,0,1.23-.42,2.34,2.34,0,0,0,.6-0.71v-1l-0.51,0a5.72,5.72,0,0,0-.73,0,3.68,3.68,0,0,0-.65.12,2.33,2.33,0,0,0-.58.25,1.3,1.3,0,0,0-.41.38,0.9,0.9,0,0,0-.15.52,0.92,0.92,0,0,0,.28.74A1.23,1.23,0,0,0,510.08,427.83Z"/><path class="cls-4" d="M517.44,416.63l3.67-.35v8.09a3.61,3.61,0,0,0,.33,1.84,1,1,0,0,0,1.05.42,3,3,0,0,0,.88-0.2,3.82,3.82,0,0,0,.69-0.39l0.84,1.49-0.59.42a4.2,4.2,0,0,1-.62.34,4.51,4.51,0,0,1-.71.25,5.83,5.83,0,0,1-.87.15,3,3,0,0,1-2.43-.6,3,3,0,0,1-.81-2.3v-7.35l-1.43.14C517.44,417.79,517.44,417.4,517.44,416.63Z"/><path class="cls-4" d="M527.62,429.93l7.65-.79c0,0.75,0,1.12,0,1.87l-7.65.79v-1.87Z"/><path class="cls-4" d="M536.61,414.7l3.48-.37v4.48h0.07a3.42,3.42,0,0,1,1.1-1,4,4,0,0,1,1.62-.51,3.86,3.86,0,0,1,1.2,0,2,2,0,0,1,.95.47,2.37,2.37,0,0,1,.62,1,5.36,5.36,0,0,1,.22,1.68v5.44l-2.24.25v-5a2,2,0,0,0-.45-1.49,1.4,1.4,0,0,0-1.17-.34,2.14,2.14,0,0,0-1.17.52,2.48,2.48,0,0,0-.76,1.09c0,2.23,0,3.35,0,5.58l-2.24.24V416.5l-1.24.13V414.7Z"/><path class="cls-4" d="M556.14,423.83a3.6,3.6,0,0,1-.58.48,6.32,6.32,0,0,1-.83.47,7,7,0,0,1-2.25.65,5.55,5.55,0,0,1-2-.09,3.32,3.32,0,0,1-2.39-2.1,5.17,5.17,0,0,1-.32-1.9,5.53,5.53,0,0,1,.36-2.06,4.73,4.73,0,0,1,1-1.56,4.81,4.81,0,0,1,1.47-1,6,6,0,0,1,1.82-.5,5.44,5.44,0,0,1,1.35,0,3.25,3.25,0,0,1,1.28.45,2.72,2.72,0,0,1,1,1,3.69,3.69,0,0,1,.37,1.78,8.78,8.78,0,0,1-.17,1.65l-6.2.72a1.89,1.89,0,0,0,.23.92,1.57,1.57,0,0,0,.57.57,2.17,2.17,0,0,0,.81.26,3.92,3.92,0,0,0,1,0,5.29,5.29,0,0,0,1.7-.44,4.14,4.14,0,0,0,1.07-.72ZM552.42,418a3,3,0,0,0-.84.22,2.7,2.7,0,0,0-.71.45,2.35,2.35,0,0,0-.53.66,2.06,2.06,0,0,0-.24.83l4.23-.49a1.75,1.75,0,0,0-.47-1.33A1.71,1.71,0,0,0,552.42,418Z"/><path class="cls-4" d="M558.77,412.2l3.66-.44v8.09a3.56,3.56,0,0,0,.33,1.83,1,1,0,0,0,1.05.4,3.06,3.06,0,0,0,.88-0.22,3.94,3.94,0,0,0,.69-0.41l0.84,1.47-0.58.43a4.34,4.34,0,0,1-.62.36,4.65,4.65,0,0,1-.71.26,5.94,5.94,0,0,1-.87.17,2.54,2.54,0,0,1-3.23-2.83V414l-1.43.17V412.2Z"/><path class="cls-4" d="M567.59,414.61l2.92-.37,0.26,1h0.07a3.77,3.77,0,0,1,2.89-1.67,3.88,3.88,0,0,1,1.45.07,2.38,2.38,0,0,1,1.13.65,3.19,3.19,0,0,1,.73,1.27,6.32,6.32,0,0,1,.26,1.94,6.91,6.91,0,0,1-.29,2.06,5.09,5.09,0,0,1-.84,1.64,4.36,4.36,0,0,1-1.34,1.14,5,5,0,0,1-1.81.57,6.9,6.9,0,0,1-1,.06,2.61,2.61,0,0,1-.86-0.14v3.59l-2.24.28V416.38l-1.29.16C567.59,415.77,567.59,415.38,567.59,414.61Zm5.47,1a2.51,2.51,0,0,0-1.2.49,2,2,0,0,0-.75,1.09v3.64a1.6,1.6,0,0,0,.7.22,3.67,3.67,0,0,0,.92,0,2.57,2.57,0,0,0,.89-0.28,2.21,2.21,0,0,0,.72-0.63,3,3,0,0,0,.48-1,4.86,4.86,0,0,0,.17-1.37,2.36,2.36,0,0,0-.55-1.71A1.57,1.57,0,0,0,573.06,415.6Z"/><path class="cls-4" d="M587.08,419.88a3.7,3.7,0,0,1-.58.49,6.46,6.46,0,0,1-.82.49,7.16,7.16,0,0,1-1,.42,7,7,0,0,1-1.2.27,5.52,5.52,0,0,1-2,0,3.23,3.23,0,0,1-2.39-2.05,5.13,5.13,0,0,1-.32-1.89,5.59,5.59,0,0,1,.36-2.07,4.85,4.85,0,0,1,1-1.57,4.93,4.93,0,0,1,1.47-1.06,6.09,6.09,0,0,1,1.82-.53,5.42,5.42,0,0,1,1.35,0,3.19,3.19,0,0,1,1.28.43,2.64,2.64,0,0,1,1,1,3.65,3.65,0,0,1,.37,1.77,8.84,8.84,0,0,1-.17,1.65L581,418a1.87,1.87,0,0,0,.23.91,1.53,1.53,0,0,0,.57.55,2.13,2.13,0,0,0,.81.25,3.9,3.9,0,0,0,1,0,5.35,5.35,0,0,0,1.69-.47,4.24,4.24,0,0,0,1.07-.74Zm-3.71-5.74a3.05,3.05,0,0,0-.84.24,2.77,2.77,0,0,0-.71.46,2.41,2.41,0,0,0-.52.67,2.09,2.09,0,0,0-.24.83l4.23-.57a1.72,1.72,0,0,0-.47-1.32A1.68,1.68,0,0,0,583.37,414.13Z"/><path class="cls-4" d="M588.89,418.63l2.13-.3v-4.9l-2.13.3v-1.92l3.86-.54,0.26,1.12h0.07a5.62,5.62,0,0,1,1.1-1.12,3,3,0,0,1,1.44-.59,1.69,1.69,0,0,1,1.62.54,3.89,3.89,0,0,1,.59,2.49l-2,.29a1.64,1.64,0,0,0-.18-0.89,0.54,0.54,0,0,0-.57-0.21,1.92,1.92,0,0,0-1.11.51,4.28,4.28,0,0,0-.71.91V418l3.73-.53v1.92l-8.09,1.14v-1.92Z"/><path class="cls-4" d="M606.32,421.76a7,7,0,0,1-2.33-.42,5.57,5.57,0,0,1-2-1.26,6.11,6.11,0,0,1-1.4-2.18,8.65,8.65,0,0,1-.52-3.18,9.94,9.94,0,0,1,.52-3.32,9.17,9.17,0,0,1,1.4-2.61,8.64,8.64,0,0,1,2-1.89,9.83,9.83,0,0,1,2.33-1.17l0.41,1.81a8.36,8.36,0,0,0-1.36.7,6.17,6.17,0,0,0-1.45,1.28,7.14,7.14,0,0,0-1.16,2,7.77,7.77,0,0,0-.47,2.87,6.07,6.07,0,0,0,.5,2.64,4.9,4.9,0,0,0,1.21,1.63,4.38,4.38,0,0,0,1.47.85,5.18,5.18,0,0,0,1.27.27Z"/><path class="cls-4" d="M613.07,415.35a3.79,3.79,0,0,0,1-.31,3,3,0,0,0,.81-0.54,2.51,2.51,0,0,0,.52-0.71,1.82,1.82,0,0,0,.19-0.8,1.51,1.51,0,0,0-.21-0.85,1.24,1.24,0,0,0-.59-0.47,2.52,2.52,0,0,0-.91-0.16,7.13,7.13,0,0,0-1.15.09l-1,.15v-1.26l2.88-4-4.34.66c0-.77,0-1.16,0-1.93l7-1.08v1.59l-3,4,0.39-.06a3.18,3.18,0,0,1,1.17,0,2.38,2.38,0,0,1,1,.47,2.5,2.5,0,0,1,.7.94,3.4,3.4,0,0,1,.27,1.41,4,4,0,0,1-.4,1.81,5,5,0,0,1-1.06,1.43,5.53,5.53,0,0,1-1.52,1,6.78,6.78,0,0,1-1.77.53,8.55,8.55,0,0,1-1.54.1,6.61,6.61,0,0,1-1.49-.21l0.6-2a2.06,2.06,0,0,0,.42.11l0.6,0.08a6.31,6.31,0,0,0,.69,0A4.78,4.78,0,0,0,613.07,415.35Z"/><path class="cls-4" d="M622.84,414.38a1.41,1.41,0,0,1,.39-1,1.64,1.64,0,0,1,1-.51,1.45,1.45,0,0,1,1.42.4,2.18,2.18,0,0,1,.48,1.48,3.7,3.7,0,0,1-.3,1.48,4.7,4.7,0,0,1-.78,1.25,5.32,5.32,0,0,1-1.07.94,5.14,5.14,0,0,1-1.17.59l-0.46-.89a5.89,5.89,0,0,0,.83-0.43,4.19,4.19,0,0,0,.76-0.6,3.39,3.39,0,0,0,.57-0.77,2.14,2.14,0,0,0,.27-0.88,2.23,2.23,0,0,1-.87.17,1.11,1.11,0,0,1-.59-0.19,0.93,0.93,0,0,1-.33-0.44A1.7,1.7,0,0,1,622.84,414.38Z"/><path class="cls-4" d="M638.33,413l-7.64,1.27v-1.7l0.51-.55,0.69-.77,0.81-.94c0.28-.34.57-0.69,0.84-1s0.73-1,1-1.38a10.62,10.62,0,0,0,.72-1.14,5.11,5.11,0,0,0,.42-1,3.61,3.61,0,0,0,.14-1,1.44,1.44,0,0,0-.15-0.66,1.46,1.46,0,0,0-.43-0.51,1.66,1.66,0,0,0-.66-0.29,2.24,2.24,0,0,0-.85,0,3.53,3.53,0,0,0-1.12.38,4.81,4.81,0,0,0-1.05.82L630.7,403a9.41,9.41,0,0,1,1.6-1.15,6.06,6.06,0,0,1,2-.7,4.59,4.59,0,0,1,1.41,0,3.08,3.08,0,0,1,1.2.42,2.36,2.36,0,0,1,.83.88,2.8,2.8,0,0,1,.31,1.37,5.66,5.66,0,0,1-.09,1.06,5.87,5.87,0,0,1-.29,1,8.07,8.07,0,0,1-.51,1.08q-0.32.56-.76,1.23-0.34.51-.74,1t-0.8,1q-0.39.49-.78,0.92t-0.69.73l4.93-.83V413Z"/><path class="cls-4" d="M641.71,414.18a7,7,0,0,0,1.27-.68,6.85,6.85,0,0,0,1.46-1.32,7.59,7.59,0,0,0,1.21-2,7.23,7.23,0,0,0,.5-2.8,6.64,6.64,0,0,0-.47-2.72,4.64,4.64,0,0,0-1.15-1.63,4,4,0,0,0-1.45-.82,6.21,6.21,0,0,0-1.36-.27l0.41-1.94a7.35,7.35,0,0,1,2.33.42,5.47,5.47,0,0,1,2,1.25,6.08,6.08,0,0,1,1.39,2.16,8.56,8.56,0,0,1,.52,3.16,10.08,10.08,0,0,1-.52,3.35,9.26,9.26,0,0,1-1.39,2.62,8.78,8.78,0,0,1-2,1.9,9.33,9.33,0,0,1-2.33,1.17Z"/></svg>