<svg id="Layer_1" data-name="Layer 1" xmlns="http://www.w3.org/2000/svg" viewBox="0 0 720 576"><defs><style>.cls-1,.cls-2,.cls-4,.cls-6{fill:#231f20;}.cls-1,.cls-3{stroke:#231f20;}.cls-1,.cls-6{stroke-miterlimit:10;}.cls-1,.cls-2,.cls-3{stroke-width:2px;}.cls-2{stroke:#000;}.cls-2,.cls-3{stroke-linecap:round;stroke-linejoin:round;}.cls-3,.cls-5{fill:#fff;}.cls-6{stroke:#fff;}</style></defs><title>Hanoi_Tower_Set_Elixir_4</title><path class="cls-1" d="M656,522.57c0-.14,0-0.29,0-0.43s0-.29,0-0.43V469.92H64.18s-0.23,51.74-.23,52.22c0,2.67,2.12,5.24,6.08,7.71,13.87,8.61,50.58,16.11,101.74,21.48S288.5,559.92,360,559.92c81.71,0,155.68-4.21,209.24-11,26.78-3.41,48.45-7.46,63.44-12,7.5-2.25,13.32-4.62,17.29-7.08,3.38-2.1,5.41-4.29,5.94-6.55H656v-0.73Z"/><ellipse class="cls-2" cx="360" cy="471" rx="295.87" ry="37.63"/><path class="cls-3" d="M656,471.09c0-.14,0-0.29,0-0.43s0-.29,0-0.43V418.44H64.18s-0.23,51.74-.23,52.22c0,2.67,2.12,5.24,6.08,7.71,13.87,8.61,50.58,16.11,101.74,21.48S288.5,508.44,360,508.44c81.71,0,155.68-4.21,209.24-11,26.78-3.41,48.45-7.46,63.44-12,7.5-2.25,13.32-4.62,17.29-7.08,3.38-2.1,5.41-4.29,5.94-6.55H656v-0.73Z"/><ellipse class="cls-3" cx="360" cy="419.52" rx="295.87" ry="37.63"/><path class="cls-4" d="M360,428.3c-16,0-29-3.75-30.2-8.61h-0.08l0-.5V24.35h60.63V419.69H390.2C389,424.55,376,428.3,360,428.3Z"/><path class="cls-5" d="M389.82,24.85V419.19h0c-0.49,4.78-13.63,8.61-29.79,8.61s-29.3-3.83-29.79-8.61h0V419s0,0,0-.06,0,0,0-.06v-394h59.63m1-1H329.19v395s0,0.07,0,.11v1.27h0.23c2,5.6,16.84,8.61,30.58,8.61s28.6-3,30.58-8.61h0.21l0-1V23.85h0Z"/><ellipse class="cls-6" cx="359.99" cy="24.97" rx="29.81" ry="8.89"/><path class="cls-4" d="M99,462.3l0.09-1.89-0.1,0L97,463.26l-0.42-.07-2-3.55H94.48l0.1,1.73v6.72l-2.26-.39V455.43l2.41,0.42,2.09,3.75h0.07l2.07-3,2.4,0.41c0,4.9,0,7.35,0,12.25l-2.38-.4C99,466.21,99,464.91,99,462.3Z"/><path class="cls-4" d="M103.62,461.45a8.39,8.39,0,0,1,1.61-.27,9,9,0,0,1,2.16.13,5.31,5.31,0,0,1,1.54.47,3.21,3.21,0,0,1,1,.79,2.91,2.91,0,0,1,.57,1.05,4.54,4.54,0,0,1,.17,1.29q0,0.89-.06,1.51t-0.06,1.11a7.66,7.66,0,0,0,0,.83c0,0.16,0,.33.05,0.48l1.13,0.18v1.92l-2.92-.47-0.23-1.23h-0.09a2.37,2.37,0,0,1-1,.77,3,3,0,0,1-1.73.11,3.46,3.46,0,0,1-2.06-1,2.83,2.83,0,0,1-.76-2,2.52,2.52,0,0,1,.27-1.22,1.77,1.77,0,0,1,.78-0.75,3.19,3.19,0,0,1,1.23-.3,7.06,7.06,0,0,1,1.6.1c0.21,0,.43.08,0.66,0.14l0.85,0.21a1.76,1.76,0,0,0,0-.34v-0.33a1.31,1.31,0,0,0-.38-1,2.13,2.13,0,0,0-1.12-.47,5,5,0,0,0-1.59,0,9,9,0,0,0-1.19.26Zm3,6.91a1.9,1.9,0,0,0,1.24-.1,1.6,1.6,0,0,0,.6-0.56v-1l-0.52-.16a6.39,6.39,0,0,0-.74-0.16,3.56,3.56,0,0,0-.65,0,1.91,1.91,0,0,0-.58.1,0.91,0.91,0,0,0-.41.27,0.72,0.72,0,0,0-.15.48,1.17,1.17,0,0,0,.28.81A1.55,1.55,0,0,0,106.58,468.36Z"/><path class="cls-4" d="M114.5,464.56l-1.72-.28v-1.92l1.72,0.28v-2l2.26-.29V463l4.56,0.71v1.92l-4.56-.71v2.5a3.4,3.4,0,0,0,.51,2,2.07,2.07,0,0,0,1.41.83,2.91,2.91,0,0,0,.85,0,2.79,2.79,0,0,0,.69-0.18,3.17,3.17,0,0,0,.56-0.3l0.46-.31,1,1.74a2.69,2.69,0,0,1-.74.52,5.23,5.23,0,0,1-1,.36,5.37,5.37,0,0,1-1.07.17,5,5,0,0,1-1.1,0,4.43,4.43,0,0,1-2.93-1.56,5.77,5.77,0,0,1-1-3.63v-2.5Z"/><path class="cls-4" d="M122.93,460.46l3.52,0.54c0,1.79,0,2.69,0,4.48h0.07a2.38,2.38,0,0,1,1.11-.72,3.57,3.57,0,0,1,1.64-.09,4.47,4.47,0,0,1,1.22.36,2.84,2.84,0,0,1,1,.72,3.3,3.3,0,0,1,.63,1.19,5.88,5.88,0,0,1,.23,1.74v5.44l-2.27-.34v-5a2.45,2.45,0,0,0-.45-1.61,1.85,1.85,0,0,0-1.18-.65,1.77,1.77,0,0,0-1.18.21,1.73,1.73,0,0,0-.77.89c0,2.23,0,3.35,0,5.58l-2.26-.35V462.57l-1.25-.19v-1.92Z"/><path class="cls-4" d="M137.2,473.68a1.1,1.1,0,0,1,.38-0.92,1.28,1.28,0,0,1,1-.21,1.7,1.7,0,0,1,1,.51,1.45,1.45,0,0,1,.38,1,1.12,1.12,0,0,1-.38.93,1.3,1.3,0,0,1-1,.22,1.63,1.63,0,0,1-1-.51A1.49,1.49,0,0,1,137.2,473.68Z"/><path class="cls-4" d="M145.08,476V474l2.06,0.29v-4.9l-2.08-.29V467.2l2.08,0.29V467a3,3,0,0,1,.29-1.38,2.33,2.33,0,0,1,.76-0.88,2.67,2.67,0,0,1,1.09-.42,4.36,4.36,0,0,1,1.28,0,8.72,8.72,0,0,1,2,.47,5.88,5.88,0,0,1,1.28.67l-0.66,1.64a9.24,9.24,0,0,0-.86-0.47,4.12,4.12,0,0,0-1.2-.32,1.53,1.53,0,0,0-1.32.25,1.71,1.71,0,0,0-.38,1.23l3.66,0.5v1.92l-3.66-.5v4.9l3.68,0.5v1.92Z"/><path class="cls-4" d="M155.88,469.27a8.61,8.61,0,0,1,1.61-.33,9,9,0,0,1,2.17.06,5.2,5.2,0,0,1,1.54.42,3.06,3.06,0,0,1,1,.75,2.78,2.78,0,0,1,.57,1,4.46,4.46,0,0,1,.17,1.28q0,0.89-.06,1.51t-0.06,1.11a7.61,7.61,0,0,0,0,.83c0,0.16,0,.33.05,0.48l1.14,0.14v1.92l-2.93-.37-0.23-1.22h-0.09a2.49,2.49,0,0,1-1,.81,3.09,3.09,0,0,1-1.73.17,3.34,3.34,0,0,1-2.06-1,2.73,2.73,0,0,1-.76-2,2.57,2.57,0,0,1,.27-1.23,1.87,1.87,0,0,1,.78-0.77,3.29,3.29,0,0,1,1.23-.35,7.08,7.08,0,0,1,1.6,0c0.21,0,.43.07,0.66,0.12l0.85,0.18a1.77,1.77,0,0,0,0-.35v-0.33a1.27,1.27,0,0,0-.38-1,2.07,2.07,0,0,0-1.13-.44,5.08,5.08,0,0,0-1.59,0,9.23,9.23,0,0,0-1.2.3Zm3,6.81a1.94,1.94,0,0,0,1.24-.15,1.69,1.69,0,0,0,.6-0.58v-1l-0.52-.15a6.29,6.29,0,0,0-.74-0.14,3.57,3.57,0,0,0-.66,0,2,2,0,0,0-.59.12,1,1,0,0,0-.41.29,0.74,0.74,0,0,0-.15.49,1.13,1.13,0,0,0,.28.8A1.51,1.51,0,0,0,158.85,476.08Z"/><path class="cls-4" d="M174.31,478.91a4.38,4.38,0,0,1-1.68.61,7.14,7.14,0,0,1-2,0,6.14,6.14,0,0,1-2-.58,4.86,4.86,0,0,1-1.48-1.12,4.68,4.68,0,0,1-.92-1.58,5.79,5.79,0,0,1-.31-1.93,4.61,4.61,0,0,1,.37-1.91,3.46,3.46,0,0,1,1-1.32,3.79,3.79,0,0,1,1.55-.71,5.74,5.74,0,0,1,1.94-.07,7.65,7.65,0,0,1,1.83.45,9.65,9.65,0,0,1,1.31.6c0,1.23,0,1.85,0,3.08l-1.92-.23v-1.61a5.26,5.26,0,0,0-1.08-.25,3.18,3.18,0,0,0-1,0,2,2,0,0,0-1.47,1.1,2.5,2.5,0,0,0-.24,1.14,2.88,2.88,0,0,0,1.6,2.6,3.38,3.38,0,0,0,1.14.34,3.9,3.9,0,0,0,1.63-.08,5.78,5.78,0,0,0,1-.37Z"/><path class="cls-4" d="M177.28,473.28l-1.73-.21v-1.92l1.73,0.21v-2l2.27-.38v2.64l4.58,0.53v1.92l-4.58-.53c0,1,0,1.5,0,2.5a3.29,3.29,0,0,0,.51,2,2,2,0,0,0,1.42.77,2.85,2.85,0,0,0,1.55-.22,3.37,3.37,0,0,0,.56-0.32l0.46-.33,1,1.69a2.86,2.86,0,0,1-.74.55,5.53,5.53,0,0,1-2,.62,5,5,0,0,1-1.1,0,4.24,4.24,0,0,1-2.94-1.44,5.58,5.58,0,0,1-1-3.59v-2.5Z"/><path class="cls-4" d="M186.36,476.77a5.1,5.1,0,0,1,.33-1.92,3.45,3.45,0,0,1,.94-1.35,3.51,3.51,0,0,1,1.46-.74,5.39,5.39,0,0,1,1.9-.1,5.87,5.87,0,0,1,2,.55,4.72,4.72,0,0,1,1.46,1.09,4.52,4.52,0,0,1,.9,1.56,5.87,5.87,0,0,1,.31,1.92,5.11,5.11,0,0,1-.33,1.92,3.47,3.47,0,0,1-.94,1.35,3.5,3.5,0,0,1-1.46.74,5.35,5.35,0,0,1-1.9.1,5.85,5.85,0,0,1-2-.55,4.72,4.72,0,0,1-1.46-1.1,4.55,4.55,0,0,1-.9-1.56A5.9,5.9,0,0,1,186.36,476.77ZM188.7,477a3.65,3.65,0,0,0,.16,1.08,3,3,0,0,0,.45.91,2.42,2.42,0,0,0,.72.65,2.38,2.38,0,0,0,1,.31,2,2,0,0,0,1.65-.47,2.58,2.58,0,0,0,.64-2,3.31,3.31,0,0,0-.59-2,2.31,2.31,0,0,0-1.7-.93,2.6,2.6,0,0,0-.91,0,1.55,1.55,0,0,0-.73.4,2.05,2.05,0,0,0-.48.79A3.61,3.61,0,0,0,188.7,477Z"/><path class="cls-4" d="M196.92,480.37l2.17,0.23v-4.9l-2.17-.23v-1.92l3.94,0.41,0.26,1.18h0.07a4,4,0,0,1,1.12-.85,2.6,2.6,0,0,1,1.47-.24,2.23,2.23,0,0,1,1.65.94,4.53,4.53,0,0,1,.6,2.63l-2-.2a1.87,1.87,0,0,0-.18-0.94,0.72,0.72,0,0,0-.59-0.35,1.61,1.61,0,0,0-1.13.24,3,3,0,0,0-.73.73v3.73l3.8,0.38v1.92l-8.24-.85v-1.92Z"/><path class="cls-4" d="M207.77,481.48l3.08,0.3v-4.9l-3.08-.3v-1.92l5.36,0.52V482l3.24,0.3v1.92l-8.6-.82v-1.92Zm2.66-8.95a1.12,1.12,0,0,1,.4-0.89,1.44,1.44,0,0,1,1.12-.28,1.88,1.88,0,0,1,1.17.5,1.32,1.32,0,0,1,.44,1,1,1,0,0,1-.44.88A1.67,1.67,0,0,1,212,474a1.78,1.78,0,0,1-1.12-.47A1.3,1.3,0,0,1,210.43,472.53Z"/><path class="cls-4" d="M218.81,476.29a8.89,8.89,0,0,1,1.62-.4,9.08,9.08,0,0,1,2.18,0,5.08,5.08,0,0,1,1.55.36,2.9,2.9,0,0,1,1,.71,2.64,2.64,0,0,1,.57,1,4.38,4.38,0,0,1,.17,1.27q0,0.89-.06,1.52c0,0.42-.06.79-0.06,1.11a7.53,7.53,0,0,0,0,.83c0,0.16,0,.32.05,0.48l1.14,0.1v1.92l-2.94-.25-0.23-1.21h-0.09a2.65,2.65,0,0,1-1,.85,3.16,3.16,0,0,1-1.74.24,3.22,3.22,0,0,1-2.07-.89,2.87,2.87,0,0,1-.5-3.17,2,2,0,0,1,.78-0.8,3.42,3.42,0,0,1,1.24-.4,7.13,7.13,0,0,1,1.61,0c0.21,0,.43,0,0.66.09l0.85,0.14a1.79,1.79,0,0,0,0-.35v-0.33a1.22,1.22,0,0,0-.38-1,2,2,0,0,0-1.13-.39,5.13,5.13,0,0,0-1.6.08,9.57,9.57,0,0,0-1.2.35Zm3,6.69a2,2,0,0,0,1.25-.2,1.79,1.79,0,0,0,.61-0.6v-1l-0.52-.12a6.31,6.31,0,0,0-.74-0.11,3.58,3.58,0,0,0-.66,0,2,2,0,0,0-.59.14,1,1,0,0,0-.42.3,0.76,0.76,0,0,0-.16.49,1.09,1.09,0,0,0,.29.79A1.45,1.45,0,0,0,221.79,483Z"/><path class="cls-4" d="M229.27,473.11l3.73,0.31c0,3.23,0,4.85,0,8.09a3.92,3.92,0,0,0,.33,1.9,1.28,1.28,0,0,0,1.07.61,2.9,2.9,0,0,0,.89,0,3.17,3.17,0,0,0,.7-0.27l0.86,1.64-0.6.31a3.52,3.52,0,0,1-.63.23,4.07,4.07,0,0,1-.73.12,5.73,5.73,0,0,1-.88,0,3.59,3.59,0,0,1-2.47-1,3.51,3.51,0,0,1-.82-2.45c0-2.94,0-4.41,0-7.35l-1.45-.12v-1.93Z"/><path class="cls-4" d="M246.23,490.41a8.7,8.7,0,0,1-2.38-.95,7.76,7.76,0,0,1-2.05-1.71,8.17,8.17,0,0,1-1.43-2.49,9.45,9.45,0,0,1-.53-3.3,8.79,8.79,0,0,1,.53-3.2,6.87,6.87,0,0,1,1.43-2.3,6.38,6.38,0,0,1,2.05-1.44,8.18,8.18,0,0,1,2.38-.65l0.42,1.9a6.93,6.93,0,0,0-1.39.4,4.6,4.6,0,0,0-1.48,1,5.29,5.29,0,0,0-1.18,1.74,6.83,6.83,0,0,0-.48,2.76,6.72,6.72,0,0,0,.51,2.75,6.64,6.64,0,0,0,1.24,1.9,6.09,6.09,0,0,0,1.5,1.18,6.48,6.48,0,0,0,1.3.56Z"/><path class="cls-4" d="M253.12,485.51a3.52,3.52,0,0,0,1.06-.08,2.31,2.31,0,0,0,.82-0.36,1.83,1.83,0,0,0,.54-0.59,1.54,1.54,0,0,0,.19-0.76,1.65,1.65,0,0,0-.82-1.5,3.12,3.12,0,0,0-.93-0.36,7.69,7.69,0,0,0-1.18-.17l-1-.07v-1.26l2.95-3.39-4.44-.31v-1.93l7.15,0.49c0,0.64,0,1,0,1.59l-3.09,3.31,0.4,0a3.61,3.61,0,0,1,1.19.29,3.23,3.23,0,0,1,1,.7,3.41,3.41,0,0,1,.72,1.1,3.77,3.77,0,0,1,.27,1.47,3.44,3.44,0,0,1-.41,1.72,3.63,3.63,0,0,1-1.09,1.2,4.31,4.31,0,0,1-1.55.67,6.32,6.32,0,0,1-1.81.13,9.24,9.24,0,0,1-1.58-.25,8.09,8.09,0,0,1-1.53-.54l0.61-1.85a2.61,2.61,0,0,0,.43.21l0.61,0.22q0.34,0.11.7,0.19A5,5,0,0,0,253.12,485.51Z"/><path class="cls-4" d="M261.4,489.54a5.68,5.68,0,0,0,1.3-.38,5,5,0,0,0,1.5-1,5.51,5.51,0,0,0,1.24-1.74,6.25,6.25,0,0,0,.51-2.68,7.33,7.33,0,0,0-.48-2.83,6.36,6.36,0,0,0-1.18-1.9,5.57,5.57,0,0,0-1.48-1.16,7.86,7.86,0,0,0-1.39-.59l0.42-1.85a9.26,9.26,0,0,1,2.39,1,7.76,7.76,0,0,1,2.05,1.72,8.23,8.23,0,0,1,1.43,2.49,9.36,9.36,0,0,1,.54,3.28,8.82,8.82,0,0,1-.54,3.22,6.85,6.85,0,0,1-1.43,2.29,6.39,6.39,0,0,1-2.05,1.43,7.74,7.74,0,0,1-2.39.62Z"/><path class="cls-4" d="M627.68,463.88a4.34,4.34,0,0,1-.32,1.65,5.07,5.07,0,0,1-.88,1.43,5.21,5.21,0,0,1-1.33,1.09,5,5,0,0,1-1.66.6,4.68,4.68,0,0,1-1.69,0,3.11,3.11,0,0,1-1.38-.63,3.26,3.26,0,0,1-.94-1.29,5,5,0,0,1-.35-2,8.78,8.78,0,0,1,.6-3.25,10.88,10.88,0,0,1,1.54-2.72,10.36,10.36,0,0,1,2.1-2,8.48,8.48,0,0,1,2.31-1.21l0.5,1.72a8.14,8.14,0,0,0-3.14,2.06,7.33,7.33,0,0,0-1.05,1.42,5.24,5.24,0,0,0-.58,1.52,3.42,3.42,0,0,1,1-.92,4.3,4.3,0,0,1,1.53-.57,4,4,0,0,1,1.46,0,2.61,2.61,0,0,1,2,1.58A3.8,3.8,0,0,1,627.68,463.88Zm-2.19.47a1.51,1.51,0,0,0-.56-1.34,2,2,0,0,0-1.52-.23,2.9,2.9,0,0,0-1.25.53,2.84,2.84,0,0,0-.82.87,3.07,3.07,0,0,0,0,.44c0,0.16,0,.28,0,0.38a2.15,2.15,0,0,0,.14.78,1.56,1.56,0,0,0,.41.6,1.54,1.54,0,0,0,.65.34,2.08,2.08,0,0,0,.89,0,2.43,2.43,0,0,0,.78-0.28,2.82,2.82,0,0,0,.68-0.53,2.57,2.57,0,0,0,.48-0.72A2.08,2.08,0,0,0,625.49,464.35Z"/></svg>