<svg id="Layer_1" data-name="Layer 1" xmlns="http://www.w3.org/2000/svg" viewBox="0 0 720 576"><defs><style>.cls-1,.cls-2,.cls-4,.cls-6{fill:#231f20;}.cls-1,.cls-3{stroke:#231f20;}.cls-1,.cls-6{stroke-miterlimit:10;}.cls-2{stroke:#000;}.cls-2,.cls-3{stroke-linecap:round;stroke-linejoin:round;stroke-width:2px;}.cls-3,.cls-5{fill:#fff;}.cls-6{stroke:#fff;}</style></defs><title>Hanoi_Tower_Set_Elixir_5</title><path class="cls-1" d="M656,522.57c0-.14,0-0.29,0-0.43s0-.29,0-0.43V469.92H64.18s-0.23,51.74-.23,52.22c0,2.67,2.12,5.24,6.08,7.71,13.87,8.61,50.58,16.11,101.74,21.48S288.5,559.92,360,559.92c81.71,0,155.68-4.21,209.24-11,26.78-3.41,48.45-7.46,63.44-12,7.5-2.25,13.32-4.62,17.29-7.08,3.38-2.1,5.41-4.29,5.94-6.55H656v-0.73Z"/><ellipse class="cls-2" cx="360" cy="471" rx="295.87" ry="37.63"/><path class="cls-3" d="M656,471.09c0-.14,0-0.29,0-0.43s0-.29,0-0.43V418.44H64.18s-0.23,51.74-.23,52.22c0,2.67,2.12,5.24,6.08,7.71,13.87,8.61,50.58,16.11,101.74,21.48S288.5,508.44,360,508.44c81.71,0,155.68-4.21,209.24-11,26.78-3.41,48.45-7.46,63.44-12,7.5-2.25,13.32-4.62,17.29-7.08,3.38-2.1,5.41-4.29,5.94-6.55H656v-0.73Z"/><ellipse class="cls-3" cx="360" cy="419.52" rx="295.87" ry="37.63"/><path class="cls-4" d="M360,428.3c-16,0-29-3.75-30.2-8.61h-0.08l0-.5V24.35h60.63V419.69H390.2C389,424.55,376,428.3,360,428.3Z"/><path class="cls-5" d="M389.82,24.85V419.19h0c-0.49,4.78-13.63,8.61-29.79,8.61s-29.3-3.83-29.79-8.61h0V419s0,0,0-.06,0,0,0-.06v-394h59.63m1-1H329.19v395s0,0.07,0,.11v1.27h0.23c2,5.6,16.84,8.61,30.58,8.61s28.6-3,30.58-8.61h0.21l0-1V23.85h0Z"/><ellipse class="cls-6" cx="359.99" cy="24.97" rx="29.81" ry="8.89"/><path class="cls-4" d="M84.31,459l0.09-1.89-0.1,0-1.95,2.87-0.42-.07-2-3.55-0.09,0,0.1,1.73c0,2.69,0,4,0,6.72l-2.26-.39c0-4.9,0-7.35,0-12.25l2.41,0.42,2.09,3.75h0.07l2.07-3,2.4,0.41v12.25l-2.38-.4V459Z"/><path class="cls-4" d="M88.95,458.13a8.39,8.39,0,0,1,1.61-.27,9,9,0,0,1,2.16.13,5.31,5.31,0,0,1,1.54.47,3.21,3.21,0,0,1,1,.79,2.9,2.9,0,0,1,.56,1.05,4.53,4.53,0,0,1,.17,1.29c0,0.59,0,1.1-.06,1.51s-0.06.78-.06,1.11a7.71,7.71,0,0,0,0,.83c0,0.16,0,.33.05,0.48l1.13,0.18v1.92l-2.92-.48L94,465.93H93.89a2.37,2.37,0,0,1-1,.77,3,3,0,0,1-1.73.11,3.47,3.47,0,0,1-2.06-1,2.83,2.83,0,0,1-.76-2,2.52,2.52,0,0,1,.27-1.22,1.77,1.77,0,0,1,.78-0.74,3.19,3.19,0,0,1,1.23-.3,7.07,7.07,0,0,1,1.6.1q0.31,0.05.66,0.14L93.73,462a1.69,1.69,0,0,0,0-.34v-0.33a1.31,1.31,0,0,0-.38-1,2.13,2.13,0,0,0-1.12-.47,5,5,0,0,0-1.59,0,9,9,0,0,0-1.19.26Zm3,6.92a1.9,1.9,0,0,0,1.24-.1,1.61,1.61,0,0,0,.6-0.56v-1l-0.52-.16a6.49,6.49,0,0,0-.74-0.16,3.6,3.6,0,0,0-.65,0,1.91,1.91,0,0,0-.58.1,0.91,0.91,0,0,0-.41.27,0.72,0.72,0,0,0-.16.48,1.17,1.17,0,0,0,.28.81A1.56,1.56,0,0,0,91.91,465Z"/><path class="cls-4" d="M99.83,461.25L98.11,461V459l1.72,0.28v-2l2.26-.29v2.64l4.56,0.72v1.92l-4.56-.72v2.5a3.4,3.4,0,0,0,.5,2A2.08,2.08,0,0,0,104,467a2.92,2.92,0,0,0,.85,0,2.82,2.82,0,0,0,.69-0.18,3.17,3.17,0,0,0,.56-0.3l0.46-.31,1,1.74a2.68,2.68,0,0,1-.74.52,5.2,5.2,0,0,1-1,.36,5.36,5.36,0,0,1-1.07.17,5,5,0,0,1-1.1,0,4.43,4.43,0,0,1-2.93-1.56,5.78,5.78,0,0,1-1-3.63v-2.5Z"/><path class="cls-4" d="M108.26,457.15l3.52,0.54c0,1.79,0,2.69,0,4.48h0.07a2.38,2.38,0,0,1,1.12-.72,3.55,3.55,0,0,1,1.64-.08,4.47,4.47,0,0,1,1.22.36,2.84,2.84,0,0,1,1,.72,3.29,3.29,0,0,1,.63,1.19,5.88,5.88,0,0,1,.23,1.74v5.44l-2.26-.34v-5a2.45,2.45,0,0,0-.45-1.61,1.85,1.85,0,0,0-1.18-.65,1.77,1.77,0,0,0-1.18.21,1.72,1.72,0,0,0-.77.89v5.58l-2.26-.35V459.27l-1.25-.19v-1.92Z"/><path class="cls-4" d="M122.52,470.4a1.09,1.09,0,0,1,.38-0.91,1.27,1.27,0,0,1,1-.21,1.7,1.7,0,0,1,1,.51,1.45,1.45,0,0,1,.38,1,1.12,1.12,0,0,1-.38.93,1.3,1.3,0,0,1-1,.22,1.63,1.63,0,0,1-1-.51A1.49,1.49,0,0,1,122.52,470.4Z"/><path class="cls-4" d="M130.4,472.68v-1.92l2.06,0.29v-4.9l-2.08-.29v-1.92l2.08,0.29v-0.49a3,3,0,0,1,.29-1.38,2.33,2.33,0,0,1,.76-0.87,2.66,2.66,0,0,1,1.09-.42,4.37,4.37,0,0,1,1.28,0,8.73,8.73,0,0,1,2,.47,5.87,5.87,0,0,1,1.28.67l-0.66,1.64a9.23,9.23,0,0,0-.86-0.47,4.11,4.11,0,0,0-1.19-.32,1.53,1.53,0,0,0-1.32.25,1.7,1.7,0,0,0-.37,1.23l3.66,0.5V467l-3.66-.5v4.9l3.68,0.51v1.92Z"/><path class="cls-4" d="M141.2,466a8.59,8.59,0,0,1,1.61-.33,9,9,0,0,1,2.17.06,5.2,5.2,0,0,1,1.54.42,3.08,3.08,0,0,1,1,.76,2.79,2.79,0,0,1,.57,1,4.47,4.47,0,0,1,.17,1.28q0,0.89-.06,1.51c0,0.41-.06.79-0.06,1.11a7.63,7.63,0,0,0,0,.83c0,0.16,0,.33.05,0.48l1.13,0.15v1.92l-2.93-.38-0.23-1.22h-0.09a2.48,2.48,0,0,1-1,.81,3.09,3.09,0,0,1-1.73.16,3.35,3.35,0,0,1-2.06-1,2.73,2.73,0,0,1-.76-2,2.57,2.57,0,0,1,.27-1.23,1.86,1.86,0,0,1,.78-0.77,3.28,3.28,0,0,1,1.23-.34,7.08,7.08,0,0,1,1.6,0q0.31,0,.66.12l0.85,0.18a1.78,1.78,0,0,0,0-.35V469a1.28,1.28,0,0,0-.38-1,2.08,2.08,0,0,0-1.13-.44,5.08,5.08,0,0,0-1.6,0,9.25,9.25,0,0,0-1.19.3Zm3,6.82a1.93,1.93,0,0,0,1.24-.14,1.69,1.69,0,0,0,.6-0.58v-1l-0.52-.15a6.3,6.3,0,0,0-.74-0.14,3.56,3.56,0,0,0-.66,0,2,2,0,0,0-.59.12,1,1,0,0,0-.41.29,0.74,0.74,0,0,0-.15.49,1.13,1.13,0,0,0,.28.8A1.51,1.51,0,0,0,144.17,472.83Z"/><path class="cls-4" d="M159.63,475.7a4.37,4.37,0,0,1-1.68.61,7.13,7.13,0,0,1-2,0,6.17,6.17,0,0,1-2-.59,4.9,4.9,0,0,1-1.48-1.12,4.69,4.69,0,0,1-.92-1.58,5.8,5.8,0,0,1-.31-1.93,4.6,4.6,0,0,1,.37-1.91,3.44,3.44,0,0,1,1-1.32,3.77,3.77,0,0,1,1.55-.71,5.73,5.73,0,0,1,1.94-.06,7.65,7.65,0,0,1,1.83.46,9.61,9.61,0,0,1,1.31.6v3.08l-1.92-.24v-1.61a5.28,5.28,0,0,0-1.08-.26,3.17,3.17,0,0,0-1,0,2,2,0,0,0-1.47,1.1,2.5,2.5,0,0,0-.24,1.14,2.89,2.89,0,0,0,1.6,2.61,3.39,3.39,0,0,0,1.14.34,3.89,3.89,0,0,0,1.63-.08,5.7,5.7,0,0,0,1-.37Z"/><path class="cls-4" d="M162.6,470.08l-1.73-.21v-1.92l1.73,0.21v-2l2.27-.37v2.64l4.58,0.54v1.92l-4.58-.54v2.5a3.3,3.3,0,0,0,.51,2,2,2,0,0,0,1.42.77,2.84,2.84,0,0,0,1.55-.22,3.39,3.39,0,0,0,.56-0.32l0.46-.33,1,1.7a2.84,2.84,0,0,1-.74.55,5.53,5.53,0,0,1-2,.61,5,5,0,0,1-1.1,0,4.26,4.26,0,0,1-2.94-1.45,5.59,5.59,0,0,1-1-3.59v-2.5Z"/><path class="cls-4" d="M171.67,473.6a5.09,5.09,0,0,1,.33-1.92,3.43,3.43,0,0,1,.94-1.34,3.49,3.49,0,0,1,1.46-.73,5.37,5.37,0,0,1,1.9-.09,5.88,5.88,0,0,1,2,.55,4.73,4.73,0,0,1,1.46,1.1,4.54,4.54,0,0,1,.9,1.56,5.88,5.88,0,0,1,.31,1.92,5.1,5.1,0,0,1-.33,1.92,3.38,3.38,0,0,1-2.4,2.09,5.34,5.34,0,0,1-1.9.09,5.85,5.85,0,0,1-2-.56,4.72,4.72,0,0,1-1.46-1.1,4.57,4.57,0,0,1-.9-1.57A5.9,5.9,0,0,1,171.67,473.6Zm2.34,0.27a3.63,3.63,0,0,0,.16,1.09,3,3,0,0,0,.45.91,2.44,2.44,0,0,0,.72.65,2.39,2.39,0,0,0,1,.31,2,2,0,0,0,1.65-.46,2.57,2.57,0,0,0,.64-2,3.32,3.32,0,0,0-.6-2,2.32,2.32,0,0,0-1.7-.93,2.6,2.6,0,0,0-.91,0,1.54,1.54,0,0,0-.73.4,2,2,0,0,0-.48.79A3.6,3.6,0,0,0,174,473.87Z"/><path class="cls-4" d="M182.23,477.24l2.17,0.23v-4.9l-2.17-.23v-1.92l3.94,0.42,0.26,1.18h0.07a4,4,0,0,1,1.12-.84,2.6,2.6,0,0,1,1.47-.23,2.24,2.24,0,0,1,1.65.94,4.55,4.55,0,0,1,.6,2.64l-2-.21a1.87,1.87,0,0,0-.18-0.94,0.73,0.73,0,0,0-.59-0.35,1.6,1.6,0,0,0-1.13.23,3,3,0,0,0-.73.73v3.73l3.8,0.4V480l-8.24-.88v-1.92Z"/><path class="cls-4" d="M193.07,478.38l3.08,0.31v-4.9l-3.08-.31v-1.92l5.35,0.54c0,2.73,0,4.1,0,6.83l3.24,0.32v1.92l-8.59-.86v-1.92Zm2.66-8.94a1.12,1.12,0,0,1,.4-0.89,1.44,1.44,0,0,1,1.12-.27,1.88,1.88,0,0,1,1.17.5,1.33,1.33,0,0,1,.44,1,1,1,0,0,1-.44.88,1.67,1.67,0,0,1-1.17.24,1.78,1.78,0,0,1-1.12-.47A1.3,1.3,0,0,1,195.73,469.45Z"/><path class="cls-4" d="M204.12,473.24a8.88,8.88,0,0,1,1.62-.39,9.07,9.07,0,0,1,2.18,0,5.1,5.1,0,0,1,1.55.36,2.92,2.92,0,0,1,1,.72,2.66,2.66,0,0,1,.57,1,4.37,4.37,0,0,1,.18,1.28c0,0.59,0,1.1-.06,1.52s-0.06.79-.06,1.11a7.52,7.52,0,0,0,0,.83c0,0.16,0,.33.05,0.48l1.14,0.1v1.92l-2.94-.27-0.23-1.21h-0.09a2.64,2.64,0,0,1-1,.84,3.15,3.15,0,0,1-1.74.23,3.23,3.23,0,0,1-2.07-.9,2.88,2.88,0,0,1-.5-3.17,2,2,0,0,1,.78-0.8,3.4,3.4,0,0,1,1.23-.39,7.1,7.1,0,0,1,1.61,0q0.31,0,.66.1l0.85,0.15a1.71,1.71,0,0,0,0-.35V476a1.22,1.22,0,0,0-.38-1,2,2,0,0,0-1.13-.39,5.12,5.12,0,0,0-1.6.08,9.52,9.52,0,0,0-1.2.34Zm3,6.7a2,2,0,0,0,1.25-.19,1.79,1.79,0,0,0,.61-0.6v-1l-0.52-.13a6.3,6.3,0,0,0-.74-0.11,3.62,3.62,0,0,0-.66,0,2,2,0,0,0-.59.14,1,1,0,0,0-.42.3,0.76,0.76,0,0,0-.16.49,1.09,1.09,0,0,0,.29.79A1.46,1.46,0,0,0,207.1,479.95Z"/><path class="cls-4" d="M214.57,470.11l3.73,0.33c0,3.23,0,4.85,0,8.08a3.93,3.93,0,0,0,.33,1.9,1.29,1.29,0,0,0,1.07.62,2.89,2.89,0,0,0,.89,0,3.18,3.18,0,0,0,.7-0.26l0.86,1.65-0.6.31a3.56,3.56,0,0,1-.63.23,4.09,4.09,0,0,1-.73.11,5.71,5.71,0,0,1-.88,0,3.6,3.6,0,0,1-2.47-1.05,3.52,3.52,0,0,1-.82-2.45v-7.35l-1.45-.13v-1.92Z"/><path class="cls-4" d="M231.53,487.49a8.74,8.74,0,0,1-2.38-1,7.82,7.82,0,0,1-2.05-1.72,8.25,8.25,0,0,1-1.43-2.5,9.48,9.48,0,0,1-.53-3.3,8.77,8.77,0,0,1,.53-3.2,6.84,6.84,0,0,1,1.43-2.29,6.33,6.33,0,0,1,2.05-1.43,8.13,8.13,0,0,1,2.38-.63l0.42,1.91a6.92,6.92,0,0,0-1.39.39,4.56,4.56,0,0,0-1.48,1,5.24,5.24,0,0,0-1.18,1.73,6.83,6.83,0,0,0-.48,2.76,6.52,6.52,0,0,0,1.74,4.66,6.14,6.14,0,0,0,1.5,1.19,6.51,6.51,0,0,0,1.3.57Z"/><path class="cls-4" d="M238.42,482.63a3.52,3.52,0,0,0,1.06-.07,2.31,2.31,0,0,0,.82-0.36,1.83,1.83,0,0,0,.53-0.59,1.52,1.52,0,0,0,.19-0.76,1.66,1.66,0,0,0-.82-1.51,3.13,3.13,0,0,0-.93-0.37,7.73,7.73,0,0,0-1.17-.17l-1-.07v-1.26l2.95-3.37-4.44-.33c0-.77,0-1.15,0-1.92l7.15,0.53V474l-3.08,3.29,0.4,0a3.61,3.61,0,0,1,1.19.3,3.24,3.24,0,0,1,1,.7,3.42,3.42,0,0,1,.72,1.1,3.78,3.78,0,0,1,.27,1.47,3.42,3.42,0,0,1-.41,1.72,3.6,3.6,0,0,1-1.09,1.19,4.29,4.29,0,0,1-1.55.66,6.31,6.31,0,0,1-1.81.12,9.26,9.26,0,0,1-1.58-.26,8.12,8.12,0,0,1-1.52-.55L236,481.9a2.68,2.68,0,0,0,.43.21l0.61,0.22a7.18,7.18,0,0,0,.7.19A5,5,0,0,0,238.42,482.63Z"/><path class="cls-4" d="M246.69,486.7a5.66,5.66,0,0,0,1.3-.37,5,5,0,0,0,1.5-1,5.47,5.47,0,0,0,1.24-1.73,6.22,6.22,0,0,0,.51-2.68,7.34,7.34,0,0,0-.48-2.83,6.41,6.41,0,0,0-1.18-1.91,5.61,5.61,0,0,0-1.48-1.17,7.89,7.89,0,0,0-1.39-.59l0.42-1.84a9.3,9.3,0,0,1,2.38,1,7.82,7.82,0,0,1,2.05,1.73,8.29,8.29,0,0,1,1.43,2.5,9.39,9.39,0,0,1,.54,3.28,8.8,8.8,0,0,1-.54,3.22,6.8,6.8,0,0,1-1.43,2.29A6.34,6.34,0,0,1,249.5,488a7.7,7.7,0,0,1-2.38.61Z"/><path class="cls-4" d="M378.42,482.18l0.09-1.91H378.4l-2,3.22H376L374,480.32h-0.09L374,482c0,2.69,0,4,0,6.72l-2.28,0c0-4.9,0-7.35,0-12.25l2.44,0,2.11,3.38h0.07l2.09-3.42,2.42,0c0,4.9,0,7.35,0,12.25l-2.41,0C378.42,486.1,378.42,484.79,378.42,482.18Z"/><path class="cls-4" d="M383.11,480.49a9.72,9.72,0,0,1,1.62-.57,9.35,9.35,0,0,1,2.19-.26,4.84,4.84,0,0,1,1.55.19,2.54,2.54,0,0,1,1,.6,2.3,2.3,0,0,1,.57,1,4.2,4.2,0,0,1,.17,1.26q0,0.89-.06,1.52t-0.06,1.12a7.87,7.87,0,0,0,0,.82c0,0.16,0,.32.05,0.47l1.14,0c0,0.77,0,1.15,0,1.92l-2.95.05-0.23-1.19H388.1a3.1,3.1,0,0,1-1,1,3.37,3.37,0,0,1-1.74.42,2.92,2.92,0,0,1-2.08-.67,2.35,2.35,0,0,1-.77-1.84,2.8,2.8,0,0,1,.27-1.27,2.31,2.31,0,0,1,.79-0.89,3.8,3.8,0,0,1,1.24-.53,7.3,7.3,0,0,1,1.61-.19,6.64,6.64,0,0,1,.66,0l0.85,0.06a1.76,1.76,0,0,0,0-.35v-0.33a1.1,1.1,0,0,0-.38-0.95,1.85,1.85,0,0,0-1.13-.27,5.34,5.34,0,0,0-1.61.25,10.64,10.64,0,0,0-1.2.47Zm3,6.38a1.94,1.94,0,0,0,1.86-1v-1l-0.52-.07a6.16,6.16,0,0,0-.75,0,3.71,3.71,0,0,0-.66.07,2.25,2.25,0,0,0-.59.2,1.2,1.2,0,0,0-.42.35,0.83,0.83,0,0,0-.15.51,1,1,0,0,0,.29.76A1.34,1.34,0,0,0,386.1,486.87Z"/><path class="cls-4" d="M394.1,481.63l-1.74,0c0-.77,0-1.15,0-1.92l1.74,0c0-.8,0-1.2,0-2l2.28-.7c0,1.06,0,1.59,0,2.64l4.6-.11c0,0.77,0,1.15,0,1.92l-4.6.11c0,1,0,1.5,0,2.5a3,3,0,0,0,.51,1.94,1.72,1.72,0,0,0,1.42.57,3.09,3.09,0,0,0,.86-0.13,3.42,3.42,0,0,0,.69-0.31,4.11,4.11,0,0,0,.56-0.4l0.46-.4,1.05,1.55a3.53,3.53,0,0,1-.75.66,6.45,6.45,0,0,1-1,.53,6.12,6.12,0,0,1-1.08.37,5.18,5.18,0,0,1-1.11.15,3.71,3.71,0,0,1-3-1,5,5,0,0,1-1-3.45v-2.5Z"/><path class="cls-4" d="M402.6,476l3.55-.1c0,1.79,0,2.69,0,4.48h0.07a3.07,3.07,0,0,1,1.12-.92,3.91,3.91,0,0,1,1.65-.38,4.09,4.09,0,0,1,1.23.14,2.25,2.25,0,0,1,1,.55,2.62,2.62,0,0,1,.63,1.07,5.44,5.44,0,0,1,.23,1.7c0,2.18,0,3.27,0,5.44l-2.28.07c0-2,0-3,0-5a2.11,2.11,0,0,0-.46-1.53,1.54,1.54,0,0,0-1.19-.44,2,2,0,0,0-1.2.43,2.24,2.24,0,0,0-.77,1c0,2.23,0,3.35,0,5.58l-2.28.06c0-4.13,0-6.19,0-10.33l-1.26,0C402.6,477.16,402.6,476.78,402.6,476Z"/><path class="cls-4" d="M417,486.67a1.31,1.31,0,0,1,.39-1,1.49,1.49,0,0,1,1-.4,1.44,1.44,0,0,1,1.05.32,1.22,1.22,0,0,1,.39,1,1.33,1.33,0,0,1-.39,1,1.51,1.51,0,0,1-1.05.4,1.37,1.37,0,0,1-1-.33A1.25,1.25,0,0,1,417,486.67Z"/><path class="cls-4" d="M424.92,487.53c0-.77,0-1.15,0-1.92l2.07-.08v-4.9l-2.09.08c0-.77,0-1.15,0-1.92l2.09-.08c0-.2,0-0.29,0-0.49a3.27,3.27,0,0,1,.29-1.43,3,3,0,0,1,.76-1,3.29,3.29,0,0,1,1.1-.61,4.61,4.61,0,0,1,1.29-.24,8.15,8.15,0,0,1,2,.11,4.87,4.87,0,0,1,1.29.44L433,477.23a7.55,7.55,0,0,0-.87-0.31,3.79,3.79,0,0,0-1.2-.1,1.77,1.77,0,0,0-1.32.49,2,2,0,0,0-.38,1.3l3.69-.16c0,0.77,0,1.15,0,1.92l-3.69.16c0,2,0,2.94,0,4.9l3.7-.16c0,0.77,0,1.15,0,1.92Z"/><path class="cls-4" d="M435.78,478.91a10,10,0,0,1,1.62-.62,9.44,9.44,0,0,1,2.18-.33,4.77,4.77,0,0,1,1.55.14,2.43,2.43,0,0,1,1,.57,2.22,2.22,0,0,1,.57.93,4.1,4.1,0,0,1,.18,1.25c0,0.59,0,1.1-.06,1.53s-0.06.8-.06,1.12a7.37,7.37,0,0,0,0,.82c0,0.16,0,.32.05,0.47l1.14-.06c0,0.77,0,1.15,0,1.92l-2.95.15-0.23-1.18h-0.09a3.25,3.25,0,0,1-1,1,3.43,3.43,0,0,1-1.74.48,2.85,2.85,0,0,1-2.08-.6,2.28,2.28,0,0,1-.77-1.82,2.85,2.85,0,0,1,.27-1.28,2.43,2.43,0,0,1,.79-0.91,4,4,0,0,1,1.24-.57,7.42,7.42,0,0,1,1.61-.24c0.21,0,.43,0,0.66,0l0.85,0a1.78,1.78,0,0,0,0-.35V481a1.06,1.06,0,0,0-.38-0.94,1.8,1.8,0,0,0-1.13-.23,5.42,5.42,0,0,0-1.6.3,11,11,0,0,0-1.2.51Zm3,6.28a2.18,2.18,0,0,0,1.25-.37,2.21,2.21,0,0,0,.61-0.69v-1l-0.52-.05a6.12,6.12,0,0,0-.75,0,3.72,3.72,0,0,0-.66.09,2.29,2.29,0,0,0-.59.22,1.24,1.24,0,0,0-.42.36,0.86,0.86,0,0,0-.16.52,1,1,0,0,0,.29.75A1.3,1.3,0,0,0,438.77,485.19Z"/><path class="cls-4" d="M454.31,485.26a5.38,5.38,0,0,1-1.68.91,7.6,7.6,0,0,1-2,.38,5.6,5.6,0,0,1-2-.22,3.84,3.84,0,0,1-1.49-.86,3.7,3.7,0,0,1-.92-1.41,5.3,5.3,0,0,1-.32-1.87,5.06,5.06,0,0,1,.37-2,4.45,4.45,0,0,1,1-1.51,4.76,4.76,0,0,1,1.55-1,6.19,6.19,0,0,1,1.95-.41,7.13,7.13,0,0,1,1.84.12,8.28,8.28,0,0,1,1.32.36c0,1.23,0,1.85,0,3.08L452,481v-1.61a4.91,4.91,0,0,0-1.09-.06,3.4,3.4,0,0,0-1,.2,2.57,2.57,0,0,0-.86.52,2.68,2.68,0,0,0-.61.85,2.76,2.76,0,0,0-.24,1.19,2.64,2.64,0,0,0,.19,1,2.23,2.23,0,0,0,1.41,1.3,3.08,3.08,0,0,0,1.15.14,4.23,4.23,0,0,0,1.64-.37,7.17,7.17,0,0,0,1-.54Z"/><path class="cls-4" d="M457.3,479.1l-1.74.1c0-.77,0-1.15,0-1.92l1.74-.1c0-.8,0-1.2,0-2l2.28-.78c0,1.06,0,1.59,0,2.64l4.59-.29c0,0.77,0,1.15,0,1.92l-4.59.29v2.5a2.88,2.88,0,0,0,.51,1.92,1.66,1.66,0,0,0,1.42.52,3.13,3.13,0,0,0,.86-0.17,3.46,3.46,0,0,0,.69-0.33,4.18,4.18,0,0,0,.56-0.42l0.47-.42,1.05,1.51a3.64,3.64,0,0,1-.75.69,6.75,6.75,0,0,1-1,.57,6.39,6.39,0,0,1-1.08.41,5.29,5.29,0,0,1-1.11.19,3.59,3.59,0,0,1-3-.91,4.84,4.84,0,0,1-1-3.41C457.3,480.6,457.3,480.1,457.3,479.1Z"/><path class="cls-4" d="M466.4,481a5.58,5.58,0,0,1,.33-2,4.34,4.34,0,0,1,2.41-2.51,5.83,5.83,0,0,1,1.9-.43,5.34,5.34,0,0,1,2,.2,3.72,3.72,0,0,1,1.46.83,3.59,3.59,0,0,1,.9,1.4,5.4,5.4,0,0,1,.31,1.87,5.58,5.58,0,0,1-.33,2,4.34,4.34,0,0,1-2.41,2.52,5.78,5.78,0,0,1-1.9.44,5.32,5.32,0,0,1-2-.2,3.73,3.73,0,0,1-1.46-.84,3.61,3.61,0,0,1-.9-1.4A5.4,5.4,0,0,1,466.4,481Zm2.35-.15a3.35,3.35,0,0,0,.16,1.06,2.4,2.4,0,0,0,.46.83,1.88,1.88,0,0,0,.72.52,2.14,2.14,0,0,0,1,.14,2.39,2.39,0,0,0,1.66-.76,3,3,0,0,0,.64-2.09,2.86,2.86,0,0,0-.6-1.91A1.92,1.92,0,0,0,471,478a2.82,2.82,0,0,0-.91.21,2,2,0,0,0-.73.53,2.57,2.57,0,0,0-.48.87A3.86,3.86,0,0,0,468.75,480.83Z"/><path class="cls-4" d="M477,482.71l2.17-.16c0-2,0-2.94,0-4.9l-2.17.16c0-.77,0-1.15,0-1.92l3.94-.29,0.26,1.14h0.07a5.15,5.15,0,0,1,1.12-1,3,3,0,0,1,1.47-.5,1.85,1.85,0,0,1,1.66.64,4,4,0,0,1,.6,2.53l-2.05.16a1.68,1.68,0,0,0-.19-0.9,0.6,0.6,0,0,0-.59-0.24,1.86,1.86,0,0,0-1.13.44,3.91,3.91,0,0,0-.73.86c0,1.49,0,2.24,0,3.73l3.8-.29c0,0.77,0,1.15,0,1.92l-8.26.61C477,483.87,477,483.48,477,482.71Z"/><path class="cls-4" d="M487.86,481.9l3.08-.24v-4.9l-3.08.24c0-.77,0-1.15,0-1.92l5.36-.43c0,2.73,0,4.1,0,6.83l3.24-.27c0,0.77,0,1.15,0,1.92l-8.6.69C487.86,483.06,487.86,482.67,487.86,481.9Zm2.66-9.42a1.34,1.34,0,0,1,.4-1,1.68,1.68,0,0,1,1.12-.47,1.61,1.61,0,0,1,1.18.29,1.09,1.09,0,0,1,.44.89,1.24,1.24,0,0,1-.44,1,1.94,1.94,0,0,1-1.18.45,1.53,1.53,0,0,1-1.12-.27A1.08,1.08,0,0,1,490.52,472.49Z"/><path class="cls-4" d="M498.91,474.77a10.4,10.4,0,0,1,1.62-.68,9.61,9.61,0,0,1,2.18-.42,4.72,4.72,0,0,1,1.55.08,2.32,2.32,0,0,1,1,.53,2.1,2.1,0,0,1,.57.91,4.08,4.08,0,0,1,.17,1.24q0,0.89-.06,1.53t-0.06,1.13a7.8,7.8,0,0,0,0,.82c0,0.16,0,.32.05,0.47l1.14-.1v1.92l-2.94.26L504,481.3h-0.09a3.43,3.43,0,0,1-1,1,3.54,3.54,0,0,1-1.74.54,2.76,2.76,0,0,1-2.07-.52,2.19,2.19,0,0,1-.77-1.79,2.93,2.93,0,0,1,.27-1.29,2.55,2.55,0,0,1,.78-0.94,4.1,4.1,0,0,1,1.24-.61,7.52,7.52,0,0,1,1.61-.31q0.31,0,.66,0h0.85a1.8,1.8,0,0,0,0-.35V476.7a1,1,0,0,0-.38-0.92,1.76,1.76,0,0,0-1.13-.19,5.53,5.53,0,0,0-1.6.37,11.46,11.46,0,0,0-1.2.56Zm3,6.17a2.25,2.25,0,0,0,1.25-.42,2.36,2.36,0,0,0,.61-0.71v-1l-0.52,0a6,6,0,0,0-.74,0,3.81,3.81,0,0,0-.66.12,2.4,2.4,0,0,0-.59.24,1.33,1.33,0,0,0-.42.38,0.89,0.89,0,0,0-.15.52,0.92,0.92,0,0,0,.29.74A1.27,1.27,0,0,0,501.9,480.94Z"/><path class="cls-4" d="M509.37,469.75l3.73-.34c0,3.23,0,4.85,0,8.08a3.57,3.57,0,0,0,.33,1.84,1.06,1.06,0,0,0,1.07.42,3.09,3.09,0,0,0,.89-0.2,3.81,3.81,0,0,0,.7-0.39l0.86,1.49-0.59.42a4.27,4.27,0,0,1-.63.34,4.53,4.53,0,0,1-.73.24,5.92,5.92,0,0,1-.88.15,3.07,3.07,0,0,1-2.47-.61,3,3,0,0,1-.82-2.3c0-2.94,0-4.41,0-7.35l-1.45.13C509.37,470.91,509.37,470.52,509.37,469.75Z"/><path class="cls-4" d="M519.72,483.07l7.77-.78v1.87l-7.77.78C519.72,484.2,519.72,483.82,519.72,483.07Z"/><path class="cls-4" d="M528.85,467.86l3.53-.37c0,1.79,0,2.69,0,4.48h0.07a3.43,3.43,0,0,1,1.12-1,4.11,4.11,0,0,1,1.64-.51,4,4,0,0,1,1.22,0,2,2,0,0,1,1,.47,2.36,2.36,0,0,1,.63,1,5.3,5.3,0,0,1,.23,1.68c0,2.18,0,3.27,0,5.44l-2.27.25c0-2,0-3,0-5a2,2,0,0,0-.45-1.49,1.44,1.44,0,0,0-1.19-.35,2.19,2.19,0,0,0-1.19.52,2.48,2.48,0,0,0-.77,1.09v5.58l-2.27.24c0-4.13,0-6.2,0-10.33l-1.26.13C528.85,469,528.85,468.63,528.85,467.86Z"/><path class="cls-4" d="M548.68,477a3.58,3.58,0,0,1-.59.48,6.64,6.64,0,0,1-.84.47,7.23,7.23,0,0,1-2.28.64,5.72,5.72,0,0,1-2-.09,3.35,3.35,0,0,1-2.43-2.1,5.12,5.12,0,0,1-.32-1.9,5.46,5.46,0,0,1,.37-2.06,4.7,4.7,0,0,1,1-1.55,4.88,4.88,0,0,1,1.49-1,6.2,6.2,0,0,1,1.85-.5,5.62,5.62,0,0,1,1.37,0,3.33,3.33,0,0,1,1.3.46,2.73,2.73,0,0,1,1,1,3.65,3.65,0,0,1,.38,1.78,8.62,8.62,0,0,1-.18,1.65l-6.29.72a1.85,1.85,0,0,0,.24.92,1.59,1.59,0,0,0,.58.57,2.24,2.24,0,0,0,.82.27,4,4,0,0,0,1,0,5.42,5.42,0,0,0,1.72-.44,4.2,4.2,0,0,0,1.09-.72Zm-3.78-5.81a3.08,3.08,0,0,0-.86.22,2.79,2.79,0,0,0-.73.45,2.37,2.37,0,0,0-.53.66,2,2,0,0,0-.25.83l4.3-.49A1.53,1.53,0,0,0,544.9,471.19Z"/><path class="cls-4" d="M551.35,465.38l3.72-.44c0,3.23,0,4.85,0,8.08a3.52,3.52,0,0,0,.33,1.83,1,1,0,0,0,1.07.4,3.14,3.14,0,0,0,.89-0.22,4,4,0,0,0,.7-0.41l0.86,1.47-0.59.43a4.48,4.48,0,0,1-.63.36,4.71,4.71,0,0,1-.73.26,6,6,0,0,1-.88.17,3,3,0,0,1-2.46-.55,2.93,2.93,0,0,1-.82-2.28c0-2.94,0-4.41,0-7.35l-1.45.17v-1.92Z"/><path class="cls-4" d="M560.32,467.8l3-.37,0.26,1h0.07a3.84,3.84,0,0,1,2.93-1.66,4,4,0,0,1,1.48.07,2.43,2.43,0,0,1,1.15.65,3.19,3.19,0,0,1,.74,1.27,6.24,6.24,0,0,1,.26,1.94,6.81,6.81,0,0,1-.3,2.06,5.05,5.05,0,0,1-.86,1.64,4.38,4.38,0,0,1-1.36,1.14,5.19,5.19,0,0,1-1.83.57,7,7,0,0,1-1.06.05,2.67,2.67,0,0,1-.87-0.14v3.59l-2.27.28c0-4.13,0-6.2,0-10.33l-1.31.16V467.8Zm5.55,1a2.58,2.58,0,0,0-1.21.49,2,2,0,0,0-.76,1.09V474a1.64,1.64,0,0,0,.71.22,3.81,3.81,0,0,0,.94,0,2.66,2.66,0,0,0,.91-0.28,2.22,2.22,0,0,0,.73-0.63,3,3,0,0,0,.49-1,4.77,4.77,0,0,0,.18-1.37,2.34,2.34,0,0,0-.56-1.71A1.61,1.61,0,0,0,565.87,468.79Z"/><path class="cls-4" d="M580.11,473.07a3.67,3.67,0,0,1-.58.49,6.79,6.79,0,0,1-.84.49,7.24,7.24,0,0,1-1.06.42,7.15,7.15,0,0,1-1.22.27,5.68,5.68,0,0,1-2-.05,3.26,3.26,0,0,1-2.43-2.05,5.08,5.08,0,0,1-.32-1.89,5.52,5.52,0,0,1,.37-2.07,4.84,4.84,0,0,1,1-1.57,5,5,0,0,1,1.49-1.06,6.27,6.27,0,0,1,1.85-.53,5.57,5.57,0,0,1,1.37,0,3.26,3.26,0,0,1,1.3.43,2.65,2.65,0,0,1,1,1,3.61,3.61,0,0,1,.38,1.77,8.7,8.7,0,0,1-.18,1.65l-6.28.84a1.83,1.83,0,0,0,.24.91,1.55,1.55,0,0,0,.57.55,2.19,2.19,0,0,0,.82.25,4,4,0,0,0,1,0,5.48,5.48,0,0,0,1.72-.47,4.31,4.31,0,0,0,1.09-.74Zm-3.77-5.74a3.11,3.11,0,0,0-.85.24,2.85,2.85,0,0,0-.72.46,2.43,2.43,0,0,0-.53.67,2,2,0,0,0-.25.83l4.29-.57a1.71,1.71,0,0,0-.48-1.32A1.73,1.73,0,0,0,576.34,467.32Z"/><path class="cls-4" d="M581.94,471.82l2.16-.3v-4.9l-2.16.3V465l3.92-.54,0.26,1.12h0.07a5.65,5.65,0,0,1,1.12-1.12,3.11,3.11,0,0,1,1.47-.59,1.73,1.73,0,0,1,1.65.54,3.85,3.85,0,0,1,.6,2.49l-2,.29a1.63,1.63,0,0,0-.18-0.89,0.56,0.56,0,0,0-.58-0.21,2,2,0,0,0-1.12.51,4.29,4.29,0,0,0-.72.91v3.73l3.78-.53v1.92l-8.21,1.14v-1.92Z"/><path class="cls-4" d="M599.66,474.94a7.26,7.26,0,0,1-2.37-.42,5.66,5.66,0,0,1-2-1.26,6.13,6.13,0,0,1-1.42-2.17,8.54,8.54,0,0,1-.53-3.18,9.82,9.82,0,0,1,.53-3.32,9.18,9.18,0,0,1,1.42-2.61,8.76,8.76,0,0,1,2-1.89,10.09,10.09,0,0,1,2.37-1.17l0.42,1.81a8.54,8.54,0,0,0-1.38.7,6.26,6.26,0,0,0-1.47,1.28,7.13,7.13,0,0,0-1.18,2,7.66,7.66,0,0,0-.48,2.87,6,6,0,0,0,.51,2.64,4.88,4.88,0,0,0,1.23,1.63,4.46,4.46,0,0,0,1.49.85,5.31,5.31,0,0,0,1.29.27Z"/><path class="cls-4" d="M606.5,468.53a3.9,3.9,0,0,0,1.05-.31,3,3,0,0,0,.82-0.54,2.51,2.51,0,0,0,.53-0.71,1.8,1.8,0,0,0,.19-0.8,1.49,1.49,0,0,0-.22-0.85,1.25,1.25,0,0,0-.6-0.47,2.62,2.62,0,0,0-.92-0.16,7.41,7.41,0,0,0-1.17.09l-1,.15v-1.26l2.93-4-4.41.67v-1.92l7.1-1.08v1.59l-3.06,4,0.4-.06a3.26,3.26,0,0,1,1.19,0,2.42,2.42,0,0,1,1,.47,2.51,2.51,0,0,1,.71.94,3.37,3.37,0,0,1,.27,1.41,4,4,0,0,1-.41,1.81,5,5,0,0,1-1.08,1.44,5.6,5.6,0,0,1-1.54,1,7,7,0,0,1-1.79.53,8.79,8.79,0,0,1-1.57.1,6.85,6.85,0,0,1-1.52-.21l0.61-2a2.11,2.11,0,0,0,.43.11l0.61,0.08a6.44,6.44,0,0,0,.7,0A4.85,4.85,0,0,0,606.5,468.53Z"/><path class="cls-4" d="M616.43,467.55a1.41,1.41,0,0,1,.39-1,1.68,1.68,0,0,1,1-.51,1.49,1.49,0,0,1,1.44.4,2.16,2.16,0,0,1,.49,1.48,3.66,3.66,0,0,1-.3,1.48,4.72,4.72,0,0,1-.79,1.25,5.37,5.37,0,0,1-1.09.94,5.22,5.22,0,0,1-1.19.59l-0.47-.89a5.93,5.93,0,0,0,.84-0.43,4.26,4.26,0,0,0,.77-0.6,3.42,3.42,0,0,0,.58-0.77,2.14,2.14,0,0,0,.27-0.88,2.3,2.3,0,0,1-.89.17,1.15,1.15,0,0,1-.6-0.19,0.92,0.92,0,0,1-.34-0.44A1.67,1.67,0,0,1,616.43,467.55Z"/><path class="cls-4" d="M632.17,466.1l-7.75,1.28v-1.7l0.52-.55,0.7-.77,0.82-.94q0.44-.51.85-1.05,0.59-.76,1-1.38a10.73,10.73,0,0,0,.73-1.14,5.08,5.08,0,0,0,.43-1,3.56,3.56,0,0,0,.14-1,1.43,1.43,0,0,0-.16-0.66,1.46,1.46,0,0,0-.43-0.51,1.69,1.69,0,0,0-.67-0.29,2.31,2.31,0,0,0-.86,0,3.64,3.64,0,0,0-1.14.38,4.91,4.91,0,0,0-1.07.82l-0.9-1.46A9.57,9.57,0,0,1,626,455a6.24,6.24,0,0,1,2.06-.7,4.76,4.76,0,0,1,1.43,0,3.17,3.17,0,0,1,1.22.42,2.37,2.37,0,0,1,.84.88,2.76,2.76,0,0,1,.31,1.36,5.66,5.66,0,0,1-.09,1.06,5.86,5.86,0,0,1-.3,1,8,8,0,0,1-.52,1.08c-0.22.37-.47,0.79-0.77,1.23s-0.49.69-.76,1-0.54.69-.81,1-0.53.63-.79,0.92-0.5.53-.7,0.73l5-.83v1.92Z"/><path class="cls-4" d="M635.59,467.33a7.15,7.15,0,0,0,1.29-.68,7,7,0,0,0,1.49-1.32,7.59,7.59,0,0,0,1.23-2,7.14,7.14,0,0,0,.5-2.8,6.56,6.56,0,0,0-.48-2.72,4.61,4.61,0,0,0-1.17-1.63,4,4,0,0,0-1.47-.82,6.42,6.42,0,0,0-1.38-.26l0.42-1.94a7.59,7.59,0,0,1,2.36.42,5.56,5.56,0,0,1,2,1.24,6,6,0,0,1,1.42,2.16,8.45,8.45,0,0,1,.53,3.15,10,10,0,0,1-.53,3.35,9.25,9.25,0,0,1-1.42,2.63,8.9,8.9,0,0,1-2,1.91,9.57,9.57,0,0,1-2.36,1.17Z"/></svg>