<svg id="Layer_1" data-name="Layer 1" xmlns="http://www.w3.org/2000/svg" viewBox="0 0 720 576"><defs><style>.cls-1,.cls-2,.cls-4,.cls-6{fill:#231f20;}.cls-1,.cls-3{stroke:#231f20;}.cls-1,.cls-6{stroke-miterlimit:10;}.cls-2{stroke:#000;}.cls-2,.cls-3{stroke-linecap:round;stroke-linejoin:round;stroke-width:2px;}.cls-3,.cls-5{fill:#fff;}.cls-6{stroke:#fff;}</style></defs><title>Hanoi_Tower_Set_Elixir_2</title><path class="cls-1" d="M656,522.57c0-.14,0-0.29,0-0.43s0-.29,0-0.43V469.92H64.18s-0.23,51.74-.23,52.22c0,2.67,2.12,5.24,6.08,7.71,13.87,8.61,50.58,16.11,101.74,21.48S288.5,559.92,360,559.92c81.71,0,155.68-4.21,209.24-11,26.78-3.41,48.45-7.46,63.44-12,7.5-2.25,13.32-4.62,17.29-7.08,3.38-2.1,5.41-4.29,5.94-6.55H656v-0.73Z"/><ellipse class="cls-2" cx="360" cy="471" rx="295.87" ry="37.63"/><path class="cls-3" d="M656,471.09c0-.14,0-0.29,0-0.43s0-.29,0-0.43V418.44H64.18s-0.23,51.74-.23,52.22c0,2.67,2.12,5.24,6.08,7.71,13.87,8.61,50.58,16.11,101.74,21.48S288.5,508.44,360,508.44c81.71,0,155.68-4.21,209.24-11,26.78-3.41,48.45-7.46,63.44-12,7.5-2.25,13.32-4.62,17.29-7.08,3.38-2.1,5.41-4.29,5.94-6.55H656v-0.73Z"/><ellipse class="cls-3" cx="360" cy="419.52" rx="295.87" ry="37.63"/><path class="cls-4" d="M360,428.3c-16,0-29-3.75-30.2-8.61h-0.08l0-.5V24.35h60.63V419.69H390.2C389,424.55,376,428.3,360,428.3Z"/><path class="cls-5" d="M389.82,24.85V419.19h0c-0.49,4.78-13.63,8.61-29.79,8.61s-29.3-3.83-29.79-8.61h0V419s0,0,0-.06,0,0,0-.06v-394h59.63m1-1H329.19v395s0,0.07,0,.11v1.27h0.23c2,5.6,16.84,8.61,30.58,8.61s28.6-3,30.58-8.61h0.21l0-1V23.85h0Z"/><ellipse class="cls-6" cx="359.99" cy="24.97" rx="29.81" ry="8.89"/><path class="cls-4" d="M121.44,464.73l0.11-2.49-0.14,0L118.86,466l-0.55-.08-2.68-4.63-0.11,0,0.14,2.28c0,3.53,0,5.3,0,8.83l-3-.47c0-6.44,0-9.66,0-16.1l3.18,0.5,2.74,4.89h0.09l2.72-4,3.16,0.48c0,6.44,0,9.66,0,16.1l-3.13-.48C121.44,469.87,121.44,468.16,121.44,464.73Z"/><path class="cls-4" d="M127.55,463.51a11.22,11.22,0,0,1,2.12-.4,11.83,11.83,0,0,1,2.85.12,6.9,6.9,0,0,1,2,.58,4.12,4.12,0,0,1,1.35,1,3.73,3.73,0,0,1,.74,1.37,5.91,5.91,0,0,1,.23,1.69q0,1.17-.08,2c-0.05.54-.08,1-0.08,1.46a10.07,10.07,0,0,0,0,1.09c0,0.21.05,0.43,0.07,0.63l1.49,0.21c0,1,0,1.52,0,2.53l-3.84-.55-0.3-1.61-0.11,0a3.2,3.2,0,0,1-1.3,1,4,4,0,0,1-2.28.19,4.46,4.46,0,0,1-2.71-1.32,3.65,3.65,0,0,1-1-2.59,3.35,3.35,0,0,1,.35-1.62,2.4,2.4,0,0,1,1-1,4.25,4.25,0,0,1,1.61-.43,9.27,9.27,0,0,1,2.1.09q0.41,0.06.86,0.17l1.11,0.25a2.28,2.28,0,0,0,0-.45v-0.44a1.7,1.7,0,0,0-.5-1.33,2.76,2.76,0,0,0-1.48-.59,6.65,6.65,0,0,0-2.09,0,11.84,11.84,0,0,0-1.57.37Zm3.9,9a2.52,2.52,0,0,0,1.63-.17,2.19,2.19,0,0,0,.79-0.75c0-.55,0-0.83,0-1.38l-0.68-.2a8.28,8.28,0,0,0-1-.2,4.64,4.64,0,0,0-.86,0,2.56,2.56,0,0,0-.77.14,1.22,1.22,0,0,0-.54.37,1,1,0,0,0-.2.64,1.51,1.51,0,0,0,.37,1.05A2,2,0,0,0,131.44,472.52Z"/><path class="cls-4" d="M141.88,467.32l-2.27-.32c0-1,0-1.52,0-2.53l2.27,0.32c0-1,0-1.57,0-2.62l3-.44c0,1.39,0,2.08,0,3.47l6,0.81c0,1,0,1.52,0,2.53l-6-.81V471a4.39,4.39,0,0,0,.66,2.66,2.67,2.67,0,0,0,1.86,1,3.82,3.82,0,0,0,1.12,0,3.74,3.74,0,0,0,.91-0.26,4.32,4.32,0,0,0,.73-0.41l0.61-.42,1.38,2.25a3.66,3.66,0,0,1-1,.71,7.12,7.12,0,0,1-1.26.5,7.22,7.22,0,0,1-1.41.26,6.57,6.57,0,0,1-1.44,0,5.69,5.69,0,0,1-3.86-2,7.46,7.46,0,0,1-1.29-4.75v-3.29Z"/><path class="cls-4" d="M153,461.69l4.63,0.6c0,2.36,0,3.53,0,5.89h0.09a3.24,3.24,0,0,1,1.47-1,4.73,4.73,0,0,1,2.16-.16,5.78,5.78,0,0,1,1.6.43,3.61,3.61,0,0,1,1.26.92,4.19,4.19,0,0,1,.83,1.54,7.65,7.65,0,0,1,.3,2.28c0,2.86,0,4.29,0,7.15l-3-.37c0-2.61,0-3.92,0-6.53a3.16,3.16,0,0,0-.6-2.1,2.45,2.45,0,0,0-4.13.69c0,2.93,0,4.4,0,7.34l-3-.39c0-5.43,0-8.14,0-13.57l-1.65-.22C153,463.21,153,462.7,153,461.69Z"/><path class="cls-4" d="M171.76,478.64a1.48,1.48,0,0,1,.5-1.22,1.71,1.71,0,0,1,1.33-.31,2.19,2.19,0,0,1,1.38.63,1.86,1.86,0,0,1,.5,1.34,1.51,1.51,0,0,1-.5,1.23,1.74,1.74,0,0,1-1.38.32,2.08,2.08,0,0,1-1.33-.64A1.9,1.9,0,0,1,171.76,478.64Z"/><path class="cls-4" d="M182.13,481.37c0-1,0-1.52,0-2.53l2.71,0.3V472.7l-2.73-.31c0-1,0-1.52,0-2.53l2.73,0.31v-0.64a4,4,0,0,1,.38-1.82,3.18,3.18,0,0,1,1-1.18,3.61,3.61,0,0,1,1.44-.59,5.79,5.79,0,0,1,1.69-.06,11.31,11.31,0,0,1,2.61.55,7.5,7.5,0,0,1,1.69.83l-0.87,2.18a11.71,11.71,0,0,0-1.14-.58,5.32,5.32,0,0,0-1.57-.38,2,2,0,0,0-1.73.38,2.29,2.29,0,0,0-.49,1.64l4.82,0.52v2.53l-4.82-.52v6.44l4.85,0.52v2.53C188.45,482.08,186.35,481.85,182.13,481.37Z"/><path class="cls-4" d="M196.35,472.2a11.61,11.61,0,0,1,2.13-.49,11.89,11.89,0,0,1,2.86,0,6.72,6.72,0,0,1,2,.49,3.89,3.89,0,0,1,1.36,1,3.52,3.52,0,0,1,.75,1.34,5.78,5.78,0,0,1,.23,1.68q0,1.17-.08,2c-0.05.55-.08,1-0.08,1.46a10,10,0,0,0,0,1.09c0,0.21.05,0.43,0.07,0.63l1.49,0.15c0,1,0,1.52,0,2.53l-3.86-.38L203,482h-0.11a3.42,3.42,0,0,1-1.3,1.1,4.11,4.11,0,0,1-2.28.29,4.27,4.27,0,0,1-2.72-1.2,3.49,3.49,0,0,1-1-2.54,3.43,3.43,0,0,1,.35-1.63,2.56,2.56,0,0,1,1-1,4.43,4.43,0,0,1,1.62-.5,9.32,9.32,0,0,1,2.11,0c0.27,0,.56.07,0.87,0.13l1.12,0.2a2.3,2.3,0,0,0,0-.46v-0.44a1.62,1.62,0,0,0-.5-1.3,2.66,2.66,0,0,0-1.48-.53,6.72,6.72,0,0,0-2.1.08,12.29,12.29,0,0,0-1.57.44Zm3.91,8.84a2.59,2.59,0,0,0,1.64-.24,2.34,2.34,0,0,0,.8-0.78c0-.55,0-0.83,0-1.38l-0.68-.17a8.13,8.13,0,0,0-1-.16,4.67,4.67,0,0,0-.86,0,2.64,2.64,0,0,0-.77.18,1.3,1.3,0,0,0-.55.39,1,1,0,0,0-.2.65,1.44,1.44,0,0,0,.37,1A1.93,1.93,0,0,0,200.26,481Z"/><path class="cls-4" d="M220.63,484.15a6,6,0,0,1-2.21.87,9.41,9.41,0,0,1-2.64.12,7.91,7.91,0,0,1-2.66-.68,6.14,6.14,0,0,1-2-1.41,5.92,5.92,0,0,1-1.21-2,7.49,7.49,0,0,1-.41-2.52A6.15,6.15,0,0,1,210,476a4.75,4.75,0,0,1,1.34-1.78,5.17,5.17,0,0,1,2-1A7.63,7.63,0,0,1,216,473a9.88,9.88,0,0,1,2.42.52,12.33,12.33,0,0,1,1.72.73c0,1.62,0,2.43,0,4l-2.53-.23V476a6.76,6.76,0,0,0-1.43-.29,4.21,4.21,0,0,0-1.28.08,2.8,2.8,0,0,0-1.13.52,2.85,2.85,0,0,0-.8,1,3.33,3.33,0,0,0-.31,1.51,3.74,3.74,0,0,0,.25,1.38,3.6,3.6,0,0,0,1.85,2,4.34,4.34,0,0,0,1.51.4,5.18,5.18,0,0,0,2.15-.17,7.74,7.74,0,0,0,1.25-.53Z"/><path class="cls-4" d="M224.54,476.62l-2.28-.2v-2.53l2.28,0.2v-2.62l3-.6c0,1.39,0,2.08,0,3.47l6,0.5v2.53l-6-.5v3.29a4.22,4.22,0,0,0,.67,2.62,2.52,2.52,0,0,0,1.86.95,3.88,3.88,0,0,0,1.13-.06,3.93,3.93,0,0,0,.91-0.3,4.65,4.65,0,0,0,.74-0.45l0.61-.46,1.38,2.18a4,4,0,0,1-1,.76,7.55,7.55,0,0,1-2.68.9,6.64,6.64,0,0,1-1.45,0,5.4,5.4,0,0,1-3.88-1.76,7.14,7.14,0,0,1-1.3-4.68v-3.29Z"/><path class="cls-4" d="M236.48,480.82a6.8,6.8,0,0,1,.44-2.54,4.75,4.75,0,0,1,1.24-1.81,4.82,4.82,0,0,1,1.92-1,7.17,7.17,0,0,1,2.5-.21,7.55,7.55,0,0,1,2.59.63,5.91,5.91,0,0,1,1.92,1.37,5.67,5.67,0,0,1,1.18,2,7.58,7.58,0,0,1,.4,2.51,6.84,6.84,0,0,1-.44,2.55,4.69,4.69,0,0,1-3.17,2.87,7.11,7.11,0,0,1-2.5.22,7.49,7.49,0,0,1-2.59-.63,5.93,5.93,0,0,1-1.92-1.38,5.72,5.72,0,0,1-1.19-2A7.61,7.61,0,0,1,236.48,480.82Zm3.08,0.24a4.72,4.72,0,0,0,.21,1.42,3.78,3.78,0,0,0,.6,1.17,3,3,0,0,0,2.21,1.18,2.73,2.73,0,0,0,2.18-.69,3.49,3.49,0,0,0,.84-2.63,4.23,4.23,0,0,0-.78-2.62,2.92,2.92,0,0,0-2.23-1.14,3.48,3.48,0,0,0-1.2.11,2.14,2.14,0,0,0-1,.56,2.8,2.8,0,0,0-.63,1.06A4.8,4.8,0,0,0,239.57,481.06Z"/><path class="cls-4" d="M250.39,485.07l2.86,0.2c0-2.58,0-3.86,0-6.44l-2.86-.2V476.1l5.18,0.35,0.35,1.54H256a5.54,5.54,0,0,1,1.47-1.17,3.51,3.51,0,0,1,1.94-.38,2.81,2.81,0,0,1,2.18,1.15,5.8,5.8,0,0,1,.8,3.43l-2.7-.17a2.4,2.4,0,0,0-.24-1.22,0.91,0.91,0,0,0-.77-0.43,2.17,2.17,0,0,0-1.49.36,4.23,4.23,0,0,0-1,1v4.9l5,0.32c0,1,0,1.52,0,2.53-4.34-.27-6.51-0.42-10.85-0.72v-2.53Z"/><path class="cls-4" d="M264.67,486l4.06,0.24V479.8l-4.06-.24V477l7.05,0.41v9l4.26,0.23v2.53c-4.53-.24-6.79-0.37-11.31-0.64V486Zm3.5-11.89a1.53,1.53,0,0,1,.53-1.19,2,2,0,0,1,1.47-.42,2.37,2.37,0,0,1,1.54.59,1.66,1.66,0,0,1,.58,1.25,1.4,1.4,0,0,1-.58,1.18,2.66,2.66,0,0,1-3-.17A1.64,1.64,0,0,1,268.17,474.11Z"/><path class="cls-4" d="M279.21,478.62a11.54,11.54,0,0,1,5-.76,6.54,6.54,0,0,1,2,.38,3.62,3.62,0,0,1,1.36.88,3.29,3.29,0,0,1,.75,1.3,5.64,5.64,0,0,1,.23,1.67q0,1.17-.08,2t-0.08,1.47a9.84,9.84,0,0,0,0,1.08c0,0.21.05,0.42,0.07,0.62l1.5,0.07v2.53l-3.87-.18-0.3-1.58h-0.11a3.7,3.7,0,0,1-1.31,1.17,4.24,4.24,0,0,1-2.29.41,4.06,4.06,0,0,1-2.73-1.06,3.31,3.31,0,0,1-1-2.49,3.54,3.54,0,0,1,.35-1.65,2.77,2.77,0,0,1,1-1.1,4.67,4.67,0,0,1,1.63-.59,9.43,9.43,0,0,1,2.12-.11q0.41,0,.87.09l1.12,0.15a2.34,2.34,0,0,0,0-.46V482a1.54,1.54,0,0,0-.5-1.28,2.55,2.55,0,0,0-1.49-.45,6.83,6.83,0,0,0-2.11.2,12.92,12.92,0,0,0-1.58.52Zm3.92,8.64a2.67,2.67,0,0,0,1.64-.32,2.53,2.53,0,0,0,.8-0.82v-1.38l-0.68-.14a8,8,0,0,0-1-.1,4.69,4.69,0,0,0-.87,0,2.76,2.76,0,0,0-.78.22,1.4,1.4,0,0,0-.55.42,1,1,0,0,0-.2.66,1.37,1.37,0,0,0,.38,1A1.84,1.84,0,0,0,283.13,487.26Z"/><path class="cls-4" d="M293,473.89l4.91,0.2c0,4.25,0,6.38,0,10.63a5,5,0,0,0,.44,2.48,1.61,1.61,0,0,0,1.41.74,3.84,3.84,0,0,0,1.18-.1,4.28,4.28,0,0,0,.92-0.39l1.13,2.11q-0.39.24-.78,0.44a4.87,4.87,0,0,1-.83.34,5.5,5.5,0,0,1-1,.19,7.54,7.54,0,0,1-1.16,0,4.52,4.52,0,0,1-3.25-1.23,4.43,4.43,0,0,1-1.08-3.17c0-3.86,0-5.8,0-9.66l-1.91-.08v-2.53Z"/><path class="cls-4" d="M315.29,495.65a10.94,10.94,0,0,1-3.14-1.1,9.56,9.56,0,0,1-2.7-2.13,10.15,10.15,0,0,1-1.88-3.19,12.14,12.14,0,0,1-.7-4.3,11.77,11.77,0,0,1,.7-4.24,9.58,9.58,0,0,1,1.88-3.1,9,9,0,0,1,2.7-2,11.2,11.2,0,0,1,3.14-1l0.55,2.48a9.41,9.41,0,0,0-1.83.6,6.42,6.42,0,0,0-1.95,1.34,7.4,7.4,0,0,0-1.56,2.36,9.17,9.17,0,0,0-.63,3.66,8.63,8.63,0,0,0,.67,3.59,8.23,8.23,0,0,0,1.63,2.43,7.47,7.47,0,0,0,2,1.46,8.11,8.11,0,0,0,1.71.66Z"/><path class="cls-4" d="M324.36,488.8a4.68,4.68,0,0,0,1.4-.16,3.21,3.21,0,0,0,1.08-.53,2.57,2.57,0,0,0,.7-0.81,2.07,2.07,0,0,0,.25-1,2.2,2.2,0,0,0-.29-1.16,2.15,2.15,0,0,0-.8-0.76,3.89,3.89,0,0,0-1.22-.41,9.94,9.94,0,0,0-1.55-.15l-1.29,0v-1.65l3.88-4.63-5.84-.13v-2.53c3.76,0.09,5.65.13,9.41,0.21v2.09L326,481.66h0.53a4.64,4.64,0,0,1,1.57.31,4,4,0,0,1,1.35.85,4.19,4.19,0,0,1,.95,1.4,4.83,4.83,0,0,1,.36,1.92,4.65,4.65,0,0,1-.54,2.29,5.1,5.1,0,0,1-1.43,1.64,6,6,0,0,1-2,1,8.39,8.39,0,0,1-2.38.28,11.84,11.84,0,0,1-2.08-.23,10.2,10.2,0,0,1-2-.62l0.81-2.46a3.3,3.3,0,0,0,.57.24l0.81,0.25a8.85,8.85,0,0,0,.92.21A6.49,6.49,0,0,0,324.36,488.8Z"/><path class="cls-4" d="M335.25,493.58A7.82,7.82,0,0,0,337,493a7.06,7.06,0,0,0,2-1.38,7.74,7.74,0,0,0,1.63-2.36,8.42,8.42,0,0,0,.67-3.56,9.38,9.38,0,0,0-.63-3.69,7.85,7.85,0,0,0-1.56-2.42,6.84,6.84,0,0,0-1.95-1.43,9.81,9.81,0,0,0-1.83-.68L335.8,475a11.65,11.65,0,0,1,3.14,1.13,9.53,9.53,0,0,1,2.7,2.13,10.14,10.14,0,0,1,1.88,3.18,12,12,0,0,1,.7,4.27,11.89,11.89,0,0,1-.7,4.27,9.6,9.6,0,0,1-1.88,3.11,9,9,0,0,1-2.7,2,10.55,10.55,0,0,1-3.14,1Z"/><path class="cls-4" d="M607.32,467a5.65,5.65,0,0,1-.42,2.16,6.53,6.53,0,0,1-1.16,1.86,6.68,6.68,0,0,1-1.75,1.4,6.42,6.42,0,0,1-2.18.75,6.16,6.16,0,0,1-2.23,0,4.16,4.16,0,0,1-1.82-.86,4.39,4.39,0,0,1-1.24-1.72,6.65,6.65,0,0,1-.46-2.6,11.42,11.42,0,0,1,.79-4.26,14,14,0,0,1,2-3.54,13.26,13.26,0,0,1,2.77-2.63,11,11,0,0,1,3-1.54l0.66,2.27a10.46,10.46,0,0,0-2.26,1.1,10.33,10.33,0,0,0-1.87,1.54,9.48,9.48,0,0,0-1.38,1.85,6.73,6.73,0,0,0-.77,2,4.4,4.4,0,0,1,1.37-1.19,5.57,5.57,0,0,1,2-.71,5.23,5.23,0,0,1,1.92,0,3.5,3.5,0,0,1,2.57,2.11A5,5,0,0,1,607.32,467Zm-2.88.57a2,2,0,0,0-.74-1.77,2.65,2.65,0,0,0-2-.33,3.77,3.77,0,0,0-1.65.67,3.65,3.65,0,0,0-1.07,1.13,4.14,4.14,0,0,0-.06.57q0,0.31,0,.5a2.86,2.86,0,0,0,.18,1,2,2,0,0,0,1.39,1.27,2.75,2.75,0,0,0,1.17,0,3.16,3.16,0,0,0,1-.35,3.6,3.6,0,0,0,.89-0.68,3.3,3.3,0,0,0,.63-0.94A2.73,2.73,0,0,0,604.44,467.52Z"/></svg>