<svg id="Layer_1" data-name="Layer 1" xmlns="http://www.w3.org/2000/svg" viewBox="0 0 720 576"><defs><style>.cls-1,.cls-2,.cls-4,.cls-6{fill:#231f20;}.cls-1,.cls-3{stroke:#231f20;}.cls-1,.cls-6{stroke-miterlimit:10;}.cls-1,.cls-2,.cls-3{stroke-width:2px;}.cls-2{stroke:#000;}.cls-2,.cls-3{stroke-linecap:round;stroke-linejoin:round;}.cls-3,.cls-5{fill:#fff;}.cls-6{stroke:#fff;}</style></defs><title>Hanoi_Tower_Set_Elixir_1</title><path class="cls-1" d="M683,522.57c0-.14,0-0.29,0-0.43s0-.29,0-0.43V469.92H37.16s-0.25,51.74-.25,52.22c0,2.67,2.32,5.24,6.64,7.71,15.13,8.61,55.2,16.11,111,21.48S282,559.92,360,559.92c89.17,0,169.9-4.21,228.35-11,29.22-3.41,52.88-7.46,69.24-12,8.18-2.25,14.54-4.62,18.86-7.08,3.69-2.1,5.91-4.29,6.48-6.55H683v-0.73Z"/><ellipse class="cls-2" cx="360" cy="471" rx="322.89" ry="37.63"/><path class="cls-3" d="M683,471.09c0-.14,0-0.29,0-0.43s0-.29,0-0.43V418.44H37.16s-0.25,51.74-.25,52.22c0,2.67,2.32,5.24,6.64,7.71,15.13,8.61,55.2,16.11,111,21.48S282,508.44,360,508.44c89.17,0,169.9-4.21,228.35-11,29.22-3.41,52.88-7.46,69.24-12,8.18-2.25,14.54-4.62,18.86-7.08,3.69-2.1,5.91-4.29,6.48-6.55H683v-0.73Z"/><ellipse class="cls-3" cx="360" cy="419.52" rx="322.89" ry="37.63"/><path class="cls-4" d="M360,428.3c-16,0-29-3.75-30.2-8.61h-0.08l0-.5V24.35h60.63V419.69H390.2C389,424.55,376,428.3,360,428.3Z"/><path class="cls-5" d="M389.82,24.85V419.19h0c-0.49,4.78-13.63,8.61-29.79,8.61s-29.3-3.83-29.79-8.61h0V419s0,0,0-.06,0,0,0-.06v-394h59.63m1-1H329.19v395s0,0.07,0,.11v1.27h0.23c2,5.6,16.84,8.61,30.58,8.61s28.6-3,30.58-8.61h0.21l0-1V23.85h0Z"/><ellipse class="cls-6" cx="359.99" cy="24.97" rx="29.81" ry="8.89"/><path class="cls-4" d="M92,454.42q1,0,2.11,0t2.3,0.26a16.14,16.14,0,0,1,2.39.57,7,7,0,0,1,2.16,1.11,5.66,5.66,0,0,1,1.57,1.87,5.94,5.94,0,0,1,.61,2.82,5.06,5.06,0,0,1-.53,2.44,4,4,0,0,1-1.4,1.51,4.8,4.8,0,0,1-2,.69,8.22,8.22,0,0,1-2.3,0l-0.37-.06L96,465.53l-0.54-.12-0.38-.1v5.54L92,470.36V454.42Zm4.66,3.06q-0.46-.07-0.87-0.1c-0.27,0-.5,0-0.66,0v5.22l0.27,0.09,0.39,0.1,0.4,0.07,0.29,0a6.47,6.47,0,0,0,1.22.08,2.64,2.64,0,0,0,1.09-.26,1.77,1.77,0,0,0,.77-0.74,2.88,2.88,0,0,0,.29-1.41,2.7,2.7,0,0,0-1-2.2,3.36,3.36,0,0,0-1-.57A6.45,6.45,0,0,0,96.63,457.47Z"/><path class="cls-4" d="M116.23,472.8a3.35,3.35,0,0,1-.77.43,6.42,6.42,0,0,1-1.1.34,7.79,7.79,0,0,1-1.38.17,8.75,8.75,0,0,1-1.6-.1,8.5,8.5,0,0,1-2.62-.8,6.35,6.35,0,0,1-3.18-3.59,7.66,7.66,0,0,1-.42-2.6,6.27,6.27,0,0,1,.48-2.58,4.31,4.31,0,0,1,1.32-1.7,4.61,4.61,0,0,1,2-.85,7.28,7.28,0,0,1,2.43,0,8.14,8.14,0,0,1,1.8.49,5.87,5.87,0,0,1,1.71,1,5.23,5.23,0,0,1,1.27,1.69,5.6,5.6,0,0,1,.49,2.46,10.51,10.51,0,0,1-.23,2.11l-8.24-1.2a3,3,0,0,0,.31,1.29,3,3,0,0,0,.75.94,3.88,3.88,0,0,0,1.08.63,5.76,5.76,0,0,0,1.29.34,6.42,6.42,0,0,0,2.25,0,4,4,0,0,0,1.43-.58Zm-4.94-8.93a3.64,3.64,0,0,0-1.12,0,2.67,2.67,0,0,0-.95.34,2.11,2.11,0,0,0-.7.68,2.15,2.15,0,0,0-.32,1l5.63,0.83a2.89,2.89,0,0,0-.63-1.91A2.92,2.92,0,0,0,111.29,463.88Z"/><path class="cls-4" d="M118.64,471.84l2.84,0.4V465.8l-2.84-.4v-2.53l5.15,0.73,0.34,1.57h0.09a5,5,0,0,1,1.47-1.06,3.35,3.35,0,0,1,1.92-.24,3,3,0,0,1,2.17,1.31,6.11,6.11,0,0,1,.79,3.49l-2.68-.36a2.52,2.52,0,0,0-.24-1.24,1,1,0,0,0-.77-0.49,2.06,2.06,0,0,0-1.48.26,3.79,3.79,0,0,0-1,.93v4.9l5,0.68v2.53c-4.32-.59-6.47-0.89-10.79-1.5v-2.53Z"/><path class="cls-4" d="M140.7,474.19a1,1,0,0,0-.56-0.81,9.44,9.44,0,0,0-1.39-.69l-1.81-.71a9.39,9.39,0,0,1-1.81-.91,5.48,5.48,0,0,1-1.39-1.27,2.81,2.81,0,0,1-.56-1.77,2.64,2.64,0,0,1,.38-1.44,2.81,2.81,0,0,1,1-1,4.24,4.24,0,0,1,1.56-.47,7.81,7.81,0,0,1,2,0,11.36,11.36,0,0,1,2,.42,10.78,10.78,0,0,1,1.48.58,6.42,6.42,0,0,1,1.08.65l0.77,0.62-1.26,1.89q-0.34-.25-0.79-0.53t-0.94-.52a8.35,8.35,0,0,0-1-.43,5.49,5.49,0,0,0-1.07-.25,3.88,3.88,0,0,0-1.56,0,0.71,0.71,0,0,0-.6.7,0.91,0.91,0,0,0,.56.74,10.45,10.45,0,0,0,1.39.65l1.81,0.71a11.08,11.08,0,0,1,1.81.89,5.25,5.25,0,0,1,1.39,1.22,2.71,2.71,0,0,1,.56,1.73,2.88,2.88,0,0,1-1.27,2.59,5.56,5.56,0,0,1-3.77.51,9.72,9.72,0,0,1-3.4-1,9.44,9.44,0,0,1-2.3-1.67l1.38-2a8.44,8.44,0,0,0,.79.67,8.53,8.53,0,0,0,1.11.71,10.77,10.77,0,0,0,1.32.6,6.21,6.21,0,0,0,1.39.35,2.74,2.74,0,0,0,1.26-.09A0.75,0.75,0,0,0,140.7,474.19Z"/><path class="cls-4" d="M146,472.29a6.67,6.67,0,0,1,.44-2.52,4.45,4.45,0,0,1,1.24-1.75,4.54,4.54,0,0,1,1.92-.95,7.06,7.06,0,0,1,2.49-.1,7.77,7.77,0,0,1,2.58.75,6.3,6.3,0,0,1,1.92,1.46,6,6,0,0,1,1.18,2.06,7.79,7.79,0,0,1,.4,2.53,6.7,6.7,0,0,1-.44,2.52,4.38,4.38,0,0,1-3.16,2.72,7,7,0,0,1-2.49.1,7.72,7.72,0,0,1-2.58-.76,6.31,6.31,0,0,1-1.92-1.47,6.07,6.07,0,0,1-1.18-2.07A7.8,7.8,0,0,1,146,472.29Zm3.07,0.38a4.82,4.82,0,0,0,.21,1.43,4,4,0,0,0,.6,1.2,3.23,3.23,0,0,0,.94.86,3.15,3.15,0,0,0,1.26.42,2.62,2.62,0,0,0,2.17-.59,3.36,3.36,0,0,0,.84-2.59,4.4,4.4,0,0,0-.78-2.66,3.08,3.08,0,0,0-2.23-1.25,3.42,3.42,0,0,0-1.19,0,2,2,0,0,0-1,.52,2.62,2.62,0,0,0-.63,1A4.71,4.71,0,0,0,149.12,472.68Z"/><path class="cls-4" d="M159.28,468.16l4,0.47,0.34,1.56h0.09a3.87,3.87,0,0,1,1.52-1.11,4.51,4.51,0,0,1,2.37-.28,5.77,5.77,0,0,1,1.6.41,3.53,3.53,0,0,1,1.27.9,4.24,4.24,0,0,1,.84,1.53,7.34,7.34,0,0,1,.31,2.28c0,2.86,0,4.29,0,7.15l-3-.33c0-2.61,0-3.92,0-6.53a3,3,0,0,0-.63-2.09,2.46,2.46,0,0,0-1.6-.8,2.43,2.43,0,0,0-1.55.32,2.11,2.11,0,0,0-1,1.12c0,3,0,4.47,0,7.45l-3-.35c0-3.59,0-5.38,0-9l-1.65-.19C159.28,469.67,159.28,469.17,159.28,468.16Z"/><path class="cls-4" d="M177.81,480.22a1.5,1.5,0,0,1,.51-1.22,1.73,1.73,0,0,1,1.33-.33,2.16,2.16,0,0,1,1.38.62,1.84,1.84,0,0,1,.51,1.33,1.53,1.53,0,0,1-.51,1.23,1.76,1.76,0,0,1-1.38.34,2.06,2.06,0,0,1-1.33-.62A1.88,1.88,0,0,1,177.81,480.22Z"/><path class="cls-4" d="M198.75,483.85a4.84,4.84,0,0,1-.43,2.12,3.7,3.7,0,0,1-1.17,1.42,4.34,4.34,0,0,1-1.77.73,8,8,0,0,1-2.24.07,9.27,9.27,0,0,1-1.55-.28,9.63,9.63,0,0,1-1.33-.47,8.32,8.32,0,0,1-1.07-.55,4.84,4.84,0,0,1-.74-0.55l1.15-2a9.48,9.48,0,0,0,1.32.83,5.21,5.21,0,0,0,1.94.53,3,3,0,0,0,2.21-.45,2.19,2.19,0,0,0,.76-1.84v-0.74h-0.09a2.12,2.12,0,0,1-1.22.7,5.79,5.79,0,0,1-1.86.08,6.15,6.15,0,0,1-2-.55,5,5,0,0,1-1.62-1.21,5.39,5.39,0,0,1-1.07-1.89,8,8,0,0,1-.38-2.57,7.14,7.14,0,0,1,.45-2.65,4.51,4.51,0,0,1,3.22-2.84,7.38,7.38,0,0,1,2.54-.15q0.74,0.07,1.47.2t1.39,0.28q0.66,0.15,1.21.33a8.18,8.18,0,0,1,.92.35C198.75,477.2,198.75,479.41,198.75,483.85Zm-5.52-2.74a3,3,0,0,0,1.57-.24,1.75,1.75,0,0,0,1-1.08v-5.17a4,4,0,0,0-.91-0.31,8.56,8.56,0,0,0-1.12-.19,3.37,3.37,0,0,0-1.21.09,2.26,2.26,0,0,0-1,.56,2.76,2.76,0,0,0-.67,1.06,4.64,4.64,0,0,0-.24,1.6,5,5,0,0,0,.21,1.49,3.55,3.55,0,0,0,.57,1.14,2.84,2.84,0,0,0,.83.74A2.43,2.43,0,0,0,193.23,481.11Z"/><path class="cls-4" d="M201.26,481.55l2.85,0.26c0-2.58,0-3.86,0-6.44l-2.85-.26c0-1,0-1.52,0-2.53l5.17,0.47,0.35,1.55h0.09a5.36,5.36,0,0,1,1.47-1.13,3.45,3.45,0,0,1,1.93-.34,2.88,2.88,0,0,1,2.17,1.2,5.9,5.9,0,0,1,.79,3.45l-2.69-.23a2.44,2.44,0,0,0-.24-1.23,0.94,0.94,0,0,0-.77-0.45,2.13,2.13,0,0,0-1.48.33,4.08,4.08,0,0,0-1,1c0,2,0,2.94,0,4.9l5,0.44c0,1,0,1.52,0,2.53-4.33-.38-6.5-0.57-10.83-1C201.26,483.07,201.26,482.56,201.26,481.55Z"/><path class="cls-4" d="M226.45,485a3.67,3.67,0,0,1-.77.48,6.86,6.86,0,0,1-1.1.41,8.11,8.11,0,0,1-1.39.26,8.8,8.8,0,0,1-1.61,0,8.17,8.17,0,0,1-2.63-.63,5.8,5.8,0,0,1-3.2-3.38,7.39,7.39,0,0,1-.43-2.58,6.46,6.46,0,0,1,.48-2.62,4.72,4.72,0,0,1,1.32-1.79,5,5,0,0,1,2-1,7.42,7.42,0,0,1,2.44-.18,7.87,7.87,0,0,1,1.81.38,5.44,5.44,0,0,1,1.71.93,4.77,4.77,0,0,1,1.28,1.61,5.37,5.37,0,0,1,.5,2.43,10.68,10.68,0,0,1-.23,2.12l-8.29-.67a2.81,2.81,0,0,0,.31,1.27,2.76,2.76,0,0,0,.76.89,3.6,3.6,0,0,0,1.08.56,5.58,5.58,0,0,0,1.3.26,6.54,6.54,0,0,0,2.27-.14,4.35,4.35,0,0,0,1.44-.67Zm-5-8.61a3.7,3.7,0,0,0-1.13.07,2.87,2.87,0,0,0-1,.4,2.33,2.33,0,0,0-.7.73,2.27,2.27,0,0,0-.32,1L224,479.1A2.49,2.49,0,0,0,221.48,476.41Z"/><path class="cls-4" d="M240.27,486a3.72,3.72,0,0,1-.77.49,6.93,6.93,0,0,1-1.11.42,8.14,8.14,0,0,1-1.39.27,8.81,8.81,0,0,1-1.61,0,8.14,8.14,0,0,1-2.64-.61,5.74,5.74,0,0,1-3.2-3.36,7.36,7.36,0,0,1-.43-2.57,6.49,6.49,0,0,1,.48-2.62,4.78,4.78,0,0,1,1.32-1.8,5,5,0,0,1,2-1,7.45,7.45,0,0,1,2.44-.2,7.84,7.84,0,0,1,1.81.36,5.39,5.39,0,0,1,1.72.92,4.72,4.72,0,0,1,1.28,1.6,5.34,5.34,0,0,1,.5,2.43,10.7,10.7,0,0,1-.23,2.12l-8.29-.6a2.79,2.79,0,0,0,.31,1.27,2.73,2.73,0,0,0,.76.88,3.57,3.57,0,0,0,1.08.55,5.57,5.57,0,0,0,1.3.24,6.56,6.56,0,0,0,2.27-.16,4.4,4.4,0,0,0,1.44-.68Zm-5-8.57a3.71,3.71,0,0,0-1.13.08,2.9,2.9,0,0,0-1,.41,2.36,2.36,0,0,0-.7.73,2.28,2.28,0,0,0-.32,1l5.66,0.41A2.47,2.47,0,0,0,235.29,477.48Z"/><path class="cls-4" d="M244.46,478.58l-2.28-.16c0-1,0-1.52,0-2.53l2.28,0.16c0-1,0-1.57,0-2.62l3-.65v3.47l6,0.39v2.53l-6-.39v3.29a4.16,4.16,0,0,0,.67,2.61,2.47,2.47,0,0,0,1.87.91,3.9,3.9,0,0,0,1.13-.08,4,4,0,0,0,.91-0.32,4.75,4.75,0,0,0,.74-0.46l0.61-.47,1.38,2.16a4.06,4.06,0,0,1-1,.78,7.67,7.67,0,0,1-2.68.95,6.66,6.66,0,0,1-1.45.07,5.3,5.3,0,0,1-3.88-1.69,7,7,0,0,1-1.3-4.65v-3.29Z"/><path class="cls-4" d="M257,485.82l4.06,0.24c0-2.58,0-3.86,0-6.44l-4.06-.24c0-1,0-1.52,0-2.53l7.05,0.41c0,3.59,0,5.38,0,9l4.26,0.23c0,1,0,1.52,0,2.53-4.53-.24-6.79-0.37-11.31-0.64C257,487.34,257,486.83,257,485.82Zm3.5-11.89a1.53,1.53,0,0,1,.53-1.19,2,2,0,0,1,1.47-.42,2.38,2.38,0,0,1,1.54.59,1.66,1.66,0,0,1,.58,1.25,1.4,1.4,0,0,1-.58,1.17,2.66,2.66,0,0,1-3-.17A1.64,1.64,0,0,1,260.47,473.93Z"/><path class="cls-4" d="M269.71,477.57l4,0.21,0.35,1.54h0.09a4.25,4.25,0,0,1,1.52-1.21,4.68,4.68,0,0,1,2.37-.44,5.58,5.58,0,0,1,1.6.31,3.24,3.24,0,0,1,1.28.82,3.9,3.9,0,0,1,.84,1.48,7.12,7.12,0,0,1,.31,2.26c0,2.86,0,4.29,0,7.15l-3-.14c0-2.61,0-3.92,0-6.53a2.86,2.86,0,0,0-.63-2.05,2.31,2.31,0,0,0-1.6-.7,2.55,2.55,0,0,0-1.56.42,2.31,2.31,0,0,0-1,1.18c0,3,0,4.47,0,7.45l-3-.15c0-3.59,0-5.38,0-9l-1.66-.09C269.71,479.09,269.71,478.58,269.71,477.57Z"/><path class="cls-4" d="M295.48,490.24a5,5,0,0,1-.43,2.15,4,4,0,0,1-1.18,1.48,4.64,4.64,0,0,1-1.78.83,8.18,8.18,0,0,1-2.25.2,9.08,9.08,0,0,1-1.56-.19,9.23,9.23,0,0,1-1.34-.39,7.8,7.8,0,0,1-1.07-.49,4.55,4.55,0,0,1-.74-0.5l1.15-2.07a8.85,8.85,0,0,0,1.33.76,5,5,0,0,0,1.95.42,3.16,3.16,0,0,0,2.21-.58,2.31,2.31,0,0,0,.76-1.88v-0.74h-0.09a2.29,2.29,0,0,1-1.22.77,6.46,6.46,0,0,1-3.91-.24,4.64,4.64,0,0,1-1.62-1.12,5,5,0,0,1-1.07-1.83,7.77,7.77,0,0,1-.38-2.55,7.33,7.33,0,0,1,.45-2.67,4.89,4.89,0,0,1,3.23-3,7.52,7.52,0,0,1,2.55-.3q0.74,0,1.48.12c0.49,0.06,1,.13,1.4.2s0.84,0.17,1.21.27a7.82,7.82,0,0,1,.92.3C295.48,483.59,295.48,485.8,295.48,490.24Zm-5.53-2.43a3.1,3.1,0,0,0,1.58-.33,1.89,1.89,0,0,0,1-1.14v-5.17a3.81,3.81,0,0,0-.91-0.25,8.37,8.37,0,0,0-1.12-.13,3.43,3.43,0,0,0-1.21.16,2.43,2.43,0,0,0-1,.61,3,3,0,0,0-.67,1.1,4.75,4.75,0,0,0-.24,1.61,4.88,4.88,0,0,0,.21,1.48,3.33,3.33,0,0,0,.58,1.11,2.62,2.62,0,0,0,.83.69A2.34,2.34,0,0,0,289.95,487.81Z"/><path class="cls-4" d="M307.59,495.53a11,11,0,0,1-3.14-1.11,9.59,9.59,0,0,1-2.7-2.14,10.18,10.18,0,0,1-1.88-3.19,12.15,12.15,0,0,1-.7-4.3,11.76,11.76,0,0,1,.7-4.24,9.55,9.55,0,0,1,1.88-3.1,8.92,8.92,0,0,1,2.7-2,11.17,11.17,0,0,1,3.14-1l0.55,2.48a9.39,9.39,0,0,0-1.83.6,6.4,6.4,0,0,0-1.95,1.34,7.37,7.37,0,0,0-1.56,2.35,9.17,9.17,0,0,0-.63,3.66,8.64,8.64,0,0,0,.67,3.59,8.25,8.25,0,0,0,1.63,2.43,7.5,7.5,0,0,0,2,1.47,8.13,8.13,0,0,0,1.71.66Z"/><path class="cls-4" d="M316.49,490.9c0-2.82,0-4.22,0-7a5.55,5.55,0,0,0-.09-1.12,2.2,2.2,0,0,0-.24-0.67,0.77,0.77,0,0,0-.37-0.33,1.32,1.32,0,0,0-.45-0.09,1.15,1.15,0,0,0-.73.23,1.18,1.18,0,0,0-.45.63c0,3.33,0,5,0,8.33l-2.77-.08c0-4.6,0-6.9,0-11.5l2.19,0.06,0.32,1.27H314a2.71,2.71,0,0,1,1-1.06,2.81,2.81,0,0,1,1.57-.39,3.11,3.11,0,0,1,1.45.4,2,2,0,0,1,.95,1.31,2.49,2.49,0,0,1,1.06-1.21,2.92,2.92,0,0,1,1.55-.39,3.43,3.43,0,0,1,1.12.2,2,2,0,0,1,.86.63,3.07,3.07,0,0,1,.57,1.2,7.83,7.83,0,0,1,.2,1.92c0,3.15,0,4.72,0,7.87l-2.77-.06c0-2.94,0-4.42,0-7.36a2.4,2.4,0,0,0-.33-1.46,1,1,0,0,0-.82-0.43,1.26,1.26,0,0,0-.71.18,1,1,0,0,0-.42.62c0,3.36,0,5,0,8.39Z"/><path class="cls-4" d="M337.09,490.08a4,4,0,0,1-.77.53,7.35,7.35,0,0,1-1.11.48,8.49,8.49,0,0,1-1.4.35,9,9,0,0,1-1.61.11,7.91,7.91,0,0,1-2.64-.46,5.3,5.3,0,0,1-3.21-3.18,7.15,7.15,0,0,1-.43-2.55,6.67,6.67,0,0,1,.48-2.65,5.18,5.18,0,0,1,1.33-1.87,5.43,5.43,0,0,1,2-1.1,7.71,7.71,0,0,1,4.26-.08,5.05,5.05,0,0,1,1.72.82A4.35,4.35,0,0,1,337,482a5.15,5.15,0,0,1,.5,2.4,10.88,10.88,0,0,1-.23,2.14l-8.31-.13a2.69,2.69,0,0,0,.31,1.25,2.53,2.53,0,0,0,.76.84,3.36,3.36,0,0,0,1.08.49,5.44,5.44,0,0,0,1.3.17,6.7,6.7,0,0,0,2.27-.29,4.72,4.72,0,0,0,1.44-.76Zm-5-8.29a3.79,3.79,0,0,0-1.13.15,3.1,3.1,0,0,0-1,.46,2.55,2.55,0,0,0-.7.77,2.37,2.37,0,0,0-.32,1l5.68,0.09A2.32,2.32,0,0,0,332.11,481.8Z"/><path class="cls-4" d="M341.38,493.72a7.85,7.85,0,0,0,1.71-.59,7.11,7.11,0,0,0,2-1.39,7.79,7.79,0,0,0,1.63-2.37,8.45,8.45,0,0,0,.67-3.56,9.36,9.36,0,0,0-.63-3.68,7.8,7.8,0,0,0-1.56-2.42,6.8,6.8,0,0,0-1.95-1.42,9.76,9.76,0,0,0-1.83-.68l0.55-2.45a11.59,11.59,0,0,1,3.14,1.11,9.47,9.47,0,0,1,2.7,2.12,10.08,10.08,0,0,1,1.88,3.17,13.33,13.33,0,0,1,0,8.55,9.65,9.65,0,0,1-1.88,3.12,9.06,9.06,0,0,1-2.7,2,10.61,10.61,0,0,1-3.14,1Z"/><path class="cls-4" d="M592.29,465.79a1.89,1.89,0,0,1,.5-1.35,2.16,2.16,0,0,1,1.33-.65,1.74,1.74,0,0,1,1.38.28,1.45,1.45,0,0,1,.5,1.21,2,2,0,0,1-.5,1.36,2.2,2.2,0,0,1-1.38.67,1.66,1.66,0,0,1-1.33-.3A1.48,1.48,0,0,1,592.29,465.79Zm0,8.33a1.9,1.9,0,0,1,.5-1.35,2.16,2.16,0,0,1,1.33-.65,1.75,1.75,0,0,1,1.38.28,1.45,1.45,0,0,1,.5,1.21,2,2,0,0,1-.5,1.36,2.19,2.19,0,0,1-1.38.67,1.65,1.65,0,0,1-1.33-.3A1.48,1.48,0,0,1,592.29,474.12Z"/><path class="cls-4" d="M601.82,468.55a7.62,7.62,0,0,1,.44-2.64,6.34,6.34,0,0,1,3.15-3.55,8,8,0,0,1,2.48-.76,6.84,6.84,0,0,1,2.57.06,4.4,4.4,0,0,1,1.91.95,4.24,4.24,0,0,1,1.18,1.74,6.89,6.89,0,0,1,.4,2.42,7.67,7.67,0,0,1-.44,2.64,6.35,6.35,0,0,1-3.15,3.56,8,8,0,0,1-2.48.77,6.79,6.79,0,0,1-2.58-.06,4.41,4.41,0,0,1-1.91-1,4.25,4.25,0,0,1-1.18-1.75A6.9,6.9,0,0,1,601.82,468.55Zm3.07-.44a4.29,4.29,0,0,0,.21,1.37,2.88,2.88,0,0,0,.59,1,2.2,2.2,0,0,0,.94.61,2.71,2.71,0,0,0,1.26.08,3.39,3.39,0,0,0,2.16-1.17,4.2,4.2,0,0,0,.84-2.81,3.53,3.53,0,0,0-.78-2.45,2.34,2.34,0,0,0-2.22-.65,3.9,3.9,0,0,0-1.19.37,2.88,2.88,0,0,0-1,.77,3.72,3.72,0,0,0-.63,1.19A5.3,5.3,0,0,0,604.89,468.11Z"/><path class="cls-4" d="M614.75,456.31l4.85-.74v9.18l0.69-.11,3.75-5.16,3.5-.55-4.62,6,3,3.26,2.13-.34v2.53l-3.7.58-3.93-4.15-0.8.12v4.76l-3,.45V458.55l-1.88.28v-2.53Z"/></svg>