<svg id="Layer_1" data-name="Layer 1" xmlns="http://www.w3.org/2000/svg" viewBox="0 0 720 576"><defs><style>.cls-1,.cls-2,.cls-4,.cls-6{fill:#231f20;}.cls-1,.cls-3{stroke:#231f20;}.cls-1,.cls-6{stroke-miterlimit:10;}.cls-1,.cls-2,.cls-3{stroke-width:2px;}.cls-2{stroke:#000;}.cls-2,.cls-3{stroke-linecap:round;stroke-linejoin:round;}.cls-3,.cls-5{fill:#fff;}.cls-6{stroke:#fff;}</style></defs><title>Hanoi_Tower_Set_Elixir_1</title><path class="cls-1" d="M684,522.57c0-.14,0-0.29,0-0.43s0-.29,0-0.43V469.92H36.2s-0.25,51.74-.25,52.22c0,2.67,2.32,5.24,6.66,7.71C57.79,538.45,98,546,154,551.32s127.77,8.59,206,8.59c89.44,0,170.41-4.21,229-11,29.31-3.41,53-7.46,69.44-12,8.2-2.25,14.58-4.62,18.92-7.08,3.7-2.1,5.92-4.29,6.5-6.55H684v-0.73Z"/><ellipse class="cls-2" cx="360" cy="471" rx="323.86" ry="37.63"/><path class="cls-3" d="M684,471.09c0-.14,0-0.29,0-0.43s0-.29,0-0.43V418.44H36.2s-0.25,51.74-.25,52.22c0,2.67,2.32,5.24,6.66,7.71C57.79,487,98,494.47,154,499.85s127.77,8.59,206,8.59c89.44,0,170.41-4.21,229-11,29.31-3.41,53-7.46,69.44-12,8.2-2.25,14.58-4.62,18.92-7.08,3.7-2.1,5.92-4.29,6.5-6.55H684v-0.73Z"/><ellipse class="cls-3" cx="360" cy="419.52" rx="323.86" ry="37.63"/><path class="cls-3" d="M684,419.61c0-.14,0-0.29,0-0.43s0-.29,0-0.43V367H36.2s-0.25,51.74-.25,52.22c0,2.67,2.32,5.24,6.66,7.71C57.79,435.5,98,443,154,448.37S281.74,457,360,457c89.44,0,170.41-4.21,229-11,29.31-3.41,53-7.46,69.44-12,8.2-2.25,14.58-4.62,18.92-7.08,3.7-2.1,5.92-4.29,6.5-6.55H684v-0.73Z"/><ellipse class="cls-3" cx="360" cy="368.05" rx="323.86" ry="37.63"/><path class="cls-4" d="M360,376.3c-16,0-29-3.75-30.2-8.61h-0.08l0-.5V24.35h60.63V367.69H390.2C389,372.55,376,376.3,360,376.3Z"/><path class="cls-5" d="M389.82,24.85V367.19h0c-0.49,4.78-13.63,8.61-29.79,8.61s-29.3-3.83-29.79-8.61h0V367s0,0,0-.06,0,0,0-.06v-342h59.63m1-1H329.19v343s0,0.07,0,.11v1.27h0.23c2,5.6,16.84,8.61,30.58,8.61s28.6-3,30.58-8.61h0.21l0-1V23.85h0Z"/><ellipse class="cls-6" cx="359.99" cy="24.97" rx="29.81" ry="8.89"/><path class="cls-4" d="M45.72,451.4q0.9,0,2,0t2.15,0.24a15,15,0,0,1,2.23.53,6.58,6.58,0,0,1,2,1A5.31,5.31,0,0,1,55.56,455a5.56,5.56,0,0,1,.57,2.63,4.72,4.72,0,0,1-.49,2.28,3.72,3.72,0,0,1-1.3,1.41,4.48,4.48,0,0,1-1.85.64,7.7,7.7,0,0,1-2.15,0L50,461.87l-0.49-.09-0.5-.11-0.35-.1v5.18l-2.93-.46C45.72,460.34,45.72,457.35,45.72,451.4Zm4.36,2.86c-0.29,0-.56-0.08-0.81-0.09s-0.46,0-.62,0V459l0.26,0.08,0.36,0.09,0.37,0.07,0.27,0a6,6,0,0,0,1.14.07,2.48,2.48,0,0,0,1-.24,1.65,1.65,0,0,0,.72-0.7,2.7,2.7,0,0,0,.27-1.31,2.52,2.52,0,0,0-.93-2.06,3.12,3.12,0,0,0-1-.53A5.93,5.93,0,0,0,50.08,454.25Z"/><path class="cls-4" d="M68.4,468.62a3.12,3.12,0,0,1-.72.4,6.1,6.1,0,0,1-1,.31,7.23,7.23,0,0,1-1.29.15,8.26,8.26,0,0,1-1.5-.09,8,8,0,0,1-2.45-.75,5.95,5.95,0,0,1-3-3.36,7.18,7.18,0,0,1-.4-2.44,5.85,5.85,0,0,1,.45-2.42,4,4,0,0,1,1.23-1.59,4.28,4.28,0,0,1,1.83-.79,6.8,6.8,0,0,1,2.27,0,7.6,7.6,0,0,1,1.68.46,5.52,5.52,0,0,1,1.59,1,4.92,4.92,0,0,1,1.19,1.58,5.25,5.25,0,0,1,.46,2.3,9.88,9.88,0,0,1-.21,2l-7.7-1.14a2.77,2.77,0,0,0,.29,1.2,2.85,2.85,0,0,0,.71.88,3.64,3.64,0,0,0,1,.59,5.45,5.45,0,0,0,1.21.32,6,6,0,0,0,2.11,0,3.73,3.73,0,0,0,1.34-.53Zm-4.62-8.36a3.4,3.4,0,0,0-1,0,2.48,2.48,0,0,0-.89.32,2,2,0,0,0-.65.64,2,2,0,0,0-.3.94l5.26,0.79a2.71,2.71,0,0,0-.59-1.78A2.74,2.74,0,0,0,63.78,460.26Z"/><path class="cls-4" d="M70.65,467.72l2.65,0.38v-6l-2.65-.38v-2.37L75.46,460l0.32,1.46h0.09a4.62,4.62,0,0,1,1.37-1,3.13,3.13,0,0,1,1.8-.22,2.86,2.86,0,0,1,2,1.23,5.73,5.73,0,0,1,.74,3.26l-2.5-.35a2.36,2.36,0,0,0-.22-1.16,0.93,0.93,0,0,0-.72-0.46,1.92,1.92,0,0,0-1.38.23,3.5,3.5,0,0,0-.89.86v4.58l4.65,0.66v2.37c-4-.57-6-0.85-10.08-1.44v-2.37Z"/><path class="cls-4" d="M91.27,470a0.92,0.92,0,0,0-.52-0.76,8.9,8.9,0,0,0-1.3-.65l-1.69-.67a8.88,8.88,0,0,1-1.69-.86,5.18,5.18,0,0,1-1.3-1.19,2.64,2.64,0,0,1-.52-1.65,2.46,2.46,0,0,1,.35-1.35,2.62,2.62,0,0,1,1-.89,4,4,0,0,1,1.46-.43,7.28,7.28,0,0,1,1.83,0,10.61,10.61,0,0,1,1.84.4,10.22,10.22,0,0,1,1.38.55,6.06,6.06,0,0,1,1,.62l0.72,0.58-1.18,1.76q-0.32-.24-0.74-0.5c-0.28-.17-0.57-0.34-0.88-0.49a7.63,7.63,0,0,0-1-.41,5.06,5.06,0,0,0-1-.24,3.62,3.62,0,0,0-1.46,0,0.65,0.65,0,0,0-.56.65,0.86,0.86,0,0,0,.52.7,9.71,9.71,0,0,0,1.3.62l1.69,0.67a10.31,10.31,0,0,1,1.69.84,4.94,4.94,0,0,1,1.3,1.15,2.55,2.55,0,0,1,.52,1.62,2.67,2.67,0,0,1-1.19,2.41,5.19,5.19,0,0,1-3.52.46,9.15,9.15,0,0,1-3.18-1A8.89,8.89,0,0,1,84,470.46l1.28-1.84a7.79,7.79,0,0,0,.74.63,8,8,0,0,0,1,.67,10,10,0,0,0,1.23.57,5.76,5.76,0,0,0,1.3.34,2.55,2.55,0,0,0,1.18-.08A0.7,0.7,0,0,0,91.27,470Z"/><path class="cls-4" d="M96.26,468.27a6.22,6.22,0,0,1,.41-2.35,4.12,4.12,0,0,1,1.16-1.63,4.2,4.2,0,0,1,1.79-.87,6.56,6.56,0,0,1,2.33-.07,7.29,7.29,0,0,1,2.41.72,6,6,0,0,1,1.79,1.38,5.71,5.71,0,0,1,1.1,1.94,7.3,7.3,0,0,1,.37,2.37,6.23,6.23,0,0,1-.41,2.36,4.15,4.15,0,0,1-1.16,1.64,4.2,4.2,0,0,1-1.79.88,6.52,6.52,0,0,1-2.33.08,7.25,7.25,0,0,1-2.41-.72,6,6,0,0,1-1.79-1.39,5.74,5.74,0,0,1-1.1-1.94A7.32,7.32,0,0,1,96.26,468.27Zm2.87,0.38a4.53,4.53,0,0,0,.19,1.34,3.76,3.76,0,0,0,.56,1.13,3,3,0,0,0,.88.81,3,3,0,0,0,1.18.4,2.44,2.44,0,0,0,2-.53,3.12,3.12,0,0,0,.78-2.42,4.14,4.14,0,0,0-.73-2.49,2.9,2.9,0,0,0-2.08-1.18,3.18,3.18,0,0,0-1.11,0,1.84,1.84,0,0,0-.89.47,2.44,2.44,0,0,0-.59,1A4.39,4.39,0,0,0,99.13,468.65Z"/><path class="cls-4" d="M108.62,464.49l3.75,0.47,0.32,1.46h0.09a3.57,3.57,0,0,1,1.42-1,4.2,4.2,0,0,1,2.21-.24,5.41,5.41,0,0,1,1.49.4,3.35,3.35,0,0,1,1.19.85,4,4,0,0,1,.78,1.44,6.9,6.9,0,0,1,.29,2.13v6.69l-2.79-.34v-6.11a2.85,2.85,0,0,0-.59-2,2.33,2.33,0,0,0-1.49-.76,2.25,2.25,0,0,0-1.45.28,2,2,0,0,0-.89,1v7l-2.79-.35v-8.38l-1.54-.19v-2.37Z"/><path class="cls-4" d="M125.93,475.93a1.38,1.38,0,0,1,.47-1.14,1.6,1.6,0,0,1,1.24-.3,2,2,0,0,1,1.29.59,1.74,1.74,0,0,1,.47,1.25,1.42,1.42,0,0,1-.47,1.15,1.63,1.63,0,0,1-1.29.3,2,2,0,0,1-1.24-.6A1.78,1.78,0,0,1,125.93,475.93Z"/><path class="cls-4" d="M145.49,479.54a4.49,4.49,0,0,1-.4,2,3.39,3.39,0,0,1-1.09,1.31,4,4,0,0,1-1.65.66,7.47,7.47,0,0,1-2.09,0,8.72,8.72,0,0,1-1.45-.28,9.13,9.13,0,0,1-1.25-.45,8,8,0,0,1-1-.53,4.58,4.58,0,0,1-.69-0.52l1.07-1.86a9,9,0,0,0,1.23.79,4.91,4.91,0,0,0,1.81.51,2.8,2.8,0,0,0,2.06-.4,2,2,0,0,0,.71-1.71v-0.69h-0.09a2,2,0,0,1-1.14.64,5.39,5.39,0,0,1-1.74.06,5.81,5.81,0,0,1-1.9-.53,4.76,4.76,0,0,1-1.51-1.15,5.11,5.11,0,0,1-1-1.78,7.52,7.52,0,0,1-.35-2.41,6.65,6.65,0,0,1,.42-2.47,4.16,4.16,0,0,1,3-2.62,6.86,6.86,0,0,1,2.37-.11q0.69,0.08,1.37.2t1.3,0.28q0.61,0.15,1.13.33a7.7,7.7,0,0,1,.86.34C145.49,473.33,145.49,475.4,145.49,479.54Zm-5.15-2.62a2.78,2.78,0,0,0,1.47-.2,1.6,1.6,0,0,0,.89-1v-4.84a3.74,3.74,0,0,0-.85-0.3,7.9,7.9,0,0,0-1-.19,3.13,3.13,0,0,0-1.13.07,2.08,2.08,0,0,0-.92.51,2.53,2.53,0,0,0-.62,1,4.32,4.32,0,0,0-.23,1.49,4.72,4.72,0,0,0,.19,1.4,3.37,3.37,0,0,0,.54,1.07,2.68,2.68,0,0,0,.77.7A2.3,2.3,0,0,0,140.33,476.92Z"/><path class="cls-4" d="M147.83,477.43l2.66,0.28v-6l-2.66-.28V469l4.83,0.51L153,471h0.09a4.9,4.9,0,0,1,1.37-1,3.2,3.2,0,0,1,1.81-.29,2.74,2.74,0,0,1,2,1.15,5.57,5.57,0,0,1,.74,3.23l-2.51-.25a2.3,2.3,0,0,0-.23-1.15,0.89,0.89,0,0,0-.72-0.43,2,2,0,0,0-1.39.29,3.72,3.72,0,0,0-.89.9c0,1.83,0,2.75,0,4.58l4.66,0.48v2.37c-4-.41-6.07-0.62-10.12-1v-2.37Z"/><path class="cls-4" d="M171.35,481a3.36,3.36,0,0,1-.72.44,6.44,6.44,0,0,1-1,.36,7.45,7.45,0,0,1-1.3.22,8.29,8.29,0,0,1-1.51,0,7.7,7.7,0,0,1-2.46-.63,5.54,5.54,0,0,1-3-3.21,7,7,0,0,1-.4-2.42,6,6,0,0,1,.45-2.44,4.32,4.32,0,0,1,1.24-1.65,4.57,4.57,0,0,1,1.84-.88,6.9,6.9,0,0,1,2.28-.13,7.39,7.39,0,0,1,1.69.38,5.19,5.19,0,0,1,1.6.89,4.57,4.57,0,0,1,1.19,1.52,5.08,5.08,0,0,1,.46,2.28,10,10,0,0,1-.21,2l-7.74-.74a2.55,2.55,0,0,0,1,2,3.43,3.43,0,0,0,1,.54,5.3,5.3,0,0,0,1.21.26,6.07,6.07,0,0,0,2.12-.1,4,4,0,0,0,1.34-.6Zm-4.64-8.12a3.45,3.45,0,0,0-1.05.05,2.63,2.63,0,0,0-.89.36,2.13,2.13,0,0,0-.66.67,2.09,2.09,0,0,0-.3,1l5.29,0.51A2.37,2.37,0,0,0,166.71,472.89Z"/><path class="cls-4" d="M184.25,482.19a3.38,3.38,0,0,1-.72.44,6.4,6.4,0,0,1-1,.37,7.52,7.52,0,0,1-1.3.23,8.29,8.29,0,0,1-1.51,0,7.68,7.68,0,0,1-2.46-.61,5.49,5.49,0,0,1-3-3.19,6.93,6.93,0,0,1-.4-2.41,6,6,0,0,1,.45-2.44,4.37,4.37,0,0,1,1.24-1.66,4.62,4.62,0,0,1,1.84-.9,6.92,6.92,0,0,1,2.28-.15,7.37,7.37,0,0,1,1.69.37,5.14,5.14,0,0,1,1.6.88,4.53,4.53,0,0,1,1.19,1.51,5,5,0,0,1,.46,2.28,10,10,0,0,1-.22,2l-7.74-.69a2.53,2.53,0,0,0,1,2,3.39,3.39,0,0,0,1,.53,5.27,5.27,0,0,0,1.21.25,6.09,6.09,0,0,0,2.12-.11,4,4,0,0,0,1.34-.61Zm-4.64-8.09a3.44,3.44,0,0,0-1.05.06,2.65,2.65,0,0,0-.89.37,2.15,2.15,0,0,0-.66.67,2.1,2.1,0,0,0-.3,1l5.29,0.48A2.36,2.36,0,0,0,179.61,474.1Z"/><path class="cls-4" d="M188.17,475.28L186,475.1v-2.37l2.13,0.18v-2.45l2.8-.56v3.25l5.64,0.47V476l-5.64-.47v3.07a4,4,0,0,0,.62,2.45,2.35,2.35,0,0,0,1.74.89,3.6,3.6,0,0,0,1.05-.05,3.64,3.64,0,0,0,.85-0.28,4.36,4.36,0,0,0,.69-0.42l0.57-.43,1.29,2a3.64,3.64,0,0,1-.91.71,7,7,0,0,1-2.51.84,6.2,6.2,0,0,1-1.36,0,5,5,0,0,1-3.62-1.65,6.68,6.68,0,0,1-1.22-4.37v-3.07Z"/><path class="cls-4" d="M199.85,482.27l3.79,0.3v-6l-3.79-.3v-2.37l6.58,0.52c0,3.35,0,5,0,8.38l4,0.3v2.37c-4.23-.32-6.34-0.48-10.57-0.82v-2.37Zm3.27-11a1.4,1.4,0,0,1,.49-1.1,1.79,1.79,0,0,1,1.38-.37,2.27,2.27,0,0,1,1.44.58,1.59,1.59,0,0,1,.54,1.18,1.28,1.28,0,0,1-.54,1.09,2.08,2.08,0,0,1-1.44.33,2.14,2.14,0,0,1-1.38-.55A1.56,1.56,0,0,1,203.12,471.22Z"/><path class="cls-4" d="M211.75,474.8l3.77,0.28,0.32,1.44h0.09a3.85,3.85,0,0,1,1.42-1.1,4.32,4.32,0,0,1,2.22-.36,5.26,5.26,0,0,1,1.5.32,3.12,3.12,0,0,1,1.19.79,3.77,3.77,0,0,1,.79,1.4,6.72,6.72,0,0,1,.29,2.12v6.69l-2.8-.19c0-2.44,0-3.66,0-6.11a2.72,2.72,0,0,0-.59-1.93,2.21,2.21,0,0,0-1.5-.69,2.34,2.34,0,0,0-1.45.36,2.1,2.1,0,0,0-.89,1.09v7l-2.8-.2v-8.38l-1.55-.11V474.8Z"/><path class="cls-4" d="M235.82,487.19a4.6,4.6,0,0,1-.4,2,3.63,3.63,0,0,1-1.1,1.36,4.22,4.22,0,0,1-1.66.73,7.56,7.56,0,0,1-2.1.13,8.61,8.61,0,0,1-1.45-.21,8.79,8.79,0,0,1-1.25-.39,7.51,7.51,0,0,1-1-.49,4.31,4.31,0,0,1-.69-0.49l1.08-1.91a8.46,8.46,0,0,0,1.24.74,4.77,4.77,0,0,0,1.82.43,2.9,2.9,0,0,0,2.07-.49,2.11,2.11,0,0,0,.71-1.74v-0.69H233a2.07,2.07,0,0,1-1.14.69,5.47,5.47,0,0,1-1.74.13,5.65,5.65,0,0,1-1.91-.45,4.47,4.47,0,0,1-1.52-1.08,4.8,4.8,0,0,1-1-1.73,7.35,7.35,0,0,1-.35-2.39,6.78,6.78,0,0,1,.42-2.49,4.43,4.43,0,0,1,3-2.76,7,7,0,0,1,2.38-.22q0.69,0,1.38.14t1.3,0.22q0.61,0.13,1.13.28a7.3,7.3,0,0,1,.86.3C235.82,481,235.82,483,235.82,487.19Zm-5.17-2.39a2.86,2.86,0,0,0,1.47-.27,1.7,1.7,0,0,0,.89-1v-4.84a3.59,3.59,0,0,0-.85-0.26,7.82,7.82,0,0,0-1-.14,3.18,3.18,0,0,0-1.13.12,2.21,2.21,0,0,0-.93.55,2.7,2.7,0,0,0-.62,1,4.4,4.4,0,0,0-.23,1.5,4.62,4.62,0,0,0,.19,1.39,3.19,3.19,0,0,0,.54,1,2.54,2.54,0,0,0,.78.66A2.23,2.23,0,0,0,230.65,484.8Z"/><path class="cls-4" d="M247.12,492.41a10.51,10.51,0,0,1-2.93-1.11,9.32,9.32,0,0,1-2.52-2.06,9.83,9.83,0,0,1-1.76-3,11.51,11.51,0,0,1-.66-4,10.87,10.87,0,0,1,.66-3.95,8.65,8.65,0,0,1,1.76-2.85,8,8,0,0,1,2.52-1.81,10.17,10.17,0,0,1,2.93-.84l0.52,2.33a8.57,8.57,0,0,0-1.71.52,5.77,5.77,0,0,0-1.82,1.21,6.65,6.65,0,0,0-1.45,2.16,8.47,8.47,0,0,0-.59,3.4,8.19,8.19,0,0,0,.62,3.37,8,8,0,0,0,1.52,2.31,7.27,7.27,0,0,0,1.84,1.42,7.78,7.78,0,0,0,1.59.66Z"/><path class="cls-4" d="M255.44,488.31v-6.58a5.19,5.19,0,0,0-.09-1,2.11,2.11,0,0,0-.23-0.63,0.75,0.75,0,0,0-.35-0.32,1.24,1.24,0,0,0-.42-0.1,1.05,1.05,0,0,0-.68.2,1.07,1.07,0,0,0-.42.58v7.78l-2.59-.14c0-4.3,0-6.45,0-10.75l2,0.11,0.3,1.2h0.06a2.44,2.44,0,0,1,.95-1,2.58,2.58,0,0,1,1.46-.32,3,3,0,0,1,1.36.41,2,2,0,0,1,.88,1.25,2.23,2.23,0,0,1,1-1.1,2.69,2.69,0,0,1,1.44-.33,3.26,3.26,0,0,1,1,.21,2,2,0,0,1,.81.61,3,3,0,0,1,.53,1.13,7.37,7.37,0,0,1,.18,1.8v7.35l-2.59-.13v-6.88a2.28,2.28,0,0,0-.31-1.37,1,1,0,0,0-.76-0.43,1.15,1.15,0,0,0-.67.15,0.9,0.9,0,0,0-.39.57v7.85Z"/><path class="cls-4" d="M274.68,488.08a3.61,3.61,0,0,1-.72.47,6.8,6.8,0,0,1-1,.42,7.73,7.73,0,0,1-1.3.29,8.35,8.35,0,0,1-1.51.06,7.49,7.49,0,0,1-2.47-.5,5.15,5.15,0,0,1-3-3.05,6.77,6.77,0,0,1-.4-2.39,6.15,6.15,0,0,1,.45-2.46,4.65,4.65,0,0,1,1.24-1.72,4.88,4.88,0,0,1,1.84-1,7,7,0,0,1,2.28-.25,7.21,7.21,0,0,1,1.69.29,4.87,4.87,0,0,1,1.61.81,4.23,4.23,0,0,1,1.2,1.46,4.9,4.9,0,0,1,.46,2.26,10.14,10.14,0,0,1-.22,2l-7.76-.34a2.54,2.54,0,0,0,.29,1.17,2.45,2.45,0,0,0,.71.81,3.21,3.21,0,0,0,1,.49,5.16,5.16,0,0,0,1.22.2,6.18,6.18,0,0,0,2.12-.21,4.23,4.23,0,0,0,1.35-.67ZM270,480.2a3.49,3.49,0,0,0-1.06.11,2.78,2.78,0,0,0-.89.41,2.3,2.3,0,0,0-.66.7,2.17,2.17,0,0,0-.3,1l5.3,0.24A2.24,2.24,0,0,0,270,480.2Z"/><path class="cls-4" d="M278.69,491.6a7.12,7.12,0,0,0,1.59-.51,6.36,6.36,0,0,0,1.84-1.24,7,7,0,0,0,1.52-2.17,7.77,7.77,0,0,0,.62-3.31,8.9,8.9,0,0,0-.59-3.46,7.6,7.6,0,0,0-1.45-2.3,6.63,6.63,0,0,0-1.82-1.38,9.38,9.38,0,0,0-1.71-.68l0.52-2.28a11.1,11.1,0,0,1,2.93,1.13,9.23,9.23,0,0,1,2.52,2.05,9.8,9.8,0,0,1,1.76,3,11.39,11.39,0,0,1,.66,4,11,11,0,0,1-.66,4,8.65,8.65,0,0,1-1.76,2.86,8.11,8.11,0,0,1-2.52,1.82,9.64,9.64,0,0,1-2.93.83Z"/><path class="cls-4" d="M342.29,475.9l9.9,0.06c0,1,0,1.57,0,2.62l-6.94,0v3.5l6.41,0v2.62l-6.41,0v3.68l7.05,0V491l-10-.06C342.29,484.93,342.29,481.92,342.29,475.9Z"/><path class="cls-4" d="M354,480.27h3.77l0.32,1.42h0.09a4.28,4.28,0,0,1,1.42-1.2,4.52,4.52,0,0,1,2.22-.52,5.09,5.09,0,0,1,1.5.21,2.86,2.86,0,0,1,1.2.71,3.45,3.45,0,0,1,.79,1.34,6.51,6.51,0,0,1,.29,2.1V491h-2.8c0-2.44,0-3.66,0-6.11a2.56,2.56,0,0,0-.59-1.89,2.06,2.06,0,0,0-1.5-.58,2.48,2.48,0,0,0-1.46.46,2.32,2.32,0,0,0-.9,1.15v7h-2.8c0-3.35,0-5,0-8.38H354v-2.37Z"/><path class="cls-4" d="M373.78,480.23l4,0c0,3,0,4.49,0,7.48v0.9l1.64,0v2.37L376,491l-0.5-1.59h-0.09a3.85,3.85,0,0,1-1.49,1.37,4.55,4.55,0,0,1-2.2.55,4.94,4.94,0,0,1-1.5-.21,2.68,2.68,0,0,1-1.15-.7,3.28,3.28,0,0,1-.73-1.33,7.26,7.26,0,0,1-.26-2.11v-4.32h-1.23v-2.37l4,0v6.11a3.28,3.28,0,0,0,.42,1.89,1.52,1.52,0,0,0,1.33.57,2.36,2.36,0,0,0,1.44-.48,2.58,2.58,0,0,0,.89-1.17c0-1.83,0-2.75,0-4.58h-1.21v-2.37Z"/><path class="cls-4" d="M384.8,490.88c0-2.63,0-3.95,0-6.58a5.1,5.1,0,0,0-.09-1,2,2,0,0,0-.23-0.62,0.68,0.68,0,0,0-.35-0.3,1.2,1.2,0,0,0-.42-0.07,1.11,1.11,0,0,0-.68.24,1.17,1.17,0,0,0-.42.61c0,3.11,0,4.67,0,7.78l-2.59,0c0-4.3,0-6.45,0-10.75l2,0,0.3,1.18h0.06a2.69,2.69,0,0,1,2.42-1.45,2.83,2.83,0,0,1,1.36.33,1.8,1.8,0,0,1,.88,1.19,2.45,2.45,0,0,1,1-1.16,2.82,2.82,0,0,1,1.44-.42,3.16,3.16,0,0,1,1,.15,1.81,1.81,0,0,1,.81.56,2.75,2.75,0,0,1,.53,1.1,7.22,7.22,0,0,1,.18,1.79v7.35l-2.59,0c0-2.75,0-4.13,0-6.88a2.18,2.18,0,0,0-.31-1.35,0.94,0.94,0,0,0-.77-0.38,1.21,1.21,0,0,0-.67.19,1,1,0,0,0-.39.6v7.85Z"/><path class="cls-4" d="M397.27,489.27a1.58,1.58,0,0,1,.47-1.2,2.06,2.06,0,0,1,2.54,0,1.52,1.52,0,0,1,.47,1.18,1.62,1.62,0,0,1-.47,1.21,1.83,1.83,0,0,1-1.29.48,1.71,1.71,0,0,1-1.25-.43A1.55,1.55,0,0,1,397.27,489.27Z"/><path class="cls-4" d="M407.51,479.72l7.93-.2c0,4,0,5.95,0,9.91a5.69,5.69,0,0,1-1.29,3.93,5.11,5.11,0,0,1-3.88,1.52,6.11,6.11,0,0,1-2-.27,4.48,4.48,0,0,1-1.64-.91l1.25-2.09a4.37,4.37,0,0,0,.85.46,3.17,3.17,0,0,0,1.39.26,3,3,0,0,0,1-.19,2,2,0,0,0,.81-0.56,2.71,2.71,0,0,0,.54-1,5,5,0,0,0,.19-1.51c0-2.85,0-4.27,0-7.12l-5.13.13v-2.37Zm3.51-3a1.56,1.56,0,0,1,.5-1.15,2,2,0,0,1,1.38-.51,2.07,2.07,0,0,1,1.44.43,1.46,1.46,0,0,1,0,2.27,2.26,2.26,0,0,1-1.44.48,2,2,0,0,1-1.38-.4A1.41,1.41,0,0,1,411,476.71Z"/><path class="cls-4" d="M419.17,484.78a6.71,6.71,0,0,1,.41-2.42,5.07,5.07,0,0,1,3-3,7,7,0,0,1,2.34-.45,6.67,6.67,0,0,1,2.43.33,4.8,4.8,0,0,1,1.8,1.09,4.61,4.61,0,0,1,1.11,1.76,7.32,7.32,0,0,1,0,4.73,5.09,5.09,0,0,1-3,3,7,7,0,0,1-2.34.45,6.63,6.63,0,0,1-2.43-.33,4.79,4.79,0,0,1-1.8-1.1,4.63,4.63,0,0,1-1.11-1.76A6.75,6.75,0,0,1,419.17,484.78Zm2.89-.09a4.2,4.2,0,0,0,.19,1.31,3.1,3.1,0,0,0,.56,1,2.42,2.42,0,0,0,.88.67,2.66,2.66,0,0,0,1.19.21,2.83,2.83,0,0,0,2-.86,3.56,3.56,0,0,0,.79-2.54,3.62,3.62,0,0,0-.73-2.37,2.45,2.45,0,0,0-2.09-.84,3.4,3.4,0,0,0-1.12.22,2.3,2.3,0,0,0-.9.62,3,3,0,0,0-.59,1.05A4.69,4.69,0,0,0,422.06,484.7Z"/><path class="cls-4" d="M432.62,487.35l3.79-.14v-6l-3.79.14c0-.95,0-1.42,0-2.37l6.6-.25c0,3.35,0,5,0,8.38l4-.16c0,0.95,0,1.42,0,2.37-4.23.18-6.35,0.26-10.58,0.41C432.62,488.77,432.62,488.3,432.62,487.35Zm3.28-11.43a1.58,1.58,0,0,1,.5-1.16,2,2,0,0,1,1.38-.53,2,2,0,0,1,1.44.42,1.4,1.4,0,0,1,.54,1.12,1.45,1.45,0,0,1-.54,1.15,2.28,2.28,0,0,1-1.44.5,1.94,1.94,0,0,1-1.38-.39A1.39,1.39,0,0,1,435.9,475.92Z"/><path class="cls-4" d="M444.54,478.5l3.77-.16,0.32,1.4h0.09a4.56,4.56,0,0,1,1.42-1.27,4.66,4.66,0,0,1,2.22-.62,5,5,0,0,1,1.5.15,2.69,2.69,0,0,1,1.2.65,3.25,3.25,0,0,1,.79,1.31,6.4,6.4,0,0,1,.29,2.08c0,2.67,0,4,0,6.69l-2.8.13c0-2.44,0-3.66,0-6.11a2.46,2.46,0,0,0-.59-1.86,2,2,0,0,0-1.5-.51,2.58,2.58,0,0,0-1.45.53,2.47,2.47,0,0,0-.89,1.19c0,2.79,0,4.18,0,7l-2.8.12c0-3.35,0-5,0-8.38l-1.55.07V478.5Z"/><path class="cls-4" d="M467,492.73a9.55,9.55,0,0,1-2.93-.79,8,8,0,0,1-2.52-1.78,8.51,8.51,0,0,1-1.76-2.84,10.91,10.91,0,0,1-.66-4,11.46,11.46,0,0,1,.66-4,10,10,0,0,1,1.76-3,9.41,9.41,0,0,1,2.52-2.09A11.24,11.24,0,0,1,467,473l0.52,2.27a9.51,9.51,0,0,0-1.71.7,6.73,6.73,0,0,0-1.82,1.41,7.71,7.71,0,0,0-1.45,2.32,9,9,0,0,0-.59,3.47,7.71,7.71,0,0,0,.62,3.3,6.87,6.87,0,0,0,1.52,2.15,6.24,6.24,0,0,0,1.84,1.22,7,7,0,0,0,1.6.49Z"/><path class="cls-4" d="M481.56,487.35a4.93,4.93,0,0,1-.4,2,4.33,4.33,0,0,1-1.1,1.5,4.89,4.89,0,0,1-1.66.94,7.92,7.92,0,0,1-2.1.39,8.35,8.35,0,0,1-1.45,0,8.05,8.05,0,0,1-1.25-.24,6.58,6.58,0,0,1-1-.36,3.65,3.65,0,0,1-.69-0.4l1.08-2a7.26,7.26,0,0,0,1.24.59,4.49,4.49,0,0,0,1.82.21,3.2,3.2,0,0,0,2.07-.74,2.38,2.38,0,0,0,.71-1.83v-0.69h-0.09a2.44,2.44,0,0,1-1.14.83,5.75,5.75,0,0,1-1.75.35,5.32,5.32,0,0,1-1.91-.21,3.79,3.79,0,0,1-1.52-.89,4.09,4.09,0,0,1-1-1.61,7,7,0,0,1-.36-2.35,7.2,7.2,0,0,1,.42-2.54,5.26,5.26,0,0,1,3-3.13,7.37,7.37,0,0,1,2.38-.51q0.69,0,1.38,0c0.46,0,.89,0,1.3.06s0.79,0.08,1.13.14a6.61,6.61,0,0,1,.86.2C481.56,481.13,481.56,483.2,481.56,487.35Zm-5.17-1.76a3.11,3.11,0,0,0,1.48-.45,2,2,0,0,0,.89-1.15v-4.84a3.3,3.3,0,0,0-.85-0.15,7.61,7.61,0,0,0-1,0,3.38,3.38,0,0,0-1.13.26,2.61,2.61,0,0,0-.93.67,3.17,3.17,0,0,0-.62,1.09,4.64,4.64,0,0,0-.23,1.53,4.38,4.38,0,0,0,.19,1.36,2.74,2.74,0,0,0,.54,1,2.13,2.13,0,0,0,.78.57A2.07,2.07,0,0,0,476.39,485.59Z"/><path class="cls-4" d="M483.9,484.84l2.67-.17c0-2.41,0-3.61,0-6l-2.67.17c0-.95,0-1.42,0-2.37l4.84-.31,0.32,1.4h0.09a6.25,6.25,0,0,1,1.38-1.27,3.6,3.6,0,0,1,1.81-.59,2.29,2.29,0,0,1,2,.81,5,5,0,0,1,.74,3.11l-2.52.17a2.08,2.08,0,0,0-.23-1.11,0.74,0.74,0,0,0-.72-0.31,2.26,2.26,0,0,0-1.39.52,4.77,4.77,0,0,0-.89,1v4.58l4.67-.31c0,0.95,0,1.42,0,2.37-4.06.27-6.08,0.4-10.14,0.65v-2.37Z"/><path class="cls-4" d="M507.48,484.47a4.26,4.26,0,0,1-.72.56,7.75,7.75,0,0,1-1,.54,8.42,8.42,0,0,1-1.3.44,8.63,8.63,0,0,1-1.51.24,7.12,7.12,0,0,1-2.46-.21,4.38,4.38,0,0,1-3-2.71,6.4,6.4,0,0,1-.4-2.35,6.55,6.55,0,0,1,.45-2.51,5.46,5.46,0,0,1,1.24-1.86,5.67,5.67,0,0,1,1.84-1.19,7.43,7.43,0,0,1,2.28-.52,6.92,6.92,0,0,1,1.69.09,4.28,4.28,0,0,1,1.6.62,3.57,3.57,0,0,1,1.19,1.32,4.57,4.57,0,0,1,.46,2.2,10.53,10.53,0,0,1-.22,2l-7.75.56a2.34,2.34,0,0,0,.29,1.14,2.07,2.07,0,0,0,.71.72,2.85,2.85,0,0,0,1,.37,5,5,0,0,0,1.22.05,6.51,6.51,0,0,0,2.12-.45,4.89,4.89,0,0,0,1.35-.83Zm-4.65-7.34a3.68,3.68,0,0,0-1.05.23,3.18,3.18,0,0,0-.89.51,2.72,2.72,0,0,0-.66.78,2.39,2.39,0,0,0-.3,1l5.3-.38A2,2,0,0,0,502.83,477.13Z"/><path class="cls-4" d="M520.39,483.48a4.29,4.29,0,0,1-.72.56,7.82,7.82,0,0,1-1,.54,8.48,8.48,0,0,1-1.3.45,8.64,8.64,0,0,1-1.51.25,7.1,7.1,0,0,1-2.46-.2,4.34,4.34,0,0,1-3-2.69A6.38,6.38,0,0,1,510,480a6.57,6.57,0,0,1,.45-2.52,5.5,5.5,0,0,1,1.24-1.87,5.72,5.72,0,0,1,1.84-1.2,7.45,7.45,0,0,1,2.28-.53,6.9,6.9,0,0,1,1.69.08,4.25,4.25,0,0,1,1.6.61,3.54,3.54,0,0,1,1.19,1.31,4.56,4.56,0,0,1,.46,2.2,10.55,10.55,0,0,1-.21,2l-7.75.61a2.33,2.33,0,0,0,.29,1.14,2.05,2.05,0,0,0,.71.72,2.83,2.83,0,0,0,1,.36,5,5,0,0,0,1.22,0,6.53,6.53,0,0,0,2.12-.47,4.93,4.93,0,0,0,1.34-.84Zm-4.65-7.31a3.69,3.69,0,0,0-1.05.24,3.21,3.21,0,0,0-.89.52,2.74,2.74,0,0,0-.66.78,2.41,2.41,0,0,0-.3,1l5.29-.41A2,2,0,0,0,515.74,476.17Z"/><path class="cls-4" d="M524.3,475.91l-2.13.17c0-.95,0-1.42,0-2.37l2.13-.17V471.1l2.8-1v3.25l5.64-.48v2.37l-5.64.48v3.07a3.49,3.49,0,0,0,.62,2.35,2,2,0,0,0,1.74.59,3.85,3.85,0,0,0,1.05-.23,4.35,4.35,0,0,0,.85-0.43,5.52,5.52,0,0,0,.69-0.53l0.57-.52,1.29,1.82a4.67,4.67,0,0,1-.91.86,8.55,8.55,0,0,1-1.18.73,8.13,8.13,0,0,1-1.32.53,6.53,6.53,0,0,1-1.35.27,4.31,4.31,0,0,1-3.62-1q-1.21-1.24-1.22-4.17v-3.07Z"/><path class="cls-4" d="M536.39,485.79l9.55-.86v2.3l-9.55.86C536.39,487.17,536.39,486.71,536.39,485.79Z"/><path class="cls-4" d="M547.61,471.5l3.65-.35,0.32,1.26h0.09a4.57,4.57,0,0,1,3.61-1.94,4.94,4.94,0,0,1,1.82.13,3.11,3.11,0,0,1,1.42.84,4,4,0,0,1,.91,1.59,7.74,7.74,0,0,1,.32,2.4,8.27,8.27,0,0,1-.36,2.52,6,6,0,0,1-1.05,2,5.2,5.2,0,0,1-1.68,1.35,6.23,6.23,0,0,1-2.26.63,8.72,8.72,0,0,1-1.31,0,3.4,3.4,0,0,1-1.07-.21c0,1.76,0,2.64,0,4.41l-2.79.27c0-5.07,0-7.61,0-12.68l-1.61.15V471.5Zm6.83,1.41a3.08,3.08,0,0,0-1.49.55,2.42,2.42,0,0,0-.94,1.32v4.47a2.08,2.08,0,0,0,.87.29,4.67,4.67,0,0,0,1.15,0,3.19,3.19,0,0,0,1.12-.31,2.63,2.63,0,0,0,.9-0.74,3.6,3.6,0,0,0,.6-1.2,5.84,5.84,0,0,0,.21-1.68,2.93,2.93,0,0,0-.69-2.13A2,2,0,0,0,554.45,472.91Z"/><path class="cls-4" d="M562.44,470.79a13,13,0,0,1,2-.87,11.82,11.82,0,0,1,2.67-.55,5.76,5.76,0,0,1,1.9.07,2.8,2.8,0,0,1,1.27.63,2.53,2.53,0,0,1,.7,1.11,5,5,0,0,1,.21,1.53q0,1.1-.08,1.88T571,476a9.09,9.09,0,0,0,0,1c0,0.19,0,.39.06,0.57l1.4-.15v2.37l-3.61.38-0.28-1.43h-0.11a4.32,4.32,0,0,1-1.22,1.28,4.4,4.4,0,0,1-2.13.7,3.34,3.34,0,0,1-2.54-.6,2.66,2.66,0,0,1-.94-2.18,3.64,3.64,0,0,1,.33-1.59,3.22,3.22,0,0,1,1-1.17,5.13,5.13,0,0,1,1.52-.78,9.27,9.27,0,0,1,2-.41c0.26,0,.53,0,0.81,0l1,0a2.27,2.27,0,0,0,0-.43v-0.41a1.24,1.24,0,0,0-.47-1.12,2.14,2.14,0,0,0-1.39-.21,6.82,6.82,0,0,0-2,.48,14.29,14.29,0,0,0-1.47.71Zm3.66,7.52a2.79,2.79,0,0,0,1.53-.53,3,3,0,0,0,.74-0.88v-1.29l-0.64,0a7.26,7.26,0,0,0-.91,0,4.55,4.55,0,0,0-.81.16,3,3,0,0,0-.72.31,1.65,1.65,0,0,0-.51.47,1.1,1.1,0,0,0-.19.64,1.11,1.11,0,0,0,.35.9A1.54,1.54,0,0,0,566.1,478.3Z"/><path class="cls-4" d="M574.24,477.21l2.66-.29v-6l-2.66.29v-2.37l4.83-.52,0.32,1.38h0.09a6.67,6.67,0,0,1,1.37-1.33,3.73,3.73,0,0,1,1.8-.67,2.18,2.18,0,0,1,2,.72,4.81,4.81,0,0,1,.74,3.08l-2.51.28a2,2,0,0,0-.23-1.1,0.71,0.71,0,0,0-.72-0.27,2.36,2.36,0,0,0-1.38.58,5.1,5.1,0,0,0-.89,1.09v4.58l4.66-.52v2.37c-4,.45-6.07.68-10.11,1.11v-2.37Z"/><path class="cls-4" d="M588.77,469.58l-2.13.24v-2.37l2.13-.24v-2.45l2.79-1.12v3.25l5.62-.66c0,0.95,0,1.42,0,2.37l-5.62.66v3.07a3.41,3.41,0,0,0,.62,2.33,1.93,1.93,0,0,0,1.74.54,3.92,3.92,0,0,0,1.05-.26,4.51,4.51,0,0,0,.85-0.45,5.76,5.76,0,0,0,.69-0.55l0.57-.54,1.29,1.78a4.92,4.92,0,0,1-.91.89,9,9,0,0,1-1.18.76,8.39,8.39,0,0,1-1.32.57,6.63,6.63,0,0,1-1.35.31,4.19,4.19,0,0,1-3.62-.92q-1.21-1.2-1.21-4.13v-3.07Z"/><path class="cls-4" d="M607.77,472.73a0.66,0.66,0,0,0-.52-0.62,6.94,6.94,0,0,0-1.3-.31l-1.69-.23a6.92,6.92,0,0,1-1.69-.42,3.57,3.57,0,0,1-1.3-.85,2.1,2.1,0,0,1-.53-1.52,2.94,2.94,0,0,1,.35-1.44,3.85,3.85,0,0,1,1-1.14,5.23,5.23,0,0,1,1.46-.81,8,8,0,0,1,1.83-.44,9.94,9.94,0,0,1,1.84-.08,8.46,8.46,0,0,1,1.38.19,4.44,4.44,0,0,1,1,.36l0.72,0.39-1.18,2.06c-0.21-.1-0.46-0.2-0.74-0.31a8.68,8.68,0,0,0-.88-0.27,6.26,6.26,0,0,0-1-.16,4.67,4.67,0,0,0-1,0,4.1,4.1,0,0,0-1.46.42,0.91,0.91,0,0,0-.56.8,0.62,0.62,0,0,0,.53.56,7.73,7.73,0,0,0,1.3.28l1.69,0.23a8.08,8.08,0,0,1,1.69.4,3.42,3.42,0,0,1,1.3.82,2,2,0,0,1,.53,1.48,3.53,3.53,0,0,1-1.19,2.72,6.27,6.27,0,0,1-3.53,1.37,8,8,0,0,1-3.18-.16,6.35,6.35,0,0,1-2.16-1l1.29-2.18a5.49,5.49,0,0,0,.74.44,5.81,5.81,0,0,0,1,.4,8,8,0,0,0,1.23.25,5.23,5.23,0,0,0,1.3,0,3,3,0,0,0,1.18-.38A0.94,0.94,0,0,0,607.77,472.73Z"/><path class="cls-4" d="M616.69,473.19a1.68,1.68,0,0,1,.48-1.22,2,2,0,0,1,1.21-.59,1.88,1.88,0,0,1,1.78.54,2.71,2.71,0,0,1,.6,1.84,4.41,4.41,0,0,1-.38,1.81,5.59,5.59,0,0,1-1,1.5,6.39,6.39,0,0,1-1.34,1.12,6.22,6.22,0,0,1-1.47.68L616,477.77a7.16,7.16,0,0,0,1-.5,5,5,0,0,0,1-.71,4,4,0,0,0,.72-0.92,2.55,2.55,0,0,0,.33-1.08,2.82,2.82,0,0,1-1.09.17,1.44,1.44,0,0,1-.74-0.25,1.18,1.18,0,0,1-.42-0.55A2.09,2.09,0,0,1,616.69,473.19Z"/><path class="cls-4" d="M640.53,456.3L643,456l-0.77,6.9-1.67.24C640.53,460.37,640.53,459,640.53,456.3Zm4.62-.66,2.44-.35-0.77,6.91-1.67.24v-6.79Z"/><path class="cls-4" d="M653.37,454.44l2.44-.36L655,461l-1.67.25v-6.79Zm4.62-.69,2.44-.37-0.77,6.91-1.67.25v-6.79Z"/><path class="cls-4" d="M666,469.81a8.6,8.6,0,0,0,1.58-.81,8.32,8.32,0,0,0,1.83-1.6,9.11,9.11,0,0,0,1.51-2.46,8.7,8.7,0,0,0,.62-3.43,8.11,8.11,0,0,0-.59-3.35,5.82,5.82,0,0,0-1.44-2,5,5,0,0,0-1.81-1,7.89,7.89,0,0,0-1.7-.35l0.51-2.38a9.38,9.38,0,0,1,2.91.56,7,7,0,0,1,2.5,1.57,7.59,7.59,0,0,1,1.74,2.68,10.45,10.45,0,0,1,.65,3.89,12.14,12.14,0,0,1-.65,4.1,11.13,11.13,0,0,1-1.74,3.2,10.67,10.67,0,0,1-2.5,2.31,11.51,11.51,0,0,1-2.91,1.4Z"/><path class="cls-4" d="M46.2,398.24L56,399.77v2.62l-6.88-1.07v3.5l6.35,1v2.62l-6.35-1v3.68l7,1.08v2.62c-4-.61-6-0.92-9.92-1.55C46.2,407.27,46.2,404.26,46.2,398.24Z"/><path class="cls-4" d="M57.79,404.34l3.74,0.57,0.32,1.47h0.09a3.42,3.42,0,0,1,1.41-1,4.14,4.14,0,0,1,2.2-.19,5.49,5.49,0,0,1,1.49.43,3.46,3.46,0,0,1,1.19.88A4.15,4.15,0,0,1,69,408a7,7,0,0,1,.29,2.14v6.69l-2.78-.41v-6.11a2.92,2.92,0,0,0-.59-2,2.39,2.39,0,0,0-1.49-.8,2.22,2.22,0,0,0-1.44.25,1.87,1.87,0,0,0-.89,1v7l-2.78-.42v-8.38l-1.54-.23v-2.37Z"/><path class="cls-4" d="M77.43,407.23l4,0.56v8.38L83,416.41v2.37l-3.38-.47-0.49-1.66H79.07a3.09,3.09,0,0,1-1.48,1.15,4.16,4.16,0,0,1-2.18.23,5.32,5.32,0,0,1-1.49-.43,3.25,3.25,0,0,1-1.14-.87,3.94,3.94,0,0,1-.73-1.44,7.73,7.73,0,0,1-.26-2.14v-4.32l-1.22-.18v-2.37l4,0.58v6.11a3.63,3.63,0,0,0,.42,2,1.78,1.78,0,0,0,1.32.77,2.13,2.13,0,0,0,2.31-1.3v-4.58l-1.2-.17v-2.37Z"/><path class="cls-4" d="M88.37,419.51v-6.58a5.33,5.33,0,0,0-.09-1.05,2.27,2.27,0,0,0-.23-0.65,0.83,0.83,0,0,0-.34-0.35,1.3,1.3,0,0,0-.42-0.13,1,1,0,0,0-.68.14,1,1,0,0,0-.42.54v7.78l-2.57-.36c0-4.3,0-6.45,0-10.75l2,0.28,0.3,1.22H86a2.15,2.15,0,0,1,.94-0.89,2.44,2.44,0,0,1,1.46-.2,3.17,3.17,0,0,1,1.35.53,2.19,2.19,0,0,1,.88,1.32,2,2,0,0,1,1-1,2.54,2.54,0,0,1,1.44-.2,3.42,3.42,0,0,1,1,.3,2.23,2.23,0,0,1,.8.68,3.28,3.28,0,0,1,.52,1.18,7.65,7.65,0,0,1,.18,1.82v7.35l-2.57-.34v-6.88a2.43,2.43,0,0,0-.31-1.4,1.11,1.11,0,0,0-.76-0.49,1.09,1.09,0,0,0-.66.09,0.8,0.8,0,0,0-.39.54v7.85Z"/><path class="cls-4" d="M100.75,419.74a1.37,1.37,0,0,1,.47-1.13,1.58,1.58,0,0,1,1.24-.28,2.06,2.06,0,0,1,1.29.61,1.76,1.76,0,0,1,.47,1.25,1.4,1.4,0,0,1-.47,1.14,1.61,1.61,0,0,1-1.29.29,2,2,0,0,1-1.24-.61A1.8,1.8,0,0,1,100.75,419.74Z"/><path class="cls-4" d="M110.93,411.71l7.89,1v9.91a5,5,0,0,1-1.29,3.74,4.47,4.47,0,0,1-3.86.95,6.61,6.61,0,0,1-2-.57,5.42,5.42,0,0,1-1.63-1.15l1.24-1.91a5.32,5.32,0,0,0,.85.59,3.49,3.49,0,0,0,1.38.46,2.83,2.83,0,0,0,1,0,1.66,1.66,0,0,0,.8-0.44,2.25,2.25,0,0,0,.54-0.91,4.76,4.76,0,0,0,.19-1.48c0-2.85,0-4.27,0-7.12l-5.1-.63v-2.37Zm3.5-2.49a1.34,1.34,0,0,1,.49-1.08,1.73,1.73,0,0,1,1.37-.3,2.36,2.36,0,0,1,1.44.65,1.67,1.67,0,0,1,.54,1.2,1.22,1.22,0,0,1-.54,1.06,2,2,0,0,1-1.44.27,2.24,2.24,0,0,1-1.37-.61A1.64,1.64,0,0,1,114.43,409.22Z"/><path class="cls-4" d="M122.53,418.51a6.25,6.25,0,0,1,.41-2.36,4.2,4.2,0,0,1,1.16-1.65,4.27,4.27,0,0,1,1.79-.9,6.59,6.59,0,0,1,2.33-.1,7.23,7.23,0,0,1,2.41.69,5.86,5.86,0,0,1,1.79,1.36,5.61,5.61,0,0,1,1.11,1.92,7.25,7.25,0,0,1,.38,2.36,6.27,6.27,0,0,1-.41,2.36,4.22,4.22,0,0,1-1.16,1.65,4.27,4.27,0,0,1-1.79.9,6.55,6.55,0,0,1-2.33.11,7.19,7.19,0,0,1-2.41-.69A5.87,5.87,0,0,1,124,422.8a5.64,5.64,0,0,1-1.11-1.93A7.27,7.27,0,0,1,122.53,418.51Zm2.87,0.34a4.5,4.5,0,0,0,.19,1.33,3.7,3.7,0,0,0,.56,1.12,3,3,0,0,0,.88.8,2.93,2.93,0,0,0,1.18.38,2.46,2.46,0,0,0,2-.56,3.15,3.15,0,0,0,.78-2.43,4.09,4.09,0,0,0-.73-2.48,2.86,2.86,0,0,0-2.08-1.15,3.19,3.19,0,0,0-1.12.05,1.87,1.87,0,0,0-.89.49,2.48,2.48,0,0,0-.59,1A4.41,4.41,0,0,0,125.41,418.85Z"/><path class="cls-4" d="M135.92,423.07l3.78,0.42v-6l-3.78-.42c0-.95,0-1.42,0-2.37l6.57,0.73v8.38l4,0.43c0,0.95,0,1.42,0,2.37-4.22-.45-6.33-0.68-10.54-1.16C135.92,424.49,135.92,424,135.92,423.07Zm3.26-10.94a1.35,1.35,0,0,1,.49-1.09,1.75,1.75,0,0,1,1.37-.32,2.34,2.34,0,0,1,1.44.63,1.65,1.65,0,0,1,.54,1.2,1.24,1.24,0,0,1-.54,1.07,2,2,0,0,1-1.44.28,2.21,2.21,0,0,1-1.37-.59A1.62,1.62,0,0,1,139.19,412.12Z"/><path class="cls-4" d="M147.8,416l3.76,0.4,0.32,1.45H152a3.67,3.67,0,0,1,1.42-1.06,4.25,4.25,0,0,1,2.21-.29,5.35,5.35,0,0,1,1.49.37,3.26,3.26,0,0,1,1.19.83,3.92,3.92,0,0,1,.78,1.42,6.83,6.83,0,0,1,.29,2.13v6.69l-2.79-.28c0-2.44,0-3.66,0-6.11a2.8,2.8,0,0,0-.59-2,2.4,2.4,0,0,0-2.94-.42,2,2,0,0,0-.89,1.06v7l-2.79-.29c0-3.35,0-5,0-8.38l-1.55-.16V416Z"/><path class="cls-4" d="M170.21,433.55a10.86,10.86,0,0,1-2.92-1.23,9.84,9.84,0,0,1-2.51-2.16,10.34,10.34,0,0,1-1.75-3.1,11.73,11.73,0,0,1-.65-4.06,10.69,10.69,0,0,1,.65-3.92,8.23,8.23,0,0,1,1.75-2.78,7.61,7.61,0,0,1,2.51-1.71,9.83,9.83,0,0,1,2.92-.73l0.52,2.35a8.29,8.29,0,0,0-1.71.45,5.46,5.46,0,0,0-1.82,1.14,6.3,6.3,0,0,0-1.45,2.11,9.76,9.76,0,0,0,0,6.78,8.42,8.42,0,0,0,1.51,2.37,7.68,7.68,0,0,0,1.84,1.49,8.07,8.07,0,0,0,1.59.72Z"/><path class="cls-4" d="M184.72,430.31a4.54,4.54,0,0,1-.4,2,3.49,3.49,0,0,1-1.1,1.33,4.1,4.1,0,0,1-1.66.69,7.51,7.51,0,0,1-2.1.08,8.67,8.67,0,0,1-1.45-.25,9,9,0,0,1-1.25-.43,7.73,7.73,0,0,1-1-.51,4.47,4.47,0,0,1-.69-0.51l1.08-1.88a8.81,8.81,0,0,0,1.24.77,4.86,4.86,0,0,0,1.82.48,2.84,2.84,0,0,0,2.06-.44,2.06,2.06,0,0,0,.71-1.72v-0.69H181.9a2,2,0,0,1-1.14.66A5.41,5.41,0,0,1,179,430a5.73,5.73,0,0,1-1.9-.5,4.64,4.64,0,0,1-1.52-1.12,5,5,0,0,1-1-1.76,7.45,7.45,0,0,1-.36-2.4,6.7,6.7,0,0,1,.42-2.48,4.27,4.27,0,0,1,3-2.68,6.9,6.9,0,0,1,2.38-.16q0.69,0.06,1.38.18t1.3,0.26q0.61,0.14,1.13.3a7.44,7.44,0,0,1,.86.32C184.72,424.1,184.72,426.17,184.72,430.31Zm-5.16-2.52a2.82,2.82,0,0,0,1.47-.23,1.65,1.65,0,0,0,.89-1V421.7a3.67,3.67,0,0,0-.85-0.28,7.86,7.86,0,0,0-1-.17,3.15,3.15,0,0,0-1.13.09,2.14,2.14,0,0,0-.92.53,2.6,2.6,0,0,0-.62,1,4.35,4.35,0,0,0-.23,1.49,4.67,4.67,0,0,0,.19,1.39,3.29,3.29,0,0,0,.54,1.06,2.64,2.64,0,0,0,.77.68A2.27,2.27,0,0,0,179.56,427.79Z"/><path class="cls-4" d="M187.06,428.15l2.67,0.23c0-2.41,0-3.61,0-6l-2.67-.23v-2.37l4.84,0.41,0.32,1.45h0.09a5,5,0,0,1,1.38-1.07,3.24,3.24,0,0,1,1.81-.32,2.68,2.68,0,0,1,2,1.11,5.5,5.5,0,0,1,.74,3.22l-2.52-.21a2.27,2.27,0,0,0-.23-1.15,0.87,0.87,0,0,0-.72-0.41,2,2,0,0,0-1.39.31,3.81,3.81,0,0,0-.89.91v4.58l4.67,0.39v2.37c-4.05-.33-6.08-0.5-10.13-0.85v-2.37Z"/><path class="cls-4" d="M210.62,431.28a3.45,3.45,0,0,1-.72.45,6.57,6.57,0,0,1-1,.38,7.55,7.55,0,0,1-1.3.24,8.31,8.31,0,0,1-1.51,0,7.62,7.62,0,0,1-2.46-.58,5.39,5.39,0,0,1-3-3.15,6.9,6.9,0,0,1-.4-2.41,6,6,0,0,1,.45-2.45,4.44,4.44,0,0,1,1.24-1.68,4.68,4.68,0,0,1,1.84-.92A7,7,0,0,1,206,421a7.33,7.33,0,0,1,1.69.34,5.07,5.07,0,0,1,1.6.86,4.44,4.44,0,0,1,1.19,1.5A5,5,0,0,1,211,426a10.05,10.05,0,0,1-.22,2l-7.75-.59a2.63,2.63,0,0,0,.29,1.18,2.58,2.58,0,0,0,.71.83,3.36,3.36,0,0,0,1,.52,5.26,5.26,0,0,0,1.22.23,6.11,6.11,0,0,0,2.12-.14,4.06,4.06,0,0,0,1.35-.63Zm-4.65-8a3.46,3.46,0,0,0-1.05.07,2.69,2.69,0,0,0-.89.38,2.2,2.2,0,0,0-.66.68,2.12,2.12,0,0,0-.3,1l5.29,0.41A2.32,2.32,0,0,0,206,423.25Z"/><path class="cls-4" d="M223.53,432.2a3.49,3.49,0,0,1-.72.46,6.62,6.62,0,0,1-1,.39,7.63,7.63,0,0,1-1.3.25,8.31,8.31,0,0,1-1.51,0,7.59,7.59,0,0,1-2.46-.56,5.34,5.34,0,0,1-3-3.13,6.86,6.86,0,0,1-.4-2.41,6.08,6.08,0,0,1,.45-2.45,4.49,4.49,0,0,1,1.24-1.68,4.73,4.73,0,0,1,1.84-.93,7,7,0,0,1,2.28-.19,7.29,7.29,0,0,1,1.69.33,5,5,0,0,1,1.6.85,4.39,4.39,0,0,1,1.19,1.49,5,5,0,0,1,.46,2.27,10.07,10.07,0,0,1-.22,2l-7.75-.54a2.59,2.59,0,0,0,.29,1.18,2.54,2.54,0,0,0,.71.82,3.32,3.32,0,0,0,1,.51,5.21,5.21,0,0,0,1.22.23,6.13,6.13,0,0,0,2.12-.15,4.11,4.11,0,0,0,1.35-.64Zm-4.65-8a3.46,3.46,0,0,0-1.05.08,2.71,2.71,0,0,0-.89.39,2.22,2.22,0,0,0-.66.69,2.13,2.13,0,0,0-.3,1l5.3,0.37A2.3,2.3,0,0,0,218.88,424.2Z"/><path class="cls-4" d="M227.45,425.22l-2.13-.14v-2.37l2.13,0.14V420.4l2.8-.61c0,1.3,0,1.95,0,3.25l5.64,0.36v2.37l-5.64-.36v3.07a3.89,3.89,0,0,0,.62,2.44,2.31,2.31,0,0,0,1.74.85,3.62,3.62,0,0,0,1.05-.07,3.71,3.71,0,0,0,.85-0.3,4.47,4.47,0,0,0,.69-0.43l0.57-.44,1.29,2a3.78,3.78,0,0,1-.92.73,7.17,7.17,0,0,1-2.51.89,6.21,6.21,0,0,1-1.36.06,5,5,0,0,1-3.63-1.58,6.57,6.57,0,0,1-1.22-4.35v-3.07Z"/><path class="cls-4" d="M239.55,436.88l9.56,0.55c0,0.92,0,1.38,0,2.3l-9.56-.55v-2.3Z"/><path class="cls-4" d="M250.8,424.26l3.66,0.2,0.32,1.31h0.09a3.92,3.92,0,0,1,3.62-1.4,5.29,5.29,0,0,1,1.82.4,3.81,3.81,0,0,1,1.42,1,4.87,4.87,0,0,1,.92,1.72A8.19,8.19,0,0,1,263,430a7.73,7.73,0,0,1-.37,2.47,5,5,0,0,1-1.06,1.83,4.23,4.23,0,0,1-1.68,1.1,5.75,5.75,0,0,1-2.26.29,9,9,0,0,1-1.31-.16,3.81,3.81,0,0,1-1.08-.37c0,1.76,0,2.64,0,4.41l-2.8-.15c0-5.07,0-7.61,0-12.68l-1.62-.09v-2.37Zm6.85,2.43a2.75,2.75,0,0,0-1.5.33,2,2,0,0,0-.94,1.18v4.47a2.43,2.43,0,0,0,.87.42,4.9,4.9,0,0,0,1.15.2,2.94,2.94,0,0,0,1.12-.15,2.14,2.14,0,0,0,.9-0.61,3,3,0,0,0,.6-1.11,5.5,5.5,0,0,0,.22-1.64,3.32,3.32,0,0,0-.69-2.23A2.36,2.36,0,0,0,257.65,426.69Z"/><path class="cls-4" d="M265.66,425.75a10.76,10.76,0,0,1,4.68-.73,6.1,6.1,0,0,1,1.91.35,3.38,3.38,0,0,1,1.27.82,3.05,3.05,0,0,1,.7,1.21,5.28,5.28,0,0,1,.22,1.56q0,1.1-.08,1.87t-0.08,1.37a9.25,9.25,0,0,0,0,1c0,0.2,0,.4.06,0.58l1.4,0.06v2.37l-3.62-.16-0.28-1.47h-0.11a3.48,3.48,0,0,1-1.22,1.1,4,4,0,0,1-2.14.39,3.79,3.79,0,0,1-2.55-1,3.08,3.08,0,0,1-.94-2.32,3.32,3.32,0,0,1,.33-1.54,2.6,2.6,0,0,1,1-1,4.39,4.39,0,0,1,1.52-.55,8.8,8.8,0,0,1,2-.11c0.26,0,.53,0,0.81.08l1,0.13a2.17,2.17,0,0,0,0-.43V428.9a1.43,1.43,0,0,0-.47-1.19,2.37,2.37,0,0,0-1.39-.42,6.38,6.38,0,0,0-2,.19,12.31,12.31,0,0,0-1.48.49Zm3.67,8.06a2.5,2.5,0,0,0,1.53-.31,2.38,2.38,0,0,0,.75-0.77v-1.29l-0.64-.12a7.37,7.37,0,0,0-.92-0.1,4.35,4.35,0,0,0-.81,0,2.58,2.58,0,0,0-.72.2,1.33,1.33,0,0,0-.51.4,1,1,0,0,0-.19.61,1.28,1.28,0,0,0,.35,1A1.72,1.72,0,0,0,269.33,433.81Z"/><path class="cls-4" d="M277.5,433.92l2.67,0.11v-6l-2.67-.11c0-.95,0-1.42,0-2.37l4.85,0.19,0.32,1.43h0.09a5.37,5.37,0,0,1,1.38-1.13,3.33,3.33,0,0,1,1.81-.41,2.55,2.55,0,0,1,2,1,5.31,5.31,0,0,1,.74,3.19l-2.52-.09a2.21,2.21,0,0,0-.23-1.14,0.83,0.83,0,0,0-.72-0.38,2.07,2.07,0,0,0-1.39.38,4.08,4.08,0,0,0-.89,1v4.58l4.68,0.17v2.37c-4.06-.15-6.09-0.22-10.15-0.39C277.5,435.34,277.5,434.87,277.5,433.92Z"/><path class="cls-4" d="M292.09,428.45l-2.13-.07c0-.95,0-1.42,0-2.37l2.13,0.07c0-1,0-1.47,0-2.45l2.8-.7c0,1.3,0,1.95,0,3.25l5.65,0.18v2.37l-5.65-.18v3.07a3.8,3.8,0,0,0,.62,2.42,2.23,2.23,0,0,0,1.75.8,3.66,3.66,0,0,0,1.06-.11,3.84,3.84,0,0,0,.85-0.33,4.7,4.7,0,0,0,.69-0.45l0.57-.46,1.29,2a4,4,0,0,1-.92.76,7.47,7.47,0,0,1-1.19.59,7.35,7.35,0,0,1-1.33.38,6.26,6.26,0,0,1-1.36.11,4.79,4.79,0,0,1-3.63-1.46,6.4,6.4,0,0,1-1.22-4.31v-3.07Z"/><path class="cls-4" d="M311.19,434.43a0.8,0.8,0,0,0-.53-0.7,8,8,0,0,0-1.3-.51l-1.7-.48a8,8,0,0,1-1.7-.67,4.43,4.43,0,0,1-1.3-1,2.39,2.39,0,0,1-.53-1.59,2.64,2.64,0,0,1,.36-1.39,3.1,3.1,0,0,1,1-1,4.44,4.44,0,0,1,1.47-.59,7.47,7.47,0,0,1,1.84-.17,10.2,10.2,0,0,1,1.85.2,9.34,9.34,0,0,1,1.39.4,5.26,5.26,0,0,1,1,.51l0.72,0.5-1.19,1.89c-0.22-.13-0.46-0.27-0.74-0.42s-0.57-.28-0.88-0.4a7,7,0,0,0-1-.3,4.85,4.85,0,0,0-1-.13,3.78,3.78,0,0,0-1.47.2,0.69,0.69,0,0,0,0,1.35,8.81,8.81,0,0,0,1.3.47l1.7,0.48a9.26,9.26,0,0,1,1.7.65,4.23,4.23,0,0,1,1.3,1,2.31,2.31,0,0,1,.53,1.56,3,3,0,0,1-1.2,2.54,5.58,5.58,0,0,1-3.55.85A8.57,8.57,0,0,1,306,437a7.7,7.7,0,0,1-2.17-1.34l1.29-2a6.77,6.77,0,0,0,.74.55,6.93,6.93,0,0,0,1,.55,9.06,9.06,0,0,0,1.24.43,5.46,5.46,0,0,0,1.3.2,2.69,2.69,0,0,0,1.19-.21A0.79,0.79,0,0,0,311.19,434.43Z"/><path class="cls-4" d="M320.16,436.22a1.45,1.45,0,0,1,.49-1.15,1.74,1.74,0,0,1,1.22-.41,2.17,2.17,0,0,1,1.79.81,3.06,3.06,0,0,1,.6,1.92,4,4,0,0,1-.38,1.76,4.55,4.55,0,0,1-1,1.36,5.2,5.2,0,0,1-1.35.92,5.42,5.42,0,0,1-1.48.47l-0.58-1.19a6.15,6.15,0,0,0,1-.34,4.09,4.09,0,0,0,1-.57,3.23,3.23,0,0,0,.72-0.81,2.24,2.24,0,0,0,.33-1,2.75,2.75,0,0,1-1.1,0,1.7,1.7,0,0,1-.74-0.36,1.45,1.45,0,0,1-.42-0.61A2.24,2.24,0,0,1,320.16,436.22Z"/><path class="cls-4" d="M344.16,422.87l2.46,0-0.78,6.79h-1.68C344.16,427,344.16,425.59,344.16,422.87Zm4.66,0h2.46l-0.78,6.79h-1.68C348.82,427,348.82,425.62,348.82,422.91Z"/><path class="cls-4" d="M357.1,422.94h2.46l-0.78,6.79H357.1C357.1,427,357.1,425.65,357.1,422.94Zm4.66,0h2.46l-0.78,6.8h-1.68C361.76,427,361.76,425.65,361.76,422.94Z"/><path class="cls-4" d="M369.8,440.18a7.41,7.41,0,0,0,1.6-.58,6.77,6.77,0,0,0,1.84-1.32,7.44,7.44,0,0,0,1.52-2.24,8,8,0,0,0,.62-3.34,8.69,8.69,0,0,0-.59-3.44,7.15,7.15,0,0,0-1.46-2.24,6.22,6.22,0,0,0-1.82-1.3,9,9,0,0,0-1.71-.6l0.52-2.3a10.64,10.64,0,0,1,2.93,1,8.64,8.64,0,0,1,2.52,1.94,9.24,9.24,0,0,1,1.76,2.94,12.46,12.46,0,0,1,0,8,9.18,9.18,0,0,1-1.76,2.94,8.65,8.65,0,0,1-2.52,1.93,10,10,0,0,1-2.93,1Z"/><path class="cls-4" d="M460.59,420.41l2.46-.12-0.78,6.83-1.68.09C460.59,424.49,460.59,423.13,460.59,420.41Zm4.65-.24,2.46-.13-0.78,6.84-1.68.09C465.24,424.25,465.24,422.89,465.24,420.18Z"/><path class="cls-4" d="M470.69,419.88l4.35-.25c0,2.2,0,3.3,0,5.5h0.09a4,4,0,0,1,1.38-1.18,4.87,4.87,0,0,1,2-.53,5,5,0,0,1,1.51.13,2.65,2.65,0,0,1,1.18.64,3.1,3.1,0,0,1,.77,1.3,6.6,6.6,0,0,1,.28,2.08c0,2.67,0,4,0,6.69l-2.8.17c0-2.44,0-3.66,0-6.11a2.53,2.53,0,0,0-.56-1.86,1.84,1.84,0,0,0-1.46-.49,2.58,2.58,0,0,0-1.46.57,2.86,2.86,0,0,0-.95,1.29c0,2.74,0,4.11,0,6.86l-2.8.16c0-5.07,0-7.61,0-12.68l-1.55.09v-2.37Z"/><path class="cls-4" d="M495.11,432.29a4.22,4.22,0,0,1-.72.55,7.7,7.7,0,0,1-1,.53,8.39,8.39,0,0,1-1.3.43,8.6,8.6,0,0,1-1.51.23,7.13,7.13,0,0,1-2.47-.23,4.42,4.42,0,0,1-3-2.72,6.41,6.41,0,0,1-.4-2.35,6.53,6.53,0,0,1,.45-2.51,5.41,5.41,0,0,1,1.24-1.85,5.62,5.62,0,0,1,1.84-1.18,7.4,7.4,0,0,1,2.28-.5,6.93,6.93,0,0,1,1.69.1,4.31,4.31,0,0,1,1.6.63,3.6,3.6,0,0,1,1.19,1.33,4.59,4.59,0,0,1,.46,2.2,10.5,10.5,0,0,1-.22,2l-7.75.51a2.35,2.35,0,0,0,.29,1.14,2.09,2.09,0,0,0,.71.73,2.87,2.87,0,0,0,1,.38,5,5,0,0,0,1.22.06,6.49,6.49,0,0,0,2.12-.44,4.85,4.85,0,0,0,1.35-.82Zm-4.65-7.37a3.67,3.67,0,0,0-1.06.22,3.17,3.17,0,0,0-.89.51,2.7,2.7,0,0,0-.66.78,2.38,2.38,0,0,0-.3,1l5.3-.34A2,2,0,0,0,490.46,424.93Z"/><path class="cls-4" d="M498.4,418.16l4.59-.32c0,4,0,6,0,9.93a4.42,4.42,0,0,0,.41,2.27,1.34,1.34,0,0,0,1.31.55,3.72,3.72,0,0,0,1.1-.22,4.58,4.58,0,0,0,.86-0.46l1.05,1.86q-0.37.26-.73,0.5a5.13,5.13,0,0,1-.78.4,5.56,5.56,0,0,1-.89.28,7.34,7.34,0,0,1-1.09.15,3.84,3.84,0,0,1-3-.82,3.75,3.75,0,0,1-1-2.85c0-3.61,0-5.42,0-9l-1.79.12C498.4,419.58,498.4,419.1,498.4,418.16Z"/><path class="cls-4" d="M511.32,417.22l4.58-.35c0,4,0,6,0,9.93a4.41,4.41,0,0,0,.41,2.27,1.33,1.33,0,0,0,1.31.54,3.74,3.74,0,0,0,1.1-.23,4.62,4.62,0,0,0,.86-0.47l1.05,1.85c-0.24.18-.49,0.34-0.73,0.5a5.12,5.12,0,0,1-.77.41,5.58,5.58,0,0,1-.89.29,7.32,7.32,0,0,1-1.09.16,3.81,3.81,0,0,1-3-.8,3.73,3.73,0,0,1-1-2.85v-9l-1.79.14C511.32,418.64,511.32,418.17,511.32,417.22Z"/><path class="cls-4" d="M523.11,426a6.89,6.89,0,0,1,.41-2.44,5.45,5.45,0,0,1,3-3.14,7.21,7.21,0,0,1,2.33-.57,6.53,6.53,0,0,1,2.42.2,4.48,4.48,0,0,1,1.8,1,4.3,4.3,0,0,1,1.11,1.7,6.59,6.59,0,0,1,.38,2.29,6.93,6.93,0,0,1-.41,2.44,5.47,5.47,0,0,1-3,3.15,7.17,7.17,0,0,1-2.33.57,6.49,6.49,0,0,1-2.42-.21,4.47,4.47,0,0,1-1.8-1,4.32,4.32,0,0,1-1.11-1.7A6.59,6.59,0,0,1,523.11,426Zm2.88-.24a4.12,4.12,0,0,0,.19,1.3,2.91,2.91,0,0,0,.56,1,2.25,2.25,0,0,0,.88.62,2.59,2.59,0,0,0,1.18.15,3,3,0,0,0,2-1,3.73,3.73,0,0,0,.79-2.58,3.47,3.47,0,0,0-.73-2.33,2.32,2.32,0,0,0-2.09-.74,3.5,3.5,0,0,0-1.12.28,2.47,2.47,0,0,0-.89.67,3.2,3.2,0,0,0-.59,1.08A4.8,4.8,0,0,0,526,425.73Z"/><path class="cls-4" d="M547.07,427.83a1.7,1.7,0,0,1,.47-1.24,1.93,1.93,0,0,1,1.25-.56,1.69,1.69,0,0,1,1.29.32,1.41,1.41,0,0,1,.47,1.15,1.74,1.74,0,0,1-.47,1.25,2,2,0,0,1-1.29.57,1.6,1.6,0,0,1-1.25-.33A1.45,1.45,0,0,1,547.07,427.83Zm5.8-.55a1.7,1.7,0,0,1,.47-1.24,1.93,1.93,0,0,1,1.25-.56,1.68,1.68,0,0,1,1.29.31,1.41,1.41,0,0,1,.47,1.15,1.75,1.75,0,0,1-.47,1.25,2,2,0,0,1-1.29.58,1.6,1.6,0,0,1-1.25-.33A1.44,1.44,0,0,1,552.87,427.27Zm5.84-.57a1.71,1.71,0,0,1,.47-1.24,1.94,1.94,0,0,1,1.25-.57,1.68,1.68,0,0,1,1.29.31,1.4,1.4,0,0,1,.47,1.15,1.75,1.75,0,0,1-.47,1.25,2,2,0,0,1-1.29.58,1.59,1.59,0,0,1-1.25-.33A1.44,1.44,0,0,1,558.71,426.7Z"/><path class="cls-4" d="M582.81,419.27l-4.85.54v6.3l-2.94.32v-15l2.94-.32v6.13l4.85-.54v-6.13l2.94-.33v15l-2.94.33v-6.3Z"/><path class="cls-4" d="M598.28,422.64a4.53,4.53,0,0,1-.72.59,8.15,8.15,0,0,1-1,.58,8.85,8.85,0,0,1-2.8.8,7,7,0,0,1-2.46-.1,4.11,4.11,0,0,1-3-2.57,6.27,6.27,0,0,1-.4-2.33,6.73,6.73,0,0,1,.45-2.53,5.81,5.81,0,0,1,1.23-1.92,6,6,0,0,1,1.83-1.28,7.63,7.63,0,0,1,2.27-.62,6.85,6.85,0,0,1,1.68,0,4.07,4.07,0,0,1,1.6.55,3.34,3.34,0,0,1,1.19,1.27,4.46,4.46,0,0,1,.46,2.18,10.71,10.71,0,0,1-.21,2l-7.72.91a2.27,2.27,0,0,0,.29,1.13,1.94,1.94,0,0,0,.71.69,2.71,2.71,0,0,0,1,.32,4.93,4.93,0,0,0,1.21,0,6.68,6.68,0,0,0,2.11-.55,5.18,5.18,0,0,0,1.34-.89Zm-4.63-7.13a3.77,3.77,0,0,0-1.05.28,3.37,3.37,0,0,0-.89.55,2.9,2.9,0,0,0-.65.81,2.49,2.49,0,0,0-.3,1l5.28-.62a2.13,2.13,0,0,0-.59-1.63A2.15,2.15,0,0,0,593.65,415.52Z"/><path class="cls-4" d="M608.32,419.59a0.66,0.66,0,0,0-.52-0.62,6.93,6.93,0,0,0-1.3-.31l-1.69-.23a6.94,6.94,0,0,1-1.69-.42,3.58,3.58,0,0,1-1.3-.85,2.1,2.1,0,0,1-.53-1.52,3,3,0,0,1,.35-1.44,3.85,3.85,0,0,1,1-1.14,5.24,5.24,0,0,1,1.46-.81,8,8,0,0,1,1.83-.44,9.93,9.93,0,0,1,1.84-.08,8.45,8.45,0,0,1,1.38.19,4.43,4.43,0,0,1,1,.36l0.72,0.39-1.18,2.06c-0.21-.1-0.46-0.2-0.74-0.3a8.68,8.68,0,0,0-.88-0.27,6.24,6.24,0,0,0-1-.16,4.67,4.67,0,0,0-1,0,4.1,4.1,0,0,0-1.46.42,0.91,0.91,0,0,0-.56.8,0.61,0.61,0,0,0,.53.56,7.72,7.72,0,0,0,1.3.28l1.69,0.23a8.09,8.09,0,0,1,1.69.4,3.41,3.41,0,0,1,1.3.81,2,2,0,0,1,.53,1.48,3.53,3.53,0,0,1-1.19,2.72,6.28,6.28,0,0,1-3.53,1.37,8,8,0,0,1-3.18-.16,6.35,6.35,0,0,1-2.16-1l1.29-2.18a5.48,5.48,0,0,0,.74.44,5.81,5.81,0,0,0,1,.4,8.09,8.09,0,0,0,1.23.25,5.26,5.26,0,0,0,1.3,0,3,3,0,0,0,1.18-.38A0.94,0.94,0,0,0,608.32,419.59Z"/><path class="cls-4" d="M621.18,417.94a0.66,0.66,0,0,0-.52-0.62,6.89,6.89,0,0,0-1.3-.3l-1.69-.22a6.9,6.9,0,0,1-1.69-.41,3.55,3.55,0,0,1-1.3-.84,2.09,2.09,0,0,1-.53-1.51,3,3,0,0,1,.35-1.44,3.89,3.89,0,0,1,1-1.15,5.28,5.28,0,0,1,1.46-.82,8,8,0,0,1,1.83-.45,9.93,9.93,0,0,1,1.84-.09,8.4,8.4,0,0,1,1.38.18,4.4,4.4,0,0,1,1,.35l0.72,0.39-1.18,2.07c-0.21-.1-0.46-0.2-0.74-0.3a8.65,8.65,0,0,0-.88-0.26,6.24,6.24,0,0,0-1-.15,4.67,4.67,0,0,0-1,0,4.12,4.12,0,0,0-1.46.43,0.91,0.91,0,0,0-.56.8,0.61,0.61,0,0,0,.53.56,7.71,7.71,0,0,0,1.3.27l1.69,0.22a8,8,0,0,1,1.69.39,3.39,3.39,0,0,1,1.3.81,2,2,0,0,1,.53,1.48,3.55,3.55,0,0,1-1.19,2.73,6.31,6.31,0,0,1-3.53,1.4,8,8,0,0,1-3.18-.14,6.3,6.3,0,0,1-2.15-1l1.29-2.19a5.42,5.42,0,0,0,.74.43,5.76,5.76,0,0,0,1,.39,8,8,0,0,0,1.23.24,5.22,5.22,0,0,0,1.3,0,3,3,0,0,0,1.18-.39A1,1,0,0,0,621.18,417.94Z"/><path class="cls-4" d="M627.29,405.05l4.56-.62v9.93a4.28,4.28,0,0,0,.41,2.25,1.25,1.25,0,0,0,1.31.47,3.86,3.86,0,0,0,1.09-.29,5,5,0,0,0,.86-0.52l1,1.79q-0.36.29-.73,0.54a5.54,5.54,0,0,1-.77.45,5.84,5.84,0,0,1-.89.34,7.51,7.51,0,0,1-1.08.22,3.64,3.64,0,0,1-3-.62,3.54,3.54,0,0,1-1-2.79c0-3.61,0-5.42,0-9l-1.78.24v-2.37Z"/><path class="cls-4" d="M649.7,415.82a4.71,4.71,0,0,1-.72.61,8.43,8.43,0,0,1-1,.61,9,9,0,0,1-2.79.88,7,7,0,0,1-2.45,0,4.12,4.12,0,0,1-1.83-.87,4.07,4.07,0,0,1-1.15-1.62,6.2,6.2,0,0,1-.4-2.32,6.83,6.83,0,0,1,.45-2.55,6,6,0,0,1,1.23-1.95,6.22,6.22,0,0,1,1.83-1.32,7.75,7.75,0,0,1,2.27-.68,6.82,6.82,0,0,1,1.68,0,4,4,0,0,1,1.59.51,3.21,3.21,0,0,1,1.19,1.24,4.4,4.4,0,0,1,.46,2.17,10.83,10.83,0,0,1-.21,2l-7.7,1.11a2.23,2.23,0,0,0,.29,1.12,1.86,1.86,0,0,0,.71.67,2.65,2.65,0,0,0,1,.3,4.91,4.91,0,0,0,1.21,0,6.78,6.78,0,0,0,2.11-.61,5.36,5.36,0,0,0,1.34-.92Zm-4.62-7a3.83,3.83,0,0,0-1,.3,3.48,3.48,0,0,0-.89.58,3,3,0,0,0-.65.83,2.55,2.55,0,0,0-.3,1l5.27-.76a2.08,2.08,0,0,0-.59-1.61A2.1,2.1,0,0,0,645.08,408.81Z"/><path class="cls-4" d="M651.95,414.26l2.65-.39v-6l-2.65.39c0-.95,0-1.42,0-2.37l4.81-.71,0.32,1.37h0.09a7.06,7.06,0,0,1,1.37-1.39,3.86,3.86,0,0,1,1.8-.74,2.1,2.1,0,0,1,2,.64,4.69,4.69,0,0,1,.74,3l-2.5.38a2,2,0,0,0-.22-1.09,0.68,0.68,0,0,0-.72-0.25,2.45,2.45,0,0,0-1.38.64,5.39,5.39,0,0,0-.89,1.12v4.58l4.64-.7c0,0.95,0,1.42,0,2.37-4,.61-6,0.92-10.07,1.51C651.95,415.68,651.95,415.21,651.95,414.26Z"/><path class="cls-4" d="M666.75,399.35l2.44-.38-0.77,6.91-1.67.26C666.75,403.42,666.75,402.06,666.75,399.35Zm4.62-.72,2.44-.38L673,405.16l-1.67.26C671.36,402.7,671.36,401.34,671.36,398.63Z"/></svg>