<svg id="Layer_1" data-name="Layer 1" xmlns="http://www.w3.org/2000/svg" viewBox="0 0 720 576"><defs><style>.cls-1{fill:#f617ff;}.cls-2,.cls-3,.cls-5,.cls-7{fill:#231f20;}.cls-2,.cls-4{stroke:#231f20;}.cls-2,.cls-7{stroke-miterlimit:10;}.cls-2,.cls-3,.cls-4{stroke-width:2px;}.cls-3{stroke:#000;}.cls-3,.cls-4{stroke-linecap:round;stroke-linejoin:round;}.cls-4,.cls-6{fill:#fff;}.cls-7{stroke:#fff;}</style></defs><title>Hanoi_Tower_Set_Elixir_1</title><path class="cls-1" d="M65.19,442.42q1,0,2.11,0t2.3,0.26a16.14,16.14,0,0,1,2.39.57,7.05,7.05,0,0,1,2.16,1.12,5.67,5.67,0,0,1,1.57,1.87,6,6,0,0,1,.61,2.82,5.06,5.06,0,0,1-.53,2.44A4,4,0,0,1,74.4,453a4.8,4.8,0,0,1-2,.68,8.23,8.23,0,0,1-2.3,0l-0.37-.06-0.53-.09-0.54-.12-0.38-.1v5.54l-3.13-.49V442.42Zm4.66,3.06q-0.46-.07-0.87-0.1c-0.27,0-.5,0-0.66,0v5.22l0.27,0.09,0.39,0.1,0.4,0.07,0.29,0a6.48,6.48,0,0,0,1.22.08A2.64,2.64,0,0,0,72,450.7a1.77,1.77,0,0,0,.77-0.74,2.88,2.88,0,0,0,.29-1.41,2.7,2.7,0,0,0-1-2.2,3.36,3.36,0,0,0-1-.57A6.44,6.44,0,0,0,69.85,445.48Z"/><path class="cls-1" d="M89.46,460.83a3.34,3.34,0,0,1-.77.43,6.41,6.41,0,0,1-1.1.33,7.79,7.79,0,0,1-1.38.16,8.75,8.75,0,0,1-1.6-.1,8.51,8.51,0,0,1-2.62-.8,6.35,6.35,0,0,1-3.18-3.59,7.66,7.66,0,0,1-.42-2.6,6.27,6.27,0,0,1,.48-2.58,4.3,4.3,0,0,1,1.32-1.7,4.6,4.6,0,0,1,2-.85,7.28,7.28,0,0,1,2.43,0,8.14,8.14,0,0,1,1.8.5,5.88,5.88,0,0,1,1.71,1,5.24,5.24,0,0,1,1.27,1.69,5.6,5.6,0,0,1,.49,2.46,10.51,10.51,0,0,1-.23,2.11l-8.24-1.21a3,3,0,0,0,.31,1.29,3,3,0,0,0,.75.94,3.89,3.89,0,0,0,1.08.63,5.77,5.77,0,0,0,1.29.34,6.43,6.43,0,0,0,2.25,0,4,4,0,0,0,1.43-.57Zm-4.94-8.93a3.63,3.63,0,0,0-1.12,0,2.66,2.66,0,0,0-.95.34,2.11,2.11,0,0,0-.7.68,2.15,2.15,0,0,0-.32,1l5.63,0.83a2.89,2.89,0,0,0-.63-1.91A2.93,2.93,0,0,0,84.52,451.89Z"/><path class="cls-1" d="M91.86,459.86l2.84,0.41v-6.44l-2.84-.41v-2.53L97,451.63l0.34,1.57h0.09a5,5,0,0,1,1.47-1.06,3.34,3.34,0,0,1,1.92-.24,3.05,3.05,0,0,1,2.16,1.31,6.12,6.12,0,0,1,.79,3.49l-2.68-.37a2.52,2.52,0,0,0-.24-1.24,1,1,0,0,0-.77-0.49,2.06,2.06,0,0,0-1.48.25,3.78,3.78,0,0,0-1,.93v4.9l5,0.69v2.53c-4.32-.59-6.47-0.9-10.79-1.52v-2.53Z"/><path class="cls-1" d="M113.92,462.26a1,1,0,0,0-.56-0.81,9.48,9.48,0,0,0-1.39-.69l-1.81-.71a9.41,9.41,0,0,1-1.81-.91,5.5,5.5,0,0,1-1.39-1.27,2.81,2.81,0,0,1-.56-1.77,2.63,2.63,0,0,1,.38-1.44,2.8,2.8,0,0,1,1-1,4.23,4.23,0,0,1,1.56-.47,7.81,7.81,0,0,1,2,0,11.37,11.37,0,0,1,2,.42,10.8,10.8,0,0,1,1.48.59,6.43,6.43,0,0,1,1.08.66l0.77,0.62-1.26,1.88q-0.34-.25-0.79-0.53t-0.94-.53a8.35,8.35,0,0,0-1-.44,5.49,5.49,0,0,0-1.07-.26,3.88,3.88,0,0,0-1.56,0,0.7,0.7,0,0,0-.6.7,0.91,0.91,0,0,0,.56.74,10.48,10.48,0,0,0,1.39.66l1.81,0.71a11.1,11.1,0,0,1,1.81.89,5.27,5.27,0,0,1,1.39,1.23,2.72,2.72,0,0,1,.56,1.73,2.87,2.87,0,0,1-1.27,2.58,5.56,5.56,0,0,1-3.77.5,9.74,9.74,0,0,1-3.4-1,9.47,9.47,0,0,1-2.3-1.68l1.37-2a8.88,8.88,0,0,0,1.9,1.38,10.8,10.8,0,0,0,1.32.6,6.22,6.22,0,0,0,1.39.36,2.73,2.73,0,0,0,1.26-.09A0.75,0.75,0,0,0,113.92,462.26Z"/><path class="cls-1" d="M119.27,460.38a6.66,6.66,0,0,1,.44-2.52,4.44,4.44,0,0,1,1.24-1.75,4.52,4.52,0,0,1,1.91-.94,7.05,7.05,0,0,1,2.49-.09,7.79,7.79,0,0,1,2.58.76,6.33,6.33,0,0,1,1.92,1.47,6.06,6.06,0,0,1,1.18,2.06,7.8,7.8,0,0,1,.4,2.53,6.69,6.69,0,0,1-.44,2.52,4.36,4.36,0,0,1-3.15,2.7,7,7,0,0,1-2.49.09,7.74,7.74,0,0,1-2.58-.76,6.33,6.33,0,0,1-1.91-1.47,6.1,6.1,0,0,1-1.18-2.07A7.81,7.81,0,0,1,119.27,460.38Zm3.07,0.39a4.83,4.83,0,0,0,.21,1.43,4,4,0,0,0,.6,1.2,3.24,3.24,0,0,0,.94.87,3.15,3.15,0,0,0,1.26.42,2.61,2.61,0,0,0,2.17-.58,3.35,3.35,0,0,0,.84-2.59,4.41,4.41,0,0,0-.78-2.66,3.09,3.09,0,0,0-2.22-1.26,3.42,3.42,0,0,0-1.19,0,2,2,0,0,0-1,.51,2.61,2.61,0,0,0-.63,1A4.71,4.71,0,0,0,122.34,460.77Z"/><path class="cls-1" d="M132.5,456.28l4,0.48,0.34,1.56H137a3.84,3.84,0,0,1,1.51-1.11,4.5,4.5,0,0,1,2.36-.27,5.79,5.79,0,0,1,1.6.42,3.55,3.55,0,0,1,1.27.91,4.26,4.26,0,0,1,.84,1.53,7.35,7.35,0,0,1,.31,2.28v7.15l-3-.35v-6.53a3,3,0,0,0-.63-2.1,2.47,2.47,0,0,0-1.59-.81,2.42,2.42,0,0,0-1.55.31,2.09,2.09,0,0,0-1,1.12v7.45l-3-.36v-9l-1.65-.2v-2.53Z"/><path class="cls-1" d="M151,468.43a1.49,1.49,0,0,1,.51-1.22,1.72,1.72,0,0,1,1.33-.32,2.17,2.17,0,0,1,1.38.62,1.85,1.85,0,0,1,.51,1.33,1.52,1.52,0,0,1-.51,1.23,1.75,1.75,0,0,1-1.38.33,2.07,2.07,0,0,1-1.33-.63A1.89,1.89,0,0,1,151,468.43Z"/><path class="cls-1" d="M172,472.16a4.83,4.83,0,0,1-.42,2.12,3.67,3.67,0,0,1-1.17,1.41,4.31,4.31,0,0,1-1.77.72,8,8,0,0,1-2.24.06,9.28,9.28,0,0,1-1.55-.29,9.67,9.67,0,0,1-1.33-.47,8.37,8.37,0,0,1-1.07-.56,4.87,4.87,0,0,1-.74-0.55l1.15-2a9.55,9.55,0,0,0,1.32.84,5.22,5.22,0,0,0,1.94.54,3,3,0,0,0,2.21-.44,2.18,2.18,0,0,0,.76-1.83V471h-0.09a2.1,2.1,0,0,1-1.22.69,5.78,5.78,0,0,1-1.86.07,6.17,6.17,0,0,1-2-.56,5,5,0,0,1-1.62-1.22,5.43,5.43,0,0,1-1.07-1.9,8,8,0,0,1-.38-2.57,7.13,7.13,0,0,1,.45-2.64,4.48,4.48,0,0,1,3.22-2.82,7.36,7.36,0,0,1,2.54-.14q0.73,0.08,1.47.21t1.39,0.29q0.66,0.16,1.21.34a8.23,8.23,0,0,1,.92.36v11.09Zm-5.52-2.77a3,3,0,0,0,1.57-.23,1.73,1.73,0,0,0,1-1.08v-5.17a4,4,0,0,0-.91-0.31,8.56,8.56,0,0,0-1.11-.2,3.36,3.36,0,0,0-1.21.08,2.24,2.24,0,0,0-1,.55,2.74,2.74,0,0,0-.67,1.06,4.63,4.63,0,0,0-.24,1.6,5,5,0,0,0,.21,1.49,3.58,3.58,0,0,0,.57,1.14,2.88,2.88,0,0,0,.83.74A2.45,2.45,0,0,0,166.44,469.39Z"/><path class="cls-1" d="M174.46,469.88l2.85,0.28v-6.44l-2.85-.28v-2.53l5.17,0.5L180,463h0.09a5.3,5.3,0,0,1,1.47-1.12,3.43,3.43,0,0,1,1.93-.32,2.9,2.9,0,0,1,2.17,1.21,5.92,5.92,0,0,1,.79,3.45l-2.69-.25a2.45,2.45,0,0,0-.24-1.23,0.94,0.94,0,0,0-.77-0.45,2.12,2.12,0,0,0-1.48.32,4,4,0,0,0-1,1v4.9l5,0.47v2.53c-4.33-.4-6.5-0.61-10.83-1v-2.53Z"/><path class="cls-1" d="M199.64,473.51a3.64,3.64,0,0,1-.77.47,6.82,6.82,0,0,1-1.1.4,8.06,8.06,0,0,1-1.39.25,8.79,8.79,0,0,1-1.61,0,8.21,8.21,0,0,1-2.63-.65,5.86,5.86,0,0,1-3.2-3.41,7.41,7.41,0,0,1-.43-2.58,6.44,6.44,0,0,1,.48-2.61,4.68,4.68,0,0,1,1.32-1.78,5,5,0,0,1,2-1,7.4,7.4,0,0,1,2.44-.16,7.89,7.89,0,0,1,1.81.39,5.48,5.48,0,0,1,1.71.94,4.82,4.82,0,0,1,1.28,1.62,5.39,5.39,0,0,1,.49,2.43,10.65,10.65,0,0,1-.23,2.12l-8.28-.73a2.82,2.82,0,0,0,.31,1.27,2.79,2.79,0,0,0,.76.89,3.63,3.63,0,0,0,1.08.57,5.6,5.6,0,0,0,1.3.26,6.53,6.53,0,0,0,2.27-.12,4.32,4.32,0,0,0,1.44-.66Zm-5-8.64a3.69,3.69,0,0,0-1.13.06,2.85,2.85,0,0,0-1,.4,2.31,2.31,0,0,0-.7.72,2.25,2.25,0,0,0-.32,1l5.66,0.5A2.51,2.51,0,0,0,194.67,464.87Z"/><path class="cls-1" d="M213.45,474.64a3.67,3.67,0,0,1-.77.48,6.88,6.88,0,0,1-1.1.41,8.11,8.11,0,0,1-1.39.26,8.8,8.8,0,0,1-1.61,0,8.17,8.17,0,0,1-2.63-.63,5.8,5.8,0,0,1-3.2-3.38,7.39,7.39,0,0,1-.43-2.58,6.47,6.47,0,0,1,.48-2.62,4.73,4.73,0,0,1,1.32-1.79,5,5,0,0,1,2-1,7.42,7.42,0,0,1,2.44-.18,7.87,7.87,0,0,1,1.81.38A5.44,5.44,0,0,1,212,465a4.77,4.77,0,0,1,1.28,1.61,5.37,5.37,0,0,1,.49,2.43,10.68,10.68,0,0,1-.23,2.12l-8.29-.66a2.81,2.81,0,0,0,.31,1.27,2.76,2.76,0,0,0,.76.89,3.6,3.6,0,0,0,1.08.56,5.59,5.59,0,0,0,1.3.25,6.54,6.54,0,0,0,2.27-.14,4.35,4.35,0,0,0,1.44-.67Zm-5-8.61a3.7,3.7,0,0,0-1.13.07,2.87,2.87,0,0,0-1,.4,2.33,2.33,0,0,0-.7.73,2.27,2.27,0,0,0-.32,1l5.66,0.46A2.49,2.49,0,0,0,208.48,466Z"/><path class="cls-1" d="M217.64,467.21l-2.28-.17v-2.53l2.28,0.17v-2.62l3-.63v3.47l6,0.44v2.53l-6-.44v3.29a4.18,4.18,0,0,0,.67,2.61,2.49,2.49,0,0,0,1.86.93,3.89,3.89,0,0,0,1.13-.07,4,4,0,0,0,.91-0.31,4.69,4.69,0,0,0,.74-0.45l0.61-.46,1.38,2.17a4,4,0,0,1-1,.77,7.61,7.61,0,0,1-2.68.92,6.65,6.65,0,0,1-1.45.06,5.34,5.34,0,0,1-3.88-1.72,7.09,7.09,0,0,1-1.3-4.66v-3.29Z"/><path class="cls-1" d="M230.14,474.56l4.05,0.28v-6.44l-4.05-.28v-2.53l7,0.47v9l4.26,0.27v2.53c-4.52-.29-6.79-0.43-11.31-0.75v-2.53Zm3.5-11.86a1.51,1.51,0,0,1,.53-1.18,1.94,1.94,0,0,1,1.47-.41,2.4,2.4,0,0,1,1.54.61,1.68,1.68,0,0,1,.58,1.26,1.39,1.39,0,0,1-.58,1.17,2.25,2.25,0,0,1-1.54.37,2.27,2.27,0,0,1-1.47-.57A1.65,1.65,0,0,1,233.64,462.7Z"/><path class="cls-1" d="M242.88,466.42l4,0.25,0.35,1.54h0.09a4.19,4.19,0,0,1,1.52-1.2,4.65,4.65,0,0,1,2.37-.41,5.6,5.6,0,0,1,1.6.32,3.28,3.28,0,0,1,1.28.83,4,4,0,0,1,.84,1.48,7.15,7.15,0,0,1,.31,2.26v7.15l-3-.17V472a2.88,2.88,0,0,0-.63-2.06,2.33,2.33,0,0,0-1.6-.71,2.53,2.53,0,0,0-1.55.4,2.28,2.28,0,0,0-1,1.17v7.45l-3-.18v-9l-1.66-.1v-2.53Z"/><path class="cls-1" d="M268.64,479.35a5,5,0,0,1-.43,2.14A4,4,0,0,1,267,483a4.58,4.58,0,0,1-1.78.81,8.15,8.15,0,0,1-2.25.17,9.12,9.12,0,0,1-1.56-.21,9.3,9.3,0,0,1-1.34-.4,7.9,7.9,0,0,1-1.07-.51,4.61,4.61,0,0,1-.74-0.51l1.15-2.05a9,9,0,0,0,1.32.77,5.06,5.06,0,0,0,1.95.44,3.13,3.13,0,0,0,2.21-.55,2.29,2.29,0,0,0,.76-1.87v-0.74h-0.09a2.25,2.25,0,0,1-1.22.76,5.88,5.88,0,0,1-1.87.17,6,6,0,0,1-2-.45,4.7,4.7,0,0,1-1.62-1.13,5.06,5.06,0,0,1-1.07-1.84,7.81,7.81,0,0,1-.38-2.55,7.29,7.29,0,0,1,.45-2.67,4.82,4.82,0,0,1,3.23-3,7.49,7.49,0,0,1,2.55-.27q0.74,0,1.47.13c0.49,0.06,1,.14,1.39.22s0.84,0.18,1.21.28a7.92,7.92,0,0,1,.92.31v11.09Zm-5.53-2.48a3.09,3.09,0,0,0,1.58-.31,1.86,1.86,0,0,0,1-1.13v-5.17a3.84,3.84,0,0,0-.91-0.26,8.39,8.39,0,0,0-1.12-.14,3.42,3.42,0,0,0-1.21.14,2.4,2.4,0,0,0-1,.6,2.93,2.93,0,0,0-.67,1.09,4.73,4.73,0,0,0-.24,1.61,4.9,4.9,0,0,0,.21,1.48,3.37,3.37,0,0,0,.58,1.11,2.66,2.66,0,0,0,.83.7A2.35,2.35,0,0,0,263.11,476.87Z"/><path class="cls-1" d="M280.75,484.77a11.09,11.09,0,0,1-3.14-1.15,9.75,9.75,0,0,1-2.7-2.17,10.33,10.33,0,0,1-1.88-3.21,12.22,12.22,0,0,1-.7-4.31,11.7,11.7,0,0,1,.7-4.23,9.41,9.41,0,0,1,1.88-3.08,8.78,8.78,0,0,1,2.7-2,11.05,11.05,0,0,1,3.14-.95l0.55,2.48a9.29,9.29,0,0,0-1.83.58,6.3,6.3,0,0,0-1.95,1.32,7.26,7.26,0,0,0-1.56,2.34,9.11,9.11,0,0,0-.63,3.65,8.7,8.7,0,0,0,.67,3.59,8.38,8.38,0,0,0,1.63,2.45,7.62,7.62,0,0,0,2,1.49,8.23,8.23,0,0,0,1.71.68Z"/><path class="cls-1" d="M289.65,480.25v-7a5.57,5.57,0,0,0-.09-1.12,2.23,2.23,0,0,0-.24-0.68,0.78,0.78,0,0,0-.37-0.34,1.33,1.33,0,0,0-.45-0.1,1.14,1.14,0,0,0-.73.23,1.16,1.16,0,0,0-.45.63v8.33l-2.77-.11c0-4.6,0-6.9,0-11.5l2.19,0.09,0.32,1.28h0.07a2.66,2.66,0,0,1,1-1.05,2.78,2.78,0,0,1,1.57-.37,3.14,3.14,0,0,1,1.45.42,2.05,2.05,0,0,1,.95,1.32,2.44,2.44,0,0,1,1.06-1.19,2.9,2.9,0,0,1,1.55-.37,3.45,3.45,0,0,1,1.12.21,2.06,2.06,0,0,1,.86.64,3.12,3.12,0,0,1,.57,1.2,7.87,7.87,0,0,1,.2,1.93v7.87l-2.77-.09v-7.36a2.42,2.42,0,0,0-.33-1.46,1.06,1.06,0,0,0-.82-0.44,1.25,1.25,0,0,0-.71.17,1,1,0,0,0-.42.62v8.39Z"/><path class="cls-1" d="M310.24,479.69a4,4,0,0,1-.77.52,7.26,7.26,0,0,1-1.11.47,8.42,8.42,0,0,1-1.4.33,8.93,8.93,0,0,1-1.61.09,8,8,0,0,1-2.64-.49,5.39,5.39,0,0,1-3.21-3.22,7.19,7.19,0,0,1-.43-2.55,6.62,6.62,0,0,1,.48-2.64,5.09,5.09,0,0,1,1.33-1.86,5.34,5.34,0,0,1,2-1.08,7.57,7.57,0,0,1,2.45-.31,7.68,7.68,0,0,1,1.81.28,5.13,5.13,0,0,1,1.72.84,4.43,4.43,0,0,1,1.28,1.54,5.19,5.19,0,0,1,.5,2.4,10.83,10.83,0,0,1-.23,2.13l-8.3-.24a2.72,2.72,0,0,0,.31,1.25,2.58,2.58,0,0,0,.76.85,3.41,3.41,0,0,0,1.08.5,5.47,5.47,0,0,0,1.3.19,6.67,6.67,0,0,0,2.27-.26,4.65,4.65,0,0,0,1.44-.74Zm-5-8.35a3.77,3.77,0,0,0-1.13.13,3,3,0,0,0-1,.45,2.5,2.5,0,0,0-.7.76,2.34,2.34,0,0,0-.32,1l5.67,0.17A2.35,2.35,0,0,0,305.26,471.34Z"/><path class="cls-1" d="M314.53,483.39a7.75,7.75,0,0,0,1.71-.57,7,7,0,0,0,2-1.36,7.65,7.65,0,0,0,1.63-2.35,8.38,8.38,0,0,0,.67-3.55,9.43,9.43,0,0,0-.63-3.69,8,8,0,0,0-1.56-2.44,6.93,6.93,0,0,0-1.95-1.45,9.88,9.88,0,0,0-1.83-.7l0.55-2.45a11.73,11.73,0,0,1,3.14,1.15,9.65,9.65,0,0,1,2.7,2.15,10.26,10.26,0,0,1,1.88,3.2,12.08,12.08,0,0,1,.7,4.28,11.83,11.83,0,0,1-.7,4.26,9.48,9.48,0,0,1-1.88,3.09,8.88,8.88,0,0,1-2.7,2,10.48,10.48,0,0,1-3.14.94Z"/><path class="cls-1" d="M424.17,464.53q1-.22,2.13-0.36t2.32-.19a15.16,15.16,0,0,1,2.41.11,5.85,5.85,0,0,1,2.18.7,4.3,4.3,0,0,1,1.58,1.57,5.23,5.23,0,0,1,.61,2.7,5.65,5.65,0,0,1-.53,2.54,5.28,5.28,0,0,1-1.41,1.78,6,6,0,0,1-2,1.07,8.73,8.73,0,0,1-2.32.4h-1.44l-0.38,0v5.54l-3.16.11C424.17,474.1,424.17,470.91,424.17,464.53Zm4.7,2.16q-0.46,0-.88.07c-0.28,0-.5.07-0.67,0.1,0,2.09,0,3.13,0,5.22l0.28,0,0.39,0h0.69a6.72,6.72,0,0,0,1.23-.16,3.17,3.17,0,0,0,1.09-.47,2.34,2.34,0,0,0,.77-0.89,3.21,3.21,0,0,0,.29-1.46,2.49,2.49,0,0,0-.28-1.24,2.14,2.14,0,0,0-.73-0.77,2.74,2.74,0,0,0-1-.38A6,6,0,0,0,428.88,466.69Z"/><path class="cls-1" d="M448.64,478.26a4.38,4.38,0,0,1-.77.58,7.88,7.88,0,0,1-1.11.55,8.89,8.89,0,0,1-1.39.43,9.11,9.11,0,0,1-1.61.21,7.7,7.7,0,0,1-2.64-.3,4.87,4.87,0,0,1-3.2-3,7.67,7.67,0,0,1,.06-5.2,5.63,5.63,0,0,1,1.33-2,5.87,5.87,0,0,1,2-1.22,7.84,7.84,0,0,1,2.44-.49,7.48,7.48,0,0,1,1.81.15,4.72,4.72,0,0,1,1.72.71,4,4,0,0,1,1.28,1.45,5,5,0,0,1,.5,2.37,11.09,11.09,0,0,1-.23,2.15l-8.3.37a2.58,2.58,0,0,0,.31,1.23,2.31,2.31,0,0,0,.76.79,3.15,3.15,0,0,0,1.08.42,5.34,5.34,0,0,0,1.3.09,6.88,6.88,0,0,0,2.27-.42,5.1,5.1,0,0,0,1.44-.85Zm-5-8a3.89,3.89,0,0,0-1.13.21,3.33,3.33,0,0,0-1,.52,2.79,2.79,0,0,0-.7.82,2.49,2.49,0,0,0-.32,1.07l5.67-.25A2.16,2.16,0,0,0,443.66,470.28Z"/><path class="cls-1" d="M451.06,476.83l2.86-.14v-6.44l-2.86.14v-2.53l5.19-.26,0.35,1.5h0.09a6.59,6.59,0,0,1,1.48-1.34,3.81,3.81,0,0,1,1.94-.61,2.48,2.48,0,0,1,2.18.89,5.35,5.35,0,0,1,.79,3.34l-2.7.15a2.24,2.24,0,0,0-.24-1.19,0.8,0.8,0,0,0-.77-0.34,2.39,2.39,0,0,0-1.49.54,5,5,0,0,0-1,1.11v4.9l5-.26v2.53c-4.34.24-6.51,0.35-10.86,0.56v-2.53Z"/><path class="cls-1" d="M473.25,475a0.77,0.77,0,0,0-.56-0.7,7.79,7.79,0,0,0-1.39-.42l-1.82-.36a7.79,7.79,0,0,1-1.82-.56,4.2,4.2,0,0,1-1.39-1,2.38,2.38,0,0,1-.56-1.66,3,3,0,0,1,.38-1.52,3.74,3.74,0,0,1,1-1.15,5.19,5.19,0,0,1,1.57-.77,8.26,8.26,0,0,1,2-.35,10.73,10.73,0,0,1,2,0,9.3,9.3,0,0,1,1.49.3,5.13,5.13,0,0,1,1.08.45l0.77,0.47-1.27,2.12q-0.35-.19-0.8-0.38a9.91,9.91,0,0,0-.94-0.35,7.08,7.08,0,0,0-1-.24,5.09,5.09,0,0,0-1.07-.05,4.22,4.22,0,0,0-1.57.34,0.89,0.89,0,0,0-.6.82,0.71,0.71,0,0,0,.56.63,8.77,8.77,0,0,0,1.39.39l1.82,0.36a9.16,9.16,0,0,1,1.82.55,4,4,0,0,1,1.39,1,2.29,2.29,0,0,1,.56,1.62,3.52,3.52,0,0,1-1.28,2.83,6.36,6.36,0,0,1-3.79,1.23,8.79,8.79,0,0,1-3.42-.39,7.38,7.38,0,0,1-2.32-1.24l1.38-2.24a6.54,6.54,0,0,0,.79.52,6.79,6.79,0,0,0,1.12.5,9.07,9.07,0,0,0,1.32.35,5.76,5.76,0,0,0,1.39.09,3,3,0,0,0,1.27-.33A0.94,0.94,0,0,0,473.25,475Z"/><path class="cls-1" d="M478.62,472.08a7.29,7.29,0,0,1,.44-2.6,5.68,5.68,0,0,1,3.17-3.3,7.66,7.66,0,0,1,2.5-.57,7,7,0,0,1,2.59.26,4.9,4.9,0,0,1,1.92,1.1,4.72,4.72,0,0,1,1.19,1.84,7.1,7.1,0,0,1,.4,2.46,7.33,7.33,0,0,1-.44,2.61,5.7,5.7,0,0,1-3.17,3.31,7.59,7.59,0,0,1-2.5.57,7,7,0,0,1-2.59-.27,4.9,4.9,0,0,1-1.92-1.11,4.74,4.74,0,0,1-1.19-1.84A7.12,7.12,0,0,1,478.62,472.08Zm3.09-.2a4.43,4.43,0,0,0,.21,1.39,3.17,3.17,0,0,0,.6,1.09,2.46,2.46,0,0,0,.94.69,2.8,2.8,0,0,0,1.27.18,3.13,3.13,0,0,0,2.18-1,3.93,3.93,0,0,0,.84-2.75A3.76,3.76,0,0,0,487,469a2.53,2.53,0,0,0-2.23-.83,3.72,3.72,0,0,0-1.2.27,2.59,2.59,0,0,0-1,.7,3.37,3.37,0,0,0-.63,1.14A5.1,5.1,0,0,0,481.7,471.88Z"/><path class="cls-1" d="M491.91,465.44l4-.29,0.35,1.49h0.09a5.14,5.14,0,0,1,3.89-2.13,5.31,5.31,0,0,1,1.6.11,2.77,2.77,0,0,1,1.28.66,3.33,3.33,0,0,1,.84,1.37,6.77,6.77,0,0,1,.31,2.22c0,2.86,0,4.29,0,7.15l-3,.23v-6.53a2.57,2.57,0,0,0-.63-2,2.05,2.05,0,0,0-1.6-.5,2.83,2.83,0,0,0-1.55.61,2.74,2.74,0,0,0-1,1.3v7.45l-3,.22v-9l-1.66.12v-2.53Z"/><path class="cls-1" d="M510.49,474a1.79,1.79,0,0,1,.51-1.32,2,2,0,0,1,1.33-.58,1.83,1.83,0,0,1,1.38.36,1.53,1.53,0,0,1,.51,1.24,1.84,1.84,0,0,1-.51,1.33,2.07,2.07,0,0,1-1.38.6,1.73,1.73,0,0,1-1.33-.38A1.57,1.57,0,0,1,510.49,474Z"/><path class="cls-1" d="M520.15,472.22L523,472v-6.44l-2.85.25v-2.53l5.18-.45,0.34,1.49h0.09a7,7,0,0,1,1.47-1.4,3.92,3.92,0,0,1,1.93-.68,2.39,2.39,0,0,1,2.17.81,5.23,5.23,0,0,1,.79,3.31l-2.69.24a2.19,2.19,0,0,0-.24-1.19,0.77,0.77,0,0,0-.77-0.31,2.47,2.47,0,0,0-1.48.59,5.31,5.31,0,0,0-1,1.14v4.9l5-.45v2.53c-4.33.39-6.5,0.59-10.83,1v-2.53Z"/><path class="cls-1" d="M545.33,471.21a4.71,4.71,0,0,1-.77.62,8.36,8.36,0,0,1-1.1.6,9.39,9.39,0,0,1-3,.8,7.55,7.55,0,0,1-2.63-.16,4.53,4.53,0,0,1-3.2-2.82,6.78,6.78,0,0,1-.42-2.5,7.09,7.09,0,0,1,.48-2.7,6,6,0,0,1,1.32-2,6.28,6.28,0,0,1,2-1.32,8.06,8.06,0,0,1,2.44-.61,7.37,7.37,0,0,1,1.8.06,4.46,4.46,0,0,1,1.71.63,3.69,3.69,0,0,1,1.28,1.38,4.82,4.82,0,0,1,.49,2.34,11.31,11.31,0,0,1-.23,2.16l-8.28.8a2.49,2.49,0,0,0,.31,1.21,2.14,2.14,0,0,0,.76.76,3,3,0,0,0,1.08.37,5.28,5.28,0,0,0,1.3,0,7.07,7.07,0,0,0,2.26-.54,5.44,5.44,0,0,0,1.44-.92Zm-5-7.73a4,4,0,0,0-1.13.27,3.55,3.55,0,0,0-1,.57,3,3,0,0,0-.7.85,2.6,2.6,0,0,0-.32,1.08l5.66-.54A2,2,0,0,0,540.37,463.49Z"/><path class="cls-1" d="M559.4,469.88a7.49,7.49,0,0,1-2.21,1.3,10.21,10.21,0,0,1-2.64.63,7.21,7.21,0,0,1-2.65-.16,4.74,4.74,0,0,1-2-1,4.56,4.56,0,0,1-1.21-1.8,7.39,7.39,0,0,1,.07-5.07,6.24,6.24,0,0,1,1.34-2,6.66,6.66,0,0,1,2-1.39,8.36,8.36,0,0,1,2.55-.67,9.22,9.22,0,0,1,2.41,0,10.38,10.38,0,0,1,1.72.39v4l-2.53.27v-2.12a6.34,6.34,0,0,0-1.42,0,4.58,4.58,0,0,0-1.28.33,3.57,3.57,0,0,0-1.13.74,3.65,3.65,0,0,0-1.12,2.72,3.37,3.37,0,0,0,.25,1.33A2.73,2.73,0,0,0,553.5,469a3.94,3.94,0,0,0,1.51.11,5.73,5.73,0,0,0,2.15-.59,9.91,9.91,0,0,0,1.25-.78Z"/><path class="cls-1" d="M572.9,468.28a4.8,4.8,0,0,1-.77.63,8.51,8.51,0,0,1-1.1.62,9.48,9.48,0,0,1-3,.84,7.52,7.52,0,0,1-2.63-.12,4.43,4.43,0,0,1-3.19-2.77,6.74,6.74,0,0,1-.42-2.5,7.16,7.16,0,0,1,.48-2.71,6.17,6.17,0,0,1,1.32-2,6.4,6.4,0,0,1,2-1.35,8.13,8.13,0,0,1,2.43-.65,7.35,7.35,0,0,1,1.8,0,4.39,4.39,0,0,1,1.71.6,3.61,3.61,0,0,1,1.27,1.36,4.79,4.79,0,0,1,.49,2.34,11.36,11.36,0,0,1-.23,2.17l-8.27.92a2.47,2.47,0,0,0,.31,1.21,2.09,2.09,0,0,0,.76.74,2.94,2.94,0,0,0,1.08.35,5.26,5.26,0,0,0,1.3,0,7.13,7.13,0,0,0,2.26-.57,5.54,5.54,0,0,0,1.44-.94Zm-5-7.65a4,4,0,0,0-1.13.29,3.61,3.61,0,0,0-1,.59,3.07,3.07,0,0,0-.7.86,2.64,2.64,0,0,0-.32,1.09l5.65-.63a2.29,2.29,0,0,0-.63-1.74A2.31,2.31,0,0,0,567.94,460.63Z"/><path class="cls-1" d="M575.77,466.64l4-.47v-6.44l-4,.47v-2.53l7-.82v9l4.25-.51v2.53c-4.51.55-6.76,0.81-11.27,1.33v-2.53Zm3.49-12.5a1.83,1.83,0,0,1,.53-1.28,2.29,2.29,0,0,1,1.47-.68,2.05,2.05,0,0,1,1.54.32,1.38,1.38,0,0,1,.57,1.15,1.69,1.69,0,0,1-.57,1.28,2.62,2.62,0,0,1-1.54.65,2,2,0,0,1-1.47-.3A1.37,1.37,0,0,1,579.26,454.14Z"/><path class="cls-1" d="M595.37,463.34l0.16,0L598.1,455l3.21-.41-4.38,12.06-3.19.4-4.93-10.89,3.46-.43Z"/><path class="cls-1" d="M614.19,463.13a5,5,0,0,1-.77.64,8.73,8.73,0,0,1-1.1.64,9.57,9.57,0,0,1-1.39.55,9.42,9.42,0,0,1-1.6.35,7.47,7.47,0,0,1-2.62-.07,4.29,4.29,0,0,1-3.19-2.7,6.68,6.68,0,0,1-.42-2.49,7.25,7.25,0,0,1,.48-2.72,6.36,6.36,0,0,1,1.32-2.07,6.59,6.59,0,0,1,2-1.4,8.24,8.24,0,0,1,2.43-.7,7.31,7.31,0,0,1,1.8,0,4.29,4.29,0,0,1,1.71.56,3.49,3.49,0,0,1,1.27,1.33,4.73,4.73,0,0,1,.49,2.32,11.47,11.47,0,0,1-.23,2.17l-8.25,1.11a2.43,2.43,0,0,0,.31,1.2,2,2,0,0,0,.76.73,2.87,2.87,0,0,0,1.08.33,5.24,5.24,0,0,0,1.3,0,7.22,7.22,0,0,0,2.26-.62,5.7,5.7,0,0,0,1.43-1Zm-4.95-7.54a4.09,4.09,0,0,0-1.12.31,3.71,3.71,0,0,0-1,.61,3.17,3.17,0,0,0-.7.88,2.69,2.69,0,0,0-.32,1.1l5.64-.75a2.24,2.24,0,0,0-.63-1.73A2.27,2.27,0,0,0,609.24,455.58Z"/><path class="cls-1" d="M616.59,461.49l2.84-.39v-6.44l-2.84.39v-2.53l5.15-.72,0.34,1.47h0.09a7.49,7.49,0,0,1,1.47-1.47,4.09,4.09,0,0,1,1.92-.78,2.27,2.27,0,0,1,2.16.7,5.06,5.06,0,0,1,.79,3.27l-2.68.38a2.13,2.13,0,0,0-.24-1.17,0.73,0.73,0,0,0-.77-0.27,2.59,2.59,0,0,0-1.48.67,5.72,5.72,0,0,0-1,1.19v4.9l5-.71v2.53c-4.31.62-6.47,0.92-10.79,1.51v-2.53Z"/><path class="cls-1" d="M639.85,465.55a9.49,9.49,0,0,1-3.11-.55,7.41,7.41,0,0,1-2.68-1.65,8,8,0,0,1-1.87-2.85,11.2,11.2,0,0,1-.7-4.18,12.91,12.91,0,0,1,.7-4.37,12.07,12.07,0,0,1,1.87-3.44,11.54,11.54,0,0,1,2.68-2.49,13.28,13.28,0,0,1,3.11-1.55l0.55,2.38a11.21,11.21,0,0,0-1.82.93,8.24,8.24,0,0,0-1.93,1.69,9.39,9.39,0,0,0-1.54,2.63,10.11,10.11,0,0,0-.63,3.77,7.87,7.87,0,0,0,.66,3.47,6.41,6.41,0,0,0,1.61,2.14,5.83,5.83,0,0,0,2,1.11,6.94,6.94,0,0,0,1.69.36Z"/><path class="cls-1" d="M645.92,462.12a9.23,9.23,0,0,0,1.69-.87,8.93,8.93,0,0,0,2-1.71,9.74,9.74,0,0,0,1.61-2.63,9.3,9.3,0,0,0,.66-3.67,8.68,8.68,0,0,0-.63-3.58,6.23,6.23,0,0,0-1.54-2.16,5.4,5.4,0,0,0-1.93-1.1,8.45,8.45,0,0,0-1.82-.38l0.55-2.55a10.08,10.08,0,0,1,3.11.6,7.47,7.47,0,0,1,2.67,1.68,8.13,8.13,0,0,1,1.86,2.87,11.17,11.17,0,0,1,.7,4.16,13,13,0,0,1-.7,4.39,11.93,11.93,0,0,1-1.86,3.42,11.42,11.42,0,0,1-2.67,2.46,12.34,12.34,0,0,1-3.11,1.49Z"/><path class="cls-2" d="M684,522.57c0-.14,0-0.29,0-0.43s0-.29,0-0.43V469.92H36.2s-0.25,51.74-.25,52.22c0,2.67,2.32,5.24,6.66,7.71C57.79,538.45,98,546,154,551.32s127.77,8.59,206,8.59c89.44,0,170.41-4.21,229-11,29.31-3.41,53-7.46,69.44-12,8.2-2.25,14.58-4.62,18.92-7.08,3.7-2.1,5.92-4.29,6.5-6.55H684v-0.73Z"/><ellipse class="cls-3" cx="360" cy="471" rx="323.86" ry="37.63"/><path class="cls-4" d="M684,471.09c0-.14,0-0.29,0-0.43s0-.29,0-0.43V418.44H36.2s-0.25,51.74-.25,52.22c0,2.67,2.32,5.24,6.66,7.71C57.79,487,98,494.47,154,499.85s127.77,8.59,206,8.59c89.44,0,170.41-4.21,229-11,29.31-3.41,53-7.46,69.44-12,8.2-2.25,14.58-4.62,18.92-7.08,3.7-2.1,5.92-4.29,6.5-6.55H684v-0.73Z"/><ellipse class="cls-4" cx="360" cy="419.52" rx="323.86" ry="37.63"/><path class="cls-4" d="M684,419.61c0-.14,0-0.29,0-0.43s0-.29,0-0.43V367H36.2s-0.25,51.74-.25,52.22c0,2.67,2.32,5.24,6.66,7.71C57.79,435.5,98,443,154,448.37S281.74,457,360,457c89.44,0,170.41-4.21,229-11,29.31-3.41,53-7.46,69.44-12,8.2-2.25,14.58-4.62,18.92-7.08,3.7-2.1,5.92-4.29,6.5-6.55H684v-0.73Z"/><ellipse class="cls-4" cx="360" cy="368.05" rx="323.86" ry="37.63"/><path class="cls-5" d="M360,376.3c-16,0-29-3.75-30.2-8.61h-0.08l0-.5V24.35h60.63V367.69H390.2C389,372.55,376,376.3,360,376.3Z"/><path class="cls-6" d="M389.82,24.85V367.19h0c-0.49,4.78-13.63,8.61-29.79,8.61s-29.3-3.83-29.79-8.61h0V367s0,0,0-.06,0,0,0-.06v-342h59.63m1-1H329.19v343s0,0.07,0,.11v1.27h0.23c2,5.6,16.84,8.61,30.58,8.61s28.6-3,30.58-8.61h0.21l0-1V23.85h0Z"/><ellipse class="cls-7" cx="359.99" cy="24.97" rx="29.81" ry="8.89"/><path class="cls-5" d="M65.19,450.42q1,0,2.11,0t2.3,0.26a16.14,16.14,0,0,1,2.39.57,7.05,7.05,0,0,1,2.16,1.12,5.67,5.67,0,0,1,1.57,1.87,6,6,0,0,1,.61,2.82,5.06,5.06,0,0,1-.53,2.44A4,4,0,0,1,74.4,461a4.8,4.8,0,0,1-2,.68,8.23,8.23,0,0,1-2.3,0l-0.37-.06-0.53-.09-0.54-.12-0.38-.1v5.54l-3.13-.49V450.42Zm4.66,3.06q-0.46-.07-0.87-0.1c-0.27,0-.5,0-0.66,0v5.22l0.27,0.09,0.39,0.1,0.4,0.07,0.29,0a6.51,6.51,0,0,0,1.22.08,2.64,2.64,0,0,0,1.09-.26,1.77,1.77,0,0,0,.77-0.74,2.88,2.88,0,0,0,.29-1.41,2.7,2.7,0,0,0-1-2.2,3.36,3.36,0,0,0-1-.57A6.45,6.45,0,0,0,69.85,453.47Z"/><path class="cls-5" d="M89.46,468.82a3.34,3.34,0,0,1-.77.43,6.41,6.41,0,0,1-1.1.33,7.79,7.79,0,0,1-1.38.16,8.75,8.75,0,0,1-1.6-.1,8.51,8.51,0,0,1-2.62-.8,6.35,6.35,0,0,1-3.18-3.59,7.67,7.67,0,0,1-.42-2.6,6.27,6.27,0,0,1,.48-2.58,4.3,4.3,0,0,1,1.32-1.7,4.6,4.6,0,0,1,2-.85,7.28,7.28,0,0,1,2.43,0,8.14,8.14,0,0,1,1.8.5,5.88,5.88,0,0,1,1.71,1,5.24,5.24,0,0,1,1.27,1.69,5.6,5.6,0,0,1,.49,2.46,10.51,10.51,0,0,1-.23,2.11l-8.24-1.21a3,3,0,0,0,.31,1.29,3,3,0,0,0,.75.94,3.89,3.89,0,0,0,1.08.63,5.77,5.77,0,0,0,1.29.34,6.43,6.43,0,0,0,2.25,0,4,4,0,0,0,1.43-.57Zm-4.94-8.93a3.63,3.63,0,0,0-1.12,0,2.67,2.67,0,0,0-.95.34,2.11,2.11,0,0,0-.7.68,2.15,2.15,0,0,0-.32,1l5.63,0.83a2.89,2.89,0,0,0-.63-1.91A2.93,2.93,0,0,0,84.52,459.89Z"/><path class="cls-5" d="M91.86,467.86l2.84,0.41v-6.44l-2.84-.41v-2.53L97,459.62l0.34,1.57h0.09a5,5,0,0,1,1.47-1.06,3.34,3.34,0,0,1,1.92-.24,3.05,3.05,0,0,1,2.16,1.31,6.12,6.12,0,0,1,.79,3.49l-2.68-.37a2.52,2.52,0,0,0-.24-1.24,1,1,0,0,0-.77-0.49,2.06,2.06,0,0,0-1.48.25,3.78,3.78,0,0,0-1,.93v4.9l5,0.69v2.53c-4.32-.59-6.47-0.9-10.79-1.52v-2.53Z"/><path class="cls-5" d="M113.92,470.25a1,1,0,0,0-.56-0.81,9.48,9.48,0,0,0-1.39-.69l-1.81-.71a9.41,9.41,0,0,1-1.81-.91,5.5,5.5,0,0,1-1.39-1.27,2.81,2.81,0,0,1-.56-1.77,2.63,2.63,0,0,1,.38-1.44,2.8,2.8,0,0,1,1-1,4.23,4.23,0,0,1,1.56-.47,7.81,7.81,0,0,1,2,0,11.37,11.37,0,0,1,2,.42,10.81,10.81,0,0,1,1.48.59,6.43,6.43,0,0,1,1.08.66l0.77,0.62-1.26,1.88q-0.34-.25-0.79-0.53t-0.94-.53a8.34,8.34,0,0,0-1-.44,5.49,5.49,0,0,0-1.07-.26,3.88,3.88,0,0,0-1.56,0,0.7,0.7,0,0,0-.6.7,0.91,0.91,0,0,0,.56.74,10.48,10.48,0,0,0,1.39.66l1.81,0.71a11.1,11.1,0,0,1,1.81.89,5.27,5.27,0,0,1,1.39,1.23,2.72,2.72,0,0,1,.56,1.73,2.87,2.87,0,0,1-1.27,2.58,5.56,5.56,0,0,1-3.77.5,9.75,9.75,0,0,1-3.4-1,9.47,9.47,0,0,1-2.3-1.68l1.37-2a8.88,8.88,0,0,0,1.9,1.38,10.8,10.8,0,0,0,1.32.6,6.22,6.22,0,0,0,1.39.36,2.73,2.73,0,0,0,1.26-.09A0.75,0.75,0,0,0,113.92,470.25Z"/><path class="cls-5" d="M119.27,468.37a6.66,6.66,0,0,1,.44-2.52,4.44,4.44,0,0,1,1.24-1.75,4.52,4.52,0,0,1,1.91-.94,7.05,7.05,0,0,1,2.49-.09,7.79,7.79,0,0,1,2.58.76,6.33,6.33,0,0,1,1.92,1.47,6.06,6.06,0,0,1,1.18,2.06,7.8,7.8,0,0,1,.4,2.53,6.69,6.69,0,0,1-.44,2.52,4.36,4.36,0,0,1-3.15,2.7,7,7,0,0,1-2.49.09,7.74,7.74,0,0,1-2.58-.76,6.33,6.33,0,0,1-1.91-1.47,6.1,6.1,0,0,1-1.18-2.07A7.81,7.81,0,0,1,119.27,468.37Zm3.07,0.39a4.83,4.83,0,0,0,.21,1.43,4,4,0,0,0,.6,1.2,3.25,3.25,0,0,0,.94.87,3.15,3.15,0,0,0,1.26.42,2.61,2.61,0,0,0,2.17-.58,3.35,3.35,0,0,0,.84-2.59,4.41,4.41,0,0,0-.78-2.66,3.09,3.09,0,0,0-2.22-1.26,3.42,3.42,0,0,0-1.19,0,2,2,0,0,0-1,.51,2.61,2.61,0,0,0-.63,1A4.71,4.71,0,0,0,122.34,468.76Z"/><path class="cls-5" d="M132.5,464.28l4,0.48,0.34,1.56H137a3.84,3.84,0,0,1,1.51-1.11,4.5,4.5,0,0,1,2.36-.27,5.79,5.79,0,0,1,1.6.42,3.55,3.55,0,0,1,1.27.91,4.26,4.26,0,0,1,.84,1.53,7.35,7.35,0,0,1,.31,2.28v7.15l-3-.35v-6.53a3,3,0,0,0-.63-2.1,2.47,2.47,0,0,0-1.59-.81,2.42,2.42,0,0,0-1.55.31,2.09,2.09,0,0,0-1,1.12v7.45l-3-.36v-9l-1.65-.2v-2.53Z"/><path class="cls-5" d="M151,476.42a1.49,1.49,0,0,1,.51-1.22,1.72,1.72,0,0,1,1.33-.32,2.17,2.17,0,0,1,1.38.62,1.85,1.85,0,0,1,.51,1.33,1.52,1.52,0,0,1-.51,1.23,1.75,1.75,0,0,1-1.38.33,2.07,2.07,0,0,1-1.33-.63A1.89,1.89,0,0,1,151,476.42Z"/><path class="cls-5" d="M172,480.15a4.83,4.83,0,0,1-.42,2.12,3.67,3.67,0,0,1-1.17,1.41,4.31,4.31,0,0,1-1.77.72,8,8,0,0,1-2.24.06,9.28,9.28,0,0,1-1.55-.29,9.67,9.67,0,0,1-1.33-.47,8.36,8.36,0,0,1-1.07-.56,4.87,4.87,0,0,1-.74-0.55l1.15-2a9.55,9.55,0,0,0,1.32.84,5.23,5.23,0,0,0,1.94.54,3,3,0,0,0,2.21-.44,2.18,2.18,0,0,0,.76-1.83V479h-0.09a2.1,2.1,0,0,1-1.22.69,5.78,5.78,0,0,1-1.86.07,6.17,6.17,0,0,1-2-.56,5,5,0,0,1-1.62-1.22,5.42,5.42,0,0,1-1.07-1.9,8,8,0,0,1-.38-2.57,7.13,7.13,0,0,1,.45-2.64,4.48,4.48,0,0,1,3.22-2.82,7.36,7.36,0,0,1,2.54-.14q0.73,0.08,1.47.21t1.39,0.29q0.66,0.16,1.21.34a8.24,8.24,0,0,1,.92.36v11.09Zm-5.52-2.77a3,3,0,0,0,1.57-.23,1.73,1.73,0,0,0,1-1.08v-5.17a4,4,0,0,0-.91-0.31,8.56,8.56,0,0,0-1.11-.2,3.36,3.36,0,0,0-1.21.08,2.24,2.24,0,0,0-1,.55,2.74,2.74,0,0,0-.67,1.06,4.63,4.63,0,0,0-.24,1.6,5,5,0,0,0,.21,1.49,3.57,3.57,0,0,0,.57,1.14,2.88,2.88,0,0,0,.83.74A2.45,2.45,0,0,0,166.44,477.39Z"/><path class="cls-5" d="M174.46,477.87l2.85,0.28v-6.44l-2.85-.28V468.9l5.17,0.5L180,471h0.09a5.31,5.31,0,0,1,1.47-1.12,3.44,3.44,0,0,1,1.93-.32,2.91,2.91,0,0,1,2.17,1.21,5.92,5.92,0,0,1,.79,3.45l-2.69-.25a2.45,2.45,0,0,0-.24-1.23,0.94,0.94,0,0,0-.77-0.45,2.12,2.12,0,0,0-1.48.32,4,4,0,0,0-1,1v4.9l5,0.47v2.53c-4.33-.4-6.5-0.61-10.83-1v-2.53Z"/><path class="cls-5" d="M199.64,481.51a3.64,3.64,0,0,1-.77.47,6.82,6.82,0,0,1-1.1.4,8.07,8.07,0,0,1-1.39.25,8.79,8.79,0,0,1-1.61,0,8.21,8.21,0,0,1-2.63-.65,5.86,5.86,0,0,1-3.2-3.41,7.42,7.42,0,0,1-.43-2.58,6.44,6.44,0,0,1,.48-2.61,4.68,4.68,0,0,1,1.32-1.78,5,5,0,0,1,2-1,7.4,7.4,0,0,1,2.44-.16,7.89,7.89,0,0,1,1.81.39,5.49,5.49,0,0,1,1.71.94,4.82,4.82,0,0,1,1.28,1.62,5.39,5.39,0,0,1,.49,2.43,10.65,10.65,0,0,1-.23,2.12l-8.28-.73a2.82,2.82,0,0,0,.31,1.27,2.79,2.79,0,0,0,.76.89,3.63,3.63,0,0,0,1.08.57,5.6,5.6,0,0,0,1.3.26,6.53,6.53,0,0,0,2.27-.12,4.32,4.32,0,0,0,1.44-.66Zm-5-8.64a3.69,3.69,0,0,0-1.13.06,2.85,2.85,0,0,0-1,.4,2.31,2.31,0,0,0-.7.72,2.25,2.25,0,0,0-.32,1l5.66,0.5A2.51,2.51,0,0,0,194.67,472.86Z"/><path class="cls-5" d="M213.45,482.63a3.68,3.68,0,0,1-.77.48,6.88,6.88,0,0,1-1.1.41,8.1,8.1,0,0,1-1.39.26,8.8,8.8,0,0,1-1.61,0,8.17,8.17,0,0,1-2.63-.63,5.8,5.8,0,0,1-3.2-3.38,7.39,7.39,0,0,1-.43-2.58,6.47,6.47,0,0,1,.48-2.62,4.73,4.73,0,0,1,1.32-1.79,5,5,0,0,1,2-1,7.42,7.42,0,0,1,2.44-.18,7.86,7.86,0,0,1,1.81.38,5.44,5.44,0,0,1,1.71.93,4.77,4.77,0,0,1,1.28,1.61,5.37,5.37,0,0,1,.5,2.43,10.68,10.68,0,0,1-.23,2.12l-8.29-.66a2.81,2.81,0,0,0,.31,1.27,2.76,2.76,0,0,0,.76.89,3.6,3.6,0,0,0,1.08.56,5.59,5.59,0,0,0,1.3.25,6.54,6.54,0,0,0,2.27-.14,4.36,4.36,0,0,0,1.44-.67Zm-5-8.61a3.7,3.7,0,0,0-1.13.07,2.87,2.87,0,0,0-1,.4,2.33,2.33,0,0,0-.7.73,2.27,2.27,0,0,0-.32,1l5.66,0.46A2.49,2.49,0,0,0,208.48,474Z"/><path class="cls-5" d="M217.64,475.21l-2.28-.17V472.5l2.28,0.17v-2.62l3-.63v3.47l6,0.44v2.53l-6-.44v3.29a4.18,4.18,0,0,0,.67,2.61,2.49,2.49,0,0,0,1.86.93,3.89,3.89,0,0,0,1.13-.07,4,4,0,0,0,.91-0.31,4.69,4.69,0,0,0,.74-0.45l0.61-.46,1.38,2.17a4,4,0,0,1-1,.77,7.61,7.61,0,0,1-2.68.92,6.65,6.65,0,0,1-1.45.06,5.34,5.34,0,0,1-3.88-1.72,7.09,7.09,0,0,1-1.3-4.66v-3.29Z"/><path class="cls-5" d="M230.14,482.55l4.05,0.28v-6.44l-4.05-.28v-2.53l7,0.47v9l4.26,0.27v2.53c-4.52-.29-6.79-0.43-11.31-0.75v-2.53Zm3.5-11.86a1.51,1.51,0,0,1,.53-1.18,1.94,1.94,0,0,1,1.47-.41,2.4,2.4,0,0,1,1.54.61,1.68,1.68,0,0,1,.58,1.26,1.39,1.39,0,0,1-.58,1.17,2.25,2.25,0,0,1-1.54.37,2.27,2.27,0,0,1-1.47-.57A1.65,1.65,0,0,1,233.64,470.69Z"/><path class="cls-5" d="M242.88,474.42l4,0.25,0.35,1.54h0.09a4.19,4.19,0,0,1,1.52-1.2,4.65,4.65,0,0,1,2.37-.41,5.61,5.61,0,0,1,1.6.32,3.28,3.28,0,0,1,1.28.83,4,4,0,0,1,.84,1.48,7.15,7.15,0,0,1,.31,2.26v7.15l-3-.17v-6.53a2.88,2.88,0,0,0-.63-2.06,2.33,2.33,0,0,0-1.6-.71,2.53,2.53,0,0,0-1.55.4,2.28,2.28,0,0,0-1,1.17v7.45l-3-.18v-9l-1.66-.1v-2.53Z"/><path class="cls-5" d="M268.64,487.34a5,5,0,0,1-.43,2.14A4,4,0,0,1,267,491a4.58,4.58,0,0,1-1.78.81,8.15,8.15,0,0,1-2.25.17,9.12,9.12,0,0,1-1.56-.21,9.3,9.3,0,0,1-1.34-.4,7.9,7.9,0,0,1-1.07-.51,4.61,4.61,0,0,1-.74-0.51l1.15-2.05a9,9,0,0,0,1.32.77,5.06,5.06,0,0,0,1.95.44,3.13,3.13,0,0,0,2.21-.55,2.29,2.29,0,0,0,.76-1.87V486.3h-0.09a2.25,2.25,0,0,1-1.22.76,5.88,5.88,0,0,1-1.87.17,6,6,0,0,1-2-.45,4.7,4.7,0,0,1-1.62-1.13,5.06,5.06,0,0,1-1.07-1.84,7.81,7.81,0,0,1-.38-2.55,7.29,7.29,0,0,1,.45-2.67,4.82,4.82,0,0,1,3.23-3,7.49,7.49,0,0,1,2.55-.27q0.74,0,1.47.13c0.49,0.06,1,.14,1.39.22s0.84,0.18,1.21.28a7.92,7.92,0,0,1,.92.31v11.09Zm-5.53-2.48a3.08,3.08,0,0,0,1.58-.31,1.86,1.86,0,0,0,1-1.13v-5.17a3.84,3.84,0,0,0-.91-0.26,8.4,8.4,0,0,0-1.12-.14,3.42,3.42,0,0,0-1.21.14,2.4,2.4,0,0,0-1,.6,2.93,2.93,0,0,0-.67,1.09,4.73,4.73,0,0,0-.24,1.61,4.91,4.91,0,0,0,.21,1.48,3.36,3.36,0,0,0,.58,1.11,2.66,2.66,0,0,0,.83.7A2.35,2.35,0,0,0,263.11,484.86Z"/><path class="cls-5" d="M280.75,492.77a11.09,11.09,0,0,1-3.14-1.15,9.75,9.75,0,0,1-2.7-2.17,10.33,10.33,0,0,1-1.88-3.21,12.22,12.22,0,0,1-.7-4.31,11.7,11.7,0,0,1,.7-4.23,9.41,9.41,0,0,1,1.88-3.08,8.78,8.78,0,0,1,2.7-2,11,11,0,0,1,3.14-.95l0.55,2.48a9.28,9.28,0,0,0-1.83.58,6.3,6.3,0,0,0-1.95,1.32,7.27,7.27,0,0,0-1.56,2.34,9.12,9.12,0,0,0-.63,3.65,8.7,8.7,0,0,0,.67,3.59,8.38,8.38,0,0,0,1.63,2.45,7.62,7.62,0,0,0,2,1.49,8.23,8.23,0,0,0,1.71.68Z"/><path class="cls-5" d="M289.65,488.25v-7a5.57,5.57,0,0,0-.09-1.12,2.23,2.23,0,0,0-.24-0.68,0.78,0.78,0,0,0-.37-0.34,1.33,1.33,0,0,0-.45-0.1,1.14,1.14,0,0,0-.73.23,1.16,1.16,0,0,0-.45.63v8.33l-2.77-.11v-11.5l2.19,0.09,0.32,1.28h0.07a2.66,2.66,0,0,1,1-1.05,2.78,2.78,0,0,1,1.57-.37,3.14,3.14,0,0,1,1.45.42,2.05,2.05,0,0,1,.95,1.32,2.44,2.44,0,0,1,1.06-1.19,2.9,2.9,0,0,1,1.55-.37,3.46,3.46,0,0,1,1.12.21,2.06,2.06,0,0,1,.86.64,3.12,3.12,0,0,1,.56,1.2,7.86,7.86,0,0,1,.2,1.93v7.87l-2.77-.09v-7.36a2.42,2.42,0,0,0-.33-1.46,1.06,1.06,0,0,0-.82-0.44,1.25,1.25,0,0,0-.71.17,1,1,0,0,0-.42.62c0,3.36,0,5,0,8.39Z"/><path class="cls-5" d="M310.24,487.68a4,4,0,0,1-.77.52,7.26,7.26,0,0,1-1.11.47,8.42,8.42,0,0,1-1.4.33,8.93,8.93,0,0,1-1.61.09,8,8,0,0,1-2.64-.49,5.39,5.39,0,0,1-3.21-3.22,7.19,7.19,0,0,1-.43-2.55,6.63,6.63,0,0,1,.48-2.64,5.09,5.09,0,0,1,1.33-1.86,5.34,5.34,0,0,1,2-1.08,7.57,7.57,0,0,1,2.45-.31,7.68,7.68,0,0,1,1.81.28,5.13,5.13,0,0,1,1.72.84,4.43,4.43,0,0,1,1.28,1.54,5.19,5.19,0,0,1,.5,2.4,10.83,10.83,0,0,1-.23,2.13l-8.3-.24a2.72,2.72,0,0,0,.31,1.25,2.58,2.58,0,0,0,.76.85,3.41,3.41,0,0,0,1.08.5,5.47,5.47,0,0,0,1.3.19,6.67,6.67,0,0,0,2.27-.26,4.65,4.65,0,0,0,1.44-.74Zm-5-8.35a3.77,3.77,0,0,0-1.13.13,3,3,0,0,0-1,.45,2.5,2.5,0,0,0-.7.76,2.34,2.34,0,0,0-.32,1l5.67,0.17A2.35,2.35,0,0,0,305.26,479.34Z"/><path class="cls-5" d="M314.53,491.38a7.75,7.75,0,0,0,1.71-.57,7,7,0,0,0,2-1.36,7.65,7.65,0,0,0,1.63-2.35,8.38,8.38,0,0,0,.67-3.55,9.43,9.43,0,0,0-.63-3.69,8,8,0,0,0-1.56-2.44,6.93,6.93,0,0,0-1.95-1.45,9.88,9.88,0,0,0-1.83-.7l0.55-2.45a11.73,11.73,0,0,1,3.14,1.15,9.65,9.65,0,0,1,2.7,2.15,10.26,10.26,0,0,1,1.88,3.2,12.08,12.08,0,0,1,.7,4.28,11.84,11.84,0,0,1-.7,4.26,9.48,9.48,0,0,1-1.88,3.09,8.89,8.89,0,0,1-2.7,2,10.49,10.49,0,0,1-3.14.94Z"/><path class="cls-5" d="M424.17,472.53q1-.22,2.13-0.36t2.32-.19a15.16,15.16,0,0,1,2.41.11,5.85,5.85,0,0,1,2.18.7,4.3,4.3,0,0,1,1.58,1.57,5.23,5.23,0,0,1,.61,2.7,5.65,5.65,0,0,1-.53,2.54,5.28,5.28,0,0,1-1.41,1.78,6,6,0,0,1-2,1.07,8.73,8.73,0,0,1-2.32.4h-1.44l-0.38,0v5.54l-3.16.11C424.17,482.09,424.17,478.9,424.17,472.53Zm4.7,2.16q-0.46,0-.88.07c-0.28,0-.5.07-0.67,0.1,0,2.09,0,3.13,0,5.22l0.28,0,0.39,0h0.69a6.72,6.72,0,0,0,1.23-.16,3.17,3.17,0,0,0,1.09-.47,2.34,2.34,0,0,0,.77-0.89,3.21,3.21,0,0,0,.29-1.46,2.49,2.49,0,0,0-.28-1.24,2.14,2.14,0,0,0-.73-0.77,2.74,2.74,0,0,0-1-.38A6,6,0,0,0,428.88,474.69Z"/><path class="cls-5" d="M448.64,486.26a4.37,4.37,0,0,1-.77.58,7.88,7.88,0,0,1-1.11.55,8.89,8.89,0,0,1-1.39.43,9.11,9.11,0,0,1-1.61.21,7.7,7.7,0,0,1-2.64-.3,4.87,4.87,0,0,1-3.2-3,7.67,7.67,0,0,1,.06-5.2,5.63,5.63,0,0,1,1.33-2,5.87,5.87,0,0,1,2-1.22,7.84,7.84,0,0,1,2.44-.49,7.48,7.48,0,0,1,1.81.15,4.72,4.72,0,0,1,1.72.71,4,4,0,0,1,1.28,1.45,5,5,0,0,1,.5,2.37,11.09,11.09,0,0,1-.23,2.15l-8.3.37a2.58,2.58,0,0,0,.31,1.23,2.31,2.31,0,0,0,.76.79,3.15,3.15,0,0,0,1.08.42,5.34,5.34,0,0,0,1.3.09,6.88,6.88,0,0,0,2.27-.42,5.1,5.1,0,0,0,1.44-.85Zm-5-8a3.89,3.89,0,0,0-1.13.21,3.33,3.33,0,0,0-1,.52,2.79,2.79,0,0,0-.7.82,2.49,2.49,0,0,0-.32,1.07l5.67-.25A2.16,2.16,0,0,0,443.66,478.27Z"/><path class="cls-5" d="M451.06,484.83l2.86-.14v-6.44l-2.86.14v-2.53l5.19-.26,0.35,1.5h0.09a6.59,6.59,0,0,1,1.48-1.34,3.8,3.8,0,0,1,1.94-.61,2.48,2.48,0,0,1,2.18.89,5.35,5.35,0,0,1,.79,3.34l-2.7.15a2.24,2.24,0,0,0-.24-1.19,0.8,0.8,0,0,0-.77-0.34,2.39,2.39,0,0,0-1.49.54,5,5,0,0,0-1,1.11v4.9l5-.26v2.53c-4.34.24-6.51,0.35-10.86,0.56v-2.53Z"/><path class="cls-5" d="M473.25,483a0.77,0.77,0,0,0-.56-0.7,7.79,7.79,0,0,0-1.39-.42l-1.82-.36a7.79,7.79,0,0,1-1.82-.56,4.2,4.2,0,0,1-1.39-1,2.38,2.38,0,0,1-.56-1.66,3,3,0,0,1,.38-1.52,3.74,3.74,0,0,1,1-1.15,5.19,5.19,0,0,1,1.57-.77,8.26,8.26,0,0,1,2-.35,10.73,10.73,0,0,1,2,0,9.3,9.3,0,0,1,1.49.3,5.13,5.13,0,0,1,1.08.45l0.77,0.47-1.27,2.12q-0.35-.19-0.8-0.38a9.91,9.91,0,0,0-.94-0.35,7.08,7.08,0,0,0-1-.24,5.09,5.09,0,0,0-1.07-.05,4.22,4.22,0,0,0-1.57.34,0.89,0.89,0,0,0-.6.82,0.71,0.71,0,0,0,.56.63,8.76,8.76,0,0,0,1.39.39l1.82,0.36a9.19,9.19,0,0,1,1.82.55,4,4,0,0,1,1.39,1,2.29,2.29,0,0,1,.56,1.62,3.52,3.52,0,0,1-1.28,2.83,6.36,6.36,0,0,1-3.79,1.23,8.79,8.79,0,0,1-3.42-.39,7.38,7.38,0,0,1-2.32-1.24l1.38-2.24a6.53,6.53,0,0,0,.79.52,6.79,6.79,0,0,0,1.12.5,9.08,9.08,0,0,0,1.32.35,5.76,5.76,0,0,0,1.39.09,3,3,0,0,0,1.27-.33A0.94,0.94,0,0,0,473.25,483Z"/><path class="cls-5" d="M478.62,480.07a7.29,7.29,0,0,1,.44-2.6,5.68,5.68,0,0,1,3.17-3.3,7.66,7.66,0,0,1,2.5-.57,7,7,0,0,1,2.59.26,4.9,4.9,0,0,1,1.92,1.1,4.72,4.72,0,0,1,1.19,1.84,7.1,7.1,0,0,1,.4,2.46,7.33,7.33,0,0,1-.44,2.61,5.7,5.7,0,0,1-3.17,3.31,7.59,7.59,0,0,1-2.5.57,7,7,0,0,1-2.59-.27,4.9,4.9,0,0,1-1.92-1.11,4.74,4.74,0,0,1-1.19-1.84A7.12,7.12,0,0,1,478.62,480.07Zm3.09-.2a4.43,4.43,0,0,0,.21,1.39,3.17,3.17,0,0,0,.6,1.09,2.46,2.46,0,0,0,.94.69,2.8,2.8,0,0,0,1.27.18,3.13,3.13,0,0,0,2.18-1,3.93,3.93,0,0,0,.84-2.75A3.76,3.76,0,0,0,487,477a2.53,2.53,0,0,0-2.23-.83,3.72,3.72,0,0,0-1.2.27,2.58,2.58,0,0,0-1,.7,3.37,3.37,0,0,0-.63,1.14A5.1,5.1,0,0,0,481.7,479.88Z"/><path class="cls-5" d="M491.91,473.44l4-.29,0.35,1.49h0.09a5.14,5.14,0,0,1,3.89-2.13,5.31,5.31,0,0,1,1.6.11,2.77,2.77,0,0,1,1.28.66,3.33,3.33,0,0,1,.84,1.37,6.77,6.77,0,0,1,.31,2.22c0,2.86,0,4.29,0,7.15l-3,.23v-6.53a2.57,2.57,0,0,0-.63-2,2.05,2.05,0,0,0-1.6-.5,2.82,2.82,0,0,0-1.55.61,2.74,2.74,0,0,0-1,1.3v7.45l-3,.22v-9l-1.66.12v-2.53Z"/><path class="cls-5" d="M510.49,482a1.79,1.79,0,0,1,.51-1.32,2,2,0,0,1,1.33-.58,1.83,1.83,0,0,1,1.38.36,1.53,1.53,0,0,1,.51,1.24,1.84,1.84,0,0,1-.51,1.33,2.07,2.07,0,0,1-1.38.6,1.73,1.73,0,0,1-1.33-.38A1.57,1.57,0,0,1,510.49,482Z"/><path class="cls-5" d="M520.15,480.21L523,480v-6.44l-2.85.25v-2.53l5.18-.45,0.34,1.49h0.09a7,7,0,0,1,1.47-1.4,3.92,3.92,0,0,1,1.93-.68,2.39,2.39,0,0,1,2.17.81,5.23,5.23,0,0,1,.79,3.31l-2.69.24a2.19,2.19,0,0,0-.24-1.19,0.77,0.77,0,0,0-.77-0.31,2.47,2.47,0,0,0-1.48.59,5.31,5.31,0,0,0-1,1.14v4.9l5-.45v2.53c-4.33.39-6.5,0.59-10.83,1v-2.53Z"/><path class="cls-5" d="M545.33,479.21a4.71,4.71,0,0,1-.77.62,8.37,8.37,0,0,1-1.1.6,9.39,9.39,0,0,1-3,.8,7.55,7.55,0,0,1-2.63-.16,4.53,4.53,0,0,1-3.2-2.82,6.78,6.78,0,0,1-.42-2.5,7.09,7.09,0,0,1,.48-2.7,6,6,0,0,1,1.32-2,6.28,6.28,0,0,1,2-1.32,8.06,8.06,0,0,1,2.44-.61,7.37,7.37,0,0,1,1.8.06,4.46,4.46,0,0,1,1.71.63,3.69,3.69,0,0,1,1.28,1.38,4.82,4.82,0,0,1,.49,2.34,11.3,11.3,0,0,1-.23,2.16l-8.28.8a2.49,2.49,0,0,0,.31,1.21,2.14,2.14,0,0,0,.76.76,3,3,0,0,0,1.08.37,5.28,5.28,0,0,0,1.3,0,7.07,7.07,0,0,0,2.26-.54,5.44,5.44,0,0,0,1.44-.92Zm-5-7.73a4,4,0,0,0-1.13.27,3.54,3.54,0,0,0-1,.57,3,3,0,0,0-.7.85,2.6,2.6,0,0,0-.32,1.08l5.66-.54A2,2,0,0,0,540.37,471.48Z"/><path class="cls-5" d="M559.4,477.88a7.5,7.5,0,0,1-2.21,1.3,10.21,10.21,0,0,1-2.64.63,7.21,7.21,0,0,1-2.65-.16,4.74,4.74,0,0,1-2-1,4.56,4.56,0,0,1-1.21-1.8,7.39,7.39,0,0,1,.07-5.07,6.24,6.24,0,0,1,1.34-2,6.66,6.66,0,0,1,2-1.39,8.36,8.36,0,0,1,2.55-.67,9.22,9.22,0,0,1,2.41,0,10.39,10.39,0,0,1,1.72.39v4l-2.53.27v-2.12a6.34,6.34,0,0,0-1.42,0,4.58,4.58,0,0,0-1.28.33,3.57,3.57,0,0,0-1.13.74,3.65,3.65,0,0,0-1.12,2.72,3.37,3.37,0,0,0,.25,1.33A2.73,2.73,0,0,0,553.5,477a3.94,3.94,0,0,0,1.51.11,5.73,5.73,0,0,0,2.15-.59,9.91,9.91,0,0,0,1.25-.78Z"/><path class="cls-5" d="M572.9,476.28a4.8,4.8,0,0,1-.77.63,8.52,8.52,0,0,1-1.1.62,9.48,9.48,0,0,1-3,.84,7.52,7.52,0,0,1-2.63-.12,4.43,4.43,0,0,1-3.19-2.77,6.74,6.74,0,0,1-.42-2.5,7.16,7.16,0,0,1,.48-2.71,6.17,6.17,0,0,1,1.32-2,6.4,6.4,0,0,1,2-1.35,8.13,8.13,0,0,1,2.43-.65,7.35,7.35,0,0,1,1.8,0,4.39,4.39,0,0,1,1.71.6,3.61,3.61,0,0,1,1.27,1.36,4.79,4.79,0,0,1,.49,2.34,11.37,11.37,0,0,1-.23,2.17l-8.27.92a2.46,2.46,0,0,0,.31,1.21,2.09,2.09,0,0,0,.76.74,2.94,2.94,0,0,0,1.08.35,5.26,5.26,0,0,0,1.3,0,7.13,7.13,0,0,0,2.26-.57,5.54,5.54,0,0,0,1.44-.94Zm-5-7.65a4,4,0,0,0-1.13.29,3.61,3.61,0,0,0-1,.59,3.07,3.07,0,0,0-.7.86,2.64,2.64,0,0,0-.32,1.09l5.65-.63a2.29,2.29,0,0,0-.63-1.74A2.31,2.31,0,0,0,567.94,468.62Z"/><path class="cls-5" d="M575.77,474.64l4-.47v-6.44l-4,.47v-2.53l7-.82v9l4.25-.51c0,1,0,1.52,0,2.53-4.51.55-6.76,0.81-11.27,1.33v-2.53Zm3.49-12.5a1.83,1.83,0,0,1,.53-1.28,2.29,2.29,0,0,1,1.47-.68,2.06,2.06,0,0,1,1.54.32,1.38,1.38,0,0,1,.57,1.15,1.69,1.69,0,0,1-.57,1.28,2.62,2.62,0,0,1-1.54.65,2,2,0,0,1-1.47-.3A1.37,1.37,0,0,1,579.26,462.13Z"/><path class="cls-5" d="M595.37,471.33l0.16,0L598.1,463l3.21-.41-4.38,12.06-3.19.4-4.93-10.89,3.46-.43Z"/><path class="cls-5" d="M614.19,471.12a5,5,0,0,1-.77.64,8.73,8.73,0,0,1-1.1.64,9.57,9.57,0,0,1-1.39.55,9.42,9.42,0,0,1-1.6.35,7.47,7.47,0,0,1-2.62-.07,4.29,4.29,0,0,1-3.19-2.7,6.67,6.67,0,0,1-.42-2.49,7.25,7.25,0,0,1,.48-2.72,6.36,6.36,0,0,1,1.32-2.07,6.59,6.59,0,0,1,2-1.4,8.24,8.24,0,0,1,2.43-.7,7.31,7.31,0,0,1,1.8,0,4.29,4.29,0,0,1,1.71.56,3.49,3.49,0,0,1,1.27,1.33,4.73,4.73,0,0,1,.49,2.32,11.46,11.46,0,0,1-.23,2.17l-8.25,1.11a2.43,2.43,0,0,0,.31,1.2,2,2,0,0,0,.76.73,2.87,2.87,0,0,0,1.08.33,5.24,5.24,0,0,0,1.3,0,7.22,7.22,0,0,0,2.26-.62,5.7,5.7,0,0,0,1.43-1Zm-4.95-7.54a4.09,4.09,0,0,0-1.12.31,3.71,3.71,0,0,0-1,.61,3.17,3.17,0,0,0-.7.88,2.69,2.69,0,0,0-.32,1.1l5.64-.75a2.24,2.24,0,0,0-.63-1.73A2.27,2.27,0,0,0,609.24,463.58Z"/><path class="cls-5" d="M616.59,469.48l2.84-.39v-6.44l-2.84.39v-2.53l5.15-.72,0.34,1.47h0.09a7.49,7.49,0,0,1,1.47-1.47,4.09,4.09,0,0,1,1.92-.78,2.27,2.27,0,0,1,2.16.7,5.06,5.06,0,0,1,.79,3.27l-2.68.38a2.13,2.13,0,0,0-.24-1.17,0.73,0.73,0,0,0-.77-0.27,2.59,2.59,0,0,0-1.48.67,5.72,5.72,0,0,0-1,1.19v4.9l5-.71v2.53c-4.31.62-6.47,0.92-10.79,1.51v-2.53Z"/><path class="cls-5" d="M639.85,473.54a9.49,9.49,0,0,1-3.11-.55,7.41,7.41,0,0,1-2.68-1.65,8,8,0,0,1-1.87-2.85,11.2,11.2,0,0,1-.7-4.18,12.91,12.91,0,0,1,.7-4.37,12.07,12.07,0,0,1,1.87-3.44,11.54,11.54,0,0,1,2.68-2.49,13.28,13.28,0,0,1,3.11-1.55l0.55,2.38a11.21,11.21,0,0,0-1.82.93,8.24,8.24,0,0,0-1.93,1.69,9.39,9.39,0,0,0-1.54,2.63,10.11,10.11,0,0,0-.63,3.77,7.87,7.87,0,0,0,.66,3.47,6.41,6.41,0,0,0,1.61,2.14,5.83,5.83,0,0,0,2,1.11,6.94,6.94,0,0,0,1.69.36Z"/><path class="cls-5" d="M645.92,470.11a9.23,9.23,0,0,0,1.69-.87,8.93,8.93,0,0,0,2-1.71,9.74,9.74,0,0,0,1.61-2.63,9.3,9.3,0,0,0,.66-3.67,8.67,8.67,0,0,0-.63-3.58,6.23,6.23,0,0,0-1.54-2.16,5.4,5.4,0,0,0-1.93-1.1,8.45,8.45,0,0,0-1.82-.38l0.55-2.55a10.08,10.08,0,0,1,3.11.6,7.47,7.47,0,0,1,2.67,1.68,8.13,8.13,0,0,1,1.86,2.87,11.17,11.17,0,0,1,.7,4.16,13,13,0,0,1-.7,4.39,11.93,11.93,0,0,1-1.86,3.42,11.42,11.42,0,0,1-2.67,2.46,12.34,12.34,0,0,1-3.11,1.49Z"/><path class="cls-5" d="M65.74,401.92q1,0,2.11,0t2.3,0.26a16.12,16.12,0,0,1,2.39.57,7.06,7.06,0,0,1,2.16,1.12,5.67,5.67,0,0,1,1.57,1.87,6,6,0,0,1,.61,2.82,5.06,5.06,0,0,1-.53,2.44A4,4,0,0,1,75,412.55a4.79,4.79,0,0,1-2,.68,8.22,8.22,0,0,1-2.3,0l-0.37-.06L69.79,413l-0.54-.12-0.38-.11c0,2.22,0,3.33,0,5.54l-3.13-.49C65.74,411.49,65.74,408.3,65.74,401.92ZM70.41,405c-0.3,0-.59-0.08-0.87-0.1s-0.5,0-.66,0v5.22l0.27,0.09,0.39,0.1,0.4,0.07,0.29,0a6.51,6.51,0,0,0,1.22.08,2.64,2.64,0,0,0,1.09-.26,1.77,1.77,0,0,0,.77-0.74,2.89,2.89,0,0,0,.29-1.41,2.69,2.69,0,0,0-1-2.2,3.36,3.36,0,0,0-1-.57A6.42,6.42,0,0,0,70.41,405Z"/><path class="cls-5" d="M90,420.32a3.34,3.34,0,0,1-.77.43,6.44,6.44,0,0,1-1.1.33,7.8,7.8,0,0,1-1.38.16,8.74,8.74,0,0,1-1.6-.1,8.5,8.5,0,0,1-2.62-.8,6.35,6.35,0,0,1-3.18-3.59,7.66,7.66,0,0,1-.42-2.6,6.26,6.26,0,0,1,.48-2.58,4.3,4.3,0,0,1,1.32-1.7,4.6,4.6,0,0,1,2-.85,7.27,7.27,0,0,1,2.43,0,8.15,8.15,0,0,1,1.8.49,5.88,5.88,0,0,1,1.71,1,5.24,5.24,0,0,1,1.27,1.69,5.6,5.6,0,0,1,.49,2.46,10.58,10.58,0,0,1-.23,2.11l-8.24-1.21a2.94,2.94,0,0,0,.31,1.29,3,3,0,0,0,.75.94,3.89,3.89,0,0,0,1.08.63,5.77,5.77,0,0,0,1.29.34,6.43,6.43,0,0,0,2.25,0,4,4,0,0,0,1.43-.57Zm-4.94-8.93a3.63,3.63,0,0,0-1.12,0,2.66,2.66,0,0,0-.95.34,2.11,2.11,0,0,0-.7.68,2.14,2.14,0,0,0-.32,1l5.63,0.83a2.89,2.89,0,0,0-.63-1.91A2.93,2.93,0,0,0,85.07,411.39Z"/><path class="cls-5" d="M92.42,419.36l2.84,0.41c0-2.58,0-3.86,0-6.44l-2.84-.41c0-1,0-1.52,0-2.53l5.15,0.73,0.34,1.57H98a5,5,0,0,1,1.47-1.06,3.35,3.35,0,0,1,1.92-.24,3.05,3.05,0,0,1,2.16,1.31,6.12,6.12,0,0,1,.79,3.49l-2.68-.37a2.52,2.52,0,0,0-.24-1.24,1,1,0,0,0-.77-0.49,2.06,2.06,0,0,0-1.48.25,3.78,3.78,0,0,0-1,.93c0,2,0,2.94,0,4.9l5,0.69v2.53c-4.32-.59-6.47-0.9-10.79-1.52C92.42,420.88,92.42,420.37,92.42,419.36Z"/><path class="cls-5" d="M114.48,421.75a1,1,0,0,0-.56-0.81,9.46,9.46,0,0,0-1.39-.69l-1.81-.71a9.44,9.44,0,0,1-1.81-.91,5.53,5.53,0,0,1-1.39-1.27,2.82,2.82,0,0,1-.56-1.77,2.63,2.63,0,0,1,.38-1.44,2.81,2.81,0,0,1,1-1,4.23,4.23,0,0,1,1.56-.47,7.81,7.81,0,0,1,2,0,11.39,11.39,0,0,1,2,.42,10.8,10.8,0,0,1,1.48.59,6.44,6.44,0,0,1,1.08.66l0.77,0.62-1.26,1.88q-0.34-.25-0.79-0.53t-0.94-.53a8.34,8.34,0,0,0-1-.44,5.49,5.49,0,0,0-1.07-.26,3.88,3.88,0,0,0-1.56,0,0.7,0.7,0,0,0-.6.7,0.91,0.91,0,0,0,.56.74,10.49,10.49,0,0,0,1.39.66L113.7,418a11.07,11.07,0,0,1,1.81.89,5.27,5.27,0,0,1,1.39,1.23,2.72,2.72,0,0,1,.56,1.73,2.87,2.87,0,0,1-1.27,2.58,5.56,5.56,0,0,1-3.77.5,9.75,9.75,0,0,1-3.4-1,9.46,9.46,0,0,1-2.3-1.68l1.37-2a8.9,8.9,0,0,0,1.9,1.38,10.76,10.76,0,0,0,1.32.6,6.22,6.22,0,0,0,1.39.36,2.74,2.74,0,0,0,1.26-.09A0.75,0.75,0,0,0,114.48,421.75Z"/><path class="cls-5" d="M119.82,419.87a6.67,6.67,0,0,1,.44-2.52,4.43,4.43,0,0,1,1.24-1.75,4.52,4.52,0,0,1,1.91-.94,7,7,0,0,1,2.49-.09,7.79,7.79,0,0,1,2.58.76,6.33,6.33,0,0,1,1.91,1.47,6.07,6.07,0,0,1,1.18,2.06,7.79,7.79,0,0,1,.4,2.53,6.69,6.69,0,0,1-.44,2.52,4.46,4.46,0,0,1-1.24,1.76,4.52,4.52,0,0,1-1.91.95,7,7,0,0,1-2.49.09,7.75,7.75,0,0,1-2.58-.76,6.35,6.35,0,0,1-1.91-1.47,6.1,6.1,0,0,1-1.18-2.07A7.81,7.81,0,0,1,119.82,419.87Zm3.07,0.39a4.85,4.85,0,0,0,.21,1.43,4,4,0,0,0,.6,1.2,3.25,3.25,0,0,0,.94.87,3.16,3.16,0,0,0,1.26.42,2.61,2.61,0,0,0,2.17-.58,3.35,3.35,0,0,0,.84-2.59,4.41,4.41,0,0,0-.78-2.66,3.09,3.09,0,0,0-2.22-1.26,3.42,3.42,0,0,0-1.19,0,2,2,0,0,0-1,.51,2.62,2.62,0,0,0-.63,1A4.72,4.72,0,0,0,122.89,420.27Z"/><path class="cls-5" d="M133.05,415.78l4,0.48,0.34,1.56h0.09a3.85,3.85,0,0,1,1.52-1.11,4.51,4.51,0,0,1,2.36-.27,5.78,5.78,0,0,1,1.59.42,3.56,3.56,0,0,1,1.27.91,4.28,4.28,0,0,1,.84,1.53,7.35,7.35,0,0,1,.31,2.28v7.15l-3-.35c0-2.61,0-3.92,0-6.53a3,3,0,0,0-.63-2.1,2.47,2.47,0,0,0-1.6-.81,2.42,2.42,0,0,0-1.55.31,2.09,2.09,0,0,0-1,1.12v7.45l-3-.36c0-3.59,0-5.38,0-9l-1.65-.2v-2.53Z"/><path class="cls-5" d="M151.58,427.92a1.49,1.49,0,0,1,.51-1.22,1.72,1.72,0,0,1,1.33-.32,2.17,2.17,0,0,1,1.38.62,1.85,1.85,0,0,1,.51,1.33,1.52,1.52,0,0,1-.51,1.23,1.75,1.75,0,0,1-1.38.33,2.07,2.07,0,0,1-1.33-.63A1.89,1.89,0,0,1,151.58,427.92Z"/><path class="cls-5" d="M161.22,428l2.85,0.3v-6.44l-2.85-.3V419l5.17,0.54,0.34,1.55h0.09A5.25,5.25,0,0,1,168.3,420a3.42,3.42,0,0,1,1.93-.31,2.93,2.93,0,0,1,2.17,1.23,6,6,0,0,1,.79,3.46l-2.69-.27a2.47,2.47,0,0,0-.24-1.23,1,1,0,0,0-.77-0.46,2.11,2.11,0,0,0-1.48.31,4,4,0,0,0-1,1v4.9l5,0.51v2.53c-4.33-.43-6.49-0.66-10.82-1.12V428Z"/><path class="cls-5" d="M186.39,431.77a3.61,3.61,0,0,1-.77.47,6.74,6.74,0,0,1-1.1.39,8,8,0,0,1-1.39.24,8.79,8.79,0,0,1-1.61,0,8.24,8.24,0,0,1-2.63-.67,5.91,5.91,0,0,1-3.2-3.43,7.44,7.44,0,0,1-.43-2.58,6.43,6.43,0,0,1,.48-2.61,4.64,4.64,0,0,1,1.32-1.77,4.91,4.91,0,0,1,2-.95,7.39,7.39,0,0,1,2.44-.15,7.92,7.92,0,0,1,1.81.4,5.53,5.53,0,0,1,1.71,1,4.87,4.87,0,0,1,1.28,1.63,5.42,5.42,0,0,1,.49,2.44,10.56,10.56,0,0,1-.23,2.12l-8.28-.79a2.72,2.72,0,0,0,1.07,2.17,3.68,3.68,0,0,0,1.08.58,5.63,5.63,0,0,0,1.3.27,6.51,6.51,0,0,0,2.27-.11,4.26,4.26,0,0,0,1.44-.65Zm-5-8.68a3.68,3.68,0,0,0-1.13.06,2.83,2.83,0,0,0-1,.39,2.28,2.28,0,0,0-.7.72,2.25,2.25,0,0,0-.32,1l5.66,0.54A2.53,2.53,0,0,0,181.43,423.1Z"/><path class="cls-5" d="M200.47,433.14a6,6,0,0,1-2.21.88,9.43,9.43,0,0,1-2.65.13,7.9,7.9,0,0,1-2.66-.67,6.11,6.11,0,0,1-2-1.41,5.89,5.89,0,0,1-1.21-2,7.47,7.47,0,0,1-.41-2.52,6.17,6.17,0,0,1,.48-2.53,4.77,4.77,0,0,1,1.34-1.79,5.21,5.21,0,0,1,2-1,7.64,7.64,0,0,1,2.55-.18,9.86,9.86,0,0,1,2.42.51,12.3,12.3,0,0,1,1.73.72v4l-2.53-.22V425a6.73,6.73,0,0,0-1.43-.29,4.2,4.2,0,0,0-1.28.08,2.81,2.81,0,0,0-1.13.52,2.86,2.86,0,0,0-.81,1,3.35,3.35,0,0,0-.31,1.51,3.73,3.73,0,0,0,.25,1.38,3.64,3.64,0,0,0,.71,1.14,3.68,3.68,0,0,0,1.14.82,4.35,4.35,0,0,0,1.51.4,5.2,5.2,0,0,0,2.15-.18,7.82,7.82,0,0,0,1.25-.54Z"/><path class="cls-5" d="M203.07,431.93l4,0.33v-6.44l-4.05-.33V423l7,0.58c0,3.59,0,5.38,0,9l4.26,0.34c0,1,0,1.52,0,2.53-4.52-.35-6.78-0.53-11.3-0.91C203.07,433.45,203.07,432.94,203.07,431.93Zm3.5-11.81a1.49,1.49,0,0,1,.53-1.18,1.92,1.92,0,0,1,1.47-.39,2.43,2.43,0,0,1,1.54.63,1.7,1.7,0,0,1,.58,1.26,1.36,1.36,0,0,1-.58,1.16,2.22,2.22,0,0,1-1.54.35,2.31,2.31,0,0,1-1.47-.59A1.68,1.68,0,0,1,206.57,420.12Z"/><path class="cls-5" d="M227.82,435.15a3.7,3.7,0,0,1-.77.49,7,7,0,0,1-1.11.42,8.16,8.16,0,0,1-1.39.27,8.81,8.81,0,0,1-1.61,0,8.13,8.13,0,0,1-2.64-.61,5.74,5.74,0,0,1-3.2-3.36,7.36,7.36,0,0,1-.43-2.57,6.48,6.48,0,0,1,.48-2.62,4.77,4.77,0,0,1,1.32-1.8,5,5,0,0,1,2-1,7.44,7.44,0,0,1,2.44-.2,7.84,7.84,0,0,1,1.81.36,5.38,5.38,0,0,1,1.72.92,4.71,4.71,0,0,1,1.28,1.6,5.33,5.33,0,0,1,.5,2.43,10.77,10.77,0,0,1-.23,2.12l-8.29-.6a2.78,2.78,0,0,0,.31,1.27,2.73,2.73,0,0,0,.76.88,3.57,3.57,0,0,0,1.08.55,5.56,5.56,0,0,0,1.3.24,6.56,6.56,0,0,0,2.27-.16,4.41,4.41,0,0,0,1.44-.68Zm-5-8.57a3.71,3.71,0,0,0-1.13.08,2.9,2.9,0,0,0-1,.41,2.36,2.36,0,0,0-.7.73,2.27,2.27,0,0,0-.32,1l5.66,0.41A2.47,2.47,0,0,0,222.84,426.58Z"/><path class="cls-5" d="M236.55,433.49h0.16l2.58-7.86,3.22,0.2-4.4,11.22-3.2-.21L230,425l3.48,0.24Z"/><path class="cls-5" d="M255.46,436.89a3.81,3.81,0,0,1-.77.5,7,7,0,0,1-1.11.43,8.2,8.2,0,0,1-1.39.29,8.83,8.83,0,0,1-1.61,0,8.07,8.07,0,0,1-2.64-.57,5.62,5.62,0,0,1-3.2-3.31,7.29,7.29,0,0,1-.42-2.57,6.53,6.53,0,0,1,.48-2.63,4.88,4.88,0,0,1,1.32-1.82,5.14,5.14,0,0,1,2-1,7.48,7.48,0,0,1,2.44-.24,7.77,7.77,0,0,1,1.81.33,5.31,5.31,0,0,1,1.72.89,4.62,4.62,0,0,1,1.28,1.58,5.28,5.28,0,0,1,.5,2.42,10.81,10.81,0,0,1-.23,2.13l-8.3-.48a2.77,2.77,0,0,0,.31,1.26,2.68,2.68,0,0,0,.76.87,3.51,3.51,0,0,0,1.08.54,5.54,5.54,0,0,0,1.3.23,6.6,6.6,0,0,0,2.27-.19,4.49,4.49,0,0,0,1.44-.7Zm-5-8.49a3.74,3.74,0,0,0-1.13.1,3,3,0,0,0-1,.42,2.41,2.41,0,0,0-.7.74,2.28,2.28,0,0,0-.32,1L253,431A2.43,2.43,0,0,0,250.48,428.4Z"/><path class="cls-5" d="M257.88,435.72l2.86,0.15c0-2.58,0-3.86,0-6.44l-2.86-.15c0-1,0-1.52,0-2.53l5.18,0.27,0.35,1.54h0.09a5.67,5.67,0,0,1,1.48-1.19,3.53,3.53,0,0,1,1.94-.41,2.77,2.77,0,0,1,2.18,1.12,5.75,5.75,0,0,1,.79,3.42l-2.7-.13a2.38,2.38,0,0,0-.24-1.22,0.9,0.9,0,0,0-.77-0.42,2.2,2.2,0,0,0-1.49.39,4.29,4.29,0,0,0-1,1V436l5,0.25v2.53c-4.34-.21-6.51-0.32-10.85-0.56C257.88,437.23,257.88,436.73,257.88,435.72Z"/><path class="cls-5" d="M281.3,444.25a11.09,11.09,0,0,1-3.14-1.15,9.74,9.74,0,0,1-2.7-2.17,10.32,10.32,0,0,1-1.88-3.21,12.22,12.22,0,0,1-.7-4.31,11.71,11.71,0,0,1,.7-4.23,9.42,9.42,0,0,1,1.88-3.08,8.79,8.79,0,0,1,2.7-2,11,11,0,0,1,3.14-.95l0.55,2.48a9.31,9.31,0,0,0-1.83.58,6.32,6.32,0,0,0-1.95,1.32,7.26,7.26,0,0,0-1.56,2.34,9.12,9.12,0,0,0-.63,3.65,8.68,8.68,0,0,0,.67,3.59,8.38,8.38,0,0,0,1.62,2.45,7.64,7.64,0,0,0,2,1.49,8.24,8.24,0,0,0,1.71.68Z"/><path class="cls-5" d="M287.41,442a7.62,7.62,0,0,0,1.71-.54,6.82,6.82,0,0,0,2-1.33,7.51,7.51,0,0,0,1.63-2.32,8.33,8.33,0,0,0,.67-3.54,9.51,9.51,0,0,0-.63-3.7,8.1,8.1,0,0,0-1.56-2.46,7.07,7.07,0,0,0-1.95-1.47,10.06,10.06,0,0,0-1.83-.73l0.55-2.44a11.91,11.91,0,0,1,3.14,1.2,9.85,9.85,0,0,1,2.7,2.19,10.46,10.46,0,0,1,1.88,3.23,12.17,12.17,0,0,1,.7,4.29,11.75,11.75,0,0,1-.7,4.25,9.29,9.29,0,0,1-1.88,3.06,8.69,8.69,0,0,1-2.7,2,10.38,10.38,0,0,1-3.14.89Z"/><path class="cls-5" d="M481.38,421l2.63-.17-0.83,7.32-1.8.12V421Zm5-.33,2.62-.18-0.83,7.32-1.8.12v-7.27Z"/><path class="cls-5" d="M496.44,426.54h-0.12l0.14,1.9c0,3,0,4.57,0,7.61l-3,.22c0-6.44,0-9.66,0-16.1l2.76-.2,5.57,9.43h0.12l-0.21-1.92v-7.91l3-.23v16.1l-2.76.21Z"/><path class="cls-5" d="M506.8,429.53a7.37,7.37,0,0,1,.44-2.61,5.87,5.87,0,0,1,1.24-2,5.93,5.93,0,0,1,1.92-1.34,7.73,7.73,0,0,1,2.5-.6,7,7,0,0,1,2.59.22,4.8,4.8,0,0,1,1.92,1.07,4.62,4.62,0,0,1,1.19,1.82,7.05,7.05,0,0,1,.4,2.45,7.39,7.39,0,0,1-.44,2.61,5.83,5.83,0,0,1-3.16,3.36,7.66,7.66,0,0,1-2.5.61,7,7,0,0,1-2.59-.23,4.81,4.81,0,0,1-1.92-1.08A4.65,4.65,0,0,1,507.2,432,7.06,7.06,0,0,1,506.8,429.53Zm3.08-.24a4.42,4.42,0,0,0,.21,1.39,3.11,3.11,0,0,0,.6,1.08,2.41,2.41,0,0,0,.94.67,2.78,2.78,0,0,0,1.27.16,3.18,3.18,0,0,0,2.18-1,4,4,0,0,0,.84-2.76,3.72,3.72,0,0,0-.78-2.5,2.49,2.49,0,0,0-2.23-.79,3.74,3.74,0,0,0-1.2.29,2.62,2.62,0,0,0-1,.71,3.43,3.43,0,0,0-.63,1.15A5.14,5.14,0,0,0,509.89,429.29Z"/><path class="cls-5" d="M526.84,429.31H527l3.17-12.08,3.27-.3-4.83,16.54-3.59.32-5-15.67,3.52-.3Z"/><path class="cls-5" d="M542.8,428.55L538,429l-1.1,3.67-3.15.29,5.2-16.59,3.15-.3,5.17,15.59L544,432Zm-4.07-2.14,3.45-.33-1.63-5.22-0.21,0Z"/><path class="cls-5" d="M562.8,414c4.22-.46,6.33-0.69,10.54-1.17v2.81l-7.39.83v3.75l6.82-.76v2.81l-6.82.76v3.93l7.51-.84v2.81c-4.26.49-6.39,0.72-10.66,1.19C562.8,423.62,562.8,420.4,562.8,414Z"/><path class="cls-5" d="M577,412.37l4.89-.57c0,4.25,0,6.38,0,10.63a4.63,4.63,0,0,0,.43,2.41,1.36,1.36,0,0,0,1.4.52,4.1,4.1,0,0,0,1.17-.29,5.13,5.13,0,0,0,.92-0.54l1.12,1.93c-0.26.2-.52,0.39-0.78,0.57a5.86,5.86,0,0,1-.83.47,6.15,6.15,0,0,1-1,.34,7.86,7.86,0,0,1-1.16.22,4,4,0,0,1-3.24-.72,3.85,3.85,0,0,1-1.08-3c0-3.86,0-5.8,0-9.66l-1.91.22v-2.53Z"/><path class="cls-5" d="M590.09,424.36l4-.5v-6.44l-4,.5c0-1,0-1.52,0-2.53l7-.88v9l4.24-.54c0,1,0,1.52,0,2.53-4.5.58-6.76,0.87-11.26,1.42C590.09,425.88,590.09,425.38,590.09,424.36Zm3.49-12.53a1.85,1.85,0,0,1,.53-1.28,2.31,2.31,0,0,1,1.47-.69,2,2,0,0,1,1.54.31,1.37,1.37,0,0,1,.57,1.15,1.71,1.71,0,0,1-.57,1.28,2.65,2.65,0,0,1-1.54.67,1.94,1.94,0,0,1-1.47-.29A1.36,1.36,0,0,1,593.58,411.83Z"/><path class="cls-5" d="M607.33,418.76l-4-5,3.55-.47,2.59,3.5,2.7-4.2,3.23-.44-3.92,6.05,4.15,5.42-3.46.47-2.91-3.84-3,4.63-3.25.43Z"/><path class="cls-5" d="M617.6,420.77l4-.56v-6.44l-4,.56V411.8l7-1c0,3.59,0,5.38,0,9l4.24-.61v2.53c-4.5.65-6.74,1-11.24,1.59v-2.53Zm3.48-12.58a1.88,1.88,0,0,1,.53-1.29,2.34,2.34,0,0,1,1.46-.71,2,2,0,0,1,1.53.29,1.34,1.34,0,0,1,.57,1.14,1.74,1.74,0,0,1-.57,1.29,2.69,2.69,0,0,1-1.53.69,1.92,1.92,0,0,1-1.46-.27A1.34,1.34,0,0,1,621.08,408.19Z"/><path class="cls-5" d="M630.88,418.88l2.84-.42V412l-2.84.42v-2.53l5.15-.76,0.34,1.47h0.09a7.58,7.58,0,0,1,1.47-1.48,4.12,4.12,0,0,1,1.92-.79A2.25,2.25,0,0,1,642,409a5,5,0,0,1,.79,3.26l-2.67.4a2.12,2.12,0,0,0-.24-1.17,0.73,0.73,0,0,0-.77-0.26,2.61,2.61,0,0,0-1.47.68,5.79,5.79,0,0,0-1,1.2V418l5-.75v2.53c-4.31.65-6.47,1-10.78,1.6v-2.53Z"/><path class="cls-5" d="M646.71,402.94l2.61-.4-0.82,7.4-1.78.28C646.71,407.3,646.71,405.85,646.71,402.94Zm4.94-.77,2.61-.41-0.82,7.4-1.78.28C651.65,406.53,651.65,405.08,651.65,402.17Z"/></svg>