<svg id="Layer_1" data-name="Layer 1" xmlns="http://www.w3.org/2000/svg" viewBox="0 0 720 576"><defs><style>.cls-1,.cls-2,.cls-4,.cls-6{fill:#231f20;}.cls-1,.cls-3{stroke:#231f20;}.cls-1,.cls-6{stroke-miterlimit:10;}.cls-1,.cls-2,.cls-3{stroke-width:2px;}.cls-2{stroke:#000;}.cls-2,.cls-3{stroke-linecap:round;stroke-linejoin:round;}.cls-3,.cls-5{fill:#fff;}.cls-6{stroke:#fff;}</style></defs><title>Hanoi_Tower_Set_Elixir_1</title><path class="cls-1" d="M684,522.57c0-.14,0-0.29,0-0.43s0-.29,0-0.43V469.92H36.2s-0.25,51.74-.25,52.22c0,2.67,2.32,5.24,6.66,7.71C57.79,538.45,98,546,154,551.32s127.77,8.59,206,8.59c89.44,0,170.41-4.21,229-11,29.31-3.41,53-7.46,69.44-12,8.2-2.25,14.58-4.62,18.92-7.08,3.7-2.1,5.92-4.29,6.5-6.55H684v-0.73Z"/><ellipse class="cls-2" cx="360" cy="471" rx="323.86" ry="37.63"/><path class="cls-3" d="M684,471.09c0-.14,0-0.29,0-0.43s0-.29,0-0.43V418.44H36.2s-0.25,51.74-.25,52.22c0,2.67,2.32,5.24,6.66,7.71C57.79,487,98,494.47,154,499.85s127.77,8.59,206,8.59c89.44,0,170.41-4.21,229-11,29.31-3.41,53-7.46,69.44-12,8.2-2.25,14.58-4.62,18.92-7.08,3.7-2.1,5.92-4.29,6.5-6.55H684v-0.73Z"/><ellipse class="cls-3" cx="360" cy="419.52" rx="323.86" ry="37.63"/><path class="cls-3" d="M684,419.61c0-.14,0-0.29,0-0.43s0-.29,0-0.43V367H36.2s-0.25,51.74-.25,52.22c0,2.67,2.32,5.24,6.66,7.71C57.79,435.5,98,443,154,448.37S281.74,457,360,457c89.44,0,170.41-4.21,229-11,29.31-3.41,53-7.46,69.44-12,8.2-2.25,14.58-4.62,18.92-7.08,3.7-2.1,5.92-4.29,6.5-6.55H684v-0.73Z"/><ellipse class="cls-3" cx="360" cy="368.05" rx="323.86" ry="37.63"/><path class="cls-4" d="M360,376.3c-16,0-29-3.75-30.2-8.61h-0.08l0-.5V24.35h60.63V367.69H390.2C389,372.55,376,376.3,360,376.3Z"/><path class="cls-5" d="M389.82,24.85V367.19h0c-0.49,4.78-13.63,8.61-29.79,8.61s-29.3-3.83-29.79-8.61h0V367s0,0,0-.06,0,0,0-.06v-342h59.63m1-1H329.19v343s0,0.07,0,.11v1.27h0.23c2,5.6,16.84,8.61,30.58,8.61s28.6-3,30.58-8.61h0.21l0-1V23.85h0Z"/><ellipse class="cls-6" cx="359.99" cy="24.97" rx="29.81" ry="8.89"/><path class="cls-4" d="M81.39,458.35q1,0,2.11,0t2.3,0.26a16.15,16.15,0,0,1,2.39.57,7,7,0,0,1,2.16,1.11,5.66,5.66,0,0,1,1.57,1.87,5.94,5.94,0,0,1,.61,2.82,5.06,5.06,0,0,1-.53,2.44A4,4,0,0,1,90.61,469a4.79,4.79,0,0,1-2,.69,8.22,8.22,0,0,1-2.3,0L86,469.56l-0.53-.09-0.54-.12-0.38-.1v5.54l-3.13-.49C81.39,467.91,81.39,464.72,81.39,458.35Zm4.66,3.06c-0.31,0-.6-0.08-0.87-0.1s-0.5,0-.66,0v5.22l0.27,0.09,0.39,0.1,0.4,0.07,0.29,0a6.52,6.52,0,0,0,1.22.08,2.65,2.65,0,0,0,1.09-.26,1.77,1.77,0,0,0,.77-0.74,2.89,2.89,0,0,0,.29-1.41,2.69,2.69,0,0,0-1-2.2,3.36,3.36,0,0,0-1-.57A6.41,6.41,0,0,0,86.05,461.4Z"/><path class="cls-4" d="M105.66,476.74a3.37,3.37,0,0,1-.77.43,6.4,6.4,0,0,1-1.1.34,7.77,7.77,0,0,1-1.39.17,8.74,8.74,0,0,1-1.6-.1,8.5,8.5,0,0,1-2.62-.8A6.35,6.35,0,0,1,95,473.18a7.66,7.66,0,0,1-.42-2.6,6.26,6.26,0,0,1,.48-2.58,4.31,4.31,0,0,1,1.32-1.7,4.6,4.6,0,0,1,2-.85,7.28,7.28,0,0,1,2.43,0,8.15,8.15,0,0,1,1.8.49,5.88,5.88,0,0,1,1.71,1,5.25,5.25,0,0,1,1.27,1.69,5.61,5.61,0,0,1,.49,2.46,10.51,10.51,0,0,1-.23,2.11L97.56,472a3,3,0,0,0,.31,1.29,3,3,0,0,0,.75.94,3.89,3.89,0,0,0,1.08.63,5.77,5.77,0,0,0,1.29.34,6.43,6.43,0,0,0,2.25,0,4,4,0,0,0,1.43-.57Zm-4.95-8.93a3.64,3.64,0,0,0-1.12,0,2.66,2.66,0,0,0-.95.34,2.11,2.11,0,0,0-.7.68,2.15,2.15,0,0,0-.32,1l5.63,0.83a2.89,2.89,0,0,0-.63-1.91A2.92,2.92,0,0,0,100.72,467.81Z"/><path class="cls-4" d="M108.06,475.77l2.84,0.4v-6.44l-2.84-.4V466.8l5.15,0.73,0.34,1.57h0.09a5,5,0,0,1,1.47-1.06,3.35,3.35,0,0,1,1.92-.24,3,3,0,0,1,2.16,1.31,6.11,6.11,0,0,1,.79,3.49l-2.68-.37a2.52,2.52,0,0,0-.24-1.24,1,1,0,0,0-.77-0.49,2.06,2.06,0,0,0-1.48.26,3.79,3.79,0,0,0-1,.93v4.9l5,0.68v2.53c-4.32-.59-6.47-0.89-10.79-1.5v-2.53Z"/><path class="cls-4" d="M130.13,478.13a1,1,0,0,0-.56-0.81,9.47,9.47,0,0,0-1.39-.69l-1.81-.71a9.43,9.43,0,0,1-1.81-.91,5.5,5.5,0,0,1-1.39-1.27,2.81,2.81,0,0,1-.56-1.77,2.63,2.63,0,0,1,.38-1.44,2.81,2.81,0,0,1,1-1,4.24,4.24,0,0,1,1.56-.47,7.81,7.81,0,0,1,2,0,11.37,11.37,0,0,1,2,.42,10.81,10.81,0,0,1,1.48.58,6.42,6.42,0,0,1,1.08.66l0.77,0.62-1.26,1.88q-0.34-.25-0.79-0.53t-0.94-.52a8.33,8.33,0,0,0-1-.43,5.48,5.48,0,0,0-1.07-.25,3.88,3.88,0,0,0-1.56,0,0.71,0.71,0,0,0-.6.7,0.91,0.91,0,0,0,.56.74,10.48,10.48,0,0,0,1.39.65l1.81,0.71a11.08,11.08,0,0,1,1.81.89,5.25,5.25,0,0,1,1.39,1.23,2.71,2.71,0,0,1,.56,1.73,2.88,2.88,0,0,1-1.27,2.58,5.56,5.56,0,0,1-3.77.51,9.74,9.74,0,0,1-3.4-1,9.45,9.45,0,0,1-2.3-1.68l1.38-2a8.43,8.43,0,0,0,.79.67,8.6,8.6,0,0,0,1.11.71,10.78,10.78,0,0,0,1.32.6,6.21,6.21,0,0,0,1.39.35,2.73,2.73,0,0,0,1.26-.09A0.75,0.75,0,0,0,130.13,478.13Z"/><path class="cls-4" d="M135.47,476.24a6.66,6.66,0,0,1,.44-2.52,4.45,4.45,0,0,1,1.24-1.75,4.53,4.53,0,0,1,1.92-.95,7.05,7.05,0,0,1,2.49-.09,7.78,7.78,0,0,1,2.58.75,6.31,6.31,0,0,1,1.92,1.46,6,6,0,0,1,1.18,2.06,7.78,7.78,0,0,1,.4,2.53,6.69,6.69,0,0,1-.44,2.52A4.48,4.48,0,0,1,146,482a4.53,4.53,0,0,1-1.92,1,7,7,0,0,1-2.49.1,7.72,7.72,0,0,1-2.58-.76,6.32,6.32,0,0,1-1.92-1.47,6.08,6.08,0,0,1-1.18-2.07A7.8,7.8,0,0,1,135.47,476.24Zm3.07,0.39a4.84,4.84,0,0,0,.21,1.43,4,4,0,0,0,.6,1.2,3.23,3.23,0,0,0,.94.86,3.15,3.15,0,0,0,1.26.42,2.62,2.62,0,0,0,2.17-.59,3.35,3.35,0,0,0,.84-2.59,4.41,4.41,0,0,0-.78-2.66,3.08,3.08,0,0,0-2.23-1.25,3.42,3.42,0,0,0-1.19,0,2,2,0,0,0-1,.51,2.62,2.62,0,0,0-.63,1A4.72,4.72,0,0,0,138.55,476.63Z"/><path class="cls-4" d="M148.71,472.12l4,0.47,0.34,1.56h0.09a3.86,3.86,0,0,1,1.52-1.11,4.51,4.51,0,0,1,2.36-.28,5.78,5.78,0,0,1,1.6.41,3.54,3.54,0,0,1,1.27.9,4.25,4.25,0,0,1,.84,1.53,7.34,7.34,0,0,1,.31,2.28c0,2.86,0,4.29,0,7.15l-3-.34c0-2.61,0-3.92,0-6.53a3,3,0,0,0-.63-2.1,2.47,2.47,0,0,0-1.6-.8,2.43,2.43,0,0,0-1.55.32,2.1,2.1,0,0,0-1,1.12c0,3,0,4.47,0,7.45l-3-.35v-9l-1.65-.2v-2.53Z"/><path class="cls-4" d="M167.24,484.2a1.49,1.49,0,0,1,.51-1.22,1.72,1.72,0,0,1,1.33-.33,2.16,2.16,0,0,1,1.38.62,1.84,1.84,0,0,1,.51,1.33,1.53,1.53,0,0,1-.51,1.23,1.76,1.76,0,0,1-1.38.34,2.06,2.06,0,0,1-1.33-.63A1.88,1.88,0,0,1,167.24,484.2Z"/><path class="cls-4" d="M188.17,487.85a4.84,4.84,0,0,1-.42,2.12,3.69,3.69,0,0,1-1.17,1.42,4.33,4.33,0,0,1-1.77.73,8,8,0,0,1-2.24.07,9.31,9.31,0,0,1-1.55-.28,9.72,9.72,0,0,1-1.33-.47,8.33,8.33,0,0,1-1.07-.56,4.82,4.82,0,0,1-.74-0.55l1.15-2a9.49,9.49,0,0,0,1.32.83,5.21,5.21,0,0,0,1.94.53,3,3,0,0,0,2.21-.45,2.19,2.19,0,0,0,.76-1.83v-0.74h-0.09a2.12,2.12,0,0,1-1.22.7,5.79,5.79,0,0,1-1.86.08,6.15,6.15,0,0,1-2-.55,5,5,0,0,1-1.62-1.21,5.4,5.4,0,0,1-1.07-1.89,8,8,0,0,1-.38-2.57,7.14,7.14,0,0,1,.45-2.65,4.51,4.51,0,0,1,3.22-2.84,7.36,7.36,0,0,1,2.54-.15q0.73,0.07,1.47.2c0.49,0.09,1,.18,1.39.29s0.84,0.22,1.21.34a8.18,8.18,0,0,1,.92.35C188.17,481.2,188.17,483.42,188.17,487.85Zm-5.52-2.75a3,3,0,0,0,1.57-.24,1.74,1.74,0,0,0,1-1.08v-5.17a4,4,0,0,0-.91-0.31,8.52,8.52,0,0,0-1.11-.19,3.36,3.36,0,0,0-1.21.09,2.25,2.25,0,0,0-1,.56,2.75,2.75,0,0,0-.67,1.06,4.64,4.64,0,0,0-.24,1.6,5,5,0,0,0,.21,1.49,3.57,3.57,0,0,0,.57,1.14,2.85,2.85,0,0,0,.83.74A2.43,2.43,0,0,0,182.66,485.11Z"/><path class="cls-4" d="M190.68,485.56l2.85,0.27v-6.44l-2.85-.27c0-1,0-1.52,0-2.53l5.17,0.48,0.35,1.55h0.09a5.32,5.32,0,0,1,1.47-1.13,3.45,3.45,0,0,1,1.93-.33,2.89,2.89,0,0,1,2.17,1.2,5.9,5.9,0,0,1,.79,3.45l-2.69-.24a2.44,2.44,0,0,0-.24-1.23,0.94,0.94,0,0,0-.77-0.45,2.13,2.13,0,0,0-1.48.33,4.07,4.07,0,0,0-1,1v4.9l5,0.45v2.53c-4.33-.38-6.5-0.58-10.83-1C190.68,487.08,190.68,486.57,190.68,485.56Z"/><path class="cls-4" d="M215.87,489.07a3.69,3.69,0,0,1-.77.48A6.85,6.85,0,0,1,214,490a8.08,8.08,0,0,1-1.39.25,8.79,8.79,0,0,1-1.61,0,8.18,8.18,0,0,1-2.63-.63,5.81,5.81,0,0,1-3.2-3.39,7.38,7.38,0,0,1-.43-2.58,6.45,6.45,0,0,1,.48-2.61,4.72,4.72,0,0,1,1.32-1.78,5,5,0,0,1,2-1,7.42,7.42,0,0,1,2.44-.18,7.87,7.87,0,0,1,1.81.38,5.44,5.44,0,0,1,1.71.93,4.79,4.79,0,0,1,1.28,1.61,5.38,5.38,0,0,1,.49,2.43,10.67,10.67,0,0,1-.23,2.12l-8.28-.68a2.82,2.82,0,0,0,.31,1.27,2.77,2.77,0,0,0,.76.89,3.61,3.61,0,0,0,1.08.56,5.6,5.6,0,0,0,1.3.26,6.54,6.54,0,0,0,2.27-.14,4.35,4.35,0,0,0,1.44-.67Zm-5-8.62a3.7,3.7,0,0,0-1.13.07,2.86,2.86,0,0,0-1,.4,2.33,2.33,0,0,0-.7.73,2.26,2.26,0,0,0-.32,1l5.66,0.47A2.5,2.5,0,0,0,210.9,480.46Z"/><path class="cls-4" d="M229.68,490.12a3.73,3.73,0,0,1-.77.48,6.89,6.89,0,0,1-1.11.41,8.17,8.17,0,0,1-1.39.26,8.84,8.84,0,0,1-1.61,0,8.14,8.14,0,0,1-2.64-.61,5.75,5.75,0,0,1-3.2-3.36,7.36,7.36,0,0,1-.43-2.57,6.47,6.47,0,0,1,.48-2.62,4.77,4.77,0,0,1,1.32-1.79,5,5,0,0,1,2-1,7.44,7.44,0,0,1,2.44-.2,7.84,7.84,0,0,1,1.81.36,5.4,5.4,0,0,1,1.72.92,4.74,4.74,0,0,1,1.28,1.6,5.35,5.35,0,0,1,.49,2.43,10.69,10.69,0,0,1-.23,2.12l-8.29-.62a2.81,2.81,0,0,0,.31,1.27,2.74,2.74,0,0,0,.76.89,3.58,3.58,0,0,0,1.08.55,5.58,5.58,0,0,0,1.3.25,6.56,6.56,0,0,0,2.27-.15,4.39,4.39,0,0,0,1.44-.68Zm-5-8.58a3.71,3.71,0,0,0-1.13.08,2.89,2.89,0,0,0-1,.41,2.35,2.35,0,0,0-.7.73,2.27,2.27,0,0,0-.32,1l5.66,0.42A2.47,2.47,0,0,0,224.71,481.54Z"/><path class="cls-4" d="M233.87,482.67l-2.28-.16c0-1,0-1.52,0-2.53l2.28,0.16v-2.62l3-.64c0,1.39,0,2.08,0,3.47l6,0.4c0,1,0,1.52,0,2.53l-6-.4v3.29a4.16,4.16,0,0,0,.67,2.61,2.48,2.48,0,0,0,1.86.92,3.9,3.9,0,0,0,1.13-.07,4,4,0,0,0,.91-0.32,4.76,4.76,0,0,0,.74-0.46l0.61-.47,1.38,2.16a4.06,4.06,0,0,1-1,.78,7.72,7.72,0,0,1-1.27.59,7.61,7.61,0,0,1-1.42.36,6.67,6.67,0,0,1-1.45.07,5.31,5.31,0,0,1-3.88-1.7,7,7,0,0,1-1.3-4.66v-3.29Z"/><path class="cls-4" d="M246.38,489.93l4.05,0.25v-6.44l-4.05-.25V481l7.05,0.43c0,3.59,0,5.38,0,9l4.26,0.24c0,1,0,1.52,0,2.53-4.53-.25-6.79-0.39-11.31-0.67v-2.53Zm3.5-11.88a1.53,1.53,0,0,1,.53-1.19,2,2,0,0,1,1.47-.42,2.38,2.38,0,0,1,1.54.6,1.67,1.67,0,0,1,.58,1.25,1.4,1.4,0,0,1-.58,1.17,2.66,2.66,0,0,1-3-.18A1.64,1.64,0,0,1,249.88,478Z"/><path class="cls-4" d="M259.12,481.71l4,0.22,0.35,1.54h0.09a4.24,4.24,0,0,1,1.52-1.21,4.67,4.67,0,0,1,2.37-.43,5.58,5.58,0,0,1,1.6.31,3.25,3.25,0,0,1,1.28.82,3.92,3.92,0,0,1,.84,1.48,7.13,7.13,0,0,1,.31,2.26c0,2.86,0,4.29,0,7.15l-3-.15c0-2.61,0-3.92,0-6.53a2.86,2.86,0,0,0-.63-2.06,2.31,2.31,0,0,0-1.6-.7,2.54,2.54,0,0,0-1.56.41,2.3,2.3,0,0,0-1,1.18v7.45l-3-.16c0-3.59,0-5.38,0-9l-1.66-.09v-2.53Z"/><path class="cls-4" d="M284.9,494.44a5,5,0,0,1-.43,2.14,4,4,0,0,1-1.18,1.48,4.63,4.63,0,0,1-1.78.82,8.17,8.17,0,0,1-2.25.19,9.1,9.1,0,0,1-1.56-.2,9.24,9.24,0,0,1-1.34-.39,7.84,7.84,0,0,1-1.07-.5,4.56,4.56,0,0,1-.74-0.51l1.15-2.06a8.88,8.88,0,0,0,1.33.76,5,5,0,0,0,1.95.42,3.15,3.15,0,0,0,2.21-.57,2.31,2.31,0,0,0,.76-1.88v-0.74h-0.09a2.28,2.28,0,0,1-1.22.77,5.9,5.9,0,0,1-1.87.18,6,6,0,0,1-2-.44,4.65,4.65,0,0,1-1.62-1.12A5,5,0,0,1,274,491a7.78,7.78,0,0,1-.38-2.55,7.32,7.32,0,0,1,.45-2.67,4.87,4.87,0,0,1,3.23-3,7.53,7.53,0,0,1,2.55-.29q0.74,0,1.48.12c0.49,0.06,1,.13,1.4.21s0.84,0.17,1.21.27a7.89,7.89,0,0,1,.92.3C284.9,487.79,284.9,490,284.9,494.44ZM279.36,492a3.1,3.1,0,0,0,1.58-.32,1.89,1.89,0,0,0,1-1.13v-5.17a3.81,3.81,0,0,0-.91-0.26,8.37,8.37,0,0,0-1.12-.13,3.43,3.43,0,0,0-1.21.15,2.43,2.43,0,0,0-1,.61,3,3,0,0,0-.67,1.1,4.74,4.74,0,0,0-.24,1.61,4.88,4.88,0,0,0,.21,1.48,3.34,3.34,0,0,0,.58,1.11,2.63,2.63,0,0,0,.83.69A2.34,2.34,0,0,0,279.36,492Z"/><path class="cls-4" d="M297,499.76a11,11,0,0,1-3.14-1.12,9.63,9.63,0,0,1-2.7-2.14,10.22,10.22,0,0,1-1.88-3.2,12.17,12.17,0,0,1-.7-4.31,11.75,11.75,0,0,1,.7-4.24,9.52,9.52,0,0,1,1.88-3.09,8.88,8.88,0,0,1,2.7-2,11.14,11.14,0,0,1,3.14-1l0.55,2.48a9.36,9.36,0,0,0-1.83.59,6.38,6.38,0,0,0-1.95,1.33,7.35,7.35,0,0,0-1.56,2.35,9.15,9.15,0,0,0-.63,3.66,8.65,8.65,0,0,0,.67,3.59,8.28,8.28,0,0,0,1.63,2.44,7.53,7.53,0,0,0,2,1.47,8.15,8.15,0,0,0,1.71.67Z"/><path class="cls-4" d="M305.9,495.16c0-2.82,0-4.22,0-7a5.54,5.54,0,0,0-.09-1.12,2.21,2.21,0,0,0-.24-0.67,0.77,0.77,0,0,0-.37-0.33,1.32,1.32,0,0,0-.45-0.09,1.15,1.15,0,0,0-.73.23,1.18,1.18,0,0,0-.45.63c0,3.33,0,5,0,8.33l-2.77-.08c0-4.6,0-6.9,0-11.5l2.19,0.07,0.32,1.27h0.07a2.7,2.7,0,0,1,1-1.06,2.8,2.8,0,0,1,1.57-.38,3.12,3.12,0,0,1,1.45.41,2,2,0,0,1,.95,1.31,2.47,2.47,0,0,1,1.06-1.2,2.92,2.92,0,0,1,1.55-.39,3.44,3.44,0,0,1,1.12.2,2,2,0,0,1,.86.63,3.08,3.08,0,0,1,.57,1.2,7.84,7.84,0,0,1,.2,1.92c0,3.15,0,4.72,0,7.87l-2.77-.07v-7.36a2.41,2.41,0,0,0-.33-1.46,1,1,0,0,0-.82-0.44,1.26,1.26,0,0,0-.71.18,1,1,0,0,0-.42.62c0,3.36,0,5,0,8.39Z"/><path class="cls-4" d="M326.5,494.4a4,4,0,0,1-.77.53,7.33,7.33,0,0,1-1.11.48,8.47,8.47,0,0,1-1.4.34,9,9,0,0,1-1.61.11,7.92,7.92,0,0,1-2.64-.47,5.32,5.32,0,0,1-3.21-3.19,7.16,7.16,0,0,1-.43-2.55,6.66,6.66,0,0,1,.48-2.65,5.16,5.16,0,0,1,1.33-1.87,5.41,5.41,0,0,1,2-1.1,7.71,7.71,0,0,1,4.26-.07,5.07,5.07,0,0,1,1.72.82,4.37,4.37,0,0,1,1.28,1.53,5.16,5.16,0,0,1,.5,2.4,10.86,10.86,0,0,1-.23,2.14l-8.3-.16a2.7,2.7,0,0,0,.31,1.25,2.54,2.54,0,0,0,.76.84,3.37,3.37,0,0,0,1.08.49,5.45,5.45,0,0,0,1.3.18,6.69,6.69,0,0,0,2.27-.28,4.7,4.7,0,0,0,1.44-.76Zm-5-8.3a3.79,3.79,0,0,0-1.13.14,3.09,3.09,0,0,0-1,.46,2.54,2.54,0,0,0-.7.77,2.36,2.36,0,0,0-.32,1l5.67,0.11A2.32,2.32,0,0,0,321.52,486.1Z"/><path class="cls-4" d="M330.79,498.06a7.83,7.83,0,0,0,1.71-.59,7.08,7.08,0,0,0,2-1.38,7.76,7.76,0,0,0,1.63-2.36,8.43,8.43,0,0,0,.67-3.56,9.38,9.38,0,0,0-.63-3.69,7.84,7.84,0,0,0-1.56-2.42,6.83,6.83,0,0,0-1.95-1.43,9.79,9.79,0,0,0-1.83-.68l0.55-2.45a11.62,11.62,0,0,1,3.14,1.12,9.51,9.51,0,0,1,2.7,2.12,10.12,10.12,0,0,1,1.88,3.18,12,12,0,0,1,.7,4.27,11.89,11.89,0,0,1-.7,4.27,9.61,9.61,0,0,1-1.88,3.11,9,9,0,0,1-2.7,2,10.57,10.57,0,0,1-3.14,1Z"/><path class="cls-4" d="M467.64,489.46l4.08-.27c0-4.2,0-6.29,0-10.49l-4.08.27c0-1.12,0-1.68,0-2.81,4.53-.29,6.8-0.44,11.33-0.76,0,1.12,0,1.68,0,2.81l-4.1.28c0,4.2,0,6.29,0,10.49l4.1-.28c0,1.12,0,1.68,0,2.81-4.53.32-6.8,0.47-11.33,0.76C467.64,491.15,467.64,490.59,467.64,489.46Z"/><path class="cls-4" d="M481,483.31a15.7,15.7,0,0,1,.37-3.55,8,8,0,0,1,1.13-2.71,5.73,5.73,0,0,1,1.9-1.78,6.21,6.21,0,0,1,2.68-.78,5.63,5.63,0,0,1,2.81.41,4.58,4.58,0,0,1,1.88,1.58,7.17,7.17,0,0,1,1.06,2.56,15.66,15.66,0,0,1,.33,3.35,11.45,11.45,0,0,1-1.51,6.27,5.61,5.61,0,0,1-4.57,2.57,5.67,5.67,0,0,1-2.82-.41,4.58,4.58,0,0,1-1.89-1.59,7,7,0,0,1-1-2.57A16.18,16.18,0,0,1,481,483.31Zm3.32-.24a21.47,21.47,0,0,0,.1,2.18,6.51,6.51,0,0,0,.39,1.73,2.47,2.47,0,0,0,.83,1.12,2.1,2.1,0,0,0,1.44.33,2.38,2.38,0,0,0,2.19-1.52,6.09,6.09,0,0,0,.45-1.77,21.23,21.23,0,0,0,.13-2.48q0-1.13-.08-2.13a6.17,6.17,0,0,0-.37-1.74,2.52,2.52,0,0,0-.84-1.14,2.15,2.15,0,0,0-1.47-.34,2.36,2.36,0,0,0-2.19,1.57A11.9,11.9,0,0,0,484.36,483.07Z"/><path class="cls-4" d="M499.06,488.45a1.8,1.8,0,0,1,.51-1.32,2,2,0,0,1,1.33-.58,1.82,1.82,0,0,1,1.38.36,1.53,1.53,0,0,1,.51,1.23,1.84,1.84,0,0,1-.51,1.33,2.08,2.08,0,0,1-1.38.6,1.73,1.73,0,0,1-1.33-.37A1.56,1.56,0,0,1,499.06,488.45Z"/><path class="cls-4" d="M507.83,477.73l3.91-.35,0.34,1.35h0.09a4.86,4.86,0,0,1,3.86-2.05,5.29,5.29,0,0,1,1.94.15,3.36,3.36,0,0,1,1.52.9,4.38,4.38,0,0,1,1,1.7,8.3,8.3,0,0,1,.34,2.57,8.8,8.8,0,0,1-.39,2.69,6.35,6.35,0,0,1-1.13,2.12,5.5,5.5,0,0,1-1.79,1.43,6.65,6.65,0,0,1-2.41.66,9.39,9.39,0,0,1-1.4,0,3.63,3.63,0,0,1-1.15-.23c0,1.89,0,2.83,0,4.71l-3,.27c0-5.43,0-8.14,0-13.57l-1.72.15C507.83,479.25,507.83,478.74,507.83,477.73Zm7.32,1.55a3.28,3.28,0,0,0-1.6.58,2.57,2.57,0,0,0-1,1.4c0,1.91,0,2.87,0,4.78a2.24,2.24,0,0,0,.93.32,5,5,0,0,0,1.23,0,3.4,3.4,0,0,0,1.2-.33,2.79,2.79,0,0,0,1-.79,3.82,3.82,0,0,0,.64-1.28,6.21,6.21,0,0,0,.23-1.79,3.15,3.15,0,0,0-.74-2.28A2.18,2.18,0,0,0,515.15,479.28Z"/><path class="cls-4" d="M529.22,475.73l4.28-.43v9l1.75-.18v2.53l-3.63.37-0.53-1.65H531A4.7,4.7,0,0,1,529.4,487a5.22,5.22,0,0,1-2.35.81,5.1,5.1,0,0,1-1.6-.07,2.55,2.55,0,0,1-1.23-.64,3.12,3.12,0,0,1-.78-1.35,7.5,7.5,0,0,1-.28-2.23v-4.62l-1.31.13v-2.53l4.3-.42v6.53a3.31,3.31,0,0,0,.45,2A1.48,1.48,0,0,0,528,485a2.74,2.74,0,0,0,1.53-.66,3.13,3.13,0,0,0,1-1.34v-4.9l-1.29.13v-2.53Z"/><path class="cls-4" d="M538.09,477.35l-2.28.24v-2.53l2.28-.24c0-1,0-1.57,0-2.62l3-1.17v3.47l6-.65c0,1,0,1.52,0,2.53l-6,.65v3.29a3.66,3.66,0,0,0,.67,2.49,2.08,2.08,0,0,0,1.86.59,4.2,4.2,0,0,0,1.13-.27,4.82,4.82,0,0,0,.91-0.48,6.08,6.08,0,0,0,.74-0.59l0.61-.57,1.38,1.92a5.21,5.21,0,0,1-1,.95,9.58,9.58,0,0,1-1.26.81,8.85,8.85,0,0,1-1.41.6,7.07,7.07,0,0,1-1.45.32,4.52,4.52,0,0,1-3.87-1q-1.3-1.3-1.3-4.43v-3.29Z"/><path class="cls-4" d="M558.43,480.9a0.72,0.72,0,0,0-.56-0.67,7.41,7.41,0,0,0-1.39-.34l-1.81-.26a7.4,7.4,0,0,1-1.81-.46,3.87,3.87,0,0,1-1.39-.92,2.27,2.27,0,0,1-.56-1.63,3.13,3.13,0,0,1,.38-1.54,4.05,4.05,0,0,1,1-1.21,5.53,5.53,0,0,1,1.56-.86,8.47,8.47,0,0,1,2-.46,10.67,10.67,0,0,1,2-.07,9,9,0,0,1,1.48.22,4.82,4.82,0,0,1,1.08.39l0.77,0.43-1.26,2.2q-0.34-.17-0.79-0.33a9.38,9.38,0,0,0-.94-0.29,6.82,6.82,0,0,0-1-.18,5,5,0,0,0-1.07,0,4.36,4.36,0,0,0-1.56.43,1,1,0,0,0-.6.85,0.66,0.66,0,0,0,.56.6,8.36,8.36,0,0,0,1.39.31l1.81,0.26a8.74,8.74,0,0,1,1.81.44,3.7,3.7,0,0,1,1.39.88,2.19,2.19,0,0,1,.56,1.59,3.74,3.74,0,0,1-1.27,2.9,6.66,6.66,0,0,1-3.78,1.44,8.6,8.6,0,0,1-3.41-.2,6.87,6.87,0,0,1-2.31-1.11L552,481a6.05,6.05,0,0,0,.79.47,6.36,6.36,0,0,0,1.11.44,8.68,8.68,0,0,0,1.32.27,5.67,5.67,0,0,0,1.39,0,3.14,3.14,0,0,0,1.26-.4A1,1,0,0,0,558.43,480.9Z"/><path class="cls-4" d="M573.42,487.13a9.66,9.66,0,0,1-3.12-.62,7.68,7.68,0,0,1-2.68-1.72,8.29,8.29,0,0,1-1.87-2.9,11.31,11.31,0,0,1-.7-4.19,12.73,12.73,0,0,1,.7-4.35,11.69,11.69,0,0,1,1.87-3.39,11.14,11.14,0,0,1,2.68-2.42,13,13,0,0,1,3.12-1.47l0.55,2.39a10.93,10.93,0,0,0-1.82.88,8,8,0,0,0-1.94,1.64,9.09,9.09,0,0,0-1.55,2.59,10,10,0,0,0-.63,3.76,8,8,0,0,0,.67,3.48,6.64,6.64,0,0,0,1.62,2.18,6,6,0,0,0,2,1.16,7.08,7.08,0,0,0,1.7.4Z"/><path class="cls-4" d="M579.75,465.35l2.61-.34-0.83,7.38-1.79.23C579.75,469.71,579.75,468.26,579.75,465.35Zm5-.65,2.61-.35-0.82,7.38-1.79.24C584.7,469.07,584.7,467.61,584.7,464.71Z"/><path class="cls-4" d="M589.33,478.67a1.9,1.9,0,0,1,.5-1.35,2.15,2.15,0,0,1,1.33-.65,1.75,1.75,0,0,1,1.37.28,1.45,1.45,0,0,1,.5,1.21,1.94,1.94,0,0,1-.5,1.36,2.19,2.19,0,0,1-1.37.67,1.65,1.65,0,0,1-1.33-.3A1.49,1.49,0,0,1,589.33,478.67Zm6.19-.84a1.9,1.9,0,0,1,.5-1.35,2.16,2.16,0,0,1,1.33-.66,1.74,1.74,0,0,1,1.37.28,1.45,1.45,0,0,1,.5,1.21,1.94,1.94,0,0,1-.5,1.36,2.19,2.19,0,0,1-1.37.68A1.65,1.65,0,0,1,596,479,1.48,1.48,0,0,1,595.51,477.83Zm6.23-.87a1.91,1.91,0,0,1,.5-1.35,2.17,2.17,0,0,1,1.33-.66,1.74,1.74,0,0,1,1.37.27,1.44,1.44,0,0,1,.5,1.2,2,2,0,0,1-.5,1.36,2.2,2.2,0,0,1-1.37.68,1.64,1.64,0,0,1-1.33-.29A1.48,1.48,0,0,1,601.74,477Z"/><path class="cls-4" d="M607.24,461.58l2.61-.38L609,468.59l-1.79.26C607.24,465.94,607.24,464.49,607.24,461.58Zm4.94-.72,2.61-.39L614,467.86l-1.78.27C612.18,465.22,612.18,463.77,612.18,460.86Z"/><path class="cls-4" d="M620.72,478a9.22,9.22,0,0,0,1.69-.87,8.93,8.93,0,0,0,2-1.71,9.74,9.74,0,0,0,1.61-2.63,9.3,9.3,0,0,0,.66-3.67,8.68,8.68,0,0,0-.63-3.58,6.23,6.23,0,0,0-1.54-2.16,5.4,5.4,0,0,0-1.93-1.1,8.46,8.46,0,0,0-1.82-.38l0.55-2.55a10.09,10.09,0,0,1,3.11.6,7.47,7.47,0,0,1,2.67,1.68,8.13,8.13,0,0,1,1.86,2.87,11.17,11.17,0,0,1,.7,4.16,13,13,0,0,1-.7,4.39,11.92,11.92,0,0,1-1.86,3.42,11.41,11.41,0,0,1-2.67,2.46,12.33,12.33,0,0,1-3.11,1.49Z"/><path class="cls-4" d="M80.34,417.48l4,0.64V407.63l-4-.64v-2.81c4.5,0.71,6.75,1.06,11.25,1.74v2.81l-4.07-.62V418.6l4.07,0.62V422c-4.5-.68-6.75-1-11.25-1.74v-2.81Z"/><path class="cls-4" d="M93.65,414.29a14.79,14.79,0,0,1,.37-3.46,6.34,6.34,0,0,1,1.12-2.46A4.15,4.15,0,0,1,97,407a5.49,5.49,0,0,1,2.67-.18,6.53,6.53,0,0,1,2.79,1,6.32,6.32,0,0,1,1.87,2,9,9,0,0,1,1.05,2.8,16.81,16.81,0,0,1,.33,3.43,9.83,9.83,0,0,1-1.5,5.94,4.43,4.43,0,0,1-4.54,1.56,6.57,6.57,0,0,1-2.8-1,6.33,6.33,0,0,1-1.88-2,8.87,8.87,0,0,1-1-2.8A17.34,17.34,0,0,1,93.65,414.29Zm3.29,0.49a22,22,0,0,0,.1,2.2,7.54,7.54,0,0,0,.39,1.82,3.37,3.37,0,0,0,.82,1.31,2.53,2.53,0,0,0,1.43.65,2.25,2.25,0,0,0,1.33-.14,1.89,1.89,0,0,0,.85-0.9,5.18,5.18,0,0,0,.45-1.67,20.61,20.61,0,0,0,.13-2.45q0-1.13-.08-2.15a7.07,7.07,0,0,0-.37-1.82,3.39,3.39,0,0,0-.84-1.33,2.59,2.59,0,0,0-1.46-.66,1.82,1.82,0,0,0-2.17,1.08A10.85,10.85,0,0,0,96.95,414.78Z"/><path class="cls-4" d="M111.58,423.43a1.45,1.45,0,0,1,.5-1.21,1.68,1.68,0,0,1,1.33-.29,2.23,2.23,0,0,1,1.38.66,1.9,1.9,0,0,1,.5,1.35,1.48,1.48,0,0,1-.5,1.22,1.71,1.71,0,0,1-1.38.29,2.13,2.13,0,0,1-1.33-.67A1.94,1.94,0,0,1,111.58,423.43Z"/><path class="cls-4" d="M120.3,414.64l3.9,0.52,0.34,1.43h0.09q1.19-1.54,3.85-1.2a6,6,0,0,1,1.94.58,4.55,4.55,0,0,1,1.51,1.24,5.75,5.75,0,0,1,1,1.92,9.1,9.1,0,0,1,.34,2.64,8,8,0,0,1-.39,2.61,4.8,4.8,0,0,1-1.12,1.87,4,4,0,0,1-1.79,1,6,6,0,0,1-2.41.12,9.92,9.92,0,0,1-1.4-.29,4.34,4.34,0,0,1-1.15-.49c0,1.89,0,2.83,0,4.72l-3-.4c0-5.43,0-8.14,0-13.57l-1.72-.23v-2.53Zm7.29,3.18A2.8,2.8,0,0,0,126,418a1.89,1.89,0,0,0-1,1.18V424a2.86,2.86,0,0,0,.93.52,5.47,5.47,0,0,0,1.23.31,3,3,0,0,0,1.19-.06,2.06,2.06,0,0,0,1-.58,2.92,2.92,0,0,0,.64-1.14,5.71,5.71,0,0,0,.23-1.74,3.81,3.81,0,0,0-.73-2.44A2.76,2.76,0,0,0,127.59,417.82Z"/><path class="cls-4" d="M141.63,417.39l4.27,0.52c0,3.2,0,4.8,0,8v1l1.74,0.21v2.53l-3.63-.44-0.53-1.77h-0.09a3.4,3.4,0,0,1-1.58,1.26,4.5,4.5,0,0,1-2.34.29,5.62,5.62,0,0,1-1.59-.43,3.4,3.4,0,0,1-1.23-.91,4.12,4.12,0,0,1-.78-1.52,8.16,8.16,0,0,1-.28-2.29v-4.62l-1.31-.17c0-1,0-1.52,0-2.53l4.29,0.54v6.53a3.83,3.83,0,0,0,.45,2.08,1.86,1.86,0,0,0,1.41.8,2.27,2.27,0,0,0,1.53-.32,2.29,2.29,0,0,0,1-1.13c0-2,0-2.94,0-4.9l-1.29-.16v-2.53Z"/><path class="cls-4" d="M150.49,421l-2.27-.27c0-1,0-1.52,0-2.53l2.27,0.27v-2.62l3-.5c0,1.39,0,2.08,0,3.47l6,0.69V422l-6-.68v3.29a4.32,4.32,0,0,0,.66,2.64,2.61,2.61,0,0,0,1.86,1,3.85,3.85,0,0,0,1.13,0A3.79,3.79,0,0,0,158,428a4.41,4.41,0,0,0,.74-0.42l0.61-.44,1.38,2.22a3.78,3.78,0,0,1-1,.73,7.25,7.25,0,0,1-1.26.53,7.33,7.33,0,0,1-1.41.29,6.59,6.59,0,0,1-1.45,0,5.57,5.57,0,0,1-3.87-1.88,7.33,7.33,0,0,1-1.3-4.72C150.49,423,150.49,422.3,150.49,421Z"/><path class="cls-4" d="M170.83,429a1,1,0,0,0-.56-0.8,9.17,9.17,0,0,0-1.39-.65l-1.81-.67a9.18,9.18,0,0,1-1.81-.86,5.33,5.33,0,0,1-1.39-1.23,2.75,2.75,0,0,1-.56-1.75,2.68,2.68,0,0,1,.38-1.45,2.91,2.91,0,0,1,1-1,4.34,4.34,0,0,1,1.56-.51,7.84,7.84,0,0,1,2,0,11.24,11.24,0,0,1,2,.37,10.56,10.56,0,0,1,1.48.55,6.21,6.21,0,0,1,1.08.63l0.77,0.6-1.26,1.91q-0.35-.24-0.79-0.51t-0.94-.5a8.17,8.17,0,0,0-1-.41,5.43,5.43,0,0,0-1.07-.23,3.91,3.91,0,0,0-1.56.09,0.73,0.73,0,0,0-.6.72,0.88,0.88,0,0,0,.56.73,10.18,10.18,0,0,0,1.39.62l1.82,0.67a10.79,10.79,0,0,1,1.81.85,5.07,5.07,0,0,1,1.39,1.19,2.65,2.65,0,0,1,.56,1.71,3,3,0,0,1-1.28,2.62,5.64,5.64,0,0,1-3.78.6,9.59,9.59,0,0,1-3.41-1,9.19,9.19,0,0,1-2.31-1.62l1.38-2a8.13,8.13,0,0,0,.79.65,8.28,8.28,0,0,0,1.11.68,10.47,10.47,0,0,0,1.32.57A6.12,6.12,0,0,0,169,430a2.77,2.77,0,0,0,1.26-.12A0.77,0.77,0,0,0,170.83,429Z"/><path class="cls-4" d="M185.84,438.61a11.67,11.67,0,0,1-3.13-1.32A10.55,10.55,0,0,1,180,435a11.1,11.1,0,0,1-1.87-3.32,12.58,12.58,0,0,1-.7-4.35,11.42,11.42,0,0,1,.7-4.2,8.76,8.76,0,0,1,1.87-3,8.11,8.11,0,0,1,2.69-1.83,10.54,10.54,0,0,1,3.13-.78l0.55,2.51a8.87,8.87,0,0,0-1.83.48,5.84,5.84,0,0,0-1.94,1.21,6.73,6.73,0,0,0-1.55,2.25,10.44,10.44,0,0,0,0,7.25,9,9,0,0,0,1.62,2.54,8.26,8.26,0,0,0,2,1.6,8.71,8.71,0,0,0,1.7.77Z"/><path class="cls-4" d="M192.19,418.24l2.62,0.24L194,425.67l-1.79-.17C192.19,422.6,192.19,421.15,192.19,418.24Zm5,0.46,2.62,0.23-0.83,7.19-1.79-.16C197.15,423.06,197.15,421.6,197.15,418.7Z"/><path class="cls-4" d="M201.8,433.69a1.53,1.53,0,0,1,.51-1.23,1.75,1.75,0,0,1,1.33-.35,2.12,2.12,0,0,1,1.38.59,1.81,1.81,0,0,1,.51,1.32,1.56,1.56,0,0,1-.51,1.24,1.79,1.79,0,0,1-1.38.36,2,2,0,0,1-1.33-.6A1.85,1.85,0,0,1,201.8,433.69Zm6.21,0.53a1.53,1.53,0,0,1,.51-1.23,1.76,1.76,0,0,1,1.33-.36,2.11,2.11,0,0,1,1.38.58,1.8,1.8,0,0,1,.51,1.32,1.57,1.57,0,0,1-.51,1.25,1.79,1.79,0,0,1-1.38.37,2,2,0,0,1-1.33-.59A1.84,1.84,0,0,1,208,434.23Zm6.26,0.52a1.53,1.53,0,0,1,.51-1.24,1.76,1.76,0,0,1,1.33-.36,2.11,2.11,0,0,1,1.38.58A1.79,1.79,0,0,1,218,435a1.57,1.57,0,0,1-.51,1.25,1.8,1.8,0,0,1-1.38.37,2,2,0,0,1-1.33-.59A1.83,1.83,0,0,1,214.27,434.74Z"/><path class="cls-4" d="M219.8,420.6l2.62,0.2-0.83,7.2-1.8-.14C219.8,425,219.8,423.5,219.8,420.6Zm5,0.38,2.62,0.19-0.83,7.21-1.8-.13C224.77,425.33,224.77,423.88,224.77,421Z"/><path class="cls-4" d="M233.36,440.06a7.43,7.43,0,0,0,1.7-.49,6.54,6.54,0,0,0,2-1.27,7.18,7.18,0,0,0,1.62-2.27,8.18,8.18,0,0,0,.67-3.52,9.65,9.65,0,0,0-.63-3.72,8.44,8.44,0,0,0-1.55-2.51,7.39,7.39,0,0,0-1.95-1.53,10.34,10.34,0,0,0-1.83-.78l0.55-2.42a12.26,12.26,0,0,1,3.13,1.3,10.31,10.31,0,0,1,2.7,2.27,10.9,10.9,0,0,1,1.88,3.28,12.36,12.36,0,0,1,.7,4.31,11.58,11.58,0,0,1-.7,4.23,8.93,8.93,0,0,1-1.88,3,8.32,8.32,0,0,1-2.7,1.87,10.08,10.08,0,0,1-3.13.8Z"/><path class="cls-4" d="M594.91,415.73a1.89,1.89,0,0,1,.5-1.35,2.15,2.15,0,0,1,1.33-.66,1.74,1.74,0,0,1,1.37.28,1.45,1.45,0,0,1,.5,1.21,1.94,1.94,0,0,1-.5,1.36,2.19,2.19,0,0,1-1.37.67,1.65,1.65,0,0,1-1.33-.3A1.48,1.48,0,0,1,594.91,415.73Zm0,8.33a1.9,1.9,0,0,1,.5-1.35,2.15,2.15,0,0,1,1.33-.65,1.74,1.74,0,0,1,1.37.28,1.45,1.45,0,0,1,.5,1.21,1.94,1.94,0,0,1-.5,1.36,2.2,2.2,0,0,1-1.37.67,1.65,1.65,0,0,1-1.33-.3A1.49,1.49,0,0,1,594.91,424.05Z"/><path class="cls-4" d="M604.44,418.48a7.64,7.64,0,0,1,.44-2.64,6.39,6.39,0,0,1,1.24-2.09A6.46,6.46,0,0,1,608,412.3a8,8,0,0,1,2.48-.76,6.85,6.85,0,0,1,2.57.06,4.41,4.41,0,0,1,1.91.95,4.23,4.23,0,0,1,1.18,1.74,6.87,6.87,0,0,1,.4,2.42,7.67,7.67,0,0,1-.44,2.64,6.37,6.37,0,0,1-3.15,3.56,8,8,0,0,1-2.48.77,6.8,6.8,0,0,1-2.58-.06,4.42,4.42,0,0,1-1.91-1,4.27,4.27,0,0,1-1.18-1.75A6.88,6.88,0,0,1,604.44,418.48Zm3.07-.44a4.32,4.32,0,0,0,.21,1.37,2.87,2.87,0,0,0,.6,1,2.19,2.19,0,0,0,.94.61,2.7,2.7,0,0,0,1.26.08,3.4,3.4,0,0,0,2.16-1.17,4.21,4.21,0,0,0,.84-2.82,3.53,3.53,0,0,0-.78-2.45,2.34,2.34,0,0,0-2.22-.65,3.89,3.89,0,0,0-1.19.37,2.86,2.86,0,0,0-1,.77,3.73,3.73,0,0,0-.63,1.19A5.31,5.31,0,0,0,607.51,418Z"/><path class="cls-4" d="M617.37,406.24l4.85-.74v9.18l0.69-.11,3.75-5.16,3.5-.55-4.62,6,3,3.26,2.13-.34v2.53l-3.7.58L623,416.72l-0.8.12v4.76l-3,.45V408.48l-1.87.28v-2.53Z"/></svg>