<svg id="Layer_1" data-name="Layer 1" xmlns="http://www.w3.org/2000/svg" viewBox="0 0 720 576"><defs><style>.cls-1,.cls-2,.cls-4,.cls-6{fill:#231f20;}.cls-1,.cls-3{stroke:#231f20;}.cls-1,.cls-6{stroke-miterlimit:10;}.cls-1,.cls-2,.cls-3{stroke-width:2px;}.cls-2{stroke:#000;}.cls-2,.cls-3{stroke-linecap:round;stroke-linejoin:round;}.cls-3,.cls-5{fill:#fff;}.cls-6{stroke:#fff;}</style></defs><title>Hanoi_Tower_Set_Elixir_5</title><path class="cls-1" d="M656,522.57c0-.14,0-0.29,0-0.43s0-.29,0-0.43V469.92H64.18s-0.23,51.74-.23,52.22c0,2.67,2.12,5.24,6.08,7.71,13.87,8.61,50.58,16.11,101.74,21.48S288.5,559.92,360,559.92c81.71,0,155.68-4.21,209.24-11,26.78-3.41,48.45-7.46,63.44-12,7.5-2.25,13.32-4.62,17.29-7.08,3.38-2.1,5.41-4.29,5.94-6.55H656v-0.73Z"/><ellipse class="cls-2" cx="360" cy="471" rx="295.87" ry="37.63"/><path class="cls-3" d="M656,471.09c0-.14,0-0.29,0-0.43s0-.29,0-0.43V418.44H64.18s-0.23,51.74-.23,52.22c0,2.67,2.12,5.24,6.08,7.71,13.87,8.61,50.58,16.11,101.74,21.48S288.5,508.44,360,508.44c81.71,0,155.68-4.21,209.24-11,26.78-3.41,48.45-7.46,63.44-12,7.5-2.25,13.32-4.62,17.29-7.08,3.38-2.1,5.41-4.29,5.94-6.55H656v-0.73Z"/><ellipse class="cls-3" cx="360" cy="419.52" rx="295.87" ry="37.63"/><path class="cls-3" d="M656,419.61c0-.14,0-0.29,0-0.43s0-.29,0-0.43V367H64.18s-0.23,51.74-.23,52.22c0,2.67,2.12,5.24,6.08,7.71C83.9,435.5,120.62,443,171.78,448.37S288.5,457,360,457c81.71,0,155.68-4.21,209.24-11,26.78-3.41,48.45-7.46,63.44-12,7.5-2.25,13.32-4.62,17.29-7.08,3.38-2.1,5.41-4.29,5.94-6.55H656v-0.73Z"/><ellipse class="cls-3" cx="360" cy="368.05" rx="295.87" ry="37.63"/><path class="cls-4" d="M360,376.3c-16,0-29-3.75-30.2-8.61h-0.08l0-.5V24.35h60.63V367.69H390.2C389,372.55,376,376.3,360,376.3Z"/><path class="cls-5" d="M389.82,24.85V367.19h0c-0.49,4.78-13.63,8.61-29.79,8.61s-29.3-3.83-29.79-8.61h0V367s0,0,0-.06,0,0,0-.06v-342h59.63m1-1H329.19v343s0,0.07,0,.11v1.27h0.23c2,5.6,16.84,8.61,30.58,8.61s28.6-3,30.58-8.61h0.21l0-1V23.85h0Z"/><ellipse class="cls-6" cx="359.99" cy="24.97" rx="29.81" ry="8.89"/><path class="cls-4" d="M83.55,459l0.09-1.89-0.1,0L81.58,460l-0.42-.07-2-3.55-0.09,0,0.1,1.73v6.72l-2.26-.39V452.17l2.41,0.42,2.08,3.75h0.07l2.07-3,2.4,0.41V466l-2.38-.4V459Z"/><path class="cls-4" d="M88.19,458.19a8.39,8.39,0,0,1,1.61-.27A9,9,0,0,1,92,458a5.32,5.32,0,0,1,1.54.47,3.22,3.22,0,0,1,1,.79,2.9,2.9,0,0,1,.56,1.06,4.53,4.53,0,0,1,.17,1.29q0,0.89-.06,1.51t-0.06,1.11a7.69,7.69,0,0,0,0,.83c0,0.16,0,.33.05,0.48l1.13,0.18v1.92l-2.92-.48L93.21,466H93.13a2.37,2.37,0,0,1-1,.77,3,3,0,0,1-1.73.11,3.46,3.46,0,0,1-2.06-1,2.83,2.83,0,0,1-.76-2,2.52,2.52,0,0,1,.27-1.22,1.77,1.77,0,0,1,.78-0.74,3.18,3.18,0,0,1,1.23-.3,7,7,0,0,1,1.6.1c0.21,0,.43.08,0.66,0.14L93,462a1.69,1.69,0,0,0,0-.34v-0.33a1.32,1.32,0,0,0-.38-1,2.13,2.13,0,0,0-1.12-.47,5,5,0,0,0-1.59,0,9,9,0,0,0-1.19.26Zm3,6.92a1.9,1.9,0,0,0,1.24-.1,1.62,1.62,0,0,0,.6-0.56v-1l-0.52-.16a6.48,6.48,0,0,0-.74-0.16,3.6,3.6,0,0,0-.65,0,1.93,1.93,0,0,0-.58.1,0.92,0.92,0,0,0-.41.27,0.73,0.73,0,0,0-.15.48,1.17,1.17,0,0,0,.28.81A1.56,1.56,0,0,0,91.15,465.11Z"/><path class="cls-4" d="M99.08,461.31L97.35,461V459.1l1.72,0.28v-2l2.26-.29v2.64l4.56,0.72v1.92l-4.56-.72v2.5a3.4,3.4,0,0,0,.5,2,2.08,2.08,0,0,0,1.41.83,2.91,2.91,0,0,0,.85,0,2.8,2.8,0,0,0,.69-0.18,3.16,3.16,0,0,0,.56-0.3l0.46-.31,1,1.74a2.68,2.68,0,0,1-.74.52,5.23,5.23,0,0,1-1,.36,5.33,5.33,0,0,1-1.07.17,5,5,0,0,1-1.1,0,4.43,4.43,0,0,1-2.93-1.56,5.78,5.78,0,0,1-1-3.63v-2.5Z"/><path class="cls-4" d="M107.5,457.21l3.52,0.54v4.48h0.07a2.37,2.37,0,0,1,1.11-.72,3.56,3.56,0,0,1,1.64-.08,4.47,4.47,0,0,1,1.22.36,2.83,2.83,0,0,1,1,.72,3.28,3.28,0,0,1,.63,1.19,5.89,5.89,0,0,1,.23,1.74v5.44l-2.26-.34v-5a2.46,2.46,0,0,0-.45-1.61,1.85,1.85,0,0,0-1.18-.65,1.77,1.77,0,0,0-1.18.21,1.72,1.72,0,0,0-.77.89V470l-2.26-.35V459.33l-1.25-.19v-1.92Z"/><path class="cls-4" d="M121.77,470.45a1.09,1.09,0,0,1,.38-0.91,1.27,1.27,0,0,1,1-.21,1.71,1.71,0,0,1,1,.51,1.46,1.46,0,0,1,.38,1,1.12,1.12,0,0,1-.38.93,1.3,1.3,0,0,1-1,.22,1.63,1.63,0,0,1-1-.51A1.49,1.49,0,0,1,121.77,470.45Z"/><path class="cls-4" d="M129.64,472.74v-1.92l2.06,0.29v-4.9l-2.07-.29V464l2.07,0.29v-0.49a3,3,0,0,1,.29-1.38,2.33,2.33,0,0,1,.76-0.87,2.65,2.65,0,0,1,1.09-.42,4.34,4.34,0,0,1,1.28,0,8.71,8.71,0,0,1,2,.47,5.86,5.86,0,0,1,1.28.67l-0.66,1.64a9.2,9.2,0,0,0-.86-0.47,4.11,4.11,0,0,0-1.19-.32,1.52,1.52,0,0,0-1.32.25,1.7,1.7,0,0,0-.37,1.23l3.66,0.5V467l-3.66-.5v4.9l3.68,0.51v1.92Z"/><path class="cls-4" d="M140.44,466.08a8.6,8.6,0,0,1,1.61-.33,9,9,0,0,1,2.17.06,5.21,5.21,0,0,1,1.54.42,3.08,3.08,0,0,1,1,.76,2.79,2.79,0,0,1,.57,1,4.46,4.46,0,0,1,.17,1.28q0,0.89-.06,1.51t-0.06,1.11a7.62,7.62,0,0,0,0,.83c0,0.16,0,.33.05,0.48l1.13,0.15v1.92l-2.93-.38-0.23-1.22H145.4a2.49,2.49,0,0,1-1,.81,3.09,3.09,0,0,1-1.73.16,3.36,3.36,0,0,1-2.06-1,2.74,2.74,0,0,1-.76-2,2.57,2.57,0,0,1,.27-1.23,1.86,1.86,0,0,1,.78-0.77,3.28,3.28,0,0,1,1.23-.34,7.09,7.09,0,0,1,1.6,0c0.21,0,.43.07,0.66,0.12l0.85,0.18a1.7,1.7,0,0,0,0-.34v-0.33a1.27,1.27,0,0,0-.38-1,2.07,2.07,0,0,0-1.13-.44,5.07,5.07,0,0,0-1.59,0,9.23,9.23,0,0,0-1.19.3Zm3,6.82a1.94,1.94,0,0,0,1.24-.14,1.7,1.7,0,0,0,.6-0.58v-1l-0.52-.15a6.41,6.41,0,0,0-.74-0.14,3.57,3.57,0,0,0-.66,0,2,2,0,0,0-.59.12,1,1,0,0,0-.41.29,0.74,0.74,0,0,0-.15.49,1.13,1.13,0,0,0,.28.8A1.51,1.51,0,0,0,143.41,472.9Z"/><path class="cls-4" d="M158.88,475.77a4.37,4.37,0,0,1-1.68.61,7.14,7.14,0,0,1-2,0,6.17,6.17,0,0,1-2-.59,4.9,4.9,0,0,1-1.48-1.12,4.69,4.69,0,0,1-.92-1.58,5.8,5.8,0,0,1-.31-1.93,4.62,4.62,0,0,1,.37-1.91,3.45,3.45,0,0,1,1-1.32,3.77,3.77,0,0,1,1.55-.71,5.74,5.74,0,0,1,1.94-.06,7.65,7.65,0,0,1,1.83.46,9.62,9.62,0,0,1,1.31.6v3.08l-1.92-.24v-1.61a5.26,5.26,0,0,0-1.08-.26,3.17,3.17,0,0,0-1,0,2,2,0,0,0-1.47,1.1,2.49,2.49,0,0,0-.24,1.14,2.92,2.92,0,0,0,.73,1.95,2.94,2.94,0,0,0,.86.66,3.4,3.4,0,0,0,1.14.34,3.89,3.89,0,0,0,1.63-.08,5.72,5.72,0,0,0,1-.37Z"/><path class="cls-4" d="M161.85,470.14l-1.73-.21V468l1.73,0.21v-2l2.27-.37v2.64l4.58,0.54V471l-4.58-.54v2.5a3.3,3.3,0,0,0,.51,2,2,2,0,0,0,1.42.77,2.94,2.94,0,0,0,.86,0,2.9,2.9,0,0,0,.69-0.21,3.33,3.33,0,0,0,.56-0.32l0.46-.33,1,1.7a2.84,2.84,0,0,1-.74.55,5.54,5.54,0,0,1-2,.61,5,5,0,0,1-1.1,0,4.26,4.26,0,0,1-2.94-1.45,5.59,5.59,0,0,1-1-3.59v-2.5Z"/><path class="cls-4" d="M170.91,473.67a5.09,5.09,0,0,1,.33-1.92,3.43,3.43,0,0,1,.94-1.34,3.49,3.49,0,0,1,1.46-.73,5.37,5.37,0,0,1,1.9-.09,5.87,5.87,0,0,1,2,.55,4.75,4.75,0,0,1,1.46,1.1,4.54,4.54,0,0,1,.9,1.56,5.88,5.88,0,0,1,.31,1.92,5.11,5.11,0,0,1-.33,1.92,3.38,3.38,0,0,1-2.4,2.09,5.35,5.35,0,0,1-1.9.09,5.85,5.85,0,0,1-2-.56,4.73,4.73,0,0,1-1.46-1.1,4.57,4.57,0,0,1-.9-1.57A5.9,5.9,0,0,1,170.91,473.67Zm2.34,0.27a3.63,3.63,0,0,0,.16,1.09,3,3,0,0,0,.45.91,2.43,2.43,0,0,0,.72.65,2.39,2.39,0,0,0,1,.31,2,2,0,0,0,1.65-.46,2.57,2.57,0,0,0,.64-2,3.32,3.32,0,0,0-.6-2,2.32,2.32,0,0,0-1.7-.93,2.6,2.6,0,0,0-.91,0,1.54,1.54,0,0,0-.72.4,2,2,0,0,0-.48.79A3.6,3.6,0,0,0,173.26,473.94Z"/><path class="cls-4" d="M181.47,477.3l2.17,0.23v-4.9l-2.17-.24v-1.92l3.94,0.42,0.26,1.18h0.07a4,4,0,0,1,1.12-.84,2.6,2.6,0,0,1,1.47-.23A2.24,2.24,0,0,1,190,472a4.55,4.55,0,0,1,.6,2.64l-2-.21a1.88,1.88,0,0,0-.18-0.94,0.73,0.73,0,0,0-.59-0.35,1.6,1.6,0,0,0-1.13.23,3,3,0,0,0-.73.73v3.73l3.8,0.4v1.92l-8.24-.88V477.3Z"/><path class="cls-4" d="M192.32,478.45l3.08,0.31v-4.9l-3.08-.31v-1.92l5.35,0.54V479l3.24,0.32v1.92l-8.59-.86v-1.92Zm2.66-8.94a1.12,1.12,0,0,1,.4-0.89,1.43,1.43,0,0,1,1.12-.27,1.88,1.88,0,0,1,1.17.5,1.33,1.33,0,0,1,.44,1,1,1,0,0,1-.44.88,1.67,1.67,0,0,1-1.17.24,1.78,1.78,0,0,1-1.12-.47A1.3,1.3,0,0,1,195,469.51Z"/><path class="cls-4" d="M203.36,473.31a8.87,8.87,0,0,1,1.62-.39,9.07,9.07,0,0,1,2.18,0,5.09,5.09,0,0,1,1.55.36,2.93,2.93,0,0,1,1,.72,2.65,2.65,0,0,1,.57,1,4.38,4.38,0,0,1,.17,1.28q0,0.89-.06,1.52t-0.06,1.11a7.56,7.56,0,0,0,0,.83c0,0.16,0,.33.05,0.48l1.14,0.1v1.92l-2.94-.27-0.23-1.21h-0.09a2.64,2.64,0,0,1-1,.84,3.15,3.15,0,0,1-1.74.23,3.23,3.23,0,0,1-2.07-.9,2.88,2.88,0,0,1-.5-3.17,2,2,0,0,1,.78-0.8,3.4,3.4,0,0,1,1.23-.39,7.13,7.13,0,0,1,1.61,0c0.21,0,.43.05,0.66,0.1l0.85,0.15a1.71,1.71,0,0,0,0-.35v-0.33a1.23,1.23,0,0,0-.38-1,2,2,0,0,0-1.13-.39,5.13,5.13,0,0,0-1.6.08,9.57,9.57,0,0,0-1.2.34Zm3,6.7a2,2,0,0,0,1.25-.19,1.8,1.8,0,0,0,.61-0.6v-1l-0.52-.13a6.3,6.3,0,0,0-.74-0.11,3.63,3.63,0,0,0-.66,0,2,2,0,0,0-.59.14,1,1,0,0,0-.42.3,0.77,0.77,0,0,0-.16.49,1.09,1.09,0,0,0,.29.79A1.46,1.46,0,0,0,206.34,480Z"/><path class="cls-4" d="M213.82,470.18l3.73,0.33v8.08a3.93,3.93,0,0,0,.33,1.9,1.29,1.29,0,0,0,1.07.62,2.9,2.9,0,0,0,.89,0,3.17,3.17,0,0,0,.7-0.26l0.86,1.65-0.6.31a3.49,3.49,0,0,1-.63.23,4.05,4.05,0,0,1-.73.11,5.7,5.7,0,0,1-.88,0,3.6,3.6,0,0,1-2.47-1.05,3.52,3.52,0,0,1-.82-2.45v-7.35l-1.45-.13v-1.92Z"/><path class="cls-4" d="M230.77,487.57a8.74,8.74,0,0,1-2.38-1,7.83,7.83,0,0,1-2.05-1.72,8.25,8.25,0,0,1-1.43-2.5,9.46,9.46,0,0,1-.53-3.3,8.75,8.75,0,0,1,.53-3.2,6.84,6.84,0,0,1,1.43-2.29,6.33,6.33,0,0,1,2.05-1.43,8.13,8.13,0,0,1,2.38-.63l0.42,1.91a6.89,6.89,0,0,0-1.39.39,4.56,4.56,0,0,0-1.48,1,5.24,5.24,0,0,0-1.18,1.73,7.94,7.94,0,0,0,0,5.51,6.71,6.71,0,0,0,1.24,1.91,6.11,6.11,0,0,0,1.5,1.19,6.49,6.49,0,0,0,1.3.57Z"/><path class="cls-4" d="M237.66,482.7a3.52,3.52,0,0,0,1.06-.07,2.3,2.3,0,0,0,.82-0.36,1.8,1.8,0,0,0,.53-0.59,1.52,1.52,0,0,0,.19-0.76,1.67,1.67,0,0,0-.82-1.51,3.13,3.13,0,0,0-.93-0.37,7.68,7.68,0,0,0-1.17-.17l-1-.07v-1.26l2.95-3.37-4.43-.33v-1.92l7.15,0.53V474l-3.08,3.29,0.4,0a3.61,3.61,0,0,1,1.19.3,3.25,3.25,0,0,1,1,.7,3.44,3.44,0,0,1,.72,1.1,3.79,3.79,0,0,1,.27,1.47,3.41,3.41,0,0,1-.41,1.72,3.6,3.6,0,0,1-1.09,1.19,4.29,4.29,0,0,1-1.55.66,6.31,6.31,0,0,1-1.81.12,9.26,9.26,0,0,1-1.58-.26,8.15,8.15,0,0,1-1.52-.55l0.61-1.84a2.62,2.62,0,0,0,.43.21l0.61,0.22q0.34,0.11.7,0.19A5,5,0,0,0,237.66,482.7Z"/><path class="cls-4" d="M245.94,486.78a5.68,5.68,0,0,0,1.3-.37,5,5,0,0,0,1.5-1,5.47,5.47,0,0,0,1.24-1.73,6.22,6.22,0,0,0,.51-2.68,7.34,7.34,0,0,0-.48-2.83,6.43,6.43,0,0,0-1.18-1.91,5.62,5.62,0,0,0-1.48-1.17,7.92,7.92,0,0,0-1.39-.59l0.42-1.84a9.32,9.32,0,0,1,2.38,1,7.83,7.83,0,0,1,2.05,1.73,8.28,8.28,0,0,1,1.43,2.5,9.4,9.4,0,0,1,.54,3.28,8.81,8.81,0,0,1-.54,3.22,6.79,6.79,0,0,1-1.43,2.29,6.34,6.34,0,0,1-2.05,1.42,7.69,7.69,0,0,1-2.38.61Z"/><path class="cls-4" d="M379.17,482.3l0.09-1.91h-0.11l-2,3.22h-0.42l-2.06-3.18h-0.09l0.1,1.71v6.72l-2.28,0V476.64l2.44,0L377,480h0.07l2.09-3.42,2.42,0v12.25l-2.41,0V482.3Z"/><path class="cls-4" d="M383.86,480.61a9.73,9.73,0,0,1,1.62-.57,9.34,9.34,0,0,1,2.19-.26,4.83,4.83,0,0,1,1.55.19,2.54,2.54,0,0,1,1,.6,2.32,2.32,0,0,1,.57,1,4.18,4.18,0,0,1,.18,1.26c0,0.59,0,1.1-.06,1.52s-0.06.79-.06,1.12a7.56,7.56,0,0,0,0,.82c0,0.16,0,.32.05,0.47l1.14,0v1.92l-2.95.05-0.23-1.19h-0.09a3.1,3.1,0,0,1-1,1,3.36,3.36,0,0,1-1.74.42,2.92,2.92,0,0,1-2.08-.67,2.35,2.35,0,0,1-.77-1.84,2.8,2.8,0,0,1,.27-1.27,2.31,2.31,0,0,1,.79-0.89,3.8,3.8,0,0,1,1.24-.53,7.32,7.32,0,0,1,1.61-.19q0.31,0,.66,0l0.85,0.05a1.76,1.76,0,0,0,0-.35v-0.33a1.1,1.1,0,0,0-.38-0.95,1.85,1.85,0,0,0-1.13-.27,5.34,5.34,0,0,0-1.6.25,10.67,10.67,0,0,0-1.2.47Zm3,6.38a1.94,1.94,0,0,0,1.86-1v-1l-0.52-.07a6.06,6.06,0,0,0-.75,0,3.71,3.71,0,0,0-.66.07,2.22,2.22,0,0,0-.59.2,1.19,1.19,0,0,0-.42.35,0.84,0.84,0,0,0-.16.51,1,1,0,0,0,.29.76A1.33,1.33,0,0,0,386.85,487Z"/><path class="cls-4" d="M394.86,481.74l-1.74,0v-1.92l1.74,0v-2l2.28-.7v2.64l4.6-.11v1.92l-4.6.11v2.5a3,3,0,0,0,.51,1.94,1.72,1.72,0,0,0,1.42.57,3.07,3.07,0,0,0,.86-0.13,3.36,3.36,0,0,0,.69-0.31,4.08,4.08,0,0,0,.56-0.4l0.47-.4,1.05,1.55a3.49,3.49,0,0,1-.75.66,6.45,6.45,0,0,1-1,.53,6.15,6.15,0,0,1-1.08.37,5.2,5.2,0,0,1-1.11.15,3.71,3.71,0,0,1-3-1,5,5,0,0,1-1-3.45v-2.5Z"/><path class="cls-4" d="M403.36,476.11l3.55-.1v4.48H407a3.07,3.07,0,0,1,1.12-.93,3.91,3.91,0,0,1,1.65-.38,4.09,4.09,0,0,1,1.23.14,2.24,2.24,0,0,1,1,.55,2.6,2.6,0,0,1,.63,1.07,5.44,5.44,0,0,1,.23,1.7v5.44l-2.28.07v-5a2.11,2.11,0,0,0-.46-1.53,1.54,1.54,0,0,0-1.19-.44,2,2,0,0,0-1.19.43,2.23,2.23,0,0,0-.77,1v5.58l-2.28.06V478l-1.26,0v-1.92Z"/><path class="cls-4" d="M417.74,486.77a1.3,1.3,0,0,1,.39-1,1.48,1.48,0,0,1,1-.4,1.44,1.44,0,0,1,1.05.32,1.22,1.22,0,0,1,.39,1,1.34,1.34,0,0,1-.39,1,1.51,1.51,0,0,1-1.05.41,1.37,1.37,0,0,1-1-.33A1.25,1.25,0,0,1,417.74,486.77Z"/><path class="cls-4" d="M425.67,487.62V485.7l2.07-.08v-4.9l-2.09.08v-1.92l2.09-.08V478.3a3.27,3.27,0,0,1,.29-1.43,3,3,0,0,1,.76-1,3.29,3.29,0,0,1,1.1-.61,4.62,4.62,0,0,1,1.29-.24,8.15,8.15,0,0,1,2,.11,4.86,4.86,0,0,1,1.29.44l-0.67,1.76a7.57,7.57,0,0,0-.87-0.31,3.79,3.79,0,0,0-1.2-.1,1.77,1.77,0,0,0-1.33.49,2,2,0,0,0-.38,1.3l3.69-.16v1.92l-3.69.16v4.9l3.7-.16v1.92Z"/><path class="cls-4" d="M436.54,479a10,10,0,0,1,1.62-.62,9.45,9.45,0,0,1,2.18-.33,4.78,4.78,0,0,1,1.55.14,2.44,2.44,0,0,1,1,.57,2.22,2.22,0,0,1,.57.93,4.13,4.13,0,0,1,.18,1.25q0,0.89-.06,1.53t-0.06,1.12a7.53,7.53,0,0,0,0,.82c0,0.16,0,.32.05,0.47l1.14-.06v1.92l-2.95.15-0.23-1.18h-0.09a3.25,3.25,0,0,1-1,1,3.44,3.44,0,0,1-1.74.48,2.84,2.84,0,0,1-2.08-.6,2.28,2.28,0,0,1-.77-1.82,2.85,2.85,0,0,1,.27-1.28,2.42,2.42,0,0,1,.79-0.91,3.94,3.94,0,0,1,1.24-.57,7.4,7.4,0,0,1,1.61-.24q0.31,0,.66,0l0.85,0a1.79,1.79,0,0,0,0-.35v-0.33a1.06,1.06,0,0,0-.38-0.94,1.81,1.81,0,0,0-1.13-.23,5.42,5.42,0,0,0-1.6.3,11.06,11.06,0,0,0-1.2.51Zm3,6.28a2.18,2.18,0,0,0,1.25-.37,2.22,2.22,0,0,0,.61-0.69v-1l-0.52-.05a6.14,6.14,0,0,0-.75,0,3.76,3.76,0,0,0-.66.09,2.29,2.29,0,0,0-.59.22,1.24,1.24,0,0,0-.42.36,0.86,0.86,0,0,0-.16.52,1,1,0,0,0,.29.75A1.3,1.3,0,0,0,439.52,485.28Z"/><path class="cls-4" d="M455.07,485.35a5.38,5.38,0,0,1-1.68.91,7.59,7.59,0,0,1-2,.38,5.6,5.6,0,0,1-2-.22,3.84,3.84,0,0,1-1.49-.86,3.69,3.69,0,0,1-.92-1.41,5.29,5.29,0,0,1-.32-1.87,5.06,5.06,0,0,1,.37-2,4.45,4.45,0,0,1,1-1.51,4.75,4.75,0,0,1,1.55-1,6.19,6.19,0,0,1,1.95-.41,7.1,7.1,0,0,1,1.84.12,8.2,8.2,0,0,1,1.32.36V481l-1.93.11v-1.61a4.92,4.92,0,0,0-1.09-.06,3.39,3.39,0,0,0-1,.2,2.56,2.56,0,0,0-.86.52,2.67,2.67,0,0,0-.61.85,2.76,2.76,0,0,0-.24,1.19,2.63,2.63,0,0,0,.19,1,2.23,2.23,0,0,0,1.41,1.3,3.07,3.07,0,0,0,1.15.14,4.23,4.23,0,0,0,1.64-.37,7.13,7.13,0,0,0,1-.54Z"/><path class="cls-4" d="M458.05,479.19l-1.74.1v-1.92l1.74-.1v-2l2.28-.79v2.64l4.6-.29v1.92l-4.6.29v2.5a2.88,2.88,0,0,0,.51,1.92,1.65,1.65,0,0,0,1.42.52,3.13,3.13,0,0,0,.86-0.17,3.5,3.5,0,0,0,.69-0.33,4.3,4.3,0,0,0,.56-0.42l0.46-.42,1.05,1.51a3.69,3.69,0,0,1-.75.69,6.77,6.77,0,0,1-1,.57,6.37,6.37,0,0,1-1.08.41A5.27,5.27,0,0,1,462,486a3.58,3.58,0,0,1-3-.91,4.84,4.84,0,0,1-1-3.41v-2.5Z"/><path class="cls-4" d="M467.15,481.07a5.56,5.56,0,0,1,.33-2,4.38,4.38,0,0,1,.95-1.51,4.43,4.43,0,0,1,1.46-1,5.82,5.82,0,0,1,1.9-.44,5.35,5.35,0,0,1,2,.2,3.72,3.72,0,0,1,1.46.83,3.58,3.58,0,0,1,.9,1.4,5.39,5.39,0,0,1,.31,1.87,5.57,5.57,0,0,1-.33,2,4.35,4.35,0,0,1-2.41,2.52,5.78,5.78,0,0,1-1.9.44,5.32,5.32,0,0,1-2-.2,3.72,3.72,0,0,1-1.46-.84,3.59,3.59,0,0,1-.9-1.4A5.4,5.4,0,0,1,467.15,481.07Zm2.35-.15a3.37,3.37,0,0,0,.16,1.06,2.4,2.4,0,0,0,.46.83,1.88,1.88,0,0,0,.72.52,2.13,2.13,0,0,0,1,.14,2.39,2.39,0,0,0,1.66-.76,3,3,0,0,0,.64-2.09,2.86,2.86,0,0,0-.6-1.91,1.92,1.92,0,0,0-1.7-.63,2.82,2.82,0,0,0-.91.21,2,2,0,0,0-.73.53,2.57,2.57,0,0,0-.48.87A3.88,3.88,0,0,0,469.5,480.91Z"/><path class="cls-4" d="M477.74,482.79l2.17-.16v-4.9l-2.17.16V476l3.94-.29,0.26,1.14H482a5.18,5.18,0,0,1,1.12-1,3,3,0,0,1,1.47-.5,1.85,1.85,0,0,1,1.66.64,4,4,0,0,1,.6,2.53l-2,.16a1.68,1.68,0,0,0-.18-0.9,0.6,0.6,0,0,0-.59-0.24,1.86,1.86,0,0,0-1.13.44,3.92,3.92,0,0,0-.73.86v3.73l3.8-.29v1.92l-8.26.61v-1.92Z"/><path class="cls-4" d="M488.61,482l3.08-.24v-4.9l-3.08.24v-1.92l5.36-.43c0,2.73,0,4.1,0,6.83l3.24-.27v1.92l-8.6.7V482Zm2.66-9.42a1.34,1.34,0,0,1,.4-1,1.69,1.69,0,0,1,1.12-.48,1.61,1.61,0,0,1,1.17.29,1.09,1.09,0,0,1,.44.89,1.24,1.24,0,0,1-.44,1,1.93,1.93,0,0,1-1.17.45,1.53,1.53,0,0,1-1.12-.27A1.08,1.08,0,0,1,491.28,472.56Z"/><path class="cls-4" d="M499.67,474.85a10.41,10.41,0,0,1,1.62-.68,9.6,9.6,0,0,1,2.18-.42,4.71,4.71,0,0,1,1.55.08,2.32,2.32,0,0,1,1,.53,2.11,2.11,0,0,1,.57.91,4.07,4.07,0,0,1,.18,1.24q0,0.89-.06,1.53t-0.06,1.13a7.59,7.59,0,0,0,0,.82c0,0.16,0,.32.05,0.47l1.14-.1v1.92l-2.94.26-0.23-1.17h-0.09a3.44,3.44,0,0,1-1,1,3.54,3.54,0,0,1-1.74.54,2.75,2.75,0,0,1-2.07-.52,2.19,2.19,0,0,1-.77-1.79,2.92,2.92,0,0,1,.27-1.29,2.56,2.56,0,0,1,.78-0.94,4.11,4.11,0,0,1,1.24-.61,7.52,7.52,0,0,1,1.61-.31,6.62,6.62,0,0,1,.66,0h0.85a1.81,1.81,0,0,0,0-.35v-0.33a1,1,0,0,0-.38-0.92,1.76,1.76,0,0,0-1.13-.19,5.53,5.53,0,0,0-1.6.37,11.5,11.5,0,0,0-1.2.56Zm3,6.17a2.25,2.25,0,0,0,1.25-.42,2.35,2.35,0,0,0,.61-0.71v-1l-0.52,0a6.13,6.13,0,0,0-.74,0,3.8,3.8,0,0,0-.66.12,2.37,2.37,0,0,0-.59.24,1.32,1.32,0,0,0-.42.38,0.89,0.89,0,0,0-.16.52,0.92,0.92,0,0,0,.29.74A1.26,1.26,0,0,0,502.65,481Z"/><path class="cls-4" d="M510.12,469.83l3.73-.35c0,3.23,0,4.85,0,8.08a3.56,3.56,0,0,0,.33,1.84,1.06,1.06,0,0,0,1.07.42,3.09,3.09,0,0,0,.89-0.2,3.85,3.85,0,0,0,.7-0.39l0.86,1.49-0.59.42a4.26,4.26,0,0,1-.63.34,4.59,4.59,0,0,1-.73.24,5.91,5.91,0,0,1-.88.15,3.07,3.07,0,0,1-2.47-.61,3,3,0,0,1-.82-2.3c0-2.94,0-4.41,0-7.35l-1.45.13v-1.92Z"/><path class="cls-4" d="M520.47,483.14l7.77-.78c0,0.75,0,1.12,0,1.87l-7.77.78v-1.87Z"/><path class="cls-4" d="M529.61,467.93l3.53-.37c0,1.79,0,2.69,0,4.48h0.07a3.43,3.43,0,0,1,1.12-1,4.11,4.11,0,0,1,1.64-.51,4,4,0,0,1,1.22,0,2,2,0,0,1,1,.47,2.36,2.36,0,0,1,.63,1,5.28,5.28,0,0,1,.23,1.68v5.44l-2.27.25c0-2,0-3,0-5a2,2,0,0,0-.45-1.49,1.43,1.43,0,0,0-1.19-.35,2.2,2.2,0,0,0-1.19.52,2.48,2.48,0,0,0-.77,1.09v5.58l-2.27.24c0-4.13,0-6.2,0-10.33l-1.26.13v-1.92Z"/><path class="cls-4" d="M549.44,477.07a3.59,3.59,0,0,1-.59.48,6.47,6.47,0,0,1-.84.47,7.23,7.23,0,0,1-2.28.65,5.72,5.72,0,0,1-2-.09,3.35,3.35,0,0,1-2.43-2.1,5.12,5.12,0,0,1-.32-1.9,5.46,5.46,0,0,1,.37-2.06,4.7,4.7,0,0,1,1-1.56,4.88,4.88,0,0,1,1.49-1,6.2,6.2,0,0,1,1.85-.5,5.62,5.62,0,0,1,1.37,0,3.33,3.33,0,0,1,1.3.46,2.73,2.73,0,0,1,1,1,3.64,3.64,0,0,1,.38,1.78,8.69,8.69,0,0,1-.17,1.65l-6.29.72a1.85,1.85,0,0,0,.24.92,1.59,1.59,0,0,0,.58.57,2.22,2.22,0,0,0,.82.27,4,4,0,0,0,1,0,5.42,5.42,0,0,0,1.72-.44,4.23,4.23,0,0,0,1.09-.72Zm-3.77-5.81a3.09,3.09,0,0,0-.86.22,2.77,2.77,0,0,0-.72.45,2.36,2.36,0,0,0-.53.66,2,2,0,0,0-.24.83l4.3-.49A1.53,1.53,0,0,0,545.66,471.26Z"/><path class="cls-4" d="M552.11,465.44l3.72-.44c0,3.23,0,4.85,0,8.08a3.51,3.51,0,0,0,.33,1.83,1,1,0,0,0,1.07.4,3.13,3.13,0,0,0,.89-0.22,4,4,0,0,0,.7-0.41l0.86,1.47-0.59.43a4.4,4.4,0,0,1-.63.36,4.68,4.68,0,0,1-.73.26,6,6,0,0,1-.88.17,3,3,0,0,1-2.46-.55,2.93,2.93,0,0,1-.82-2.28c0-2.94,0-4.41,0-7.35l-1.45.17C552.11,466.59,552.11,466.21,552.11,465.44Z"/><path class="cls-4" d="M561.07,467.86l3-.37,0.26,1h0.07a3.84,3.84,0,0,1,2.93-1.66,4,4,0,0,1,1.48.07,2.43,2.43,0,0,1,1.15.65,3.18,3.18,0,0,1,.74,1.27,6.24,6.24,0,0,1,.26,1.94,6.81,6.81,0,0,1-.3,2.06,5.05,5.05,0,0,1-.86,1.64,4.38,4.38,0,0,1-1.36,1.14,5.18,5.18,0,0,1-1.83.57,7.05,7.05,0,0,1-1.07.06,2.67,2.67,0,0,1-.87-0.14c0,1.44,0,2.15,0,3.59l-2.27.28c0-4.13,0-6.2,0-10.33l-1.31.16v-1.92Zm5.55,1a2.58,2.58,0,0,0-1.21.49,2,2,0,0,0-.76,1.09c0,1.46,0,2.18,0,3.64a1.65,1.65,0,0,0,.71.22,3.8,3.8,0,0,0,.93,0,2.65,2.65,0,0,0,.91-0.28,2.22,2.22,0,0,0,.73-0.63,3,3,0,0,0,.49-1,4.79,4.79,0,0,0,.18-1.37,2.34,2.34,0,0,0-.56-1.71A1.61,1.61,0,0,0,566.63,468.85Z"/><path class="cls-4" d="M580.87,473.13a3.68,3.68,0,0,1-.58.49,6.63,6.63,0,0,1-.84.49,7.33,7.33,0,0,1-2.28.69,5.69,5.69,0,0,1-2-.05,3.26,3.26,0,0,1-2.43-2.05,5.08,5.08,0,0,1-.32-1.89,5.52,5.52,0,0,1,.37-2.07,4.82,4.82,0,0,1,1-1.57,5,5,0,0,1,1.49-1.06,6.27,6.27,0,0,1,1.85-.53,5.6,5.6,0,0,1,1.37,0,3.26,3.26,0,0,1,1.3.43,2.65,2.65,0,0,1,1,1,3.61,3.61,0,0,1,.37,1.77,8.76,8.76,0,0,1-.17,1.65l-6.28.84a1.83,1.83,0,0,0,.24.91,1.54,1.54,0,0,0,.58.55,2.18,2.18,0,0,0,.82.25,4,4,0,0,0,1,0,5.49,5.49,0,0,0,1.72-.47,4.34,4.34,0,0,0,1.09-.74Zm-3.77-5.74a3.12,3.12,0,0,0-.86.24,2.84,2.84,0,0,0-.72.46,2.42,2.42,0,0,0-.53.67,2.06,2.06,0,0,0-.24.83L579,469a1.71,1.71,0,0,0-.48-1.32A1.73,1.73,0,0,0,577.1,467.39Z"/><path class="cls-4" d="M582.7,471.88l2.16-.3v-4.9l-2.16.3v-1.92l3.92-.54,0.26,1.12H587a5.68,5.68,0,0,1,1.12-1.12,3.11,3.11,0,0,1,1.47-.59,1.73,1.73,0,0,1,1.65.54,3.85,3.85,0,0,1,.6,2.49l-2,.29a1.62,1.62,0,0,0-.18-0.89,0.56,0.56,0,0,0-.58-0.21,2,2,0,0,0-1.12.51,4.3,4.3,0,0,0-.72.91c0,1.49,0,2.24,0,3.73l3.78-.53c0,0.77,0,1.15,0,1.92l-8.21,1.14v-1.92Z"/><path class="cls-4" d="M600.41,475a7.24,7.24,0,0,1-2.37-.42,5.67,5.67,0,0,1-2-1.26,6.13,6.13,0,0,1-1.42-2.17,8.53,8.53,0,0,1-.53-3.18,9.81,9.81,0,0,1,.53-3.32A9.17,9.17,0,0,1,596,462a8.75,8.75,0,0,1,2-1.89,10.07,10.07,0,0,1,2.37-1.17l0.42,1.81a8.55,8.55,0,0,0-1.39.7,6.24,6.24,0,0,0-1.47,1.28,7.12,7.12,0,0,0-1.18,2,7.67,7.67,0,0,0-.48,2.87,6,6,0,0,0,.51,2.64,4.89,4.89,0,0,0,1.23,1.63,4.46,4.46,0,0,0,1.49.85,5.28,5.28,0,0,0,1.29.27Z"/><path class="cls-4" d="M604.79,468.71l2.66-.4c0-3.06,0-4.59,0-7.65l-2.3,2.12-1-1.24,4-3.65,1.53-.23c0,4.13,0,6.2,0,10.33l2.61-.4v1.92l-7.44,1.14v-1.92Z"/><path class="cls-4" d="M617.18,467.61a1.41,1.41,0,0,1,.39-1,1.68,1.68,0,0,1,1-.51,1.49,1.49,0,0,1,1.44.4,2.16,2.16,0,0,1,.49,1.48,3.66,3.66,0,0,1-.3,1.48,4.7,4.7,0,0,1-.79,1.25,5.35,5.35,0,0,1-1.09.94,5.24,5.24,0,0,1-1.19.59l-0.47-.89a5.93,5.93,0,0,0,.84-0.43,4.28,4.28,0,0,0,.78-0.6,3.4,3.4,0,0,0,.58-0.77,2.14,2.14,0,0,0,.27-0.88,2.3,2.3,0,0,1-.89.17,1.15,1.15,0,0,1-.6-0.19,0.92,0.92,0,0,1-.34-0.44A1.67,1.67,0,0,1,617.18,467.61Z"/><path class="cls-4" d="M628.14,465.28a3.93,3.93,0,0,0,1.05-.32,3.07,3.07,0,0,0,.82-0.55,2.54,2.54,0,0,0,.53-0.72,1.81,1.81,0,0,0,.19-0.81,1.48,1.48,0,0,0-.22-0.84,1.23,1.23,0,0,0-.6-0.47,2.58,2.58,0,0,0-.92-0.14,7.42,7.42,0,0,0-1.16.11l-1,.16v-1.26l2.92-4.07-4.4.72c0-.77,0-1.15,0-1.92l7.09-1.17c0,0.64,0,1,0,1.59l-3.06,4,0.4-.07a3.25,3.25,0,0,1,1.18,0,2.38,2.38,0,0,1,1,.46,2.45,2.45,0,0,1,.71.93,3.35,3.35,0,0,1,.27,1.41,4,4,0,0,1-.41,1.82,5.09,5.09,0,0,1-1.08,1.45,5.7,5.7,0,0,1-1.54,1,7,7,0,0,1-1.79.55,8.8,8.8,0,0,1-1.57.12,6.8,6.8,0,0,1-1.51-.19l0.61-2a2.06,2.06,0,0,0,.43.11l0.61,0.08a6.46,6.46,0,0,0,.69,0A4.83,4.83,0,0,0,628.14,465.28Z"/><path class="cls-4" d="M636.35,467.38a7.11,7.11,0,0,0,1.29-.68,7,7,0,0,0,1.49-1.32,7.61,7.61,0,0,0,1.22-2,7.15,7.15,0,0,0,.5-2.8,6.55,6.55,0,0,0-.48-2.72,4.62,4.62,0,0,0-1.17-1.63,4,4,0,0,0-1.47-.82,6.39,6.39,0,0,0-1.38-.26l0.42-1.94a7.57,7.57,0,0,1,2.36.42,5.55,5.55,0,0,1,2,1.24,6,6,0,0,1,1.42,2.16,8.44,8.44,0,0,1,.53,3.15,10,10,0,0,1-.53,3.35,9.27,9.27,0,0,1-1.42,2.63,8.9,8.9,0,0,1-2,1.91,9.57,9.57,0,0,1-2.36,1.17Z"/><path class="cls-4" d="M76.25,408l0.09-1.89-0.1,0-1.93,2.87-0.41-.07-2-3.55-0.09,0,0.1,1.73v6.72l-2.24-.39V401.1L72,401.52l2.07,3.75h0.07l2-3,2.38,0.41V414.9l-2.36-.4V408Z"/><path class="cls-4" d="M80.85,407.13a8.25,8.25,0,0,1,1.59-.27,8.84,8.84,0,0,1,2.15.13,5.23,5.23,0,0,1,1.53.47,3.18,3.18,0,0,1,1,.79,2.91,2.91,0,0,1,.56,1.06,4.57,4.57,0,0,1,.17,1.29q0,0.89-.06,1.51t-0.06,1.11a7.73,7.73,0,0,0,0,.83c0,0.16,0,.33.05,0.48L89,414.71c0,0.77,0,1.15,0,1.92l-2.89-.48-0.23-1.23H85.75a2.35,2.35,0,0,1-1,.77,3,3,0,0,1-1.71.11,3.43,3.43,0,0,1-2-1,2.84,2.84,0,0,1-.75-2,2.54,2.54,0,0,1,.27-1.22,1.76,1.76,0,0,1,.77-0.74,3.13,3.13,0,0,1,1.22-.3,6.92,6.92,0,0,1,1.59.1q0.31,0.05.65,0.14l0.84,0.21a1.7,1.7,0,0,0,0-.34v-0.33a1.32,1.32,0,0,0-.38-1,2.1,2.1,0,0,0-1.11-.47,5,5,0,0,0-1.57,0,8.81,8.81,0,0,0-1.18.26ZM83.78,414a1.87,1.87,0,0,0,1.23-.1,1.6,1.6,0,0,0,.6-0.56v-1l-0.51-.16a6.37,6.37,0,0,0-.73-0.17,3.5,3.5,0,0,0-.65,0,1.87,1.87,0,0,0-.58.1,0.9,0.9,0,0,0-.41.27,0.72,0.72,0,0,0-.15.48,1.18,1.18,0,0,0,.28.81A1.54,1.54,0,0,0,83.78,414Z"/><path class="cls-4" d="M91.64,410.24L89.94,410V408l1.71,0.28c0-.8,0-1.2,0-2l2.24-.28c0,1.06,0,1.59,0,2.64l4.52,0.72v1.92l-4.52-.72v2.5a3.42,3.42,0,0,0,.5,2,2.06,2.06,0,0,0,1.4.83,2.87,2.87,0,0,0,.85,0,2.75,2.75,0,0,0,.68-0.18,3.09,3.09,0,0,0,.55-0.3l0.46-.31,1,1.74a2.66,2.66,0,0,1-.73.52,5.11,5.11,0,0,1-.95.36,5.28,5.28,0,0,1-1.06.17,4.93,4.93,0,0,1-1.09-.05,4.39,4.39,0,0,1-2.91-1.56,5.82,5.82,0,0,1-1-3.63v-2.5Z"/><path class="cls-4" d="M100,406.15l3.49,0.54c0,1.79,0,2.69,0,4.48h0.07a2.35,2.35,0,0,1,1.11-.72,3.5,3.5,0,0,1,1.62-.08,4.41,4.41,0,0,1,1.21.36,2.82,2.82,0,0,1,1,.72,3.3,3.3,0,0,1,.62,1.19,5.94,5.94,0,0,1,.22,1.74c0,2.18,0,3.27,0,5.44l-2.25-.34c0-2,0-3,0-5a2.47,2.47,0,0,0-.45-1.61,1.83,1.83,0,0,0-1.17-.65,1.74,1.74,0,0,0-1.17.21,1.71,1.71,0,0,0-.76.89c0,2.23,0,3.35,0,5.58l-2.24-.35c0-4.13,0-6.2,0-10.33l-1.24-.19v-1.92Z"/><path class="cls-4" d="M114.14,419.41a1.1,1.1,0,0,1,.38-0.91,1.25,1.25,0,0,1,1-.21,1.69,1.69,0,0,1,1,.51,1.46,1.46,0,0,1,.38,1,1.12,1.12,0,0,1-.38.92,1.27,1.27,0,0,1-1,.21,1.61,1.61,0,0,1-1-.52A1.5,1.5,0,0,1,114.14,419.41Z"/><path class="cls-4" d="M121.95,421.7c0-.77,0-1.15,0-1.92l2,0.29v-4.9l-2.06-.29c0-.77,0-1.15,0-1.92l2.06,0.29v-0.49a3,3,0,0,1,.28-1.38,2.32,2.32,0,0,1,.75-0.87,2.61,2.61,0,0,1,1.08-.42,4.27,4.27,0,0,1,1.27,0,8.6,8.6,0,0,1,2,.48,5.81,5.81,0,0,1,1.27.67L130,412.88a9.12,9.12,0,0,0-.86-0.47,4.05,4.05,0,0,0-1.18-.32,1.5,1.5,0,0,0-1.31.25,1.71,1.71,0,0,0-.37,1.23l3.63,0.51c0,0.77,0,1.15,0,1.92l-3.63-.51v4.9l3.65,0.51c0,0.77,0,1.15,0,1.92Z"/><path class="cls-4" d="M132.65,415.05a8.44,8.44,0,0,1,1.6-.32,8.87,8.87,0,0,1,2.15.06,5.13,5.13,0,0,1,1.53.42,3.06,3.06,0,0,1,1,.76,2.8,2.8,0,0,1,.56,1,4.51,4.51,0,0,1,.17,1.28q0,0.89-.06,1.51t-0.06,1.11a7.7,7.7,0,0,0,0,.83c0,0.16,0,.33.05,0.48l1.12,0.15v1.92l-2.9-.39-0.23-1.22h-0.09a2.46,2.46,0,0,1-1,.8,3,3,0,0,1-1.72.16,3.32,3.32,0,0,1-2-1,2.75,2.75,0,0,1-.76-2,2.58,2.58,0,0,1,.27-1.23,1.85,1.85,0,0,1,.77-0.77,3.22,3.22,0,0,1,1.22-.34,7,7,0,0,1,1.59,0q0.31,0,.65.12l0.84,0.18a1.79,1.79,0,0,0,0-.35V418a1.28,1.28,0,0,0-.38-1,2.05,2.05,0,0,0-1.12-.44,5,5,0,0,0-1.58,0,9.1,9.1,0,0,0-1.18.29Zm2.94,6.82a1.9,1.9,0,0,0,1.23-.14,1.68,1.68,0,0,0,.6-0.58v-1l-0.51-.15a6.22,6.22,0,0,0-.74-0.14,3.5,3.5,0,0,0-.65,0,1.94,1.94,0,0,0-.58.11,1,1,0,0,0-.41.28,0.75,0.75,0,0,0-.15.49,1.14,1.14,0,0,0,.28.8A1.5,1.5,0,0,0,135.59,421.87Z"/><path class="cls-4" d="M150.92,424.77a4.3,4.3,0,0,1-1.66.6,7,7,0,0,1-2,0,6.09,6.09,0,0,1-2-.59,4.87,4.87,0,0,1-1.47-1.13,4.71,4.71,0,0,1-.91-1.58,5.85,5.85,0,0,1-.31-1.93,4.64,4.64,0,0,1,.36-1.91,3.43,3.43,0,0,1,1-1.32,3.71,3.71,0,0,1,1.53-.7,5.63,5.63,0,0,1,1.92-.06,7.54,7.54,0,0,1,1.82.46,9.51,9.51,0,0,1,1.3.6c0,1.23,0,1.85,0,3.08l-1.9-.24v-1.61a5.2,5.2,0,0,0-1.07-.26,3.12,3.12,0,0,0-1,0,2,2,0,0,0-.85.36,2.05,2.05,0,0,0-.61.74,2.51,2.51,0,0,0-.23,1.14,2.89,2.89,0,0,0,1.58,2.61,3.35,3.35,0,0,0,1.13.35,3.83,3.83,0,0,0,1.62-.07,5.61,5.61,0,0,0,.94-0.37Z"/><path class="cls-4" d="M153.87,419.15l-1.71-.21c0-.77,0-1.15,0-1.92l1.71,0.21c0-.8,0-1.2,0-2l2.25-.37c0,1.06,0,1.59,0,2.64l4.54,0.55c0,0.77,0,1.15,0,1.92l-4.54-.55v2.5a3.33,3.33,0,0,0,.5,2,2,2,0,0,0,1.4.77,2.79,2.79,0,0,0,1.53-.22,3.34,3.34,0,0,0,.55-0.32l0.46-.33,1,1.7a2.8,2.8,0,0,1-.74.55,5.45,5.45,0,0,1-2,.61,4.93,4.93,0,0,1-1.09,0,4.22,4.22,0,0,1-2.92-1.45,5.64,5.64,0,0,1-1-3.59C153.87,420.65,153.87,420.15,153.87,419.15Z"/><path class="cls-4" d="M162.86,422.69a5.13,5.13,0,0,1,.33-1.92,3.33,3.33,0,0,1,2.38-2.07,5.28,5.28,0,0,1,1.88-.09,5.8,5.8,0,0,1,1.95.56,4.71,4.71,0,0,1,1.45,1.1,4.56,4.56,0,0,1,.89,1.56,5.94,5.94,0,0,1,.3,1.92,5.14,5.14,0,0,1-.33,1.92,3.35,3.35,0,0,1-2.38,2.08,5.25,5.25,0,0,1-1.88.09,5.77,5.77,0,0,1-1.95-.56,4.7,4.7,0,0,1-1.45-1.11,4.59,4.59,0,0,1-.89-1.57A6,6,0,0,1,162.86,422.69Zm2.32,0.27a3.67,3.67,0,0,0,.16,1.09,3,3,0,0,0,.45.91,2.43,2.43,0,0,0,.71.65,2.36,2.36,0,0,0,1,.31,2,2,0,0,0,1.64-.46,2.58,2.58,0,0,0,.63-2,3.35,3.35,0,0,0-.59-2,2.3,2.3,0,0,0-1.68-.94,2.56,2.56,0,0,0-.9,0,1.52,1.52,0,0,0-.72.4,2,2,0,0,0-.48.79A3.62,3.62,0,0,0,165.18,423Z"/><path class="cls-4" d="M173.33,426.35l2.15,0.24v-4.9l-2.15-.24c0-.77,0-1.15,0-1.92l3.9,0.43,0.26,1.18h0.07a3.9,3.9,0,0,1,1.11-.84,2.55,2.55,0,0,1,1.46-.23,2.22,2.22,0,0,1,1.64.95,4.58,4.58,0,0,1,.6,2.64l-2-.22a1.89,1.89,0,0,0-.18-0.94,0.72,0.72,0,0,0-.58-0.35,1.58,1.58,0,0,0-1.12.23,3,3,0,0,0-.72.73c0,1.49,0,2.24,0,3.73l3.76,0.41c0,0.77,0,1.15,0,1.92l-8.17-.9C173.33,427.5,173.33,427.12,173.33,426.35Z"/><path class="cls-4" d="M184.08,427.52l3.05,0.32c0-2,0-2.94,0-4.9l-3.05-.32c0-.77,0-1.15,0-1.92l5.31,0.55c0,2.73,0,4.1,0,6.83l3.21,0.33c0,0.77,0,1.15,0,1.92l-8.52-.88C184.08,428.67,184.08,428.29,184.08,427.52Zm2.64-8.93a1.12,1.12,0,0,1,.4-0.89,1.41,1.41,0,0,1,1.11-.27,1.86,1.86,0,0,1,1.16.5,1.33,1.33,0,0,1,.43,1,1,1,0,0,1-.43.87,1.64,1.64,0,0,1-1.16.24,1.77,1.77,0,0,1-1.11-.47A1.31,1.31,0,0,1,186.71,418.59Z"/><path class="cls-4" d="M195,422.41a8.71,8.71,0,0,1,1.61-.38,8.91,8.91,0,0,1,2.16,0,5,5,0,0,1,1.54.37,2.91,2.91,0,0,1,1,.72,2.67,2.67,0,0,1,.56,1,4.42,4.42,0,0,1,.17,1.28c0,0.59,0,1.1-.06,1.52s-0.06.79-.06,1.11a7.62,7.62,0,0,0,0,.83c0,0.16,0,.33.05,0.48l1.13,0.11c0,0.77,0,1.15,0,1.92l-2.91-.28L200,429.86H200a2.61,2.61,0,0,1-1,.84,3.09,3.09,0,0,1-1.72.23,3.2,3.2,0,0,1-2.05-.9,2.9,2.9,0,0,1-.49-3.17,2,2,0,0,1,.78-0.8,3.34,3.34,0,0,1,1.22-.39,7,7,0,0,1,1.6,0q0.31,0,.65.1l0.84,0.15a1.72,1.72,0,0,0,0-.35v-0.33a1.23,1.23,0,0,0-.38-1,2,2,0,0,0-1.12-.4,5,5,0,0,0-1.58.07,9.37,9.37,0,0,0-1.19.34Zm3,6.71a2,2,0,0,0,1.24-.19,1.78,1.78,0,0,0,.6-0.6c0-.42,0-0.63,0-1l-0.52-.13a6.22,6.22,0,0,0-.74-0.11,3.52,3.52,0,0,0-.65,0,2,2,0,0,0-.58.14,1,1,0,0,0-.41.3,0.76,0.76,0,0,0-.15.49,1.1,1.1,0,0,0,.28.79A1.45,1.45,0,0,0,198,429.12Z"/><path class="cls-4" d="M205.38,419.31l3.7,0.34c0,3.23,0,4.85,0,8.08a4,4,0,0,0,.33,1.9,1.28,1.28,0,0,0,1.06.62,2.84,2.84,0,0,0,.89,0,3.12,3.12,0,0,0,.69-0.26l0.85,1.65-0.59.31a3.51,3.51,0,0,1-.62.22,4,4,0,0,1-.72.11,5.62,5.62,0,0,1-.88,0,3.22,3.22,0,0,1-3.26-3.52c0-2.94,0-4.41,0-7.35l-1.44-.13C205.38,420.46,205.38,420.08,205.38,419.31Z"/><path class="cls-4" d="M215.65,434.53l7.71,0.65c0,0.75,0,1.12,0,1.87l-7.71-.65C215.65,435.65,215.65,435.27,215.65,434.53Z"/><path class="cls-4" d="M224.71,421l3.51,0.28c0,1.79,0,2.69,0,4.48h0.07a2.63,2.63,0,0,1,1.11-.81,3.61,3.61,0,0,1,1.63-.21,4.22,4.22,0,0,1,1.22.27,2.56,2.56,0,0,1,1,.65,3,3,0,0,1,.63,1.14,5.73,5.73,0,0,1,.23,1.72c0,2.18,0,3.27,0,5.44l-2.26-.17c0-2,0-3,0-5a2.32,2.32,0,0,0-.45-1.57,1.69,1.69,0,0,0-1.18-.56,1.84,1.84,0,0,0-1.18.3,1.91,1.91,0,0,0-.77.95c0,2.23,0,3.35,0,5.58l-2.26-.18c0-4.13,0-6.2,0-10.33l-1.25-.1C224.71,422.14,224.71,421.76,224.71,421Z"/><path class="cls-4" d="M244.42,433.79a2.8,2.8,0,0,1-.58.37,5.22,5.22,0,0,1-.83.32,6.12,6.12,0,0,1-1.05.21,6.68,6.68,0,0,1-1.22,0,6.09,6.09,0,0,1-2-.46,4.32,4.32,0,0,1-2.42-2.55,5.63,5.63,0,0,1-.32-2,5,5,0,0,1,.37-2,3.65,3.65,0,0,1,1-1.37,3.81,3.81,0,0,1,1.49-.76,5.57,5.57,0,0,1,1.84-.16,5.89,5.89,0,0,1,1.36.27,4,4,0,0,1,1.29.7,3.58,3.58,0,0,1,1,1.21,4.09,4.09,0,0,1,.37,1.85,8.32,8.32,0,0,1-.17,1.62l-6.26-.44a2.12,2.12,0,0,0,.23,1,2.08,2.08,0,0,0,.57.67,2.69,2.69,0,0,0,.82.42,4.19,4.19,0,0,0,1,.18,4.9,4.9,0,0,0,1.71-.12,3.31,3.31,0,0,0,1.09-.52Zm-3.76-6.51a2.79,2.79,0,0,0-.85.06,2.19,2.19,0,0,0-.72.31,1.79,1.79,0,0,0-.53.56,1.75,1.75,0,0,0-.24.78l4.28,0.31A1.87,1.87,0,0,0,240.67,427.28Z"/><path class="cls-4" d="M247.08,422.65l3.7,0.25c0,3.23,0,4.85,0,8.08a3.92,3.92,0,0,0,.33,1.89,1.25,1.25,0,0,0,1.06.59,2.85,2.85,0,0,0,.89-0.06,3.15,3.15,0,0,0,.69-0.28l0.85,1.63-0.59.32a3.53,3.53,0,0,1-.63.24,4,4,0,0,1-.72.13,5.61,5.61,0,0,1-.88,0,3.13,3.13,0,0,1-3.27-3.43c0-2.94,0-4.41,0-7.35l-1.44-.1C247.08,423.81,247.08,423.42,247.08,422.65Z"/><path class="cls-4" d="M256,426.73l3,0.18,0.26,1.07h0.07a3.12,3.12,0,0,1,2.92-1.12,4.27,4.27,0,0,1,1.47.34,3.1,3.1,0,0,1,1.15.86,4,4,0,0,1,.74,1.41,6.74,6.74,0,0,1,.26,2,6.31,6.31,0,0,1-.3,2,4,4,0,0,1-.85,1.48,3.37,3.37,0,0,1-1.36.88,4.6,4.6,0,0,1-1.82.23,7.16,7.16,0,0,1-1.06-.14,3,3,0,0,1-.87-0.31c0,1.44,0,2.15,0,3.59l-2.26-.14c0-4.13,0-6.2,0-10.33l-1.3-.08C256,427.88,256,427.5,256,426.73Zm5.53,2a2.19,2.19,0,0,0-1.21.26,1.59,1.59,0,0,0-.76,1c0,1.46,0,2.18,0,3.64a2,2,0,0,0,.7.35,3.94,3.94,0,0,0,.93.17,2.36,2.36,0,0,0,.9-0.11,1.71,1.71,0,0,0,.73-0.49,2.42,2.42,0,0,0,.49-0.9,4.5,4.5,0,0,0,.17-1.34,2.74,2.74,0,0,0-.56-1.82A1.92,1.92,0,0,0,261.53,428.74Z"/><path class="cls-4" d="M275.73,435.66a2.87,2.87,0,0,1-.58.38,5.33,5.33,0,0,1-.83.33,6.15,6.15,0,0,1-1.05.23,6.68,6.68,0,0,1-1.22,0,6,6,0,0,1-2-.42,4.3,4.3,0,0,1-1.49-1,4.34,4.34,0,0,1-.93-1.5,5.58,5.58,0,0,1-.32-2,5,5,0,0,1,.36-2,3.74,3.74,0,0,1,1-1.39,3.91,3.91,0,0,1,1.49-.79,5.61,5.61,0,0,1,1.84-.19,5.85,5.85,0,0,1,1.37.25,4,4,0,0,1,1.3.67,3.48,3.48,0,0,1,1,1.19,4,4,0,0,1,.37,1.84,8.36,8.36,0,0,1-.17,1.62l-6.26-.33a2.09,2.09,0,0,0,.23,1,2,2,0,0,0,.57.66,2.63,2.63,0,0,0,.82.4,4.15,4.15,0,0,0,1,.17,5,5,0,0,0,1.71-.16,3.42,3.42,0,0,0,1.09-.54ZM272,429.22a2.82,2.82,0,0,0-.85.08,2.24,2.24,0,0,0-.72.33,1.85,1.85,0,0,0-.53.57,1.79,1.79,0,0,0-.24.79l4.28,0.23a2,2,0,0,0-.48-1.41A2,2,0,0,0,272,429.22Z"/><path class="cls-4" d="M277.56,434.76l2.16,0.1V430l-2.16-.1c0-.77,0-1.15,0-1.92l3.92,0.19,0.26,1.17h0.07a4.29,4.29,0,0,1,1.11-.91,2.66,2.66,0,0,1,1.46-.32,2.08,2.08,0,0,1,1.65.84,4.38,4.38,0,0,1,.6,2.6l-2-.09a1.82,1.82,0,0,0-.18-0.93,0.67,0.67,0,0,0-.58-0.32,1.66,1.66,0,0,0-1.12.3,3.26,3.26,0,0,0-.72.77c0,1.49,0,2.24,0,3.73l3.78,0.17c0,0.77,0,1.15,0,1.92l-8.2-.38C277.56,435.91,277.56,435.53,277.56,434.76Z"/><path class="cls-4" d="M295.24,441.17a8.31,8.31,0,0,1-2.37-.86,7.33,7.33,0,0,1-2-1.64,7.85,7.85,0,0,1-1.42-2.44,9.33,9.33,0,0,1-.53-3.28,9,9,0,0,1,.53-3.22,7.22,7.22,0,0,1,1.42-2.35,6.65,6.65,0,0,1,2-1.51,8.29,8.29,0,0,1,2.37-.73l0.42,1.89a7,7,0,0,0-1.39.44,4.78,4.78,0,0,0-1.47,1,5.55,5.55,0,0,0-1.18,1.78,7,7,0,0,0-.48,2.78,6.64,6.64,0,0,0,.51,2.73,6.39,6.39,0,0,0,1.23,1.86,5.75,5.75,0,0,0,1.49,1.13,6.1,6.1,0,0,0,1.29.51Z"/><path class="cls-4" d="M299.61,435.7l2.66,0.09c0-3.06,0-4.59,0-7.65l-2.3,1.69-1-1.44,4-2.9,1.53,0.05c0,4.13,0,6.2,0,10.33l2.61,0.08v1.92l-7.43-.25C299.61,436.85,299.61,436.47,299.61,435.7Z"/><path class="cls-4" d="M312,436.9a1.17,1.17,0,0,1,.39-0.93,1.39,1.39,0,0,1,1-.32,1.77,1.77,0,0,1,1.45.67,2.52,2.52,0,0,1,.49,1.57,3.27,3.27,0,0,1-.3,1.43,3.65,3.65,0,0,1-.79,1.1,4.11,4.11,0,0,1-1.09.74,4.33,4.33,0,0,1-1.19.37l-0.47-1a4.81,4.81,0,0,0,.85-0.27,3.3,3.3,0,0,0,.78-0.46,2.59,2.59,0,0,0,.58-0.66,1.83,1.83,0,0,0,.27-0.83,2.19,2.19,0,0,1-.89,0,1.38,1.38,0,0,1-.6-0.3,1.19,1.19,0,0,1-.34-0.5A1.83,1.83,0,0,1,312,436.9Z"/><path class="cls-4" d="M323,436.62a3.52,3.52,0,0,0,1.05-.13,2.41,2.41,0,0,0,.82-0.4,1.93,1.93,0,0,0,.53-0.62,1.6,1.6,0,0,0,.19-0.77,1.69,1.69,0,0,0-.22-0.88,1.62,1.62,0,0,0-.6-0.58,2.94,2.94,0,0,0-.92-0.32,7.4,7.4,0,0,0-1.17-.11l-1,0c0-.5,0-0.75,0-1.26l2.92-3.53-4.41-.1c0-.77,0-1.15,0-1.92l7.11,0.15c0,0.64,0,1,0,1.59l-3.06,3.45h0.4a3.45,3.45,0,0,1,1.18.23,3,3,0,0,1,1,.65,3.18,3.18,0,0,1,.72,1.06,3.71,3.71,0,0,1,.27,1.46,3.57,3.57,0,0,1-.41,1.74,3.87,3.87,0,0,1-1.08,1.25,4.5,4.5,0,0,1-1.54.74,6.32,6.32,0,0,1-1.79.22,8.91,8.91,0,0,1-1.57-.18,7.65,7.65,0,0,1-1.51-.47l0.61-1.88a2.51,2.51,0,0,0,.43.18l0.61,0.19a6.87,6.87,0,0,0,.7.16A4.82,4.82,0,0,0,323,436.62Z"/><path class="cls-4" d="M331.19,440.27a5.86,5.86,0,0,0,1.29-.44,5.31,5.31,0,0,0,1.49-1,5.88,5.88,0,0,0,1.23-1.79,6.44,6.44,0,0,0,.51-2.71,7.21,7.21,0,0,0-.48-2.81,6,6,0,0,0-1.18-1.85,5.18,5.18,0,0,0-1.47-1.09,7.44,7.44,0,0,0-1.38-.52l0.42-1.87A8.76,8.76,0,0,1,334,427a7.23,7.23,0,0,1,2,1.62,7.74,7.74,0,0,1,1.42,2.43,9.24,9.24,0,0,1,.53,3.25,9.1,9.1,0,0,1-.53,3.25,7.28,7.28,0,0,1-1.42,2.36,6.79,6.79,0,0,1-2,1.53,7.92,7.92,0,0,1-2.37.73Z"/><path class="cls-4" d="M388.71,431.94L388.8,430h-0.1l-1.95,3.23h-0.42l-2-3.17H384.2l0.1,1.71c0,2.69,0,4,0,6.72l-2.26,0c0-4.9,0-7.35,0-12.25l2.42,0,2.09,3.36h0.07l2.07-3.43,2.4,0c0,4.9,0,7.35,0,12.25l-2.39,0C388.71,435.85,388.71,434.55,388.71,431.94Z"/><path class="cls-4" d="M393.36,430.22a9.64,9.64,0,0,1,1.61-.57,9.21,9.21,0,0,1,2.17-.27,4.75,4.75,0,0,1,1.54.18,2.5,2.5,0,0,1,1,.6,2.29,2.29,0,0,1,.57.95,4.22,4.22,0,0,1,.17,1.26q0,0.89-.06,1.52T400.32,435a7.82,7.82,0,0,0,0,.82c0,0.16,0,.32.05,0.47l1.13,0c0,0.77,0,1.15,0,1.92l-2.92.07-0.23-1.19h-0.09a3.11,3.11,0,0,1-1,1,3.33,3.33,0,0,1-1.73.43,2.87,2.87,0,0,1-2.06-.66,2.35,2.35,0,0,1-.76-1.84,2.83,2.83,0,0,1,.27-1.27,2.32,2.32,0,0,1,.78-0.89,3.77,3.77,0,0,1,1.23-.53,7.2,7.2,0,0,1,1.6-.2,6.56,6.56,0,0,1,.66,0l0.85,0.05a1.78,1.78,0,0,0,0-.35v-0.33a1.1,1.1,0,0,0-.38-0.95,1.81,1.81,0,0,0-1.12-.26,5.27,5.27,0,0,0-1.59.26,10.58,10.58,0,0,0-1.19.48Zm3,6.36a2.11,2.11,0,0,0,1.24-.33,2.14,2.14,0,0,0,.6-0.67v-1l-0.52-.07a6.05,6.05,0,0,0-.74,0,3.65,3.65,0,0,0-.66.07,2.23,2.23,0,0,0-.58.21,1.2,1.2,0,0,0-.41.35,0.84,0.84,0,0,0-.15.51,1,1,0,0,0,.28.75A1.31,1.31,0,0,0,396.32,436.59Z"/><path class="cls-4" d="M404.26,431.3l-1.72,0v-1.92l1.72,0c0-.8,0-1.2,0-2l2.26-.71c0,1.06,0,1.59,0,2.64l4.56-.13v1.92l-4.56.13v2.5a3,3,0,0,0,.51,1.94,1.69,1.69,0,0,0,1.41.56,3,3,0,0,0,.85-0.14,3.29,3.29,0,0,0,.69-0.31,4,4,0,0,0,.56-0.4L411,435l1,1.54a3.44,3.44,0,0,1-.74.66,6.41,6.41,0,0,1-1,.54,6.11,6.11,0,0,1-1.07.37,5.14,5.14,0,0,1-1.1.15,3.65,3.65,0,0,1-2.93-1,5,5,0,0,1-1-3.45v-2.5Z"/><path class="cls-4" d="M412.69,425.63l3.52-.11c0,1.79,0,2.69,0,4.48h0.07a3.07,3.07,0,0,1,1.11-.93,3.85,3.85,0,0,1,1.64-.39,4,4,0,0,1,1.22.13,2.21,2.21,0,0,1,1,.54,2.59,2.59,0,0,1,.63,1.07,5.48,5.48,0,0,1,.23,1.7v5.44l-2.26.08c0-2,0-3,0-5a2.11,2.11,0,0,0-.45-1.52,1.52,1.52,0,0,0-1.18-.43,2,2,0,0,0-1.18.43,2.24,2.24,0,0,0-.77,1c0,2.23,0,3.35,0,5.58l-2.26.07c0-4.13,0-6.2,0-10.33l-1.25,0C412.69,426.79,412.69,426.4,412.69,425.63Z"/><path class="cls-4" d="M426.94,436.22a1.32,1.32,0,0,1,.38-1,1.47,1.47,0,0,1,1-.4,1.42,1.42,0,0,1,1,.32,1.22,1.22,0,0,1,.38,1,1.34,1.34,0,0,1-.38,1,1.5,1.5,0,0,1-1,.41,1.35,1.35,0,0,1-1-.33A1.25,1.25,0,0,1,426.94,436.22Z"/><path class="cls-4" d="M434.81,437v-1.92l2.05-.09c0-2,0-2.94,0-4.9l-2.07.09c0-.77,0-1.15,0-1.92l2.07-.09v-0.49a3.31,3.31,0,0,1,.29-1.43,3.06,3.06,0,0,1,.76-1,3.27,3.27,0,0,1,1.09-.62,4.55,4.55,0,0,1,1.28-.24,8,8,0,0,1,2,.11,4.78,4.78,0,0,1,1.28.43l-0.66,1.77a7.41,7.41,0,0,0-.86-0.31,3.72,3.72,0,0,0-1.19-.1,1.76,1.76,0,0,0-1.31.49,2,2,0,0,0-.37,1.3l3.65-.18c0,0.77,0,1.15,0,1.92l-3.65.18v4.9l3.67-.18v1.92Z"/><path class="cls-4" d="M445.58,428.37a10,10,0,0,1,1.61-.63,9.3,9.3,0,0,1,2.16-.34,4.68,4.68,0,0,1,1.54.14,2.39,2.39,0,0,1,1,.56,2.21,2.21,0,0,1,.56.93,4.12,4.12,0,0,1,.17,1.25c0,0.59,0,1.1-.06,1.53s-0.06.8-.06,1.12a7.43,7.43,0,0,0,0,.82c0,0.16,0,.32.05,0.47l1.13-.06v1.92l-2.92.16-0.23-1.18h-0.09a3.26,3.26,0,0,1-1,1,3.39,3.39,0,0,1-1.73.49,2.79,2.79,0,0,1-2.06-.59,2.28,2.28,0,0,1-.76-1.82,2.88,2.88,0,0,1,.27-1.28,2.44,2.44,0,0,1,.78-0.91,3.92,3.92,0,0,1,1.23-.57,7.3,7.3,0,0,1,1.6-.25,6.53,6.53,0,0,1,.66,0l0.85,0a1.8,1.8,0,0,0,0-.35v-0.33a1.06,1.06,0,0,0-.38-0.93,1.77,1.77,0,0,0-1.12-.23,5.34,5.34,0,0,0-1.59.31,10.94,10.94,0,0,0-1.19.52Zm3,6.27a2.16,2.16,0,0,0,1.24-.37,2.22,2.22,0,0,0,.6-0.69v-1l-0.52-.05a6,6,0,0,0-.74,0,3.67,3.67,0,0,0-.65.1,2.27,2.27,0,0,0-.59.22,1.24,1.24,0,0,0-.41.36,0.87,0.87,0,0,0-.16.52,1,1,0,0,0,.28.75A1.28,1.28,0,0,0,448.54,434.64Z"/><path class="cls-4" d="M463.95,434.64a5.33,5.33,0,0,1-1.67.92,7.48,7.48,0,0,1-2,.39,5.49,5.49,0,0,1-2-.21,3.78,3.78,0,0,1-1.48-.85,3.68,3.68,0,0,1-.91-1.41,5.33,5.33,0,0,1-.31-1.87,5.11,5.11,0,0,1,.37-2,4.47,4.47,0,0,1,1-1.51,4.72,4.72,0,0,1,1.54-1,6.1,6.1,0,0,1,1.93-.42,7,7,0,0,1,1.82.12,8,8,0,0,1,1.3.36c0,1.23,0,1.85,0,3.08l-1.91.12v-1.61a4.84,4.84,0,0,0-1.08-.06,3.36,3.36,0,0,0-1,.21,2.55,2.55,0,0,0-.85.52,2.67,2.67,0,0,0-.61.85,2.79,2.79,0,0,0-.23,1.19,2.63,2.63,0,0,0,.19,1,2.21,2.21,0,0,0,1.4,1.29,3,3,0,0,0,1.14.13,4.18,4.18,0,0,0,1.63-.38,7,7,0,0,0,.95-0.55Z"/><path class="cls-4" d="M466.9,428.47l-1.72.11c0-.77,0-1.15,0-1.92l1.72-.11v-2l2.26-.79c0,1.06,0,1.59,0,2.64l4.56-.3c0,0.77,0,1.15,0,1.92l-4.56.3v2.5a2.89,2.89,0,0,0,.5,1.92,1.63,1.63,0,0,0,1.41.51,3.1,3.1,0,0,0,.85-0.17,3.54,3.54,0,0,0,.69-0.34,4.32,4.32,0,0,0,.56-0.42l0.46-.42,1,1.5a3.74,3.74,0,0,1-.74.69,6.74,6.74,0,0,1-1,.57,6.28,6.28,0,0,1-1.07.41,5.19,5.19,0,0,1-1.09.2,3.52,3.52,0,0,1-2.93-.9,4.85,4.85,0,0,1-1-3.41v-2.5Z"/><path class="cls-4" d="M475.93,430.32a5.63,5.63,0,0,1,.33-2,4.34,4.34,0,0,1,2.39-2.52,5.75,5.75,0,0,1,1.89-.44,5.25,5.25,0,0,1,2,.19,3.66,3.66,0,0,1,1.45.83,3.57,3.57,0,0,1,.9,1.4,5.43,5.43,0,0,1,.3,1.87,5.63,5.63,0,0,1-.33,2,4.34,4.34,0,0,1-2.39,2.53,5.7,5.7,0,0,1-1.89.44,5.23,5.23,0,0,1-2-.19,3.67,3.67,0,0,1-1.45-.83,3.59,3.59,0,0,1-.89-1.4A5.44,5.44,0,0,1,475.93,430.32Zm2.33-.16a3.37,3.37,0,0,0,.16,1.06,2.4,2.4,0,0,0,.45.83,1.86,1.86,0,0,0,.71.52,2.1,2.1,0,0,0,1,.13,2.37,2.37,0,0,0,1.64-.77,3,3,0,0,0,.63-2.09,2.87,2.87,0,0,0-.59-1.91,1.89,1.89,0,0,0-1.69-.62,2.79,2.79,0,0,0-.9.21,2,2,0,0,0-.72.53,2.59,2.59,0,0,0-.48.87A3.89,3.89,0,0,0,478.26,430.16Z"/><path class="cls-4" d="M486.43,432l2.15-.16v-4.9l-2.15.16v-1.92l3.91-.3L490.6,426h0.07a5.15,5.15,0,0,1,1.11-1.05,2.91,2.91,0,0,1,1.46-.5,1.82,1.82,0,0,1,1.64.64,4,4,0,0,1,.6,2.52l-2,.16a1.69,1.69,0,0,0-.18-0.9,0.59,0.59,0,0,0-.58-0.24,1.84,1.84,0,0,0-1.12.44,3.92,3.92,0,0,0-.72.86v3.73l3.77-.3c0,0.77,0,1.15,0,1.92l-8.18.64V432Z"/><path class="cls-4" d="M497.2,431.16l3.06-.25V426l-3.06.25v-1.92l5.32-.45v6.83l3.21-.28v1.92l-8.53.72C497.2,432.31,497.2,431.93,497.2,431.16Zm2.64-9.42a1.35,1.35,0,0,1,.4-1,1.66,1.66,0,0,1,1.11-.48,1.59,1.59,0,0,1,1.17.29,1.09,1.09,0,0,1,.43.89,1.25,1.25,0,0,1-.43,1,1.92,1.92,0,0,1-1.17.46,1.5,1.5,0,0,1-1.11-.26A1.08,1.08,0,0,1,499.84,421.73Z"/><path class="cls-4" d="M508.16,424a10.32,10.32,0,0,1,1.61-.69,9.45,9.45,0,0,1,2.16-.42,4.63,4.63,0,0,1,1.54.08,2.28,2.28,0,0,1,1,.53,2.11,2.11,0,0,1,.56.91,4.07,4.07,0,0,1,.17,1.24c0,0.59,0,1.11-.06,1.53s-0.06.8-.06,1.13a7.4,7.4,0,0,0,0,.82c0,0.16,0,.32.05,0.47l1.13-.11v1.92l-2.91.27-0.23-1.17h-0.09a3.44,3.44,0,0,1-1,1,3.49,3.49,0,0,1-1.72.55,2.71,2.71,0,0,1-2.05-.52,2.2,2.2,0,0,1-.76-1.79,3,3,0,0,1,.27-1.29,2.58,2.58,0,0,1,.78-0.94,4.08,4.08,0,0,1,1.22-.62,7.42,7.42,0,0,1,1.6-.31,6.51,6.51,0,0,1,.66,0h0.84a1.82,1.82,0,0,0,0-.35V425.9a1,1,0,0,0-.38-0.92,1.73,1.73,0,0,0-1.12-.19,5.45,5.45,0,0,0-1.59.37,11.37,11.37,0,0,0-1.19.56Zm3,6.16a2.22,2.22,0,0,0,1.24-.42,2.34,2.34,0,0,0,.6-0.71c0-.42,0-0.63,0-1l-0.52,0a6,6,0,0,0-.74,0,3.72,3.72,0,0,0-.65.12,2.35,2.35,0,0,0-.59.25,1.31,1.31,0,0,0-.41.38,0.9,0.9,0,0,0-.16.52,0.92,0.92,0,0,0,.28.74A1.24,1.24,0,0,0,511.11,430.15Z"/><path class="cls-4" d="M518.52,418.94l3.7-.36c0,3.23,0,4.85,0,8.08a3.58,3.58,0,0,0,.33,1.84,1,1,0,0,0,1.06.42,3,3,0,0,0,.89-0.2,3.84,3.84,0,0,0,.69-0.39l0.85,1.49-0.59.42a4.32,4.32,0,0,1-.62.34,4.57,4.57,0,0,1-.72.25,5.84,5.84,0,0,1-.88.15,2.61,2.61,0,0,1-3.26-2.9v-7.35l-1.44.14v-1.92Z"/><path class="cls-4" d="M528.78,432.23l7.7-.8v1.87l-7.7.8v-1.87Z"/><path class="cls-4" d="M537.83,417l3.5-.38v4.48h0.07a3.42,3.42,0,0,1,1.11-1,4.05,4.05,0,0,1,1.63-.51,3.92,3.92,0,0,1,1.21,0,2,2,0,0,1,1,.47,2.36,2.36,0,0,1,.62,1,5.34,5.34,0,0,1,.22,1.68c0,2.18,0,3.27,0,5.44l-2.25.25v-5a2,2,0,0,0-.45-1.49,1.41,1.41,0,0,0-1.18-.34,2.17,2.17,0,0,0-1.18.52,2.48,2.48,0,0,0-.76,1.09v5.58l-2.25.24V418.78l-1.25.13V417Z"/><path class="cls-4" d="M557.49,426.1a3.56,3.56,0,0,1-.58.48,6.58,6.58,0,0,1-.83.48,7.14,7.14,0,0,1-2.26.65,5.62,5.62,0,0,1-2-.09,3.32,3.32,0,0,1-2.41-2.1,5.15,5.15,0,0,1-.32-1.9,5.5,5.5,0,0,1,.36-2.06,4.73,4.73,0,0,1,1-1.56,4.85,4.85,0,0,1,1.48-1,6.11,6.11,0,0,1,1.84-.5,5.51,5.51,0,0,1,1.36,0,3.28,3.28,0,0,1,1.29.45,2.71,2.71,0,0,1,1,1,3.67,3.67,0,0,1,.37,1.78,8.69,8.69,0,0,1-.17,1.65l-6.24.73a1.86,1.86,0,0,0,.23.92,1.58,1.58,0,0,0,.57.56,2.2,2.2,0,0,0,.81.27,4,4,0,0,0,1,0,5.34,5.34,0,0,0,1.71-.44,4.18,4.18,0,0,0,1.08-.72Zm-3.74-5.81a3,3,0,0,0-.85.22,2.77,2.77,0,0,0-.72.45,2.37,2.37,0,0,0-.53.66,2,2,0,0,0-.24.83l4.26-.5a1.75,1.75,0,0,0-.48-1.33A1.73,1.73,0,0,0,553.75,420.29Z"/><path class="cls-4" d="M560.14,414.46l3.69-.45v8.08a3.54,3.54,0,0,0,.33,1.83,1,1,0,0,0,1.06.4,3.09,3.09,0,0,0,.88-0.22,4,4,0,0,0,.69-0.41l0.85,1.47-0.59.43a4.45,4.45,0,0,1-.62.36,4.67,4.67,0,0,1-.72.26,5.89,5.89,0,0,1-.88.17,2.54,2.54,0,0,1-3.26-2.82v-7.35l-1.44.17v-1.92Z"/><path class="cls-4" d="M569,416.86l2.94-.37,0.26,1h0.07a3.81,3.81,0,0,1,2.91-1.67,3.92,3.92,0,0,1,1.46.06,2.39,2.39,0,0,1,1.14.65,3.17,3.17,0,0,1,.74,1.27,6.29,6.29,0,0,1,.26,1.94,6.88,6.88,0,0,1-.3,2.06,5.08,5.08,0,0,1-.85,1.64,4.37,4.37,0,0,1-1.35,1.14,5.12,5.12,0,0,1-1.82.57,6.93,6.93,0,0,1-1.06.06,2.64,2.64,0,0,1-.87-0.14v3.59l-2.25.29V418.63l-1.3.16v-1.92Zm5.51,1a2.54,2.54,0,0,0-1.2.49,2.06,2.06,0,0,0-.75,1.09v3.64a1.64,1.64,0,0,0,.7.22,3.75,3.75,0,0,0,.93,0,2.63,2.63,0,0,0,.9-0.28,2.22,2.22,0,0,0,.73-0.63,3,3,0,0,0,.48-1,4.85,4.85,0,0,0,.17-1.37,2.35,2.35,0,0,0-.55-1.71A1.58,1.58,0,0,0,574.53,417.84Z"/><path class="cls-4" d="M588.65,422.1a3.74,3.74,0,0,1-.58.49,6.61,6.61,0,0,1-.83.49,7.23,7.23,0,0,1-2.26.69,5.59,5.59,0,0,1-2,0,3.23,3.23,0,0,1-2.4-2,5.11,5.11,0,0,1-.32-1.89,5.57,5.57,0,0,1,.36-2.07,4.82,4.82,0,0,1,1-1.58,5,5,0,0,1,1.48-1.06,6.17,6.17,0,0,1,1.83-.54,5.51,5.51,0,0,1,1.36,0,3.21,3.21,0,0,1,1.29.43,2.64,2.64,0,0,1,1,1,3.63,3.63,0,0,1,.37,1.77,8.91,8.91,0,0,1-.17,1.65l-6.23.85a1.84,1.84,0,0,0,.23.91,1.54,1.54,0,0,0,.57.55,2.15,2.15,0,0,0,.81.25,3.94,3.94,0,0,0,1,0,5.41,5.41,0,0,0,1.7-.48,4.33,4.33,0,0,0,1.08-.74Zm-3.74-5.74a3.08,3.08,0,0,0-.85.24,2.8,2.8,0,0,0-.72.46,2.41,2.41,0,0,0-.53.67,2.09,2.09,0,0,0-.24.83l4.26-.58A1.48,1.48,0,0,0,584.91,416.36Z"/><path class="cls-4" d="M590.47,420.85l2.14-.3v-4.9l-2.14.3V414l3.89-.55,0.26,1.12h0.07a5.64,5.64,0,0,1,1.11-1.12,3.07,3.07,0,0,1,1.45-.59,1.71,1.71,0,0,1,1.63.53,3.87,3.87,0,0,1,.6,2.49l-2,.29a1.64,1.64,0,0,0-.18-0.89,0.55,0.55,0,0,0-.58-0.21,2,2,0,0,0-1.12.51,4.3,4.3,0,0,0-.72.91v3.73l3.75-.54v1.92l-8.14,1.15v-1.92Z"/><path class="cls-4" d="M608,424a7.14,7.14,0,0,1-2.35-.42,5.6,5.6,0,0,1-2-1.26,6.13,6.13,0,0,1-1.41-2.17,8.6,8.6,0,0,1-.53-3.18,9.9,9.9,0,0,1,.53-3.32,9.2,9.2,0,0,1,1.41-2.61,8.71,8.71,0,0,1,2-1.89,10,10,0,0,1,2.35-1.17l0.41,1.81a8.45,8.45,0,0,0-1.37.7,6.23,6.23,0,0,0-1.46,1.29,7.17,7.17,0,0,0-1.17,2,7.73,7.73,0,0,0-.48,2.87,6,6,0,0,0,.5,2.64,4.87,4.87,0,0,0,1.22,1.63,4.41,4.41,0,0,0,1.48.85,5.23,5.23,0,0,0,1.28.27Z"/><path class="cls-4" d="M614.81,417.53a3.84,3.84,0,0,0,1-.31,3,3,0,0,0,.81-0.54,2.51,2.51,0,0,0,.53-0.71,1.81,1.81,0,0,0,.19-0.8,1.49,1.49,0,0,0-.22-0.85,1.24,1.24,0,0,0-.6-0.47,2.57,2.57,0,0,0-.92-0.16,7.24,7.24,0,0,0-1.16.09l-1,.15v-1.26l2.9-4-4.37.67c0-.77,0-1.15,0-1.92l7-1.09v1.59l-3,4,0.4-.06a3.21,3.21,0,0,1,1.18,0,2.38,2.38,0,0,1,1,.47,2.51,2.51,0,0,1,.71.94,3.39,3.39,0,0,1,.27,1.41,4,4,0,0,1-.4,1.81,5,5,0,0,1-1.07,1.44,5.55,5.55,0,0,1-1.53,1,6.89,6.89,0,0,1-1.78.53,8.69,8.69,0,0,1-1.55.1,6.76,6.76,0,0,1-1.5-.21l0.61-2a2.07,2.07,0,0,0,.42.11l0.61,0.08a6.32,6.32,0,0,0,.69,0A4.75,4.75,0,0,0,614.81,417.53Z"/><path class="cls-4" d="M624.65,416.55a1.41,1.41,0,0,1,.39-1,1.66,1.66,0,0,1,1-.51,1.47,1.47,0,0,1,1.43.4,2.17,2.17,0,0,1,.48,1.48,3.69,3.69,0,0,1-.3,1.48,4.73,4.73,0,0,1-.79,1.25,5.35,5.35,0,0,1-1.08.94,5.18,5.18,0,0,1-1.18.59l-0.47-.89a5.8,5.8,0,0,0,.84-0.43,4.24,4.24,0,0,0,.77-0.6,3.4,3.4,0,0,0,.58-0.77,2.16,2.16,0,0,0,.27-0.88,2.26,2.26,0,0,1-.88.17,1.13,1.13,0,0,1-.59-0.18,0.93,0.93,0,0,1-.34-0.44A1.68,1.68,0,0,1,624.65,416.55Z"/><path class="cls-4" d="M640.25,415.09l-7.69,1.29v-1.7l0.52-.55,0.7-.77q0.39-.43.82-0.94c0.29-.34.57-0.69,0.84-1.05s0.73-1,1-1.38a10.8,10.8,0,0,0,.72-1.14,5.13,5.13,0,0,0,.42-1,3.55,3.55,0,0,0,.14-1,1.43,1.43,0,0,0-.16-0.66,1.48,1.48,0,0,0-.43-0.51,1.69,1.69,0,0,0-.66-0.29,2.27,2.27,0,0,0-.85,0,3.57,3.57,0,0,0-1.13.38,4.84,4.84,0,0,0-1.06.82l-0.9-1.46a9.47,9.47,0,0,1,1.61-1.15,6.15,6.15,0,0,1,2-.7,4.67,4.67,0,0,1,1.42,0,3.13,3.13,0,0,1,1.21.42,2.35,2.35,0,0,1,.83.88,2.78,2.78,0,0,1,.31,1.36,5.61,5.61,0,0,1-.09,1.06,6,6,0,0,1-.29,1,8.1,8.1,0,0,1-.52,1.08c-0.21.37-.47,0.79-0.77,1.23s-0.48.69-.75,1-0.54.69-.8,1-0.53.63-.78,0.92-0.49.53-.7,0.73l5-.84v1.92Z"/><path class="cls-4" d="M643.65,416.32a7.07,7.07,0,0,0,1.27-.68,6.91,6.91,0,0,0,1.47-1.32,7.6,7.6,0,0,0,1.21-2,7.19,7.19,0,0,0,.5-2.8,6.61,6.61,0,0,0-.47-2.72,4.61,4.61,0,0,0-1.16-1.63,4,4,0,0,0-1.46-.82,6.31,6.31,0,0,0-1.37-.26l0.41-1.94a7.47,7.47,0,0,1,2.34.42,5.5,5.5,0,0,1,2,1.24,6,6,0,0,1,1.4,2.16,8.52,8.52,0,0,1,.52,3.15,10,10,0,0,1-.52,3.35,9.28,9.28,0,0,1-1.4,2.63,8.86,8.86,0,0,1-2,1.91,9.45,9.45,0,0,1-2.34,1.17Z"/></svg>