<svg id="Layer_1" data-name="Layer 1" xmlns="http://www.w3.org/2000/svg" viewBox="0 0 720 576"><defs><style>.cls-1,.cls-2,.cls-4,.cls-6{fill:#231f20;}.cls-1,.cls-3{stroke:#231f20;}.cls-1,.cls-6{stroke-miterlimit:10;}.cls-1,.cls-2,.cls-3{stroke-width:2px;}.cls-2{stroke:#000;}.cls-2,.cls-3{stroke-linecap:round;stroke-linejoin:round;}.cls-3,.cls-5{fill:#fff;}.cls-6{stroke:#fff;}</style></defs><title>Hanoi_Tower_Set_Elixir_5</title><path class="cls-1" d="M656,522.57c0-.14,0-0.29,0-0.43s0-.29,0-0.43V469.92H64.18s-0.23,51.74-.23,52.22c0,2.67,2.12,5.24,6.08,7.71,13.87,8.61,50.58,16.11,101.74,21.48S288.5,559.92,360,559.92c81.71,0,155.68-4.21,209.24-11,26.78-3.41,48.45-7.46,63.44-12,7.5-2.25,13.32-4.62,17.29-7.08,3.38-2.1,5.41-4.29,5.94-6.55H656v-0.73Z"/><ellipse class="cls-2" cx="360" cy="471" rx="295.87" ry="37.63"/><path class="cls-3" d="M656,471.09c0-.14,0-0.29,0-0.43s0-.29,0-0.43V418.44H64.18s-0.23,51.74-.23,52.22c0,2.67,2.12,5.24,6.08,7.71,13.87,8.61,50.58,16.11,101.74,21.48S288.5,508.44,360,508.44c81.71,0,155.68-4.21,209.24-11,26.78-3.41,48.45-7.46,63.44-12,7.5-2.25,13.32-4.62,17.29-7.08,3.38-2.1,5.41-4.29,5.94-6.55H656v-0.73Z"/><ellipse class="cls-3" cx="360" cy="419.52" rx="295.87" ry="37.63"/><path class="cls-4" d="M360,428.3c-16,0-29-3.75-30.2-8.61h-0.08l0-.5V24.35h60.63V419.69H390.2C389,424.55,376,428.3,360,428.3Z"/><path class="cls-5" d="M389.82,24.85V419.19h0c-0.49,4.78-13.63,8.61-29.79,8.61s-29.3-3.83-29.79-8.61h0V419s0,0,0-.06,0,0,0-.06v-394h59.63m1-1H329.19v395s0,0.07,0,.11v1.27h0.23c2,5.6,16.84,8.61,30.58,8.61s28.6-3,30.58-8.61h0.21l0-1V23.85h0Z"/><ellipse class="cls-6" cx="359.99" cy="24.97" rx="29.81" ry="8.89"/><path class="cls-4" d="M83.55,459l0.09-1.89-0.1,0L81.59,460l-0.42-.07-2-3.55-0.09,0,0.1,1.73v6.72l-2.26-.39V452.17l2.41,0.42,2.08,3.75h0.07l2.07-3,2.4,0.41V466l-2.38-.4V459Z"/><path class="cls-4" d="M88.19,458.19a8.38,8.38,0,0,1,1.61-.27A9,9,0,0,1,92,458a5.31,5.31,0,0,1,1.54.47,3.21,3.21,0,0,1,1,.79,2.9,2.9,0,0,1,.57,1.06,4.53,4.53,0,0,1,.17,1.29q0,0.89-.06,1.51t-0.06,1.11a7.68,7.68,0,0,0,0,.83c0,0.16,0,.33.05,0.48l1.13,0.18v1.92l-2.92-.48L93.21,466H93.13a2.37,2.37,0,0,1-1,.77,3,3,0,0,1-1.73.11,3.46,3.46,0,0,1-2.06-1,2.83,2.83,0,0,1-.76-2,2.52,2.52,0,0,1,.27-1.22,1.77,1.77,0,0,1,.78-0.74,3.19,3.19,0,0,1,1.23-.3,7.06,7.06,0,0,1,1.6.1q0.31,0.05.66,0.14L93,462a1.72,1.72,0,0,0,0-.34v-0.33a1.32,1.32,0,0,0-.38-1,2.13,2.13,0,0,0-1.12-.47,5,5,0,0,0-1.59,0,9,9,0,0,0-1.19.26Zm3,6.92a1.9,1.9,0,0,0,1.24-.1,1.61,1.61,0,0,0,.6-0.56v-1l-0.52-.16a6.53,6.53,0,0,0-.74-0.16,3.56,3.56,0,0,0-.65,0,1.91,1.91,0,0,0-.58.1,0.91,0.91,0,0,0-.41.27,0.72,0.72,0,0,0-.15.48,1.17,1.17,0,0,0,.28.81A1.55,1.55,0,0,0,91.15,465.11Z"/><path class="cls-4" d="M99.08,461.31L97.35,461V459.1l1.72,0.28v-2l2.26-.29v2.64l4.56,0.72v1.92l-4.56-.72v2.5a3.4,3.4,0,0,0,.5,2,2.08,2.08,0,0,0,1.41.83,2.92,2.92,0,0,0,.85,0,2.82,2.82,0,0,0,.69-0.18,3.19,3.19,0,0,0,.56-0.3l0.46-.31,1,1.74a2.68,2.68,0,0,1-.74.52,5.23,5.23,0,0,1-1,.36,5.33,5.33,0,0,1-1.07.17,5,5,0,0,1-1.1,0,4.43,4.43,0,0,1-2.93-1.56,5.78,5.78,0,0,1-1-3.63v-2.5Z"/><path class="cls-4" d="M107.5,457.21l3.52,0.54v4.48h0.07a2.37,2.37,0,0,1,1.11-.72,3.56,3.56,0,0,1,1.64-.08,4.48,4.48,0,0,1,1.22.36,2.84,2.84,0,0,1,1,.72,3.29,3.29,0,0,1,.63,1.19,5.89,5.89,0,0,1,.23,1.74v5.44l-2.26-.34v-5a2.45,2.45,0,0,0-.45-1.61,1.85,1.85,0,0,0-1.18-.65,1.77,1.77,0,0,0-1.18.21,1.72,1.72,0,0,0-.77.89V470l-2.26-.35V459.33l-1.25-.19v-1.92Z"/><path class="cls-4" d="M121.77,470.45a1.09,1.09,0,0,1,.38-0.91,1.27,1.27,0,0,1,1-.21,1.71,1.71,0,0,1,1,.51,1.45,1.45,0,0,1,.38,1,1.12,1.12,0,0,1-.38.93,1.3,1.3,0,0,1-1,.22,1.63,1.63,0,0,1-1-.51A1.49,1.49,0,0,1,121.77,470.45Z"/><path class="cls-4" d="M129.64,472.74v-1.92l2.06,0.29v-4.9l-2.07-.29V464l2.07,0.29v-0.49a3,3,0,0,1,.29-1.38,2.33,2.33,0,0,1,.76-0.87,2.66,2.66,0,0,1,1.09-.42,4.34,4.34,0,0,1,1.28,0,8.72,8.72,0,0,1,2,.47,5.87,5.87,0,0,1,1.28.67l-0.66,1.64a9.25,9.25,0,0,0-.86-0.47,4.12,4.12,0,0,0-1.19-.32,1.52,1.52,0,0,0-1.32.25,1.7,1.7,0,0,0-.38,1.23l3.66,0.5V467l-3.66-.5v4.9l3.68,0.51v1.92Z"/><path class="cls-4" d="M140.44,466.08a8.6,8.6,0,0,1,1.61-.33,9,9,0,0,1,2.17.06,5.2,5.2,0,0,1,1.54.42,3.08,3.08,0,0,1,1,.76,2.78,2.78,0,0,1,.57,1,4.45,4.45,0,0,1,.17,1.28q0,0.89-.06,1.51t-0.06,1.11a7.61,7.61,0,0,0,0,.83c0,0.16,0,.33.05,0.48l1.13,0.15v1.92l-2.93-.38-0.23-1.22H145.4a2.49,2.49,0,0,1-1,.81,3.09,3.09,0,0,1-1.73.16,3.35,3.35,0,0,1-2.06-1,2.74,2.74,0,0,1-.76-2,2.57,2.57,0,0,1,.27-1.23,1.86,1.86,0,0,1,.78-0.77,3.28,3.28,0,0,1,1.23-.34,7.09,7.09,0,0,1,1.6,0q0.31,0,.66.12l0.85,0.18a1.73,1.73,0,0,0,0-.35v-0.33a1.27,1.27,0,0,0-.38-1,2.08,2.08,0,0,0-1.13-.44,5.07,5.07,0,0,0-1.59,0,9.24,9.24,0,0,0-1.2.3Zm3,6.82a1.94,1.94,0,0,0,1.24-.14,1.69,1.69,0,0,0,.6-0.58v-1l-0.52-.15a6.42,6.42,0,0,0-.74-0.14,3.61,3.61,0,0,0-.66,0,2,2,0,0,0-.59.12,1,1,0,0,0-.41.29,0.74,0.74,0,0,0-.15.49,1.13,1.13,0,0,0,.28.8A1.51,1.51,0,0,0,143.41,472.9Z"/><path class="cls-4" d="M158.88,475.77a4.37,4.37,0,0,1-1.68.61,7.14,7.14,0,0,1-2,0,6.17,6.17,0,0,1-2-.59,4.9,4.9,0,0,1-1.48-1.12,4.69,4.69,0,0,1-.92-1.58,5.8,5.8,0,0,1-.31-1.93,4.61,4.61,0,0,1,.37-1.91,3.45,3.45,0,0,1,1-1.32,3.77,3.77,0,0,1,1.55-.71,5.74,5.74,0,0,1,1.94-.06,7.66,7.66,0,0,1,1.83.46,9.65,9.65,0,0,1,1.31.6v3.08l-1.92-.24v-1.61a5.26,5.26,0,0,0-1.08-.26,3.17,3.17,0,0,0-1,0,2,2,0,0,0-1.47,1.1,2.5,2.5,0,0,0-.24,1.14,2.89,2.89,0,0,0,1.6,2.61,3.39,3.39,0,0,0,1.14.34,3.9,3.9,0,0,0,1.63-.08,5.74,5.74,0,0,0,1-.37Z"/><path class="cls-4" d="M161.84,470.14l-1.73-.21V468l1.73,0.21v-2l2.27-.37v2.64l4.58,0.54V471l-4.58-.54v2.5a3.3,3.3,0,0,0,.51,2,2,2,0,0,0,1.42.77,2.84,2.84,0,0,0,1.55-.22,3.38,3.38,0,0,0,.56-0.32l0.46-.33,1,1.7a2.84,2.84,0,0,1-.74.55,5.53,5.53,0,0,1-2,.61,5,5,0,0,1-1.1,0,4.26,4.26,0,0,1-2.94-1.45,5.59,5.59,0,0,1-1-3.59v-2.5Z"/><path class="cls-4" d="M170.91,473.67a5.09,5.09,0,0,1,.33-1.92,3.43,3.43,0,0,1,.94-1.34,3.49,3.49,0,0,1,1.46-.73,5.38,5.38,0,0,1,1.9-.09,5.88,5.88,0,0,1,2,.55,4.74,4.74,0,0,1,1.46,1.1,4.54,4.54,0,0,1,.9,1.56,5.88,5.88,0,0,1,.31,1.92,5.11,5.11,0,0,1-.33,1.92,3.38,3.38,0,0,1-2.4,2.09,5.35,5.35,0,0,1-1.9.09,5.85,5.85,0,0,1-2-.56,4.73,4.73,0,0,1-1.46-1.1,4.57,4.57,0,0,1-.9-1.57A5.91,5.91,0,0,1,170.91,473.67Zm2.34,0.27a3.63,3.63,0,0,0,.16,1.09,3,3,0,0,0,.45.91,2.43,2.43,0,0,0,.72.65,2.39,2.39,0,0,0,1,.31,2,2,0,0,0,1.65-.46,2.57,2.57,0,0,0,.64-2,3.32,3.32,0,0,0-.59-2,2.32,2.32,0,0,0-1.7-.93,2.6,2.6,0,0,0-.91,0,1.54,1.54,0,0,0-.73.4,2,2,0,0,0-.48.79A3.59,3.59,0,0,0,173.26,473.94Z"/><path class="cls-4" d="M181.47,477.3l2.17,0.23v-4.9l-2.17-.24v-1.92l3.94,0.42,0.26,1.18h0.07a4,4,0,0,1,1.12-.84,2.6,2.6,0,0,1,1.47-.23A2.24,2.24,0,0,1,190,472a4.55,4.55,0,0,1,.6,2.64l-2-.21a1.88,1.88,0,0,0-.18-0.94,0.73,0.73,0,0,0-.59-0.35,1.6,1.6,0,0,0-1.13.23,3,3,0,0,0-.73.73v3.73l3.8,0.4v1.92l-8.24-.88V477.3Z"/><path class="cls-4" d="M192.32,478.45l3.08,0.31v-4.9l-3.08-.31v-1.92l5.35,0.54V479l3.24,0.32v1.92l-8.59-.86v-1.92Zm2.66-8.94a1.11,1.11,0,0,1,.4-0.89,1.43,1.43,0,0,1,1.12-.27,1.88,1.88,0,0,1,1.17.5,1.33,1.33,0,0,1,.44,1,1,1,0,0,1-.44.88,1.67,1.67,0,0,1-1.17.24,1.78,1.78,0,0,1-1.12-.47A1.3,1.3,0,0,1,195,469.51Z"/><path class="cls-4" d="M203.36,473.31a8.86,8.86,0,0,1,1.62-.39,9.07,9.07,0,0,1,2.18,0,5.09,5.09,0,0,1,1.55.36,2.92,2.92,0,0,1,1,.72,2.65,2.65,0,0,1,.57,1,4.37,4.37,0,0,1,.17,1.28q0,0.89-.06,1.52t-0.06,1.11a7.54,7.54,0,0,0,0,.83c0,0.16,0,.32.05,0.48l1.14,0.1v1.92l-2.94-.27-0.23-1.21h-0.09a2.63,2.63,0,0,1-1,.84,3.15,3.15,0,0,1-1.74.23,3.23,3.23,0,0,1-2.07-.9,2.88,2.88,0,0,1-.5-3.17,2,2,0,0,1,.78-0.8,3.41,3.41,0,0,1,1.24-.39,7.12,7.12,0,0,1,1.61,0q0.31,0,.66.1l0.85,0.15a1.75,1.75,0,0,0,0-.35v-0.33a1.23,1.23,0,0,0-.38-1,2,2,0,0,0-1.13-.39,5.13,5.13,0,0,0-1.6.08,9.56,9.56,0,0,0-1.2.34Zm3,6.7a2,2,0,0,0,1.25-.19,1.79,1.79,0,0,0,.61-0.6v-1l-0.52-.13a6.33,6.33,0,0,0-.74-0.11,3.61,3.61,0,0,0-.66,0,2,2,0,0,0-.59.14,1,1,0,0,0-.42.3,0.76,0.76,0,0,0-.16.49,1.09,1.09,0,0,0,.29.79A1.46,1.46,0,0,0,206.34,480Z"/><path class="cls-4" d="M213.82,470.18l3.73,0.33v8.08a3.93,3.93,0,0,0,.33,1.9,1.29,1.29,0,0,0,1.07.62,2.88,2.88,0,0,0,.89,0,3.15,3.15,0,0,0,.7-0.26l0.86,1.65-0.6.31a3.49,3.49,0,0,1-.63.23,4,4,0,0,1-.73.11,5.72,5.72,0,0,1-.88,0,3.6,3.6,0,0,1-2.47-1.05,3.52,3.52,0,0,1-.82-2.45v-7.35l-1.45-.13v-1.92Z"/><path class="cls-4" d="M230.77,487.57a8.75,8.75,0,0,1-2.38-1,7.83,7.83,0,0,1-2.05-1.72,8.24,8.24,0,0,1-1.43-2.5,9.47,9.47,0,0,1-.53-3.3,8.76,8.76,0,0,1,.53-3.2,6.83,6.83,0,0,1,1.43-2.29,6.33,6.33,0,0,1,2.05-1.43,8.14,8.14,0,0,1,2.38-.63l0.42,1.91a6.91,6.91,0,0,0-1.39.39,4.56,4.56,0,0,0-1.48,1,5.24,5.24,0,0,0-1.18,1.73,7.93,7.93,0,0,0,0,5.51,6.69,6.69,0,0,0,1.24,1.91,6.12,6.12,0,0,0,1.5,1.19,6.5,6.5,0,0,0,1.3.57Z"/><path class="cls-4" d="M237.66,482.7a3.52,3.52,0,0,0,1.06-.07,2.29,2.29,0,0,0,.82-0.36,1.81,1.81,0,0,0,.53-0.59,1.53,1.53,0,0,0,.19-0.76,1.67,1.67,0,0,0-.82-1.51,3.13,3.13,0,0,0-.93-0.37,7.69,7.69,0,0,0-1.17-.17l-1-.07v-1.26l2.94-3.37-4.43-.33v-1.92l7.15,0.53V474l-3.09,3.29,0.4,0a3.62,3.62,0,0,1,1.19.3,3.25,3.25,0,0,1,1,.7,3.44,3.44,0,0,1,.72,1.1,3.79,3.79,0,0,1,.27,1.47,3.41,3.41,0,0,1-.41,1.72,3.59,3.59,0,0,1-1.09,1.19,4.29,4.29,0,0,1-1.55.66,6.31,6.31,0,0,1-1.81.12,9.27,9.27,0,0,1-1.58-.26,8.14,8.14,0,0,1-1.52-.55l0.61-1.84a2.61,2.61,0,0,0,.43.21l0.61,0.22q0.34,0.11.7,0.19A5,5,0,0,0,237.66,482.7Z"/><path class="cls-4" d="M245.94,486.78a5.67,5.67,0,0,0,1.3-.37,5,5,0,0,0,1.5-1,5.47,5.47,0,0,0,1.24-1.73,6.22,6.22,0,0,0,.51-2.68,7.35,7.35,0,0,0-.48-2.83,6.43,6.43,0,0,0-1.18-1.91,5.62,5.62,0,0,0-1.48-1.17,7.94,7.94,0,0,0-1.39-.59l0.42-1.84a9.32,9.32,0,0,1,2.38,1,7.83,7.83,0,0,1,2.05,1.73,8.29,8.29,0,0,1,1.43,2.5,9.4,9.4,0,0,1,.54,3.28,8.81,8.81,0,0,1-.54,3.22,6.8,6.8,0,0,1-1.43,2.29,6.34,6.34,0,0,1-2.05,1.42,7.71,7.71,0,0,1-2.38.61Z"/><path class="cls-4" d="M379.17,482.3l0.09-1.91h-0.11l-2,3.22h-0.42l-2.06-3.18h-0.09l0.1,1.71v6.72l-2.28,0c0-4.9,0-7.35,0-12.25l2.44,0L377,480h0.07l2.09-3.42,2.42,0v12.25l-2.41,0V482.3Z"/><path class="cls-4" d="M383.86,480.61a9.74,9.74,0,0,1,1.62-.57,9.34,9.34,0,0,1,2.19-.26,4.83,4.83,0,0,1,1.55.19,2.54,2.54,0,0,1,1,.6,2.32,2.32,0,0,1,.57,1,4.18,4.18,0,0,1,.18,1.26q0,0.89-.06,1.52t-0.06,1.12a7.62,7.62,0,0,0,0,.82c0,0.16,0,.32.05,0.47l1.14,0v1.92l-2.95.05-0.23-1.19h-0.09a3.1,3.1,0,0,1-1,1,3.36,3.36,0,0,1-1.74.42,2.92,2.92,0,0,1-2.08-.67,2.35,2.35,0,0,1-.77-1.84,2.8,2.8,0,0,1,.27-1.27,2.31,2.31,0,0,1,.79-0.89,3.81,3.81,0,0,1,1.24-.53,7.32,7.32,0,0,1,1.61-.19q0.31,0,.66,0l0.85,0.05a1.76,1.76,0,0,0,0-.35v-0.33a1.1,1.1,0,0,0-.38-0.95,1.85,1.85,0,0,0-1.13-.27,5.34,5.34,0,0,0-1.6.25,10.67,10.67,0,0,0-1.2.47Zm3,6.38a1.94,1.94,0,0,0,1.86-1v-1l-0.52-.07a6.06,6.06,0,0,0-.75,0,3.7,3.7,0,0,0-.66.07,2.22,2.22,0,0,0-.59.2,1.19,1.19,0,0,0-.42.35,0.84,0.84,0,0,0-.16.51,1,1,0,0,0,.29.76A1.33,1.33,0,0,0,386.85,487Z"/><path class="cls-4" d="M394.86,481.74l-1.74,0v-1.92l1.74,0v-2l2.28-.7v2.64l4.6-.11v1.92l-4.6.11v2.5a3,3,0,0,0,.51,1.94,1.72,1.72,0,0,0,1.42.57,3.08,3.08,0,0,0,.86-0.13,3.35,3.35,0,0,0,.69-0.31,4.09,4.09,0,0,0,.56-0.4l0.47-.4,1.05,1.55a3.49,3.49,0,0,1-.75.66,6.45,6.45,0,0,1-1,.53,6.15,6.15,0,0,1-1.08.37,5.2,5.2,0,0,1-1.11.15,3.71,3.71,0,0,1-3-1,5,5,0,0,1-1-3.45v-2.5Z"/><path class="cls-4" d="M403.36,476.11l3.55-.1v4.48H407a3.07,3.07,0,0,1,1.12-.93,3.91,3.91,0,0,1,1.65-.38,4.09,4.09,0,0,1,1.23.14,2.24,2.24,0,0,1,1,.55,2.6,2.6,0,0,1,.63,1.07,5.44,5.44,0,0,1,.23,1.7c0,2.18,0,3.27,0,5.44l-2.28.07v-5a2.11,2.11,0,0,0-.46-1.53,1.54,1.54,0,0,0-1.19-.44,2,2,0,0,0-1.19.43,2.23,2.23,0,0,0-.77,1v5.58l-2.28.06V478l-1.26,0v-1.92Z"/><path class="cls-4" d="M417.74,486.77a1.3,1.3,0,0,1,.39-1,1.48,1.48,0,0,1,1-.4,1.44,1.44,0,0,1,1.05.32,1.22,1.22,0,0,1,.39,1,1.34,1.34,0,0,1-.39,1,1.51,1.51,0,0,1-1.05.41,1.37,1.37,0,0,1-1-.33A1.25,1.25,0,0,1,417.74,486.77Z"/><path class="cls-4" d="M425.67,487.62V485.7l2.07-.08v-4.9l-2.09.08v-1.92l2.09-.08V478.3a3.27,3.27,0,0,1,.29-1.43,3,3,0,0,1,.76-1,3.3,3.3,0,0,1,1.1-.61,4.62,4.62,0,0,1,1.29-.24,8.15,8.15,0,0,1,2,.11,4.86,4.86,0,0,1,1.29.44l-0.67,1.76a7.56,7.56,0,0,0-.87-0.31,3.79,3.79,0,0,0-1.2-.1,1.77,1.77,0,0,0-1.33.49,2,2,0,0,0-.38,1.3l3.69-.16v1.92l-3.69.16c0,2,0,2.94,0,4.9l3.7-.16v1.92Z"/><path class="cls-4" d="M436.54,479a10,10,0,0,1,1.62-.62,9.45,9.45,0,0,1,2.18-.33,4.78,4.78,0,0,1,1.55.14,2.44,2.44,0,0,1,1,.57,2.22,2.22,0,0,1,.57.93,4.13,4.13,0,0,1,.18,1.25q0,0.89-.06,1.53t-0.06,1.12a7.58,7.58,0,0,0,0,.82c0,0.16,0,.32.05,0.47l1.14-.06v1.92l-2.95.15-0.23-1.18h-0.09a3.25,3.25,0,0,1-1,1,3.44,3.44,0,0,1-1.74.48,2.84,2.84,0,0,1-2.08-.6,2.28,2.28,0,0,1-.77-1.82,2.85,2.85,0,0,1,.27-1.28,2.42,2.42,0,0,1,.79-0.91,3.94,3.94,0,0,1,1.24-.57,7.4,7.4,0,0,1,1.61-.24q0.31,0,.66,0l0.85,0a1.78,1.78,0,0,0,0-.35v-0.33a1.06,1.06,0,0,0-.38-0.94,1.81,1.81,0,0,0-1.13-.23,5.42,5.42,0,0,0-1.6.3,11.06,11.06,0,0,0-1.2.51Zm3,6.28a2.18,2.18,0,0,0,1.25-.37,2.22,2.22,0,0,0,.61-0.69v-1l-0.52-.05a6.14,6.14,0,0,0-.75,0,3.75,3.75,0,0,0-.66.09,2.29,2.29,0,0,0-.59.22,1.24,1.24,0,0,0-.42.36,0.86,0.86,0,0,0-.16.52,1,1,0,0,0,.29.75A1.3,1.3,0,0,0,439.53,485.28Z"/><path class="cls-4" d="M455.07,485.35a5.38,5.38,0,0,1-1.68.91,7.59,7.59,0,0,1-2,.38,5.6,5.6,0,0,1-2-.22,3.84,3.84,0,0,1-1.49-.86,3.69,3.69,0,0,1-.92-1.41,5.29,5.29,0,0,1-.32-1.87,5.06,5.06,0,0,1,.37-2,4.45,4.45,0,0,1,1-1.51,4.75,4.75,0,0,1,1.55-1,6.19,6.19,0,0,1,1.95-.41,7.1,7.1,0,0,1,1.84.12,8.19,8.19,0,0,1,1.32.36c0,1.23,0,1.85,0,3.08l-1.93.11v-1.61a4.92,4.92,0,0,0-1.09-.06,3.39,3.39,0,0,0-1,.2,2.57,2.57,0,0,0-.86.52,2.67,2.67,0,0,0-.61.85,2.76,2.76,0,0,0-.24,1.19,2.63,2.63,0,0,0,.19,1,2.23,2.23,0,0,0,1.41,1.3,3.07,3.07,0,0,0,1.15.14,4.23,4.23,0,0,0,1.64-.37,7.13,7.13,0,0,0,1-.54Z"/><path class="cls-4" d="M458.05,479.19l-1.74.1v-1.92l1.74-.1v-2l2.28-.79v2.64l4.6-.29v1.92l-4.6.29v2.5a2.88,2.88,0,0,0,.51,1.92,1.65,1.65,0,0,0,1.42.52,3.13,3.13,0,0,0,.86-0.17,3.5,3.5,0,0,0,.69-0.33,4.3,4.3,0,0,0,.56-0.42l0.46-.42,1.05,1.51a3.69,3.69,0,0,1-.75.69,6.77,6.77,0,0,1-1,.57,6.37,6.37,0,0,1-1.08.41A5.27,5.27,0,0,1,462,486a3.58,3.58,0,0,1-3-.91,4.84,4.84,0,0,1-1-3.41v-2.5Z"/><path class="cls-4" d="M467.15,481.07a5.56,5.56,0,0,1,.33-2,4.38,4.38,0,0,1,.95-1.51,4.43,4.43,0,0,1,1.46-1,5.82,5.82,0,0,1,1.9-.44,5.35,5.35,0,0,1,2,.2,3.72,3.72,0,0,1,1.46.83,3.58,3.58,0,0,1,.9,1.4,5.39,5.39,0,0,1,.31,1.87,5.57,5.57,0,0,1-.33,2,4.35,4.35,0,0,1-2.41,2.52,5.78,5.78,0,0,1-1.9.44,5.32,5.32,0,0,1-2-.2,3.72,3.72,0,0,1-1.46-.84,3.59,3.59,0,0,1-.9-1.4A5.4,5.4,0,0,1,467.15,481.07Zm2.35-.15a3.37,3.37,0,0,0,.16,1.06,2.4,2.4,0,0,0,.46.83,1.88,1.88,0,0,0,.72.52,2.13,2.13,0,0,0,1,.14,2.39,2.39,0,0,0,1.66-.76,3,3,0,0,0,.64-2.09,2.86,2.86,0,0,0-.6-1.91,1.92,1.92,0,0,0-1.7-.63,2.82,2.82,0,0,0-.91.21,2,2,0,0,0-.73.53,2.58,2.58,0,0,0-.48.87A3.88,3.88,0,0,0,469.5,480.91Z"/><path class="cls-4" d="M477.74,482.79l2.17-.16v-4.9l-2.17.16V476l3.94-.29,0.26,1.14H482a5.18,5.18,0,0,1,1.12-1,3,3,0,0,1,1.47-.5,1.85,1.85,0,0,1,1.66.64,4,4,0,0,1,.6,2.53l-2.05.16a1.68,1.68,0,0,0-.18-0.9,0.6,0.6,0,0,0-.59-0.24,1.86,1.86,0,0,0-1.13.44,3.92,3.92,0,0,0-.73.86v3.73l3.8-.29v1.92l-8.26.61v-1.92Z"/><path class="cls-4" d="M488.61,482l3.08-.24v-4.9l-3.08.24v-1.92l5.36-.43v6.83l3.24-.27v1.92l-8.6.7V482Zm2.66-9.42a1.34,1.34,0,0,1,.4-1,1.69,1.69,0,0,1,1.12-.48,1.61,1.61,0,0,1,1.17.29,1.09,1.09,0,0,1,.44.89,1.24,1.24,0,0,1-.44,1,1.93,1.93,0,0,1-1.17.45,1.53,1.53,0,0,1-1.12-.27A1.08,1.08,0,0,1,491.28,472.56Z"/><path class="cls-4" d="M499.67,474.85a10.41,10.41,0,0,1,1.62-.68,9.6,9.6,0,0,1,2.18-.42,4.71,4.71,0,0,1,1.55.08,2.32,2.32,0,0,1,1,.53,2.11,2.11,0,0,1,.57.91,4.07,4.07,0,0,1,.17,1.24q0,0.89-.06,1.53t-0.06,1.13a7.55,7.55,0,0,0,0,.82c0,0.16,0,.32.05,0.47l1.14-.1v1.92l-2.94.26-0.23-1.17h-0.09a3.44,3.44,0,0,1-1,1,3.54,3.54,0,0,1-1.74.54,2.75,2.75,0,0,1-2.07-.52,2.19,2.19,0,0,1-.77-1.79,2.93,2.93,0,0,1,.27-1.29,2.56,2.56,0,0,1,.78-0.94,4.11,4.11,0,0,1,1.24-.61,7.52,7.52,0,0,1,1.61-.31q0.31,0,.66,0h0.85a1.81,1.81,0,0,0,0-.35v-0.33a1,1,0,0,0-.38-0.92,1.76,1.76,0,0,0-1.13-.19,5.53,5.53,0,0,0-1.6.37,11.5,11.5,0,0,0-1.2.56Zm3,6.17a2.25,2.25,0,0,0,1.25-.42,2.35,2.35,0,0,0,.61-0.71v-1l-0.52,0a6.13,6.13,0,0,0-.74,0,3.8,3.8,0,0,0-.66.12,2.37,2.37,0,0,0-.59.24,1.32,1.32,0,0,0-.42.38,0.89,0.89,0,0,0-.16.52,0.92,0.92,0,0,0,.29.74A1.26,1.26,0,0,0,502.65,481Z"/><path class="cls-4" d="M510.12,469.83l3.73-.35v8.08a3.56,3.56,0,0,0,.33,1.84,1.06,1.06,0,0,0,1.07.42,3.09,3.09,0,0,0,.89-0.2,3.85,3.85,0,0,0,.7-0.39l0.86,1.49-0.59.42a4.27,4.27,0,0,1-.63.34,4.6,4.6,0,0,1-.73.24,5.92,5.92,0,0,1-.88.15,3.07,3.07,0,0,1-2.47-.61,3,3,0,0,1-.82-2.3v-7.35l-1.45.13v-1.92Z"/><path class="cls-4" d="M520.47,483.14l7.77-.78v1.87l-7.77.78v-1.87Z"/><path class="cls-4" d="M529.61,467.93l3.53-.37V472h0.07a3.43,3.43,0,0,1,1.12-1,4.11,4.11,0,0,1,1.64-.51,4,4,0,0,1,1.22,0,2,2,0,0,1,1,.47,2.36,2.36,0,0,1,.63,1,5.29,5.29,0,0,1,.23,1.68v5.44l-2.27.25v-5a2,2,0,0,0-.45-1.49,1.44,1.44,0,0,0-1.19-.35,2.2,2.2,0,0,0-1.19.52,2.48,2.48,0,0,0-.77,1.09v5.58l-2.27.24c0-4.13,0-6.2,0-10.33l-1.26.13v-1.92Z"/><path class="cls-4" d="M549.44,477.07a3.59,3.59,0,0,1-.59.48,6.48,6.48,0,0,1-.84.47,7.23,7.23,0,0,1-2.28.65,5.72,5.72,0,0,1-2-.09,3.35,3.35,0,0,1-2.43-2.1,5.12,5.12,0,0,1-.32-1.9,5.46,5.46,0,0,1,.37-2.06,4.7,4.7,0,0,1,1-1.56,4.88,4.88,0,0,1,1.49-1,6.2,6.2,0,0,1,1.85-.5,5.62,5.62,0,0,1,1.37,0,3.33,3.33,0,0,1,1.3.46,2.73,2.73,0,0,1,1,1,3.64,3.64,0,0,1,.38,1.78,8.69,8.69,0,0,1-.17,1.65l-6.29.72a1.85,1.85,0,0,0,.24.92,1.59,1.59,0,0,0,.58.57,2.22,2.22,0,0,0,.82.27,4,4,0,0,0,1,0,5.42,5.42,0,0,0,1.72-.44,4.23,4.23,0,0,0,1.09-.72Zm-3.77-5.81a3.09,3.09,0,0,0-.86.22,2.77,2.77,0,0,0-.72.45,2.36,2.36,0,0,0-.53.66,2,2,0,0,0-.24.83l4.3-.49A1.53,1.53,0,0,0,545.66,471.26Z"/><path class="cls-4" d="M552.11,465.44l3.72-.44v8.08a3.51,3.51,0,0,0,.33,1.83,1,1,0,0,0,1.07.4,3.13,3.13,0,0,0,.89-0.22,4,4,0,0,0,.7-0.41l0.86,1.47-0.59.43a4.4,4.4,0,0,1-.63.36,4.68,4.68,0,0,1-.73.26,6,6,0,0,1-.88.17,3,3,0,0,1-2.46-.55,2.93,2.93,0,0,1-.82-2.28v-7.35l-1.45.17v-1.92Z"/><path class="cls-4" d="M561.07,467.86l3-.37,0.26,1h0.07a3.84,3.84,0,0,1,2.93-1.66,4,4,0,0,1,1.48.07,2.43,2.43,0,0,1,1.15.65,3.18,3.18,0,0,1,.74,1.27,6.24,6.24,0,0,1,.26,1.94,6.81,6.81,0,0,1-.3,2.06,5.05,5.05,0,0,1-.86,1.64,4.39,4.39,0,0,1-1.36,1.14,5.19,5.19,0,0,1-1.83.57,7.05,7.05,0,0,1-1.07.06,2.67,2.67,0,0,1-.87-0.14v3.59l-2.27.28c0-4.13,0-6.2,0-10.33l-1.31.16v-1.92Zm5.55,1a2.58,2.58,0,0,0-1.21.49,2,2,0,0,0-.76,1.09v3.64a1.65,1.65,0,0,0,.71.22,3.8,3.8,0,0,0,.93,0,2.65,2.65,0,0,0,.91-0.28,2.22,2.22,0,0,0,.73-0.63,3,3,0,0,0,.49-1,4.8,4.8,0,0,0,.18-1.37,2.34,2.34,0,0,0-.56-1.71A1.61,1.61,0,0,0,566.63,468.85Z"/><path class="cls-4" d="M580.87,473.13a3.68,3.68,0,0,1-.58.49,6.63,6.63,0,0,1-.84.49,7.33,7.33,0,0,1-2.28.69,5.69,5.69,0,0,1-2-.05,3.26,3.26,0,0,1-2.43-2.05,5.08,5.08,0,0,1-.32-1.89,5.52,5.52,0,0,1,.37-2.07,4.82,4.82,0,0,1,1-1.57,5,5,0,0,1,1.49-1.06,6.27,6.27,0,0,1,1.85-.53,5.6,5.6,0,0,1,1.37,0,3.26,3.26,0,0,1,1.3.43,2.65,2.65,0,0,1,1,1,3.61,3.61,0,0,1,.37,1.77,8.76,8.76,0,0,1-.17,1.65l-6.28.84a1.83,1.83,0,0,0,.24.91,1.54,1.54,0,0,0,.58.55,2.18,2.18,0,0,0,.82.25,4,4,0,0,0,1,0,5.49,5.49,0,0,0,1.72-.47,4.34,4.34,0,0,0,1.09-.74Zm-3.77-5.74a3.12,3.12,0,0,0-.86.24,2.84,2.84,0,0,0-.72.46,2.42,2.42,0,0,0-.53.67,2.06,2.06,0,0,0-.24.83L579,469a1.71,1.71,0,0,0-.48-1.32A1.73,1.73,0,0,0,577.1,467.39Z"/><path class="cls-4" d="M582.7,471.88l2.16-.3v-4.9l-2.16.3v-1.92l3.92-.54,0.26,1.12H587a5.68,5.68,0,0,1,1.12-1.12,3.11,3.11,0,0,1,1.47-.59,1.73,1.73,0,0,1,1.65.54,3.85,3.85,0,0,1,.6,2.49l-2,.29a1.62,1.62,0,0,0-.18-0.89,0.56,0.56,0,0,0-.58-0.21,2,2,0,0,0-1.12.51,4.3,4.3,0,0,0-.72.91v3.73l3.78-.53v1.92l-8.21,1.14v-1.92Z"/><path class="cls-4" d="M600.41,475a7.24,7.24,0,0,1-2.37-.42,5.67,5.67,0,0,1-2-1.26,6.13,6.13,0,0,1-1.42-2.17,8.52,8.52,0,0,1-.53-3.18,9.81,9.81,0,0,1,.53-3.32A9.17,9.17,0,0,1,596,462a8.75,8.75,0,0,1,2-1.89,10.07,10.07,0,0,1,2.37-1.17l0.42,1.81a8.55,8.55,0,0,0-1.39.7,6.24,6.24,0,0,0-1.47,1.28,7.12,7.12,0,0,0-1.18,2,7.67,7.67,0,0,0-.48,2.87,6,6,0,0,0,.51,2.64,4.89,4.89,0,0,0,1.23,1.63,4.46,4.46,0,0,0,1.49.85,5.28,5.28,0,0,0,1.29.27Z"/><path class="cls-4" d="M604.79,468.71l2.66-.4v-7.65l-2.3,2.12-1-1.24,4-3.65,1.53-.23c0,4.13,0,6.2,0,10.33l2.61-.4v1.92l-7.43,1.14v-1.92Z"/><path class="cls-4" d="M617.18,467.61a1.41,1.41,0,0,1,.39-1,1.68,1.68,0,0,1,1-.51,1.49,1.49,0,0,1,1.44.4,2.16,2.16,0,0,1,.49,1.48,3.66,3.66,0,0,1-.3,1.48,4.7,4.7,0,0,1-.79,1.25,5.35,5.35,0,0,1-1.09.94,5.23,5.23,0,0,1-1.19.59l-0.47-.89a5.94,5.94,0,0,0,.84-0.43,4.28,4.28,0,0,0,.77-0.6,3.4,3.4,0,0,0,.58-0.77,2.14,2.14,0,0,0,.27-0.88,2.3,2.3,0,0,1-.89.17,1.15,1.15,0,0,1-.6-0.19,0.92,0.92,0,0,1-.34-0.44A1.67,1.67,0,0,1,617.18,467.61Z"/><path class="cls-4" d="M628.14,465.28a3.93,3.93,0,0,0,1.05-.32,3.07,3.07,0,0,0,.82-0.55,2.54,2.54,0,0,0,.53-0.72,1.81,1.81,0,0,0,.19-0.81,1.48,1.48,0,0,0-.22-0.84,1.23,1.23,0,0,0-.6-0.47,2.58,2.58,0,0,0-.92-0.14,7.42,7.42,0,0,0-1.16.11l-1,.16v-1.26l2.92-4.07-4.4.72v-1.92l7.09-1.17v1.59l-3.06,4,0.4-.07a3.26,3.26,0,0,1,1.18,0,2.38,2.38,0,0,1,1,.46,2.45,2.45,0,0,1,.71.93,3.35,3.35,0,0,1,.27,1.41,4,4,0,0,1-.41,1.82,5.1,5.1,0,0,1-1.08,1.45,5.71,5.71,0,0,1-1.54,1,7,7,0,0,1-1.79.55,8.8,8.8,0,0,1-1.57.12,6.8,6.8,0,0,1-1.51-.19l0.61-2a2.06,2.06,0,0,0,.43.11l0.61,0.08a6.46,6.46,0,0,0,.69,0A4.83,4.83,0,0,0,628.14,465.28Z"/><path class="cls-4" d="M636.35,467.38a7.11,7.11,0,0,0,1.29-.68,7,7,0,0,0,1.49-1.32,7.61,7.61,0,0,0,1.22-2,7.15,7.15,0,0,0,.5-2.8,6.55,6.55,0,0,0-.48-2.72,4.62,4.62,0,0,0-1.17-1.63,4,4,0,0,0-1.47-.82,6.38,6.38,0,0,0-1.38-.26l0.42-1.94a7.57,7.57,0,0,1,2.36.42,5.55,5.55,0,0,1,2,1.24,6,6,0,0,1,1.42,2.16,8.44,8.44,0,0,1,.53,3.15,10,10,0,0,1-.53,3.35,9.26,9.26,0,0,1-1.42,2.63,8.9,8.9,0,0,1-2,1.91,9.57,9.57,0,0,1-2.36,1.17Z"/></svg>