<svg id="Layer_1" data-name="Layer 1" xmlns="http://www.w3.org/2000/svg" viewBox="0 0 720 576"><defs><style>.cls-1,.cls-2,.cls-4,.cls-6{fill:#231f20;}.cls-1,.cls-3{stroke:#231f20;}.cls-1,.cls-6{stroke-miterlimit:10;}.cls-1,.cls-2,.cls-3{stroke-width:2px;}.cls-2{stroke:#000;}.cls-2,.cls-3{stroke-linecap:round;stroke-linejoin:round;}.cls-3,.cls-5{fill:#fff;}.cls-6{stroke:#fff;}</style></defs><title>Hanoi_Tower_Set_Elixir_1</title><path class="cls-1" d="M683,522.57c0-.14,0-0.29,0-0.43s0-.29,0-0.43V469.92H37.16s-0.25,51.74-.25,52.22c0,2.67,2.32,5.24,6.64,7.71,15.13,8.61,55.2,16.11,111,21.48S282,559.92,360,559.92c89.17,0,169.9-4.21,228.35-11,29.22-3.41,52.88-7.46,69.24-12,8.18-2.25,14.54-4.62,18.86-7.08,3.69-2.1,5.91-4.29,6.48-6.55H683v-0.73Z"/><ellipse class="cls-2" cx="360" cy="471" rx="322.89" ry="37.63"/><path class="cls-3" d="M683,471.09c0-.14,0-0.29,0-0.43s0-.29,0-0.43V418.44H37.16s-0.25,51.74-.25,52.22c0,2.67,2.32,5.24,6.64,7.71,15.13,8.61,55.2,16.11,111,21.48S282,508.44,360,508.44c89.17,0,169.9-4.21,228.35-11,29.22-3.41,52.88-7.46,69.24-12,8.18-2.25,14.54-4.62,18.86-7.08,3.69-2.1,5.91-4.29,6.48-6.55H683v-0.73Z"/><ellipse class="cls-3" cx="360" cy="419.52" rx="322.89" ry="37.63"/><path class="cls-4" d="M360,428.3c-16,0-29-3.75-30.2-8.61h-0.08l0-.5V24.35h60.63V419.69H390.2C389,424.55,376,428.3,360,428.3Z"/><path class="cls-5" d="M389.82,24.85V419.19h0c-0.49,4.78-13.63,8.61-29.79,8.61s-29.3-3.83-29.79-8.61h0V419s0,0,0-.06,0,0,0-.06v-394h59.63m1-1H329.19v395s0,0.07,0,.11v1.27h0.23c2,5.6,16.84,8.61,30.58,8.61s28.6-3,30.58-8.61h0.21l0-1V23.85h0Z"/><ellipse class="cls-6" cx="359.99" cy="24.97" rx="29.81" ry="8.89"/><path class="cls-4" d="M45.72,450q0.9,0,2,0t2.15,0.24a15,15,0,0,1,2.23.53,6.58,6.58,0,0,1,2,1,5.31,5.31,0,0,1,1.46,1.75,5.56,5.56,0,0,1,.57,2.63,4.72,4.72,0,0,1-.49,2.28,3.72,3.72,0,0,1-1.3,1.41,4.48,4.48,0,0,1-1.85.64,7.7,7.7,0,0,1-2.15,0L50,460.46l-0.49-.09-0.5-.11-0.35-.1c0,2.07,0,3.11,0,5.18l-2.93-.46C45.72,458.93,45.72,455.95,45.72,450Zm4.36,2.86c-0.29,0-.56-0.08-0.81-0.09s-0.46,0-.62,0c0,2,0,2.93,0,4.88l0.26,0.08,0.36,0.09,0.37,0.07,0.27,0a6,6,0,0,0,1.14.07,2.47,2.47,0,0,0,1-.24,1.65,1.65,0,0,0,.72-0.7,2.7,2.7,0,0,0,.27-1.31,2.52,2.52,0,0,0-.93-2.06,3.12,3.12,0,0,0-1-.53A5.94,5.94,0,0,0,50.08,452.84Z"/><path class="cls-4" d="M68.4,467.21a3.13,3.13,0,0,1-.72.4,6.09,6.09,0,0,1-1,.31,7.22,7.22,0,0,1-1.29.15,8.26,8.26,0,0,1-1.5-.09,8,8,0,0,1-2.45-.75,5.95,5.95,0,0,1-3-3.36,7.18,7.18,0,0,1-.4-2.44A5.85,5.85,0,0,1,58.5,459a4,4,0,0,1,1.23-1.59,4.28,4.28,0,0,1,1.83-.79,6.8,6.8,0,0,1,2.27,0,7.6,7.6,0,0,1,1.68.46,5.51,5.51,0,0,1,1.59,1,4.92,4.92,0,0,1,1.19,1.58,5.25,5.25,0,0,1,.46,2.3,9.88,9.88,0,0,1-.21,2l-7.7-1.14a2.77,2.77,0,0,0,.29,1.2,2.85,2.85,0,0,0,.71.88,3.64,3.64,0,0,0,1,.59,5.45,5.45,0,0,0,1.21.32,6,6,0,0,0,2.11,0,3.73,3.73,0,0,0,1.34-.53Zm-4.62-8.36a3.4,3.4,0,0,0-1,0,2.48,2.48,0,0,0-.89.32,2,2,0,0,0-.65.64,2,2,0,0,0-.3.94l5.26,0.79a2.71,2.71,0,0,0-.59-1.78A2.74,2.74,0,0,0,63.78,458.85Z"/><path class="cls-4" d="M70.65,466.31l2.65,0.38v-6l-2.65-.38c0-.95,0-1.42,0-2.37l4.82,0.69,0.32,1.46h0.09a4.62,4.62,0,0,1,1.37-1,3.13,3.13,0,0,1,1.8-.22,2.86,2.86,0,0,1,2,1.23,5.73,5.73,0,0,1,.74,3.26L79.3,463a2.36,2.36,0,0,0-.22-1.16,0.93,0.93,0,0,0-.72-0.46,1.92,1.92,0,0,0-1.38.23,3.51,3.51,0,0,0-.89.86v4.58l4.65,0.66v2.37c-4-.57-6-0.85-10.08-1.44C70.65,467.73,70.65,467.25,70.65,466.31Z"/><path class="cls-4" d="M91.27,468.6a0.92,0.92,0,0,0-.52-0.76,8.89,8.89,0,0,0-1.3-.65l-1.69-.67a8.88,8.88,0,0,1-1.69-.86,5.18,5.18,0,0,1-1.3-1.19,2.64,2.64,0,0,1-.52-1.65,2.45,2.45,0,0,1,.35-1.35,2.62,2.62,0,0,1,1-.89,4,4,0,0,1,1.46-.43,7.29,7.29,0,0,1,1.83,0,10.62,10.62,0,0,1,1.84.4,10.16,10.16,0,0,1,1.38.55,6,6,0,0,1,1,.62l0.72,0.58-1.18,1.76q-0.32-.24-0.74-0.5c-0.28-.17-0.57-0.34-0.88-0.49a7.66,7.66,0,0,0-1-.41,5.07,5.07,0,0,0-1-.24,3.62,3.62,0,0,0-1.46,0,0.65,0.65,0,0,0-.56.65,0.86,0.86,0,0,0,.52.7,9.72,9.72,0,0,0,1.3.62l1.69,0.67a10.31,10.31,0,0,1,1.69.84,4.94,4.94,0,0,1,1.3,1.15,2.55,2.55,0,0,1,.52,1.62,2.67,2.67,0,0,1-1.19,2.41,5.19,5.19,0,0,1-3.52.46,9.15,9.15,0,0,1-3.18-1A8.89,8.89,0,0,1,84,469l1.28-1.84a7.79,7.79,0,0,0,.74.63,8,8,0,0,0,1,.67,10,10,0,0,0,1.23.57,5.76,5.76,0,0,0,1.3.34,2.55,2.55,0,0,0,1.18-.08A0.7,0.7,0,0,0,91.27,468.6Z"/><path class="cls-4" d="M96.26,466.86a6.22,6.22,0,0,1,.41-2.35,4.12,4.12,0,0,1,1.16-1.63,4.2,4.2,0,0,1,1.79-.87,6.56,6.56,0,0,1,2.33-.07,7.29,7.29,0,0,1,2.41.72,6,6,0,0,1,1.79,1.38,5.71,5.71,0,0,1,1.1,1.94,7.3,7.3,0,0,1,.37,2.37,6.23,6.23,0,0,1-.41,2.36,4.15,4.15,0,0,1-1.16,1.64,4.2,4.2,0,0,1-1.79.88,6.52,6.52,0,0,1-2.33.08,7.25,7.25,0,0,1-2.41-.72,6,6,0,0,1-1.79-1.39,5.74,5.74,0,0,1-1.1-1.94A7.31,7.31,0,0,1,96.26,466.86Zm2.87,0.38a4.53,4.53,0,0,0,.19,1.34,3.76,3.76,0,0,0,.56,1.13,3,3,0,0,0,.88.81,3,3,0,0,0,1.18.4,2.44,2.44,0,0,0,2-.53,3.12,3.12,0,0,0,.78-2.42,4.14,4.14,0,0,0-.73-2.49,2.9,2.9,0,0,0-2.08-1.18,3.18,3.18,0,0,0-1.11,0,1.84,1.84,0,0,0-.89.47,2.44,2.44,0,0,0-.59,1A4.4,4.4,0,0,0,99.13,467.24Z"/><path class="cls-4" d="M108.62,463.08l3.75,0.47L112.7,465h0.09a3.57,3.57,0,0,1,1.42-1,4.2,4.2,0,0,1,2.21-.24,5.41,5.41,0,0,1,1.49.4,3.34,3.34,0,0,1,1.19.85,4,4,0,0,1,.78,1.44,6.9,6.9,0,0,1,.29,2.13c0,2.67,0,4,0,6.69l-2.79-.34c0-2.44,0-3.66,0-6.11a2.84,2.84,0,0,0-.59-2,2.33,2.33,0,0,0-1.49-.76,2.25,2.25,0,0,0-1.45.28,2,2,0,0,0-.89,1c0,2.79,0,4.18,0,7l-2.79-.35c0-3.35,0-5,0-8.38l-1.54-.19C108.62,464.5,108.62,464,108.62,463.08Z"/><path class="cls-4" d="M125.93,474.52a1.38,1.38,0,0,1,.47-1.14,1.6,1.6,0,0,1,1.24-.3,2,2,0,0,1,1.29.59,1.74,1.74,0,0,1,.47,1.25,1.42,1.42,0,0,1-.47,1.15,1.63,1.63,0,0,1-1.29.3,2,2,0,0,1-1.24-.6A1.78,1.78,0,0,1,125.93,474.52Z"/><path class="cls-4" d="M145.49,478.13a4.49,4.49,0,0,1-.4,2,3.39,3.39,0,0,1-1.09,1.31,4,4,0,0,1-1.65.66,7.47,7.47,0,0,1-2.09,0,8.72,8.72,0,0,1-1.45-.28,9.12,9.12,0,0,1-1.25-.45,8,8,0,0,1-1-.53,4.57,4.57,0,0,1-.69-0.52l1.07-1.86a9,9,0,0,0,1.23.79,4.91,4.91,0,0,0,1.81.51,2.8,2.8,0,0,0,2.06-.4,2,2,0,0,0,.71-1.71V477h-0.09a2,2,0,0,1-1.14.64,5.39,5.39,0,0,1-1.74.06,5.81,5.81,0,0,1-1.9-.53,4.76,4.76,0,0,1-1.51-1.15,5.11,5.11,0,0,1-1-1.78,7.52,7.52,0,0,1-.35-2.41,6.65,6.65,0,0,1,.42-2.47,4.16,4.16,0,0,1,3-2.62,6.86,6.86,0,0,1,2.37-.11q0.69,0.08,1.37.2t1.3,0.28q0.61,0.15,1.13.33a7.69,7.69,0,0,1,.86.34C145.49,471.92,145.49,474,145.49,478.13Zm-5.15-2.62a2.78,2.78,0,0,0,1.47-.2,1.6,1.6,0,0,0,.89-1c0-1.93,0-2.9,0-4.84a3.74,3.74,0,0,0-.85-0.3,7.9,7.9,0,0,0-1-.19,3.13,3.13,0,0,0-1.13.07,2.08,2.08,0,0,0-.92.51,2.53,2.53,0,0,0-.62,1,4.32,4.32,0,0,0-.23,1.49,4.71,4.71,0,0,0,.19,1.4,3.37,3.37,0,0,0,.54,1.07,2.68,2.68,0,0,0,.77.7A2.3,2.3,0,0,0,140.33,475.51Z"/><path class="cls-4" d="M147.83,476l2.66,0.28v-6l-2.66-.28c0-.95,0-1.42,0-2.37l4.83,0.51,0.32,1.45h0.09a4.9,4.9,0,0,1,1.37-1,3.2,3.2,0,0,1,1.81-.29,2.74,2.74,0,0,1,2,1.15,5.57,5.57,0,0,1,.74,3.23l-2.51-.25a2.3,2.3,0,0,0-.23-1.15,0.89,0.89,0,0,0-.72-0.43,2,2,0,0,0-1.39.29,3.72,3.72,0,0,0-.89.9v4.58l4.66,0.48v2.37c-4-.41-6.07-0.62-10.12-1C147.83,477.44,147.83,477,147.83,476Z"/><path class="cls-4" d="M171.35,479.6a3.36,3.36,0,0,1-.72.44,6.43,6.43,0,0,1-1,.36,7.45,7.45,0,0,1-1.3.22,8.3,8.3,0,0,1-1.51,0,7.7,7.7,0,0,1-2.46-.63,5.54,5.54,0,0,1-3-3.21,7,7,0,0,1-.4-2.42,6,6,0,0,1,.45-2.44,4.32,4.32,0,0,1,1.24-1.65,4.57,4.57,0,0,1,1.84-.88,6.9,6.9,0,0,1,2.28-.13,7.4,7.4,0,0,1,1.69.38,5.19,5.19,0,0,1,1.6.89,4.57,4.57,0,0,1,1.19,1.52,5.08,5.08,0,0,1,.46,2.28,10,10,0,0,1-.21,2l-7.74-.74a2.55,2.55,0,0,0,1,2,3.43,3.43,0,0,0,1,.54,5.31,5.31,0,0,0,1.21.26,6.08,6.08,0,0,0,2.12-.1,4,4,0,0,0,1.34-.6Zm-4.64-8.12a3.44,3.44,0,0,0-1.05.05,2.63,2.63,0,0,0-.89.36,2.13,2.13,0,0,0-.66.67,2.09,2.09,0,0,0-.3,1L169.1,474A2.37,2.37,0,0,0,166.71,471.48Z"/><path class="cls-4" d="M184.25,480.78a3.39,3.39,0,0,1-.72.44,6.41,6.41,0,0,1-1,.37,7.52,7.52,0,0,1-1.3.23,8.28,8.28,0,0,1-1.51,0,7.68,7.68,0,0,1-2.46-.61,5.49,5.49,0,0,1-3-3.19,6.93,6.93,0,0,1-.4-2.41,6,6,0,0,1,.45-2.44,4.37,4.37,0,0,1,1.24-1.66,4.62,4.62,0,0,1,1.84-.9,6.92,6.92,0,0,1,2.28-.15,7.37,7.37,0,0,1,1.69.37,5.14,5.14,0,0,1,1.6.88,4.53,4.53,0,0,1,1.19,1.51,5,5,0,0,1,.46,2.28,10,10,0,0,1-.22,2l-7.74-.69a2.53,2.53,0,0,0,1,2,3.39,3.39,0,0,0,1,.53,5.27,5.27,0,0,0,1.21.25,6.09,6.09,0,0,0,2.12-.11,4,4,0,0,0,1.34-.61Zm-4.64-8.09a3.44,3.44,0,0,0-1.05.06,2.65,2.65,0,0,0-.89.37,2.15,2.15,0,0,0-.66.67,2.1,2.1,0,0,0-.3,1l5.29,0.48A2.36,2.36,0,0,0,179.61,472.69Z"/><path class="cls-4" d="M188.17,473.87l-2.13-.18v-2.37l2.13,0.18v-2.45l2.8-.56c0,1.3,0,1.95,0,3.25l5.64,0.47v2.37l-5.64-.47v3.07a4,4,0,0,0,.62,2.45,2.35,2.35,0,0,0,1.74.89,3.61,3.61,0,0,0,1.05-.05,3.65,3.65,0,0,0,.85-0.28,4.36,4.36,0,0,0,.69-0.42l0.57-.43,1.29,2a3.65,3.65,0,0,1-.91.71,7,7,0,0,1-2.51.84,6.2,6.2,0,0,1-1.36,0,5,5,0,0,1-3.62-1.65,6.68,6.68,0,0,1-1.22-4.37v-3.07Z"/><path class="cls-4" d="M199.85,480.86l3.79,0.3v-6l-3.79-.3v-2.37l6.58,0.52v8.38l4,0.3V484c-4.23-.32-6.34-0.48-10.57-0.82v-2.37Zm3.27-11a1.4,1.4,0,0,1,.49-1.1,1.79,1.79,0,0,1,1.38-.37,2.27,2.27,0,0,1,1.44.58,1.59,1.59,0,0,1,.54,1.18,1.28,1.28,0,0,1-.54,1.09,2.08,2.08,0,0,1-1.44.33,2.14,2.14,0,0,1-1.38-.55A1.56,1.56,0,0,1,203.12,469.81Z"/><path class="cls-4" d="M211.75,473.39l3.77,0.28,0.32,1.44h0.09a3.85,3.85,0,0,1,1.42-1.1,4.32,4.32,0,0,1,2.22-.36,5.26,5.26,0,0,1,1.5.32,3.12,3.12,0,0,1,1.19.79,3.76,3.76,0,0,1,.79,1.4,6.72,6.72,0,0,1,.29,2.12V485l-2.8-.19v-6.11a2.72,2.72,0,0,0-.59-1.93,2.21,2.21,0,0,0-1.5-.69,2.34,2.34,0,0,0-1.45.36,2.09,2.09,0,0,0-.89,1.09v7l-2.8-.2c0-3.35,0-5,0-8.38l-1.55-.11v-2.37Z"/><path class="cls-4" d="M235.82,485.78a4.6,4.6,0,0,1-.4,2,3.63,3.63,0,0,1-1.1,1.36,4.22,4.22,0,0,1-1.66.73,7.57,7.57,0,0,1-2.1.13,8.6,8.6,0,0,1-1.45-.21,8.78,8.78,0,0,1-1.25-.39,7.51,7.51,0,0,1-1-.49,4.31,4.31,0,0,1-.69-0.49l1.08-1.91a8.44,8.44,0,0,0,1.24.74,4.78,4.78,0,0,0,1.82.43,2.9,2.9,0,0,0,2.07-.49,2.11,2.11,0,0,0,.71-1.74v-0.69H233a2.07,2.07,0,0,1-1.14.69,5.47,5.47,0,0,1-1.74.13,5.65,5.65,0,0,1-1.91-.45,4.47,4.47,0,0,1-1.52-1.08,4.8,4.8,0,0,1-1-1.73,7.35,7.35,0,0,1-.35-2.39,6.78,6.78,0,0,1,.42-2.49,4.43,4.43,0,0,1,3-2.76,7,7,0,0,1,2.38-.22q0.69,0,1.38.14t1.3,0.22q0.61,0.13,1.13.27a7.31,7.31,0,0,1,.86.3v10.36Zm-5.17-2.39a2.86,2.86,0,0,0,1.47-.27,1.7,1.7,0,0,0,.89-1v-4.84a3.59,3.59,0,0,0-.85-0.26,7.8,7.8,0,0,0-1-.14A3.18,3.18,0,0,0,230,477a2.21,2.21,0,0,0-.93.55,2.7,2.7,0,0,0-.62,1,4.4,4.4,0,0,0-.23,1.5,4.62,4.62,0,0,0,.19,1.39,3.19,3.19,0,0,0,.54,1,2.54,2.54,0,0,0,.78.66A2.23,2.23,0,0,0,230.65,483.39Z"/><path class="cls-4" d="M247.12,491a10.5,10.5,0,0,1-2.93-1.11,9.32,9.32,0,0,1-2.52-2.06,9.83,9.83,0,0,1-1.76-3,11.51,11.51,0,0,1-.66-4,10.87,10.87,0,0,1,.66-3.95,8.65,8.65,0,0,1,1.76-2.85,8,8,0,0,1,2.52-1.81,10.17,10.17,0,0,1,2.93-.84l0.52,2.33a8.58,8.58,0,0,0-1.71.52,5.77,5.77,0,0,0-1.82,1.21,6.65,6.65,0,0,0-1.45,2.16,8.47,8.47,0,0,0-.59,3.4,8.19,8.19,0,0,0,.62,3.37,8,8,0,0,0,1.52,2.31A7.28,7.28,0,0,0,246,488a7.78,7.78,0,0,0,1.59.66Z"/><path class="cls-4" d="M255.44,486.9v-6.58a5.19,5.19,0,0,0-.09-1,2.11,2.11,0,0,0-.23-0.63,0.75,0.75,0,0,0-.35-0.32,1.24,1.24,0,0,0-.42-0.1,1.05,1.05,0,0,0-.68.2,1.07,1.07,0,0,0-.42.58v7.78l-2.59-.14V475.89l2,0.11,0.3,1.2h0.06a2.44,2.44,0,0,1,.95-1,2.58,2.58,0,0,1,1.46-.32,3,3,0,0,1,1.36.41,2,2,0,0,1,.88,1.25,2.23,2.23,0,0,1,1-1.1,2.69,2.69,0,0,1,1.44-.33,3.26,3.26,0,0,1,1,.21,2,2,0,0,1,.81.61,3,3,0,0,1,.53,1.13,7.37,7.37,0,0,1,.18,1.8v7.35l-2.59-.13v-6.88a2.28,2.28,0,0,0-.31-1.37,1,1,0,0,0-.76-0.43,1.15,1.15,0,0,0-.67.15,0.9,0.9,0,0,0-.39.57V487Z"/><path class="cls-4" d="M274.68,486.67a3.61,3.61,0,0,1-.72.48,6.8,6.8,0,0,1-1,.42,7.72,7.72,0,0,1-1.3.29,8.35,8.35,0,0,1-1.51.06,7.49,7.49,0,0,1-2.47-.5,5.15,5.15,0,0,1-3-3.05,6.77,6.77,0,0,1-.4-2.39,6.15,6.15,0,0,1,.45-2.46,4.64,4.64,0,0,1,1.24-1.71,4.88,4.88,0,0,1,1.84-1,7,7,0,0,1,2.28-.25,7.21,7.21,0,0,1,1.69.29,4.87,4.87,0,0,1,1.61.81,4.23,4.23,0,0,1,1.2,1.46,4.9,4.9,0,0,1,.46,2.26,10.14,10.14,0,0,1-.22,2l-7.76-.34a2.54,2.54,0,0,0,.29,1.17,2.46,2.46,0,0,0,.71.81,3.23,3.23,0,0,0,1,.49,5.16,5.16,0,0,0,1.22.2,6.18,6.18,0,0,0,2.12-.21,4.23,4.23,0,0,0,1.35-.67ZM270,478.79a3.49,3.49,0,0,0-1.06.11,2.77,2.77,0,0,0-.89.41,2.29,2.29,0,0,0-.66.7,2.17,2.17,0,0,0-.3,1l5.3,0.24A2.24,2.24,0,0,0,270,478.79Z"/><path class="cls-4" d="M278.69,490.19a7.12,7.12,0,0,0,1.59-.51,6.35,6.35,0,0,0,1.84-1.24,7,7,0,0,0,1.52-2.17,7.77,7.77,0,0,0,.62-3.31,8.9,8.9,0,0,0-.59-3.46,7.6,7.6,0,0,0-1.45-2.3,6.63,6.63,0,0,0-1.82-1.38,9.38,9.38,0,0,0-1.71-.68l0.52-2.28a11.1,11.1,0,0,1,2.93,1.13,9.22,9.22,0,0,1,2.52,2.05,9.8,9.8,0,0,1,1.76,3,11.4,11.4,0,0,1,.66,4,11,11,0,0,1-.66,4,8.65,8.65,0,0,1-1.76,2.86,8.11,8.11,0,0,1-2.52,1.82,9.64,9.64,0,0,1-2.93.83Z"/><path class="cls-4" d="M342.3,474.49l9.9,0.06v2.62l-6.94,0v3.5l6.41,0v2.62l-6.41,0v3.68l7.05,0v2.62l-10-.06v-15Z"/><path class="cls-4" d="M354,478.86h3.77l0.32,1.42h0.09a4.28,4.28,0,0,1,1.42-1.2,4.51,4.51,0,0,1,2.22-.52,5.09,5.09,0,0,1,1.5.21,2.85,2.85,0,0,1,1.2.71,3.44,3.44,0,0,1,.79,1.34,6.51,6.51,0,0,1,.29,2.1c0,2.67,0,4,0,6.69h-2.8v-6.11a2.56,2.56,0,0,0-.59-1.89,2.06,2.06,0,0,0-1.5-.58,2.48,2.48,0,0,0-1.46.46,2.32,2.32,0,0,0-.9,1.15v7h-2.8v-8.38H354v-2.37Z"/><path class="cls-4" d="M373.78,478.82l4,0v8.38l1.64,0v2.37l-3.41,0-0.5-1.59h-0.09a3.85,3.85,0,0,1-1.49,1.37,4.55,4.55,0,0,1-2.2.55,4.94,4.94,0,0,1-1.5-.21,2.68,2.68,0,0,1-1.15-.7,3.28,3.28,0,0,1-.73-1.33,7.26,7.26,0,0,1-.26-2.11v-4.32h-1.23v-2.37l4,0v6.11a3.28,3.28,0,0,0,.42,1.89,1.52,1.52,0,0,0,1.33.57,2.36,2.36,0,0,0,1.44-.48,2.58,2.58,0,0,0,.89-1.17c0-1.83,0-2.75,0-4.58h-1.21v-2.37Z"/><path class="cls-4" d="M384.8,489.47v-6.58a5.1,5.1,0,0,0-.09-1,2,2,0,0,0-.23-0.62,0.68,0.68,0,0,0-.35-0.3,1.2,1.2,0,0,0-.42-0.07,1.11,1.11,0,0,0-.68.24,1.17,1.17,0,0,0-.42.61c0,3.11,0,4.67,0,7.78l-2.59,0V478.77l2,0,0.3,1.18h0.06a2.69,2.69,0,0,1,2.42-1.45,2.83,2.83,0,0,1,1.36.33,1.8,1.8,0,0,1,.88,1.19,2.45,2.45,0,0,1,1-1.16,2.82,2.82,0,0,1,1.44-.42,3.16,3.16,0,0,1,1,.15,1.81,1.81,0,0,1,.81.56,2.76,2.76,0,0,1,.53,1.1,7.21,7.21,0,0,1,.18,1.79v7.35l-2.59,0c0-2.75,0-4.13,0-6.88a2.18,2.18,0,0,0-.31-1.35,0.94,0.94,0,0,0-.77-0.38,1.21,1.21,0,0,0-.67.19,1,1,0,0,0-.39.6v7.85Z"/><path class="cls-4" d="M397.27,487.86a1.58,1.58,0,0,1,.47-1.2,2.06,2.06,0,0,1,2.54,0,1.52,1.52,0,0,1,.47,1.18,1.62,1.62,0,0,1-.47,1.21,1.83,1.83,0,0,1-1.29.48,1.71,1.71,0,0,1-1.25-.43A1.55,1.55,0,0,1,397.27,487.86Z"/><path class="cls-4" d="M407.51,478.31l7.93-.2c0,4,0,5.95,0,9.91a5.69,5.69,0,0,1-1.29,3.93,5.11,5.11,0,0,1-3.88,1.52,6.11,6.11,0,0,1-2-.27,4.48,4.48,0,0,1-1.64-.91l1.25-2.09a4.38,4.38,0,0,0,.85.46,3.17,3.17,0,0,0,1.39.26,3,3,0,0,0,1-.19,2,2,0,0,0,.81-0.56,2.71,2.71,0,0,0,.54-1,5,5,0,0,0,.19-1.51v-7.12l-5.13.13v-2.37Zm3.51-3a1.56,1.56,0,0,1,.5-1.15,2,2,0,0,1,1.38-.51,2.07,2.07,0,0,1,1.44.43,1.46,1.46,0,0,1,0,2.27,2.26,2.26,0,0,1-1.44.48,2,2,0,0,1-1.38-.4A1.41,1.41,0,0,1,411,475.3Z"/><path class="cls-4" d="M419.17,483.37a6.71,6.71,0,0,1,.41-2.42,5.07,5.07,0,0,1,3-3,7,7,0,0,1,2.34-.45,6.67,6.67,0,0,1,2.43.33,4.8,4.8,0,0,1,1.8,1.09,4.61,4.61,0,0,1,1.11,1.76,7.32,7.32,0,0,1,0,4.73,5.09,5.09,0,0,1-3,3,7,7,0,0,1-2.34.45,6.63,6.63,0,0,1-2.43-.33,4.79,4.79,0,0,1-1.8-1.1,4.63,4.63,0,0,1-1.11-1.76A6.74,6.74,0,0,1,419.17,483.37Zm2.89-.09a4.2,4.2,0,0,0,.19,1.31,3.1,3.1,0,0,0,.56,1,2.42,2.42,0,0,0,.88.67,2.66,2.66,0,0,0,1.19.21,2.83,2.83,0,0,0,2-.86,3.56,3.56,0,0,0,.79-2.54,3.61,3.61,0,0,0-.73-2.37,2.45,2.45,0,0,0-2.09-.84,3.4,3.4,0,0,0-1.12.22,2.3,2.3,0,0,0-.9.62,3,3,0,0,0-.59,1.05A4.69,4.69,0,0,0,422.06,483.29Z"/><path class="cls-4" d="M432.62,485.94l3.79-.14v-6l-3.79.14v-2.37l6.6-.25v8.38l4-.16v2.37c-4.23.18-6.35,0.26-10.58,0.41v-2.37Zm3.28-11.43a1.58,1.58,0,0,1,.5-1.16,2,2,0,0,1,1.38-.53,2,2,0,0,1,1.44.42,1.4,1.4,0,0,1,.54,1.12,1.45,1.45,0,0,1-.54,1.15,2.29,2.29,0,0,1-1.44.5,1.94,1.94,0,0,1-1.38-.39A1.39,1.39,0,0,1,435.9,474.51Z"/><path class="cls-4" d="M444.54,477.09l3.77-.16,0.32,1.4h0.09a4.56,4.56,0,0,1,1.42-1.27,4.66,4.66,0,0,1,2.22-.62,5,5,0,0,1,1.5.15,2.69,2.69,0,0,1,1.2.65,3.24,3.24,0,0,1,.79,1.31,6.39,6.39,0,0,1,.29,2.08v6.69l-2.8.13v-6.11a2.46,2.46,0,0,0-.59-1.86,2,2,0,0,0-1.5-.51,2.58,2.58,0,0,0-1.45.53,2.47,2.47,0,0,0-.89,1.19v7l-2.8.12v-8.38l-1.55.07v-2.37Z"/><path class="cls-4" d="M467,491.33a9.55,9.55,0,0,1-2.93-.79,8,8,0,0,1-2.52-1.78,8.52,8.52,0,0,1-1.76-2.84,10.91,10.91,0,0,1-.66-4,11.46,11.46,0,0,1,.66-4,10,10,0,0,1,1.76-3,9.41,9.41,0,0,1,2.52-2.09,11.24,11.24,0,0,1,2.93-1.16l0.52,2.27a9.51,9.51,0,0,0-1.71.7A6.73,6.73,0,0,0,464,476a7.72,7.72,0,0,0-1.45,2.32,9,9,0,0,0-.59,3.47,7.71,7.71,0,0,0,.62,3.3,6.87,6.87,0,0,0,1.52,2.15,6.24,6.24,0,0,0,1.84,1.22,7,7,0,0,0,1.59.49Z"/><path class="cls-4" d="M481.56,485.94a4.93,4.93,0,0,1-.4,2,4.33,4.33,0,0,1-1.1,1.5,4.89,4.89,0,0,1-1.66.94,7.92,7.92,0,0,1-2.1.39,8.34,8.34,0,0,1-1.45,0,8.06,8.06,0,0,1-1.25-.24,6.6,6.6,0,0,1-1-.36,3.65,3.65,0,0,1-.69-0.4l1.08-2a7.26,7.26,0,0,0,1.24.59,4.48,4.48,0,0,0,1.82.21,3.2,3.2,0,0,0,2.07-.74,2.38,2.38,0,0,0,.71-1.83v-0.69h-0.09a2.44,2.44,0,0,1-1.14.83,5.75,5.75,0,0,1-1.75.35,5.32,5.32,0,0,1-1.91-.21,3.8,3.8,0,0,1-1.52-.89,4.1,4.1,0,0,1-1-1.61,7,7,0,0,1-.36-2.35,7.2,7.2,0,0,1,.42-2.54,5.26,5.26,0,0,1,3-3.13,7.37,7.37,0,0,1,2.38-.51q0.69,0,1.38,0t1.3,0.06q0.61,0,1.13.14a6.64,6.64,0,0,1,.86.2v10.36Zm-5.17-1.76a3.11,3.11,0,0,0,1.48-.45,2,2,0,0,0,.89-1.15v-4.84a3.29,3.29,0,0,0-.85-0.15,7.6,7.6,0,0,0-1,0,3.38,3.38,0,0,0-1.13.26,2.61,2.61,0,0,0-.93.67,3.17,3.17,0,0,0-.62,1.09,4.64,4.64,0,0,0-.23,1.53,4.38,4.38,0,0,0,.19,1.36,2.74,2.74,0,0,0,.54,1,2.13,2.13,0,0,0,.78.57A2.07,2.07,0,0,0,476.39,484.18Z"/><path class="cls-4" d="M483.9,483.43l2.67-.17v-6l-2.67.17V475l4.84-.31,0.32,1.4h0.09a6.25,6.25,0,0,1,1.38-1.27,3.6,3.6,0,0,1,1.81-.59,2.29,2.29,0,0,1,2,.81,5,5,0,0,1,.74,3.11l-2.52.17a2.08,2.08,0,0,0-.23-1.11,0.74,0.74,0,0,0-.72-0.31,2.26,2.26,0,0,0-1.39.52,4.77,4.77,0,0,0-.89,1v4.58l4.67-.31v2.37c-4.06.27-6.08,0.4-10.14,0.65v-2.37Z"/><path class="cls-4" d="M507.48,483.06a4.26,4.26,0,0,1-.72.56,7.75,7.75,0,0,1-1,.54,8.42,8.42,0,0,1-1.3.44,8.61,8.61,0,0,1-1.51.24,7.12,7.12,0,0,1-2.46-.21,4.38,4.38,0,0,1-3-2.71,6.4,6.4,0,0,1-.4-2.35,6.55,6.55,0,0,1,.45-2.51,5.45,5.45,0,0,1,1.24-1.86,5.67,5.67,0,0,1,1.84-1.19,7.43,7.43,0,0,1,2.28-.52,6.92,6.92,0,0,1,1.69.09,4.28,4.28,0,0,1,1.6.62,3.57,3.57,0,0,1,1.19,1.32,4.57,4.57,0,0,1,.46,2.2,10.53,10.53,0,0,1-.22,2l-7.75.56a2.35,2.35,0,0,0,.29,1.14,2.07,2.07,0,0,0,.71.72,2.85,2.85,0,0,0,1,.37,5,5,0,0,0,1.22.05,6.51,6.51,0,0,0,2.12-.45,4.89,4.89,0,0,0,1.35-.83Zm-4.65-7.34a3.68,3.68,0,0,0-1.05.23,3.19,3.19,0,0,0-.89.51,2.72,2.72,0,0,0-.66.78,2.39,2.39,0,0,0-.3,1l5.3-.38A2,2,0,0,0,502.83,475.72Z"/><path class="cls-4" d="M520.39,482.07a4.29,4.29,0,0,1-.72.56,7.79,7.79,0,0,1-1,.54,8.47,8.47,0,0,1-1.3.45,8.64,8.64,0,0,1-1.51.25,7.1,7.1,0,0,1-2.46-.2,4.34,4.34,0,0,1-3-2.69,6.38,6.38,0,0,1-.4-2.35,6.58,6.58,0,0,1,.45-2.52,5.5,5.5,0,0,1,1.24-1.87,5.72,5.72,0,0,1,1.84-1.2,7.46,7.46,0,0,1,2.28-.53,6.91,6.91,0,0,1,1.69.08,4.25,4.25,0,0,1,1.6.61,3.54,3.54,0,0,1,1.19,1.31,4.56,4.56,0,0,1,.46,2.2,10.55,10.55,0,0,1-.21,2l-7.75.61a2.33,2.33,0,0,0,.29,1.14,2.05,2.05,0,0,0,.71.72,2.83,2.83,0,0,0,1,.36,5,5,0,0,0,1.22,0,6.53,6.53,0,0,0,2.12-.47,4.93,4.93,0,0,0,1.34-.84Zm-4.65-7.31a3.69,3.69,0,0,0-1.05.24,3.21,3.21,0,0,0-.89.52,2.75,2.75,0,0,0-.66.78,2.41,2.41,0,0,0-.3,1l5.29-.41A2,2,0,0,0,515.74,474.76Z"/><path class="cls-4" d="M524.31,474.51l-2.13.17v-2.37l2.13-.17v-2.45l2.8-1v3.25l5.64-.48v2.37l-5.64.48v3.07a3.49,3.49,0,0,0,.62,2.35,2,2,0,0,0,1.74.59,3.85,3.85,0,0,0,1.05-.23,4.35,4.35,0,0,0,.85-0.43,5.53,5.53,0,0,0,.69-0.53l0.57-.52,1.29,1.82a4.67,4.67,0,0,1-.91.86,8.55,8.55,0,0,1-1.18.73,8.14,8.14,0,0,1-1.32.53,6.53,6.53,0,0,1-1.36.27,4.31,4.31,0,0,1-3.62-1q-1.22-1.24-1.22-4.17v-3.07Z"/><path class="cls-4" d="M536.39,484.38l9.55-.86v2.3l-9.55.86C536.39,485.76,536.39,485.3,536.39,484.38Z"/><path class="cls-4" d="M547.62,470.09l3.65-.35,0.32,1.26h0.09a4.57,4.57,0,0,1,3.61-1.94,4.94,4.94,0,0,1,1.82.13,3.11,3.11,0,0,1,1.42.84,4,4,0,0,1,.91,1.59,7.74,7.74,0,0,1,.32,2.4,8.26,8.26,0,0,1-.36,2.52,6,6,0,0,1-1.05,2,5.2,5.2,0,0,1-1.68,1.35,6.24,6.24,0,0,1-2.26.63,8.72,8.72,0,0,1-1.31,0,3.4,3.4,0,0,1-1.07-.21c0,1.76,0,2.64,0,4.41l-2.79.27c0-5.07,0-7.61,0-12.68l-1.61.15v-2.37Zm6.83,1.41a3.08,3.08,0,0,0-1.49.55,2.42,2.42,0,0,0-.94,1.32v4.47a2.08,2.08,0,0,0,.87.29,4.66,4.66,0,0,0,1.15,0,3.19,3.19,0,0,0,1.12-.31,2.62,2.62,0,0,0,.9-0.74,3.58,3.58,0,0,0,.6-1.2,5.83,5.83,0,0,0,.21-1.68,2.93,2.93,0,0,0-.69-2.13A2,2,0,0,0,554.45,471.5Z"/><path class="cls-4" d="M562.44,469.38a13,13,0,0,1,2-.87,11.83,11.83,0,0,1,2.67-.55,5.76,5.76,0,0,1,1.9.07,2.79,2.79,0,0,1,1.27.63,2.52,2.52,0,0,1,.7,1.11,5,5,0,0,1,.21,1.53q0,1.1-.08,1.88T571,474.55a9,9,0,0,0,0,1c0,0.19,0,.39.06,0.57l1.4-.15c0,0.95,0,1.42,0,2.37l-3.61.38-0.28-1.43h-0.11a4.32,4.32,0,0,1-1.22,1.28,4.4,4.4,0,0,1-2.13.7,3.34,3.34,0,0,1-2.54-.6,2.66,2.66,0,0,1-.94-2.18,3.63,3.63,0,0,1,.33-1.59,3.21,3.21,0,0,1,1-1.17,5.13,5.13,0,0,1,1.52-.78,9.27,9.27,0,0,1,2-.41c0.26,0,.53,0,0.81,0l1,0a2.27,2.27,0,0,0,0-.43v-0.41a1.24,1.24,0,0,0-.47-1.12,2.14,2.14,0,0,0-1.39-.21,6.82,6.82,0,0,0-2,.48,14.27,14.27,0,0,0-1.47.71Zm3.66,7.52a2.79,2.79,0,0,0,1.53-.53,3,3,0,0,0,.74-0.88v-1.29l-0.64,0a7.24,7.24,0,0,0-.91,0,4.55,4.55,0,0,0-.81.16,3,3,0,0,0-.72.31,1.65,1.65,0,0,0-.51.47,1.1,1.1,0,0,0-.19.64,1.11,1.11,0,0,0,.35.9A1.54,1.54,0,0,0,566.1,476.89Z"/><path class="cls-4" d="M574.24,475.8l2.66-.29v-6l-2.66.29v-2.37l4.83-.52,0.32,1.38h0.09a6.67,6.67,0,0,1,1.37-1.33,3.73,3.73,0,0,1,1.8-.67,2.18,2.18,0,0,1,2,.72,4.81,4.81,0,0,1,.74,3.08l-2.51.28a2,2,0,0,0-.23-1.1A0.71,0.71,0,0,0,582,469a2.36,2.36,0,0,0-1.38.58,5.09,5.09,0,0,0-.89,1.09v4.58l4.66-.52c0,0.95,0,1.42,0,2.37-4,.45-6.07.68-10.11,1.11V475.8Z"/><path class="cls-4" d="M588.77,468.17l-2.12.24V466l2.13-.24c0-1,0-1.47,0-2.45l2.79-1.12v3.25l5.62-.66v2.37l-5.62.66v3.07a3.41,3.41,0,0,0,.62,2.33,1.93,1.93,0,0,0,1.74.54,3.91,3.91,0,0,0,1.05-.26,4.51,4.51,0,0,0,.85-0.45,5.76,5.76,0,0,0,.69-0.55l0.57-.54,1.29,1.78a4.9,4.9,0,0,1-.91.89,8.9,8.9,0,0,1-1.18.76,8.39,8.39,0,0,1-1.32.57,6.63,6.63,0,0,1-1.35.31,4.19,4.19,0,0,1-3.61-.92q-1.21-1.2-1.21-4.13v-3.07Z"/><path class="cls-4" d="M607.77,471.32a0.66,0.66,0,0,0-.53-0.62,6.93,6.93,0,0,0-1.3-.31l-1.69-.23a6.94,6.94,0,0,1-1.69-.42,3.58,3.58,0,0,1-1.3-.85,2.11,2.11,0,0,1-.53-1.52,2.94,2.94,0,0,1,.35-1.44,3.84,3.84,0,0,1,1-1.14,5.24,5.24,0,0,1,1.46-.81,8,8,0,0,1,1.83-.44,9.94,9.94,0,0,1,1.84-.08,8.46,8.46,0,0,1,1.38.19,4.44,4.44,0,0,1,1,.36l0.72,0.39-1.18,2.06c-0.21-.1-0.46-0.2-0.74-0.31a8.7,8.7,0,0,0-.88-0.27,6.26,6.26,0,0,0-1-.16,4.67,4.67,0,0,0-1,0,4.1,4.1,0,0,0-1.46.42,0.91,0.91,0,0,0-.56.8,0.62,0.62,0,0,0,.53.56,7.73,7.73,0,0,0,1.3.28L607,468a8.08,8.08,0,0,1,1.69.4,3.42,3.42,0,0,1,1.3.82,2,2,0,0,1,.53,1.48,3.53,3.53,0,0,1-1.19,2.72,6.27,6.27,0,0,1-3.53,1.37,8,8,0,0,1-3.18-.16,6.35,6.35,0,0,1-2.16-1l1.29-2.18a5.49,5.49,0,0,0,.74.44,5.81,5.81,0,0,0,1,.4,8,8,0,0,0,1.23.25,5.23,5.23,0,0,0,1.3,0,3,3,0,0,0,1.18-.38A0.94,0.94,0,0,0,607.77,471.32Z"/><path class="cls-4" d="M616.69,471.78a1.68,1.68,0,0,1,.48-1.22,2,2,0,0,1,1.21-.59,1.88,1.88,0,0,1,1.78.54,2.71,2.71,0,0,1,.6,1.84,4.41,4.41,0,0,1-.38,1.81,5.59,5.59,0,0,1-1,1.5,6.41,6.41,0,0,1-1.34,1.12,6.24,6.24,0,0,1-1.47.68L616,476.36a7.15,7.15,0,0,0,1-.5,5,5,0,0,0,1-.71,4,4,0,0,0,.72-0.92,2.55,2.55,0,0,0,.33-1.08,2.82,2.82,0,0,1-1.09.17,1.44,1.44,0,0,1-.74-0.25,1.18,1.18,0,0,1-.42-0.55A2.09,2.09,0,0,1,616.69,471.78Z"/><path class="cls-4" d="M640.53,454.89l2.44-.35-0.77,6.9-1.67.24C640.53,459,640.53,457.6,640.53,454.89Zm4.62-.66,2.44-.35-0.77,6.91-1.67.24C645.16,458.31,645.16,456.95,645.16,454.23Z"/><path class="cls-4" d="M653.37,453l2.44-.36L655,459.58l-1.67.25C653.37,457.11,653.37,455.75,653.37,453Zm4.62-.69,2.44-.37-0.77,6.91-1.67.25C658,456.42,658,455.06,658,452.35Z"/><path class="cls-4" d="M666,468.4a8.59,8.59,0,0,0,1.58-.81,8.33,8.33,0,0,0,1.83-1.6,9.11,9.11,0,0,0,1.51-2.46,8.7,8.7,0,0,0,.62-3.43,8.12,8.12,0,0,0-.59-3.35,5.82,5.82,0,0,0-1.44-2,5,5,0,0,0-1.81-1,7.9,7.9,0,0,0-1.7-.35l0.51-2.38a9.39,9.39,0,0,1,2.91.56,7,7,0,0,1,2.5,1.57,7.59,7.59,0,0,1,1.74,2.68,10.45,10.45,0,0,1,.65,3.89,12.14,12.14,0,0,1-.65,4.1,11.13,11.13,0,0,1-1.74,3.2,10.67,10.67,0,0,1-2.5,2.31,11.51,11.51,0,0,1-2.91,1.4Z"/></svg>